<svg id="Layer_1" data-name="Layer 1" xmlns="http://www.w3.org/2000/svg" viewBox="0 0 1363.95 1065.59"><defs><style>.cls-1{fill:none}.cls-2{opacity:.2}.cls-3,.cls-6{fill:#52853c}.cls-4{opacity:.4;fill:url(#linear-gradient)}.cls-5{clip-path:url(#clip-path)}.cls-6{opacity:.1}</style><linearGradient id="linear-gradient" x1="681.97" y1="1065.59" x2="681.97" gradientUnits="userSpaceOnUse"><stop offset="0" stop-color="#fff"/><stop offset="1" stop-color="#51833c"/></linearGradient><clipPath id="clip-path"><path class="cls-1" d="M824.12 58.77H1363v884H824.12z"/></clipPath></defs><title>CAF_PlayerBGArtboard 1</title><g class="cls-2"><path class="cls-3" d="M88.72 794.15l-1.86.54c-5.39 1.18-5.72 7.73-9.78 8.55-3.62.83-10.65-11-11.19-14.17-1.79-11.48 16.36-17.7 23.1-19.71-3.09-1.47-3.33-2.54-3.64-4.62-.34-2.58.84-3.45.51-6s-2.08-3.9-2.34-5.91c-.79-4.7 4-10.12 8.45-11.15 5.5-1.24 11.6 2.32 12.75 9.53 1.4 8.92-4.37 7.58-9.85 8.65.8 4.75.36 8.08 6.74 6.68 8.48-2 3.55-21.31 13.94-23.7 5.07-1.1 21.61-4.86 23.12 4 1.81 11.5-12.32 19.53-19.14 23.77l8.54 6.66s.18 1 .36 2.11c.72 4.75-2.74 6.48-2.9 11.44-.61 5 3.27 8.91-2.12 10.22-4 .87-1.87-2.88-5.74-3.61-5.84-1.95-7.45 2.74-8.68-5.07-1-6.18.57-10.88 4.27-17.14l-4.85-1.09c-.05 11.27-3.68 12.16-13.5 14.92l.11.53c.28 2.12 1.37 2.95 2.28 2.8 2.66-.69 3-2.32 4.66-2.73 2.31-.55 3.31-.25 3.67 1.88.46 3.13-.8 4-.49 6 .4 2.55 2 3.35 2.28 5.4 1.12 7.34-10.39 11-15.44 12.1-4 .94-7.77-2-8.61-7.25-.83-5.67 2.13-10.21 5.35-13.63zm-11.07 21.93c1.45-.28 3.16-.7 3.37 3a20.56 20.56 0 0 1-2.29 3.27l-.5.07c-1.75.5-2.39-.48-2.74-2-.36-2.57-.02-3.79 2.16-4.34zm1.48-58.56c1.71-.41 2.32 3.34 2.65 4.77.41 2.59 0 3.26-1.82 3.64-2.24.54-3.24.13-3.62-2.42s.5-5.51 2.79-5.99zm17.57 60.77c2.27-.52 3 .94 3.29 3.1s.11 3.7-2.09 4.2-2.92-.87-3.33-3.08c-.31-2-.05-3.68 2.13-4.22zm6.46 10.39c4.89-1.13 13 2.47 13.89 8.74a11.53 11.53 0 0 1-8.62 13.28c-5.38 1.23-7.4-5.4-8.19-10.62-.75-4.66-1.69-10.35 2.91-11.4zm2.7-15.14c3.14-.67 3.34.88 3.72 3.4.48 2.69-.21 3.94-2.94 4.49-1.87.38-3.8-.17-4.15-2.25-.43-2.6 1.51-5.27 3.36-5.63zm7.29-7c1.34-.36 4-1 4.16 2.76-1.16 1.4-1.94 2.62-3.19 4l-.84.28a15.6 15.6 0 0 0-3.21-2.59c-1.49-3.39 1.62-4.23 3.07-4.46zm-4-71.94c3.09-.72 3.41.88 3.59 2.37.43 2.7-.58 5-2.82 5.56-1.78.34-3.46-.91-3.79-3.48-.32-1.58 1.61-4.17 3.01-4.47zm7.63 4.17c-1.3-8.28-1.62-9.86 5.23-11.38.87 5.72-.19 10.27-5.25 11.37zm125 211.8l-21.2-118.71c-6.31-5.5 13-11.62 13.4-12.17.56-1.81 6.27-16.58 7.36-18.42 7.9-17.44 28.5-46.81 25.22-67.13-.17-1.12-.88-5.85-1.05-6.8l-4 9.55c2 1.15 2.52 1.59 3 4.18.58 3.55-5.84 10.47-8.91 11.16-2.48-14.57-18.12-16.39-16.33-28.69-3.71.36-5 15.67-17.63 18.53-2.69.62-8.62 2-9.38-2.75-1.14-7.33 5-7.62 5.45-13.11-.06-.46-1.29-8.25-1.43-9.34a32.2 32.2 0 0 1 1.72-6.94c-1.57 2.1-5.81-.78-6.09-2.91-.31-1.45-.27-4.18 1.49-4.62 3.23-.77 4.45 4 7.56 3.21l.47-.13c.79-.7 4.61-3.21 5.43-3.91-4.94 1-14.63-1-15.64-7.24-1.78-11.48 15.56-20.26 22.26-24.41 4.67-15.16 21.19-8.1 23.55-16.73-3-.94-2.24-2.24-2.46-3.77-.35-2.14-.51-5.8 2.69-6.53 1.3-.31 1.87.08 3.89.77-.18-1 .33-6.54.08-8.14l-.19-1-.05-.57c-.82.7-4.71 3.21-5.41 4.56h-.9c-1.88-.6-7.78-2.48-9.37-3.2-.55 2.78-1 5.68-3.68 6.25a4 4 0 0 1-4.78-3.24c-.2-1.61 2.6-4.36 3.56-4.59l3.34.38c.44-.14 1.31-.9 1.18-1.33-3.11-7.46-15 5.49-17.4-9.12-1.93-12.44 1.67-16 11.67-18.22 1.76-.32 7-2.68 10.15-.71 3.76 3.46 12 19.89 12 25.35 4.05-6.27 8.46-8.39 15.63-10 3.65-.85 20.2 6.28 21.25 13 1.06 6.22-8.69 12.69-12.3 13.61l-1.33.27c-.95.26-3.53-1.38-4.89-1.08-.42.19-3 1.26-3.27 2.85-.89.24-1.56 2.11-1.56 2.11.77 4.06 4.53 7.54 5.19 11.69.75 4.67-1.29 6.73-4.44 7.47s-4.89 1.13-8.08-.85L266 674.3c6.3-1.37 14.27-1.52 15.63 6.76 1.9 12-8.32 24-15.37 29.88 1.65 4 7 8.73 7.76 13.39.59 3.67.68 4.18-.59 8.31l.12 53.25c6.43-9.53 13.27-27.74 17.14-36.12-6.08.26-10.23.09-11.59-8.22-2-12.55 4-19.24 14.26-22.12l-.75-4.68s-6-2.43-9.44-3.32c-2.79.08-6.42 3.64-7.34-2.06-.71-4.74 11-7.33 9.78-26.54.33-6.55-3.79-12 3.93-13.75 5.81-1.39 6.48.17 13.62 3.33 6.73 3.91 5.12 9.1 6.4 16.86l10.25-2.27c.43-6 4.49-16.1 10.82-17.48 2.67-.61 9.95.88 12.15.38.28-4.3 4.13-12.22 8.19-13.15 5-1.1 7.06.05 7.78 4.67 1.25 7.89-5.11 11.91-12.42 13.17a43.28 43.28 0 0 1-1.67 13.23c.17 1.13.77 1.4 1.23 1.36 4.92-1.13 9.15-10.08 11.35-10.67 6.27-1.44 5 13.5 10.84 12.12.49-.06 1.66-1.45 5.29-2.26 3.11-.74 8.21 5.18 8.67 7.8.22 1-1.27 4-1.1 5 .68 1.06 2.05 1.23 2.65 4.32.39 2.66.95 6.26-2.63 7.12-5.45 1.19-3.14-4.69-4.9-7 0 0-6.18-.74-7.29-1.58s-3.12-5.3-4.16-5.56c0 0-3.57.85-4 1-6.39-2.46-3.31-6.33-11-4.55l-2.72.59-.3 3.79a26.34 26.34 0 0 1 5.92 2c.52.34 5.78 4 6.38 4.93 4.54 2.26 10.31-.07 11.57 8.21.38 2.66-.23 4.38-2.43 4.87-4.1.87-6-5.13-10.07-4.19-2.69.63-4.73 5.38-6.65 8 6.19 6.58 20.89-6.37 23.13 7.13 1.55 9.89-9.4 14.55-16.17 16-5.38 1.33-7.46.09-9.82-5.83l-.46.13c-3.14.78-2.36 5.35-6 6.24-5.47 1.19-9.54-12.9-11.36-12.6-2.77.65-4.61 3.24-2.17 7-12.67 17.34-30.62 43-40.23 64.62.14.56-.77 3.93-.66 4.51-.06 5.39.83 28.44.6 33.23.92 5.28 4.71 29.15 5.51 33.86 4.84 30.72 13.11 59.07 18.07 90.32-4.54 1-6.46.45-8.54-4-3.77 8.5-35.66 11.38-34.31 11l-2-1.14-1.9-12s-3.86-.7-5.12.14c-1.4.29-2.66 3.81-2.66 3.81l-.43.08c-1.45.33-3.47-.84-4.77-.41-1.81.27.07 3.62-3.54 4.52-1.79.29-3.58.67-5.54-2.57L245 980l-20.74 4.66c-3.69-22.86-3.94-45.45-7.49-67.24-3.87-24.6-9.52-48.09-13.32-72.05-.62-4.14-2.58-16.1-2.6-16.61-.23-1.1-8.11-19.61-4.54-20.48 3.13-.75 9.46 0 10.71 2l3.52 9.26c-.36-2-1.08-4.11-3-4.13l-75.37-18.08c-1-.24-1.08-1.4-1.25-1.9-.64-4.14 2.55-4.84 4.74-5.35 5.43-1.2 11.12 2.32 16.57 1.08 3.61-.75 3.44-13.74 8.36-14.79 2.22-.48 10.52 7.28 13 8.34 6.94 2.24 24 9.73 25.82 9.31a161 161 0 0 0-17-44.71c-2.54 1.69-6.53 2.57-7.19-1.57-.62-3.61 3.64-3 2.83-8.28-.38-2-.7-4.08-2.89-6.24-1 2.73-1.83 3-4.49 3.64-1 .16-3.21.68-3.54-1.44-.24-1.59.49-6 2.23-6.38 1.38-.31 3.8.14 3.6-.81-.06-.57-1.79-5.48-1.88-6a7 7 0 0 1-4.62 3.7c-2.13.51-3.66-.26-4-2.8s9.19-9.18 10.61-9.41c.89-.22 1.3-.31 2.48 1 .6.9 5.32 10.18 6 11.54-1.1-4.09-1.71-10.36-.84-14.39 0-2.58 4.08-3.55 4.6-6.38 2.6-7.08 3.5-15.84 11.17-17.6 6.77-1.59 10.8.24 12.06 8 1.06 6.84 1.06 9.45-1.62 16.53a13.38 13.38 0 0 1-6.06 3c-5 1.13-10.88-1.3-14.75-4.8.18 1.1.3 1.55 1 6.28 2.3 8.65 12.53 46.67 14.71 54.37.36 2.15 3.85 9.41 4.51 10.82 2.07 3.9 12.16 23.14 14.67 27l.23 1.54.2 1.55m-96.18-96.38c1.8-.38 6.32-1.35 8.21-1.83.82-.19 7.16 4.3 8.16 4.62 5.13 2.66 9.55-1.59 10.89 6.75 1 6.75-3.69 14.84-9.64 16.13l-.38.19c-10.76-3.09-15.2-4.71-17.16-16.66-.33-2.68-1.91-6.11-.08-9.2zM146 763c-.73-4.18-.59-15 4.34-16.24 1.88-.29 3.26-.13 3.73 2.54.85 5.79-3.83 8.42-4.56 12.93-.17 1.65 4.26 6 4.51 7.46 1.33 8.39-4.83 13.6-10.68 14.93-6.42 1.43-8.82-1.8-9.72-8.11C131.61 764.57 140 764.22 146 763zm-3-59.21c1-.24 2.1 1.14 2.28 2.15.57 3.68-.13 7.55-3.78 8.39-1.37.3-2.17-1.64-2.41-3.24-.61-3.62.76-6.62 3.84-7.32zM138.28 680c1.77-.46 4.74.48 5.06 2.54.39 2.65-1.06 4.66-2.9 5-3.17.7-3.77-.2-4.32-3.38-.31-1.98-.59-3.64 2.16-4.16zm23.62 22.16c-2.68.53-18.46-7.21-18.77-9.18-1.15-7.33 13.4-7.42 12.26-14.13-.16-1.11-1.81-2.31-2.11-3.85a4.45 4.45 0 0 1 3.55-4.64c4.56-1 2.8 3.12 3.48 6.8 5.79-1.29 9.12-4.19 14.51-5.49 4.91-1 7 2.69 7.55 7 1.07 6.12-2 10.73-1 16.36.27 2.12 1.78 2.26 2.28 5.44.32 2.08-2.36 2.7-3.78 3-1.74.35-3.6.9-3.92-1.18-15.8 3.49-2.33 5.85-11.39 7.88-1.69.42-2.74.16-3.17-2.47a8.81 8.81 0 0 1 .51-5.52zm-1.67 36.51c.57 3.13-4 4.09-5.41 4.41-.42-3.09-.33-5.25 2.83-5.95 1.35-.3 2.35-.07 2.58 1.56zm-11.88-71.21c1.38-.32 4.28 2.78 4.4 3.83-.1 2.73-1.73 3.61-3.52 4-2.3.46-3.3.15-3.7-2.37s1.09-5.1 2.82-5.44zM153 649.2c.56 3.06-.15 5.39-2.82 6-1.33.23-3.19.17-3.46-1.42-.52-3.06 4.43-4.25 6.28-4.58zm7.3-1.15c3.55-.84 6.49 2.36 10 1.57 5-1.13 3.15-24.51 13.77-25.32 3.65-.22 9.57 4.37 10.27 8.49.93 5.76-3.14 4-5.59 8.89-5.38 7.59-1.26 21.82-11.61 24.1-3.13.77-4.56-2.13-7.69-1.38-2.68.61 0 3.15-4.52 4.22-5.36 1.26-8.82-3.48-9.77-9.18-.88-5.21.59-10.32 5.12-11.44zm7.7-16.33c1.73-.36 3.27-.18 3.54 1.93a3.6 3.6 0 0 1-3 4.41c-1.3.33-3-1.39-3.22-3-.44-2.11.89-2.9 2.68-3.34zm28.81 16.68c-.21-1-.94-5.7-1.15-6.71.67-8.22 6.9-28 15.42-29.93 3.61-.79 10.62 2.46 11.5 7.68.57 3.56 2.17 13.53-1.67 18.66 4.87-4.27 16.53 4.42 17.38 9.59.13 1.05.62 3.62.69 4.19-4.36 8-9.6 18.87-19 21-5.47 1.23-10.15-2-11.94-7-5.87 4.07 1.82 14.17-8.12 16.37-5.86 1.42-10.47-4.05-14.88-8.42-2.57-15.61 9.69-15.24 11.73-25.43zm1.06 74.23c1.84-.43 3.93.7 4.32 3.37.36 2.16-3 4.46-4.39 4.69-2.24.55-2.48-1.52-2.88-3.1-.47-3.09-.22-4.29 2.91-4.96zM199 753.1c-.74-4.68-.79-10.52 5.56-12.09 10.46-2.29 4.32 15.85 11 19.1 3.4-2.26-1.45-6.06 4-7.3 1.8-.4 3.2-.83 3.91.76 1 6.79 7.81 40.33 9.06 48.07 0 0 .49 3.16.56 3.68.56 3.59.2 4.28-2.51 4.83l-2.24.44c-10.14-13.76-15.31-31.51-20.36-48.7-8.5-6.18-8.83-8.25-8.98-8.79zm12.18-31.87a3.69 3.69 0 0 1-3 4.46c-3.58.9-4.12-8.23-4.18-8.73 4-.96 6.42-.96 7.2 4.27zm7.72 48.43c.63-2.27-.28-8-1.29-8.35-1.13-1.31.5 9.06 1.31 8.34zM197 611.2c2.24-.53 3.76.23 4.2 2.84.31 2.07-1 2.84-3.23 3.43-1.82.34-3.29.17-3.55-1.94-.42-2.53.7-3.99 2.58-4.33zm12.65 47.31a15 15 0 0 0 3.15-12.09 43 43 0 0 0-10 3.88c3 2.02 5.88 5.22 6.81 8.21zm.73 16.57c1.85-.46 3.67-.84 4.2 2.29.59 3.58-1.2 4-3 4.41-2.29.5-3.65.83-4.24-2.84-.53-3.15.86-3.31 2.99-3.87zm25.57 66c4.92-1.13 12.26 3.66 13.21 9.35.93 6.14-6.22 17-11.64 18.26-6.34 1.43-7.81-5.19-8.68-10.39-1.09-6.83-.2-15.66 7.07-17.24zm18.77 135.36c1.39 8.83 10.35 50.09 12.2 58.76-.42-11.2-5-63.54-5.93-75.2-.37-2.13-3-18.83-3.93-24.54-.59-3.59-3.15-20.28-3.83-23.84-2.79 6-4.93 15.57-5.76 19.52.57 3.68 3.21 19.85 3.6 22.38.87 5.72 3.45 21.93 3.61 22.9zm-13.59-158.17c1.54-2 4.6-6.48 7.33-7.06 3.09-.8 5.47 2.59 8.22 1.85.88-.14 1.43-.25 1.93-2.49-3.82-3-6.8-4.48-7.36-8.16-.45-2.58.63-4.85 0-8.06-.05-1.06-5.78-1.36-7.31-2.12-.33-2.6-.56-9.12-3-10.65-3.3 8.89-5 9.82-11.73 17.29 6.51 2.87 11.86 10.21 11.92 19.4zm4-19.3c.61 4.22-3 5-5.29 5.58-.59-3.66-1.24-7.81 1.9-8.56 2.26-.48 2.79-.12 3.4 3.01zm-3.46-21.3c.82-.2.66-1.76-.26-1.59-.41.12-.24 1.67.27 1.59zm4.51-36.1a3.72 3.72 0 0 1 4.74 3.25c.3 1.55-.72 7.15-3.12 6.63-3.26.21-3.57-1.83-4.08-4.95-.31-2.15-.64-4.26 2.47-4.93zm53.14 306.3c.22-3.81-2.23-19.44-3.64-22.45-1.02-3.52 3.71 26.16 3.66 22.45zm-35-292c.34-.68 3-4.46 3.36-5.15l-.2-1.62a3.23 3.23 0 0 0-4.23-2.72l-.44.07a41.37 41.37 0 0 0-3.72 6.17zm17.42 97.38l.94-.22a20.8 20.8 0 0 0 3.28 3c.23 1.63-1.08 5-2.93 5.49s-3.22.26-3.65-2.36.55-5.43 2.42-5.89zm-17.45-153.49c2.27-.54 8.94 6.57 9.65 10.2.33 2.07.57 4.12-1.71 4.77-2.2.5-11.49-7.69-11.7-9.2a4.91 4.91 0 0 1 3.76-5.77zm35.38 151.6c-1.48 2.47-8.22 15.89-9.94 19 .82-.17 1.8-2.67 2.31-2.74 2-2.1 10-13.56 12-15.63l2.22-.48c2.25-.54 3.64-.85 5 2.1l9.19-15.59c-5.54-2.54-3.72-5.61-6.52-11.46-1.28-5.13-6.87.49-7.89-5.8-.44-2.59-.64-4.12 2.24-6.39 1.54.66 8.29-.84 10-2.31 1.91-2 8.1-10.48 7.82-12l-.24-2c-4.15.92-6.36 7.39-10.41 8.25-6.37 1.39-7.28-4.24-7.26-10.25-5.48 6.71-7.75 4.46-12.15 14.55 1.44.26 4.29.76 4.62 2.85s-.77 3.94-.55 5c.52 3.59 2.14 4.82 2.68 8 1.19 7.27-4.68 14.5-4.34 17.11l.32 1.55 1.72 2.3a18.93 18.93 0 0 1-.82 3.95zM287.1 649.07c1.85-.33 3.47.82 3.83 3.46.15 1-3.07 13.11-4.36 13.41-1.88.38-3.69.27-4.11-2.31-.61-3.63.68-13.63 4.64-14.56zm23.57-8c7.19-1.69 18.36 3.91 19.59 11.74 3.94-7.39 7.64-13.61 15.37-15.31 3.51-.91 7.75-.71 8.68 5 1.42 8.81-10.74 17.47-17 18.95-3.17.69-5 1.07-5.91-1.81-.52 6-4.29 5.21-8 6-6.72 1.57-13-2.35-20.41-1.73-4.54.54-9.52 4.28-10.81-3.54-1.61-10.48 11.22-17.6 18.49-19.29zm1 97.35l.55-.11a24.62 24.62 0 0 0 3.26 3 13.54 13.54 0 0 1-.76 4.52l-.87.14c-2.66.63-4.51 1.07-5.08-2.6-.49-2.55-.29-4.2 2.86-4.94zm5.4-65.87c1.81-.5 3.18-.72 3.67 2.32s-1.72 3.67-4 4.21c-1.37.31-4.94 1.62-4.08-2.29-.13-3.28 1.7-3.72 4.34-4.24zm11.15 78.91c2.52.48 3.55 1.32 4 4.39.28 2.24-1 3-3.19 3.45s-3.21.19-3.59-1.84.87-6.19 2.73-6zm-14.51-129.4c2.17-.54 2.8-.1 3.18 2.48s-.89 3.46-3.09 4c-1.36.36-3.18.7-3.57-2a4.16 4.16 0 0 1 3.44-4.48zm10.82 9.33c2.26-.43 3.74-.26 4.06 1.89a3.77 3.77 0 0 1-3 4.45c-2.29.48-3.52-.91-3.85-3s.49-2.73 2.75-3.34zm21.63 94.36c-.47.15-2.23.5-2.68.65-2.72.66-4.6.94-6.45 3.64 7.62 12.88 4.44 2.32 9.09-4.29zm-1.55-109.15c1.83-.34 2.82 0 3.09 2.08.56 3.14-.69 3.9-2.57 4.32-2.6.6-3.68.28-4.18-2.81-.43-2.64 1.41-3 3.61-3.58zm30.7 51.4c2.22-.6 2.54 1.6 2.78 3.17.63 4.13-7.48 8.66-10.71 9.4-2.29.51-2.4-.51-2.8-3.18s8.42-8.86 10.73-9.39zm-5.94-7.29c2.26-.54 3.71-.35 4.13 2.25s0 3.26-2.29 3.72a3.51 3.51 0 0 1-4.56-2.67c-.42-2.62 1.43-3.01 2.71-3.3zm29.56 26.8c1.63 4.35-6 6.14-6.52 6.26-.64-4.15-1.28-8.39 1.85-9.06 2.24-.54 3.74.29 4.66 2.8z"/><ellipse class="cls-3" cx="281.22" cy="615.06" rx="14.13" ry="15.9" transform="rotate(-87.79 281.232 615.065)"/><path class="cls-3" d="M338.5 642.9c-.31 7.79-7.66 13.84-16.44 13.5s-15.64-6.93-15.34-14.73 7.66-13.85 16.43-13.51 15.64 6.95 15.35 14.74zm9.43 30.41c-.3 7.79-7.66 13.84-16.44 13.51s-15.64-6.94-15.34-14.74 7.65-13.84 16.43-13.5 15.65 6.94 15.35 14.73z"/><path class="cls-3" d="M328 627.91c-.3 7.81-7.66 13.85-16.42 13.5s-15.65-6.92-15.34-14.73 7.66-13.85 16.43-13.51 15.65 6.94 15.33 14.74zm-174.64 59.56c-.3 7.8-7.66 13.84-16.43 13.51s-15.64-6.92-15.34-14.73 7.65-13.85 16.43-13.51 15.65 6.95 15.34 14.73zm-19.48 46.98c-.31 7.81-7.66 13.86-16.43 13.51s-15.64-6.93-15.34-14.74 7.65-13.84 16.43-13.51 15.63 6.95 15.34 14.74z"/><path class="cls-3" d="M138.37 709.44c-.43 11.44-7.51 20.47-15.79 20.15s-14.65-9.86-14.21-21.32 7.52-20.48 15.81-20.16 14.63 9.89 14.19 21.33zm20.1-51.38c-.23 6-7.14 10.56-15.42 10.23s-14.82-5.41-14.59-11.39 7.13-10.55 15.42-10.23 14.83 5.43 14.59 11.39zm110.98-58.48c-.23 6-7.13 10.56-15.42 10.23s-14.83-5.41-14.59-11.38 7.13-10.56 15.41-10.25 14.83 5.43 14.6 11.4zm131.26 80.19c-.22 6-7.12 10.55-15.42 10.23s-14.82-5.42-14.59-11.39 7.13-10.55 15.43-10.23 14.81 5.43 14.58 11.39zM216 611.22c-.28 7.19-5.44 12.83-11.53 12.59s-10.81-6.25-10.54-13.44 5.44-12.83 11.54-12.6S216.24 604 216 611.22zm-40.08 110.27c-.33 8.53-7.11 15.2-15.15 14.88s-14.3-7.48-14-16 7.11-15.19 15.15-14.88 14.33 7.51 14 16zm7.87 48.03c-.32 8.53-7.11 15.2-15.16 14.89s-14.29-7.48-14-16 7.12-15.2 15.16-14.89 14.33 7.48 14 16zm22-20.36c-.33 8.52-7.12 15.2-15.17 14.88s-14.29-7.47-14-16 7.12-15.2 15.16-14.89 14.34 7.49 14.01 16.01zM189 633.61c-.33 8.52-7.12 15.19-15.16 14.88s-14.29-7.47-14-16 7.12-15.2 15.17-14.89 14.35 7.49 13.99 16.01zm-52 180.96c-.33 8.53-7.11 15.21-15.16 14.89s-14.3-7.48-14-16 7.16-15.2 15.16-14.9 14.3 7.44 14 16.01z"/><path class="cls-3" d="M115.66 713.86c-.33 8.53-7.11 15.19-15.15 14.89s-14.3-7.48-14-16 7.11-15.19 15.16-14.88 14.33 7.47 13.99 15.99zm192.47-47.62c-.31 7.8-7.66 13.84-16.43 13.51s-15.64-6.92-15.34-14.72 7.65-13.85 16.42-13.52 15.66 6.93 15.35 14.73zM339 678.48c-.31 7.8-7.66 13.84-16.44 13.5S307 685 307.26 677.26s7.65-13.84 16.43-13.51 15.65 6.94 15.31 14.73zm-118.4 30.2c-.3 7.8-7.65 13.86-16.43 13.51s-15.64-6.93-15.34-14.74 7.65-13.83 16.43-13.5 15.65 6.94 15.34 14.73zM244 824.64c-.29 7.79-7.65 13.85-16.43 13.51s-34.57-67.77-34.23-75.57 2.36-14.05 11.14-13.72 39.8 67.99 39.52 75.78zM267.23 783c-.29 7.8-7.65 13.85-16.42 13.51s-15.65-6.94-15.35-14.73 7.66-13.85 16.43-13.52 15.65 6.91 15.34 14.74zm1.16-29.91c-.3 7.8-7.66 13.85-16.43 13.5s-15.63-6.92-15.34-14.73 7.65-13.86 16.38-13.5 15.69 6.94 15.39 14.73zm40.16 1.55c-.3 7.8-7.66 13.85-16.44 13.52s-15.63-6.93-15.34-14.73 7.65-13.85 16.43-13.51 15.66 6.92 15.35 14.72zm-82.84-75.38c-.22 6-7.13 10.56-15.42 10.24s-14.83-5.41-14.58-11.39 7.13-10.55 15.41-10.23 14.82 5.43 14.59 11.38z"/><ellipse class="cls-3" cx="228.6" cy="742.14" rx="15.46" ry="14.57" transform="rotate(-87.8 228.598 742.14)"/><path class="cls-3" d="M251 790.73c-.34 8.53-7.13 15.2-15.17 14.89s-14.29-7.48-14-16 7.12-15.19 15.16-14.89 14.38 7.47 14.01 16zm77.33-71.57c-.33 8.52-7.11 15.2-15.15 14.89s-14.3-7.49-14-16 7.11-15.19 15.15-14.88 14.33 7.47 14 15.99zm-38.83-1.5c-.33 8.53-7.12 15.2-15.15 14.89s-14.3-7.48-14-16 7.11-15.2 15.15-14.89 14.33 7.48 14 16zm-91.29-47.12c-.33 8.53-7.12 15.2-15.15 14.89s-14.3-7.48-14-16 7.11-15.19 15.16-14.88 14.32 7.45 13.99 15.99zM216 759.62c-.33 8.53-7.11 15.19-15.15 14.89s-14.3-7.47-14-16S194 743.3 202 743.62s14.33 7.47 14 16zm27.27-142.14c-.33 8.54-7.11 15.2-15.15 14.88s-14.31-7.48-14-16 7.11-15.19 15.15-14.88 14.33 7.52 14 16zM257.89 697c-.33 8.53-7.12 15.2-15.16 14.89s-14.3-7.47-14-16 7.11-15.19 15.15-14.88 14.33 7.46 14.01 15.99z"/><path class="cls-3" d="M216.79 731.08c-.34 8.53-7.11 15.19-15.15 14.88s-14.3-7.48-14-16 7.11-15.19 15.16-14.88 14.33 7.47 13.99 16zm-69.38-65.14c-.33 8.53-7.12 15.2-15.15 14.9s-14.3-7.49-14-16 7.11-15.19 15.16-14.88 14.32 7.46 13.99 15.98zm169.96 85.51c-.32 8.53-7.12 15.19-15.16 14.88s-14.29-7.47-14-16 7.12-15.19 15.16-14.89 14.32 7.49 14 16.01zM92.1 755.74c-.33 8.53-7.12 15.2-15.16 14.88s-14.3-7.47-14-16 7.12-15.2 15.16-14.89 14.33 7.48 14 16.01zm164.16-100.93c-.33 8.53-7.11 15.2-15.15 14.88s-14.3-7.47-14-16 7.11-15.2 15.15-14.88 14.34 7.47 14 16zm-73.35 80.27c-.33 8.52-7.11 15.19-15.16 14.87s-14.3-7.47-14-16 7.11-15.19 15.15-14.89 14.33 7.49 14.01 16.02zm-74.41 87.15c-.29 7.5-8.28 13.26-17.83 12.89s-17.08-6.73-16.8-14.22 8.29-13.25 17.84-12.9 17.08 6.75 16.79 14.23zm60.79-20.56c-.44 11.45-7.51 20.49-15.8 20.17s-14.64-9.86-14.2-21.32 7.51-20.5 15.81-20.17 14.63 9.87 14.19 21.32z"/><path class="cls-3" d="M145.23 806.93c-.33 8.54-7.11 15.2-15.16 14.89s-14.3-7.48-14-16 7.1-15.2 15.15-14.88 14.34 7.46 14.01 15.99zm116.45-63.35c-.25 6.71-5 12-10.61 11.74s-9.95-5.83-9.69-12.53 5-12 10.62-11.74 9.95 5.83 9.68 12.53zm122.86-22.68c-.25 6.7-5 12-10.61 11.75s-9.95-5.83-9.69-12.53 5-12 10.63-11.73 9.93 5.82 9.67 12.51zm-13.66-58.19c-.26 6.7-5 12-10.63 11.74s-9.94-5.83-9.68-12.52 5-12 10.63-11.75 9.93 5.82 9.68 12.53zM255 808.86c-.33 8.53-7.12 15.2-15.15 14.88s-14.3-7.48-14-16 7.12-15.2 15.17-14.89 14.36 7.49 13.98 16.01zm-147.5-66.59c-.32 8.53-7.11 15.2-15.15 14.89s-14.3-7.47-14-16S85.5 726 93.53 726.28s14.3 7.48 13.97 15.99zm57.11 16.35c-.33 8.54-7.11 15.2-15.15 14.89s-14.3-7.48-14-16 7.11-15.18 15.15-14.88 14.33 7.47 14 15.99zm-15.95-44.49c-.22 5.43-4.53 9.67-9.65 9.48a9.85 9.85 0 0 1 .75-19.66c5.12.19 9.1 4.76 8.9 10.18zm87.5 38.41c-.33 8.52-7.12 15.2-15.16 14.89s-14.3-7.48-14-16 7.12-15.19 15.16-14.88 14.32 7.45 14 15.99zm114.29-121.71a13.69 13.69 0 1 1-13.14-14.49 13.83 13.83 0 0 1 13.14 14.49zm45.23 64.94c-.22 5.52-6.51 9.76-14.07 9.47s-13.5-5-13.3-10.52 6.52-9.76 14.07-9.46 13.51 4.99 13.3 10.51zm-67.02 64.59c-.21 5.51-6.51 9.75-14.06 9.46s-13.52-5-13.3-10.51 6.51-9.75 14.07-9.47 13.5 5.01 13.29 10.52zm17.12-8.18c-.23 6-3.38 10.76-7 10.63s-6.44-5.13-6.22-11.14 3.39-10.75 7.05-10.62 6.39 5.13 6.17 11.13zm24.95-5.81c-.09 2.39-3.2 4.59-6.53 4.46s-3.79-3-3.69-5.38.7-3.44 4-3.31 6.31 1.86 6.22 4.23z"/><path class="cls-3" d="M349 764.74c-.21 5.52-6.5 9.76-14.06 9.47s-13.52-5-13.3-10.52 6.51-9.76 14.07-9.46 13.54 5 13.29 10.51zm13.77-11.63c-.22 6 .79 7.73-2.86 7.59s-7.24 1.36-7-4.65 3.38-10.76 7-10.62 3.09 1.67 2.86 7.68z"/></g><path class="cls-4" d="M0 0h1363.95v1065.59H0z"/><g class="cls-5"><path class="cls-6" d="M1436.8 360.47c119.63 31.44 167.84 145 136.66 259.26-8.9 32.86-22.84 60-45.7 85.83-49.7 56.78-105.08 115.33-185.18 116.06-27.75-.1-47.28-14.89-75-7.6-19.19 4.47-35.06 3.25-53.74-1.78-136.3-37.09-222.07-223.68-186.41-354.79 14.64-53.84 39-88.71 88.5-113.68 17.12-8.09 43.1-17.07 62.59-18.35 40.84-1.64 54.75 2 84.38 10 6.09 1.64 45.25 18.73 45.25 18.73 9.64 3.91 22.76 7.55 25.07 6.84 1.91-.59 3.76-35.19 3.24-41.53-.62-9.71-3.62-32-3.62-32-44.64 23.13-96.1 31.56-142.62 19.07-38.78-10.78-65.51-33.24-83.35-66.55-7.83-14.73 40-35.44 18.54-25 48.34-23.71 85-34.46 129.74-22.31 12.86 3.53 48.31 22.86 59.53 32.25l2.92 1c-6.43-23.2-17.88-43.62-30.89-63 .77-10.45 25.5-10.25 30.42-2.56 7.17 11.2 22.29 44.19 27.24 56.52 6.48 16.13 11.92 34 14 52.08.82 7.25 3.48 24.22 3.88 43.49l.66 47.08c11.15-3.96 46.09-6.37 73.89.94z"/></g></svg>