<svg xmlns="http://www.w3.org/2000/svg" width="262.73" height="38.857" viewBox="0 0 262.73 38.857"><path fill="#0056A5" d="M34.772 19.673c-1.868-1.64-2.365-3.776-2.365-5.625 0-1.297.401-3.547 2.232-5.225 1.372-1.259 3.184-2.022 6.025-2.022 1.183 0 1.888.077 2.765.191.725.095 1.335.267 1.907.324.21.019.286.115.286.229 0 .153-.057.382-.095 1.049-.038.629-.019 1.678-.057 2.059-.019.286-.058.439-.229.439-.152 0-.191-.153-.191-.42a2.724 2.724 0 0 0-.743-1.754c-.63-.667-2.117-1.182-3.871-1.182-1.659 0-2.746.419-3.585 1.182-1.392 1.278-1.755 3.089-1.755 4.939 0 4.538 3.452 6.788 6.007 6.788 1.697 0 2.727-.19 3.49-1.068.324-.361.572-.914.648-1.258.057-.305.095-.381.248-.381.133 0 .172.134.172.286 0 .228-.229 1.887-.42 2.536-.095.324-.172.42-.496.553-.763.306-2.212.439-3.432.439-2.612 0-4.806-.572-6.541-2.079m13.291-4.229c0-2.728 1.803-6.254 6.59-6.254 3.973 0 6.445 2.314 6.445 5.967 0 3.654-2.552 6.542-6.605 6.542-4.579 0-6.43-3.431-6.43-6.255m10.802.304c0-3.574-2.058-5.792-4.675-5.792-1.835 0-3.925 1.021-3.925 4.994 0 3.318 1.835 5.951 4.898 5.951 1.117 0 3.702-.542 3.702-5.153m7.948 1.1c0 2.043 0 3.143.335 3.431.271.239.686.35 1.931.35.846 0 1.468-.015 1.867-.446.191-.208.382-.654.414-.958.016-.143.048-.239.176-.239.111 0 .127.079.127.271 0 .175-.111 1.372-.239 1.836-.096.35-.175.43-1.005.43-2.298 0-3.35-.096-4.643-.096-.367 0-1.372.049-2.01.049-.208 0-.32-.049-.32-.16 0-.081.064-.129.256-.129a2.6 2.6 0 0 0 .574-.063c.319-.063.399-.414.464-.877.079-.67.079-1.931.079-3.399V14.04c0-2.425 0-2.872-.032-3.382-.032-.543-.16-.798-.686-.91a2.365 2.365 0 0 0-.527-.048c-.175 0-.271-.032-.271-.143 0-.112.112-.144.351-.144.75 0 1.755.048 2.186.048.383 0 1.548-.048 2.17-.048.223 0 .335.032.335.144 0 .111-.096.143-.287.143-.176 0-.431.016-.622.048-.431.08-.559.351-.591.91-.032.51-.032.957-.032 3.382v2.808zm7.926-2.808c0-2.425 0-2.872-.032-3.383-.032-.542-.159-.797-.686-.909a3.28 3.28 0 0 0-.623-.048c-.175 0-.27-.032-.27-.143 0-.112.111-.144.35-.144.846 0 1.851.048 2.33.048.383 0 1.388-.048 1.962-.048.24 0 .352.032.352.144 0 .111-.096.143-.256.143-.176 0-.271.016-.462.048-.431.08-.559.351-.591.909-.032.511-.032.958-.032 3.383v2.233c0 2.314.463 3.288 1.245 3.925.718.591 1.452.654 1.994.654.702 0 1.564-.223 2.201-.861.878-.877.927-2.313.927-3.957V14.04c0-2.425 0-2.872-.033-3.383-.031-.542-.159-.797-.686-.909-.128-.032-.398-.048-.574-.048s-.271-.032-.271-.143c0-.112.111-.144.334-.144.814 0 1.82.048 1.836.048.191 0 1.196-.048 1.819-.048.223 0 .335.032.335.144 0 .111-.096.143-.288.143-.175 0-.271.016-.463.048-.43.08-.558.351-.59.909-.032.511-.032.958-.032 3.383v1.708c0 1.77-.175 3.653-1.515 4.802-1.133.973-2.282 1.149-3.319 1.149-.846 0-2.378-.048-3.542-1.101-.814-.734-1.42-1.915-1.42-4.229V14.04zm14.999-4.563c.048-.271.144-.415.271-.415.128 0 .224.08.431.495l4.356 8.999 4.34-9.111c.111-.255.207-.383.35-.383.144 0 .239.16.288.495l1.452 9.86c.143 1.005.303 1.468.781 1.612.463.143.782.158.99.158.143 0 .255.017.255.113 0 .127-.191.176-.415.176-.399 0-2.601-.049-3.239-.098-.367-.031-.462-.078-.462-.175 0-.08.063-.128.175-.175.095-.032.144-.24.08-.687l-.958-7.02h-.063l-3.478 7.244c-.367.75-.447.894-.591.894-.143 0-.303-.319-.558-.798-.383-.734-1.643-3.176-1.835-3.623-.144-.334-1.101-2.344-1.659-3.541h-.064l-.83 6.35a6.271 6.271 0 0 0-.048.75c0 .303.208.447.479.511.287.062.51.078.67.078.128 0 .239.033.239.113 0 .143-.143.176-.382.176-.671 0-1.389-.049-1.676-.049-.303 0-1.069.049-1.58.049-.159 0-.287-.033-.287-.176 0-.08.096-.113.256-.113.128 0 .239 0 .478-.047.447-.096.575-.719.654-1.261l1.58-10.401zm17.024 4.563c0-2.425 0-2.872-.032-3.382-.031-.543-.159-.798-.686-.91a3.26 3.26 0 0 0-.622-.048c-.175 0-.271-.032-.271-.143 0-.112.112-.143.351-.143.846 0 1.851.047 2.17.047.782 0 1.404-.047 1.947-.047 2.887 0 3.398 1.547 3.398 2.393 0 1.308-.75 2.089-1.628 2.792 1.308.447 2.904 1.579 2.904 3.445 0 1.708-1.324 3.479-4.26 3.479-.383 0-1.835-.096-2.313-.096-.367 0-1.372.049-2.011.049-.207 0-.319-.049-.319-.16 0-.08.064-.129.256-.129.239 0 .43-.031.574-.063.319-.063.399-.414.462-.877.08-.67.08-1.931.08-3.399V14.04zm1.915.272c0 .127.048.159.112.175.143.031.383.048.75.048.526 0 .877-.064 1.149-.303.414-.336.654-.91.654-1.691 0-1.069-.623-2.473-1.995-2.473-.223 0-.367 0-.526.031-.112.032-.144.096-.144.272v3.941zm2.106 1.276c-.335-.24-.702-.352-1.324-.383-.287-.016-.447-.016-.686-.016-.064 0-.096.032-.096.112v3.781c0 1.053.048 1.324.558 1.532.431.175.798.19 1.165.19.718 0 1.931-.382 1.931-2.041 0-.989-.336-2.329-1.548-3.175m7.05-1.548c0-2.425 0-2.872-.032-3.383-.032-.542-.191-.813-.542-.893a2.261 2.261 0 0 0-.574-.064c-.16 0-.256-.032-.256-.16 0-.095.128-.127.383-.127.606 0 1.611.048 2.074.048.399 0 1.341-.048 1.947-.048.207 0 .335.032.335.127 0 .128-.096.16-.255.16-.16 0-.288.016-.479.048-.431.08-.558.351-.59.909-.033.511-.033.958-.033 3.383v2.808c0 1.547 0 2.809.065 3.494.047.431.16.718.638.782.223.032.574.064.814.064.175 0 .255.047.255.128 0 .111-.128.16-.303.16-1.053 0-2.059-.049-2.489-.049-.368 0-1.373.049-2.011.049-.207 0-.319-.049-.319-.16 0-.081.064-.128.255-.128a2.6 2.6 0 0 0 .575-.064c.319-.063.415-.335.462-.798.08-.669.08-1.931.08-3.478V14.04zm9.71 3.271c-.08 0-.112.032-.143.128l-.862 2.282c-.16.398-.24.781-.24.973 0 .287.144.495.639.495h.239c.191 0 .239.031.239.127 0 .128-.095.16-.271.16-.511 0-1.196-.048-1.691-.048-.175 0-1.053.048-1.883.048-.207 0-.303-.032-.303-.16 0-.096.063-.127.192-.127.144 0 .366-.017.494-.032.734-.096 1.037-.638 1.357-1.436l4.004-10.02c.192-.463.287-.638.447-.638.143 0 .239.143.399.51.383.878 2.936 7.387 3.957 9.813.605 1.436 1.068 1.659 1.404 1.739.238.047.478.063.668.063.129 0 .209.015.209.127 0 .128-.145.16-.734.16-.574 0-1.739 0-3.016-.032-.287-.016-.478-.016-.478-.128 0-.096.064-.127.223-.144.113-.031.224-.175.144-.367l-1.277-3.382c-.031-.08-.079-.112-.159-.112h-3.558zm3.255-.797c.08 0 .096-.048.08-.096l-1.436-3.941c-.016-.064-.032-.144-.08-.144s-.08.08-.095.144l-1.468 3.925c-.017.064 0 .112.063.112h2.936zm13.839-3.915c0-2.899 0-3.433-.037-4.043-.039-.649-.19-.953-.82-1.087-.153-.038-.477-.057-.744-.057-.21 0-.324-.038-.324-.172 0-.133.135-.172.42-.172 1.01 0 2.213.058 2.784.058.457 0 1.658-.058 2.345-.058.287 0 .42.039.42.172 0 .134-.115.172-.306.172-.209 0-.323.019-.553.057-.515.095-.667.42-.705 1.087-.039.61-.039 1.144-.039 4.043v2.669c0 2.765.554 3.929 1.487 4.691.859.706 1.736.782 2.385.782.839 0 1.868-.267 2.631-1.029 1.049-1.049 1.105-2.765 1.105-4.73v-2.383c0-2.899 0-3.433-.037-4.043-.038-.649-.19-.953-.82-1.087-.152-.038-.477-.057-.688-.057-.209 0-.323-.038-.323-.172 0-.133.134-.172.399-.172.974 0 2.176.058 2.194.058.228 0 1.429-.058 2.173-.058.268 0 .401.039.401.172 0 .134-.114.172-.345.172-.209 0-.323.019-.551.057-.516.095-.668.42-.707 1.087-.037.61-.037 1.144-.037 4.043v2.04c0 2.117-.211 4.367-1.812 5.74-1.354 1.163-2.727 1.373-3.966 1.373-1.011 0-2.841-.059-4.233-1.317-.973-.877-1.697-2.287-1.697-5.053v-2.783zm17.24 6.707c.033 1.244.238 1.659.558 1.771.272.096.575.112.831.112.175 0 .27.031.27.128 0 .126-.142.159-.367.159-1.035 0-1.674-.048-1.978-.048-.144 0-.894.048-1.724.048-.207 0-.35-.017-.35-.159 0-.097.096-.128.254-.128.207 0 .496-.017.719-.08.414-.128.479-.591.494-1.979l.145-9.445c0-.319.048-.543.207-.543.176 0 .318.208.591.496.19.206 2.616 2.807 4.946 5.12 1.084 1.086 3.238 3.383 3.509 3.638h.08l-.159-7.164c-.016-.973-.158-1.276-.542-1.435-.239-.096-.623-.096-.846-.096-.192 0-.255-.048-.255-.144 0-.127.175-.143.414-.143.83 0 1.596.048 1.931.048.176 0 .782-.048 1.563-.048.207 0 .367.016.367.143 0 .096-.096.144-.287.144-.16 0-.287 0-.479.048-.446.128-.574.462-.589 1.356l-.176 10.067c0 .352-.064.496-.209.496-.174 0-.367-.176-.543-.352-1.004-.958-3.045-3.048-4.705-4.692-1.739-1.723-3.51-3.717-3.799-4.02h-.047l.176 6.702zm14.734-5.266c0-2.425 0-2.872-.032-3.383-.032-.542-.192-.813-.543-.893a2.261 2.261 0 0 0-.574-.064c-.159 0-.256-.032-.256-.16 0-.095.129-.127.384-.127.605 0 1.611.048 2.075.048.397 0 1.34-.048 1.946-.048.207 0 .335.032.335.127 0 .128-.097.16-.255.16-.16 0-.288.016-.479.048-.432.08-.559.351-.59.909-.033.511-.033.958-.033 3.383v2.808c0 1.547 0 2.809.064 3.494.048.431.159.718.638.782.225.032.575.064.814.064.176 0 .255.047.255.128 0 .111-.128.16-.304.16-1.052 0-2.058-.049-2.488-.049-.367 0-1.373.049-2.012.049-.205 0-.317-.049-.317-.16 0-.081.063-.128.255-.128.238 0 .432-.032.575-.064.317-.063.413-.335.462-.798.08-.669.08-1.931.08-3.478V14.04zm7.012-3.063c-.367-.878-.638-1.053-1.212-1.213-.24-.064-.495-.064-.623-.064-.144 0-.19-.048-.19-.143 0-.128.174-.144.414-.144.846 0 1.756.048 2.314.048.398 0 1.164-.048 1.961-.048.191 0 .367.032.367.144 0 .111-.096.143-.239.143-.255 0-.495.016-.622.112-.111.08-.158.192-.158.335 0 .208.144.654.366 1.229l2.745 7.243h.062c.686-1.755 2.761-6.892 3.144-7.945.08-.208.144-.447.144-.591 0-.127-.063-.255-.207-.303a2.124 2.124 0 0 0-.638-.08c-.146 0-.272-.016-.272-.127 0-.128.144-.16.447-.16.797 0 1.467.048 1.674.048.272 0 1.022-.048 1.5-.048.209 0 .336.032.336.144 0 .111-.096.143-.256.143-.158 0-.494 0-.781.192-.207.143-.446.415-.879 1.436-.621 1.5-1.051 2.361-1.914 4.323-1.021 2.33-1.771 4.069-2.121 4.867-.414.925-.51 1.181-.734 1.181-.207 0-.303-.223-.605-.974l-4.023-9.748zm13.841 3.063c0-2.425 0-2.872-.031-3.383-.032-.542-.16-.797-.687-.909a3.272 3.272 0 0 0-.623-.048c-.176 0-.271-.032-.271-.143 0-.112.113-.144.352-.144.846 0 1.852.048 2.297.048.512 0 3.688 0 3.99-.016.303-.032.558-.064.686-.096.08-.016.175-.064.255-.064s.097.064.097.144c0 .111-.08.303-.129 1.037-.016.159-.048.862-.08 1.053-.016.079-.047.176-.158.176-.112 0-.144-.08-.144-.224 0-.111-.017-.383-.097-.574-.111-.287-.271-.479-1.069-.574-.271-.032-1.946-.064-2.265-.064-.08 0-.112.048-.112.159v4.037c0 .112.017.175.112.175.351 0 2.187 0 2.553-.031.382-.032.621-.081.766-.24.112-.127.176-.208.256-.208.062 0 .111.033.111.128 0 .096-.08.351-.127 1.164-.031.32-.064.959-.064 1.07 0 .127 0 .303-.144.303-.112 0-.144-.064-.144-.143-.018-.16-.018-.367-.064-.575-.08-.319-.303-.558-.895-.622-.301-.033-1.881-.047-2.264-.047-.08 0-.097.063-.097.159v1.26c0 .542-.015 2.01 0 2.473.032 1.101.287 1.341 1.914 1.341.416 0 1.086 0 1.501-.192.414-.191.605-.527.718-1.181.032-.175.063-.239.175-.239.129 0 .129.127.129.287 0 .367-.129 1.452-.209 1.771-.11.415-.254.415-.86.415-2.409 0-3.478-.096-4.42-.096-.366 0-1.372.049-2.011.049-.207 0-.318-.049-.318-.16 0-.081.064-.128.255-.128.239 0 .431-.032.574-.064.319-.063.399-.415.463-.877.08-.67.08-1.931.08-3.399V14.04zm10.962.001c0-2.426 0-2.873-.033-3.383-.031-.543-.158-.797-.686-.909a3.268 3.268 0 0 0-.622-.048c-.176 0-.272-.032-.272-.144 0-.112.113-.143.353-.143.845 0 1.851.048 2.185.048.543 0 1.756-.048 2.25-.048 1.006 0 2.074.095 2.938.686.446.303 1.084 1.117 1.084 2.185 0 1.182-.495 2.266-2.105 3.574 1.418 1.788 2.52 3.207 3.461 4.197.895.925 1.549 1.037 1.787 1.085.177.031.319.048.447.048.127 0 .191.047.191.127 0 .128-.112.16-.303.16h-1.517c-.893 0-1.292-.08-1.707-.304-.686-.367-1.292-1.116-2.186-2.345-.638-.878-1.372-1.963-1.579-2.202-.081-.095-.176-.111-.287-.111l-1.389-.032c-.08 0-.129.032-.129.128v.223c0 1.484 0 2.745.08 3.415.049.462.145.812.623.875.239.033.59.065.781.065.127 0 .192.047.192.127 0 .112-.112.16-.319.16-.925 0-2.105-.048-2.346-.048-.303 0-1.309.048-1.946.048-.207 0-.319-.048-.319-.16 0-.08.064-.127.256-.127.238 0 .431-.032.574-.065.319-.063.398-.414.463-.875.08-.67.08-1.931.08-3.399v-2.808zm1.881 1.259c0 .176.033.239.145.287.335.112.814.16 1.213.16.639 0 .846-.064 1.133-.271.479-.352.941-1.085.941-2.394 0-2.265-1.5-2.92-2.441-2.92-.398 0-.687.016-.846.065-.111.031-.145.095-.145.223v4.85zm10.259 5.984c-.255-.112-.303-.192-.303-.543 0-.877.063-1.835.08-2.09.015-.24.063-.415.191-.415.143 0 .16.144.16.272 0 .207.062.542.143.813.352 1.181 1.293 1.612 2.281 1.612 1.437 0 2.138-.974 2.138-1.819 0-.782-.238-1.532-1.562-2.553l-.733-.574c-1.756-1.373-2.363-2.489-2.363-3.782 0-1.755 1.469-3.015 3.687-3.015 1.037 0 1.707.159 2.122.271.143.032.223.08.223.191 0 .208-.063.671-.063 1.915 0 .351-.048.479-.175.479-.112 0-.159-.096-.159-.288 0-.143-.08-.638-.415-1.052-.24-.304-.702-.782-1.74-.782-1.18 0-1.898.686-1.898 1.643 0 .734.367 1.292 1.691 2.297l.447.336c1.915 1.483 2.617 2.553 2.617 4.068 0 .926-.353 2.027-1.501 2.777-.797.51-1.69.654-2.536.654-.927 0-1.646-.112-2.332-.415m10.873-7.244c0-2.425 0-2.872-.032-3.383-.031-.542-.19-.813-.542-.893a2.266 2.266 0 0 0-.574-.064c-.16 0-.255-.032-.255-.16 0-.095.127-.127.383-.127.605 0 1.61.048 2.073.048.398 0 1.341-.048 1.946-.048.208 0 .335.032.335.127 0 .128-.095.16-.255.16-.159 0-.287.016-.478.048-.432.08-.56.351-.591.909-.032.511-.032.958-.032 3.383v2.808c0 1.547 0 2.809.063 3.494.048.431.159.718.639.782.224.032.574.064.813.064.176 0 .255.047.255.128 0 .111-.127.16-.303.16-1.053 0-2.058-.049-2.489-.049-.367 0-1.372.049-2.01.049-.208 0-.319-.049-.319-.16 0-.081.063-.128.256-.128.238 0 .431-.032.573-.064.32-.063.415-.335.463-.798.08-.669.08-1.931.08-3.478V14.04zm10.898-3.733l-2.377.064c-.925.031-1.308.111-1.547.462-.16.24-.24.431-.271.559-.033.127-.081.191-.178.191-.11 0-.143-.079-.143-.255 0-.255.303-1.707.335-1.835.048-.207.096-.303.19-.303.127 0 .287.16.688.192.462.047 1.069.079 1.596.079h6.317c1.021 0 1.404-.159 1.532-.159.111 0 .128.096.128.335 0 .335-.048 1.436-.048 1.851-.017.159-.049.255-.144.255-.128 0-.16-.08-.177-.319l-.016-.176c-.031-.415-.462-.861-1.884-.893l-2.009-.048v6.541c0 1.468 0 2.729.078 3.415.049.447.145.798.624.861.224.032.573.065.812.065.177 0 .257.047.257.127 0 .11-.129.159-.304.159-1.054 0-2.059-.049-2.506-.049-.367 0-1.371.049-2.01.049-.207 0-.319-.049-.319-.159 0-.08.064-.127.256-.127.239 0 .431-.033.574-.065.319-.063.414-.414.462-.877.08-.67.08-1.931.08-3.399v-6.541zm13.227 7.036c0-.862-.158-1.212-.366-1.675-.111-.256-2.25-3.765-2.809-4.595-.397-.591-.797-.989-1.101-1.165-.207-.112-.479-.207-.67-.207-.128 0-.239-.032-.239-.144 0-.096.111-.143.303-.143.287 0 1.484.047 2.011.047.335 0 .988-.047 1.708-.047.158 0 .239.047.239.143 0 .096-.113.112-.352.175a.29.29 0 0 0-.225.288c0 .128.08.319.192.542.223.479 2.457 4.324 2.713 4.771.159-.383 2.168-3.893 2.394-4.388.158-.351.223-.622.223-.83 0-.159-.064-.334-.335-.398-.145-.032-.287-.064-.287-.16 0-.112.08-.143.271-.143.526 0 1.036.047 1.499.047.352 0 1.404-.047 1.707-.047.177 0 .287.031.287.127 0 .112-.127.16-.302.16-.161 0-.463.064-.703.191-.335.16-.51.351-.86.782-.527.638-2.762 4.388-3.049 5.074-.238.574-.238 1.069-.238 1.595v1.309c0 .255 0 .925.048 1.596.031.462.175.812.654.876.223.032.573.065.798.065.175 0 .254.047.254.127 0 .11-.126.159-.334.159-1.005 0-2.011-.049-2.441-.049-.398 0-1.404.049-1.995.049-.223 0-.351-.032-.351-.159 0-.08.08-.127.255-.127.224 0 .415-.033.559-.065.319-.064.464-.414.494-.876.048-.671.048-1.341.048-1.596v-1.309zM34.554 30.828c0-1.594 0-1.888-.021-2.223-.021-.355-.126-.533-.356-.586a1.509 1.509 0 0 0-.377-.042c-.105 0-.168-.021-.168-.104 0-.062.084-.084.251-.084.399 0 1.059.031 1.363.031.262 0 .88-.031 1.278-.031.136 0 .22.021.22.084 0 .084-.063.104-.168.104-.104 0-.188.011-.314.031-.283.053-.367.231-.388.597-.021.335-.021.629-.021 2.223v1.844c0 1.016 0 1.845.042 2.295.032.283.105.472.419.513.147.021.377.042.534.042.116 0 .168.031.168.084 0 .073-.084.105-.199.105-.691 0-1.352-.032-1.634-.032-.241 0-.901.032-1.321.032-.136 0-.209-.032-.209-.105 0-.053.042-.084.168-.084.157 0 .282-.021.377-.042.209-.041.272-.22.303-.524.053-.438.053-1.268.053-2.283v-1.845zm5.858 3.457c.021.816.157 1.089.367 1.164.178.062.377.072.544.072.115 0 .179.021.179.085 0 .083-.095.104-.241.104-.681 0-1.101-.032-1.3-.032-.094 0-.586.032-1.131.032-.137 0-.231-.01-.231-.104 0-.064.063-.085.168-.085.136 0 .325-.01.471-.053.273-.084.315-.388.325-1.3l.095-6.202c0-.209.031-.355.136-.355.115 0 .21.135.387.324.126.137 1.719 1.845 3.248 3.363.713.713 2.127 2.221 2.306 2.389h.052l-.105-4.704c-.01-.64-.104-.839-.356-.943-.157-.063-.409-.063-.555-.063-.126 0-.168-.029-.168-.094 0-.084.115-.094.273-.094.544 0 1.047.031 1.267.031.116 0 .514-.031 1.027-.031.136 0 .241.01.241.094 0 .064-.063.094-.189.094-.104 0-.188 0-.314.033-.293.084-.377.303-.388.891l-.115 6.611c0 .23-.042.324-.136.324-.115 0-.241-.115-.356-.229-.66-.63-2.002-2.003-3.091-3.081-1.142-1.133-2.305-2.441-2.494-2.641h-.031l.115 4.4zm14.941-5.909l-1.561.042c-.608.021-.859.073-1.016.305a1.194 1.194 0 0 0-.178.366c-.021.083-.053.125-.115.125-.074 0-.096-.052-.096-.167 0-.168.2-1.122.221-1.206.031-.136.063-.198.125-.198.084 0 .189.104.451.125.304.031.702.053 1.048.053h4.149c.336 0 .566-.031.723-.053.158-.031.241-.052.283-.052.074 0 .084.063.084.22 0 .22-.031.943-.031 1.215-.011.104-.032.168-.095.168-.083 0-.104-.051-.115-.209l-.011-.115c-.02-.271-.303-.566-1.236-.587l-1.32-.031v4.296c0 .964 0 1.791.052 2.242.032.293.095.523.409.566.147.021.377.041.534.041.116 0 .168.031.168.084 0 .072-.084.104-.199.104-.692 0-1.352-.032-1.645-.032-.241 0-.901.032-1.321.032-.136 0-.209-.032-.209-.104 0-.053.042-.084.168-.084.157 0 .283-.021.377-.041.209-.043.272-.273.303-.578.053-.439.053-1.267.053-2.23v-4.297zm11.955 2.745c.031 0 .063-.021.063-.073v-.22c0-1.594 0-1.887-.021-2.223-.021-.355-.105-.521-.45-.597a2.16 2.16 0 0 0-.409-.031c-.115 0-.178-.021-.178-.094s.073-.095.22-.095c.566 0 1.226.031 1.509.031.251 0 .911-.031 1.319-.031.147 0 .221.021.221.095s-.063.094-.189.094a1.96 1.96 0 0 0-.303.031c-.284.052-.367.231-.388.597-.021.336-.021.629-.021 2.223v1.844c0 .964 0 1.791.052 2.242.032.293.095.525.409.565.146.021.377.042.534.042.115 0 .168.031.168.084 0 .073-.084.105-.209.105-.682 0-1.342-.032-1.635-.032-.241 0-.901.032-1.31.032-.147 0-.22-.032-.22-.105 0-.053.042-.084.168-.084.157 0 .283-.021.377-.042.209-.04.262-.272.304-.575.052-.441.052-1.269.052-2.232v-.922c0-.042-.032-.063-.063-.063h-4.002c-.032 0-.063.011-.063.063v.922c0 .964 0 1.791.052 2.242.032.293.094.525.409.565.147.021.377.042.534.042.116 0 .168.031.168.084 0 .073-.084.105-.21.105-.681 0-1.341-.032-1.634-.032-.241 0-.901.032-1.321.032-.136 0-.209-.032-.209-.105 0-.053.042-.084.168-.084.157 0 .282-.021.377-.042.209-.04.262-.272.304-.575.052-.441.052-1.269.052-2.232v-1.844c0-1.594 0-1.887-.021-2.223-.021-.355-.105-.521-.451-.597a2.14 2.14 0 0 0-.408-.031c-.115 0-.178-.021-.178-.094s.073-.095.22-.095c.566 0 1.226.031 1.508.031.252 0 .912-.031 1.321-.031.147 0 .22.021.22.095s-.063.094-.189.094a1.97 1.97 0 0 0-.304.031c-.282.052-.366.231-.387.597-.021.336-.021.629-.021 2.223v.22c0 .053.031.073.063.073h4.002zm5.343-.293c0-1.594 0-1.888-.021-2.223-.021-.355-.105-.521-.451-.597a2.14 2.14 0 0 0-.408-.031c-.115 0-.178-.021-.178-.094s.073-.095.23-.095c.555 0 1.216.031 1.509.031.335 0 2.421 0 2.619-.01.199-.021.367-.043.451-.064.053-.01.115-.041.168-.041.052 0 .063.041.063.095 0 .073-.053.198-.084.681-.011.105-.032.566-.053.692-.01.053-.031.114-.105.114-.073 0-.094-.053-.094-.146 0-.074-.01-.251-.063-.377-.072-.189-.178-.314-.701-.378-.179-.021-1.279-.041-1.489-.041-.052 0-.072.03-.072.104v2.651c0 .073.01.114.072.114.231 0 1.436 0 1.677-.021.251-.021.409-.052.503-.157.073-.084.115-.137.167-.137.043 0 .074.022.074.084 0 .063-.052.23-.084.766-.021.209-.042.627-.042.701 0 .084 0 .199-.094.199-.073 0-.095-.042-.095-.094-.01-.105-.01-.241-.042-.378-.052-.209-.198-.366-.586-.408-.199-.021-1.237-.03-1.488-.03-.052 0-.062.041-.062.104v.828c0 .355-.011 1.32 0 1.623.02.724.188.881 1.256.881.273 0 .713 0 .985-.126.273-.125.398-.345.472-.775.02-.114.042-.157.115-.157.084 0 .084.084.084.189 0 .24-.084.953-.136 1.163-.074.272-.168.272-.566.272-1.582 0-2.284-.063-2.902-.063-.241 0-.902.032-1.321.032-.136 0-.209-.032-.209-.105 0-.053.041-.084.168-.084.157 0 .283-.021.377-.042.209-.041.262-.272.303-.575.053-.441.053-1.269.053-2.232v-1.843zm10.991 3.887c-1.027-.902-1.299-2.074-1.299-3.091 0-.712.22-1.948 1.225-2.871.755-.69 1.75-1.11 3.312-1.11.649 0 1.037.041 1.519.104.398.053.733.147 1.048.178.115.011.157.063.157.127 0 .083-.032.209-.053.575-.02.347-.01.922-.031 1.132-.011.158-.031.241-.126.241-.084 0-.104-.083-.104-.23a1.502 1.502 0 0 0-.409-.965c-.346-.365-1.163-.648-2.127-.648-.912 0-1.509.23-1.97.648-.765.702-.964 1.698-.964 2.715 0 2.493 1.896 3.729 3.301 3.729.932 0 1.498-.104 1.917-.586.178-.2.315-.503.356-.692.031-.168.053-.209.137-.209.073 0 .094.073.094.157 0 .125-.126 1.037-.231 1.394-.052.178-.094.23-.272.303-.419.168-1.216.242-1.886.242-1.436-.001-2.641-.315-3.594-1.143m8.759-3.887c0-1.594 0-1.888-.021-2.223-.021-.355-.126-.533-.356-.586a1.517 1.517 0 0 0-.378-.042c-.105 0-.167-.021-.167-.104 0-.062.084-.084.251-.084.398 0 1.058.031 1.363.031.261 0 .879-.031 1.277-.031.137 0 .22.021.22.084 0 .084-.062.104-.167.104-.105 0-.189.011-.314.031-.284.053-.367.231-.388.597-.021.335-.021.629-.021 2.223v1.844c0 1.016 0 1.845.042 2.295.031.283.105.472.419.513.147.021.377.042.534.042.115 0 .168.031.168.084 0 .073-.084.105-.199.105-.692 0-1.352-.032-1.635-.032-.241 0-.901.032-1.32.032-.136 0-.21-.032-.21-.105 0-.053.042-.084.168-.084.157 0 .283-.021.378-.042.209-.041.272-.22.303-.524.053-.438.053-1.268.053-2.283v-1.845zm6.664-2.452l-1.561.042c-.608.021-.859.073-1.016.305a1.203 1.203 0 0 0-.179.366c-.02.083-.052.125-.115.125-.073 0-.094-.052-.094-.167 0-.168.198-1.122.22-1.206.031-.136.062-.198.125-.198.084 0 .189.104.451.125.304.031.702.053 1.048.053h4.149c.335 0 .566-.031.723-.053.157-.031.241-.052.283-.052.073 0 .084.063.084.22 0 .22-.032.943-.032 1.215-.01.104-.032.168-.094.168-.084 0-.105-.051-.115-.209l-.011-.115c-.021-.271-.304-.566-1.236-.587l-1.32-.031v4.296c0 .964 0 1.791.052 2.242.032.293.094.523.409.566.146.021.377.041.534.041.116 0 .168.031.168.084 0 .072-.084.104-.199.104-.692 0-1.352-.032-1.645-.032-.241 0-.901.032-1.321.032-.136 0-.209-.032-.209-.104 0-.053.041-.084.168-.084.157 0 .282-.021.377-.041.209-.043.272-.273.303-.578.053-.439.053-1.267.053-2.23v-4.297zm7.805 4.62c0-.565-.105-.795-.241-1.101-.074-.167-1.478-2.472-1.844-3.017-.262-.389-.524-.649-.723-.766a1.054 1.054 0 0 0-.44-.136c-.084 0-.157-.021-.157-.094 0-.063.073-.095.199-.095.188 0 .974.031 1.32.031.22 0 .649-.031 1.121-.031.105 0 .157.031.157.095s-.073.073-.23.114c-.095.021-.147.104-.147.188s.052.209.126.357c.147.313 1.613 2.839 1.781 3.132.105-.251 1.425-2.557 1.571-2.88.105-.232.147-.41.147-.546 0-.104-.042-.221-.219-.262-.095-.021-.189-.041-.189-.104 0-.074.052-.095.178-.095.346 0 .681.031.985.031.23 0 .922-.031 1.121-.031.115 0 .189.021.189.082 0 .076-.084.106-.2.106a1.15 1.15 0 0 0-.461.125c-.22.105-.335.231-.566.515-.345.418-1.812 2.881-2.001 3.332-.157.377-.157.701-.157 1.047v.858c0 .169 0 .608.032 1.048.02.305.115.536.429.577.147.022.377.042.524.042.116 0 .168.031.168.084 0 .073-.084.105-.22.105-.661 0-1.321-.032-1.604-.032-.262 0-.922.032-1.309.032-.147 0-.231-.021-.231-.105 0-.053.053-.084.168-.084.147 0 .272-.02.367-.042.209-.041.303-.272.325-.577.031-.439.031-.879.031-1.048v-.855zm8.916-1.246c0-1.791 1.184-4.107 4.327-4.107 2.609 0 4.234 1.52 4.234 3.918 0 2.4-1.676 4.296-4.338 4.296-3.008-.001-4.223-2.253-4.223-4.107m7.094.198c0-2.347-1.352-3.803-3.071-3.803-1.204 0-2.577.67-2.577 3.278 0 2.181 1.205 3.908 3.217 3.908.733.001 2.431-.354 2.431-3.383m5.513.724c0 1.006 0 1.791.053 2.231.031.304.094.534.408.577.147.021.377.041.524.041.136 0 .179.031.179.085 0 .071-.074.104-.231.104-.66 0-1.32-.032-1.593-.032-.272 0-.932.032-1.331.032-.147 0-.219-.021-.219-.104 0-.054.042-.085.157-.085.157 0 .282-.021.377-.041.21-.043.261-.273.304-.577.052-.44.052-1.226.052-2.231v-1.844c0-1.594 0-1.887-.021-2.222-.021-.357-.105-.523-.45-.597a2.137 2.137 0 0 0-.409-.033c-.105 0-.178-.02-.178-.084 0-.082.084-.104.24-.104.546 0 1.206.032 1.51.032.397 0 2.525 0 2.765-.011.2-.012.325-.012.43-.043.063-.021.115-.062.168-.062.042 0 .073.041.073.094 0 .073-.052.199-.084.473-.01.104-.031.723-.052.848-.01.084-.031.148-.105.148-.073 0-.094-.053-.105-.168 0-.084 0-.252-.062-.399-.073-.146-.294-.304-.692-.313l-1.614-.033c-.063 0-.094.033-.094.148v2.619c0 .062.01.094.074.094l1.341-.01c.178 0 .324 0 .471-.011.199-.011.346-.052.451-.188.052-.063.073-.104.136-.104.041 0 .063.03.063.094s-.053.325-.084.649c-.021.209-.042.691-.042.765 0 .095 0 .2-.105.2-.062 0-.084-.074-.084-.146 0-.074-.02-.199-.062-.326-.053-.146-.209-.334-.535-.377-.261-.031-1.372-.031-1.55-.031-.053 0-.074.021-.074.095v.847zm9.996 1.613c.021.816.158 1.089.366 1.164.179.062.378.072.546.072.115 0 .178.021.178.085 0 .083-.094.104-.24.104-.682 0-1.102-.032-1.301-.032-.094 0-.586.032-1.131.032-.137 0-.23-.01-.23-.104 0-.064.062-.085.168-.085.136 0 .325-.01.473-.053.271-.084.312-.388.324-1.3l.094-6.202c0-.209.031-.355.137-.355.115 0 .209.135.388.324.125.137 1.718 1.845 3.247 3.363.713.713 2.127 2.221 2.305 2.389h.053l-.104-4.704c-.012-.64-.105-.839-.357-.943-.158-.063-.408-.063-.555-.063-.127 0-.168-.029-.168-.094 0-.084.116-.094.271-.094.545 0 1.049.031 1.269.031.114 0 .513-.031 1.026-.031.137 0 .242.01.242.094 0 .064-.063.094-.188.094-.104 0-.188 0-.315.033-.293.084-.377.303-.387.891l-.115 6.611c0 .23-.043.324-.137.324-.115 0-.241-.115-.355-.229-.66-.63-2.002-2.003-3.092-3.081-1.142-1.133-2.305-2.441-2.494-2.641h-.031l.113 4.4zm9.871-3.457c0-1.594 0-1.888-.022-2.223-.021-.355-.103-.521-.449-.597a2.167 2.167 0 0 0-.409-.031c-.115 0-.178-.021-.178-.094s.073-.095.23-.095c.556 0 1.215.031 1.508.031.337 0 2.421 0 2.621-.01.197-.021.365-.043.449-.064.053-.01.116-.041.168-.041.053 0 .063.041.063.095 0 .073-.052.198-.084.681-.011.105-.031.566-.054.692-.01.053-.03.114-.104.114s-.095-.053-.095-.146c0-.074-.011-.251-.062-.377-.076-.189-.18-.314-.703-.378-.178-.021-1.277-.041-1.488-.041-.053 0-.074.03-.074.104v2.651c0 .073.012.114.074.114.23 0 1.436 0 1.678-.021.25-.021.408-.052.502-.157.073-.084.115-.137.168-.137.042 0 .073.022.073.084 0 .063-.054.23-.084.766-.021.209-.042.627-.042.701 0 .084 0 .199-.094.199-.074 0-.096-.042-.096-.094-.01-.105-.01-.241-.041-.378-.053-.209-.199-.366-.586-.408-.199-.021-1.236-.03-1.488-.03-.053 0-.064.041-.064.104v.828c0 .355-.01 1.32 0 1.623.021.724.189.881 1.26.881.271 0 .711 0 .983-.126.272-.125.397-.345.472-.775.02-.114.041-.157.115-.157.084 0 .084.084.084.189 0 .24-.084.953-.137 1.163-.073.272-.166.272-.565.272-1.583 0-2.284-.063-2.903-.063-.24 0-.899.032-1.319.032-.136 0-.209-.032-.209-.105 0-.053.042-.084.168-.084.155 0 .282-.021.377-.042.209-.041.262-.272.303-.575.054-.441.054-1.269.054-2.232v-1.843zm6.222-2.012c-.125-.389-.24-.64-.388-.744-.114-.074-.325-.096-.419-.096-.105 0-.168-.01-.168-.093 0-.074.084-.095.23-.095.545 0 1.121.031 1.217.031.094 0 .555-.031 1.162-.031.146 0 .221.031.221.095 0 .083-.084.093-.189.093-.084 0-.188 0-.262.043-.094.043-.115.115-.115.23 0 .136.104.492.23.964.179.692 1.154 3.867 1.342 4.453h.031l2.033-5.459c.114-.293.178-.377.262-.377.115 0 .168.157.303.493l2.18 5.27h.031c.189-.702 1.028-3.469 1.395-4.693a2.28 2.28 0 0 0 .104-.608c0-.167-.094-.315-.502-.315-.105 0-.178-.029-.178-.093 0-.074.082-.095.24-.095.556 0 .996.031 1.09.031.072 0 .523-.031.869-.031.117 0 .189.021.189.083 0 .075-.053.104-.146.104-.105 0-.252.012-.366.053-.253.096-.367.515-.589 1.111-.481 1.32-1.582 4.652-2.094 6.225-.117.365-.168.492-.305.492-.105 0-.167-.127-.324-.514l-2.18-5.25h-.021c-.199.534-1.593 4.244-2.043 5.208-.199.429-.25.556-.377.556-.104 0-.158-.115-.24-.389l-2.223-6.652zm17.688 4.18c0-.565-.105-.795-.241-1.101-.075-.167-1.478-2.472-1.845-3.017-.262-.389-.524-.649-.723-.766a1.058 1.058 0 0 0-.441-.136c-.084 0-.156-.021-.156-.094 0-.063.072-.095.199-.095.188 0 .976.031 1.32.031.221 0 .649-.031 1.121-.031.105 0 .156.031.156.095s-.072.073-.23.114c-.095.021-.146.104-.146.188s.052.209.126.357c.147.313 1.614 2.839 1.781 3.132.104-.251 1.426-2.557 1.571-2.88.105-.232.148-.41.148-.546 0-.104-.043-.221-.221-.262-.096-.021-.189-.041-.189-.104 0-.074.053-.095.178-.095.347 0 .682.031.985.031.231 0 .922-.031 1.121-.031.116 0 .188.021.188.082 0 .076-.084.106-.198.106a1.15 1.15 0 0 0-.462.125c-.219.105-.336.231-.565.515-.346.418-1.812 2.881-2.001 3.332-.158.377-.158.701-.158 1.047v.858c0 .169 0 .608.031 1.048.021.305.117.536.432.577.146.022.377.042.523.042.115 0 .167.031.167.084 0 .073-.084.105-.22.105-.661 0-1.32-.032-1.604-.032-.262 0-.921.032-1.309.032-.146 0-.23-.021-.23-.105 0-.053.051-.084.168-.084.146 0 .271-.02.365-.042.21-.041.303-.272.325-.577.032-.439.032-.879.032-1.048v-.855zm5.03-1.246c0-1.791 1.185-4.107 4.327-4.107 2.609 0 4.232 1.52 4.232 3.918 0 2.4-1.674 4.296-4.336 4.296-3.007-.001-4.223-2.253-4.223-4.107m7.095.198c0-2.347-1.353-3.803-3.07-3.803-1.205 0-2.578.67-2.578 3.278 0 2.181 1.205 3.908 3.217 3.908.732.001 2.431-.354 2.431-3.383m4.192-1.12c0-1.594 0-1.887-.021-2.223-.021-.355-.105-.521-.45-.596a2.155 2.155 0 0 0-.409-.032c-.115 0-.178-.021-.178-.094s.072-.095.23-.095c.555 0 1.215.031 1.436.031.355 0 1.152-.031 1.477-.031.66 0 1.362.063 1.928.451.295.199.713.733.713 1.436 0 .775-.326 1.488-1.383 2.347.932 1.173 1.655 2.106 2.273 2.755.587.608 1.018.682 1.175.713.114.021.208.031.292.031s.126.032.126.085c0 .083-.073.104-.198.104h-.996c-.586 0-.849-.053-1.121-.199-.451-.241-.849-.734-1.436-1.541-.419-.576-.902-1.288-1.037-1.445-.052-.062-.115-.074-.189-.074l-.91-.02c-.053 0-.084.02-.084.083v.147c0 .974 0 1.801.052 2.24.032.305.095.536.408.577.157.022.388.042.514.042.084 0 .126.032.126.085 0 .072-.074.104-.21.104-.606 0-1.383-.032-1.54-.032-.199 0-.859.032-1.277.032-.137 0-.211-.032-.211-.104 0-.053.043-.085.168-.085.156 0 .282-.02.377-.042.211-.041.263-.272.305-.577.052-.439.052-1.267.052-2.23v-1.843zm1.238.827c0 .115.021.157.094.189.221.073.535.104.796.104.42 0 .558-.041.745-.179.312-.231.617-.712.617-1.571 0-1.488-.984-1.918-1.604-1.918-.262 0-.449.01-.555.043-.072.021-.094.062-.094.146v3.186zm8.486-.366h.054c.354-.388 1.884-1.949 2.188-2.306.293-.345.523-.607.523-.785 0-.115-.041-.188-.146-.21-.095-.021-.137-.041-.137-.105 0-.072.053-.094.168-.094.221 0 .797.032 1.08.032.325 0 .901-.032 1.225-.032.106 0 .179.021.179.094 0 .074-.052.094-.157.094-.146 0-.408.043-.607.117-.324.125-.681.346-1.131.785-.326.314-1.908 1.885-2.264 2.264.376.492 2.43 2.703 2.84 3.09.46.441.932.912 1.498 1.133.314.125.523.156.648.156.074 0 .137.021.137.084 0 .072-.052.104-.251.104h-.912c-.313 0-.502 0-.724-.021-.564-.053-.848-.283-1.299-.682-.461-.408-2.524-2.828-2.744-3.133l-.114-.156h-.054v.953c0 .963 0 1.791.031 2.242.022.293.115.523.377.566.146.021.379.041.515.041.084 0 .135.031.135.084 0 .072-.083.104-.199.104-.586 0-1.245-.032-1.508-.032-.241 0-.901.032-1.319.032-.138 0-.211-.032-.211-.104 0-.053.041-.084.168-.084.157 0 .282-.021.377-.041.209-.043.262-.273.303-.577.054-.44.054-1.269.054-2.231v-1.844c0-1.594 0-1.887-.021-2.223-.021-.356-.105-.522-.451-.596a2.133 2.133 0 0 0-.408-.033c-.116 0-.178-.02-.178-.094 0-.072.072-.094.229-.094.556 0 1.216.032 1.468.032s.911-.032 1.268-.032c.146 0 .22.021.22.094 0 .074-.062.094-.147.094-.104 0-.166.012-.293.033-.283.051-.367.229-.387.596-.021.336-.021.629-.021 2.223v.462z"/><path fill="#0058A9" d="M24.963 8.867c-.261-1.519-1.488-2.576-2.989-2.697-2.682-.215-4.996 1.22-7.598 1.679-.209.036-.488-.406-.741-.66 1.207-.909 1.043-2.692-.354-3.462-.097-.11-.062-1.137-.006-1.183.114-.095 1.005.076 1.131-.034.127-.11.101-1.179.02-1.282-.081-.102-1.085.007-1.142-.061-.056-.069.028-1.031-.066-1.107-.068-.054-.347-.06-.502-.059-.155-.001-.434.005-.501.059-.095.076-.01 1.038-.067 1.107-.056.068-1.06-.041-1.142.061-.08.103-.106 1.172.021 1.282.126.11 1.017-.061 1.131.034.055.046.09 1.073-.006 1.183-1.397.77-1.561 2.553-.354 3.462-.253.254-.533.696-.741.66C8.455 7.39 6.141 5.955 3.459 6.17 1.958 6.291.731 7.348.47 8.867 0 11.6 1.964 13.701 2.918 16.022c.301.732.566 1.717.518 2.563h9.175v.001l.106-.001.105.001v-.001h9.175c-.047-.846.217-1.831.519-2.563.953-2.321 2.917-4.422 2.447-7.155m-13.356 6.052c-.242 1.372-1.004 2.244-1.638 2.248-.416.003-.75-.155-1.053-.421-.418-.365-.758-.967-.649-1.322.092-.12 1.217.052 1.298-.06.08-.112-.137-.988-.265-1.102-.126-.113-1.142.038-1.279-.073-.135-.111-.262-1.198-.401-1.264 0 0-1.075-.161-1.153-.008-.078.154.363 1.061.288 1.216-.076.154-1.499-.136-1.524.024-.025.16.082.959.219 1.077.136.118 1.464.126 1.464.126.276.211.349.639.35 1.077.003.556-.43.843-1.12.65-1.286-.36-2.88-3.149-3.826-5.081-.696-1.419-1.115-3.742.711-4.438 1.112-.424 2.28-.184 3.477.171 1.254.373 2.908.876 3.883 1.482.239.149-.285.03.58 1.947.403.892.806 2.792.638 3.751m7.682 2.168c-.69.193-1.122-.094-1.12-.65.001-.438.073-.866.35-1.077 0 0 1.328-.008 1.464-.126.137-.118.244-.917.219-1.077-.025-.16-1.448.13-1.524-.024-.075-.155.366-1.062.288-1.216-.079-.153-1.153.008-1.153.008-.139.066-.265 1.153-.401 1.264-.137.111-1.153-.04-1.279.073-.128.114-.344.99-.265 1.102.08.112 1.205-.06 1.298.06.109.355-.231.957-.649 1.322-.303.266-.637.424-1.053.421-.635-.004-1.397-.876-1.638-2.248-.168-.959.236-2.859.637-3.751.866-1.917.342-1.798.581-1.947.975-.606 2.629-1.109 3.884-1.482 1.196-.355 2.364-.595 3.477-.171 1.825.696 1.405 3.019.71 4.438-.946 1.932-2.54 4.721-3.826 5.081"/><path fill="#005DAA" d="M12.822 19.855H3.227v1.613h18.979v-1.613z"/></svg>