<svg id="Layer_1" xmlns="http://www.w3.org/2000/svg" viewBox="0 0 194.9 80"><style>.st0{fill:url(#SVGID_1_)}.st1{fill:none;stroke:#4d4d4d;stroke-miterlimit:10}.st2{fill:#00acee}.st3{enable-background:new}.st4{fill:#4d4d4d}</style><linearGradient id="SVGID_1_" gradientUnits="userSpaceOnUse" x1="89.25" y1="432.639" x2="89.25" y2="377.139" gradientTransform="translate(0 -356.8)"><stop offset="0" stop-color="#fff"/><stop offset="1" stop-color="#fff"/></linearGradient><path class="st0" d="M4 20.3h170.6v55.5H4z"/><path class="st1" d="M16.3 21.2H3.8v55h170.5"/><path class="st2" d="M179.3 56.7v-6.8l6 3.4 5.8 3.4-5.8 3.4-6 3.4z"/><g class="st3"><path class="st4" d="M32.5 10.6h-7.6v20.8h-3.2V10.6h-7.6V8h18.4v2.6zm5.4 6.5c.7-.8 1.5-1.4 2.4-1.8.9-.4 1.9-.7 3-.7.9 0 1.7.1 2.4.4.7.3 1.3.7 1.7 1.3.5.6.8 1.2 1.1 2 .2.8.4 1.6.4 2.6v10.6H46V20.9c0-1.3-.3-2.2-.9-2.9-.6-.7-1.4-1-2.6-1-.9 0-1.7.2-2.4.6-.7.4-1.4 1-2.1 1.7v12.2h-3V7.3h2.9v9.8zm28.8 12c-.4.4-.8.8-1.3 1.1-.5.3-1 .6-1.6.8-.6.2-1.2.4-1.8.5s-1.2.2-1.8.2c-1.1 0-2.2-.2-3.2-.6-1-.4-1.8-1-2.5-1.7s-1.3-1.7-1.6-2.8-.6-2.4-.6-3.8c0-1.2.2-2.2.5-3.2.4-1 .9-1.9 1.5-2.6.7-.7 1.5-1.3 2.4-1.7 1-.4 2-.6 3.2-.6 1 0 1.9.2 2.8.5.8.3 1.6.8 2.2 1.4s1.1 1.4 1.4 2.3.5 2 .5 3.1c0 .5 0 .8-.1.9-.1.2-.3.2-.6.2H55.2c0 1 .2 2 .4 2.7.3.8.6 1.4 1.1 1.9.5.5 1 .9 1.6 1.2.6.3 1.3.4 2.1.4.7 0 1.4-.1 1.9-.3.5-.2 1-.4 1.4-.5s.7-.4 1-.5.5-.3.7-.3c.2 0 .4.1.6.3l.7 1.1zm-2.4-7.8c0-.7-.1-1.3-.3-1.9-.2-.6-.5-1-.8-1.5-.4-.4-.8-.7-1.3-.9s-1.1-.3-1.8-.3c-1.4 0-2.5.4-3.3 1.2s-1.3 1.9-1.5 3.4h9zM96 26.6c.2 0 .3.1.5.2l1.3 1.4c-1 1.1-2.1 2-3.5 2.6-1.4.6-3 .9-5 .9-1.7 0-3.2-.3-4.6-.9-1.4-.6-2.5-1.4-3.5-2.5s-1.7-2.3-2.3-3.8c-.5-1.5-.8-3.1-.8-4.9s.3-3.4.8-4.9c.6-1.5 1.3-2.7 2.3-3.8 1-1.1 2.2-1.9 3.6-2.5 1.4-.6 3-.9 4.7-.9 1.7 0 3.1.3 4.4.8 1.3.5 2.4 1.3 3.4 2.2l-1 1.5c-.1.1-.1.2-.3.3-.1.1-.2.1-.4.1s-.4-.1-.7-.3-.7-.5-1.1-.7-1-.5-1.7-.7c-.7-.2-1.5-.3-2.5-.3-1.2 0-2.3.2-3.3.6s-1.9 1-2.6 1.8c-.7.8-1.3 1.8-1.7 2.9-.4 1.1-.6 2.4-.6 3.9s.2 2.8.6 3.9 1 2.1 1.7 2.9c.7.8 1.6 1.4 2.6 1.8 1 .4 2.1.6 3.2.6.7 0 1.3 0 1.9-.1.6-.1 1.1-.2 1.6-.4s.9-.4 1.3-.7c.4-.3.8-.6 1.2-1 .2.1.3 0 .5 0zm4.3-9.4c.9-.9 1.9-1.5 3-2 1.1-.4 2.2-.7 3.5-.7.9 0 1.8.2 2.5.5s1.3.7 1.8 1.3c.5.5.9 1.2 1.1 2 .3.8.4 1.6.4 2.6v10.6h-1.3c-.3 0-.5 0-.7-.1-.2-.1-.3-.3-.4-.5l-.3-1.6c-.4.4-.9.8-1.3 1.1-.4.3-.9.6-1.3.8-.5.2-.9.4-1.5.5-.5.1-1.1.2-1.7.2-.6 0-1.2-.1-1.8-.3-.6-.2-1.1-.5-1.5-.8-.4-.4-.8-.8-1-1.4-.2-.6-.4-1.2-.4-2 0-.7.2-1.3.5-1.9.4-.6.9-1.1 1.8-1.6.8-.5 1.9-.9 3.2-1.2 1.3-.3 2.9-.5 4.8-.5v-1.3c0-1.3-.3-2.3-.8-2.9-.6-.7-1.4-1-2.4-1-.7 0-1.3.1-1.8.3s-.9.4-1.3.6-.7.4-.9.6c-.3.2-.5.3-.8.3-.2 0-.4-.1-.5-.2s-.3-.2-.4-.4l-.5-1zm9.4 6.8c-1.3 0-2.5.1-3.4.3-.9.2-1.7.4-2.3.7s-1 .6-1.3 1c-.3.4-.4.8-.4 1.2 0 .4.1.8.2 1.1s.3.6.6.8c.2.2.5.3.9.4.3.1.7.1 1.1.1.5 0 1-.1 1.4-.2.4-.1.8-.3 1.2-.5s.7-.4 1.1-.7.7-.6 1-.9V24zm10.1-5.8c.5-1.1 1.2-2 1.9-2.7.8-.6 1.7-1 2.8-1 .3 0 .7 0 1 .1.3.1.6.2.9.4l-.2 2.2c-.1.3-.2.4-.5.4-.2 0-.4 0-.7-.1-.3-.1-.6-.1-1-.1-.5 0-1 .1-1.4.2-.4.2-.8.4-1.1.7-.3.3-.6.7-.9 1.1-.3.4-.5.9-.7 1.5v10.5H117V14.8h1.7c.3 0 .5.1.7.2.1.1.2.3.2.6l.2 2.6zm21.9 10.9c-.4.4-.8.8-1.3 1.1-.5.3-1 .6-1.6.8-.6.2-1.2.4-1.8.5-.6.1-1.2.2-1.8.2-1.1 0-2.2-.2-3.2-.6-1-.4-1.8-1-2.5-1.7s-1.3-1.7-1.6-2.8-.6-2.4-.6-3.8c0-1.2.2-2.2.5-3.2.4-1 .9-1.9 1.5-2.6.7-.7 1.5-1.3 2.4-1.7 1-.4 2-.6 3.2-.6 1 0 1.9.2 2.8.5.8.3 1.6.8 2.2 1.4s1.1 1.4 1.4 2.3c.3.9.5 2 .5 3.1 0 .5 0 .8-.1.9-.1.2-.3.2-.6.2H130c0 1 .2 2 .4 2.7s.6 1.4 1.1 1.9c.5.5 1 .9 1.6 1.2.6.3 1.3.4 2.1.4.7 0 1.4-.1 1.9-.3.5-.2 1-.4 1.4-.5s.7-.4 1-.5c.3-.2.5-.3.7-.3.2 0 .4.1.6.3l.9 1.1zm-2.4-7.8c0-.7-.1-1.3-.3-1.9-.2-.6-.5-1-.8-1.5s-.8-.7-1.3-.9-1.1-.3-1.8-.3c-1.4 0-2.5.4-3.3 1.2s-1.3 1.9-1.5 3.4h9zm19.7 7.8c-.4.4-.8.8-1.3 1.1-.5.3-1 .6-1.6.8s-1.2.4-1.8.5c-.6.1-1.2.2-1.8.2-1.1 0-2.2-.2-3.2-.6s-1.8-1-2.5-1.7-1.3-1.7-1.6-2.8-.6-2.4-.6-3.8c0-1.2.2-2.2.5-3.2.4-1 .9-1.9 1.5-2.6s1.5-1.3 2.4-1.7 2-.6 3.2-.6c1 0 1.9.2 2.8.5.8.3 1.6.8 2.2 1.4s1.1 1.4 1.4 2.3c.3.9.5 2 .5 3.1 0 .5 0 .8-.1.9-.1.2-.3.2-.6.2h-11.1c0 1 .2 2 .4 2.7.3.8.6 1.4 1.1 1.9.5.5 1 .9 1.6 1.2.6.3 1.3.4 2.1.4.7 0 1.4-.1 1.9-.3.5-.2 1-.4 1.4-.5s.7-.4 1-.5c.3-.2.5-.3.7-.3.2 0 .4.1.6.3l.9 1.1zm-2.4-7.8c0-.7-.1-1.3-.3-1.9-.2-.6-.5-1-.8-1.5-.4-.4-.8-.7-1.3-.9s-1.1-.3-1.8-.3c-1.4 0-2.5.4-3.3 1.2s-1.3 1.9-1.5 3.4h9zm9-3.1c.5-1.1 1.2-2 1.9-2.7.8-.6 1.7-1 2.8-1 .3 0 .7 0 1 .1.3.1.6.2.9.4l-.2 2.2c-.1.3-.2.4-.5.4-.2 0-.4 0-.7-.1-.3-.1-.6-.1-1-.1-.5 0-1 .1-1.4.2-.4.2-.8.4-1.1.7-.3.3-.6.7-.9 1.1-.3.4-.5.9-.7 1.5v10.5h-2.9V14.8h1.7c.3 0 .5.1.7.2.1.1.2.3.2.6l.2 2.6z"/></g><g class="st3"><path class="st4" d="M25.6 38.3c1.8 0 3.4.2 4.8.6 1.3.4 2.5 1 3.3 1.8.9.8 1.5 1.7 1.9 2.8.4 1.1.6 2.3.6 3.5 0 1.3-.2 2.6-.7 3.7-.4 1.1-1.1 2.1-2 2.9-.9.8-2 1.4-3.3 1.9-1.3.4-2.9.7-4.7.7h-3.8v9.7h-5.1V38.3h9zm0 13.8c.9 0 1.8-.1 2.5-.4.7-.2 1.3-.6 1.7-1 .5-.4.8-1 1-1.6.2-.6.3-1.3.3-2.1 0-.7-.1-1.4-.3-2-.2-.6-.6-1.1-1-1.5-.5-.4-1-.7-1.7-1-.7-.2-1.5-.3-2.5-.3h-3.8v9.9h3.8zm18.6-14.5v28.3h-4.7V37.6h4.7zM48.4 49c2.2-2.1 4.9-3.1 8.1-3.1 1.1 0 2.2.2 3.1.6.9.4 1.7.9 2.3 1.6.6.7 1.1 1.5 1.4 2.4.3.9.5 1.9.5 3v12.3h-2.1c-.4 0-.8-.1-1-.2-.2-.1-.4-.4-.6-.8l-.4-1.4c-.5.4-1 .8-1.4 1.2-.5.3-1 .6-1.5.8-.5.2-1 .4-1.6.5-.6.1-1.2.2-1.9.2-.8 0-1.6-.1-2.3-.3-.7-.2-1.3-.6-1.8-1s-.9-1-1.2-1.7-.4-1.4-.4-2.3c0-.5.1-1 .2-1.5.2-.5.4-1 .8-1.4s.9-.9 1.5-1.3 1.3-.7 2.2-1c.9-.3 1.9-.5 3-.7s2.5-.3 4-.3v-1.1c0-1.3-.3-2.3-.8-2.9-.6-.6-1.4-.9-2.4-.9-.8 0-1.4.1-1.9.3-.5.2-.9.4-1.3.6-.4.2-.7.4-1 .6-.3.2-.7.3-1 .3-.3 0-.6-.1-.8-.3l-.6-.6-1.1-1.6zm10.8 8.5c-1.4.1-2.5.2-3.4.4-.9.2-1.7.4-2.2.7-.6.3-1 .6-1.2.9-.2.4-.4.7-.4 1.2 0 .8.2 1.4.7 1.8.5.4 1.1.5 1.9.5 1 0 1.8-.2 2.5-.5s1.4-.9 2.1-1.6v-3.4zm26.2-11.2L74.7 71.2c-.1.3-.3.6-.5.8-.2.2-.6.3-1 .3h-3.5l3.7-7.8-7.9-18h4.1c.4 0 .7.1.9.3.2.2.4.4.5.6l4 9.9c.1.3.3.7.4 1 .1.3.2.7.3 1 .1-.4.2-.7.3-1.1.1-.3.2-.7.4-1l3.9-10.1c.1-.3.3-.5.5-.6.2-.2.5-.2.8-.2h3.8zm7 2.4c.8-.8 1.7-1.5 2.6-2 1-.5 2.1-.7 3.3-.7 1.1 0 2.1.2 3.1.7.9.4 1.7 1.1 2.3 1.9.6.8 1.1 1.8 1.5 3 .3 1.2.5 2.5.5 4 0 1.6-.2 3-.6 4.3-.4 1.3-1 2.4-1.7 3.3-.7.9-1.6 1.6-2.6 2.1s-2.2.8-3.4.8c-.6 0-1.2-.1-1.7-.2s-1-.3-1.4-.5c-.4-.2-.8-.5-1.2-.8s-.7-.7-1-1l-.2 1.3c-.1.3-.2.6-.4.7-.2.1-.4.2-.8.2h-3.1V37.6h4.7v11.1zm0 12.1c.5.6 1.1 1.1 1.7 1.4.6.3 1.3.4 2 .4s1.4-.1 1.9-.4 1.1-.7 1.5-1.2c.4-.6.7-1.3.9-2.1.2-.9.3-1.9.3-3.1 0-2.1-.4-3.7-1.1-4.6s-1.7-1.4-3.1-1.4c-.9 0-1.7.2-2.4.6-.7.4-1.3 1-1.9 1.7v8.7zM117.9 46c1.4 0 2.8.2 3.9.7s2.2 1.1 3 2c.8.9 1.5 1.9 1.9 3.2.5 1.2.7 2.6.7 4.2 0 1.5-.2 2.9-.7 4.2s-1.1 2.3-1.9 3.2c-.8.9-1.9 1.5-3 2-1.2.5-2.5.7-3.9.7-1.5 0-2.8-.2-4-.7-1.2-.5-2.2-1.1-3.1-2-.8-.9-1.5-1.9-2-3.2s-.7-2.6-.7-4.2c0-1.5.2-2.9.7-4.2.5-1.2 1.1-2.3 2-3.2.8-.9 1.9-1.5 3.1-2 1.2-.5 2.6-.7 4-.7zm0 16.5c1.6 0 2.8-.5 3.6-1.6.8-1.1 1.2-2.7 1.2-4.8 0-2.1-.4-3.7-1.2-4.8-.8-1.1-2-1.7-3.6-1.7s-2.9.6-3.7 1.7c-.8 1.1-1.2 2.7-1.2 4.8 0 2.1.4 3.7 1.2 4.8.9 1 2.1 1.6 3.7 1.6zM139.8 46c1.4 0 2.8.2 3.9.7s2.2 1.1 3 2c.8.9 1.5 1.9 1.9 3.2.5 1.2.7 2.6.7 4.2 0 1.5-.2 2.9-.7 4.2s-1.1 2.3-1.9 3.2c-.8.9-1.9 1.5-3 2-1.2.5-2.5.7-3.9.7-1.5 0-2.8-.2-4-.7-1.2-.5-2.2-1.1-3.1-2-.8-.9-1.5-1.9-2-3.2s-.7-2.6-.7-4.2c0-1.5.2-2.9.7-4.2.5-1.2 1.1-2.3 2-3.2.8-.9 1.9-1.5 3.1-2 1.2-.5 2.5-.7 4-.7zm0 16.5c1.6 0 2.8-.5 3.6-1.6.8-1.1 1.2-2.7 1.2-4.8 0-2.1-.4-3.7-1.2-4.8-.8-1.1-2-1.7-3.6-1.7s-2.9.6-3.7 1.7c-.8 1.1-1.2 2.7-1.2 4.8 0 2.1.4 3.7 1.2 4.8.8 1 2 1.6 3.7 1.6zm17.9-24.9v16.2h.9c.3 0 .6 0 .8-.1s.4-.3.6-.5l4.8-6c.2-.3.4-.5.7-.6s.6-.2 1-.2h4.3l-6.1 7.2c-.4.6-.9 1-1.4 1.3.3.2.5.4.7.7.2.3.4.5.6.8l6.5 9.5h-4.2c-.4 0-.7-.1-1-.2-.3-.1-.5-.3-.7-.7l-5-7.4c-.2-.3-.4-.5-.6-.6s-.5-.1-.9-.1h-1.1v8.9H153V37.6h4.7z"/></g></svg>