<svg xmlns="http://www.w3.org/2000/svg" width="593.422" height="200.91" viewBox="0 0 593.422 200.91"><path fill="#FFF" d="M396.777 135.659c-7.983 0-14.479 6.495-14.479 14.479 0 6.459 4.321 12.147 10.537 13.915v11.157c0 9.863-8.024 17.889-17.891 17.889h-232.02c-9.621 0-17.471-7.64-17.854-17.166v-.607h-7.883v.607c.387 13.874 11.77 25.051 25.737 25.051h232.02c14.211 0 25.775-11.562 25.775-25.773v-11.157c6.213-1.765 10.531-7.456 10.531-13.915.001-7.985-6.492-14.48-14.473-14.48zm0 22.282c-4.305 0-7.809-3.501-7.809-7.803 0-4.306 3.504-7.809 7.809-7.809 4.302 0 7.803 3.503 7.803 7.809 0 4.302-3.501 7.803-7.803 7.803zm3.942-117.166V25.736C400.697 11.542 389.143 0 374.944 0h-232.02c-14.213 0-25.774 11.562-25.774 25.774v24.932a14.462 14.462 0 0 0-10.698 13.96c0 7.983 6.494 14.477 14.474 14.477 7.983 0 14.479-6.493 14.479-14.477 0-6.382-4.254-12.051-10.371-13.865V25.774c0-9.865 8.026-17.891 17.89-17.891h232.02c9.866 0 17.891 8.025 17.891 17.891v15.001h7.884zM128.735 64.666c0 4.305-3.503 7.805-7.809 7.805-4.303 0-7.803-3.5-7.803-7.805s3.5-7.805 7.803-7.805c4.306 0 7.809 3.5 7.809 7.805z"/><path d="M504.827 156.46v-45.664h23.988v-8.74h-23.988V59.208h25.988l.117-8.091h-34.774v113.866h35.822l-.335-8.523h-26.818m88.584-67.485V63.238c.104-2.974-.545-5.722-1.931-8.171-1.515-2.677-3.93-4.15-7.244-4.382l-15.402.002c-3.92.22-6.792 1.72-8.528 4.458-1.618 2.548-2.44 5.544-2.44 8.903v35.26c0 9.374 4.91 11.342 9.031 11.342h12.971c1.586.036 2.754.441 3.473 1.202.802.843 1.178 2.254 1.115 4.23l.218 32.646c0 2.532-.573 4.553-1.705 6.006-1.055 1.356-2.721 2.015-5.09 2.015h-7.08c-3.228 0-3.791-1.194-3.976-1.586-.67-1.427-1.011-3.64-1.011-6.58v-21.89h-8.09v25.736c-.109 3.019.713 5.811 2.44 8.29 1.804 2.595 4.044 4.027 6.734 4.264h15.376l.026-.001c3.918-.221 6.787-1.72 8.527-4.459 1.619-2.548 2.439-5.544 2.439-8.905v-41.327c0-7.354-4.389-8.452-7.006-8.452H570.94c-3.232 0-4.553-1.488-4.553-5.13l.071-29.77c0-2.617.412-4.708 1.227-6.213.679-1.25 1.502-1.808 2.678-1.808h9.97c3.229 0 3.791 1.194 3.976 1.587.671 1.427 1.013 3.639 1.013 6.579v21.89h8.089m-476.867 1.818h9.096v74.191h-9.096zm275.685-39.675h9.098v72.892h-9.098zM62.086 26.361l-15.5 116.866L29.845 27.141l-.112-.78h-9.122L.154 163.761 0 164.807h9.218l5.97-42.361 10.29-74.866 10.209 75.052 6.241 42.157 9.673.213 5.34-42.201 10.288-74.866 10.208 75.053 6.155 41.995h9.666L71.476 26.361h-9.39m122.132 97.954L165.986 51.65l-.174-.705-8.617.209v113.829h8.669V87.27l19.265 76.563.286 1.15h7.326V50.975h-8.523v73.34m68.633-62.817c-1.968-3.818-4.332-6.307-6.934-8.246-1.779-1.324-5.281-1.856-7.543-1.856l-14.855.013v113.575h14.146l.024-.001c3.93-.219 6.326-1.462 8.142-2.979 1.335-1.116 3.324-3.469 4.898-5.929 1.587-2.479 2.652-5.817 4.188-9.948 1.536-4.131 2.727-9.544 3.416-16.134.675-6.491 1.02-14.068 1.02-22.521 0-9.834-.515-18.734-1.529-26.459-1.031-7.82-3.286-16.241-4.973-19.515m-21.242 95.883v-98.01l4.578-.163c1.907.008 3.698.751 5.33 2.222 3.006 2.65 5.226 7.426 6.597 14.192 1.42 7 2.932 17.661 2.718 31.619-.153 9.865-1.062 17.301-1.443 22.149-.375 4.75-1.654 9.953-3.805 15.465-2.646 6.797-4.104 9.123-4.861 9.88-1.021 1.024-2.654 2.477-4.718 2.595l-4.396.051zM354.33 68.366l-10.204 75.044-10.285-74.857-5.343-42.211-9.671.214-6.245 42.167-10.207 75.043-10.288-74.871-5.973-42.357h-9.217l20.495 137.67.117.775h9.123l16.851-116.864 15.395 116.073.105.791h9.391l21.781-138.622h-9.668l-6.157 42.005m104.145 49.459c-.571-1.446-1.345-2.923-2.309-4.394 3.405-1.899 5.997-5.387 7.715-10.381 1.9-5.527 2.865-12.402 2.865-20.434 0-6.189-.583-11.938-1.733-17.094-1.187-5.297-2.818-9.094-4.85-11.283-2.146-2.312-5.278-3.484-9.312-3.484h-19.362v114.228h8.308v-49.42h4.697c1.566 0 2.074.232 2.09.232.625.441 1.311 1.296 1.975 2.472.73 1.28 1.595 3.661 2.571 7.068.999 3.505 2.307 8.648 3.883 15.281l5.613 24.366h9.839l-7.515-32.212c-1.407-5.916-2.911-10.945-4.475-14.945M439.869 58.4l7.689-.002c4.583.002 7.952 2.668 9.181 6.774 1.347 4.511 1.7 9.431 1.702 16.935-.281 5.516-.854 10.219-1.701 13.979-.828 3.695-1.846 6.618-3.018 8.689-1.014 1.788-2.909 2.945-5.473 3.42h-8.381V58.4z" fill="#FFF"/></svg>