<svg xmlns="http://www.w3.org/2000/svg" width="200.115" height="65.325" viewBox="0 6.167 200.115 65.325"><path fill="#9FC0E6" fill-opacity=".2" d="M185.642 6.167c-7.982 0-14.479 6.495-14.479 14.479 0 6.459 4.32 12.146 10.537 13.914v11.156c0 9.863-8.025 17.891-17.892 17.891H0v7.885h163.809c14.211 0 25.774-11.562 25.774-25.773V34.562c6.213-1.767 10.531-7.457 10.531-13.916.001-7.984-6.491-14.479-14.472-14.479zm0 22.282c-4.307 0-7.811-3.502-7.811-7.803 0-4.308 3.504-7.811 7.811-7.811 4.302 0 7.803 3.503 7.803 7.811-.001 4.301-3.502 7.803-7.803 7.803z"/></svg>