<svg version="1" xmlns="http://www.w3.org/2000/svg" width="164.526" height="29.996" viewBox="0 0 164.526 29.996"><path fill="#716658" d="M164.24 27.554a2.442 2.442 0 0 1-2.443 2.442h-38.813a2.443 2.443 0 0 1-2.444-2.442V4.647a2.442 2.442 0 0 1 2.444-2.443h38.813a2.441 2.441 0 0 1 2.443 2.443v22.907"/><path fill="#1E76BB" d="M123.568 5.24h37.644v21.722h-37.644z"/><path fill="#FFF" d="M161.212 27.416h-37.644a.454.454 0 0 1-.454-.455V5.24c0-.251.203-.455.454-.455h37.644c.251 0 .455.204.455.455v21.722a.455.455 0 0 1-.455.454m-37.19-.909h36.735V5.694h-36.735v20.813z"/><path fill="#FFF" d="M132.832 10.415h2.439v12.938h1.869V10.415h2.599V8.866h-6.907v1.549m16.855-1.568l-1.097 4.477-1.359 6.124-1.37-6.111-1.036-4.49h-2.151l3.538 14.506h1.944l3.793-14.506h-2.262"/><path d="M17.504 15.556h6.669v1.952h-6.669zm11.904 9.388V.38H27.42l.035 26.55h8.274l-.074-1.986h-6.247m11.168 1.986h1.981V5.175h-2.009l.028 21.755m6.685-19.815h2.49V26.93h1.901V7.115h2.653V5.216h-7.044v1.899m13.707 17.862V16.78h4.494v-1.996h-4.494V7.115h4.866l.027-1.872h-6.874V26.93h7.075l-.077-1.953h-5.017m15.149-7.125a4.672 4.672 0 0 0-.351-.7c.599-.391 1.057-1.043 1.367-1.944.362-1.055.546-2.362.546-3.886 0-1.173-.111-2.264-.33-3.241-.232-1.039-.543-1.757-.951-2.196-.437-.471-1.068-.71-1.875-.71h-3.807V26.93h1.914v-9.257h.701c.198 0 .286.021.313.029.06.05.163.158.293.387.089.156.243.506.465 1.285.186.65.43 1.611.725 2.853l1.084 4.703h2.21l-1.459-6.254c-.265-1.117-.55-2.067-.845-2.824M72.644 6.737h1.258c.811.092 1.285.458 1.49 1.145.248.828.373 1.958.374 3.336-.053 1.025-.159 1.896-.314 2.588-.152.673-.335 1.206-.546 1.579-.161.284-.459.464-.912.549h-1.349V6.737zM89.25 26.93h2.203L87.904 5.188h-1.969L82.641 26.93h2.093l1.01-7.469h2.395l1.111 7.469m-3.243-9.422l.876-6.481.965 6.481h-1.841zm8.488-10.393h2.49V26.93h1.9V7.115h2.653V5.216h-7.043v1.899M8.059 9.454c-1.06 0-2.088.262-3.057.777-.974.517-1.839 1.262-2.574 2.213-.739.957-1.334 2.121-1.77 3.461C.221 17.246 0 18.748 0 20.37c0 .734.102 1.507.303 2.296.198.776.549 1.5 1.045 2.149.493.646 1.172 1.186 2.018 1.603.847.417 1.93.629 3.221.629.847 0 1.664-.121 2.429-.358a6.906 6.906 0 0 0 2.081-1.053 6.423 6.423 0 0 0 1.591-1.742 7.357 7.357 0 0 0 .881-2.098h-2.132c-.395 1.037-.984 1.852-1.752 2.421-.815.603-1.857.909-3.097.909a4.689 4.689 0 0 1-3.083-1.158 3.94 3.94 0 0 1-1.011-1.411c-.245-.562-.369-1.208-.369-1.918 0-.525.032-1.047.096-1.552l.032-.246h12.188c.034-.207.073-.453.117-.738.06-.386.09-.8.09-1.231 0-2.362-.531-4.212-1.578-5.499-1.039-1.273-2.724-1.919-5.011-1.919m4.445 7.432h-10l.101-.365a9.909 9.909 0 0 1 .775-1.958 6.532 6.532 0 0 1 1.21-1.634 5.374 5.374 0 0 1 1.695-1.114c.645-.27 1.379-.407 2.181-.407.771 0 1.435.153 1.972.454a3.7 3.7 0 0 1 1.3 1.198 4.65 4.65 0 0 1 .668 1.686c.119.62.158 1.251.114 1.878l-.016.262zm100.715 8.091h-5.017V16.78h4.494v-1.996h-4.494V7.115h4.866l.027-1.872h-6.874V26.93h7.075l-.077-1.953" fill="#1E76BB"/></svg>