<svg xmlns="http://www.w3.org/2000/svg" width="300" height="40" viewBox="0 0 300 40"><path fill="#0079C1" d="M25.333 23.546c-2.653 2.517-12.304 6.997-19.108-.271-2.993-3.196-4.353-8.161-.341-16.05.48-.943 9.452-7.956 18.971-5.49 16.523 4.28 15.438 17.373 15.524 17.455.084.084-1.572-1.803-5.798-1.898-6.463-.149-9.248 6.254-9.248 6.254z"/><path d="M4.169 10.138c-4.624 20.74 17.958 18.401 21.086 13.1 1.229-2.088-2.577 9.074-11.076 9.753-1.117.089-10.881.342-12.649-11.628-1.004-6.795 2.639-11.225 2.639-11.225z"/><path fill="#BAD0EC" d="M21.515 37.141c-.184 0-.375 0-.57-.004C10.965 37.025.933 31.232 1 18.543c.026-4.741 2.096-9.169 5.826-12.464 3.7-3.269 8.621-5.069 13.857-5.069 5.238 0 10.212 1.847 14.006 5.201 3.831 3.385 5.939 7.857 5.939 12.598 0 1.603 0 1.85-.205 3.156l-.705-.111c.197-1.252.197-1.457.197-3.043 0-9.262-8.809-17.084-19.233-17.084-10.409 0-18.919 7.546-18.969 16.822-.067 12.201 9.613 17.769 19.234 17.876 3.768.042 4.995-.286 7.882-1.608l.297.647c-2.804 1.285-4.166 1.677-7.611 1.677z"/><path fill="#BAD0EC" d="M7.51 20.586l-.708-.087c.701-5.687 2.527-10.206 5.425-13.433 3.062-3.413 7.257-5.297 12.463-5.602l.042.712c-9.849.577-15.805 6.943-17.222 18.41zm19.517 1.875l-.599-.189c1.92-6.061 1.389-12.355-1.42-16.839l.532-.333c2.905 4.635 3.461 11.127 1.487 17.361z"/><path fill="#BAD0EC" d="M24.672 1.745l.7.144-5.096 24.83-.7-.143z"/><path fill="#BAD0EC" d="M27.444 7.153c-7.683 0-13.948-4.091-14.026-4.144l.395-.595c.095.063 9.628 6.282 19.439 3.142l.217.679c-2.048.656-4.08.918-6.025.918z"/><path fill="#FFF" d="M12.357 11.402c-.021.163.417 2.083.854 2.734.654-.362 1.425-.956 1.864-1.548.984.232 1.123.385 2.639-.083-.993.788-1.046 1.797-1.699 2.94 1.062-1.408 2.74-.605 4.239-1.293.179-.082.625-.313.691-.834.031-.791 0-1.438-1.068-1.953-.258-.123-.408-.103-.703-.111.094-.048.404-1.654 1.303-1.833-.849-.8-1.522-.418-1.953-.084-.514.399-.414.879-.986 1.201.444-.639-1.068-1.947-1.917-2.041-.85-.091-2.009-.065-2.591.813 0 0 1.107.061 1.624.836.553.828 1.199 1.019 1.199 1.019s-2.505.606-3.496.237z"/><path fill="#BAD0EC" d="M16.017 15.667a.216.216 0 0 1-.122-.037.219.219 0 0 1-.07-.294c.219-.384.371-.753.516-1.111.184-.453.361-.89.657-1.293-.743.17-1.076.096-1.649-.05-.058-.015-.119-.028-.183-.046-.512.63-1.301 1.193-1.845 1.493a.222.222 0 0 1-.291-.071c-.459-.686-.917-2.658-.89-2.885a.222.222 0 0 1 .296-.181c.187.07.459.106.812.106.662 0 1.455-.127 1.979-.229a3.188 3.188 0 0 1-.754-.801c-.45-.675-1.442-.738-1.452-.738a.221.221 0 0 1-.172-.344c.416-.628 1.141-.946 2.155-.946.203 0 .413.013.644.036.717.078 1.774.872 2.093 1.572.02.046.039.091.054.135.03-.052.059-.107.088-.166.11-.207.232-.442.509-.657.241-.187.615-.435 1.078-.435.395 0 .785.18 1.162.534.06.057.083.142.061.222s-.088.14-.17.156c-.549.109-.862.96-1.019 1.403.146.01.29.039.471.125 1.163.558 1.229 1.308 1.196 2.16-.042.327-.215.75-.821 1.028-.638.291-1.288.33-1.915.365-.894.051-1.666.096-2.242.859a.223.223 0 0 1-.176.09zm1.697-3.383c.081 0 .156.043.195.118a.216.216 0 0 1-.058.274c-.603.479-.836 1.054-1.105 1.714-.03.077-.062.154-.094.231.545-.274 1.155-.31 1.753-.345.586-.034 1.193-.068 1.755-.326.339-.155.529-.377.564-.663.03-.769-.017-1.279-.946-1.726-.175-.083-.278-.083-.483-.086l-.129-.002a.22.22 0 0 1-.21-.173.225.225 0 0 1 .045-.19c.016-.035.042-.112.067-.181.147-.419.426-1.215.977-1.569a1.057 1.057 0 0 0-.582-.195c-.323 0-.601.185-.807.345-.201.155-.292.328-.387.513-.124.234-.263.501-.626.705a.222.222 0 0 1-.272-.043.221.221 0 0 1-.017-.275c.059-.087.052-.214-.022-.379-.251-.554-1.178-1.254-1.738-1.313a5.117 5.117 0 0 0-.596-.037c-.678 0-1.197.159-1.547.472.408.093 1.019.321 1.383.87.496.742 1.074.928 1.079.929a.225.225 0 0 1 .156.219.22.22 0 0 1-.169.208c-.06.015-1.511.361-2.657.361-.239 0-.447-.015-.625-.044.105.506.38 1.57.67 2.138.644-.386 1.26-.913 1.608-1.378a.218.218 0 0 1 .227-.083c.12.028.229.058.328.082.322.081.534.135.792.135.317 0 .725-.086 1.402-.296a.255.255 0 0 1 .069-.01z"/><path fill="#BAD0EC" d="M21.025 10.762a2.209 2.209 0 0 1 .308-2.842l.266.309-.133-.154.134.154c-.042.037-1.048.941-.224 2.326l-.351.207z"/><path fill="#BAD0EC" d="M21.411 8.303h-.439l.284-.336c.49-.58 1.09-.643 1.326-.643.408 0 .684.165.684.41 0 .2-.174.348-.518.44-.312.085-.764.129-1.337.129zm1.171-.571a1.3 1.3 0 0 0-.568.143c.378-.029.609-.082.734-.127a.848.848 0 0 0-.166-.016zm-1.624 1.871h-.44l.283-.337a1.743 1.743 0 0 1 1.327-.642c.409 0 .683.165.683.411 0 .198-.174.346-.516.44-.313.083-.764.128-1.337.128zm1.168-.57c-.089 0-.314.014-.568.141.378-.027.608-.08.734-.125a.75.75 0 0 0-.166-.016z"/><path fill="#BAD0EC" d="M18.759 36.434c-1.958 0-4.025-.324-6.057-.992C5.375 33.033 1 27.003 1 19.318 1 7.259 10.921 1.435 20.753 1.01c1.441-.062 2.842.166 3.9.372 8.188 1.585 16.374 8.604 15.896 17.606l-.034.641-.526-.369c-.075-.051-7.583-4.982-12.936 2.391-4.479 6.168-11.524 6.923-16.521 4.935-5.225-2.08-8.146-6.899-7.445-12.28l.008-.058c.025-.196.049-.394.083-.591.18-1.098.502-2.211.961-3.333-1.524 2.45-2.425 5.44-2.425 8.995 0 7.363 4.19 13.139 11.21 15.445 5.909 1.942 12.314.768 14.897-2.738l.574.425c-1.895 2.57-5.533 3.983-9.636 3.983zM6.434 7.456l.01.006c-1.36 2.132-2.222 4.254-2.56 6.308-.031.189-.056.381-.08.567l-.009.058c-.798 6.125 3.094 9.971 7.002 11.525 4.74 1.889 11.427 1.169 15.68-4.689 4.89-6.734 11.466-3.905 13.379-2.873.076-8.327-7.628-14.782-15.337-16.275-1.019-.198-2.367-.417-3.733-.359-5.328.23-10.681 2.093-14.352 5.732z"/><path fill="#BAD0EC" d="M13.545 33.377c-.288 0-.577-.011-.87-.033-5.093-.357-9.592-3.889-10.696-8.393l.693-.169c1.032 4.215 5.261 7.515 10.054 7.85 5.409.382 9.977-3.043 12.519-9.397.026-.057.471-1.034.781-1.447l.571.429c-.219.294-.576 1.036-.695 1.304-2.524 6.301-6.997 9.856-12.357 9.856z"/><ellipse cx="31.72" cy="15.291" rx="3.61" ry="3.424"/><path fill="#BAD0EC" d="M31.72 19.027c-2.163 0-3.923-1.676-3.923-3.736s1.76-3.738 3.923-3.738c2.164 0 3.924 1.678 3.924 3.738 0 2.063-1.761 3.736-3.924 3.736zm0-6.845c-1.817 0-3.295 1.395-3.295 3.109S29.902 18.4 31.72 18.4c1.817 0 3.296-1.395 3.296-3.109s-1.479-3.109-3.296-3.109z"/><ellipse fill="#FFF" cx="11.039" cy="21.808" rx="4.105" ry="3.893"/><path fill="#BAD0EC" d="M11.039 26.059c-2.46 0-4.462-1.906-4.462-4.25s2.002-4.25 4.462-4.25c2.459 0 4.46 1.908 4.46 4.25.001 2.343-2.001 4.25-4.46 4.25zm0-7.788c-2.066 0-3.748 1.586-3.748 3.535 0 1.95 1.682 3.538 3.748 3.538 2.065 0 3.747-1.588 3.747-3.538 0-1.949-1.682-3.535-3.747-3.535z"/><path d="M33.681 27.973c0-1.968 0-2.332-.024-2.742-.029-.437-.128-.649-.554-.737a2.986 2.986 0 0 0-.501-.037c-.146 0-.222-.022-.222-.113 0-.094.093-.122.285-.122.683 0 1.495.043 1.858.043.414 0 2.982 0 3.228-.017a4.26 4.26 0 0 0 .555-.079c.063-.011.145-.045.208-.045.062 0 .076.045.076.111 0 .088-.063.25-.104.845-.014.125-.037.694-.062.849-.016.066-.042.143-.129.143-.089 0-.118-.063-.118-.184 0-.086-.015-.305-.077-.462-.089-.237-.223-.388-.868-.467-.218-.026-1.575-.048-1.832-.048-.063 0-.089.038-.089.127v3.265c0 .093.015.148.089.148.286 0 1.771 0 2.065-.029.313-.026.504-.063.621-.19.092-.107.145-.168.209-.168.05 0 .088.022.088.103 0 .077-.064.286-.102.94-.027.256-.053.776-.053.863 0 .104 0 .246-.115.246-.091 0-.116-.054-.116-.113-.014-.133-.014-.297-.053-.466-.068-.259-.248-.454-.722-.501-.248-.029-1.527-.04-1.836-.04-.062 0-.077.05-.077.128v1.02c0 .443-.014 1.63 0 2.004.027.885.232 1.088 1.547 1.088.34 0 .879 0 1.217-.156.334-.156.488-.43.579-.953.025-.145.054-.193.143-.193.104 0 .104.102.104.229 0 .297-.104 1.174-.167 1.432-.092.336-.207.336-.695.336-1.949 0-2.818-.08-3.579-.08-.299 0-1.111.039-1.626.039-.168 0-.259-.039-.259-.127 0-.066.052-.103.205-.103.197 0 .35-.03.463-.053.262-.052.326-.332.381-.704.06-.55.06-1.566.06-2.758l-.001-2.272zm8.121-3.969c.144 0 .26.166.479.398.158.168 2.117 2.272 4.003 4.145.877.88 2.62 2.744 2.84 2.947h.067l-.131-5.797c-.012-.79-.13-1.037-.44-1.165-.192-.077-.501-.077-.684-.077-.153 0-.207-.037-.207-.113 0-.107.144-.122.335-.122.67 0 1.293.042 1.564.042.139 0 .632-.042 1.265-.042.167 0 .295.015.295.122 0 .076-.076.113-.232.113-.131 0-.232 0-.387.037-.364.104-.468.375-.476 1.095l-.146 8.155c0 .279-.053.392-.166.392-.145 0-.297-.133-.442-.276-.813-.774-2.462-2.465-3.807-3.799-1.408-1.393-2.844-3.008-3.077-3.26h-.036l.145 5.43c.023 1.004.192 1.342.449 1.438.218.076.463.087.67.087.144 0 .223.026.223.104 0 .1-.118.125-.3.125-.837 0-1.355-.039-1.599-.039-.119 0-.726.039-1.395.039-.169 0-.284-.015-.284-.125 0-.077.077-.104.207-.104.169 0 .401-.011.583-.065.333-.101.384-.482.398-1.602l.114-7.645c.004-.256.047-.438.172-.438m16.522.042c.891 0 2.026.152 2.282.203.269.054.723.132 1.019.144.158.014.186.065.186.151 0 .149-.088.509-.088 2.123 0 .206-.041.271-.147.271-.089 0-.119-.063-.129-.172-.04-.296-.101-.709-.442-1.067-.385-.415-1.417-1.005-2.877-1.005-.708 0-1.652.046-2.557.796-.723.606-1.184 1.579-1.184 3.161 0 2.781 1.768 4.863 4.495 4.863.335 0 .782 0 1.094-.144.189-.097.242-.263.242-.481v-1.212c0-.647 0-1.138-.011-1.521-.012-.444-.128-.647-.554-.737a2.492 2.492 0 0 0-.505-.04c-.116 0-.189-.023-.189-.102 0-.109.089-.131.27-.131.671 0 1.483.033 1.874.033.397 0 1.08-.033 1.513-.033.167 0 .249.021.249.131 0 .08-.073.102-.163.102-.102 0-.194.014-.352.04-.345.062-.473.285-.487.737-.018.383-.018.902-.018 1.544v1.421c0 .355-.008.379-.161.469-.843.436-2.109.581-3.117.581-3.161 0-5.964-1.495-5.964-5.065 0-2.068 1.072-3.516 2.245-4.219 1.241-.753 2.39-.841 3.476-.841m7.125 3.927c0-1.968 0-2.332-.022-2.742-.03-.437-.158-.658-.442-.72a1.857 1.857 0 0 0-.465-.056c-.127 0-.207-.021-.207-.135 0-.074.104-.102.306-.102.494 0 1.307.042 1.679.042.324 0 1.088-.042 1.578-.042.166 0 .275.028.275.102 0 .111-.08.135-.211.135s-.232.018-.384.037c-.352.066-.453.292-.48.736-.027.41-.027.775-.027 2.742v2.27c0 1.257 0 2.275.055 2.834.033.346.129.576.515.628.18.024.466.053.66.053.142 0 .203.035.203.103 0 .088-.099.127-.24.127-.855 0-1.669-.039-2.016-.039-.299 0-1.112.039-1.626.039-.169 0-.258-.039-.258-.127 0-.066.053-.103.206-.103.192 0 .347-.03.465-.053.257-.052.335-.271.376-.647.061-.537.061-1.561.061-2.813l-.001-2.269zm5.799-3.969c.143 0 .257.166.481.398.15.168 2.115 2.272 4.001 4.145.876.88 2.619 2.744 2.836 2.947h.068l-.129-5.797c-.012-.79-.128-1.037-.434-1.165-.197-.077-.504-.077-.689-.077-.15 0-.207-.037-.207-.113 0-.107.145-.122.333-.122.675 0 1.295.042 1.564.042.146 0 .638-.042 1.268-.042.169 0 .297.015.297.122 0 .076-.08.113-.235.113-.129 0-.23 0-.387.037-.364.104-.462.375-.475 1.095l-.146 8.155c0 .279-.051.392-.169.392-.137 0-.294-.133-.435-.276-.819-.774-2.469-2.465-3.812-3.799-1.41-1.393-2.841-3.008-3.071-3.26h-.039l.142 5.43c.026 1.004.192 1.342.45 1.438.218.076.465.087.675.087.139 0 .215.026.215.104 0 .1-.118.125-.296.125-.838 0-1.354-.039-1.598-.039-.119 0-.721.039-1.395.039-.167 0-.285-.015-.285-.125 0-.077.079-.104.207-.104.167 0 .403-.011.583-.065.337-.101.387-.482.402-1.602l.115-7.645c-.002-.256.034-.438.165-.438m12.267 3.969c0-1.968 0-2.332-.02-2.742-.031-.437-.129-.649-.562-.737a2.845 2.845 0 0 0-.496-.037c-.146 0-.226-.022-.226-.113 0-.094.088-.122.286-.122.683 0 1.502.043 1.857.043.415 0 2.985 0 3.229-.017.246-.026.453-.05.554-.079.066-.011.146-.045.206-.045.068 0 .078.045.078.111 0 .088-.06.25-.098.845-.018.125-.04.694-.069.849-.008.066-.038.143-.127.143s-.117-.063-.117-.184a1.44 1.44 0 0 0-.073-.462c-.095-.237-.222-.388-.867-.467-.219-.026-1.571-.048-1.836-.048-.06 0-.088.038-.088.127v3.265c0 .093.013.148.088.148.284 0 1.77 0 2.067-.029.311-.026.501-.063.621-.19.088-.107.145-.168.205-.168.053 0 .089.022.089.103 0 .077-.061.286-.1.94-.028.256-.052.776-.052.863 0 .104 0 .246-.118.246-.088 0-.118-.054-.118-.113-.01-.133-.01-.297-.05-.466-.066-.259-.246-.454-.722-.501-.247-.029-1.526-.04-1.835-.04-.065 0-.078.05-.078.128v1.02c0 .443-.013 1.63 0 2.004.03.885.234 1.088 1.549 1.088.339 0 .879 0 1.216-.156.336-.156.49-.43.581-.953.021-.145.051-.193.142-.193.099 0 .099.102.099.229 0 .297-.099 1.174-.169 1.432-.088.336-.198.336-.693.336-1.946 0-2.814-.08-3.576-.08-.294 0-1.112.039-1.627.039-.167 0-.258-.039-.258-.127 0-.066.051-.103.207-.103.192 0 .349-.03.465-.053.258-.052.326-.332.377-.704.061-.55.061-1.566.061-2.758v-2.27h-.002v-.002zm8.161 0c0-1.968 0-2.332-.027-2.742-.028-.437-.127-.649-.554-.737a2.973 2.973 0 0 0-.502-.037c-.146 0-.218-.022-.218-.113 0-.094.091-.122.28-.122.688 0 1.499.043 1.863.043.409 0 2.979 0 3.224-.017.244-.026.453-.05.558-.079.064-.011.142-.045.208-.045.061 0 .078.045.078.111 0 .088-.068.25-.106.845-.012.125-.038.694-.065.849-.012.066-.042.143-.129.143-.091 0-.119-.063-.119-.184 0-.086-.007-.305-.07-.462-.091-.237-.226-.388-.869-.467-.216-.026-1.571-.048-1.834-.048-.061 0-.089.038-.089.127v3.265c0 .093.017.148.089.148.287 0 1.775 0 2.065-.029.316-.026.509-.063.621-.19.089-.107.147-.168.209-.168.049 0 .088.022.088.103 0 .077-.061.286-.097.94a11.62 11.62 0 0 0-.051.863c0 .104 0 .246-.118.246-.089 0-.121-.054-.121-.113-.008-.133-.008-.297-.047-.466-.069-.259-.247-.454-.722-.501-.249-.029-1.524-.04-1.837-.04-.06 0-.077.05-.077.128v1.02c0 .443-.009 1.63 0 2.004.028.885.235 1.088 1.55 1.088.335 0 .878 0 1.215-.156.335-.156.492-.43.58-.953.031-.145.052-.193.143-.193.107 0 .107.102.107.229 0 .297-.107 1.174-.17 1.432-.089.336-.208.336-.698.336-1.948 0-2.818-.08-3.577-.08-.298 0-1.109.039-1.628.039-.168 0-.259-.039-.259-.127 0-.066.052-.103.207-.103.198 0 .348-.03.467-.053.259-.052.323-.332.375-.704.065-.55.065-1.566.065-2.758v-2.27h-.008v-.002zm8.163 0c0-1.968 0-2.332-.028-2.742-.024-.437-.131-.649-.556-.737a2.901 2.901 0 0 0-.503-.037c-.14 0-.218-.022-.218-.113 0-.094.089-.122.279-.122.691 0 1.502.043 1.775.043.438 0 1.417-.043 1.821-.043.811 0 1.677.082 2.376.564.358.238.873.896.873 1.76 0 .96-.398 1.835-1.703 2.895 1.147 1.446 2.04 2.596 2.801 3.396.727.753 1.258.841 1.449.874.146.033.258.045.364.045.098 0 .149.036.149.104 0 .102-.089.127-.239.127h-1.233c-.72 0-1.045-.058-1.378-.241-.555-.302-1.045-.907-1.771-1.9-.516-.714-1.108-1.588-1.275-1.782-.061-.076-.142-.093-.229-.093l-1.133-.024c-.061 0-.1.024-.1.102v.182c0 1.203 0 2.223.067 2.771.033.371.113.652.503.704.188.024.476.053.63.053.103 0 .158.035.158.104 0 .084-.098.125-.265.125-.75 0-1.703-.041-1.896-.041-.248 0-1.058.041-1.579.041-.169 0-.258-.041-.258-.125 0-.069.057-.104.209-.104.194 0 .351-.028.463-.053.264-.052.324-.333.375-.704.068-.549.068-1.568.068-2.755v-2.271h.004zm1.521 1.017c0 .144.03.189.116.229.272.095.662.136.98.136.519 0 .69-.06.918-.223.386-.279.762-.88.762-1.939 0-1.832-1.216-2.36-1.978-2.36-.317 0-.555.013-.683.054-.086.023-.116.072-.116.18l.001 3.923z"/><path d="M111.69 24.046c.839 0 1.383.124 1.72.218.116.022.177.06.177.154 0 .162-.05.539-.05 1.548 0 .283-.033.39-.141.39-.09 0-.128-.078-.128-.233a1.58 1.58 0 0 0-.336-.853c-.195-.246-.569-.635-1.409-.635-.952 0-1.54.553-1.54 1.33 0 .598.306 1.051 1.374 1.86l.361.27c1.55 1.199 2.117 2.062 2.117 3.296 0 .748-.281 1.64-1.215 2.242-.645.409-1.366.534-2.049.534-.748 0-1.33-.095-1.887-.337-.205-.088-.245-.156-.245-.439 0-.709.051-1.486.061-1.692.019-.192.054-.337.159-.337.116 0 .129.119.129.225 0 .166.055.439.116.656.284.953 1.048 1.306 1.847 1.306 1.164 0 1.727-.79 1.727-1.472 0-.633-.194-1.242-1.264-2.067l-.592-.467c-1.422-1.104-1.916-2.012-1.916-3.058.002-1.421 1.195-2.439 2.984-2.439m9.916 1.446c-.154-.477-.298-.788-.478-.918-.141-.092-.399-.11-.515-.11-.131 0-.207-.017-.207-.116 0-.093.1-.125.284-.125.67 0 1.377.041 1.495.041.117 0 .687-.041 1.437-.041.178 0 .271.041.271.125 0 .101-.103.116-.235.116-.105 0-.232 0-.32.047-.118.05-.142.144-.142.287 0 .163.127.604.282 1.188.221.851 1.421 4.765 1.654 5.482h.038l2.508-6.729c.14-.356.218-.455.321-.455.143 0 .207.188.375.604l2.686 6.497h.036c.236-.87 1.269-4.278 1.721-5.788.091-.298.129-.565.129-.75 0-.205-.116-.383-.619-.383-.129 0-.222-.042-.222-.115 0-.094.106-.125.3-.125.68 0 1.224.039 1.343.039.088 0 .643-.039 1.066-.039.145 0 .238.029.238.1 0 .099-.07.142-.184.142a1.3 1.3 0 0 0-.453.066c-.309.11-.453.622-.719 1.362-.594 1.621-1.952 5.729-2.582 7.67-.147.457-.209.607-.375.607-.132 0-.208-.15-.404-.63l-2.688-6.474h-.024c-.248.664-1.962 5.229-2.519 6.422-.244.531-.309.682-.466.682-.127 0-.192-.143-.296-.479l-2.736-8.2zm15.297 2.483c0-1.961 0-2.33-.025-2.738-.026-.438-.152-.664-.439-.726a1.888 1.888 0 0 0-.465-.047c-.128 0-.204-.03-.204-.144 0-.068.103-.102.304-.102.494 0 1.306.042 1.68.042.327 0 1.088-.042 1.576-.042.167 0 .273.032.273.102 0 .111-.08.144-.207.144s-.232.009-.387.035c-.35.06-.452.285-.478.735-.027.41-.027.777-.027 2.74v2.271c0 1.253 0 2.272.053 2.828.039.351.125.575.518.632.177.021.465.049.656.049.143 0 .207.038.207.107 0 .084-.103.121-.246.121-.85 0-1.665-.037-2.013-.037-.297 0-1.111.037-1.625.037-.169 0-.258-.037-.258-.121 0-.069.05-.107.204-.107.196 0 .349-.031.463-.049.264-.057.341-.271.381-.65.06-.535.06-1.559.06-2.81l-.001-2.27zm7.109-3.025l-1.925.047c-.748.03-1.057.093-1.252.377a1.646 1.646 0 0 0-.22.453c-.024.1-.063.155-.14.155-.089 0-.118-.067-.118-.207 0-.207.247-1.387.272-1.483.04-.166.078-.249.151-.249.109 0 .234.133.558.162.376.031.864.057 1.291.057h5.115c.828 0 1.132-.129 1.237-.129.087 0 .104.079.104.268 0 .276-.04 1.168-.04 1.504-.008.133-.036.205-.116.205-.098 0-.127-.061-.14-.256l-.008-.14c-.032-.342-.378-.698-1.53-.728l-1.626-.037v5.294c0 1.188 0 2.208.063 2.767.041.36.118.639.504.693.184.021.463.049.661.049.138 0 .206.038.206.107 0 .084-.106.121-.244.121-.851 0-1.67-.037-2.031-.037-.3 0-1.11.037-1.625.037-.169 0-.257-.037-.257-.121 0-.069.05-.107.207-.107.188 0 .347-.029.457-.049.264-.055.34-.333.375-.712.068-.541.068-1.562.068-2.748V24.95h.003zm14.547 3.38c.045 0 .084-.021.084-.084v-.271c0-1.961 0-2.33-.029-2.738-.025-.438-.127-.646-.553-.736-.104-.03-.324-.035-.506-.035-.143 0-.215-.031-.215-.119 0-.092.088-.125.268-.125.699 0 1.51.043 1.857.043.312 0 1.125-.043 1.631-.043.178 0 .268.032.268.125 0 .088-.072.119-.23.119-.104 0-.219.008-.375.035-.354.061-.451.285-.479.736-.027.408-.027.777-.027 2.738v2.271c0 1.188 0 2.208.062 2.768.037.359.117.637.5.692.189.021.477.049.662.049.148 0 .209.038.209.106 0 .084-.1.123-.26.123-.838 0-1.646-.039-2.012-.039-.299 0-1.107.039-1.613.039-.188 0-.273-.039-.273-.123 0-.068.053-.106.207-.106.195 0 .346-.03.465-.049.26-.056.322-.333.375-.713.068-.54.068-1.562.068-2.747v-1.143c0-.043-.039-.076-.084-.076h-4.932c-.041 0-.078.018-.078.076v1.143c0 1.188 0 2.208.068 2.768.035.359.115.637.504.692.18.021.461.049.65.049.148 0 .209.038.209.106 0 .084-.104.123-.254.123-.846 0-1.65-.039-2.02-.039-.297 0-1.106.039-1.623.039-.168 0-.26-.039-.26-.123 0-.068.053-.106.202-.106.196 0 .353-.03.472-.049.256-.056.32-.333.375-.713.062-.54.062-1.562.062-2.747v-2.271c0-1.961 0-2.33-.021-2.738-.027-.438-.133-.646-.56-.736-.104-.03-.327-.035-.504-.035-.146 0-.22-.031-.22-.119 0-.092.09-.125.269-.125.698 0 1.513.043 1.863.043.312 0 1.12-.043 1.622-.043.188 0 .275.032.275.125 0 .088-.084.119-.238.119-.104 0-.215.008-.375.035-.344.061-.453.285-.477.736-.027.408-.027.777-.027 2.738v.271c0 .062.035.084.08.084h4.938zm3.771.774c0-2.203 1.463-5.058 5.334-5.058 3.221 0 5.219 1.87 5.219 4.831 0 2.957-2.066 5.293-5.35 5.293-3.699 0-5.203-2.777-5.203-5.066zm8.748.251c0-2.89-1.672-4.69-3.791-4.69-1.48 0-3.18.827-3.18 4.046 0 2.682 1.494 4.812 3.971 4.812.904.002 3-.441 3-4.168zm3.604-1.38c0-1.961 0-2.33-.033-2.738-.018-.438-.113-.646-.551-.736-.102-.03-.318-.035-.502-.035-.139 0-.219-.031-.219-.119 0-.092.092-.125.285-.125.686 0 1.494.043 1.883.043.311 0 1.123-.043 1.584-.043.199 0 .287.032.287.125 0 .088-.07.119-.203.119-.145 0-.217.008-.379.035-.344.061-.445.285-.477.736-.027.408-.027.777-.027 2.738v1.801c0 1.88.373 2.66 1.014 3.178.576.48 1.174.533 1.611.533.562 0 1.266-.185 1.779-.699.715-.711.75-1.872.75-3.201v-1.611c0-1.961 0-2.33-.031-2.74-.021-.438-.127-.646-.553-.734a2.22 2.22 0 0 0-.463-.037c-.141 0-.219-.029-.219-.115 0-.094.088-.125.266-.125.664 0 1.477.039 1.492.039.15 0 .967-.039 1.473-.039.18 0 .268.029.268.125 0 .086-.08.115-.23.115-.146 0-.223.008-.375.037-.352.061-.451.285-.482.734-.021.41-.021.779-.021 2.74v1.379c0 1.434-.145 2.961-1.23 3.889-.912.787-1.84.928-2.68.928-.691 0-1.928-.04-2.873-.887-.65-.598-1.146-1.553-1.146-3.424v-1.883h.004v-.003zm13.736-3.025l-1.922.047c-.754.03-1.062.093-1.258.377a1.56 1.56 0 0 0-.217.453c-.025.1-.066.155-.143.155-.09 0-.113-.067-.113-.207 0-.207.236-1.387.268-1.483.037-.166.078-.249.156-.249.102 0 .229.133.553.162.379.031.867.057 1.289.057h5.115c.828 0 1.139-.129 1.244-.129.088 0 .098.079.098.268 0 .276-.033 1.168-.033 1.504-.016.133-.035.205-.115.205-.107 0-.129-.061-.146-.256l-.008-.14c-.027-.342-.379-.698-1.521-.728l-1.633-.037v5.294c0 1.188 0 2.208.064 2.767.041.36.117.639.508.693.182.021.459.049.652.049.143 0 .209.038.209.107 0 .084-.105.121-.246.121-.855 0-1.66-.037-2.029-.037-.295 0-1.104.037-1.623.037-.17 0-.258-.037-.258-.121 0-.069.047-.107.205-.107.195 0 .348-.029.467-.049.256-.055.334-.333.373-.712.066-.541.066-1.562.066-2.748V24.95h-.002zm12.945 3.025c0-1.973 0-2.33-.023-2.744-.029-.434-.129-.649-.555-.737a3.102 3.102 0 0 0-.502-.028c-.148 0-.223-.031-.223-.122 0-.089.098-.122.285-.122.684 0 1.498.043 1.754.043.637 0 1.135-.043 1.574-.043 2.344 0 2.752 1.258 2.752 1.942 0 1.06-.607 1.687-1.318 2.258 1.061.359 2.352 1.274 2.352 2.789 0 1.39-1.07 2.819-3.453 2.819-.305 0-1.482-.084-1.869-.084-.295 0-1.105.037-1.623.037-.17 0-.26-.037-.26-.121 0-.07.049-.107.203-.107.197 0 .352-.029.461-.048.266-.056.33-.332.385-.713.059-.541.059-1.562.059-2.749v-2.27h.001zm1.553.207c0 .108.037.142.092.148.111.025.311.04.605.04.43 0 .709-.048.924-.243.342-.277.533-.74.533-1.373 0-.863-.504-1.997-1.615-1.997-.18 0-.293 0-.422.029-.09.021-.119.078-.119.211v3.185h.002zm1.705 1.039c-.271-.193-.57-.279-1.072-.307-.23-.016-.359-.016-.559-.016-.047 0-.076.024-.076.093v3.055c0 .856.039 1.076.455 1.242.344.146.641.162.941.162.574 0 1.561-.315 1.561-1.66.002-.797-.271-1.88-1.25-2.569zm4.955-.117c0-2.203 1.457-5.058 5.338-5.058 3.215 0 5.217 1.87 5.217 4.831 0 2.954-2.068 5.293-5.35 5.293-3.709 0-5.205-2.781-5.205-5.066zm8.748.251c0-2.897-1.674-4.694-3.785-4.694-1.49 0-3.182.827-3.182 4.047 0 2.683 1.484 4.817 3.965 4.817.905 0 3.002-.443 3.002-4.17zm3.594-1.38c0-1.973 0-2.33-.023-2.744-.027-.434-.127-.649-.557-.737a3.068 3.068 0 0 0-.5-.028c-.148 0-.227-.031-.227-.122 0-.089.09-.122.289-.122.682 0 1.498.043 1.766.043.439 0 1.424-.043 1.826-.043.811 0 1.68.082 2.371.564.365.238.883.9.883 1.766 0 .954-.406 1.834-1.705 2.889 1.148 1.441 2.037 2.596 2.803 3.396.721.749 1.252.841 1.445.882.143.021.256.037.359.037.105 0 .154.038.154.107 0 .1-.09.121-.244.121h-1.225c-.727 0-1.047-.065-1.385-.248-.555-.283-1.047-.899-1.771-1.894-.514-.714-1.111-1.588-1.275-1.782-.062-.072-.143-.09-.234-.09l-1.121-.027c-.062 0-.104.027-.104.102v.186c0 1.205 0 2.223.062 2.764.041.381.119.656.502.713.197.02.48.048.635.048.105 0 .15.038.15.106 0 .086-.088.123-.256.123-.748 0-1.705-.037-1.893-.037-.25 0-1.064.037-1.58.037-.166 0-.262-.037-.262-.123 0-.068.053-.106.209-.106.195 0 .348-.028.465-.048.258-.057.326-.332.371-.713.066-.541.066-1.562.066-2.749l.006-2.271zm1.525 1.018c0 .141.021.188.113.228.271.096.658.135.982.135.514 0 .684-.053.918-.222.387-.288.76-.88.76-1.934 0-1.839-1.211-2.367-1.979-2.367-.322 0-.551.013-.686.054-.092.023-.111.076-.111.18l.003 3.926zm9.145-1.018c0-1.973 0-2.33-.027-2.744-.021-.434-.133-.649-.553-.737a3.106 3.106 0 0 0-.504-.028c-.143 0-.217-.031-.217-.122 0-.089.088-.122.285-.122.678 0 1.494.043 1.855.043.404 0 1.213-.043 1.994-.043 1.609 0 3.764 0 5.178 1.48.639.665 1.242 1.74 1.242 3.273 0 1.629-.682 2.868-1.4 3.605-.594.611-1.936 1.523-4.332 1.523-.939 0-2.1-.158-2.748-.158-.295 0-1.111.039-1.623.039-.166 0-.266-.039-.266-.123 0-.068.055-.106.207-.106.193 0 .357-.03.467-.049.264-.056.322-.333.381-.713.061-.54.061-1.562.061-2.747v-2.271zm1.619 1.414c0 1.373.014 2.364.021 2.617.012.318.037.83.146.973.16.25.672.52 1.691.52 1.312 0 2.189-.264 2.971-.924.82-.709 1.078-1.891 1.078-3.219 0-1.639-.68-2.697-1.234-3.224-1.189-1.143-2.666-1.298-3.672-1.298-.26 0-.734.042-.834.092-.117.053-.156.111-.156.254-.014.445-.014 1.563-.014 2.586v1.623h.003zm9.428-1.414c0-1.973 0-2.33-.029-2.744-.025-.434-.127-.649-.557-.737a3.092 3.092 0 0 0-.504-.028c-.137 0-.213-.031-.213-.122 0-.089.086-.122.281-.122.682 0 1.494.043 1.859.043.412 0 2.984 0 3.229-.011.24-.032.447-.047.555-.079a.701.701 0 0 1 .207-.048c.061 0 .076.048.076.11 0 .086-.066.244-.104.838-.014.136-.039.699-.064.85-.012.07-.037.146-.133.146-.088 0-.113-.066-.113-.178 0-.088-.016-.311-.076-.468-.088-.237-.221-.388-.865-.463-.223-.03-1.574-.052-1.836-.052-.066 0-.088.041-.088.127v3.271c0 .088.016.144.088.144.279 0 1.773 0 2.066-.027.311-.026.504-.065.623-.188.088-.106.143-.168.201-.168.055 0 .096.021.096.1 0 .081-.066.284-.105.938-.027.258-.051.777-.051.867 0 .109 0 .246-.121.246-.086 0-.115-.051-.115-.115-.012-.131-.012-.297-.051-.463-.062-.267-.242-.457-.721-.505-.248-.028-1.521-.038-1.838-.038-.061 0-.072.055-.072.127v1.023c0 .438-.018 1.626 0 1.998.02.895.232 1.087 1.549 1.087.334 0 .877 0 1.217-.157.332-.146.488-.422.576-.953.025-.143.049-.191.139-.191.107 0 .107.102.107.236 0 .285-.107 1.172-.166 1.428-.09.339-.209.339-.703.339-1.943 0-2.812-.083-3.576-.083-.295 0-1.107.037-1.625.037-.164 0-.26-.037-.26-.122 0-.07.057-.107.207-.107.199 0 .352-.028.467-.049.26-.055.324-.332.375-.712.066-.541.066-1.562.066-2.749v-2.274h.002zm7.01 0c0-1.973 0-2.33-.023-2.744-.029-.434-.129-.649-.559-.737a3.077 3.077 0 0 0-.504-.028c-.145 0-.223-.031-.223-.122 0-.089.096-.122.287-.122.688 0 1.502.043 1.768.043.443 0 1.422-.043 1.826-.043.811 0 1.678.082 2.369.564.367.238.883.9.883 1.766 0 .954-.402 1.834-1.705 2.889 1.15 1.441 2.037 2.596 2.801 3.396.732.749 1.252.841 1.449.882.139.021.26.037.357.037.104 0 .154.038.154.107 0 .1-.086.121-.246.121h-1.225c-.721 0-1.045-.065-1.383-.248-.553-.283-1.045-.899-1.77-1.894-.512-.714-1.105-1.588-1.273-1.782a.294.294 0 0 0-.232-.09l-1.127-.027c-.061 0-.1.027-.1.102v.186c0 1.205 0 2.223.059 2.764.041.381.119.656.504.713.199.02.484.048.635.048.104 0 .156.038.156.106 0 .086-.09.123-.26.123-.75 0-1.709-.037-1.898-.037-.242 0-1.055.037-1.576.037-.168 0-.26-.037-.26-.123 0-.068.055-.106.207-.106.195 0 .352-.028.461-.048.264-.057.326-.332.381-.713.062-.541.062-1.562.062-2.749v-2.267h.004v-.004zm1.527 1.018c0 .141.029.188.119.228.264.096.648.135.975.135.518 0 .68-.053.918-.222.387-.288.76-.88.76-1.934 0-1.839-1.213-2.367-1.975-2.367-.324 0-.555.013-.682.054-.086.023-.115.076-.115.18v3.926zm8.088 4.84c-.209-.095-.248-.156-.248-.44 0-.705.051-1.485.064-1.691.014-.188.055-.336.154-.336.115 0 .129.121.129.224 0 .166.057.44.115.656.285.96 1.049 1.306 1.852 1.306 1.164 0 1.727-.781 1.727-1.472 0-.634-.188-1.237-1.266-2.062l-.588-.472c-1.424-1.108-1.912-2.009-1.912-3.06 0-1.418 1.186-2.44 2.977-2.44.842 0 1.389.134 1.721.22.117.029.188.059.188.146 0 .171-.055.553-.055 1.558 0 .283-.039.387-.145.387-.09 0-.129-.073-.129-.224 0-.127-.062-.521-.338-.854-.197-.25-.564-.637-1.408-.637-.951 0-1.535.551-1.535 1.328 0 .604.295 1.051 1.371 1.864l.359.267c1.553 1.207 2.117 2.067 2.117 3.291 0 .748-.285 1.644-1.209 2.254-.65.404-1.377.526-2.057.526-.748-.002-1.332-.097-1.884-.339zm13.027-5.86c0-1.968 0-2.324-.023-2.736-.029-.436-.129-.65-.551-.741a3.437 3.437 0 0 0-.508-.028c-.145 0-.225-.027-.225-.124 0-.089.092-.112.285-.112.682 0 1.502.037 1.889.037.305 0 1.125-.037 1.59-.037.188 0 .277.023.277.112 0 .097-.076.124-.203.124-.145 0-.225.01-.371.028-.355.069-.457.292-.486.741-.021.412-.021.77-.021 2.736v1.807c0 1.876.377 2.666 1.008 3.18.576.477 1.174.521 1.613.521.568 0 1.264-.174 1.783-.688.711-.717.744-1.878.744-3.202v-1.618c0-1.97 0-2.324-.021-2.738-.027-.434-.127-.647-.553-.74a3.168 3.168 0 0 0-.467-.028c-.143 0-.225-.028-.225-.125 0-.087.1-.112.273-.112.652 0 1.477.039 1.486.039.152 0 .967-.039 1.467-.039.186 0 .27.025.27.112 0 .097-.07.125-.229.125-.139 0-.217.009-.369.028-.352.07-.459.292-.479.74-.029.414-.029.77-.029 2.738v1.385c0 1.433-.139 2.957-1.229 3.885-.914.791-1.844.928-2.686.928-.682 0-1.924-.037-2.865-.883-.658-.596-1.15-1.557-1.15-3.428v-1.887h.005zm10.51 5.86c-.209-.088-.242-.149-.242-.438 0-.703.045-1.487.062-1.688.008-.196.047-.338.156-.338.117 0 .129.111.129.218 0 .177.047.44.117.662.281.958 1.047 1.308 1.848 1.308 1.156 0 1.732-.789 1.732-1.479 0-.63-.201-1.234-1.27-2.059l-.602-.475c-1.42-1.105-1.902-2.018-1.902-3.059 0-1.416 1.186-2.438 2.979-2.438.842 0 1.383.125 1.717.219.113.025.184.063.184.148 0 .167-.057.549-.057 1.555 0 .281-.031.383-.139.383-.088 0-.137-.078-.137-.229 0-.121-.061-.512-.328-.854-.197-.244-.57-.631-1.41-.631-.953 0-1.539.553-1.539 1.328 0 .598.305 1.049 1.373 1.861l.367.268c1.539 1.201 2.113 2.068 2.113 3.293 0 .748-.279 1.642-1.217 2.252-.641.412-1.363.523-2.049.523-.748.007-1.33-.079-1.885-.33zm10.035-3.214c-.062 0-.09.025-.111.104l-.703 1.85c-.129.316-.195.633-.195.793 0 .225.119.391.521.391h.191c.154 0 .189.027.189.107 0 .1-.076.127-.219.127-.408 0-.965-.035-1.369-.035-.135 0-.852.035-1.518.035-.172 0-.25-.027-.25-.127 0-.083.053-.107.154-.107.113 0 .303-.012.396-.021.592-.08.844-.516 1.1-1.161l3.238-8.105c.158-.384.238-.524.367-.524.117 0 .195.119.324.418.307.712 2.373 5.974 3.199 7.937.494 1.168.859 1.351 1.137 1.415.197.033.387.045.543.045.102 0 .17.016.17.107 0 .1-.123.127-.602.127-.461 0-1.408 0-2.438-.027-.234-.008-.389-.008-.389-.1 0-.083.061-.107.186-.119.088-.021.178-.139.117-.289l-1.033-2.746c-.029-.062-.068-.089-.131-.089h-2.877v-.006zm2.633-.644c.062 0 .078-.033.062-.082l-1.164-3.186c-.01-.048-.021-.119-.068-.119-.035 0-.057.071-.074.119l-1.188 3.174c-.01.059 0 .094.055.094h2.377z"/><path fill="#BAD0EC" d="M7.943 19.1a7.398 7.398 0 0 0-.265-.168c-.907-.57-3.318-2.082-4.587-3.654l.556-.448c1.193 1.479 3.615 2.999 4.41 3.497.14.087.239.148.29.185l-.404.588zm15.855 4.614c-1.83 0-4.907-.247-8.775-1.481l.229-.715c6.082 1.946 10.249 1.358 10.292 1.354l.11.737c-.067.01-.721.105-1.856.105zm7.166-11.521a12.83 12.83 0 0 1-.44-.968c-.603-1.423-1.285-3.036-5.244-5.616l.343-.526c4.12 2.684 4.842 4.391 5.479 5.897.135.32.264.622.42.925l-.558.288z"/><path d="M37.07 14.412c-.716.324-1.434.501-1.662.566"/><path fill="#BAD0EC" d="M35.496 15.28l-.173-.604.115-.031c.293-.08.902-.246 1.502-.519l.26.569c-.646.295-1.288.47-1.597.555l-.107.03zm-23.071-3.439a.362.362 0 0 1-.125-.022c-.503-.188-3.185-1.542-6.193-4.269a.357.357 0 1 1 .479-.529c2.924 2.653 5.487 3.95 5.965 4.129a.357.357 0 1 1-.126.691zm14.798 3.111c-2.045 0-5.594-.409-6.649-.734l.212-.684c1.317.409 6.476.897 7.494.632l.181.689c-.257.069-.695.097-1.238.097zm-9.685-5.375l-.625-.347c.119-.213 2.948-5.25 7.604-7.522l.312.642c-4.455 2.174-7.266 7.177-7.291 7.227zm-2.835 9.862l-.708-.088c.047-.375.752-4.494 1.648-6.584l.657.28c-.859 1.997-1.558 6.074-1.597 6.392z"/></svg>