<svg xmlns:xlink="http://www.w3.org/1999/xlink" id="Layer_1" xmlns="http://www.w3.org/2000/svg" viewBox="0 0 608.5 748.3"><style>.st0{fill:#fff}.st1{opacity:.1}.st2{clip-path:url(#SVGID_2_)}.st3{fill:none;stroke:#939598;stroke-miterlimit:10}.st4{fill:url(#SVGID_3_)}</style><path class="st0" d="M.8 0h607.4v748H.8z"/><g class="st1"><defs><circle id="SVGID_1_" cx="238.6" cy="509.6" r="238.6"/></defs><clipPath id="SVGID_2_"><use xlink:href="#SVGID_1_" overflow="visible"/></clipPath><g class="st2"><path class="st3" d="M-16.3 286.5h16v11h-16zm16 0h16v11h-16zm16.1 0h16v11h-16z"/><path class="st3" d="M31.8 286.5h15v11h-15zm15 0h17v11h-17zm17 0h16v11h-16zm16 0h16v11h-16zm16 0h15v11h-15zm15 0h16v11h-16zm16 0h16v11h-16zm16 0h16v11h-16zm16 0h16v11h-16zm16 0h16v11h-16zm16 0h17v11h-17zm17 0h16v11h-16zm16 0h15v11h-15zm15 0h16v11h-16zm16 0h16v11h-16zm16 0h16v11h-16zm16 0h16v11h-16zm16 0h17v11h-17zm17 0h15v11h-15zm15 0h15v11h-15zm15 0h17v11h-17zm17 0h16v11h-16zm16 0h16v11h-16zm16 0h15v11h-15zm15 0h17v11h-17zm17 0h15v11h-15zm15 0h16v11h-16zm16 0h17v11h-17zm17 0h15v11h-15zm15 0h16v11h-16z"/><path class="st3" d="M509.8 286.5h16v11h-16zm16 0h16v11h-16zm16 0h16v11h-16zm-558.1 11h16v12h-16zm16 0h16v12h-16zm16.1 0h16v12h-16zm16 0h15v12h-15zm15 0h17v12h-17zm17 0h16v12h-16zm16 0h16v12h-16zm16 0h15v12h-15zm15 0h16v12h-16zm16 0h16v12h-16zm16 0h16v12h-16zm16 0h16v12h-16zm16 0h16v12h-16zm16 0h17v12h-17zm17 0h16v12h-16zm16 0h15v12h-15zm15 0h16v12h-16zm16 0h16v12h-16zm16 0h16v12h-16zm16 0h16v12h-16zm16 0h17v12h-17zm17 0h15v12h-15zm15 0h15v12h-15zm15 0h17v12h-17zm17 0h16v12h-16zm16 0h16v12h-16zm16 0h15v12h-15zm15 0h17v12h-17zm17 0h15v12h-15zm15 0h16v12h-16zm16 0h17v12h-17zm17 0h15v12h-15zm15 0h16v12h-16zm16 0h16v12h-16zm16 0h16v12h-16zm16 0h16v12h-16zm-558.1 12h16v11h-16zm16 0h16v11h-16zm16.1 0h16v11h-16zm16 0h15v11h-15zm15 0h17v11h-17zm17 0h16v11h-16zm16 0h16v11h-16zm16 0h15v11h-15zm15 0h16v11h-16zm16 0h16v11h-16zm16 0h16v11h-16zm16 0h16v11h-16zm16 0h16v11h-16zm16 0h17v11h-17zm17 0h16v11h-16zm16 0h15v11h-15zm15 0h16v11h-16zm16 0h16v11h-16zm16 0h16v11h-16zm16 0h16v11h-16zm16 0h17v11h-17zm17 0h15v11h-15zm15 0h15v11h-15zm15 0h17v11h-17zm17 0h16v11h-16zm16 0h16v11h-16zm16 0h15v11h-15zm15 0h17v11h-17zm17 0h15v11h-15zm15 0h16v11h-16zm16 0h17v11h-17zm17 0h15v11h-15zm15 0h16v11h-16zm16 0h16v11h-16zm16 0h16v11h-16zm16 0h16v11h-16zm-558.1 11h16v12h-16zm16 0h16v12h-16zm16.1 0h16v12h-16zm16 0h15v12h-15zm15 0h17v12h-17zm17 0h16v12h-16zm16 0h16v12h-16zm16 0h15v12h-15zm15 0h16v12h-16zm16 0h16v12h-16zm16 0h16v12h-16zm16 0h16v12h-16zm16 0h16v12h-16zm16 0h17v12h-17zm17 0h16v12h-16zm16 0h15v12h-15zm15 0h16v12h-16zm16 0h16v12h-16zm16 0h16v12h-16zm16 0h16v12h-16zm16 0h17v12h-17zm17 0h15v12h-15zm15 0h15v12h-15zm15 0h17v12h-17zm17 0h16v12h-16zm16 0h16v12h-16zm16 0h15v12h-15zm15 0h17v12h-17zm17 0h15v12h-15zm15 0h16v12h-16zm16 0h17v12h-17zm17 0h15v12h-15zm15 0h16v12h-16zm16 0h16v12h-16zm16 0h16v12h-16zm16 0h16v12h-16zm-558.1 12h16v11h-16zm16 0h16v11h-16zm16.1 0h16v11h-16zm16 0h15v11h-15zm15 0h17v11h-17zm17 0h16v11h-16zm16 0h16v11h-16zm16 0h15v11h-15zm15 0h16v11h-16zm16 0h16v11h-16zm16 0h16v11h-16zm16 0h16v11h-16zm16 0h16v11h-16zm16 0h17v11h-17zm17 0h16v11h-16zm16 0h15v11h-15zm15 0h16v11h-16zm16 0h16v11h-16zm16 0h16v11h-16zm16 0h16v11h-16zm16 0h17v11h-17zm17 0h15v11h-15zm15 0h15v11h-15zm15 0h17v11h-17zm17 0h16v11h-16zm16 0h16v11h-16zm16 0h15v11h-15zm15 0h17v11h-17zm17 0h15v11h-15zm15 0h16v11h-16zm16 0h17v11h-17zm17 0h15v11h-15zm15 0h16v11h-16zm16 0h16v11h-16zm16 0h16v11h-16zm16 0h16v11h-16zm-558.1 11h16v12h-16zm16 0h16v12h-16zm16.1 0h16v12h-16zm16 0h15v12h-15zm15 0h17v12h-17zm17 0h16v12h-16zm16 0h16v12h-16zm16 0h15v12h-15zm15 0h16v12h-16zm16 0h16v12h-16zm16 0h16v12h-16zm16 0h16v12h-16zm16 0h16v12h-16zm16 0h17v12h-17zm17 0h16v12h-16zm16 0h15v12h-15zm15 0h16v12h-16zm16 0h16v12h-16zm16 0h16v12h-16zm16 0h16v12h-16zm16 0h17v12h-17zm17 0h15v12h-15zm15 0h15v12h-15zm15 0h17v12h-17zm17 0h16v12h-16zm16 0h16v12h-16zm16 0h15v12h-15zm15 0h17v12h-17zm17 0h15v12h-15zm15 0h16v12h-16zm16 0h17v12h-17zm17 0h15v12h-15zm15 0h16v12h-16zm16 0h16v12h-16zm16 0h16v12h-16zm16 0h16v12h-16zm-558.1 12h16v12h-16zm16 0h16v12h-16zm16.1 0h16v12h-16zm16 0h15v12h-15zm15 0h17v12h-17zm17 0h16v12h-16zm16 0h16v12h-16zm16 0h15v12h-15zm15 0h16v12h-16zm16 0h16v12h-16zm16 0h16v12h-16zm16 0h16v12h-16zm16 0h16v12h-16zm16 0h17v12h-17zm17 0h16v12h-16zm16 0h15v12h-15zm15 0h16v12h-16zm16 0h16v12h-16zm16 0h16v12h-16zm16 0h16v12h-16zm16 0h17v12h-17zm17 0h15v12h-15zm15 0h15v12h-15zm15 0h17v12h-17zm17 0h16v12h-16zm16 0h16v12h-16zm16 0h15v12h-15zm15 0h17v12h-17zm17 0h15v12h-15zm15 0h16v12h-16zm16 0h17v12h-17zm17 0h15v12h-15zm15 0h16v12h-16zm16 0h16v12h-16zm16 0h16v12h-16zm16 0h16v12h-16zm-558.1 12h16v13h-16zm16 0h16v13h-16zm16.1 0h16v13h-16zm16 0h15v13h-15zm15 0h17v13h-17zm17 0h16v13h-16zm16 0h16v13h-16zm16 0h15v13h-15zm15 0h16v13h-16zm16 0h16v13h-16zm16 0h16v13h-16zm16 0h16v13h-16zm16 0h16v13h-16zm16 0h17v13h-17zm17 0h16v13h-16zm16 0h15v13h-15zm15 0h16v13h-16zm16 0h16v13h-16zm16 0h16v13h-16zm16 0h16v13h-16zm16 0h17v13h-17zm17 0h15v13h-15zm15 0h15v13h-15zm15 0h17v13h-17zm17 0h16v13h-16zm16 0h16v13h-16zm16 0h15v13h-15zm15 0h17v13h-17zm17 0h15v13h-15zm15 0h16v13h-16zm16 0h17v13h-17zm17 0h15v13h-15zm15 0h16v13h-16zm16 0h16v13h-16zm16 0h16v13h-16zm16 0h16v13h-16zm-558.1 13h16v10h-16zm16 0h16v10h-16zm16.1 0h16v10h-16zm16 0h15v10h-15zm15 0h17v10h-17zm17 0h16v10h-16zm16 0h16v10h-16zm16 0h15v10h-15zm15 0h16v10h-16zm16 0h16v10h-16zm16 0h16v10h-16zm16 0h16v10h-16zm16 0h16v10h-16zm16 0h17v10h-17zm17 0h16v10h-16zm16 0h15v10h-15zm15 0h16v10h-16zm16 0h16v10h-16zm16 0h16v10h-16zm16 0h16v10h-16zm16 0h17v10h-17zm17 0h15v10h-15zm15 0h15v10h-15zm15 0h17v10h-17zm17 0h16v10h-16zm16 0h16v10h-16zm16 0h15v10h-15zm15 0h17v10h-17zm17 0h15v10h-15zm15 0h16v10h-16zm16 0h17v10h-17zm17 0h15v10h-15zm15 0h16v10h-16zm16 0h16v10h-16zm16 0h16v10h-16zm16 0h16v10h-16zm-558.1 10h16v12h-16zm16 0h16v12h-16zm16.1 0h16v12h-16zm16 0h15v12h-15zm15 0h17v12h-17zm17 0h16v12h-16zm16 0h16v12h-16zm16 0h15v12h-15zm15 0h16v12h-16zm16 0h16v12h-16zm16 0h16v12h-16zm16 0h16v12h-16zm16 0h16v12h-16zm16 0h17v12h-17zm17 0h16v12h-16zm16 0h15v12h-15zm15 0h16v12h-16zm16 0h16v12h-16zm16 0h16v12h-16zm16 0h16v12h-16zm16 0h17v12h-17zm17 0h15v12h-15zm15 0h15v12h-15zm15 0h17v12h-17zm17 0h16v12h-16zm16 0h16v12h-16zm16 0h15v12h-15zm15 0h17v12h-17zm17 0h15v12h-15zm15 0h16v12h-16zm16 0h17v12h-17zm17 0h15v12h-15zm15 0h16v12h-16zm16 0h16v12h-16zm16 0h16v12h-16zm16 0h16v12h-16zm-558.1 12h16v11h-16zm16 0h16v11h-16zm16.1 0h16v11h-16zm16 0h15v11h-15zm15 0h17v11h-17zm17 0h16v11h-16zm16 0h16v11h-16zm16 0h15v11h-15zm15 0h16v11h-16zm16 0h16v11h-16zm16 0h16v11h-16zm16 0h16v11h-16zm16 0h16v11h-16zm16 0h17v11h-17zm17 0h16v11h-16zm16 0h15v11h-15zm15 0h16v11h-16zm16 0h16v11h-16zm16 0h16v11h-16zm16 0h16v11h-16zm16 0h17v11h-17zm17 0h15v11h-15zm15 0h15v11h-15zm15 0h17v11h-17zm17 0h16v11h-16zm16 0h16v11h-16zm16 0h15v11h-15zm15 0h17v11h-17zm17 0h15v11h-15zm15 0h16v11h-16zm16 0h17v11h-17zm17 0h15v11h-15zm15 0h16v11h-16zm16 0h16v11h-16zm16 0h16v11h-16zm16 0h16v11h-16zm-558.1 11h16v13h-16zm16 0h16v13h-16zm16.1 0h16v13h-16zm16 0h15v13h-15zm15 0h17v13h-17zm17 0h16v13h-16zm16 0h16v13h-16zm16 0h15v13h-15zm15 0h16v13h-16zm16 0h16v13h-16zm16 0h16v13h-16zm16 0h16v13h-16zm16 0h16v13h-16zm16 0h17v13h-17zm17 0h16v13h-16zm16 0h15v13h-15zm15 0h16v13h-16zm16 0h16v13h-16zm16 0h16v13h-16zm16 0h16v13h-16zm16 0h17v13h-17zm17 0h15v13h-15zm15 0h15v13h-15zm15 0h17v13h-17zm17 0h16v13h-16zm16 0h16v13h-16zm16 0h15v13h-15zm15 0h17v13h-17zm17 0h15v13h-15zm15 0h16v13h-16zm16 0h17v13h-17zm17 0h15v13h-15zm15 0h16v13h-16zm16 0h16v13h-16zm16 0h16v13h-16zm16 0h16v13h-16zm-558.1 13h16v12h-16zm16 0h16v12h-16zm16.1 0h16v12h-16zm16 0h15v12h-15zm15 0h17v12h-17zm17 0h16v12h-16zm16 0h16v12h-16zm16 0h15v12h-15zm15 0h16v12h-16zm16 0h16v12h-16zm16 0h16v12h-16zm16 0h16v12h-16zm16 0h16v12h-16zm16 0h17v12h-17zm17 0h16v12h-16zm16 0h15v12h-15zm15 0h16v12h-16zm16 0h16v12h-16zm16 0h16v12h-16zm16 0h16v12h-16zm16 0h17v12h-17zm17 0h15v12h-15zm15 0h15v12h-15zm15 0h17v12h-17zm17 0h16v12h-16zm16 0h16v12h-16zm16 0h15v12h-15zm15 0h17v12h-17zm17 0h15v12h-15zm15 0h16v12h-16zm16 0h17v12h-17zm17 0h15v12h-15zm15 0h16v12h-16zm16 0h16v12h-16zm16 0h16v12h-16zm16 0h16v12h-16zm-558.1 12h16v10h-16zm16 0h16v10h-16zm16.1 0h16v10h-16zm16 0h15v10h-15zm15 0h17v10h-17zm17 0h16v10h-16zm16 0h16v10h-16zm16 0h15v10h-15zm15 0h16v10h-16zm16 0h16v10h-16zm16 0h16v10h-16zm16 0h16v10h-16zm16 0h16v10h-16zm16 0h17v10h-17zm17 0h16v10h-16zm16 0h15v10h-15zm15 0h16v10h-16zm16 0h16v10h-16zm16 0h16v10h-16zm16 0h16v10h-16zm16 0h17v10h-17zm17 0h15v10h-15zm15 0h15v10h-15zm15 0h17v10h-17zm17 0h16v10h-16zm16 0h16v10h-16zm16 0h15v10h-15zm15 0h17v10h-17zm17 0h15v10h-15zm15 0h16v10h-16zm16 0h17v10h-17zm17 0h15v10h-15zm15 0h16v10h-16zm16 0h16v10h-16zm16 0h16v10h-16zm16 0h16v10h-16zm-558.1 10h16v12h-16zm16 0h16v12h-16zm16.1 0h16v12h-16zm16 0h15v12h-15zm15 0h17v12h-17zm17 0h16v12h-16zm16 0h16v12h-16zm16 0h15v12h-15zm15 0h16v12h-16zm16 0h16v12h-16zm16 0h16v12h-16zm16 0h16v12h-16zm16 0h16v12h-16zm16 0h17v12h-17zm17 0h16v12h-16zm16 0h15v12h-15zm15 0h16v12h-16zm16 0h16v12h-16zm16 0h16v12h-16zm16 0h16v12h-16zm16 0h17v12h-17zm17 0h15v12h-15zm15 0h15v12h-15zm15 0h17v12h-17zm17 0h16v12h-16zm16 0h16v12h-16zm16 0h15v12h-15zm15 0h17v12h-17zm17 0h15v12h-15zm15 0h16v12h-16zm16 0h17v12h-17zm17 0h15v12h-15zm15 0h16v12h-16zm16 0h16v12h-16zm16 0h16v12h-16zm16 0h16v12h-16zm-558.1 12h16v12h-16zm16 0h16v12h-16zm16.1 0h16v12h-16zm16 0h15v12h-15zm15 0h17v12h-17zm17 0h16v12h-16zm16 0h16v12h-16zm16 0h15v12h-15zm15 0h16v12h-16zm16 0h16v12h-16zm16 0h16v12h-16zm16 0h16v12h-16zm16 0h16v12h-16zm16 0h17v12h-17zm17 0h16v12h-16zm16 0h15v12h-15zm15 0h16v12h-16zm16 0h16v12h-16zm16 0h16v12h-16zm16 0h16v12h-16zm16 0h17v12h-17zm17 0h15v12h-15zm15 0h15v12h-15zm15 0h17v12h-17zm17 0h16v12h-16zm16 0h16v12h-16zm16 0h15v12h-15zm15 0h17v12h-17zm17 0h15v12h-15zm15 0h16v12h-16zm16 0h17v12h-17zm17 0h15v12h-15zm15 0h16v12h-16zm16 0h16v12h-16zm16 0h16v12h-16zm16 0h16v12h-16zm-558.1 12h16v12h-16zm16 0h16v12h-16zm16.1 0h16v12h-16zm16 0h15v12h-15zm15 0h17v12h-17zm17 0h16v12h-16zm16 0h16v12h-16zm16 0h15v12h-15zm15 0h16v12h-16zm16 0h16v12h-16zm16 0h16v12h-16zm16 0h16v12h-16zm16 0h16v12h-16zm16 0h17v12h-17zm17 0h16v12h-16zm16 0h15v12h-15zm15 0h16v12h-16zm16 0h16v12h-16zm16 0h16v12h-16zm16 0h16v12h-16zm16 0h17v12h-17zm17 0h15v12h-15zm15 0h15v12h-15zm15 0h17v12h-17zm17 0h16v12h-16zm16 0h16v12h-16zm16 0h15v12h-15zm15 0h17v12h-17zm17 0h15v12h-15zm15 0h16v12h-16zm16 0h17v12h-17zm17 0h15v12h-15zm15 0h16v12h-16zm16 0h16v12h-16zm16 0h16v12h-16zm16 0h16v12h-16zm-558.1 12h16v12h-16zm16 0h16v12h-16zm16.1 0h16v12h-16zm16 0h15v12h-15zm15 0h17v12h-17zm17 0h16v12h-16zm16 0h16v12h-16zm16 0h15v12h-15zm15 0h16v12h-16zm16 0h16v12h-16zm16 0h16v12h-16zm16 0h16v12h-16zm16 0h16v12h-16zm16 0h17v12h-17zm17 0h16v12h-16zm16 0h15v12h-15zm15 0h16v12h-16zm16 0h16v12h-16zm16 0h16v12h-16zm16 0h16v12h-16zm16 0h17v12h-17zm17 0h15v12h-15zm15 0h15v12h-15zm15 0h17v12h-17zm17 0h16v12h-16zm16 0h16v12h-16zm16 0h15v12h-15zm15 0h17v12h-17zm17 0h15v12h-15zm15 0h16v12h-16zm16 0h17v12h-17zm17 0h15v12h-15zm15 0h16v12h-16zm16 0h16v12h-16zm16 0h16v12h-16zm16 0h16v12h-16zm-558.1 12h16v11h-16zm16 0h16v11h-16zm16.1 0h16v11h-16zm16 0h15v11h-15zm15 0h17v11h-17zm17 0h16v11h-16zm16 0h16v11h-16zm16 0h15v11h-15zm15 0h16v11h-16zm16 0h16v11h-16zm16 0h16v11h-16zm16 0h16v11h-16zm16 0h16v11h-16zm16 0h17v11h-17zm17 0h16v11h-16zm16 0h15v11h-15zm15 0h16v11h-16zm16 0h16v11h-16zm16 0h16v11h-16zm16 0h16v11h-16zm16 0h17v11h-17zm17 0h15v11h-15zm15 0h15v11h-15zm15 0h17v11h-17zm17 0h16v11h-16zm16 0h16v11h-16zm16 0h15v11h-15zm15 0h17v11h-17zm17 0h15v11h-15zm15 0h16v11h-16zm16 0h17v11h-17zm17 0h15v11h-15zm15 0h16v11h-16zm16 0h16v11h-16zm16 0h16v11h-16zm16 0h16v11h-16zm-558.1 11h16v11h-16zm16 0h16v11h-16zm16.1 0h16v11h-16zm16 0h15v11h-15zm15 0h17v11h-17zm17 0h16v11h-16zm16 0h16v11h-16zm16 0h15v11h-15zm15 0h16v11h-16zm16 0h16v11h-16zm16 0h16v11h-16zm16 0h16v11h-16zm16 0h16v11h-16zm16 0h17v11h-17zm17 0h16v11h-16zm16 0h15v11h-15zm15 0h16v11h-16zm16 0h16v11h-16zm16 0h16v11h-16zm16 0h16v11h-16zm16 0h17v11h-17zm17 0h15v11h-15zm15 0h15v11h-15zm15 0h17v11h-17zm17 0h16v11h-16zm16 0h16v11h-16zm16 0h15v11h-15zm15 0h17v11h-17zm17 0h15v11h-15zm15 0h16v11h-16zm16 0h17v11h-17zm17 0h15v11h-15zm15 0h16v11h-16zm16 0h16v11h-16zm16 0h16v11h-16zm16 0h16v11h-16zm-558.1 11h16v13h-16zm16 0h16v13h-16zm16.1 0h16v13h-16zm16 0h15v13h-15zm15 0h17v13h-17zm17 0h16v13h-16zm16 0h16v13h-16zm16 0h15v13h-15zm15 0h16v13h-16zm16 0h16v13h-16zm16 0h16v13h-16zm16 0h16v13h-16zm16 0h16v13h-16zm16 0h17v13h-17zm17 0h16v13h-16zm16 0h15v13h-15zm15 0h16v13h-16zm16 0h16v13h-16zm16 0h16v13h-16zm16 0h16v13h-16zm16 0h17v13h-17zm17 0h15v13h-15zm15 0h15v13h-15zm15 0h17v13h-17zm17 0h16v13h-16zm16 0h16v13h-16zm16 0h15v13h-15zm15 0h17v13h-17zm17 0h15v13h-15zm15 0h16v13h-16zm16 0h17v13h-17zm17 0h15v13h-15zm15 0h16v13h-16zm16 0h16v13h-16zm16 0h16v13h-16zm16 0h16v13h-16zm-558.1 13h16v11h-16zm16 0h16v11h-16zm16.1 0h16v11h-16zm16 0h15v11h-15zm15 0h17v11h-17zm17 0h16v11h-16zm16 0h16v11h-16zm16 0h15v11h-15zm15 0h16v11h-16zm16 0h16v11h-16zm16 0h16v11h-16zm16 0h16v11h-16zm16 0h16v11h-16zm16 0h17v11h-17zm17 0h16v11h-16zm16 0h15v11h-15zm15 0h16v11h-16zm16 0h16v11h-16zm16 0h16v11h-16zm16 0h16v11h-16zm16 0h17v11h-17zm17 0h15v11h-15zm15 0h15v11h-15zm15 0h17v11h-17zm17 0h16v11h-16zm16 0h16v11h-16zm16 0h15v11h-15zm15 0h17v11h-17zm17 0h15v11h-15zm15 0h16v11h-16zm16 0h17v11h-17zm17 0h15v11h-15zm15 0h16v11h-16zm16 0h16v11h-16zm16 0h16v11h-16zm16 0h16v11h-16zm-558.1 11h16v12h-16zm16 0h16v12h-16zm16.1 0h16v12h-16zm16 0h15v12h-15zm15 0h17v12h-17zm17 0h16v12h-16zm16 0h16v12h-16zm16 0h15v12h-15zm15 0h16v12h-16zm16 0h16v12h-16zm16 0h16v12h-16zm16 0h16v12h-16zm16 0h16v12h-16zm16 0h17v12h-17zm17 0h16v12h-16zm16 0h15v12h-15zm15 0h16v12h-16zm16 0h16v12h-16zm16 0h16v12h-16zm16 0h16v12h-16zm16 0h17v12h-17zm17 0h15v12h-15zm15 0h15v12h-15zm15 0h17v12h-17zm17 0h16v12h-16zm16 0h16v12h-16zm16 0h15v12h-15zm15 0h17v12h-17zm17 0h15v12h-15zm15 0h16v12h-16zm16 0h17v12h-17zm17 0h15v12h-15zm15 0h16v12h-16zm16 0h16v12h-16zm16 0h16v12h-16zm16 0h16v12h-16zm-558.1 12h16v11h-16zm16 0h16v11h-16zm16.1 0h16v11h-16zm16 0h15v11h-15zm15 0h17v11h-17zm17 0h16v11h-16zm16 0h16v11h-16zm16 0h15v11h-15zm15 0h16v11h-16zm16 0h16v11h-16zm16 0h16v11h-16zm16 0h16v11h-16zm16 0h16v11h-16zm16 0h17v11h-17zm17 0h16v11h-16zm16 0h15v11h-15zm15 0h16v11h-16zm16 0h16v11h-16zm16 0h16v11h-16zm16 0h16v11h-16zm16 0h17v11h-17zm17 0h15v11h-15zm15 0h15v11h-15zm15 0h17v11h-17zm17 0h16v11h-16zm16 0h16v11h-16zm16 0h15v11h-15zm15 0h17v11h-17zm17 0h15v11h-15zm15 0h16v11h-16zm16 0h17v11h-17zm17 0h15v11h-15zm15 0h16v11h-16zm16 0h16v11h-16zm16 0h16v11h-16zm16 0h16v11h-16zm-558.1 11h16v11h-16zm16 0h16v11h-16zm16.1 0h16v11h-16zm16 0h15v11h-15zm15 0h17v11h-17zm17 0h16v11h-16zm16 0h16v11h-16zm16 0h15v11h-15zm15 0h16v11h-16zm16 0h16v11h-16zm16 0h16v11h-16zm16 0h16v11h-16zm16 0h16v11h-16zm16 0h17v11h-17zm17 0h16v11h-16zm16 0h15v11h-15zm15 0h16v11h-16zm16 0h16v11h-16zm16 0h16v11h-16zm16 0h16v11h-16zm16 0h17v11h-17zm17 0h15v11h-15zm15 0h15v11h-15zm15 0h17v11h-17zm17 0h16v11h-16zm16 0h16v11h-16zm16 0h15v11h-15zm15 0h17v11h-17zm17 0h15v11h-15zm15 0h16v11h-16zm16 0h17v11h-17zm17 0h15v11h-15zm15 0h16v11h-16zm16 0h16v11h-16zm16 0h16v11h-16zm16 0h16v11h-16zm-558.1 11h16v13h-16zm16 0h16v13h-16zm16.1 0h16v13h-16zm16 0h15v13h-15zm15 0h17v13h-17zm17 0h16v13h-16zm16 0h16v13h-16zm16 0h15v13h-15zm15 0h16v13h-16zm16 0h16v13h-16zm16 0h16v13h-16zm16 0h16v13h-16zm16 0h16v13h-16zm16 0h17v13h-17zm17 0h16v13h-16zm16 0h15v13h-15zm15 0h16v13h-16zm16 0h16v13h-16zm16 0h16v13h-16zm16 0h16v13h-16zm16 0h17v13h-17zm17 0h15v13h-15zm15 0h15v13h-15zm15 0h17v13h-17zm17 0h16v13h-16zm16 0h16v13h-16zm16 0h15v13h-15zm15 0h17v13h-17zm17 0h15v13h-15zm15 0h16v13h-16zm16 0h17v13h-17zm17 0h15v13h-15zm15 0h16v13h-16zm16 0h16v13h-16zm16 0h16v13h-16zm16 0h16v13h-16zm-558.1 13h16v12h-16zm16 0h16v12h-16zm16.1 0h16v12h-16zm16 0h15v12h-15zm15 0h17v12h-17zm17 0h16v12h-16zm16 0h16v12h-16zm16 0h15v12h-15zm15 0h16v12h-16zm16 0h16v12h-16zm16 0h16v12h-16zm16 0h16v12h-16zm16 0h16v12h-16zm16 0h17v12h-17zm17 0h16v12h-16zm16 0h15v12h-15zm15 0h16v12h-16zm16 0h16v12h-16zm16 0h16v12h-16zm16 0h16v12h-16zm16 0h17v12h-17zm17 0h15v12h-15zm15 0h15v12h-15zm15 0h17v12h-17zm17 0h16v12h-16zm16 0h16v12h-16zm16 0h15v12h-15zm15 0h17v12h-17zm17 0h15v12h-15zm15 0h16v12h-16zm16 0h17v12h-17zm17 0h15v12h-15zm15 0h16v12h-16zm16 0h16v12h-16zm16 0h16v12h-16zm16 0h16v12h-16zm-558.1 12h16v11h-16zm16 0h16v11h-16zm16.1 0h16v11h-16zm16 0h15v11h-15zm15 0h17v11h-17zm17 0h16v11h-16zm16 0h16v11h-16zm16 0h15v11h-15zm15 0h16v11h-16zm16 0h16v11h-16zm16 0h16v11h-16zm16 0h16v11h-16zm16 0h16v11h-16zm16 0h17v11h-17zm17 0h16v11h-16zm16 0h15v11h-15zm15 0h16v11h-16zm16 0h16v11h-16zm16 0h16v11h-16zm16 0h16v11h-16zm16 0h17v11h-17zm17 0h15v11h-15zm15 0h15v11h-15zm15 0h17v11h-17zm17 0h16v11h-16zm16 0h16v11h-16zm16 0h15v11h-15zm15 0h17v11h-17zm17 0h15v11h-15zm15 0h16v11h-16zm16 0h17v11h-17zm17 0h15v11h-15zm15 0h16v11h-16zm16 0h16v11h-16zm16 0h16v11h-16zm16 0h16v11h-16zm-558.1 11h16v12h-16zm16 0h16v12h-16zm16.1 0h16v12h-16zm16 0h15v12h-15zm15 0h17v12h-17zm17 0h16v12h-16zm16 0h16v12h-16zm16 0h15v12h-15zm15 0h16v12h-16zm16 0h16v12h-16zm16 0h16v12h-16zm16 0h16v12h-16zm16 0h16v12h-16zm16 0h17v12h-17zm17 0h16v12h-16zm16 0h15v12h-15zm15 0h16v12h-16zm16 0h16v12h-16zm16 0h16v12h-16zm16 0h16v12h-16zm16 0h17v12h-17zm17 0h15v12h-15zm15 0h15v12h-15zm15 0h17v12h-17zm17 0h16v12h-16zm16 0h16v12h-16zm16 0h15v12h-15zm15 0h17v12h-17zm17 0h15v12h-15zm15 0h16v12h-16zm16 0h17v12h-17zm17 0h15v12h-15zm15 0h16v12h-16zm16 0h16v12h-16zm16 0h16v12h-16zm16 0h16v12h-16zm-558.1 12h16v11h-16zm16 0h16v11h-16zm16.1 0h16v11h-16zm16 0h15v11h-15zm15 0h17v11h-17zm17 0h16v11h-16zm16 0h16v11h-16zm16 0h15v11h-15zm15 0h16v11h-16zm16 0h16v11h-16zm16 0h16v11h-16zm16 0h16v11h-16zm16 0h16v11h-16zm16 0h17v11h-17zm17 0h16v11h-16zm16 0h15v11h-15zm15 0h16v11h-16zm16 0h16v11h-16zm16 0h16v11h-16zm16 0h16v11h-16zm16 0h17v11h-17zm17 0h15v11h-15zm15 0h15v11h-15zm15 0h17v11h-17zm17 0h16v11h-16zm16 0h16v11h-16zm16 0h15v11h-15zm15 0h17v11h-17zm17 0h15v11h-15zm15 0h16v11h-16zm16 0h17v11h-17zm17 0h15v11h-15zm15 0h16v11h-16zm16 0h16v11h-16zm16 0h16v11h-16zm16 0h16v11h-16zm-558.1 11h16v12h-16zm16 0h16v12h-16zm16.1 0h16v12h-16zm16 0h15v12h-15zm15 0h17v12h-17zm17 0h16v12h-16zm16 0h16v12h-16zm16 0h15v12h-15zm15 0h16v12h-16zm16 0h16v12h-16zm16 0h16v12h-16zm16 0h16v12h-16zm16 0h16v12h-16zm16 0h17v12h-17zm17 0h16v12h-16zm16 0h15v12h-15zm15 0h16v12h-16zm16 0h16v12h-16zm16 0h16v12h-16zm16 0h16v12h-16zm16 0h17v12h-17zm17 0h15v12h-15zm15 0h15v12h-15zm15 0h17v12h-17zm17 0h16v12h-16zm16 0h16v12h-16zm16 0h15v12h-15zm15 0h17v12h-17zm17 0h15v12h-15zm15 0h16v12h-16zm16 0h17v12h-17zm17 0h15v12h-15zm15 0h16v12h-16zm16 0h16v12h-16zm16 0h16v12h-16zm16 0h16v12h-16zm-558.1 12h16v11h-16zm16 0h16v11h-16zm16.1 0h16v11h-16zm16 0h15v11h-15zm15 0h17v11h-17zm17 0h16v11h-16zm16 0h16v11h-16zm16 0h15v11h-15zm15 0h16v11h-16zm16 0h16v11h-16zm16 0h16v11h-16zm16 0h16v11h-16zm16 0h16v11h-16zm16 0h17v11h-17zm17 0h16v11h-16zm16 0h15v11h-15zm15 0h16v11h-16zm16 0h16v11h-16zm16 0h16v11h-16zm16 0h16v11h-16zm16 0h17v11h-17zm17 0h15v11h-15zm15 0h15v11h-15zm15 0h17v11h-17zm17 0h16v11h-16zm16 0h16v11h-16zm16 0h15v11h-15zm15 0h17v11h-17zm17 0h15v11h-15zm15 0h16v11h-16zm16 0h17v11h-17zm17 0h15v11h-15zm15 0h16v11h-16zm16 0h16v11h-16zm16 0h16v11h-16zm16 0h16v11h-16zm-558.1 11h16v12h-16zm16 0h16v12h-16zm16.1 0h16v12h-16zm16 0h15v12h-15zm15 0h17v12h-17zm17 0h16v12h-16zm16 0h16v12h-16zm16 0h15v12h-15zm15 0h16v12h-16zm16 0h16v12h-16zm16 0h16v12h-16zm16 0h16v12h-16zm16 0h16v12h-16zm16 0h17v12h-17zm17 0h16v12h-16zm16 0h15v12h-15zm15 0h16v12h-16zm16 0h16v12h-16zm16 0h16v12h-16zm16 0h16v12h-16zm16 0h17v12h-17zm17 0h15v12h-15zm15 0h15v12h-15zm15 0h17v12h-17zm17 0h16v12h-16zm16 0h16v12h-16zm16 0h15v12h-15zm15 0h17v12h-17zm17 0h15v12h-15zm15 0h16v12h-16zm16 0h17v12h-17zm17 0h15v12h-15zm15 0h16v12h-16zm16 0h16v12h-16zm16 0h16v12h-16zm16 0h16v12h-16zm-558.1 12h16v13h-16zm16 0h16v13h-16zm16.1 0h16v13h-16zm16 0h15v13h-15zm15 0h17v13h-17zm17 0h16v13h-16zm16 0h16v13h-16zm16 0h15v13h-15zm15 0h16v13h-16zm16 0h16v13h-16zm16 0h16v13h-16zm16 0h16v13h-16zm16 0h16v13h-16zm16 0h17v13h-17zm17 0h16v13h-16zm16 0h15v13h-15zm15 0h16v13h-16zm16 0h16v13h-16zm16 0h16v13h-16zm16 0h16v13h-16zm16 0h17v13h-17zm17 0h15v13h-15zm15 0h15v13h-15zm15 0h17v13h-17zm17 0h16v13h-16zm16 0h16v13h-16zm16 0h15v13h-15zm15 0h17v13h-17zm17 0h15v13h-15zm15 0h16v13h-16zm16 0h17v13h-17zm17 0h15v13h-15zm15 0h16v13h-16zm16 0h16v13h-16zm16 0h16v13h-16zm16 0h16v13h-16zm-558.1 13h16v11h-16zm16 0h16v11h-16zm16.1 0h16v11h-16zm16 0h15v11h-15zm15 0h17v11h-17zm17 0h16v11h-16zm16 0h16v11h-16zm16 0h15v11h-15zm15 0h16v11h-16zm16 0h16v11h-16zm16 0h16v11h-16zm16 0h16v11h-16zm16 0h16v11h-16zm16 0h17v11h-17zm17 0h16v11h-16zm16 0h15v11h-15zm15 0h16v11h-16zm16 0h16v11h-16zm16 0h16v11h-16zm16 0h16v11h-16zm16 0h17v11h-17zm17 0h15v11h-15zm15 0h15v11h-15zm15 0h17v11h-17zm17 0h16v11h-16zm16 0h16v11h-16zm16 0h15v11h-15zm15 0h17v11h-17zm17 0h15v11h-15zm15 0h16v11h-16zm16 0h17v11h-17zm17 0h15v11h-15zm15 0h16v11h-16zm16 0h16v11h-16zm16 0h16v11h-16zm16 0h16v11h-16zm-558.1 11h16v11h-16zm16 0h16v11h-16zm16.1 0h16v11h-16zm16 0h15v11h-15zm15 0h17v11h-17zm17 0h16v11h-16zm16 0h16v11h-16zm16 0h15v11h-15zm15 0h16v11h-16zm16 0h16v11h-16zm16 0h16v11h-16zm16 0h16v11h-16zm16 0h16v11h-16zm16 0h17v11h-17zm17 0h16v11h-16zm16 0h15v11h-15zm15 0h16v11h-16zm16 0h16v11h-16zm16 0h16v11h-16zm16 0h16v11h-16zm16 0h17v11h-17zm17 0h15v11h-15zm15 0h15v11h-15zm15 0h17v11h-17zm17 0h16v11h-16zm16 0h16v11h-16zm16 0h15v11h-15zm15 0h17v11h-17zm17 0h15v11h-15zm15 0h16v11h-16zm16 0h17v11h-17zm17 0h15v11h-15zm15 0h16v11h-16zm16 0h16v11h-16zm16 0h16v11h-16zm16 0h16v11h-16zm-558.1 11h16v11h-16zm16 0h16v11h-16zm16.1 0h16v11h-16zm16 0h15v11h-15zm15 0h17v11h-17zm17 0h16v11h-16zm16 0h16v11h-16zm16 0h15v11h-15zm15 0h16v11h-16zm16 0h16v11h-16zm16 0h16v11h-16zm16 0h16v11h-16zm16 0h16v11h-16zm16 0h17v11h-17zm17 0h16v11h-16zm16 0h15v11h-15zm15 0h16v11h-16zm16 0h16v11h-16zm16 0h16v11h-16zm16 0h16v11h-16zm16 0h17v11h-17zm17 0h15v11h-15zm15 0h15v11h-15zm15 0h17v11h-17zm17 0h16v11h-16zm16 0h16v11h-16zm16 0h15v11h-15zm15 0h17v11h-17zm17 0h15v11h-15zm15 0h16v11h-16zm16 0h17v11h-17zm17 0h15v11h-15zm15 0h16v11h-16zm16 0h16v11h-16zm16 0h16v11h-16zm16 0h16v11h-16zm-558.1 11h16v12h-16zm16 0h16v12h-16zm16.1 0h16v12h-16zm16 0h15v12h-15zm15 0h17v12h-17zm17 0h16v12h-16zm16 0h16v12h-16zm16 0h15v12h-15zm15 0h16v12h-16zm16 0h16v12h-16zm16 0h16v12h-16zm16 0h16v12h-16zm16 0h16v12h-16zm16 0h17v12h-17zm17 0h16v12h-16zm16 0h15v12h-15zm15 0h16v12h-16zm16 0h16v12h-16zm16 0h16v12h-16zm16 0h16v12h-16zm16 0h17v12h-17zm17 0h15v12h-15zm15 0h15v12h-15zm15 0h17v12h-17zm17 0h16v12h-16zm16 0h16v12h-16zm16 0h15v12h-15zm15 0h17v12h-17zm17 0h15v12h-15zm15 0h16v12h-16zm16 0h17v12h-17zm17 0h15v12h-15zm15 0h16v12h-16zm16 0h16v12h-16zm16 0h16v12h-16zm16 0h16v12h-16z"/></g><radialGradient id="SVGID_3_" cx="238.625" cy="509.625" r="238.625" gradientUnits="userSpaceOnUse"><stop offset="0" stop-color="#fff" stop-opacity="0"/><stop offset="1" stop-color="#fff"/></radialGradient><circle class="st4" cx="238.6" cy="509.6" r="238.6"/></g></svg>