<svg xmlns="http://www.w3.org/2000/svg" width="216" height="179.481" viewBox="0 0 216 179.481"><path fill="#005581" d="M36 143.464v-9.068h144v9.068H36zm50.739-46.285H70.342v-9.574h26.352v30.613c-6.637 4.172-14.689 6.635-24.359 6.635-19.715 0-36.3-14.033-36.3-35.065 0-22.278 17.442-35.264 37.246-35.264 6.829 0 12.986.948 18.673 3.126v9.859h-.091c-5.88-2.464-12.61-3.505-18.488-3.505-17.056 0-26.252 11.09-26.252 25.685 0 15.068 10.712 25.779 25.784 25.779 5.398 0 9.756-.756 13.834-2.746V97.179zm69.937 25.877l-16.777-36.779-16.203 36.779h-2.742l-20.668-66.537h10.52l13.18 44.253 15.348-34.113h1.99l15.449 33.931 13.268-44.072h9.953l-20.564 66.537h-2.754zM36 45.049V35.98h144v9.069H36z"/></svg>