<svg xmlns="http://www.w3.org/2000/svg" width="300" height="40" viewBox="0 0 300 40"><path fill="#005581" d="M24.678 18.147h-1.494v-7.389h-2.862V9.395h7.219v1.363h-2.863v7.389zm11.816 0h-1.498v-3.765H30.79v3.765h-1.482V9.395h1.482v3.648h4.206V9.395h1.498v8.752zm8.775 0h-5.815V9.395h5.815v1.363h-4.321v2.285h4.071v1.315h-4.071v2.423h4.321v1.366zm11.668-3.39h-2.066v-1.312h3.494v4.099c-.869.503-1.928.816-3.174.816-2.625 0-4.767-1.84-4.767-4.579 0-2.9 2.267-4.601 4.968-4.601.884 0 1.631.101 2.352.338v1.439c-.756-.288-1.604-.401-2.352-.401-2.203 0-3.373 1.375-3.373 3.214 0 1.912 1.33 3.262 3.247 3.262.661 0 1.183-.086 1.671-.286v-1.989zm9.807 3.39h-5.815V9.395h5.815v1.363h-4.322v2.285h4.075v1.315h-4.075v2.423h4.322v1.366zm2.043-4.376c0-2.627 1.954-4.591 4.481-4.591 2.538 0 4.405 1.963 4.405 4.591 0 2.625-1.955 4.589-4.48 4.589-2.541 0-4.406-1.964-4.406-4.589zm7.295 0c0-1.851-1.172-3.264-2.862-3.264-1.67 0-2.841 1.413-2.841 3.264 0 1.849 1.171 3.262 2.862 3.262 1.668.001 2.841-1.412 2.841-3.262zm5.588 4.376h-1.494V9.395h2.752c2.291 0 3.487 1.213 3.487 2.849 0 1.152-.599 2.1-1.743 2.564l2.202 3.339h-1.741l-1.893-3.012h-1.57v3.012zm1.344-4.337c1.232 0 1.83-.577 1.83-1.528 0-.95-.597-1.537-1.83-1.537H81.67v3.064h1.344zm11.815.947h-2.066v-1.312h3.499v4.099c-.871.503-1.933.816-3.174.816-2.629 0-4.77-1.84-4.77-4.579 0-2.9 2.266-4.601 4.967-4.601.883 0 1.63.101 2.352.338v1.439c-.758-.288-1.606-.401-2.352-.401-2.204 0-3.372 1.375-3.372 3.214 0 1.912 1.331 3.262 3.246 3.262.661 0 1.186-.086 1.67-.286v-1.989zm9.811 3.39h-5.815V9.395h5.815v1.363h-4.323v2.285h4.073v1.315h-4.073v2.423h4.323v1.366zm11.741.061l-2.215-4.812-2.131 4.812h-.385l-2.704-8.813h1.533l1.618 5.562 2.003-4.423h.25l2.031 4.412 1.631-5.551h1.429l-2.675 8.813h-.385zm7.383-8.874l3.956 8.813h-1.581l-.758-1.737h-3.674l-.757 1.737h-1.534l3.96-8.813h.388zm-1.508 5.825h2.575l-1.292-2.94-1.283 2.94zm6.657 1.324a5.867 5.867 0 0 0 2.453.551c1.061 0 1.434-.613 1.434-1.252 0-.773-.561-.985-1.832-1.512-1.083-.436-2.226-.987-2.226-2.476 0-1.512 1.143-2.613 2.997-2.613.688 0 1.333.124 1.945.338v1.451h-.025c-.55-.249-1.321-.462-1.979-.462-.972 0-1.422.474-1.422 1.11 0 .688.499.892 1.77 1.39 1.095.437 2.29.988 2.29 2.599 0 1.415-.995 2.753-3.014 2.753-.908 0-1.717-.152-2.415-.428v-1.45h.024zm14.942 1.664h-1.493v-3.765h-4.211v3.765h-1.48V9.395h1.48v3.648h4.211V9.395h1.493v8.752zm4.457 0h-1.494V9.395h1.494v8.752zm10.144.061h-.509l-5.253-5.75v5.688h-1.421V9.334h.512l5.251 5.775V9.395h1.42v8.813zm9.013-3.451h-2.066v-1.312h3.498v4.099c-.873.503-1.928.816-3.174.816-2.625 0-4.77-1.84-4.77-4.579 0-2.9 2.267-4.601 4.968-4.601.887 0 1.633.101 2.354.338v1.439c-.762-.288-1.608-.401-2.354-.401-2.203 0-3.374 1.375-3.374 3.214 0 1.912 1.333 3.262 3.251 3.262.658 0 1.183-.086 1.667-.286v-1.989zm7.034 3.39h-1.497v-7.389h-2.858V9.395h7.218v1.363h-2.862v7.389zm3.798-4.376c0-2.627 1.952-4.591 4.478-4.591 2.543 0 4.411 1.963 4.411 4.591 0 2.625-1.957 4.589-4.483 4.589-2.54 0-4.406-1.964-4.406-4.589zm7.293 0c0-1.851-1.171-3.264-2.863-3.264-1.669 0-2.837 1.413-2.837 3.264 0 1.849 1.168 3.262 2.864 3.262 1.665.001 2.836-1.412 2.836-3.262zm11.278 4.437h-.508l-5.258-5.75v5.688h-1.418V9.334h.511l5.254 5.775V9.395h1.419v8.813zm12.987-3.477c0 2.277-1.518 3.629-3.6 3.629-2.102 0-3.56-1.315-3.56-3.629V9.395h1.493v5.266c0 1.536.774 2.36 2.093 2.36 1.294 0 2.077-.838 2.077-2.36V9.395h1.496v5.336zm10.022 3.477h-.513l-5.251-5.75v5.688h-1.42V9.334h.51l5.255 5.775V9.395h1.419v8.813zm4.457-.061h-1.493V9.395h1.493v8.752zm5.537.061l-3.881-8.813h1.614l2.479 5.777 2.477-5.777h1.57l-3.871 8.813h-.388zm11.728-.061h-5.812V9.395h5.812v1.363h-4.317v2.285h4.068v1.315h-4.068v2.423h4.317v1.366zm4.119 0h-1.492V9.395h2.752c2.291 0 3.485 1.213 3.485 2.849 0 1.152-.598 2.1-1.744 2.564l2.203 3.339h-1.742l-1.894-3.012h-1.568v3.012zm1.345-4.337c1.232 0 1.83-.577 1.83-1.528 0-.95-.598-1.537-1.83-1.537h-1.346v3.064h1.346zm5.306 2.673a5.843 5.843 0 0 0 2.453.551c1.055 0 1.428-.613 1.428-1.252 0-.773-.559-.985-1.829-1.512-1.083-.436-2.229-.987-2.229-2.476 0-1.512 1.146-2.613 2.999-2.613.686 0 1.334.124 1.943.338v1.451h-.025c-.546-.249-1.317-.462-1.979-.462-.971 0-1.419.474-1.419 1.11 0 .688.496.892 1.768 1.39 1.097.437 2.291.988 2.291 2.599 0 1.415-.994 2.753-3.013 2.753-.908 0-1.718-.152-2.414-.428v-1.45h.026zm9.246 1.664h-1.492V9.395h1.492v8.752zm6.127 0h-1.497v-7.389h-2.861V9.395h7.223v1.363h-2.864v7.389zm6.797 0v-3.589l-3.163-5.163h1.718l2.202 3.799 2.192-3.799h1.68l-3.147 5.175v3.577h-1.482zm-162.1 19.144l-1.676-4.127-1.667 4.127h-.233l-1.972-6.496h.7l1.466 4.911 1.605-3.973h.229l1.602 3.937 1.454-4.875h.683l-1.961 6.496h-.23zm7.612-.047l-.758-1.787h-2.91l-.758 1.787h-.727l2.839-6.495h.23l2.847 6.495h-.763zm-3.419-2.377h2.412l-1.207-2.835-1.205 2.835zm5.15 1.427h.009c.532.27 1.104.407 1.703.407.813 0 1.289-.424 1.289-1.114 0-.774-.495-.979-1.482-1.399-.792-.343-1.612-.713-1.612-1.76 0-1.043.754-1.745 1.992-1.745.469 0 .912.075 1.363.232v.682h-.01a4.08 4.08 0 0 0-1.353-.258c-.785 0-1.256.367-1.256 1.014 0 .644.525.893 1.266 1.207.856.369 1.831.747 1.831 1.953 0 1.079-.792 1.844-2.027 1.844-.618 0-1.235-.13-1.712-.343v-.72zm9.911.95v-2.957h-3.444v2.957h-.71v-6.449h.71v2.857h3.444v-2.857h.712v6.449h-.712zm3.187 0v-6.449h.712v6.449h-.712zm7.888.021l-4.036-4.943v4.923h-.664v-6.469h.289l4.034 4.941v-4.922h.663v6.47h-.286zm7.526-2.6h-1.705v-.666h2.405v2.602c-.645.488-1.4.756-2.356.756-1.789 0-3.449-1.32-3.449-3.335 0-2.11 1.759-3.339 3.467-3.339.688 0 1.419.132 2.024.426v.699h-.01c-.604-.312-1.371-.469-2.009-.469-1.713 0-2.708 1.17-2.708 2.683a2.66 2.66 0 0 0 2.691 2.689c.635 0 1.134-.127 1.648-.434v-1.612zm3.997 2.579v-5.812h-2.155v-.637h5.013v.637h-2.157v5.812h-.701zm3.612-3.223c0-1.938 1.514-3.339 3.253-3.339 1.745 0 3.18 1.401 3.18 3.339 0 1.933-1.5 3.325-3.244 3.325-1.74.001-3.189-1.392-3.189-3.325zm5.668 0c0-1.523-1.014-2.701-2.441-2.701-1.438 0-2.46 1.178-2.46 2.701 0 1.519 1.022 2.696 2.46 2.696 1.428.001 2.441-1.177 2.441-2.696zm7.6 3.244l-4.035-4.943v4.923h-.664v-6.469h.285l4.037 4.941v-4.922h.663v6.47h-.286zm2.652 1.141h-.423l.218-2.058h.804v.252l-.599 1.806zm5.471-7.611h1.694c2.405 0 3.677 1.493 3.677 3.227 0 1.72-1.28 3.223-3.677 3.223h-1.694v-6.45zm1.694.625h-.995v5.197h.995c1.961 0 2.912-1.086 2.912-2.596 0-1.502-.957-2.601-2.912-2.601zm10.686 4.929v.675a4.41 4.41 0 0 1-1.749.333c-2.019 0-3.467-1.402-3.467-3.335 0-1.9 1.486-3.339 3.467-3.339.689 0 1.242.121 1.749.334v.671h-.007a4.326 4.326 0 0 0-1.751-.349c-1.704 0-2.691 1.159-2.691 2.683 0 1.519 1.052 2.68 2.7 2.68.607 0 1.207-.109 1.742-.353h.007z"/><path fill="#C8B18B" d="M19.758 3.865V2.5h259.485v1.365H19.758zm0 21.255v-1.361h259.485v1.361H19.758z"/></svg>