<svg xmlns="http://www.w3.org/2000/svg" width="239.357" height="220.051" viewBox="0 0 239.357 220.051"><g fill="#5E5E5E"><path d="M30.581 126.777l-14.646 20.486h75.158l53.854 26.658-16.351-26.658h95.154l-14.646-20.486 30.249 9.05V8.511l-30.249 9.864L223.753 0H15.936l14.646 18.375L0 8.511v127.316m105.25-16.249H38.776V25.571h71.132C88.4 30.64 72.34 49.978 72.34 73.012c0 21.856 14.461 40.4 34.319 46.565l-1.409.001zM76.822 73.012c0-23.633 19.225-42.86 42.857-42.86 23.632 0 42.857 19.228 42.857 42.86 0 23.634-19.227 42.857-42.857 42.857-23.633.001-42.857-19.223-42.857-42.857m57.429 46.566h-.144c19.857-6.165 34.317-24.709 34.317-46.565 0-23.034-16.062-42.373-37.568-47.441h70.055v94.007"/><path d="M157.445 79.862c.4-2.226.621-4.513.621-6.853 0-21.2-17.186-38.386-38.387-38.386-21.199 0-38.389 17.186-38.389 38.386 0 21.202 17.188 38.39 38.389 38.39.312 0 .624-.018.936-.023-19.559-.498-35.265-16.498-35.265-36.179 0-19.996 16.208-36.203 36.201-36.203 19.995 0 36.202 16.207 36.202 36.203 0 1.582-.111 3.136-.308 4.665"/><path d="M68.116 73.012c0-17.661 8.592-33.536 22.28-43.216H44.408v85.56h44.789c-13.053-9.784-21.081-25.258-21.081-42.344m104.675 0c0 17.086-8.026 32.56-21.08 42.343H196.5v-85.56h-45.986c13.687 9.681 22.277 25.556 22.277 43.217"/></g><path fill="#5E5E5E" d="M.104 180.872h6.155v39.18H.104zm16.117 10.802v28.377H10.68v-39.179h7.724l6.324 23.453v-23.453h5.485v39.179h-6.324zm22.077-10.802h19.03v5.598h-6.437v33.581h-6.157V186.47h-6.436zm27.871 39.179h-6.157v-39.179h6.157v16.792h6.996v-16.792h6.269v39.179h-6.269v-16.792h-6.996zm23.897-22.669h8.451v5.598h-8.451v11.473h10.635v5.598H83.91v-39.179h16.791v5.598H90.066z"/><path fill="#C44343" d="M106.598 180.872h19.029v5.598h-6.436v33.581h-6.158V186.47h-6.435zm27.869 16.51h8.453v5.598h-8.453v11.473h10.635v5.598h-16.791v-39.179h16.791v5.598h-10.635zm14.44-16.51h6.158v33.581h10.131v5.598h-16.289zm18.972 0h6.155v33.581h10.131v5.598h-16.286zm18.973 0h6.152v39.18h-6.152zm16.116 10.802v28.377h-5.541v-39.179h7.723l6.326 23.453v-23.453h5.485v39.179h-6.326zm27.648 6.547h8.619v12.428c0 6.268-3.135 9.852-9.18 9.852-6.046 0-9.18-3.584-9.18-9.852v-20.373c0-6.269 3.134-9.851 9.18-9.851 6.045 0 9.18 3.582 9.18 9.851v3.807h-5.822v-4.2c0-2.798-1.229-3.86-3.188-3.86s-3.191 1.062-3.191 3.86v21.157c0 2.801 1.232 3.809 3.191 3.809s3.188-1.008 3.188-3.809v-7.219h-2.797v-5.6z"/></svg>