<?xml version="1.0" encoding="utf-8"?>
<!-- Generator: Adobe Illustrator 15.0.0, SVG Export Plug-In . SVG Version: 6.00 Build 0)  -->
<!DOCTYPE svg PUBLIC "-//W3C//DTD SVG 1.1//EN" "http://www.w3.org/Graphics/SVG/1.1/DTD/svg11.dtd">
<svg version="1.1" id="Layer_1" xmlns="http://www.w3.org/2000/svg" xmlns:xlink="http://www.w3.org/1999/xlink" x="0px" y="0px"
	 width="239.357px" height="220.051px" viewBox="0 0 239.357 220.051" enable-background="new 0 0 239.357 220.051"
	 xml:space="preserve">
<g>
	<path fill="#5E5E5E" d="M30.581,126.777l-14.646,20.486h75.158l53.854,26.658l-16.351-26.658h95.154l-14.646-20.486l0,0l0,0
		l30.249,9.05V8.511l-30.249,9.864l0,0l0,0L223.753,0H15.936l14.646,18.375l0,0l0,0L0,8.511v127.316 M105.25,119.578H40.184h-1.408
		V25.571h1.408h68.316h1.408C88.4,30.64,72.34,49.978,72.34,73.012c0,21.856,14.461,40.4,34.319,46.565L105.25,119.578
		L105.25,119.578z M76.822,73.012c0-23.633,19.225-42.86,42.857-42.86c23.632,0,42.857,19.228,42.857,42.86
		c0,23.634-19.227,42.857-42.857,42.857C96.046,115.87,76.822,96.646,76.822,73.012 M134.251,119.578h-0.144
		c19.857-6.165,34.317-24.709,34.317-46.565c0-23.034-16.062-42.373-37.568-47.441H131h69.723h0.188v94.007"/>
	<path fill="#5E5E5E" d="M157.445,79.862c0.4-2.226,0.621-4.513,0.621-6.853c0-21.2-17.186-38.386-38.387-38.386
		c-21.199,0-38.389,17.186-38.389,38.386c0,21.202,17.188,38.39,38.389,38.39c0.312,0,0.624-0.018,0.936-0.023
		c-19.559-0.498-35.265-16.498-35.265-36.179c0-19.996,16.208-36.203,36.201-36.203c19.995,0,36.202,16.207,36.202,36.203
		C157.753,76.779,157.642,78.333,157.445,79.862"/>
	<path fill="#5E5E5E" d="M68.116,73.012c0-17.661,8.592-33.536,22.28-43.216H44.408v85.56h44.789
		C76.144,105.572,68.116,90.098,68.116,73.012"/>
	<path fill="#5E5E5E" d="M172.791,73.012c0,17.086-8.026,32.56-21.08,42.343H196.5v-85.56h-45.986
		C164.201,39.476,172.791,55.351,172.791,73.012"/>
</g>
<rect x="0.104" y="180.872" fill="#5E5E5E" width="6.155" height="39.18"/>
<polygon fill="#5E5E5E" points="16.221,191.674 16.221,220.051 10.68,220.051 10.68,180.872 18.404,180.872 24.728,204.325 
	24.728,180.872 30.213,180.872 30.213,220.051 23.889,220.051 "/>
<polygon fill="#5E5E5E" points="38.298,180.872 57.328,180.872 57.328,186.47 50.891,186.47 50.891,220.051 44.734,220.051 
	44.734,186.47 38.298,186.47 "/>
<polygon fill="#5E5E5E" points="66.169,220.051 60.012,220.051 60.012,180.872 66.169,180.872 66.169,197.664 73.165,197.664 
	73.165,180.872 79.434,180.872 79.434,220.051 73.165,220.051 73.165,203.259 66.169,203.259 "/>
<polygon fill="#5E5E5E" points="90.066,197.382 98.517,197.382 98.517,202.98 90.066,202.98 90.066,214.453 100.701,214.453 
	100.701,220.051 83.91,220.051 83.91,180.872 100.701,180.872 100.701,186.47 90.066,186.47 "/>
<polygon fill="#C44343" points="106.598,180.872 125.627,180.872 125.627,186.47 119.191,186.47 119.191,220.051 113.033,220.051 
	113.033,186.47 106.598,186.47 "/>
<polygon fill="#C44343" points="134.467,197.382 142.92,197.382 142.92,202.98 134.467,202.98 134.467,214.453 145.102,214.453 
	145.102,220.051 128.311,220.051 128.311,180.872 145.102,180.872 145.102,186.47 134.467,186.47 "/>
<polygon fill="#C44343" points="148.907,180.872 155.065,180.872 155.065,214.453 165.196,214.453 165.196,220.051 148.907,220.051 
	"/>
<polygon fill="#C44343" points="167.879,180.872 174.034,180.872 174.034,214.453 184.165,214.453 184.165,220.051 167.879,220.051 
	"/>
<rect x="186.852" y="180.872" fill="#C44343" width="6.152" height="39.18"/>
<polygon fill="#C44343" points="202.968,191.674 202.968,220.051 197.427,220.051 197.427,180.872 205.15,180.872 211.476,204.325 
	211.476,180.872 216.961,180.872 216.961,220.051 210.635,220.051 "/>
<path fill="#C44343" d="M230.616,198.221h8.619v12.428c0,6.268-3.135,9.852-9.18,9.852c-6.046,0-9.18-3.584-9.18-9.852v-20.373
	c0-6.269,3.134-9.851,9.18-9.851c6.045,0,9.18,3.582,9.18,9.851v3.807h-5.822v-4.2c0-2.798-1.229-3.86-3.188-3.86
	s-3.191,1.062-3.191,3.86v21.157c0,2.801,1.232,3.809,3.191,3.809s3.188-1.008,3.188-3.809v-7.219h-2.797V198.221L230.616,198.221z"
	/>
</svg>
