<svg xmlns="http://www.w3.org/2000/svg" width="239.357" height="220.051"><g fill="#fff"><path d="M30.581 126.777l-14.646 20.487h75.159l53.854 26.658-16.351-26.658h95.155l-14.646-20.487 30.249 9.05v-127.316l-30.249 9.864 14.647-18.375h-207.817l14.646 18.375-30.582-9.864v127.316m105.25-16.249h-66.474v-94.007h71.133c-21.509 5.069-37.569 24.407-37.569 47.441 0 21.856 14.461 40.4 34.319 46.565h-1.409zm-28.428-46.566c0-23.633 19.225-42.86 42.857-42.86 23.632 0 42.858 19.228 42.858 42.86 0 23.634-19.227 42.857-42.858 42.857-23.633.001-42.857-19.223-42.857-42.857m57.429 46.566h-.144c19.858-6.165 34.318-24.709 34.318-46.565 0-23.034-16.062-42.373-37.569-47.441h70.05499999999999v94.007"/><path d="M157.445 79.862c.4-2.226.621-4.513.621-6.853 0-21.2-17.185-38.386-38.387-38.386-21.199 0-38.388 17.186-38.388 38.386 0 21.202 17.188 38.39 38.388 38.39l.936-.024c-19.559-.498-35.265-16.498-35.265-36.179 0-19.996 16.208-36.203 36.202-36.203 19.995 0 36.202 16.207 36.202 36.203-.001 1.583-.112 3.137-.309 4.666"/><path d="M68.116 73.012c0-17.661 8.592-33.536 22.28-43.216h-45.988v85.559h44.789c-13.053-9.783-21.081-25.257-21.081-42.343"/><path d="M172.791 73.012c0 17.086-8.027 32.56-21.08 42.343h44.789v-85.559h-45.987c13.688 9.68 22.278 25.555 22.278 43.216"/></g><g fill="#fff"><rect x=".104" y="180.872" width="6.156" height="39.18"/><polygon points="16.221,191.674 16.221,220.051 10.68,220.051 10.68,180.872 18.404,180.872 24.728,204.325 24.728,180.872 30.213,180.872 30.213,220.051 23.889,220.051"/><polygon points="38.298,180.872 57.328,180.872 57.328,186.47 50.891,186.47 50.891,220.051 44.734,220.051 44.734,186.47 38.298,186.47"/><polygon points="66.169,220.051 60.012,220.051 60.012,180.872 66.169,180.872 66.169,197.664 73.165,197.664 73.165,180.872 79.434,180.872 79.434,220.051 73.165,220.051 73.165,203.259 66.169,203.259"/><polygon points="90.066,197.382 98.517,197.382 98.517,202.98 90.066,202.98 90.066,214.453 100.701,214.453 100.701,220.051 83.91,220.051 83.91,180.872 100.701,180.872 100.701,186.47 90.066,186.47"/><polygon points="106.598,180.872 125.627,180.872 125.627,186.47 119.191,186.47 119.191,220.051 113.033,220.051 113.033,186.47 106.598,186.47"/><polygon points="134.467,197.382 142.92,197.382 142.92,202.98 134.467,202.98 134.467,214.453 145.102,214.453 145.102,220.051 128.311,220.051 128.311,180.872 145.102,180.872 145.102,186.47 134.467,186.47"/><polygon points="148.907,180.872 155.065,180.872 155.065,214.453 165.196,214.453 165.196,220.051 148.907,220.051"/><polygon points="167.879,180.872 174.034,180.872 174.034,214.453 184.165,214.453 184.165,220.051 167.879,220.051"/><rect x="186.852" y="180.872" width="6.153" height="39.18"/><polygon points="202.968,191.674 202.968,220.051 197.427,220.051 197.427,180.872 205.15,180.872 211.476,204.325 211.476,180.872 216.961,180.872 216.961,220.051 210.635,220.051"/><path d="M230.616 198.221h8.619v12.427c0 6.268-3.135 9.852-9.18 9.852s-9.179-3.584-9.179-9.852v-20.373c0-6.268 3.134-9.85 9.179-9.85s9.18 3.582 9.18 9.85v3.807h-5.822v-4.2c0-2.798-1.23-3.86-3.189-3.86s-3.191 1.062-3.191 3.86v21.157c0 2.801 1.232 3.808 3.191 3.808s3.189-1.007 3.189-3.808v-7.219h-2.797v-5.599z"/></g></svg>