<svg xmlns="http://www.w3.org/2000/svg" width="114" height="53.5" viewBox="0 0 114 53.5"><path fill="#4F2D81" d="M74 53.5H0L40 0h74z"/><path fill="#FFF" d="M56.959 22.758c-.278.232-1.021.927-1.021 1.344s.418.974 1.113 1.902l8.854 11.921c3.615 4.917 5.656 3.619 5.656 4.778 0 .324-.045.604-.603.604-1.021-.002-2.226-.188-3.478-.188-.881 0-1.81.187-3.107.185-.881 0-1.344-.093-2.271-1.345l-9.225-12.663c-.603-.788-.881-1.299-1.159-1.299-.371 0-1.159.788-2.18 1.947-.696.787-.604 1.205-.604 2.271l-.001 6.075c-.002 4.268 4.543 2.784 4.542 4.453 0 .417-.186.557-1.298.556-1.252 0-2.504-.187-5.147-.187-2.226-.002-4.637.184-6.075.184-.881 0-1.438-.047-1.438-.372.001-2.317 3.709.697 3.712-6.306l.007-20.172c.001-5.611-4.869-3.247-4.868-5.287 0-.511.371-.696.928-.696.881 0 2.411.187 5.564.188 2.597.001 5.519-.184 6.446-.184.417 0 .974 0 .974.557-.001 1.854-3.339-.651-3.34 4.451l-.004 10.619c0 .464-.047 1.113.232 1.067.278.046.556-.186 1.159-.788l6.124-5.98c1.299-1.297 5.798-5.053 5.799-7.139 0-1.438-2.829-.836-2.829-1.902 0-.835.464-.881 1.067-.881.464 0 3.664.188 5.055.188 1.159.001 2.365-.185 4.359-.184.371 0 1.205-.046 1.205.789 0 1.252-1.484-.139-5.983 3.94l-8.165 7.554z"/></svg>