<svg xmlns="http://www.w3.org/2000/svg" width="403.46" height="399.2" viewBox="0 0 403.46 399.2"><path fill="#FFF" d="M225.988 149.442c-3.386 2.815-12.406 11.269-12.41 16.341 0 5.075 5.072 11.84 13.521 23.118l107.615 144.896c43.944 59.763 68.754 43.987 68.747 58.08 0 3.943-.564 7.326-7.329 7.323-12.4-.005-27.053-2.263-42.274-2.27-10.709-.002-21.981 2.247-37.764 2.242-10.712-.002-16.346-1.13-27.615-16.352L176.359 228.9c-7.327-9.582-10.706-15.782-14.089-15.784-4.51-.004-14.093 9.575-26.498 23.663-8.459 9.582-7.333 14.654-7.338 27.619l-.022 73.839c-.018 51.857 55.228 33.838 55.22 54.132 0 5.07-2.257 6.762-15.784 6.757-15.218-.005-30.437-2.264-62.569-2.272-27.054-.01-56.365 2.233-73.839 2.229-10.709-.005-17.473-.569-17.473-4.515.01-28.183 45.091 8.468 45.119-76.646l.081-245.197C59.189 4.523-.008 33.252 0 8.454.002 2.251 4.512-.004 11.278 0c10.708.003 29.309 2.265 67.64 2.278 31.565.01 67.074-2.233 78.349-2.232 5.071.002 11.836.005 11.835 6.77-.008 22.544-40.582-7.906-40.602 54.1l-.041 129.077c-.004 5.638-.571 13.529 2.813 12.965 3.381.565 6.765-2.253 14.096-9.575l74.427-72.691c15.786-15.775 70.476-61.418 70.485-86.781.006-17.474-34.379-10.156-34.375-23.121C255.91.641 261.544.08 268.871.083c5.639.002 44.528 2.271 61.44 2.276 14.091.005 28.747-2.247 52.984-2.239 4.51.002 14.656-.557 14.651 9.586-.003 15.221-18.035-1.696-72.725 47.891l-99.233 91.845z"/></svg>