<svg xmlns="http://www.w3.org/2000/svg" width="371.371" height="53.5" viewBox="0 0 371.371 53.5"><path fill="#4F2D81" d="M74 53.5H0L40 0h74z"/><path fill="#FFF" d="M56.959 22.758c-.278.232-1.021.927-1.021 1.344s.418.974 1.113 1.902l8.854 11.921c3.615 4.917 5.656 3.619 5.656 4.778 0 .324-.046.604-.603.604-1.021-.002-2.226-.188-3.478-.188-.881 0-1.809.187-3.107.185-.881 0-1.344-.093-2.272-1.345l-9.224-12.663c-.603-.788-.881-1.299-1.159-1.299-.371 0-1.159.788-2.18 1.947-.696.787-.604 1.205-.604 2.271l-.001 6.075c-.002 4.268 4.543 2.784 4.542 4.453 0 .417-.186.557-1.298.556-1.252 0-2.504-.187-5.147-.187-2.226-.002-4.637.184-6.075.184-.881 0-1.438-.047-1.438-.372.001-2.317 3.709.697 3.712-6.306l.007-20.172c.001-5.611-4.869-3.247-4.868-5.287 0-.511.371-.696.928-.696.881 0 2.411.187 5.564.188 2.597.001 5.519-.184 6.446-.184.417 0 .974 0 .974.557-.001 1.854-3.339-.651-3.34 4.451l-.004 10.619c0 .464-.047 1.113.232 1.067.278.046.556-.186 1.159-.788l6.124-5.98c1.299-1.297 5.798-5.053 5.799-7.139 0-1.438-2.829-.836-2.829-1.902 0-.835.464-.881 1.067-.881.464 0 3.664.188 5.055.188 1.159.001 2.365-.185 4.359-.184.371 0 1.206-.046 1.205.789 0 1.252-1.484-.139-5.983 3.94l-8.165 7.554z"/><path d="M150.535 15.512h1.539v3.058l2.838-3.058h1.859l-2.849 2.968 2.979 4.028h-1.849l-2.169-2.978-.809.839v2.139h-1.539zm8.298 0h5.278v1.369h-3.748v1.42h3.299v1.369h-3.299v1.469h3.799v1.369h-5.329zm7.702 0h1.539v5.597h3.487v1.399h-5.026zm7.189 0h1.54v5.597h3.487v1.399h-5.027zm6.481 3.518v-.02c0-1.989 1.568-3.618 3.728-3.618s3.708 1.609 3.708 3.598v.02c0 1.989-1.567 3.618-3.729 3.618-2.158 0-3.707-1.608-3.707-3.598m5.826 0v-.02c0-1.199-.879-2.199-2.119-2.199-1.238 0-2.099.98-2.099 2.179v.02c0 1.199.88 2.199 2.119 2.199 1.24 0 2.099-.98 2.099-2.179m3.674 0v-.02c0-1.989 1.549-3.618 3.668-3.618 1.259 0 2.02.34 2.748.959l-.971 1.17c-.539-.45-1.019-.71-1.828-.71-1.119 0-2.01.99-2.01 2.179v.02c0 1.279.881 2.219 2.119 2.219.561 0 1.061-.14 1.449-.42v-1h-1.55V18.48h3.039v3.039c-.72.609-1.709 1.109-2.988 1.109-2.178 0-3.676-1.529-3.676-3.598m8.839 0v-.02c0-1.989 1.549-3.618 3.668-3.618 1.259 0 2.021.34 2.749.959l-.97 1.17c-.54-.45-1.021-.71-1.829-.71-1.119 0-2.01.99-2.01 2.179v.02c0 1.279.88 2.219 2.119 2.219.561 0 1.06-.14 1.449-.42v-1h-1.55V18.48h3.039v3.039c-.72.609-1.71 1.109-2.989 1.109-2.177 0-3.676-1.529-3.676-3.598m12.67 2.459l.91-1.089c.629.519 1.289.849 2.089.849.629 0 1.008-.25 1.008-.659v-.02c0-.39-.238-.59-1.406-.89-1.41-.36-2.32-.75-2.32-2.139v-.02c0-1.269 1.02-2.109 2.449-2.109 1.02 0 1.89.32 2.599.89l-.8 1.159c-.619-.43-1.229-.689-1.819-.689-.589 0-.899.27-.899.61v.019c0 .46.302.61 1.511.92 1.42.37 2.219.879 2.219 2.099v.02c0 1.389-1.062 2.169-2.569 2.169a4.454 4.454 0 0 1-2.972-1.12m7.569-2.459v-.02c0-1.989 1.5-3.618 3.648-3.618 1.319 0 2.108.439 2.76 1.079l-.979 1.13c-.54-.49-1.091-.79-1.789-.79-1.181 0-2.03.98-2.03 2.179v.02c0 1.199.83 2.199 2.03 2.199.798 0 1.289-.32 1.839-.82l.979.99c-.72.769-1.521 1.249-2.867 1.249-2.062 0-3.591-1.589-3.591-3.598m8.692-3.518h1.539v2.769h2.838v-2.769h1.539v6.996h-1.539v-2.809h-2.838v2.809h-1.539zm8.289 3.518v-.02c0-1.989 1.569-3.618 3.729-3.618 2.158 0 3.708 1.609 3.708 3.598v.02c0 1.989-1.569 3.618-3.728 3.618-2.161 0-3.709-1.608-3.709-3.598m5.827 0v-.02c0-1.199-.881-2.199-2.118-2.199-1.24 0-2.101.98-2.101 2.179v.02c0 1.199.881 2.199 2.119 2.199 1.241 0 2.1-.98 2.1-2.179m3.673 0v-.02c0-1.989 1.569-3.618 3.729-3.618 2.158 0 3.708 1.609 3.708 3.598v.02c0 1.989-1.569 3.618-3.728 3.618-2.161 0-3.709-1.608-3.709-3.598m5.827 0v-.02c0-1.199-.881-2.199-2.118-2.199-1.24 0-2.101.98-2.101 2.179v.02c0 1.199.881 2.199 2.119 2.199 1.241 0 2.1-.98 2.1-2.179m3.983-3.518h1.539v5.597h3.489v1.399h-5.028zm10.88 3.518v-.02c0-1.989 1.569-3.618 3.729-3.618 2.157 0 3.707 1.609 3.707 3.598v.02c0 1.989-1.568 3.618-3.729 3.618-2.158 0-3.707-1.608-3.707-3.598m5.827 0v-.02c0-1.199-.881-2.199-2.119-2.199-1.239 0-2.1.98-2.1 2.179v.02c0 1.199.881 2.199 2.119 2.199 1.24 0 2.1-.98 2.1-2.179m3.983-3.518h5.327v1.399h-3.788V18.4h3.338v1.4h-3.338v2.708h-1.539zm11.56 0h1.658l1.84 2.958 1.839-2.958h1.659v6.996h-1.529v-4.567l-1.969 2.988h-.04l-1.949-2.959v4.538h-1.509zm12.078-.05h1.418l3 7.046h-1.609l-.641-1.569h-2.959l-.639 1.569h-1.568l2.998-7.046zm1.619 4.118l-.931-2.269-.93 2.269h1.861zm4.883-4.068h1.419l3.278 4.308v-4.308h1.519v6.996h-1.309l-3.389-4.448v4.448h-1.518zm11.298-.05h1.419l2.999 7.046h-1.609l-.64-1.569h-2.959l-.641 1.569h-1.567l2.998-7.046zm1.619 4.118l-.931-2.269-.93 2.269h1.861zm4.122-.55v-.02c0-1.989 1.55-3.618 3.668-3.618 1.26 0 2.019.34 2.749.959l-.971 1.17c-.539-.45-1.02-.71-1.829-.71-1.118 0-2.009.99-2.009 2.179v.02c0 1.279.88 2.219 2.119 2.219.56 0 1.06-.14 1.449-.42v-1h-1.549V18.48h3.038v3.039c-.721.609-1.709 1.109-2.988 1.109-2.177 0-3.677-1.529-3.677-3.598m9.15-3.518h5.277v1.369h-3.747v1.42h3.297v1.369h-3.297v1.469h3.797v1.369h-5.327zm7.7 0h1.66l1.839 2.958 1.838-2.958h1.66v6.996h-1.53v-4.567l-1.968 2.988h-.041l-1.949-2.959v4.538h-1.509zm9.68 0h5.277v1.369h-3.748v1.42h3.298v1.369h-3.298v1.469h3.798v1.369h-5.327zm7.7 0h1.419l3.279 4.308v-4.308h1.518v6.996h-1.308l-3.389-4.448v4.448h-1.519zm10.53 1.419h-2.129v-1.419h5.797v1.419h-2.129v5.577h-1.539zm-205.26 13.031h1.419l2.998 7.045h-1.608l-.64-1.567h-2.959l-.639 1.567h-1.57l2.999-7.045zm1.619 4.118l-.93-2.27-.93 2.27h1.86zm5.611-2.648h-2.129v-1.421h5.797v1.421h-2.129v5.575h-1.539zm9.851-1.421h1.419l3.279 4.309v-4.309h1.519v6.996h-1.309l-3.388-4.446v4.446h-1.52zm8.589 3.52v-.021c0-1.988 1.57-3.617 3.729-3.617 2.16 0 3.709 1.609 3.709 3.599v.02c0 1.99-1.568 3.619-3.729 3.619-2.158-.003-3.709-1.611-3.709-3.6m5.828 0v-.021c0-1.197-.879-2.197-2.119-2.197-1.238 0-2.1.979-2.1 2.179v.02c0 1.199.881 2.199 2.118 2.199 1.242-.003 2.101-.981 2.101-2.18m3.982-3.52h3.199c.89 0 1.578.25 2.039.712.389.389.598.938.598 1.6v.02c0 1.129-.608 1.838-1.497 2.168l1.709 2.498h-1.8l-1.5-2.238h-1.209v2.238h-1.539v-6.998zm3.098 3.399c.75 0 1.18-.4 1.18-.988v-.02c0-.66-.46-1-1.209-1h-1.529v2.008h1.558zm6.762-1.978h-2.129v-1.421h5.797v1.421h-2.129v5.575h-1.539zm5.85-1.421h1.54v2.77h2.837v-2.77h1.54v6.996h-1.54v-2.808h-2.837v2.808h-1.54zm8.06 0h1.649l1.45 4.739 1.569-4.758h1.319l1.57 4.758 1.449-4.739h1.608l-2.388 7.048h-1.338L227 32.482l-1.579 4.577h-1.338zm12.762 0h5.275v1.369h-3.748v1.42h3.299v1.369h-3.299v1.47h3.799v1.368h-5.326zm7.218 5.977l.91-1.088c.629.52 1.288.85 2.088.85.631 0 1.011-.25 1.011-.66v-.02c0-.391-.24-.59-1.41-.891-1.41-.359-2.318-.75-2.318-2.14v-.019c0-1.27 1.02-2.108 2.449-2.108 1.02 0 1.889.319 2.598.891l-.799 1.158c-.62-.43-1.229-.688-1.818-.688s-.898.271-.898.61v.017c0 .461.299.61 1.508.92 1.42.371 2.22.879 2.22 2.1v.02c0 1.39-1.06 2.17-2.567 2.17a4.464 4.464 0 0 1-2.974-1.122m9.36-4.556h-2.129v-1.421h5.797v1.421h-2.129v5.575h-1.539zm5.851-1.421h5.277v1.369h-3.748v1.42h3.298v1.369h-3.298v1.47h3.798v1.368h-5.327zm7.7 0h3.198c.89 0 1.579.25 2.038.712.391.389.601.938.601 1.6v.02c0 1.129-.61 1.838-1.5 2.168l1.709 2.498h-1.799l-1.499-2.238h-1.209v2.238h-1.539v-6.998zm3.098 3.399c.75 0 1.18-.4 1.18-.988v-.02c0-.66-.459-1-1.209-1h-1.528v2.008h1.557zm5.132-3.399h1.418l3.279 4.309v-4.309h1.518v6.996h-1.308l-3.388-4.446v4.446h-1.519zm12.79 3.998v-3.998h1.539v3.959c0 1.14.57 1.729 1.51 1.729.94 0 1.51-.568 1.51-1.68V30.01h1.539v3.949c0 2.117-1.189 3.156-3.068 3.156s-3.03-1.047-3.03-3.106m8.669-3.998h1.42l3.278 4.309v-4.309h1.519v6.996h-1.308l-3.39-4.446v4.446h-1.519zm8.971 0h1.539v6.996h-1.539zm3.69 0h1.698l1.829 4.928 1.83-4.928h1.659l-2.828 7.048h-1.36zm9.1 0h5.276v1.369h-3.748v1.42h3.299v1.369h-3.299v1.47h3.799v1.368h-5.327zm7.7 0h3.197c.891 0 1.579.25 2.038.712.392.389.602.938.602 1.6v.02c0 1.129-.61 1.838-1.5 2.168l1.709 2.498h-1.799l-1.499-2.238h-1.209v2.238h-1.539v-6.998zm3.098 3.399c.75 0 1.18-.4 1.18-.988v-.02c0-.66-.46-1-1.209-1h-1.528v2.008h1.557zm4.651 2.578l.909-1.088c.631.52 1.289.85 2.09.85.63 0 1.009-.25 1.009-.66v-.02c0-.391-.239-.59-1.409-.891-1.409-.359-2.318-.75-2.318-2.14v-.019c0-1.27 1.021-2.108 2.449-2.108 1.02 0 1.889.319 2.598.891l-.799 1.158c-.62-.43-1.229-.688-1.818-.688-.591 0-.899.271-.899.61v.017c0 .461.3.61 1.509.92 1.42.371 2.22.879 2.22 2.1v.02c0 1.39-1.061 2.17-2.568 2.17a4.462 4.462 0 0 1-2.973-1.122m7.95-5.977h1.539v6.996h-1.539zm5.92 1.421h-2.129v-1.421h5.797v1.421h-2.129v5.575h-1.539zm7.819 2.818l-2.688-4.239h1.799l1.669 2.809 1.699-2.809h1.749l-2.689 4.209v2.787h-1.539z"/></svg>