<svg xmlns="http://www.w3.org/2000/svg" width="573.374" height="53.5" viewBox="0 0 573.374 53.5"><path fill="#4F2D81" d="M74 53.5H0L40 0h74z"/><path fill="#FFF" d="M56.959 22.758c-.278.232-1.021.927-1.021 1.344 0 .417.418.974 1.113 1.902l8.854 11.921c3.615 4.917 5.656 3.619 5.656 4.778 0 .324-.046.603-.603.603-1.021-.001-2.226-.187-3.478-.188-.881 0-1.809.186-3.107.185-.881 0-1.344-.093-2.272-1.345l-9.224-12.663c-.603-.788-.881-1.299-1.159-1.299-.371 0-1.159.788-2.18 1.947-.696.788-.604 1.205-.604 2.271l-.001 6.075c-.002 4.267 4.543 2.784 4.542 4.453 0 .417-.186.557-1.298.556-1.252 0-2.504-.186-5.147-.187-2.226-.001-4.637.184-6.075.184-.881 0-1.438-.047-1.438-.372.001-2.318 3.709.697 3.712-6.306l.007-20.172c.001-5.611-4.869-3.247-4.868-5.287 0-.511.371-.696.928-.696.881 0 2.411.187 5.564.188 2.597.001 5.519-.184 6.446-.184.417 0 .974 0 .974.557-.001 1.854-3.339-.651-3.34 4.451l-.004 10.619c0 .464-.047 1.113.232 1.067.278.046.556-.186 1.159-.788l6.124-5.98c1.299-1.297 5.798-5.053 5.799-7.139 0-1.438-2.829-.836-2.829-1.902 0-.835.464-.881 1.067-.881.464 0 3.664.187 5.055.187 1.159.001 2.365-.185 4.359-.184.371 0 1.206-.046 1.205.789 0 1.252-1.484-.139-5.983 3.94l-8.165 7.556z"/><path d="M149 23.387h1.54v3.059l2.838-3.059h1.859l-2.849 2.969 2.979 4.027h-1.849l-2.169-2.978-.809.84v2.138H149zm8.3 0h5.277v1.369h-3.748v1.42h3.299v1.369h-3.299v1.469h3.798v1.369H157.3zm7.7 0h1.54v5.597h3.487v1.399H165zm7.19 0h1.54v5.597h3.487v1.399h-5.027zm6.48 3.519v-.021c0-1.988 1.569-3.618 3.728-3.618 2.159 0 3.708 1.609 3.708 3.599v.02c0 1.989-1.569 3.618-3.728 3.618-2.158-.001-3.708-1.61-3.708-3.598m5.827 0v-.021c0-1.199-.879-2.198-2.119-2.198-1.239 0-2.099.979-2.099 2.179v.02c0 1.199.88 2.199 2.119 2.199 1.24-.001 2.099-.98 2.099-2.179m3.673 0v-.021c0-1.988 1.549-3.618 3.668-3.618 1.259 0 2.019.34 2.749.96l-.97 1.169c-.54-.449-1.019-.709-1.829-.709-1.119 0-2.009.99-2.009 2.179v.02c0 1.279.88 2.219 2.119 2.219.56 0 1.059-.14 1.449-.42v-.999h-1.549v-1.329h3.038v3.038c-.719.609-1.709 1.109-2.988 1.109-2.179-.001-3.678-1.53-3.678-3.598m8.84 0v-.021c0-1.988 1.549-3.618 3.668-3.618 1.259 0 2.019.34 2.749.96l-.97 1.169c-.54-.449-1.02-.709-1.829-.709-1.119 0-2.009.99-2.009 2.179v.02c0 1.279.88 2.219 2.119 2.219.56 0 1.059-.14 1.449-.42v-.999h-1.549v-1.329h3.039v3.038c-.72.609-1.71 1.109-2.989 1.109-2.179-.001-3.678-1.53-3.678-3.598m12.67 2.458l.91-1.089c.629.52 1.289.85 2.089.85.629 0 1.009-.25 1.009-.66v-.02c0-.39-.24-.59-1.409-.89-1.41-.36-2.319-.75-2.319-2.139v-.021c0-1.269 1.019-2.108 2.449-2.108 1.019 0 1.888.319 2.598.89l-.8 1.159c-.619-.43-1.229-.689-1.819-.689-.589 0-.899.27-.899.609v.02c0 .46.3.61 1.509.92 1.419.37 2.219.88 2.219 2.099v.021c0 1.389-1.059 2.169-2.569 2.169a4.455 4.455 0 0 1-2.968-1.121m7.57-2.458v-.021c0-1.988 1.499-3.618 3.648-3.618 1.319 0 2.109.44 2.758 1.08l-.979 1.129c-.54-.489-1.09-.789-1.789-.789-1.18 0-2.029.979-2.029 2.179v.02c0 1.199.829 2.199 2.029 2.199.799 0 1.289-.32 1.839-.819l.98.989c-.72.77-1.52 1.249-2.869 1.249-2.059-.001-3.588-1.589-3.588-3.598m8.689-3.519h1.54v2.769h2.838v-2.769h1.539v6.996h-1.539v-2.809h-2.838v2.809h-1.54zm8.29 3.519v-.021c0-1.988 1.569-3.618 3.728-3.618 2.159 0 3.708 1.609 3.708 3.599v.02c0 1.989-1.568 3.618-3.729 3.618-2.156-.001-3.707-1.61-3.707-3.598m5.827 0v-.021c0-1.199-.879-2.198-2.119-2.198-1.238 0-2.098.979-2.098 2.179v.02c0 1.199.88 2.199 2.119 2.199 1.24-.001 2.098-.98 2.098-2.179m3.673 0v-.021c0-1.988 1.569-3.618 3.728-3.618 2.16 0 3.709 1.609 3.709 3.599v.02c0 1.989-1.569 3.618-3.729 3.618-2.158-.001-3.708-1.61-3.708-3.598m5.827 0v-.021c0-1.199-.879-2.198-2.119-2.198-1.238 0-2.099.979-2.099 2.179v.02c0 1.199.88 2.199 2.118 2.199 1.241-.001 2.1-.98 2.1-2.179m3.983-3.519h1.541v5.597h3.486v1.399h-5.027zm10.88 3.519v-.021c0-1.988 1.568-3.618 3.728-3.618s3.708 1.609 3.708 3.599v.02c0 1.989-1.568 3.618-3.729 3.618-2.157-.001-3.707-1.61-3.707-3.598m5.827 0v-.021c0-1.199-.879-2.198-2.119-2.198-1.238 0-2.098.979-2.098 2.179v.02c0 1.199.879 2.199 2.118 2.199 1.24-.001 2.099-.98 2.099-2.179m3.983-3.519h5.327v1.4h-3.787v1.489h3.337v1.399h-3.337v2.708h-1.54zm11.56 0h1.659l1.839 2.959 1.838-2.959h1.661v6.996h-1.531v-4.567l-1.968 2.988h-.04l-1.95-2.958v4.537h-1.508zm12.079-.05h1.419l2.998 7.046h-1.609l-.639-1.569h-2.959l-.639 1.569h-1.57l2.999-7.046zm1.619 4.119l-.931-2.27-.928 2.27h1.859zm4.882-4.069h1.419l3.279 4.308v-4.308h1.518v6.996h-1.308l-3.389-4.447v4.447h-1.519zm11.298-.05h1.42l2.998 7.046h-1.61l-.64-1.569h-2.957l-.641 1.569h-1.568l2.998-7.046zm1.62 4.119l-.93-2.27-.929 2.27h1.859zm4.121-.55v-.021c0-1.988 1.551-3.618 3.668-3.618 1.261 0 2.02.34 2.75.96l-.971 1.169c-.54-.449-1.019-.709-1.828-.709-1.119 0-2.01.99-2.01 2.179v.02c0 1.279.88 2.219 2.12 2.219.56 0 1.06-.14 1.449-.42v-.999h-1.55v-1.329h3.039v3.038c-.721.609-1.709 1.109-2.988 1.109-2.179-.001-3.679-1.53-3.679-3.598m9.15-3.519h5.276v1.369h-3.747v1.42h3.299v1.369h-3.299v1.469h3.799v1.369h-5.328zm7.701 0h1.658l1.84 2.959 1.838-2.959h1.66v6.996h-1.529v-4.567l-1.969 2.988h-.041l-1.949-2.958v4.537h-1.508zm9.68 0h5.275v1.369h-3.747v1.42h3.298v1.369h-3.298v1.469h3.798v1.369h-5.326zm7.699 0h1.42l3.277 4.308v-4.308h1.52v6.996h-1.309l-3.388-4.447v4.447h-1.52zm10.529 1.419h-2.128v-1.419h5.796v1.419h-2.128v5.577h-1.54zm12.25-1.469h1.419l2.999 7.046h-1.609l-.64-1.569h-2.959l-.64 1.569h-1.568l2.998-7.046zm1.619 4.119l-.93-2.27-.93 2.27h1.86zm5.611-2.65h-2.129v-1.419h5.797v1.419h-2.129v5.577h-1.539zm9.851-1.419h1.419l3.278 4.308v-4.308h1.518v6.996h-1.308l-3.389-4.447v4.447h-1.518zm8.589 3.519v-.021c0-1.988 1.569-3.618 3.729-3.618 2.158 0 3.708 1.609 3.708 3.599v.02c0 1.989-1.569 3.618-3.729 3.618-2.158-.001-3.708-1.61-3.708-3.598m5.828 0v-.021c0-1.199-.88-2.198-2.119-2.198s-2.099.979-2.099 2.179v.02c0 1.199.88 2.199 2.119 2.199s2.099-.98 2.099-2.179m3.983-3.519h3.198c.89 0 1.579.25 2.039.71.39.39.6.939.6 1.599v.021c0 1.129-.61 1.839-1.5 2.169l1.709 2.498h-1.799l-1.499-2.238h-1.209v2.238h-1.539v-6.997zm3.098 3.399c.75 0 1.18-.4 1.18-.989v-.021c0-.659-.46-.999-1.209-.999h-1.529v2.009h1.558zm6.76-1.98h-2.129v-1.419h5.797v1.419h-2.129v5.577h-1.539zm5.852-1.419h1.539v2.769h2.838v-2.769h1.539v6.996h-1.539v-2.809h-2.838v2.809h-1.539zm8.059 0h1.65l1.449 4.738 1.568-4.757h1.32l1.569 4.757 1.449-4.738h1.61l-2.389 7.046h-1.339l-1.58-4.577-1.579 4.577h-1.339zm12.76 0h5.277v1.369h-3.747v1.42h3.297v1.369h-3.297v1.469h3.797v1.369h-5.327zm7.22 5.977l.91-1.089c.63.52 1.289.85 2.089.85.63 0 1.009-.25 1.009-.66v-.02c0-.39-.239-.59-1.409-.89-1.409-.36-2.318-.75-2.318-2.139v-.021c0-1.269 1.02-2.108 2.449-2.108 1.019 0 1.889.319 2.598.89l-.799 1.159c-.62-.43-1.229-.689-1.819-.689s-.899.27-.899.609v.02c0 .46.3.61 1.509.92 1.42.37 2.219.88 2.219 2.099v.021c0 1.389-1.06 2.169-2.568 2.169a4.46 4.46 0 0 1-2.971-1.121m9.359-4.558h-2.129v-1.419h5.797v1.419h-2.129v5.577h-1.539zm5.851-1.419h5.276v1.369h-3.747v1.42h3.298v1.369h-3.298v1.469h3.798v1.369h-5.327zm7.7 0h3.198c.89 0 1.579.25 2.038.71.391.39.601.939.601 1.599v.021c0 1.129-.61 1.839-1.5 2.169l1.709 2.498h-1.799l-1.499-2.238h-1.209v2.238h-1.539v-6.997zm3.098 3.399c.75 0 1.18-.4 1.18-.989v-.021c0-.659-.46-.999-1.209-.999h-1.529v2.009h1.558zm5.133-3.399h1.419l3.278 4.308v-4.308h1.518v6.996h-1.308l-3.389-4.447v4.447h-1.518zm12.789 3.998v-3.998h1.539v3.958c0 1.14.57 1.729 1.51 1.729s1.509-.569 1.509-1.679v-4.008h1.539v3.948c0 2.118-1.189 3.158-3.068 3.158s-3.029-1.049-3.029-3.108m8.67-3.998h1.419l3.278 4.308v-4.308h1.518v6.996h-1.308l-3.389-4.447v4.447h-1.518zm8.969 0h1.539v6.996h-1.539zm3.692 0h1.698l1.829 4.928 1.828-4.928h1.66l-2.829 7.046h-1.358zm9.099 0h5.277v1.369h-3.747v1.42h3.297v1.369h-3.297v1.469h3.797v1.369h-5.327zm7.7 0h3.198c.89 0 1.579.25 2.039.71.39.39.6.939.6 1.599v.021c0 1.129-.61 1.839-1.5 2.169l1.709 2.498h-1.799l-1.499-2.238h-1.209v2.238h-1.539v-6.997zm3.097 3.399c.75 0 1.18-.4 1.18-.989v-.021c0-.659-.46-.999-1.209-.999h-1.529v2.009h1.558zm4.653 2.578l.91-1.089c.63.52 1.289.85 2.089.85.63 0 1.009-.25 1.009-.66v-.02c0-.39-.238-.59-1.409-.89-1.409-.36-2.318-.75-2.318-2.139v-.021c0-1.269 1.02-2.108 2.449-2.108 1.019 0 1.889.319 2.598.89l-.799 1.159c-.62-.43-1.229-.689-1.819-.689s-.898.27-.898.609v.02c0 .46.299.61 1.508.92 1.42.37 2.219.88 2.219 2.099v.021c0 1.389-1.059 2.169-2.568 2.169a4.457 4.457 0 0 1-2.971-1.121m7.949-5.977h1.539v6.996h-1.539zm5.92 1.419h-2.129v-1.419h5.797v1.419h-2.129v5.577h-1.539zm7.82 2.819l-2.688-4.238h1.798l1.669 2.809 1.7-2.809h1.749l-2.689 4.208v2.788h-1.539z"/></svg>