<svg xmlns:xlink="http://www.w3.org/1999/xlink" id="Layer_1" xmlns="http://www.w3.org/2000/svg" viewBox="0 0 442.3 164.7"><style>.st0{fill:url(#SVGID_1_)}.st1{fill:url(#SVGID_2_)}.st2{fill:#6cab36}.st2,.st3{clip-path:url(#SVGID_4_)}.st4{fill:#6cab36}.st4,.st5,.st6{clip-path:url(#SVGID_6_)}.st5{fill:#b5b7b7}.st6{fill:none;stroke:#939598;stroke-width:.526;stroke-miterlimit:10}</style><linearGradient id="SVGID_1_" gradientUnits="userSpaceOnUse" x1="422.687" y1="164.676" x2="422.687"><stop offset="0" stop-color="#6cab36"/><stop offset=".78" stop-color="#fff"/></linearGradient><path class="st0" d="M403.1 0h39.3v164.7h-39.3z"/><linearGradient id="SVGID_2_" gradientUnits="userSpaceOnUse" x1="383.437" y1="164.676" x2="383.437" y2="25.676"><stop offset="0" stop-color="#4b4b52"/><stop offset=".613" stop-color="#fff"/></linearGradient><path class="st1" d="M363.8 25.7h39.3v139h-39.3z"/><defs><path id="SVGID_3_" d="M0 104h356.8v54.2H0z"/></defs><clipPath id="SVGID_4_"><use xlink:href="#SVGID_3_" overflow="visible"/></clipPath><path class="st2" d="M125.4 122.3h-21.3v6.5H119v3.7h-14.9v11.3H100v-25.3h25.4zm3.7 0h4.2v21.5h-4.2zm33.3 21.5h-23.2v-21.5h22.3v3.8h-18.1v4.6H156v3.8h-12.6v5.5h19zm25.4 0h-20.7v-21.5h4.2V140h16.5z"/><g class="st3"><defs><path id="SVGID_5_" d="M-24.2 83.3h392.6V187H-24.2z"/></defs><clipPath id="SVGID_6_"><use xlink:href="#SVGID_5_" overflow="visible"/></clipPath><path class="st4" d="M204.9 122.3c3.8 0 6.8 1 9.1 3s3.4 4.5 3.4 7.6c0 2.8-1.2 5.5-3.6 8.1-.7.7-1.7 1.4-3.2 1.9-1.6.6-3.3.9-5 .9H191v-21.5h13.9zm1 17.7c2 0 3.7-.6 5-1.9 1.3-1.3 2-2.9 2-4.9 0-2.1-.7-3.8-2.1-5.1-1.4-1.3-3.3-1.9-5.6-1.9h-10V140h10.7z"/><path class="st5" d="M241.6 118.5c2.6 0 4.6.7 6.1 2.1 1.5 1.4 2.3 3.3 2.3 5.7 0 2.5-.8 4.4-2.4 5.8-1.6 1.3-3.9 2-6.9 2h-15v9.6h-4.2v-25.3h20.1zm-.7 11.9c3.2 0 4.9-1.3 4.9-3.9 0-2.8-1.7-4.2-5.1-4.2h-14.8v8.1h15zm38 13.4h-4.8l-5.6-7.9h-10.7v7.9h-4.2v-21.5H271c2.3 0 4.1.6 5.4 1.9 1.3 1.2 2 2.9 2 5 0 3.6-1.8 5.7-5.3 6.5l5.8 8.1zm-8.6-11.7c2.5 0 3.8-1 3.8-2.9 0-2.1-1.3-3.1-4.1-3.1h-12.3v6h12.6zm39.4.9c0 3.5-1.5 6.4-4.5 8.6-2.6 1.9-5.8 2.8-9.6 2.8s-7.1-.9-9.6-2.8c-3-2.2-4.5-5-4.5-8.6 0-3.5 1.5-6.3 4.5-8.5 2.7-1.9 5.9-2.9 9.6-2.9 3.7 0 6.9 1 9.6 2.9 3 2.2 4.5 5 4.5 8.5m-4.4 0c0-2.2-.9-4-2.7-5.5-1.8-1.4-4.2-2.1-7-2.1-2.9 0-5.3.7-7.1 2.2-1.8 1.4-2.7 3.3-2.7 5.5 0 2.3.9 4.1 2.7 5.5 1.8 1.4 4.2 2.1 7.1 2.1 2.9 0 5.3-.7 7.1-2.1 1.7-1.5 2.6-3.4 2.6-5.6m28.5-5.4c-2.8-1.5-5.8-2.2-9.1-2.2-4.8 0-7.2.9-7.2 2.5 0 1 .9 1.7 2.7 2 2.4.2 4.9.4 7.3.7 3.5.4 6 1 7.5 1.9 1.7 1 2.5 2.5 2.5 4.6 0 2.3-1 4.1-3.1 5.3-2.1 1.3-5 1.9-9 1.9-5.5 0-9.9-1.3-13.2-3.8l2.3-3c3 2.1 6.6 3.1 10.9 3.1 2.4 0 4.3-.3 5.6-.9 1.3-.6 2-1.4 2-2.5s-.8-1.9-2.4-2.4c-.9-.3-2.3-.4-4.2-.5-3-.1-4.8-.2-5.5-.3-2.7-.3-4.6-.8-5.9-1.7-1.3-.9-1.9-2.2-1.9-3.9 0-2 1-3.7 3-4.9 2-1.2 4.8-1.8 8.5-1.8 4.8 0 8.8 1 11.8 3.1l-2.6 2.8z"/><path class="st6" d="M0 111.6h93.4M0 150.6h356.8m-270.9 7.6V104m263.3 54.2v-15.1"/><path class="st4" d="M47.8 122.2H12.5v8.1H34v3.7H12.5v9.7H8.3v-25.2h39.5z"/><path class="st5" d="M74.3 120.6c-1.5-1.4-3.6-2.1-6.1-2.1H51.6v3.8h15.5c3.4 0 5.1 1.4 5.1 4.2 0 2.6-1.6 3.9-4.8 3.9H37.8v13.4H42v-9.6h25.3c3 0 5.3-.7 6.9-2 1.6-1.3 2.4-3.2 2.4-5.8-.1-2.4-.8-4.3-2.3-5.8"/></g></svg>