<svg xmlns="http://www.w3.org/2000/svg" width="105.176" height="116.026" viewBox="0 0 105.176 116.026"><path d="M52.617 116.026l-.567-.272C25.272 102.909 12.553 86.642 6.599 75.256.101 62.831.001 53.541 0 53.152V0h105.176v53.148c0 .39-.073 9.677-6.553 22.104-5.937 11.385-18.64 27.652-45.44 40.502l-.566.272M2.621 2.621v50.527c.001.085.123 9.153 6.379 21.045 5.74 10.905 17.96 26.477 43.616 38.924 25.677-12.453 37.882-28.021 43.604-38.926 6.236-11.89 6.334-20.955 6.334-21.043V2.621H2.621z"/><path d="M33.667 19.753a11.601 11.601 0 0 0-4.587-3.67c.7 1.013 1.291 2.256 1.746 3.67h2.841m-8.264-4.415v4.415h3.36c-.848-2.31-2.081-3.876-3.36-4.415m-6.417 10.317h4.451v-3.936h-3.94a21.231 21.231 0 0 0-.511 3.936m1.09-5.902h3.361v-4.416c-1.28.539-2.513 2.105-3.361 4.416m-.579 11.806h3.94v-3.938h-4.451c.057 1.431.236 2.75.511 3.938m3.94 6.38v-4.414h-3.36c.847 2.31 2.08 3.876 3.36 4.414m-6.416-10.318h-4.098c.119 1.4.493 2.725 1.067 3.938h3.504a23.74 23.74 0 0 1-.473-3.938m12.322-5.902h-3.94v3.936h4.451a21.402 21.402 0 0 0-.511-3.936m-11.849 0H13.99a11.43 11.43 0 0 0-1.066 3.936h4.098a23.61 23.61 0 0 1 .472-3.936m-2.32 11.806a11.6 11.6 0 0 0 4.585 3.668c-.701-1.013-1.29-2.255-1.745-3.668h-2.84m16.645-7.87h4.097a11.43 11.43 0 0 0-1.065-3.936h-3.506c.258 1.23.42 2.55.474 3.936m-12.06-9.572a11.583 11.583 0 0 0-4.584 3.669h2.84c.454-1.413 1.044-2.655 1.744-3.669m11.585 15.476h3.505a11.42 11.42 0 0 0 1.066-3.938h-4.097a23.527 23.527 0 0 1-.474 3.938"/><path d="M53.735 5.825v1.309c1 .429 1.704 1.382 1.704 2.504 0 1.121-.704 2.075-1.704 2.503v1.591c1.502.549 4.213 1.864 5.453 4.532 1.159 2.501 1.371 4.666 1.383 5.851h1.068v2.293H43.537v-2.293h1.068c.012-1.185.224-3.35 1.384-5.851 1.237-2.663 3.948-3.983 5.452-4.534v-1.59c-.999-.429-1.704-1.38-1.704-2.501 0-1.122.706-2.075 1.704-2.502V5.825H6.439v45.924s.006 2.066.689 5.503c.079-.027.16-.053.238-.081 4.919-1.68 13.799-4.559 19.679-4.559 5.88 0 8.039 1.559 13.679 1.559.651 0 1.279.015 1.895.037V43.896h19.938v10.65c3.994-.121 6.971-.005 10.567.646 4.979.899 8.04 4.139 11.579 4.679 3.539.541 6.658-.239 10.439-.059l2.312.108c1.279-5.013 1.283-8.172 1.283-8.172V5.825H53.735M24.421 40.15c-7.451 0-13.513-6.062-13.513-13.513s6.062-13.511 13.513-13.511c7.45 0 13.51 6.06 13.51 13.511s-6.06 13.513-13.51 13.513zm39.574 1.795H41.182v-2.294h3.455V28.375h15.901v11.276h3.457v2.294zm17.15-20.313c2.381-4.335 7.679-4.419 7.679-4.419.079-.086 0 13.175 0 13.175s-5.298.085-7.679 4.421V21.632zm-9.552-4.534s5.243.085 7.599 4.42v13.177c-2.355-4.336-7.599-4.421-7.599-4.421s-.076-13.262 0-13.176zm21.259 15.513L80.252 40l-12.607-7.389V18.346h1.965v13.139l10.643 6.237 10.635-6.237V18.346h1.965v14.265z"/><path d="M29.854 27.621h-4.451v3.938h3.94c.274-1.188.453-2.507.511-3.938m-4.451 10.317c1.279-.54 2.512-2.104 3.36-4.413h-3.36v4.413m3.676-.744a11.596 11.596 0 0 0 4.586-3.669h-2.84c-.455 1.413-1.046 2.657-1.746 3.669m21.383 8.735h4.251v7.355h-4.251zm-.744 42.074c-.324-.259-.829-.519-1.67-.868-.635.337-1.089.855-1.089 1.607 0 .906.648 1.49 1.66 1.49.906 0 1.528-.532 1.528-1.297-.001-.4-.142-.711-.429-.932m-1.089-2.073c.57-.285 1.245-.739 1.245-1.451 0-.688-.505-1.102-1.374-1.102-.83 0-1.375.453-1.375 1.126.001.754.896 1.181 1.504 1.427m7.194-2.514c-.505 0-.895.402-1.141 1.088-.207.559-.297 1.296-.297 2.217 0 .869.064 1.543.18 2.022.234 1.011.7 1.438 1.245 1.438.544 0 .983-.467 1.218-1.219.169-.557.246-1.296.246-2.163 0-.844-.064-1.426-.193-1.983-.248-1.011-.689-1.4-1.258-1.4"/><path d="M65.859 71.74v.047H39.364L20.163 83.814c6.84 8.364 17.082 17.088 32.433 24.439 15.388-7.365 25.637-16.105 32.469-24.481L65.859 71.74m-21.7 19.309h-4.108v-1.153h1.504v-5.754c-.13.078-.532.337-.882.505-.349.169-.83.376-.985.428l-.349-.765 2.604-1.827h1.011v7.413h1.205v1.153zm4.315.246c-1.49 0-3.058-.738-3.058-2.449 0-1.05.7-1.893 1.658-2.229-.79-.323-1.386-1.114-1.386-1.982 0-1.646 1.529-2.294 2.941-2.294 1.633 0 2.762.868 2.762 2.139 0 1.062-.83 1.659-1.725 1.995 1.258.519 2.048 1.142 2.048 2.216 0 1.672-1.75 2.604-3.24 2.604zm7.322-.052c-2.28 0-3.006-2.655-3.006-4.51 0-2.552 1.296-4.393 3.02-4.393 2.319 0 3.046 2.554 3.046 4.433 0 2.682-1.245 4.47-3.06 4.47zm7.257 0c-2.28 0-3.008-2.655-3.008-4.51 0-2.552 1.298-4.393 3.021-4.393 2.32 0 3.045 2.554 3.045 4.433.001 2.682-1.242 4.47-3.058 4.47z"/><path d="M63.079 83.416c-.506 0-.895.402-1.141 1.088-.207.559-.297 1.296-.297 2.217 0 .869.064 1.543.182 2.022.232 1.011.698 1.438 1.244 1.438.543 0 .984-.467 1.217-1.219.17-.557.246-1.296.246-2.163 0-.844-.064-1.426-.193-1.983-.247-1.011-.688-1.4-1.258-1.4m-24.17-26.92h27.359v1.965H38.909zm3.378 4.747H62.89v7.915H42.287v-7.915zm1.965 5.948h16.671v-3.982H44.252v3.982zm6.21-36.633h4.251v6.6h-4.251zm-3.599.01h1.311v6.586h-1.311zm10.138 0h1.311v6.586h-1.311zM53.837 9.641c0 .65-.559 1.18-1.248 1.18-.69 0-1.249-.529-1.249-1.18 0-.655.559-1.186 1.249-1.186.689 0 1.248.53 1.248 1.186m-14.52 55.02L16.572 79.003c.484.707.992 1.421 1.523 2.138L39.317 67.76v-3.099m26.541 3.209l21.184 13.389a72.18 72.18 0 0 0 1.527-2.136L65.858 64.77v3.1"/></svg>