<svg xmlns="http://www.w3.org/2000/svg" width="485.687" height="116.026" viewBox="0 0 485.687 116.026"><path d="M125.905 70.014l5.908-1.167.729-7.367V35.299l-.729-7.366-5.908-1.166v-2.188h15.752l3.722 10.72L156.39 63.96l11.303-28.733 3.43-10.648h15.751v2.188l-5.835 1.166-.803 7.366V61.48l.803 7.367 5.835 1.167v2.261h-20.127v-2.261l5.833-1.167.804-7.367V29.54l-12.545 31.94-3.719 10.795h-4.74l-3.939-10.795-12.617-31.94v31.94l.801 7.367 5.836 1.167v2.261h-16.556v-2.261m66.564 0l5.104-.948.729-5.544V48.499l-.729-5.614-5.835-.949v-2.261l13.564-1.311-.729 10.135v15.023l.729 5.544 5.104.948v2.261h-17.938v-2.261m3.793-44.778c0-2.48 2.041-4.597 4.595-4.597 2.479 0 4.597 2.044 4.597 4.668a4.56 4.56 0 0 1-4.597 4.521c-2.481 0-4.595-1.821-4.595-4.592zm17.025 32.308c0-11.378 7.148-19.401 17.504-19.401 2.043 0 3.647.221 5.616.657v-8.532l-.804-5.618-5.833-.946v-2.261l13.638-1.314-.804 10.139v33.254l.804 5.544 4.74.948v2.261l-11.741 1.531 1.093-6.928c-3.354 4.521-6.78 6.928-11.596 6.928-7.365 0-12.617-6.345-12.617-16.262m23.12 6.708V42.664c-2.041-.874-3.646-1.31-5.908-1.31-6.855 0-10.648 5.688-10.648 14.658 0 7.949 2.919 12.762 8.607 12.762 2.554 0 5.251-1.167 7.949-4.522zm14.374-6.708c0-11.378 7.148-19.401 17.504-19.401 2.042 0 3.646.221 5.615.657v-8.532l-.804-5.618-5.833-.946v-2.261l13.639-1.314-.805 10.139v33.254l.805 5.544 4.739.948v2.261l-11.741 1.531 1.094-6.928c-3.354 4.521-6.781 6.928-11.596 6.928-7.366 0-12.617-6.345-12.617-16.262m23.119 6.708V42.664c-2.04-.874-3.646-1.31-5.908-1.31-6.855 0-10.647 5.688-10.647 14.658 0 7.949 2.918 12.762 8.607 12.762 2.551 0 5.251-1.167 7.948-4.522zm16.345 5.762l5.104-.948.804-5.544V30.268l-.804-5.618-5.833-.945v-2.262l13.567-1.314-.733 10.139v33.254l.804 5.544 5.033.948v2.261h-17.942v-2.261M310.8 56.302c0-11.084 5.616-18.159 14.731-18.159 7.658 0 12.981 4.959 12.688 15.316h-21.075s-.072 1.02-.072 1.604c0 8.239 4.012 14.074 11.741 14.074 2.333 0 4.959-.582 7.509-2.48l1.461 1.971c-4.158 3.792-7.293 5.178-12.545 5.178-8.678 0-14.438-6.27-14.438-17.504m15.9-5.759l4.957-.73c0-5.761-2.699-8.751-6.71-8.751-4.083 0-6.926 3.062-7.73 9.481h9.483zm18.624 21.732V30.268l-.729-5.618-5.833-.946v-2.261l13.562-1.314-.729 10.139v13.71c2.697-3.573 6.637-5.835 11.088-5.835 7.001 0 11.885 5.98 11.885 15.243 0 11.305-6.78 20.42-19.911 20.42-3.061 0-5.175 0-9.333-1.531m22.829-16.554c0-7.513-3.211-12.619-8.096-12.619-2.99 0-5.835 1.24-8.461 4.304v16.116l.729 6.347c1.752.583 2.99.876 4.888.876 7.512 0 10.94-6.711 10.94-15.024zm14.878 6.708v-13.93l-.804-5.614-5.689-.949v-2.261l13.494-1.311-.732 10.135v12.252c0 5.032 2.335 8.096 6.929 8.096 3.138 0 5.98-1.896 8.022-4.375V48.499l-.729-5.614-5.689-.949v-2.261l13.491-1.311-.801 10.135v15.023l.801 5.544 5.251.948v2.261l-12.324 1.312.805-6.563c-3.43 4.74-6.494 6.782-11.67 6.782-6.42 0-10.355-4.083-10.355-11.377m69.691 27.131v-2.48l7.293-1.166 3.136-5.107 3.137-7.365-10.212-24.943-2.99-5.687-3.283-.876v-2.262h15.974v2.262l-4.668.876 1.753 5.687 6.561 16.847 6.127-16.847 1.603-5.687-4.592-.876v-2.262h13.126v2.262l-3.719.876-2.77 5.687-15.9 42.007-10.576-.946m-9.733-50.437c-4.139 0-7.406 2.317-10.459 7.452-.008-.079-.022-.156-.027-.235l.011-.851c.025-.371.066-.741.109-1.112l.276-2.43.404-3.554-12.823 1.31v2.26l5.829.946.8 5.608v15.005l-.8 5.537-5.098.946v2.259h18.716v-2.259l-5.825-.946-.799-5.537V49.745c0-.093.005-.192.012-.294 2.111-2.61 4.943-3.554 7.124-3.554 1.53 0 3.06.51 4.298 1.093l1.823-7.356c-1.53-.439-2.259-.511-3.571-.511M52.617 116.026l-.567-.272C25.272 102.909 12.553 86.642 6.599 75.256.101 62.831.001 53.541 0 53.152V0h105.176v53.148c0 .39-.073 9.677-6.553 22.104-5.936 11.385-18.639 27.652-45.44 40.502l-.566.272M2.621 2.621v50.527c.001.085.123 9.153 6.379 21.045 5.74 10.905 17.96 26.477 43.616 38.924 25.677-12.453 37.882-28.021 43.604-38.926 6.237-11.89 6.334-20.955 6.334-21.043V2.621H2.621z"/><path d="M33.667 19.753a11.601 11.601 0 0 0-4.587-3.67c.7 1.013 1.291 2.256 1.746 3.67h2.841m-8.264-4.415v4.415h3.36c-.848-2.31-2.081-3.876-3.36-4.415m-6.417 10.317h4.451v-3.936h-3.94a21.231 21.231 0 0 0-.511 3.936m1.09-5.902h3.361v-4.416c-1.28.539-2.513 2.105-3.361 4.416m-.579 11.806h3.94v-3.938h-4.451c.057 1.431.236 2.75.511 3.938m3.94 6.38v-4.414h-3.36c.847 2.31 2.08 3.876 3.36 4.414m-6.416-10.318h-4.098c.119 1.4.493 2.725 1.067 3.938h3.504a23.74 23.74 0 0 1-.473-3.938m12.322-5.902h-3.94v3.936h4.451a21.402 21.402 0 0 0-.511-3.936m-11.849 0H13.99a11.43 11.43 0 0 0-1.066 3.936h4.098a23.61 23.61 0 0 1 .472-3.936m-2.32 11.806a11.6 11.6 0 0 0 4.585 3.668c-.701-1.013-1.29-2.255-1.745-3.668h-2.84m16.645-7.87h4.097a11.43 11.43 0 0 0-1.065-3.936h-3.506c.258 1.23.42 2.55.474 3.936m-12.06-9.572a11.583 11.583 0 0 0-4.584 3.669h2.84c.454-1.413 1.044-2.655 1.744-3.669m11.585 15.476h3.505a11.42 11.42 0 0 0 1.066-3.938h-4.097a23.527 23.527 0 0 1-.474 3.938"/><path d="M53.735 5.825v1.309c1 .429 1.704 1.382 1.704 2.504 0 1.121-.704 2.075-1.704 2.503v1.591c1.502.549 4.213 1.864 5.453 4.532 1.16 2.501 1.372 4.666 1.383 5.851h1.069v2.293H43.537v-2.293h1.068c.012-1.185.224-3.35 1.384-5.851 1.237-2.663 3.948-3.983 5.452-4.534v-1.59c-.999-.429-1.704-1.38-1.704-2.501 0-1.122.706-2.075 1.704-2.502V5.825H6.439v45.924s.006 2.066.689 5.503c.079-.027.16-.053.238-.081 4.919-1.68 13.799-4.559 19.679-4.559 5.88 0 8.039 1.559 13.679 1.559.651 0 1.279.015 1.895.037V43.896h19.938v10.65c3.994-.121 6.97-.005 10.567.646 4.979.899 8.04 4.139 11.579 4.679 3.54.541 6.659-.239 10.44-.059l2.312.108c1.28-5.013 1.283-8.172 1.283-8.172V5.825H53.735M24.421 40.15c-7.451 0-13.513-6.062-13.513-13.513s6.062-13.511 13.513-13.511c7.45 0 13.51 6.06 13.51 13.511s-6.06 13.513-13.51 13.513zm39.574 1.795H41.182v-2.294h3.455V28.375h15.901v11.276h3.458v2.294zm17.15-20.313c2.381-4.335 7.679-4.419 7.679-4.419.079-.086 0 13.175 0 13.175s-5.298.085-7.679 4.421V21.632zm-9.552-4.534s5.244.085 7.599 4.42v13.177c-2.355-4.336-7.599-4.421-7.599-4.421s-.076-13.262 0-13.176zm21.259 15.513L80.253 40l-12.608-7.389V18.346h1.966v13.139l10.643 6.237 10.634-6.237V18.346h1.965v14.265z"/><path d="M29.854 27.621h-4.451v3.938h3.94c.274-1.188.453-2.507.511-3.938m-4.451 10.317c1.279-.54 2.512-2.104 3.36-4.413h-3.36v4.413m3.676-.744a11.596 11.596 0 0 0 4.586-3.669h-2.84c-.455 1.413-1.046 2.657-1.746 3.669m21.383 8.735h4.251v7.355h-4.251zm-.744 42.074c-.324-.259-.829-.519-1.67-.868-.635.337-1.089.855-1.089 1.607 0 .906.648 1.49 1.66 1.49.906 0 1.528-.532 1.528-1.297-.001-.4-.142-.711-.429-.932m-1.089-2.073c.57-.285 1.245-.739 1.245-1.451 0-.688-.505-1.102-1.374-1.102-.83 0-1.375.453-1.375 1.126.001.754.896 1.181 1.504 1.427m7.194-2.514c-.505 0-.895.402-1.141 1.088-.208.559-.298 1.296-.298 2.217 0 .869.064 1.543.181 2.022.234 1.011.7 1.438 1.245 1.438.544 0 .983-.467 1.218-1.219.168-.557.246-1.296.246-2.163 0-.844-.065-1.426-.194-1.983-.247-1.011-.688-1.4-1.257-1.4"/><path d="M65.859 71.74v.047H39.364L20.163 83.814c6.84 8.364 17.082 17.088 32.433 24.439 15.388-7.365 25.637-16.105 32.468-24.481L65.859 71.74m-21.7 19.309h-4.108v-1.153h1.504v-5.754c-.13.078-.532.337-.882.505-.349.169-.83.376-.985.428l-.349-.765 2.604-1.827h1.011v7.413h1.205v1.153zm4.315.246c-1.49 0-3.058-.738-3.058-2.449 0-1.05.7-1.893 1.658-2.229-.79-.323-1.386-1.114-1.386-1.982 0-1.646 1.529-2.294 2.941-2.294 1.633 0 2.762.868 2.762 2.139 0 1.062-.83 1.659-1.725 1.995 1.258.519 2.048 1.142 2.048 2.216 0 1.672-1.75 2.604-3.24 2.604zm7.322-.052c-2.28 0-3.006-2.655-3.006-4.51 0-2.552 1.296-4.393 3.02-4.393 2.319 0 3.045 2.554 3.045 4.433 0 2.682-1.244 4.47-3.059 4.47zm7.257 0c-2.28 0-3.007-2.655-3.007-4.51 0-2.552 1.297-4.393 3.021-4.393 2.321 0 3.045 2.554 3.045 4.433 0 2.682-1.243 4.47-3.059 4.47z"/><path d="M63.079 83.416c-.506 0-.895.402-1.141 1.088-.208.559-.298 1.296-.298 2.217 0 .869.064 1.543.182 2.022.233 1.011.699 1.438 1.244 1.438.543 0 .985-.467 1.218-1.219.169-.557.246-1.296.246-2.163 0-.844-.065-1.426-.194-1.983-.246-1.011-.687-1.4-1.257-1.4m-24.17-26.92h27.359v1.965H38.909zm3.378 4.747H62.89v7.915H42.287v-7.915zm1.965 5.948h16.671v-3.982H44.252v3.982zm6.21-36.633h4.251v6.6h-4.251zm-3.599.01h1.311v6.586h-1.311zm10.138 0h1.311v6.586h-1.311zM53.837 9.641c0 .65-.559 1.18-1.248 1.18-.69 0-1.249-.529-1.249-1.18 0-.655.559-1.186 1.249-1.186.689 0 1.248.53 1.248 1.186m-14.52 55.02L16.572 79.003c.484.707.992 1.421 1.523 2.138L39.317 67.76v-3.099m26.541 3.209l21.184 13.389a70.382 70.382 0 0 0 1.527-2.136L65.858 64.77v3.1"/></svg>