<svg xmlns="http://www.w3.org/2000/svg" width="389.458" height="228.368" viewBox="0 0 389.458 228.368"><path fill="#06132D" d="M-5.271-.382h400v38.5h-400z"/><path fill="#B8002A" d="M7.526 21.618h13.5v51h-13.5zm29.958-14h13.5v51h-13.5z"/><path fill="#FD0029" d="M67.443 4.118h13.5v51h-13.5z"/><path fill="#FE3400" d="M97.401 11.118h13.5v51h-13.5z"/><path fill="#FF9100" d="M127.359 26.118h13.5v51h-13.5z"/><path fill="#FFA400" d="M157.318-.382h13.5v51h-13.5z"/><path fill="#FFC500" d="M187.276 9.618h13.5v51h-13.5z"/><path fill="#928D3B" d="M217.233 9.618h13.5v51h-13.5z"/><path fill="#969E31" d="M247.192 25.618h13.5v51h-13.5z"/><path fill="#E8D726" d="M277.151-.382h13.5v51h-13.5z"/><path fill="#E8E200" d="M307.108 5.118h13.5v51h-13.5z"/><path fill="#FFDF25" d="M337.067 21.118h13.5v51h-13.5z"/><path fill="#BE000A" d="M367.026 10.118h13.5v51h-13.5z"/></svg>