<?xml version="1.0" encoding="utf-8"?>
<!-- Generator: Adobe Illustrator 15.0.2, SVG Export Plug-In . SVG Version: 6.00 Build 0)  -->
<!DOCTYPE svg PUBLIC "-//W3C//DTD SVG 1.1//EN" "http://www.w3.org/Graphics/SVG/1.1/DTD/svg11.dtd">
<svg version="1.1" id="Layer_1" xmlns="http://www.w3.org/2000/svg" xmlns:xlink="http://www.w3.org/1999/xlink" x="0px" y="0px"
	 width="200.115px" height="65.325px" viewBox="0 6.167 200.115 65.325" enable-background="new 0 6.167 200.115 65.325"
	 xml:space="preserve">
<path fill="#9FC0E6" fill-opacity="0.2" d="M185.642,6.167c-7.982,0-14.479,6.495-14.479,14.479c0,6.459,4.32,12.146,10.537,13.914
	v11.156c0,9.863-8.025,17.891-17.892,17.891H0v7.885h163.809c14.211,0,25.774-11.562,25.774-25.773V34.562
	c6.213-1.767,10.531-7.457,10.531-13.916C200.115,12.662,193.623,6.167,185.642,6.167z M185.642,28.449
	c-4.307,0-7.811-3.502-7.811-7.803c0-4.308,3.504-7.811,7.811-7.811c4.302,0,7.803,3.503,7.803,7.811
	C193.444,24.947,189.943,28.449,185.642,28.449z"/>
</svg>
