<?xml version="1.0" encoding="utf-8"?>
<!DOCTYPE svg PUBLIC "-//W3C//DTD SVG 1.1//EN" "http://www.w3.org/Graphics/SVG/1.1/DTD/svg11.dtd">
<svg version="1.1" id="Layer_1" xmlns="http://www.w3.org/2000/svg" xmlns:xlink="http://www.w3.org/1999/xlink" x="0px" y="0px"
	 width="232.37px" height="102.312px" viewBox="0 0 232.37 102.312" enable-background="new 0 0 232.37 102.312"
	 xml:space="preserve">
<path fill="#9FC0E6" fill-opacity="0.2" d="M185.642,26.167c-7.983,0-14.479,6.495-14.479,14.479c0,6.459,4.321,12.146,10.537,13.914v11.157
	c0,9.863-8.024,17.89-17.891,17.89H0v7.885h163.809c14.211,0,25.774-11.562,25.774-25.773V54.562
	c6.213-1.766,10.531-7.457,10.531-13.916C200.115,32.662,193.622,26.167,185.642,26.167z M185.642,48.449
	c-4.306,0-7.81-3.502-7.81-7.803c0-4.307,3.504-7.81,7.81-7.81c4.302,0,7.803,3.503,7.803,7.81
	C193.444,44.947,189.943,48.449,185.642,48.449z"/>
</svg>
