<svg id="Layer_1" xmlns="http://www.w3.org/2000/svg" width="518.2" height="100" viewBox="0 0 518.2 100"><style>.st0,.st1{fill-rule:evenodd;clip-rule:evenodd;fill:#fff}</style><path class="st0" d="M79.4 70.9c1.2 1.5 2.8 2.7 4.6 3.4 0-.8.1-1.7.3-2.5-2.1-.4-2.4-.9-4.9-.9zm-2.3 0c.3 0 3.7 4 7.1 4.9.1.8.3 1.7.6 2.5-.4-.1-.8-.3-1.1-.4-3.2-1.4-5.5-3.9-6.6-7zM48.9 8.4c2.8-1.3 5.8-1.9 8.8-1.8 1.1.5 2.1 1.1 3.1 1.7 7 4.3 18.1 21.6 16.2 30.4-2.3-11.1-9.3-20.9-19.3-26.7-2.9-1.5-5.8-2.8-8.8-3.6zm31.2 23.8c.7-1.2 1.6-2.2 2.6-3.2-1 .1-1.8-.5-1.5-1.8.2-.7.8-1.2 1.6-1.1-.4.1-.6.5-.7.9-.2 1.6 1.7 1 1.6-.5 0-.7-.6-1.3-1.3-1.4-4.7.4-2.8 4.4-2.3 7.1zm2.2 53.3c-1-1.1-1.5-2.6-1.5-4.1-2.5-1.8-4.7-4.1-6.4-6.8 1.7 2.7 2.5 5.8 2.4 9 1.6 1.2 3.5 1.8 5.5 1.9zm-11.1 3.8c2.7-3.6 3.7-8.4 2.2-12.9 1.7 2.8 2.4 6.1 1.9 9.3-.2 2.2-.9 4.3-2 6.1-1-.5-1.7-1.4-2.1-2.5zm-32.1 1.4c11.2-1.2 22-6.1 30.4-14.1-3.4 9.5-13 15.5-23 14.3-3 2.1-6.4 3.6-10 4.3.5-1.8 1.4-3.3 2.6-4.5zm-2.7 5.1c-.1.3-.1.6-.1.9 1.9-.2 3.7-.6 5.2-1.5.7.6 1.3 1.4 1.9 2.3l3.9-.9c1.2-1.2 2.2-2.7 2.9-4.3-1 0-2 0-3-.1-3.3 2-7 3.3-10.8 3.6zm32.5-9c0 1.5-.1 3-.5 4.4 3.1-3.8 4.7-8.6 4.4-13.5-.7 3.4-2 6.5-3.9 9.1zm-5.7 1.3c-1.1.7-2.2 1.4-3.4 1.9-1.5 2.6-3.5 4.8-5.9 6.6 2.1-.7 4.2-1.6 6-2.7 1.3-1.8 2.4-3.8 3.3-5.8zm-1.7 4.8C67 89 71 83.1 72.3 76.2c-1.4 4.1-3.9 7.6-7 10.3-1.1 2.3-2.4 4.4-3.8 6.4zm-11.9 3c3.1-1 6.5-2.1 8.3-5-1.8.7-3.8 1.1-5.7 1.3-.7 1.3-1.6 2.5-2.6 3.7zm-3.1 1.4c-.7.6-1.4 1.1-2.3 1.6-.2-.4-.4-.7-.7-1.1 1-.2 2-.3 3-.5zM13.4 74.2c1.2.1 2.4.1 3.6 0 1.1 2.8 3 5 5.4 6.4l-1.5.3c-2.7-2-5.2-4.2-7.5-6.7zm9.3 8c.6-.1 1.1-.3 1.7-.5 2.5 1 5.3 1.2 8.1.4.1 1.1.5 2.2 1 3.2-1.2.4-2.4.8-3.7 1.1-2.4-1.3-4.8-2.7-7.1-4.2zm64.4-41.7c4.8-1.2 10.9.7 12.7 5.1 1 2.5.6 5.4-1.1 7.4-1.7 2.1-4.4 3-7 2.5 2.5.4 5-.6 6.5-2.6s1.8-4.7.7-7-3.4-3.7-5.9-3.8c2.4.9 3.9 3.4 3.6 6-.3 2.6-2.3 4.7-4.9 5s-5.1-1.1-6-3.6c.7 1.8 2.4 3 4.3 3.1 1.9.1 3.7-1 4.6-2.7.9-1.7.7-3.8-.5-5.3-1.2-2-3.3-3.2-5.6-3.3-2.3-.1-4.5.8-5.9 2.6 1.4-.6 3-.3 4.3.6 1.2.9 1.9 2.4 1.8 4-.4-1.8-1.7-3.2-3.5-3.6-7.6-1.9-9 12.1-8.3 16 .1.5.3 1.1.5 1.6 1.7 4.1 5.1 7.2 9.2 8.4.9.1 1.9.1 2.8 0 3.8-.4 7.3-2.4 9.6-5.4-2.2 3.5-5.8 5.8-9.9 6.4-1.3.2-2.5.2-3.8.1-.3.9-.4 1.8-.5 2.7.3.1.7.2 1 .3 3.5.8 7.1 0 10-2.1-2.8 2.7-6.7 4-10.5 3.3-.2 0-.3-.1-.5-.1 0 .8.2 1.7.4 2.5 3 .8 6.2.4 9-1.2-2.5 1.8-5.6 2.6-8.6 2.3.4 1.1 1 2.2 1.7 3.2-.9-1-1.7-2.1-2.3-3.3-.3 0-.7-.1-1-.2-3.5-.8-6.5-3.1-8.2-6.3 2.3 5.1 6.4 9.3 11.4 11.7-2.1-.7-4-1.7-5.8-2.9 0 1.3.4 2.5 1.1 3.5.9 0 1.9-.2 2.8-.6-.8.4-1.7.7-2.6.8.3.4.7.7 1.1 1-.5-.3-1-.6-1.4-1-1 .1-2 .1-3 0 .6 1.4 1.7 2.6 3.2 3.1-1.9-.3-3.5-1.5-4.2-3.3-.6-.2-1.2-.4-1.8-.7l-.3 1.8c-.1.6-.3 1.2-.5 1.8.6 1.3 1.9 2.3 3.3 2.6-1.5.1-2.9-.6-3.6-1.8-.4 1-1 2-1.6 2.9 1.3.6 2.7.7 4.1.3-1.4.6-3 .6-4.4.1-1.2 1.6-2.7 3-4.5 4.1 1.6-1.2 2.9-2.6 3.9-4.3-1-.5-1.9-1.2-2.6-2.1-.7.8-1.5 1.5-2.4 2.1-.8 2.3-2.1 4.3-3.8 6.1 1.5-1.6 2.5-3.5 3-5.5-.3.2-.5.3-.8.5l.9-.9c.3-1.3.4-2.6.3-4-.9 1.1-1.9 2.1-2.9 3-.9 1.6-1.2 3.6-.7 5.4-1.4 1-2.9 1.7-4.6 2.1 1.4-.6 2.7-1.5 3.8-2.6-.2-1.3-.2-2.7.3-4-1 .8-2.1 1.4-3.2 2-1.5 1.9-3.3 3.7-5.2 5.3 1.5-1.5 2.8-3.1 4.1-4.7-1.7.8-3.6 1.4-5.5 1.8-2 1.4-4.2 2.5-6.6 3.2 2.8-1.1 5.4-2.8 7.5-5-1.9.7-3.9 1.3-5.9 1.8-1.3 1.3-2.9 2.3-4.6 3.1-.3-.7-.7-1.4-1.2-2-1.7.2-3.4.3-5.1.4 1.7-.1 3.3-.3 4.9-.6-.5-.6-1-1.1-1.6-1.5-1.6.6-3.2.9-4.8 1.1v1c-.1-.3-.2-.6-.3-1-1.4.1-2.8 0-4.1-.2 1.3-.1 2.7-.2 4-.3-.1-.3-.1-.6-.1-.9-1.8.1-3.6 0-5.4-.3 1.8.1 3.6 0 5.4-.3 0-1.6.5-3.2 1.5-4.5-.6 0-1.3.1-1.9.1-2.8.9-5.4 2.4-7.7 4.2-2.3-2.3-5-4-8-5.2 3 .5 5.9 1.9 8.1 4.1 1.3-1.3 2.9-2.4 4.6-3.2-4.8-.1-9.6-.9-14.3-2.3 7 1.7 14.1 2 21 .9-1.8-.6-3.4-1.7-4.5-3.2-1.8.6-3.6 1-5.5 1.2-5 .5-10.1-.5-14.7-3.2 4.1 1.9 8.5 2.7 12.8 2.3-2.3-1.1-4.5-2.5-6.5-4.1-3.7.3-7.4-.7-10.5-3.1 2.8 1.1 5.7 1.6 8.6 1.6-1.2-1-2.3-2.2-3.4-3.4-1.4-1.2-2.7-2.5-3.9-3.9-3.8-1-7.2-3.5-9.3-7 2 2.7 4.8 4.5 7.9 5.3C4.7 65.7 1.3 57.9 0 49.6 2.1 58.2 6.2 66 11.8 72.5c1.8.2 3.7.1 5.6-.4 3.2 6.2 10.1 9.5 16.9 8 .3 1.4.8 2.8 1.5 4 2.2-1.1 4.2-2.5 6-4.2 9.3 1.3 18.6-2.1 24.7-9.2 3.1-3 4.6-7.4 4-11.7-.2-1.3-.5-2.5-1-3.6-1.9-4.1-5.6-7.1-9.9-8.2-3.5-.9-7.1.5-9.2 3.4a9.12 9.12 0 0 0-.5 9.9c1.8 3.1 5.3 4.8 8.9 4.3-3.9.8-7.8-.9-10-4.2s-2-7.7.3-10.9c.6-.8 1.3-1.5 2-2.1-3 1-5.6 3-7.4 5.5-.4 2.3-.1 4.8.9 6.9 1.4 3 3.9 5.4 7 6.5-5.2-1.2-9-5.6-9.5-10.8-3.1 6.9 1.9 14 9.2 14.4 5.6.4 10.5-3.5 11.6-9.1-.3 4.5-3.2 8.4-7.4 10.1-4.2 1.7-8.9.8-12.2-2.2-3.3-3-4.6-7.7-3.4-12.1 1.9-6.3 7.2-10.9 13.7-11.7 3.6-.5 7.2.3 10.3 2.1C39.4 29.1 37.1 61 16.6 55 8.6 52.7 4 45.1 5 36.9c-.1 2.7.4 5.4 1.5 7.7 0-.5.1-1.1.4-1.6.8-1.4 2.8-2.2 4.2-1.5 1.5.7 2.4 2.2 1.3 4.1 1.2-2.9-2-5.1-4.1-3.4-3.4 2.7 2.2 8.3 4.7 9.7 1 .6 2.2 1.1 3.4 1.5 4 1.2 8.2.9 11.8-.9-4.3.4-8.6-1.3-11.7-4.6 5.5 4.3 13.4 5.6 17.8-.6-3.2 1.1-6.7 1.2-10.1.3C14.1 44.9 6.5 32 16.6 25c4-2.8 9.1-2.2 13.1.7 8.8 6.2 6.6 17.4-6.7 17.6-4 .1-6.1-5.4-3.4-10.3.7-1.3 1.7-2.6 3.6-3.5 2.1-.7 4.5.2 5.6 2.2 1.1 1.9.7 4.4-.9 5.9 1.1-1.2 1.4-3 .7-4.5s-2.2-2.5-3.8-2.5c-5.1-.1-7.4 10.2-1.8 11.1 5.7.9 17.2-6.2 5.1-15.2-3.4-2.4-7.9-2.3-11.2.2-8.9 6.7-1.2 17.7 7.7 20.2 12.8 3.5 15.8-8 29.1-6.2-3.3-1.5-15.1-8.1-17-10.3 2.5 1.8 5.4 3.2 8.4 3.9-2.3-2.6-4.1-5.7-5.1-9.2C43.4 32 49.5 37.5 56.9 40c-.3-.4-.6-.9-.8-1.3-1.3-3-.4-6.6 2.2-8.6s6.3-1.9 8.8.2c-2-1.2-4.4-1.2-6.4 0-8.7 4.9 2.2 13 6.4 14.8l5.3 2.8c0-2.5.3-4.7.7-6.9 2.7-14.5-12.8-7.1-5.7-.8-1.6-1-2.5-2.8-2.4-4.7.1-1.9 1.2-3.6 2.9-4.4 1.2-.6 2.5-.6 3.7-.3-.6-1.2-1.2-2.3-1.9-3.4-10.9-4.3-20.4 10.6-27.9-5.6 9 13.5 15.5.9 26.2 3.1-.1-.1-.2-.3-.3-.4-3.4-2.7-7.3-4.5-11.4-5.4-1.6.1-3.2.9-4.2 2.3-.5.8-.5 1.8 0 2.5.5.8 1.5 1.1 2.4.9.8-.1 1.3-.8 1.3-1.6s-.6-1.4-1.4-1.5c.8-.1 1.6.3 2 .9.5.7.5 1.5.1 2.2-.9 1.2-2.5 1.7-3.9 1.2s-2.4-1.9-2.3-3.4c.1-1.6 1-3.1 2.4-4 .1-.1.2-.1.3-.2-4.2-.4-8.6.2-12.7 1.8 7.3-3.9 15.9-4 23.3-.5-1.8-1.7-3.7-3.2-5.7-4.6l-.1-.1c-3-1.1-6.1-1.7-9.2-2-3.2 3.1-5.6 4.5-10.4 2.4 3.8 1.1 6.4.3 8.8-2.5-5.3-.3-10.7.5-15.8 2.5 6.8-3.8 14.7-4.8 22.1-2.9-8.1-5-22.9-4.7-24.6 2.9-.8 3.6 2.3 11.3 6.8 7.6 2-1.6 1.9-5.9-.5-5.9-.8 0-1.5.6-1.6 1.4 0 .7.3 1.4.8 1.9s1.3.7 2 .6c-.9.6-2 .6-2.9 0-.9-.6-1.3-1.7-1.1-2.7.2-1 .9-1.8 1.9-2.1.9-.3 2-.2 2.7.5 3.3 2.8.7 8.4-3.4 8.3-2.9-.1-5.2-1.9-5.7-4.7-.4.7-.9 1.3-1.6 1.6-1.5.9-3.4.7-4.7-.4-.8-.7-1.1-1.9-.6-2.9.5-1 1.6-1.5 2.6-1.3.5.1.9.5 1.1 1 .1.5 0 1-.4 1.4-.4.4-.9.5-1.4.3.4.1.9-.2 1-.6.1-.4-.1-.9-.6-1-.7.1-1.2.5-1.4 1.2-.2.7 0 1.4.6 1.8 1.6.6 3.5.1 4.6-1.2.2-.2.4-.5.6-.8-.7-4.1.4-5.8 1.7-7.6-15.7 2.9-19.3 11-23.1 22.6C9.8 13.9 21.2 11.7 31.8 8.6c-5.7.5-11.3 2.2-16.4 5.1 9.8-6.7 22-8.6 33.1-5.5 1.9-1.5 4.2-2.5 6.6-2.7-9.4-3.7-20-3.3-29.2 1.3C48.2-4.7 67.8 3.6 77.6 24.1c-.2-2-.7-3.9-1.3-5.8-.1-.2-.2-.5-.2-.7C74 11.6 66.3 0 52.9 0c14 0 20.7 9.4 23.1 14.3.4-2 1.6-3.8 3.5-4.9-1.7 2-2.6 4.5-2.6 7 1.1 2.9 1.8 5.9 1.9 9.1 0-.1.1-.1.1-.2 1.1-1.2 2.8-1.5 4.2-.9 1.1.5 1.7 1.7 1.4 2.9v.1c2.2-1.6 4.6-2.7 5-5.2.4-2-.2-4.3-2.5-4.7-.3-.1-.6-.1-.9-.1-.6 0-1.2.3-1.7.6-.8.5-1.2 1.6-.8 2.5.4.9 1.4 1.4 2.4 1.1.6-.2 1-.8.9-1.5-.1-.6-.5-1.2-1.2-1.3.9.1 1.6.7 1.8 1.5.2.9-.1 1.8-.8 2.3-.7.5-1.7.5-2.4-.1-1.5-.8-2.1-2.7-1.4-4.3.7-1.6 2.7-2.3 4.3-1.8 2 .9 3.4 2.9 3.5 5.1.1 5.3-7.1 6.2-10.5 12.7 0 .1 0 .3.1.4 1.1-2.3 2.9-4.1 5.1-5.4 3-1.7 6.5-2 9.8-.9-3.4-.9-6.9-.2-9.7 1.9-2.5 1.9-4.1 4.7-4.5 7.8 4.6-1.8 6.6-4.7 6.9-8 0 4-1.7 7.8-4.6 10.4 4.9-2.4 15.8-5.6 13.2-13 2.9 8-3.5 10.5-9.4 13.1zM36.7 85.3c1.3 1.6 2.9 2.9 4.9 3.6 10.2-2.2 19.8-7.5 27.2-15.4-6.8 7.2-16.8 10.2-26.3 8-1.8 1.6-3.8 2.9-5.8 3.8z"/><path class="st1" d="M249.4 29.1v8h22.1c1.9 0 3.8-.5 3.8-2.7v-2.5c0-2.3-1.9-2.7-3.8-2.7h-22.1v-.1zm17.3 13.8h-17.3v15.2h-7.3V23.2h29.4c1.7 0 3.4.1 5.1.6 1.2.4 2.5.9 3.5 1.8.9.8 1.6 1.7 2 2.8.4 1.1.6 2.3.6 3.5v2.4c0 2.2-.6 4.1-2 5.8-1.5 1.7-3.9 2.4-6.1 2.7l8.1 15.4h-7.8l-8.2-15.3zm26.6-13.8v8h22.1c1.9 0 3.8-.5 3.8-2.7v-2.5c0-2.3-1.9-2.7-3.8-2.7h-22.1v-.1zm17.2 13.8h-17.3v15.2H286V23.2h29.4c1.7 0 3.4.1 5.1.6 1.2.4 2.5.9 3.5 1.8.9.8 1.6 1.7 2 2.8.4 1.1.6 2.3.6 3.5v2.4c0 2.2-.6 4.1-2 5.8-1.5 1.7-3.9 2.4-6.1 2.7l8.1 15.4h-7.8l-8.3-15.3zM213.9 31l-17.6 27.1h-8.2l23.2-34.9h5.2l23 34.9h-8.2zm140.2 0l-17.6 27.1h-8.2l23.2-34.9h5.2l23 34.9h-8.2zm27.4 27.1v-5.9h30c1.9 0 3.8-.5 3.8-2.7v-4.3c0-2.3-1.9-2.7-3.8-2.7h-20c-1.7 0-3.4-.1-5.1-.6-1.2-.4-2.5-.9-3.5-1.8-.9-.8-1.6-1.7-2-2.8-.4-1.1-.6-2.3-.6-3.5v-2c0-1.2.2-2.4.6-3.5.4-1.1 1.1-2 2-2.8 1-.8 2.2-1.4 3.5-1.8 1.6-.5 3.4-.6 5.1-.6h29.3V29h-29.3c-1.9 0-3.8.5-3.8 2.7v2.1c0 2.3 1.9 2.7 3.8 2.7h20c1.7 0 3.4.1 5.1.6 1.2.4 2.5.9 3.5 1.8.9.8 1.6 1.7 2 2.8.4 1.1.6 2.3.6 3.5v4.2c0 1.2-.2 2.4-.6 3.5-.4 1.1-1.1 2-2 2.8-1 .8-2.2 1.4-3.5 1.8-1.6.5-3.4.6-5.1.6h-30zM445.7 44l-22.5-20.8h9.5l16.7 15.4L466 23.2h9.4L453 44v14.1h-7.3zm31.4 14.1v-5.9h30c1.9 0 3.8-.5 3.8-2.7v-4.3c0-2.3-1.9-2.7-3.8-2.7h-20c-1.7 0-3.4-.1-5.1-.6-1.2-.4-2.5-.9-3.5-1.8-.9-.8-1.6-1.7-2-2.8-.4-1.1-.6-2.3-.6-3.5v-2c0-1.2.2-2.4.6-3.5.4-1.1 1.1-2 2-2.8 1-.8 2.2-1.4 3.5-1.8 1.6-.5 3.4-.6 5.1-.6h29.3V29h-29.3c-1.9 0-3.8.5-3.8 2.7v2.1c0 2.3 1.9 2.7 3.8 2.7h20c1.7 0 3.4.1 5.1.6 1.2.4 2.5.9 3.5 1.8.9.8 1.6 1.7 2 2.8.4 1.1.6 2.3.6 3.5v4.2c0 1.2-.2 2.4-.6 3.5-.4 1.1-1.1 2-2 2.8-1 .8-2.2 1.4-3.5 1.8-1.6.5-3.4.6-5.1.6h-30zm-296.4 0l-47.2-35.5v35.5h-7.3V12.5h7.2l44.1 33.9V12.5h7.3v45.6z"/><path class="st0" d="M157.1 87.5V82h-9.8v5.5H145v-12h2.3v4.8h9.8v-4.8h2.3v12h-2.3zm7.2 0v-12h12.3v1.8h-10.1v3h9.6v1.8h-9.6v3.7h10.1v1.8h-12.3v-.1zm48.8 0l-12.8-9.3v9.3h-2v-12h2l11.9 8.9v-8.9h2v12h-1.1zm19.9 0l-6.2-9.7-6.3 9.7H218l8-12h1.7l7.9 12H233zm18.1-9.1c0-.7-.5-1.1-1.5-1.1h-7.9v3.1h7.9c1 0 1.5-.4 1.5-1.1v-.9zm-.3 9.1l-2.8-5.3h-6.3v5.3h-2.3v-12h10.2c.7 0 1.3.1 1.7.2.5.1.9.3 1.2.6.3.3.5.6.7.9.1.4.2.7.2 1.2v.9c0 .8-.2 1.4-.7 1.9-.5.5-1.2.8-2.3.9l2.8 5.4h-2.4zm18.8-9.1c0-.7-.5-1.1-1.5-1.1h-7.9v3.1h7.9c1 0 1.5-.4 1.5-1.1v-.9zm-.3 9.1l-2.8-5.3h-6.3v5.3h-2.3v-12h10.2c.7 0 1.3.1 1.7.2.5.1.9.3 1.2.6.3.3.5.6.7.9.1.4.2.7.2 1.2v.9c0 .8-.2 1.4-.7 1.9-.5.5-1.2.8-2.3.9l2.8 5.4h-2.4zm20.9 0l-6.2-9.7-6.3 9.7h-2.5l8-12h1.7l7.9 12h-2.6zm9 0V77.3h-6.3v-1.8h14.7v1.8h-6.1v10.2h-2.3zm12.7 0v-12h2.3v12h-2.3zm14.1 0l-8-12h2.6l6.3 9.7 6.2-9.7h2.5l-7.9 12H326zm13.4 0v-12h12.3v1.8h-10.1v3h9.6v1.8h-9.6v3.7h10.1v1.8h-12.3v-.1zm45.4-9.1c0-.7-.5-1.1-1.5-1.1h-7.6v4h7.6c1 0 1.5-.4 1.5-1.1v-1.8zm-9.1 4.7v4.4h-2.3v-12h9.8c.7 0 1.3.1 1.7.2.5.1.9.3 1.2.6.3.3.5.6.7.9.1.4.2.7.2 1.2v1.8c0 .4-.1.8-.2 1.2-.1.4-.4.7-.7.9-.3.3-.7.5-1.2.6-.5.1-1.1.2-1.7.2h-7.5zm15.6 4.4v-12h2.3v10.2h9.7v1.8h-12zm30.2 0l-6.2-9.7-6.3 9.7h-2.5l8-12h1.7l7.9 12h-2.6zm9 0V77.3h-6.3v-1.8h14.7v1.8h-6.1v10.2h-2.3zm14.9-4.9v4.9h-2.3v-12h12.3v1.8h-10.1v3.5h9.4v1.8h-9.3zm27.1-4.2c0-.7-.5-1.1-1.5-1.1h-8c-1 0-1.5.4-1.5 1.1v6.2c0 .7.5 1.1 1.5 1.1h7.9c1 0 1.5-.4 1.5-1.1v-6.2h.1zm-9.5 9.1c-.7 0-1.3-.1-1.7-.2-.5-.1-.9-.3-1.2-.6-.3-.3-.5-.6-.7-.9-.1-.4-.2-.7-.2-1.2v-6.2c0-.4.1-.8.2-1.2.1-.4.4-.7.7-.9.3-.3.7-.5 1.2-.6.5-.1 1.1-.2 1.7-.2h7.9c.7 0 1.3.1 1.7.2.5.1.9.3 1.2.6.3.3.5.6.7.9.1.4.2.7.2 1.2v6.2c0 .4-.1.8-.2 1.2-.1.4-.4.7-.7.9-.3.3-.7.5-1.2.6-.5.1-1.1.2-1.7.2H463zm28.3-9.1c0-.7-.5-1.1-1.5-1.1h-7.9v3.1h7.9c1 0 1.5-.4 1.5-1.1v-.9zm-.3 9.1l-2.8-5.3h-6.3v5.3h-2.3v-12h10.2c.7 0 1.3.1 1.7.2.5.1.9.3 1.2.6.3.3.5.6.7.9.1.4.2.7.2 1.2v.9c0 .8-.2 1.4-.7 1.9-.5.5-1.2.8-2.3.9l2.8 5.4H491zm23.2 0v-8.4l-6.1 8.4h-1.9l-6.1-8.4v8.4H498v-12h2.1l7.1 9.8 7.1-9.8h1.9v12h-2zm-381.7 0V77.3h-6.3v-1.8h14.7v1.8h-6.1v10.2h-2.3z"/></svg>