<?xml version="1.0" encoding="utf-8"?>
<!-- Generator: Adobe Illustrator 20.1.0, SVG Export Plug-In . SVG Version: 6.00 Build 0)  -->
<svg version="1.1" id="Layer_1" xmlns="http://www.w3.org/2000/svg" xmlns:xlink="http://www.w3.org/1999/xlink" x="0px" y="0px"
	 width="518.2px" height="100px" viewBox="0 0 518.2 100" style="enable-background:new 0 0 518.2 100;" xml:space="preserve">
<style type="text/css">
	.st0{fill-rule:evenodd;clip-rule:evenodd;fill:#FFFFFF;}
	.st1{fill-rule:evenodd;clip-rule:evenodd;fill:#FFFFFF;}
</style>
<path class="st0" d="M79.4,70.9c1.2,1.5,2.8,2.7,4.6,3.4c0-0.8,0.1-1.7,0.3-2.5C82.2,71.4,81.9,70.9,79.4,70.9L79.4,70.9z
	 M77.1,70.9c0.3,0,3.7,4,7.1,4.9c0.1,0.8,0.3,1.7,0.6,2.5c-0.4-0.1-0.8-0.3-1.1-0.4C80.5,76.5,78.2,74,77.1,70.9L77.1,70.9z
	 M48.9,8.4c2.8-1.3,5.8-1.9,8.8-1.8c1.1,0.5,2.1,1.1,3.1,1.7c7,4.3,18.1,21.6,16.2,30.4c-2.3-11.1-9.3-20.9-19.3-26.7
	C54.8,10.5,51.9,9.2,48.9,8.4L48.9,8.4z M80.1,32.2c0.7-1.2,1.6-2.2,2.6-3.2c-1,0.1-1.8-0.5-1.5-1.8c0.2-0.7,0.8-1.2,1.6-1.1
	c-0.4,0.1-0.6,0.5-0.7,0.9c-0.2,1.6,1.7,1,1.6-0.5c0-0.7-0.6-1.3-1.3-1.4C77.7,25.5,79.6,29.5,80.1,32.2L80.1,32.2z M82.3,85.5
	c-1-1.1-1.5-2.6-1.5-4.1c-2.5-1.8-4.7-4.1-6.4-6.8c1.7,2.7,2.5,5.8,2.4,9C78.4,84.8,80.3,85.4,82.3,85.5L82.3,85.5z M71.2,89.3
	c2.7-3.6,3.7-8.4,2.2-12.9c1.7,2.8,2.4,6.1,1.9,9.3c-0.2,2.2-0.9,4.3-2,6.1C72.3,91.3,71.6,90.4,71.2,89.3L71.2,89.3z M39.1,90.7
	c11.2-1.2,22-6.1,30.4-14.1c-3.4,9.5-13,15.5-23,14.3c-3,2.1-6.4,3.6-10,4.3C37,93.4,37.9,91.9,39.1,90.7L39.1,90.7z M36.4,95.8
	c-0.1,0.3-0.1,0.6-0.1,0.9c1.9-0.2,3.7-0.6,5.2-1.5c0.7,0.6,1.3,1.4,1.9,2.3c1.3-0.3,2.6-0.6,3.9-0.9c1.2-1.2,2.2-2.7,2.9-4.3
	c-1,0-2,0-3-0.1C43.9,94.2,40.2,95.5,36.4,95.8L36.4,95.8z M68.9,86.8c0,1.5-0.1,3-0.5,4.4c3.1-3.8,4.7-8.6,4.4-13.5
	C72.1,81.1,70.8,84.2,68.9,86.8L68.9,86.8z M63.2,88.1c-1.1,0.7-2.2,1.4-3.4,1.9c-1.5,2.6-3.5,4.8-5.9,6.6c2.1-0.7,4.2-1.6,6-2.7
	C61.2,92.1,62.3,90.1,63.2,88.1L63.2,88.1z M61.5,92.9C67,89,71,83.1,72.3,76.2c-1.4,4.1-3.9,7.6-7,10.3
	C64.2,88.8,62.9,90.9,61.5,92.9L61.5,92.9z M49.6,95.9c3.1-1,6.5-2.1,8.3-5c-1.8,0.7-3.8,1.1-5.7,1.3C51.5,93.5,50.6,94.7,49.6,95.9
	L49.6,95.9z M46.5,97.3c-0.7,0.6-1.4,1.1-2.3,1.6c-0.2-0.4-0.4-0.7-0.7-1.1C44.5,97.6,45.5,97.5,46.5,97.3L46.5,97.3z M13.4,74.2
	c1.2,0.1,2.4,0.1,3.6,0c1.1,2.8,3,5,5.4,6.4c-0.5,0.1-1,0.2-1.5,0.3C18.2,78.9,15.7,76.7,13.4,74.2L13.4,74.2z M22.7,82.2
	c0.6-0.1,1.1-0.3,1.7-0.5c2.5,1,5.3,1.2,8.1,0.4c0.1,1.1,0.5,2.2,1,3.2c-1.2,0.4-2.4,0.8-3.7,1.1C27.4,85.1,25,83.7,22.7,82.2
	L22.7,82.2z M87.1,40.5c4.8-1.2,10.9,0.7,12.7,5.1c1,2.5,0.6,5.4-1.1,7.4c-1.7,2.1-4.4,3-7,2.5c2.5,0.4,5-0.6,6.5-2.6
	c1.5-2,1.8-4.7,0.7-7c-1.1-2.3-3.4-3.7-5.9-3.8c2.4,0.9,3.9,3.4,3.6,6c-0.3,2.6-2.3,4.7-4.9,5s-5.1-1.1-6-3.6c0.7,1.8,2.4,3,4.3,3.1
	c1.9,0.1,3.7-1,4.6-2.7c0.9-1.7,0.7-3.8-0.5-5.3c-1.2-2-3.3-3.2-5.6-3.3c-2.3-0.1-4.5,0.8-5.9,2.6c1.4-0.6,3-0.3,4.3,0.6
	c1.2,0.9,1.9,2.4,1.8,4c-0.4-1.8-1.7-3.2-3.5-3.6C77.6,43,76.2,57,76.9,60.9c0.1,0.5,0.3,1.1,0.5,1.6c1.7,4.1,5.1,7.2,9.2,8.4
	c0.9,0.1,1.9,0.1,2.8,0c3.8-0.4,7.3-2.4,9.6-5.4c-2.2,3.5-5.8,5.8-9.9,6.4c-1.3,0.2-2.5,0.2-3.8,0.1c-0.3,0.9-0.4,1.8-0.5,2.7
	c0.3,0.1,0.7,0.2,1,0.3c3.5,0.8,7.1,0,10-2.1c-2.8,2.7-6.7,4-10.5,3.3c-0.2,0-0.3-0.1-0.5-0.1c0,0.8,0.2,1.7,0.4,2.5
	c3,0.8,6.2,0.4,9-1.2c-2.5,1.8-5.6,2.6-8.6,2.3c0.4,1.1,1,2.2,1.7,3.2c-0.9-1-1.7-2.1-2.3-3.3c-0.3,0-0.7-0.1-1-0.2
	c-3.5-0.8-6.5-3.1-8.2-6.3c2.3,5.1,6.4,9.3,11.4,11.7c-2.1-0.7-4-1.7-5.8-2.9c0,1.3,0.4,2.5,1.1,3.5c0.9,0,1.9-0.2,2.8-0.6
	c-0.8,0.4-1.7,0.7-2.6,0.8c0.3,0.4,0.7,0.7,1.1,1c-0.5-0.3-1-0.6-1.4-1c-1,0.1-2,0.1-3,0c0.6,1.4,1.7,2.6,3.2,3.1
	c-1.9-0.3-3.5-1.5-4.2-3.3c-0.6-0.2-1.2-0.4-1.8-0.7c-0.1,0.6-0.2,1.2-0.3,1.8c-0.1,0.6-0.3,1.2-0.5,1.8c0.6,1.3,1.9,2.3,3.3,2.6
	c-1.5,0.1-2.9-0.6-3.6-1.8c-0.4,1-1,2-1.6,2.9c1.3,0.6,2.7,0.7,4.1,0.3c-1.4,0.6-3,0.6-4.4,0.1c-1.2,1.6-2.7,3-4.5,4.1
	c1.6-1.2,2.9-2.6,3.9-4.3c-1-0.5-1.9-1.2-2.6-2.1c-0.7,0.8-1.5,1.5-2.4,2.1c-0.8,2.3-2.1,4.3-3.8,6.1c1.5-1.6,2.5-3.5,3-5.5
	c-0.3,0.2-0.5,0.3-0.8,0.5c0.3-0.3,0.6-0.6,0.9-0.9c0.3-1.3,0.4-2.6,0.3-4c-0.9,1.1-1.9,2.1-2.9,3c-0.9,1.6-1.2,3.6-0.7,5.4
	c-1.4,1-2.9,1.7-4.6,2.1c1.4-0.6,2.7-1.5,3.8-2.6c-0.2-1.3-0.2-2.7,0.3-4c-1,0.8-2.1,1.4-3.2,2c-1.5,1.9-3.3,3.7-5.2,5.3
	c1.5-1.5,2.8-3.1,4.1-4.7c-1.7,0.8-3.6,1.4-5.5,1.8c-2,1.4-4.2,2.5-6.6,3.2c2.8-1.1,5.4-2.8,7.5-5c-1.9,0.7-3.9,1.3-5.9,1.8
	c-1.3,1.3-2.9,2.3-4.6,3.1c-0.3-0.7-0.7-1.4-1.2-2c-1.7,0.2-3.4,0.3-5.1,0.4c1.7-0.1,3.3-0.3,4.9-0.6c-0.5-0.6-1-1.1-1.6-1.5
	c-1.6,0.6-3.2,0.9-4.8,1.1c0,0.3,0,0.7,0,1c-0.1-0.3-0.2-0.6-0.3-1c-1.4,0.1-2.8,0-4.1-0.2c1.3-0.1,2.7-0.2,4-0.3
	c-0.1-0.3-0.1-0.6-0.1-0.9c-1.8,0.1-3.6,0-5.4-0.3c1.8,0.1,3.6,0,5.4-0.3c0-1.6,0.5-3.2,1.5-4.5c-0.6,0-1.3,0.1-1.9,0.1
	c-2.8,0.9-5.4,2.4-7.7,4.2c-2.3-2.3-5-4-8-5.2c3,0.5,5.9,1.9,8.1,4.1c1.3-1.3,2.9-2.4,4.6-3.2c-4.8-0.1-9.6-0.9-14.3-2.3
	c7,1.7,14.1,2,21,0.9c-1.8-0.6-3.4-1.7-4.5-3.2c-1.8,0.6-3.6,1-5.5,1.2l0,0l0,0c-5,0.5-10.1-0.5-14.7-3.2c4.1,1.9,8.5,2.7,12.8,2.3
	c-2.3-1.1-4.5-2.5-6.5-4.1c-3.7,0.3-7.4-0.7-10.5-3.1c2.8,1.1,5.7,1.6,8.6,1.6c-1.2-1-2.3-2.2-3.4-3.4c-1.4-1.2-2.7-2.5-3.9-3.9
	c-3.8-1-7.2-3.5-9.3-7c2,2.7,4.8,4.5,7.9,5.3C4.7,65.7,1.3,57.9,0,49.6C2.1,58.2,6.2,66,11.8,72.5c1.8,0.2,3.7,0.1,5.6-0.4
	c3.2,6.2,10.1,9.5,16.9,8c0.3,1.4,0.8,2.8,1.5,4c2.2-1.1,4.2-2.5,6-4.2c9.3,1.3,18.6-2.1,24.7-9.2c3.1-3,4.6-7.4,4-11.7
	c-0.2-1.3-0.5-2.5-1-3.6c-1.9-4.1-5.6-7.1-9.9-8.2c-3.5-0.9-7.1,0.5-9.2,3.4c-2.1,2.9-2.3,6.8-0.5,9.9c1.8,3.1,5.3,4.8,8.9,4.3
	c-3.9,0.8-7.8-0.9-10-4.2s-2-7.7,0.3-10.9c0.6-0.8,1.3-1.5,2-2.1c-3,1-5.6,3-7.4,5.5c-0.4,2.3-0.1,4.8,0.9,6.9c1.4,3,3.9,5.4,7,6.5
	c-5.2-1.2-9-5.6-9.5-10.8c-3.1,6.9,1.9,14,9.2,14.4c5.6,0.4,10.5-3.5,11.6-9.1c-0.3,4.5-3.2,8.4-7.4,10.1c-4.2,1.7-8.9,0.8-12.2-2.2
	c-3.3-3-4.6-7.7-3.4-12.1c1.9-6.3,7.2-10.9,13.7-11.7c3.6-0.5,7.2,0.3,10.3,2.1C39.4,29.1,37.1,61,16.6,55C8.6,52.7,4,45.1,5,36.9
	c-0.1,2.7,0.4,5.4,1.5,7.7c0-0.5,0.1-1.1,0.4-1.6c0.8-1.4,2.8-2.2,4.2-1.5c1.5,0.7,2.4,2.2,1.3,4.1c1.2-2.9-2-5.1-4.1-3.4
	c-3.4,2.7,2.2,8.3,4.7,9.7c1,0.6,2.2,1.1,3.4,1.5c4,1.2,8.2,0.9,11.8-0.9c-4.3,0.4-8.6-1.3-11.7-4.6c5.5,4.3,13.4,5.6,17.8-0.6
	c-3.2,1.1-6.7,1.2-10.1,0.3C14.1,44.9,6.5,32,16.6,25c4-2.8,9.1-2.2,13.1,0.7c8.8,6.2,6.6,17.4-6.7,17.6c-4,0.1-6.1-5.4-3.4-10.3
	c0.7-1.3,1.7-2.6,3.6-3.5c2.1-0.7,4.5,0.2,5.6,2.2c1.1,1.9,0.7,4.4-0.9,5.9c1.1-1.2,1.4-3,0.7-4.5c-0.7-1.5-2.2-2.5-3.8-2.5
	c-5.1-0.1-7.4,10.2-1.8,11.1c5.7,0.9,17.2-6.2,5.1-15.2c-3.4-2.4-7.9-2.3-11.2,0.2c-8.9,6.7-1.2,17.7,7.7,20.2
	c12.8,3.5,15.8-8,29.1-6.2c-3.3-1.5-15.1-8.1-17-10.3c2.5,1.8,5.4,3.2,8.4,3.9c-2.3-2.6-4.1-5.7-5.1-9.2C43.4,32,49.5,37.5,56.9,40
	c-0.3-0.4-0.6-0.9-0.8-1.3c-1.3-3-0.4-6.6,2.2-8.6c2.6-2,6.3-1.9,8.8,0.2c-2-1.2-4.4-1.2-6.4,0c-8.7,4.9,2.2,13,6.4,14.8l5.3,2.8
	c0-2.5,0.3-4.7,0.7-6.9c2.7-14.5-12.8-7.1-5.7-0.8c-1.6-1-2.5-2.8-2.4-4.7c0.1-1.9,1.2-3.6,2.9-4.4c1.2-0.6,2.5-0.6,3.7-0.3
	c-0.6-1.2-1.2-2.3-1.9-3.4C58.8,23.1,49.3,38,41.8,21.8c9,13.5,15.5,0.9,26.2,3.1c-0.1-0.1-0.2-0.3-0.3-0.4
	c-3.4-2.7-7.3-4.5-11.4-5.4c-1.6,0.1-3.2,0.9-4.2,2.3c-0.5,0.8-0.5,1.8,0,2.5c0.5,0.8,1.5,1.1,2.4,0.9c0.8-0.1,1.3-0.8,1.3-1.6
	c0-0.8-0.6-1.4-1.4-1.5c0.8-0.1,1.6,0.3,2,0.9c0.5,0.7,0.5,1.5,0.1,2.2c-0.9,1.2-2.5,1.7-3.9,1.2c-1.4-0.5-2.4-1.9-2.3-3.4
	c0.1-1.6,1-3.1,2.4-4c0.1-0.1,0.2-0.1,0.3-0.2c-4.2-0.4-8.6,0.2-12.7,1.8c7.3-3.9,15.9-4,23.3-0.5c-1.8-1.7-3.7-3.2-5.7-4.6
	l-0.1-0.1c-3-1.1-6.1-1.7-9.2-2c-3.2,3.1-5.6,4.5-10.4,2.4c3.8,1.1,6.4,0.3,8.8-2.5c-5.3-0.3-10.7,0.5-15.8,2.5
	c6.8-3.8,14.7-4.8,22.1-2.9c-8.1-5-22.9-4.7-24.6,2.9c-0.8,3.6,2.3,11.3,6.8,7.6c2-1.6,1.9-5.9-0.5-5.9c-0.8,0-1.5,0.6-1.6,1.4
	c0,0.7,0.3,1.4,0.8,1.9c0.5,0.5,1.3,0.7,2,0.6c-0.9,0.6-2,0.6-2.9,0c-0.9-0.6-1.3-1.7-1.1-2.7c0.2-1,0.9-1.8,1.9-2.1
	c0.9-0.3,2-0.2,2.7,0.5c3.3,2.8,0.7,8.4-3.4,8.3c-2.9-0.1-5.2-1.9-5.7-4.7c-0.4,0.7-0.9,1.3-1.6,1.6c-1.5,0.9-3.4,0.7-4.7-0.4
	c-0.8-0.7-1.1-1.9-0.6-2.9c0.5-1,1.6-1.5,2.6-1.3c0.5,0.1,0.9,0.5,1.1,1c0.1,0.5,0,1-0.4,1.4c-0.4,0.4-0.9,0.5-1.4,0.3
	c0.4,0.1,0.9-0.2,1-0.6c0.1-0.4-0.1-0.9-0.6-1c-0.7,0.1-1.2,0.5-1.4,1.2c-0.2,0.7,0,1.4,0.6,1.8c1.6,0.6,3.5,0.1,4.6-1.2
	c0.2-0.2,0.4-0.5,0.6-0.8c-0.7-4.1,0.4-5.8,1.7-7.6C13.5,14.7,9.9,22.8,6.1,34.4C9.8,13.9,21.2,11.7,31.8,8.6
	c-5.7,0.5-11.3,2.2-16.4,5.1c9.8-6.7,22-8.6,33.1-5.5c1.9-1.5,4.2-2.5,6.6-2.7c-9.4-3.7-20-3.3-29.2,1.3
	C48.2-4.7,67.8,3.6,77.6,24.1c-0.2-2-0.7-3.9-1.3-5.8c-0.1-0.2-0.2-0.5-0.2-0.7C74,11.6,66.3,0,52.9,0c14,0,20.7,9.4,23.1,14.3
	c0.4-2,1.6-3.8,3.5-4.9c-1.7,2-2.6,4.5-2.6,7c1.1,2.9,1.8,5.9,1.9,9.1c0-0.1,0.1-0.1,0.1-0.2c1.1-1.2,2.8-1.5,4.2-0.9
	c1.1,0.5,1.7,1.7,1.4,2.9c0,0,0,0.1,0,0.1c2.2-1.6,4.6-2.7,5-5.2c0.4-2-0.2-4.3-2.5-4.7c-0.3-0.1-0.6-0.1-0.9-0.1
	c-0.6,0-1.2,0.3-1.7,0.6c-0.8,0.5-1.2,1.6-0.8,2.5c0.4,0.9,1.4,1.4,2.4,1.1c0.6-0.2,1-0.8,0.9-1.5c-0.1-0.6-0.5-1.2-1.2-1.3
	c0.9,0.1,1.6,0.7,1.8,1.5c0.2,0.9-0.1,1.8-0.8,2.3c-0.7,0.5-1.7,0.5-2.4-0.1c-1.5-0.8-2.1-2.7-1.4-4.3c0.7-1.6,2.7-2.3,4.3-1.8
	c2,0.9,3.4,2.9,3.5,5.1c0.1,5.3-7.1,6.2-10.5,12.7c0,0.1,0,0.3,0.1,0.4c1.1-2.3,2.9-4.1,5.1-5.4c3-1.7,6.5-2,9.8-0.9
	c-3.4-0.9-6.9-0.2-9.7,1.9c-2.5,1.9-4.1,4.7-4.5,7.8c4.6-1.8,6.6-4.7,6.9-8c0,4-1.7,7.8-4.6,10.4c4.9-2.4,15.8-5.6,13.2-13
	C99.4,35.4,93,37.9,87.1,40.5L87.1,40.5L87.1,40.5z M36.7,85.3c1.3,1.6,2.9,2.9,4.9,3.6c10.2-2.2,19.8-7.5,27.2-15.4
	C62,80.7,52,83.7,42.5,81.5C40.7,83.1,38.7,84.4,36.7,85.3z"/>
<g>
	<path class="st1" d="M249.4,29.1v8h22.1c1.9,0,3.8-0.5,3.8-2.7v-2.5c0-2.3-1.9-2.7-3.8-2.7H249.4L249.4,29.1z M266.7,42.9h-17.3
		v15.2h-7.3V23.2h29.4c1.7,0,3.4,0.1,5.1,0.6c1.2,0.4,2.5,0.9,3.5,1.8c0.9,0.8,1.6,1.7,2,2.8c0.4,1.1,0.6,2.3,0.6,3.5v2.4
		c0,2.2-0.6,4.1-2,5.8c-1.5,1.7-3.9,2.4-6.1,2.7l8.1,15.4h-7.8L266.7,42.9z"/>
	<path class="st1" d="M293.3,29.1v8h22.1c1.9,0,3.8-0.5,3.8-2.7v-2.5c0-2.3-1.9-2.7-3.8-2.7H293.3L293.3,29.1z M310.5,42.9h-17.3
		v15.2H286V23.2h29.4c1.7,0,3.4,0.1,5.1,0.6c1.2,0.4,2.5,0.9,3.5,1.8c0.9,0.8,1.6,1.7,2,2.8c0.4,1.1,0.6,2.3,0.6,3.5v2.4
		c0,2.2-0.6,4.1-2,5.8c-1.5,1.7-3.9,2.4-6.1,2.7l8.1,15.4h-7.8L310.5,42.9z"/>
	<polygon class="st1" points="213.9,31 196.3,58.1 188.1,58.1 211.3,23.2 216.5,23.2 239.5,58.1 231.3,58.1 	"/>
	<polygon class="st1" points="354.1,31 336.5,58.1 328.3,58.1 351.5,23.2 356.7,23.2 379.7,58.1 371.5,58.1 	"/>
	<path class="st1" d="M381.5,58.1v-5.9h30c1.9,0,3.8-0.5,3.8-2.7v-4.3c0-2.3-1.9-2.7-3.8-2.7h-20c-1.7,0-3.4-0.1-5.1-0.6
		c-1.2-0.4-2.5-0.9-3.5-1.8c-0.9-0.8-1.6-1.7-2-2.8c-0.4-1.1-0.6-2.3-0.6-3.5v-2c0-1.2,0.2-2.4,0.6-3.5c0.4-1.1,1.1-2,2-2.8
		c1-0.8,2.2-1.4,3.5-1.8c1.6-0.5,3.4-0.6,5.1-0.6h29.3v5.9h-29.3c-1.9,0-3.8,0.5-3.8,2.7v2.1c0,2.3,1.9,2.7,3.8,2.7h20
		c1.7,0,3.4,0.1,5.1,0.6c1.2,0.4,2.5,0.9,3.5,1.8c0.9,0.8,1.6,1.7,2,2.8c0.4,1.1,0.6,2.3,0.6,3.5v4.2c0,1.2-0.2,2.4-0.6,3.5
		c-0.4,1.1-1.1,2-2,2.8c-1,0.8-2.2,1.4-3.5,1.8c-1.6,0.5-3.4,0.6-5.1,0.6H381.5z"/>
	<polygon class="st1" points="445.7,44 423.2,23.2 432.7,23.2 449.4,38.6 466,23.2 475.4,23.2 453,44 453,58.1 445.7,58.1 	"/>
	<path class="st1" d="M477.1,58.1v-5.9h30c1.9,0,3.8-0.5,3.8-2.7v-4.3c0-2.3-1.9-2.7-3.8-2.7h-20c-1.7,0-3.4-0.1-5.1-0.6
		c-1.2-0.4-2.5-0.9-3.5-1.8c-0.9-0.8-1.6-1.7-2-2.8c-0.4-1.1-0.6-2.3-0.6-3.5v-2c0-1.2,0.2-2.4,0.6-3.5c0.4-1.1,1.1-2,2-2.8
		c1-0.8,2.2-1.4,3.5-1.8c1.6-0.5,3.4-0.6,5.1-0.6h29.3v5.9h-29.3c-1.9,0-3.8,0.5-3.8,2.7v2.1c0,2.3,1.9,2.7,3.8,2.7h20
		c1.7,0,3.4,0.1,5.1,0.6c1.2,0.4,2.5,0.9,3.5,1.8c0.9,0.8,1.6,1.7,2,2.8c0.4,1.1,0.6,2.3,0.6,3.5v4.2c0,1.2-0.2,2.4-0.6,3.5
		c-0.4,1.1-1.1,2-2,2.8c-1,0.8-2.2,1.4-3.5,1.8c-1.6,0.5-3.4,0.6-5.1,0.6H477.1z"/>
	<polygon class="st1" points="180.7,58.1 133.5,22.6 133.5,58.1 126.2,58.1 126.2,12.5 133.4,12.5 177.5,46.4 177.5,12.5
		184.8,12.5 184.8,58.1 	"/>
	<path class="st0" d="M157.1,87.5v-5.5h-9.8v5.5h-2.3v-12h2.3v4.8h9.8v-4.8h2.3v12H157.1L157.1,87.5z M164.3,87.5v-12h12.3v1.8
		h-10.1v3h9.6v1.8h-9.6v3.7h10.1v1.8H164.3L164.3,87.5z M213.1,87.5l-12.8-9.3v9.3h-2v-12h2l11.9,8.9v-8.9h2v12H213.1L213.1,87.5z
		 M233,87.5l-6.2-9.7l-6.3,9.7H218l8-12h1.7l7.9,12H233L233,87.5z M251.1,78.4c0-0.7-0.5-1.1-1.5-1.1h-7.9v3.1h7.9
		c1,0,1.5-0.4,1.5-1.1V78.4L251.1,78.4z M250.8,87.5l-2.8-5.3h-6.3v5.3h-2.3v-12h10.2c0.7,0,1.3,0.1,1.7,0.2
		c0.5,0.1,0.9,0.3,1.2,0.6c0.3,0.3,0.5,0.6,0.7,0.9c0.1,0.4,0.2,0.7,0.2,1.2v0.9c0,0.8-0.2,1.4-0.7,1.9c-0.5,0.5-1.2,0.8-2.3,0.9
		l2.8,5.4H250.8L250.8,87.5z M269.6,78.4c0-0.7-0.5-1.1-1.5-1.1h-7.9v3.1h7.9c1,0,1.5-0.4,1.5-1.1V78.4L269.6,78.4z M269.3,87.5
		l-2.8-5.3h-6.3v5.3h-2.3v-12h10.2c0.7,0,1.3,0.1,1.7,0.2c0.5,0.1,0.9,0.3,1.2,0.6c0.3,0.3,0.5,0.6,0.7,0.9c0.1,0.4,0.2,0.7,0.2,1.2
		v0.9c0,0.8-0.2,1.4-0.7,1.9c-0.5,0.5-1.2,0.8-2.3,0.9l2.8,5.4H269.3L269.3,87.5z M290.2,87.5l-6.2-9.7l-6.3,9.7h-2.5l8-12h1.7
		l7.9,12H290.2L290.2,87.5z M299.2,87.5V77.3h-6.3v-1.8h14.7v1.8h-6.1v10.2H299.2L299.2,87.5z M311.9,87.5v-12h2.3v12H311.9
		L311.9,87.5z M326,87.5l-8-12h2.6l6.3,9.7l6.2-9.7h2.5l-7.9,12H326L326,87.5z M339.4,87.5v-12h12.3v1.8h-10.1v3h9.6v1.8h-9.6v3.7
		h10.1v1.8H339.4L339.4,87.5z M384.8,78.4c0-0.7-0.5-1.1-1.5-1.1h-7.6v4h7.6c1,0,1.5-0.4,1.5-1.1V78.4L384.8,78.4z M375.7,83.1v4.4
		h-2.3v-12h9.8c0.7,0,1.3,0.1,1.7,0.2c0.5,0.1,0.9,0.3,1.2,0.6c0.3,0.3,0.5,0.6,0.7,0.9c0.1,0.4,0.2,0.7,0.2,1.2v1.8
		c0,0.4-0.1,0.8-0.2,1.2c-0.1,0.4-0.4,0.7-0.7,0.9c-0.3,0.3-0.7,0.5-1.2,0.6c-0.5,0.1-1.1,0.2-1.7,0.2H375.7L375.7,83.1z
		 M391.3,87.5v-12h2.3v10.2h9.7v1.8H391.3L391.3,87.5z M421.5,87.5l-6.2-9.7l-6.3,9.7h-2.5l8-12h1.7l7.9,12H421.5L421.5,87.5z
		 M430.5,87.5V77.3h-6.3v-1.8h14.7v1.8h-6.1v10.2H430.5L430.5,87.5z M445.4,82.6v4.9h-2.3v-12h12.3v1.8h-10.1v3.5h9.4v1.8H445.4
		L445.4,82.6z M472.5,78.4c0-0.7-0.5-1.1-1.5-1.1H463c-1,0-1.5,0.4-1.5,1.1v6.2c0,0.7,0.5,1.1,1.5,1.1h7.9c1,0,1.5-0.4,1.5-1.1V78.4
		L472.5,78.4z M463,87.5c-0.7,0-1.3-0.1-1.7-0.2c-0.5-0.1-0.9-0.3-1.2-0.6c-0.3-0.3-0.5-0.6-0.7-0.9c-0.1-0.4-0.2-0.7-0.2-1.2v-6.2
		c0-0.4,0.1-0.8,0.2-1.2c0.1-0.4,0.4-0.7,0.7-0.9c0.3-0.3,0.7-0.5,1.2-0.6c0.5-0.1,1.1-0.2,1.7-0.2h7.9c0.7,0,1.3,0.1,1.7,0.2
		c0.5,0.1,0.9,0.3,1.2,0.6c0.3,0.3,0.5,0.6,0.7,0.9c0.1,0.4,0.2,0.7,0.2,1.2v6.2c0,0.4-0.1,0.8-0.2,1.2c-0.1,0.4-0.4,0.7-0.7,0.9
		c-0.3,0.3-0.7,0.5-1.2,0.6c-0.5,0.1-1.1,0.2-1.7,0.2H463L463,87.5z M491.3,78.4c0-0.7-0.5-1.1-1.5-1.1h-7.9v3.1h7.9
		c1,0,1.5-0.4,1.5-1.1V78.4L491.3,78.4z M491,87.5l-2.8-5.3h-6.3v5.3h-2.3v-12h10.2c0.7,0,1.3,0.1,1.7,0.2c0.5,0.1,0.9,0.3,1.2,0.6
		c0.3,0.3,0.5,0.6,0.7,0.9c0.1,0.4,0.2,0.7,0.2,1.2v0.9c0,0.8-0.2,1.4-0.7,1.9c-0.5,0.5-1.2,0.8-2.3,0.9l2.8,5.4H491L491,87.5z
		 M514.2,87.5v-8.4l-6.1,8.4h-1.9l-6.1-8.4v8.4H498v-12h2.1l7.1,9.8l7.1-9.8h1.9v12H514.2L514.2,87.5z M132.5,87.5V77.3h-6.3v-1.8
		h14.7v1.8h-6.1v10.2H132.5z"/>
</g>
</svg>
