<svg xmlns="http://www.w3.org/2000/svg" width="320" height="132" viewBox="0 0 320 132"><g fill-rule="evenodd" clip-rule="evenodd"><path fill="#5A5A5A" d="M69.168 83.261a10.051 10.051 0 0 0 3.822 2.812c.013-.69.1-1.384.262-2.068-1.824-.366-2.055-.742-4.084-.744zm-1.944-.003c.286.001 3.08 3.278 5.824 4.087.078.7.23 1.39.456 2.057a9.929 9.929 0 0 1-6.28-6.144zM43.947 31.599a15.681 15.681 0 0 1 7.253-1.451c.87.421 1.726.887 2.562 1.398 5.786 3.539 14.96 17.849 13.358 25.146-1.936-9.173-7.656-17.259-15.968-22.031a32.845 32.845 0 0 0-7.205-3.062zM69.69 51.312a15.446 15.446 0 0 1 2.141-2.62c-.797.083-1.523-.428-1.256-1.449a1.258 1.258 0 0 1 1.29-.943.935.935 0 0 0-.581.74c-.191 1.342 1.394.853 1.324-.397a1.224 1.224 0 0 0-1.106-1.158c-3.765.25-2.238 3.54-1.812 5.827zm1.808 43.992a4.802 4.802 0 0 1-1.208-3.372 20.724 20.724 0 0 1-5.289-5.618 13.153 13.153 0 0 1 1.976 7.416 7.492 7.492 0 0 0 4.521 1.574zM62.332 98.5a11.716 11.716 0 0 0 1.834-10.688 11.511 11.511 0 0 1 1.587 7.714 13.101 13.101 0 0 1-1.656 5.061 4.592 4.592 0 0 1-1.765-2.087zm-26.495 1.086A43.338 43.338 0 0 0 60.98 87.905a18.136 18.136 0 0 1-19.029 11.854 21.534 21.534 0 0 1-8.247 3.521 8.314 8.314 0 0 1 2.133-3.694zm-2.267 4.268a7.708 7.708 0 0 0-.108.713c1.552-.178 3.05-.484 4.293-1.202.571.52 1.113 1.188 1.588 1.875 1.08-.208 2.15-.46 3.21-.755a11.48 11.48 0 0 0 2.382-3.567 19.64 19.64 0 0 1-2.475-.114 19.695 19.695 0 0 1-8.89 3.05zm26.884-7.423a12.892 12.892 0 0 1-.427 3.665 16.23 16.23 0 0 0 3.625-11.151 20.017 20.017 0 0 1-3.198 7.486zm-4.683 1.026a19.717 19.717 0 0 1-2.799 1.602 17.97 17.97 0 0 1-4.867 5.443 21.832 21.832 0 0 0 4.974-2.225 32.273 32.273 0 0 0 2.692-4.82zm-1.426 3.991a21.916 21.916 0 0 0 8.899-13.792 19.677 19.677 0 0 1-5.811 8.525 31.39 31.39 0 0 1-3.088 5.267zm-9.833 2.436c2.566-.857 5.364-1.73 6.835-4.151-1.513.552-3.103.92-4.736 1.087a13.834 13.834 0 0 1-2.099 3.064zm-2.574 1.181c-.571.502-1.195.949-1.864 1.332a17.072 17.072 0 0 0-.576-.928c.816-.112 1.63-.247 2.44-.404zM14.575 86.013c.979.119 1.98.124 2.987.006a10.675 10.675 0 0 0 4.475 5.311c-.406.084-.814.153-1.226.209a45.75 45.75 0 0 1-6.236-5.526zm7.744 6.586c.472-.122.938-.272 1.397-.452a10.67 10.67 0 0 0 6.672.323c.118.932.409 1.812.841 2.604-.989.372-2.004.664-3.033.879a45.522 45.522 0 0 1-5.877-3.354zm53.143-34.442c3.969-.967 9.046.611 10.486 4.188a6.09 6.09 0 0 1-.942 6.141 5.953 5.953 0 0 1-5.806 2.057 5.508 5.508 0 0 0 5.359-2.15 5.635 5.635 0 0 0 .553-5.798 5.529 5.529 0 0 0-4.855-3.144c2.009.764 3.245 2.81 2.999 4.963-.245 2.153-1.909 3.861-4.037 4.144a4.674 4.674 0 0 1-4.962-2.947 4.05 4.05 0 0 0 3.565 2.592 4.04 4.04 0 0 0 3.804-2.218 4.118 4.118 0 0 0-.44-4.414 5.827 5.827 0 0 0-4.598-2.764 5.812 5.812 0 0 0-4.896 2.18 3.622 3.622 0 0 1 3.524.475 3.704 3.704 0 0 1 1.453 3.277 3.927 3.927 0 0 0-2.876-3.015c-6.146-1.547-7.343 10.08-6.724 13.275a12.037 12.037 0 0 0 8.087 8.269 11.474 11.474 0 0 0 10.305-4.476 11.725 11.725 0 0 1-11.286 5.361c-.217.728-.35 1.469-.399 2.212a10.047 10.047 0 0 0 9.098-1.506 9.953 9.953 0 0 1-9.111 2.669c.033.688.137 1.373.309 2.042a9.933 9.933 0 0 0 7.415-.97 10.429 10.429 0 0 1-7.14 1.864 10.08 10.08 0 0 0 1.424 2.644 9.782 9.782 0 0 1-1.864-2.699 10.439 10.439 0 0 1-7.627-5.333 19.954 19.954 0 0 0 9.425 9.678 20.727 20.727 0 0 1-4.788-2.383 5.088 5.088 0 0 0 .934 2.928 7.462 7.462 0 0 0 2.308-.455 8.412 8.412 0 0 1-2.137.684c.251.315.541.604.868.856a4.797 4.797 0 0 1-1.137-.813 8.433 8.433 0 0 1-2.513-.017 4.298 4.298 0 0 0 2.651 2.537 4.543 4.543 0 0 1-3.497-2.716 8.332 8.332 0 0 1-1.502-.557 13.347 13.347 0 0 1-.714 2.977 3.971 3.971 0 0 0 2.749 2.159 3.179 3.179 0 0 1-3.008-1.51c-.364.85-.815 1.656-1.346 2.406a4.583 4.583 0 0 0 3.384.229 5.292 5.292 0 0 1-3.61.082 13.154 13.154 0 0 1-3.705 3.352 13.102 13.102 0 0 0 3.225-3.54 5.29 5.29 0 0 1-2.137-1.745 11.663 11.663 0 0 1-1.973 1.754 12.899 12.899 0 0 1-3.153 5.005 11.114 11.114 0 0 0 2.512-4.585c-.222.135-.448.264-.681.386.269-.247.527-.502.776-.765.25-1.072.342-2.185.264-3.302a20.057 20.057 0 0 1-2.398 2.452 5.889 5.889 0 0 0-.577 4.491 10.86 10.86 0 0 1-3.8 1.758 11.695 11.695 0 0 0 3.119-2.131 6.635 6.635 0 0 1 .222-3.284 20.15 20.15 0 0 1-2.646 1.684 31.5 31.5 0 0 1-4.28 4.37 32.266 32.266 0 0 0 3.348-3.905 20.011 20.011 0 0 1-4.557 1.491 17.949 17.949 0 0 1-5.472 2.663 18.579 18.579 0 0 0 6.179-4.093 44.422 44.422 0 0 1-4.878 1.461 13.811 13.811 0 0 1-3.819 2.546 8.051 8.051 0 0 0-1.023-1.676 44.493 44.493 0 0 1-4.228.315 40.72 40.72 0 0 0 4.068-.51 8.087 8.087 0 0 0-1.317-1.244 15.524 15.524 0 0 1-3.988.896 7.968 7.968 0 0 0-.004.818 6.172 6.172 0 0 1-.271-.796c-1.14.081-2.289.037-3.428-.135 1.08-.109 2.216-.169 3.332-.281a6.172 6.172 0 0 1-.093-.714c-1.473.088-2.961.01-4.437-.24a21.594 21.594 0 0 0 4.421-.243 6.106 6.106 0 0 1 1.271-3.681c-.532.039-1.064.067-1.598.087a20.187 20.187 0 0 0-6.364 3.504 18.372 18.372 0 0 0-6.626-4.256 12.628 12.628 0 0 1 6.664 3.38 12.381 12.381 0 0 1 3.82-2.613 43.293 43.293 0 0 1-11.842-1.93 43.219 43.219 0 0 0 17.312.719 7.41 7.41 0 0 1-3.745-2.605 19.895 19.895 0 0 1-4.546 1.012l-.001.001h-.001a19.847 19.847 0 0 1-12.109-2.646 20.483 20.483 0 0 0 10.557 1.926 31.752 31.752 0 0 1-5.375-3.373 12.23 12.23 0 0 1-8.644-2.548 17.867 17.867 0 0 0 7.14 1.302 31.893 31.893 0 0 1-2.785-2.779 39.191 39.191 0 0 1-3.194-3.226 12.63 12.63 0 0 1-7.657-5.786 11.989 11.989 0 0 0 6.485 4.394 39.181 39.181 0 0 1-8.175-18.627 45.533 45.533 0 0 0 9.778 18.943c1.512.192 3.072.099 4.604-.309a12.657 12.657 0 0 0 13.981 6.605 9.726 9.726 0 0 0 1.266 3.324 20.507 20.507 0 0 0 4.941-3.453 22.73 22.73 0 0 0 20.434-7.594 11.381 11.381 0 0 0 2.492-12.662 12.545 12.545 0 0 0-8.189-6.798 7.295 7.295 0 0 0-7.638 2.772 7.461 7.461 0 0 0-.414 8.207 7.308 7.308 0 0 0 7.345 3.538c-3.2.653-6.47-.736-8.242-3.505s-1.687-6.351.217-9.029a7.987 7.987 0 0 1 1.661-1.72 12.534 12.534 0 0 0-6.143 4.559 10.137 10.137 0 0 0 .762 5.735 9.995 9.995 0 0 0 5.811 5.356c-4.316-.951-7.424-4.61-7.832-8.905-2.565 5.702 1.573 11.542 7.562 11.933 4.608.301 8.715-2.921 9.564-7.505-.289 3.73-2.652 6.97-6.096 8.353-3.442 1.384-7.363.669-10.11-1.842s-3.841-6.38-2.821-9.978c1.555-5.185 5.976-8.969 11.296-9.668a13.527 13.527 0 0 1 8.521 1.696c-20.171-15.004-22.118 11.36-39.062 6.412C10.642 68.217 6.8 61.973 7.704 55.21c-.101 2.26.358 4.44 1.267 6.385a2.555 2.555 0 0 1 .3-1.336c.628-1.178 2.289-1.822 3.498-1.274s2.006 1.805 1.104 3.357c.992-2.357-1.678-4.183-3.417-2.8-2.784 2.212 1.84 6.874 3.884 8.033.855.485 1.8.88 2.825 1.199a13.296 13.296 0 0 0 9.759-.735 11.634 11.634 0 0 1-9.628-3.784c4.515 3.542 11.039 4.659 14.726-.533a14.78 14.78 0 0 1-8.345.266c-8.481-2.206-14.798-12.843-6.391-18.638 3.322-2.29 7.532-1.783 10.821.562 7.244 5.164 5.438 14.393-5.497 14.548-3.322.047-5.022-4.479-2.823-8.55.579-1.072 1.438-2.134 2.971-2.911a3.94 3.94 0 0 1 3.85 6.67 3.498 3.498 0 0 0-2.555-5.854c-4.211-.042-6.074 8.411-1.479 9.162 4.695.768 14.186-5.156 4.193-12.559a7.898 7.898 0 0 0-9.288.15c-7.39 5.543-.976 14.631 6.337 16.651 10.556 2.916 13.042-6.602 24.082-5.163-2.732-1.232-12.47-6.727-14.033-8.514a20.624 20.624 0 0 0 6.935 3.25 21.022 21.022 0 0 1-4.249-7.584c2.806 5.936 7.869 10.439 13.993 12.521-.239-.352-.47-.71-.691-1.076a5.985 5.985 0 0 1 1.847-7.109 5.845 5.845 0 0 1 7.276.127c-1.63-.988-3.646-.958-5.303-.016-7.187 4.086 1.837 10.736 5.314 12.217l4.349 2.323c-.036-2.04.227-3.913.56-5.691 2.239-11.979-10.604-5.839-4.727-.635a4.299 4.299 0 0 1-1.945-3.891 4.288 4.288 0 0 1 2.429-3.603 4.213 4.213 0 0 1 3.085-.211 34.02 34.02 0 0 0-1.61-2.828c-8.994-3.586-16.854 8.732-23.086-4.659 7.437 11.145 12.766.75 21.639 2.556a33.81 33.81 0 0 0-.271-.36 23.027 23.027 0 0 0-9.433-4.494 4.754 4.754 0 0 0-3.474 1.869 1.836 1.836 0 0 0-.009 2.098c.438.631 1.22.916 1.955.711a1.259 1.259 0 0 0 1.045-1.305 1.254 1.254 0 0 0-1.163-1.198c.658-.07 1.3.23 1.674.782.372.551.415 1.264.112 1.857a2.825 2.825 0 0 1-3.224.997 2.867 2.867 0 0 1-1.897-2.814 4.19 4.19 0 0 1 2.249-3.425 22.923 22.923 0 0 0-10.515 1.468 21.19 21.19 0 0 1 19.229-.402 33.722 33.722 0 0 0-4.748-3.79l-.113-.074a31.957 31.957 0 0 0-7.632-1.693c-2.642 2.57-4.664 3.725-8.561 1.965 3.109.879 5.253.277 7.234-2.065a31.96 31.96 0 0 0-13.095 2.044 24.566 24.566 0 0 1 18.258-2.398c-6.71-4.091-18.947-3.859-20.294 2.415-.641 2.983 1.878 9.352 5.628 6.245 1.633-1.353 1.578-4.876-.415-4.876-.669 0-1.243.484-1.362 1.149-.023.6.224 1.178.672 1.572a1.952 1.952 0 0 0 1.634.458 2.087 2.087 0 0 1-2.391.041 2.133 2.133 0 0 1-.883-2.244 2.397 2.397 0 0 1 1.528-1.74 2.359 2.359 0 0 1 2.271.386c2.732 2.35.596 6.962-2.835 6.868-2.396-.067-4.285-1.532-4.691-3.883a3.403 3.403 0 0 1-1.308 1.362 3.37 3.37 0 0 1-3.887-.36 2.04 2.04 0 0 1-.492-2.411 2.003 2.003 0 0 1 2.177-1.109 1.136 1.136 0 0 1 .575 1.939c-.31.294-.756.388-1.154.241a.7.7 0 0 0 .81-.518.706.706 0 0 0-.462-.848c-.552.048-1.019.435-1.172.974s.038 1.117.482 1.454a3.626 3.626 0 0 0 3.83-.963c.192-.207.357-.431.495-.669-.552-3.402.364-4.794 1.387-6.306-12.728 2.668-15.768 9.349-18.88 18.958 3.101-16.968 12.501-18.822 21.284-21.323a33.375 33.375 0 0 0-13.537 4.227 32.74 32.74 0 0 1 27.36-4.533 11.06 11.06 0 0 1 5.476-2.27 29.55 29.55 0 0 0-24.107 1.097c18.285-9.533 34.511-2.708 42.595 14.274a25.833 25.833 0 0 0-1.054-4.787 6.058 6.058 0 0 1-.189-.566c-1.729-4.969-8.119-14.577-19.174-14.577 11.568 0 17.073 7.802 19.059 11.812a5.964 5.964 0 0 1 2.906-4.062 8.654 8.654 0 0 0-2.136 5.794 22.843 22.843 0 0 1 1.585 7.491 2.995 2.995 0 0 1 3.624-.84 1.998 1.998 0 0 1 1.167 2.368c-.008.032-.018.063-.027.094 1.812-1.356 3.78-2.225 4.155-4.31.301-1.674-.193-3.519-2.049-3.901a2.736 2.736 0 0 0-2.167.471 1.668 1.668 0 0 0-.624 2.081 1.637 1.637 0 0 0 1.952.917c.494-.195.803-.696.759-1.23a1.208 1.208 0 0 0-.952-1.085 1.7 1.7 0 0 1 1.528 1.262 1.722 1.722 0 0 1-.689 1.868 1.682 1.682 0 0 1-1.973-.055 2.778 2.778 0 0 1-1.173-3.555c.585-1.312 2.224-1.929 3.562-1.448 1.65.709 2.835 2.392 2.886 4.207.124 4.359-5.902 5.154-8.643 10.52l.043.356a10.293 10.293 0 0 1 4.203-4.46 9.805 9.805 0 0 1 8.071-.735 9.318 9.318 0 0 0-8.031 1.592 9.513 9.513 0 0 0-3.684 6.463c3.812-1.528 5.446-3.906 5.739-6.57a11.545 11.545 0 0 1-3.834 8.624c4.008-2.011 13.021-4.641 10.946-10.714 2.239 6.266-3.013 8.326-7.96 10.519zM33.834 95.196a9.729 9.729 0 0 0 4.014 3.001A43.25 43.25 0 0 0 60.285 85.47a22.48 22.48 0 0 1-21.667 6.518 19.918 19.918 0 0 1-4.784 3.208z"/><path fill="#DC6026" d="M170.624 67.624v4.327h11.984c1.052 0 2.085-.248 2.085-1.48v-1.366c0-1.233-1.033-1.48-2.085-1.48h-11.984v-.001zm9.38 7.509h-9.38v8.244h-3.943V64.441h15.928c.909 0 1.868.077 2.742.338.678.201 1.339.503 1.881.963.481.409.848.906 1.075 1.496.234.604.33 1.247.33 1.893v1.313c0 1.171-.327 2.244-1.105 3.129-.822.935-2.123 1.316-3.335 1.47l4.379 8.335h-4.239l-4.333-8.245zm14.406-7.509v4.327h11.983c1.052 0 2.085-.248 2.085-1.48v-1.366c0-1.233-1.033-1.48-2.085-1.48H194.41v-.001zm9.379 7.509h-9.379v8.244h-3.943V64.441h15.927c.909 0 1.868.077 2.743.338.677.201 1.339.503 1.88.963.482.409.848.906 1.075 1.496.234.604.331 1.247.331 1.893v1.313c0 1.171-.328 2.244-1.106 3.129-.822.935-2.123 1.316-3.335 1.47l4.379 8.335h-4.238l-4.334-8.245zm-52.427-6.453l-9.564 14.697h-4.43l12.589-18.936h2.789l12.509 18.936h-4.483zm76.078 0l-9.565 14.697h-4.43l12.589-18.936h2.789l12.509 18.936h-4.482zm14.867 14.697v-3.182h16.296c1.051 0 2.084-.248 2.084-1.481v-2.337c0-1.233-1.033-1.48-2.084-1.48h-10.871c-.909 0-1.868-.077-2.743-.338-.676-.201-1.338-.503-1.88-.963a3.685 3.685 0 0 1-1.075-1.496 5.218 5.218 0 0 1-.33-1.893V69.13c0-.646.096-1.288.33-1.893a3.695 3.695 0 0 1 1.075-1.496c.542-.46 1.204-.762 1.88-.963.875-.261 1.834-.338 2.743-.338h15.875v3.183h-15.875c-1.052 0-2.085.247-2.085 1.48v1.129c0 1.234 1.033 1.481 2.085 1.481h10.871c.908 0 1.867.077 2.742.338.677.201 1.339.504 1.88.963.482.409.848.906 1.076 1.496.234.604.33 1.246.33 1.893v2.284a5.23 5.23 0 0 1-.33 1.894 3.694 3.694 0 0 1-1.076 1.495c-.541.46-1.203.762-1.88.964-.875.261-1.834.337-2.742.337h-16.296zm34.845-7.636l-12.219-11.3h5.129l9.048 8.373 9.05-8.373h5.073l-12.137 11.3v7.636h-3.944zm16.989 7.636v-3.182h16.295c1.052 0 2.085-.248 2.085-1.481v-2.337c0-1.233-1.033-1.48-2.085-1.48h-10.87c-.91 0-1.869-.077-2.743-.338-.677-.201-1.339-.503-1.88-.963a3.688 3.688 0 0 1-1.076-1.496 5.24 5.24 0 0 1-.33-1.893V69.13c0-.646.097-1.288.33-1.893a3.697 3.697 0 0 1 1.076-1.496c.541-.46 1.203-.762 1.88-.963.874-.261 1.833-.338 2.743-.338h15.874v3.183h-15.874c-1.052 0-2.085.247-2.085 1.48v1.129c0 1.234 1.033 1.481 2.085 1.481h10.87c.909 0 1.868.077 2.743.338.677.201 1.338.504 1.88.963.482.409.848.906 1.075 1.496.234.604.331 1.246.331 1.893v2.284c0 .646-.097 1.289-.331 1.894a3.682 3.682 0 0 1-1.075 1.495c-.542.46-1.203.762-1.88.964-.875.261-1.834.337-2.743.337h-16.295zm-160.789 0l-25.64-19.275v19.275h-3.96V58.615h3.926l23.932 18.396V58.615h3.96v24.762z"/><path fill="#5A5A5A" d="M120.556 99.352v-2.958h-5.325v2.958h-1.229v-6.508h1.229v2.588h5.325v-2.588h1.229v6.508h-1.229zm3.899 0v-6.508h6.691v.961h-5.462v1.627h5.186v.962h-5.186v1.996h5.462v.962h-6.691zm26.463 0l-6.942-5.065v5.065h-1.072v-6.508h1.063l6.479 4.834v-4.834h1.072v6.508h-.6zm10.805 0l-3.356-5.241-3.41 5.241h-1.368l4.325-6.508h.897l4.298 6.508h-1.386zm9.796-4.945c0-.401-.271-.602-.813-.602h-4.298v1.683h4.298c.543 0 .813-.2.813-.601v-.48zm-.157 4.945l-1.525-2.903h-3.43v2.903h-1.229v-6.508h5.527c.37 0 .685.038.943.115s.47.186.633.324.282.303.356.494c.074.19.11.403.11.638v.462c0 .419-.123.769-.369 1.05-.247.28-.659.448-1.239.503l1.535 2.922h-1.312zm10.185-4.945c0-.401-.271-.602-.813-.602h-4.298v1.683h4.298c.542 0 .813-.2.813-.601v-.48zm-.157 4.945l-1.525-2.903h-3.429v2.903h-1.229v-6.508h5.527c.37 0 .685.038.942.115.259.077.471.186.634.324s.282.303.355.494c.074.19.111.403.111.638v.462c0 .419-.123.769-.37 1.05-.246.28-.659.448-1.238.503l1.534 2.922h-1.312zm11.378 0l-3.356-5.241-3.41 5.241h-1.368l4.326-6.508h.896l4.298 6.508h-1.386zm4.878 0v-5.547h-3.411v-.961h7.958v.961h-3.317v5.547h-1.23zm6.885 0v-6.508h1.229v6.508h-1.229zm7.671 0l-4.326-6.508h1.396l3.402 5.241 3.364-5.241h1.358l-4.298 6.508h-.896zm7.264 0v-6.508h6.692v.961h-5.463v1.627h5.186v.962h-5.186v1.996h5.463v.962h-6.692zm24.596-4.945c0-.401-.271-.602-.812-.602h-4.104v2.182h4.104c.542 0 .812-.2.812-.601v-.979zm-4.917 2.542v2.403h-1.229v-6.508h5.334c.369 0 .684.038.942.115s.47.186.633.324c.164.139.282.303.356.494.073.19.11.403.11.638v.961c0 .234-.037.447-.11.639a1.22 1.22 0 0 1-.356.494c-.163.139-.374.246-.633.323s-.573.116-.942.116h-4.105v.001zm8.474 2.403v-6.508h1.238v5.546h5.278v.962h-6.516zm16.379 0l-3.356-5.241-3.41 5.241h-1.368l4.326-6.508h.896l4.298 6.508h-1.386zm4.879 0v-5.547h-3.411v-.961h7.958v.961h-3.317v5.547h-1.23zm8.068-2.682v2.682h-1.229v-6.508h6.692v.961h-5.463v1.904h5.093v.961h-5.093zm14.704-2.263c0-.401-.271-.602-.812-.602h-4.299c-.542 0-.813.2-.813.602v3.383c0 .4.271.601.813.601h4.299c.542 0 .812-.2.812-.601v-3.383zm-5.111 4.945c-.369 0-.684-.039-.942-.116s-.47-.185-.634-.323a1.224 1.224 0 0 1-.355-.495 1.747 1.747 0 0 1-.111-.638v-3.364c0-.234.037-.447.111-.638.074-.191.192-.355.355-.494.164-.139.375-.247.634-.324s.573-.115.942-.115h4.299c.369 0 .684.038.942.115s.47.186.634.324c.163.139.281.303.355.494.074.19.111.403.111.638v3.364c0 .234-.037.447-.111.638a1.224 1.224 0 0 1-.355.495c-.164.139-.375.246-.634.323s-.573.116-.942.116h-4.299zm15.306-4.945c0-.401-.271-.602-.812-.602h-4.299v1.683h4.299c.542 0 .812-.2.812-.601v-.48zm-.156 4.945l-1.525-2.903h-3.43v2.903h-1.229v-6.508h5.528c.369 0 .684.038.942.115s.47.186.633.324.282.303.356.494c.074.19.11.403.11.638v.462c0 .419-.123.769-.369 1.05-.247.28-.659.448-1.238.503L303 99.352h-1.312zm12.615 0v-4.558l-3.309 4.558h-1.008l-3.318-4.548v4.548h-1.137v-6.508h1.146l3.864 5.314 3.846-5.314h1.054v6.508h-1.138zm-207.14 0v-5.547h-3.411v-.961h7.959v.961h-3.319v5.547h-1.229z"/></g></svg>