<svg xmlns="http://www.w3.org/2000/svg" width="319.586" height="53.267" viewBox="0 0 319.586 53.267"><path fill="#1B181A" d="M312.764 21.393h.702v-8.562h5.233v-2.38h-5.234V4.014h5.663l.041-2.27h-8.338v20.351h2.635v-.702h-.702v-.703h-.528V3.147h5.504l-.003.15.702.013v-.702h-6.377v9.247h5.232v.273h.703v-.702h-5.936v9.966h.703v-.702.703m-8.862-2.026h-.702c-.01.373-.111.6-.417.874-.314.267-.697.419-1.248.45l.035.701v-.702h-2.712v.702l.031-.702c-.637-.033-.902-.2-1.032-.378a1.554 1.554 0 0 1-.315-.945V4.397c.005-.384.104-.663.325-.94.146-.184.445-.352 1.085-.383l-.031-.701v.701h3.09v-.701l-.03.701c.66.029.927.205 1.007.326.172.244.242.468.246.749l-.002.101v4.149l-.032 10.966.702.002.702.002.032-10.969V4.25l.002-.101a2.64 2.64 0 0 0-.512-1.57c-.468-.637-1.231-.874-2.085-.909h-3.151c-.854.035-1.621.295-2.114.902a2.833 2.833 0 0 0-.638 1.825v14.97a2.963 2.963 0 0 0 .583 1.771c.471.646 1.25.923 2.106.956h2.771l.007-.001c.794-.035 1.525-.294 2.094-.786a2.489 2.489 0 0 0 .906-1.94h-.703m-5.863-6.076h-.702v5.533c0 .615.117 1.178.444 1.642.484.626 1.195.726 2.022.739h1.546c.688-.004 1.365-.133 1.768-.76.253-.427.365-.926.414-1.517l.002-.026V4.916c-.003-.614-.085-1.141-.353-1.598-.403-.625-1.08-.756-1.769-.76h-2.175c-.561-.016-1.145.271-1.454.748-.311.451-.432.998-.432 1.586l-.015 4.295v4.104h1.404V9.189l.016-4.296c0-.403.083-.646.183-.788.1-.117.1-.125.298-.143h2.175c.251 0 .427.033.511.064l.065.031.03-.042-.043.026.013.016.03-.042-.043.026c.068.104.155.4.153.873v13.957h.702l-.7-.057c-.035.463-.134.771-.218.906l.041.021-.028-.039-.012.016.04.023-.028-.039c-.003.014-.195.101-.576.096h-1.546c-.332 0-.581-.035-.724-.081a.559.559 0 0 1-.139-.058l-.015-.01c-.095-.13-.187-.391-.186-.828v-5.533h-.699M270.403 2.446l.012.702.77-.016 5.816 18.166V3.123h.496v-.701h-.703V20.69l-.306.001v.702l.668-.215-6.226-19.371V20.69h-.527v.702h.701V2.446h-.701l.012.702-.012-.702h-.703v19.648h2.635V10.758l3.64 11.337h2.224V1.719h-2.603v10.58l-3.392-10.592-2.504.05v.689h.703m-7.631 16.921h-.703c-.01.373-.11.6-.416.874-.315.267-.698.419-1.249.45l.035.701v-.702h-2.712v.702l.031-.702c-.637-.033-.903-.2-1.032-.378a1.554 1.554 0 0 1-.315-.945V4.397c.004-.384.104-.663.325-.94.146-.184.445-.352 1.085-.383l-.031-.701v.701h3.091v-.701l-.031.701c.66.029.926.205 1.007.326.173.244.242.468.246.749l-.001.101v4.149l-.032 10.966.702.002.701.002.033-10.969V4.25l.001-.101a2.638 2.638 0 0 0-.511-1.57c-.469-.637-1.232-.874-2.085-.909h-3.152c-.853.035-1.62.295-2.114.902a2.839 2.839 0 0 0-.638 1.825v14.97a2.964 2.964 0 0 0 .584 1.771c.47.646 1.25.923 2.105.956h2.771l.007-.001c.794-.035 1.525-.294 2.094-.786a2.486 2.486 0 0 0 .906-1.94h-.702m-5.864-6.076h-.702v5.533c.001.615.118 1.178.444 1.642.485.626 1.195.726 2.023.739h1.544c.688-.004 1.366-.133 1.769-.76.253-.427.365-.926.414-1.517l.002-.026V4.916c-.003-.614-.084-1.141-.353-1.598-.402-.625-1.08-.756-1.769-.76h-2.175c-.561-.016-1.144.271-1.453.748-.311.451-.433.998-.432 1.586l-.016 4.295v4.104h1.404V9.189l.016-4.296c.001-.403.084-.646.183-.788.1-.117.1-.125.298-.143h2.175c.251 0 .428.033.511.064l.065.031.03-.042-.042.026.012.016.03-.042-.042.026c.068.104.155.4.152.873v13.957h.702l-.7-.057c-.035.463-.134.771-.218.906l.042.021-.029-.039-.011.016.04.023-.029-.039c-.003.014-.195.101-.577.096h-1.544c-.332 0-.581-.035-.725-.081a.577.577 0 0 1-.139-.058l-.015-.01c-.095-.13-.186-.391-.186-.828v-5.533h-.699m-8.923 8.105h.702V1.67h-2.666l.03 20.425h2.636v-.702h-.702v-.703h-.529l-.029-17.616h.559v-.701h-.703v19.02h.702v-.703.703M231.999 3.311v.703h2.197l.001 18.081h2.54V4.012l1.126.002h1.964V1.719h-8.53v2.295h.702v-.703h.702v-.188h5.721v.188h.703v-.703h-3.792V20.69h-.434v.702h.702V2.608h-3.603v.703h.702-.701m-11.808.975l-.691.131 3.355 17.678h2.913l-4.25-20.4h-2.521l-3.947 20.4h2.784l2.718-15.749.332-1.941-.693-.119-.691.131.691-.131-.692-.118-.332 1.939-2.517 14.582-.747.001v.702l.689.133 3.562-18.428h.221l3.664 17.592h-.02L220.155.335l-.657 3.832.693.119m-11.902 17.107h.701V1.67h-2.666l.031 20.425h2.635v-.702h-.701v-.703h-.53l-.029-17.616h.559v-.701h-.703v19.02h.703v-.703.703m-14.725-8.102h-.703v5.533c.001.615.118 1.178.445 1.642.485.626 1.195.726 2.023.739h1.544c.688-.004 1.365-.133 1.769-.76.269-.457.351-.982.354-1.597v-2.782l.4.001v-.702h-.702v4.168l.001.062c-.005.252-.076.455-.299.715-.193.212-.456.348-.96.381l.037.701v-.702h-3.09v.702l.03-.702c-.636-.033-.901-.2-1.032-.378a1.56 1.56 0 0 1-.314-.945V4.397c.004-.384.104-.663.324-.94.147-.184.446-.352 1.086-.383l-.031-.701v.701h2.901v-.701l-.037.701c.501.029.825.172 1.099.424.275.272.344.46.349.682v3.516l-.401.001v.702h.702V4.916c-.003-.614-.085-1.141-.353-1.598-.403-.625-1.081-.756-1.769-.76h-2.175c-.562-.016-1.145.271-1.453.748-.311.451-.433.998-.432 1.586l-.017 4.295v4.104h1.405V9.189l.016-4.296c.001-.403.084-.646.183-.788.1-.117.1-.125.298-.143h2.175c.25 0 .427.033.511.064l.064.031.031-.042-.042.026.011.016.031-.042-.042.026c.067.104.154.4.151.873V9.1h2.509V4.25l.001-.07c.005-.646-.306-1.252-.787-1.699-.526-.505-1.231-.775-1.991-.811h-2.97c-.854.035-1.62.295-2.115.902a2.838 2.838 0 0 0-.637 1.825v14.97a2.956 2.956 0 0 0 .583 1.771c.471.646 1.251.923 2.105.956h3.135l.023-.001c.758-.033 1.462-.309 1.939-.853.409-.458.656-1.038.651-1.646l-.002-.099-.702.019h.702v-4.853h-2.508v4.186c.003.472-.084.771-.152.874l.042.021-.03-.039-.01.016.04.023-.03-.039c-.002.014-.195.101-.576.096h-1.544c-.333 0-.581-.035-.725-.081a.559.559 0 0 1-.139-.058l-.015-.01c-.096-.13-.187-.391-.186-.828v-5.533h-.699m-8.86 6.078h-.703c-.01.373-.11.6-.417.874-.314.267-.697.419-1.248.45l.034.701v-.702h-2.711v.702l.03-.702c-.636-.033-.901-.2-1.032-.378a1.56 1.56 0 0 1-.314-.945V4.397c.004-.384.104-.663.325-.94.146-.184.445-.352 1.085-.383l-.031-.701v.701h3.091v-.701l-.031.701c.661.029.927.205 1.007.326.172.244.242.468.246.749l-.001.101v4.149l-.032 10.966.702.002.702.002.032-10.969V4.25l.001-.101a2.633 2.633 0 0 0-.512-1.57c-.468-.637-1.231-.874-2.084-.909h-3.152c-.854.035-1.62.295-2.115.902a2.843 2.843 0 0 0-.637 1.825v14.97a2.956 2.956 0 0 0 .583 1.771c.471.646 1.251.923 2.105.956h2.758l.021-.001c.794-.035 1.525-.294 2.094-.786a2.493 2.493 0 0 0 .907-1.94h-.703m-5.864-6.076h-.703v5.533c.001.615.118 1.178.445 1.642.484.626 1.195.726 2.023.739h1.544c.688-.004 1.366-.133 1.769-.76.253-.427.365-.926.414-1.517l.002-.026V4.916c-.003-.614-.085-1.141-.353-1.598-.403-.625-1.08-.756-1.769-.76h-2.175c-.562-.016-1.145.271-1.453.748-.312.451-.433.998-.432 1.586l-.017 4.295v4.104h1.405V9.189l.016-4.296c.001-.403.084-.646.182-.788.101-.117.101-.125.299-.143h2.175c.25 0 .427.033.511.064l.064.031.031-.042-.042.026.011.016.031-.042-.042.026c.067.104.154.4.152.873v13.957h.702l-.701-.057c-.034.463-.133.771-.217.906l.042.021-.03-.039-.01.016.04.023-.03-.039c-.002.014-.195.101-.576.096h-1.544c-.333 0-.581-.035-.725-.081a.559.559 0 0 1-.139-.058l-.015-.01c-.096-.13-.187-.391-.186-.828v-5.533h-.699m-14.725-4.099l.702.003.016-4.299c.001-.403.084-.646.183-.788.1-.117.1-.125.298-.143h2.175c.25 0 .427.033.511.064l.064.031.03-.04-.041.024.011.016.03-.04-.041.024c.067.104.154.4.151.873V9.1h2.509V4.25h-.702l.702.027.001-.128a2.652 2.652 0 0 0-.511-1.569c-.411-.582-1.101-.879-1.824-.91h-3.413c-.854.035-1.621.295-2.115.902a2.843 2.843 0 0 0-.637 1.825v6.028c-.002.664.165 1.293.609 1.75.446.456 1.075.635 1.733.631h2.837c.34.005.504.088.543.125.032.037.07.053.079.281 0 0-.003.04.001.113l.701-.035-.702.006.047 5.582c-.006.354-.089.528-.237.686-.109.111-.354.234-.873.236h-1.544c-.252 0-.428-.032-.513-.064l-.064-.031-.031.041.043-.025-.012-.016-.031.041.043-.025c-.067-.102-.154-.399-.152-.872v-4.186h-2.508v4.853h.702l-.702-.037-.003.115c-.005.604.238 1.19.654 1.648a2.44 2.44 0 0 0 1.673.852l.018.001h3.405c.854-.035 1.62-.295 2.114-.901a2.844 2.844 0 0 0 .638-1.826v-7.064c.003-.504-.133-1.018-.509-1.389-.374-.371-.886-.503-1.392-.5h-3.343c-.348 0-.5-.08-.535-.115-.032-.033-.078-.066-.086-.318v-.793h-1.405v.791c-.008.504.167 1.039.576 1.385.405.344.915.453 1.45.453h3.343c.292.003.38.069.404.094.023.023.088.104.091.391v7.064a1.432 1.432 0 0 1-.323.941c-.147.183-.447.351-1.086.382l.031.702v-.702h-3.342v.702l.049-.701c-.279-.025-.479-.119-.723-.383-.223-.26-.294-.459-.299-.715l.002-.042.001-.014v-3.472l.401.001v-.702h-.702v3.483c.003.613.084 1.139.352 1.597.403.627 1.081.756 1.771.76h1.544c.723.002 1.392-.172 1.87-.651.44-.437.651-1.052.645-1.681l-.048-5.613v-.006l.001-.041c.01-.494-.174-1.025-.582-1.358-.402-.333-.9-.441-1.432-.452h-2.85c-.437-.004-.627-.105-.728-.209-.103-.103-.209-.314-.211-.768V4.397c.004-.384.104-.663.325-.94.146-.184.445-.352 1.085-.383l-.03-.701v.701h3.342v-.701l-.04.701c.455.035.626.148.764.326.17.243.243.469.246.749l-.001.071v3.476l-.401.001v.702h.702V4.916c-.003-.614-.085-1.141-.353-1.598-.403-.625-1.08-.756-1.769-.76h-2.175c-.561-.016-1.145.271-1.453.748-.311.451-.433.998-.432 1.586l-.017 4.295.705.002m-14.724 0l.702.003.016-4.299c0-.403.084-.646.183-.788.101-.117.101-.125.298-.143h2.175c.25 0 .427.033.511.064l.065.031.03-.042-.042.026.012.016.03-.042-.042.026c.067.104.154.4.152.873V9.1h2.508V4.25h-.702l.702.027.001-.128a2.652 2.652 0 0 0-.511-1.569c-.411-.582-1.101-.879-1.824-.91h-3.413c-.854.035-1.621.295-2.114.902a2.839 2.839 0 0 0-.638 1.825v6.028c-.002.664.165 1.293.609 1.75.446.456 1.076.635 1.733.631h2.837c.34.005.504.088.543.125.033.037.07.053.079.281 0 0-.003.04.001.113l.701-.035-.702.006.047 5.582c-.006.354-.089.528-.237.686-.109.111-.354.234-.873.236h-1.544c-.252 0-.428-.032-.513-.064l-.064-.031-.031.041.043-.025-.012-.016-.031.041.043-.025c-.067-.102-.154-.399-.152-.872v-4.186h-2.508v4.853h.702l-.702-.037-.003.115c-.005.604.238 1.19.654 1.648a2.44 2.44 0 0 0 1.673.852l.018.001h3.405c.854-.035 1.62-.295 2.114-.901a2.844 2.844 0 0 0 .638-1.826v-7.064c.003-.504-.133-1.018-.509-1.389-.374-.371-.886-.503-1.392-.5h-3.343c-.348 0-.5-.08-.535-.115-.032-.033-.078-.066-.086-.318v-.793h-1.405v.791c-.007.504.166 1.039.576 1.385.406.344.915.453 1.45.453h3.343c.292.003.38.069.404.094.023.023.088.104.091.391v7.064a1.432 1.432 0 0 1-.323.941c-.147.183-.447.351-1.086.382l.032.702v-.702h-3.343v.702l.049-.701c-.279-.025-.479-.119-.722-.383-.224-.26-.295-.459-.3-.715l.003-.056v-3.472l.401.001v-.702h-.702v3.483c.003.613.084 1.139.352 1.597.403.627 1.08.756 1.771.76h1.544c.722.002 1.392-.172 1.87-.651.44-.437.651-1.052.645-1.681l-.048-5.613v-.006l.001-.041c.01-.494-.174-1.025-.582-1.358-.402-.333-.9-.441-1.432-.452h-2.85c-.437-.004-.627-.105-.728-.209-.103-.103-.209-.314-.211-.768V4.397c.005-.384.104-.663.325-.94.146-.184.446-.352 1.085-.383l-.03-.701v.701h3.342v-.701l-.04.701c.455.035.626.148.764.326.171.243.243.469.246.749l-.001.071v3.476l-.401.001v.702h.702V4.916c-.003-.614-.085-1.141-.353-1.598-.403-.625-1.08-.756-1.769-.76h-2.175c-.561-.016-1.145.271-1.453.748-.312.451-.433.998-.432 1.586l-.017 4.295.705.002m-13.07-4.903l-.692.12 1.528 8.824h-1.543l1.4-8.834-.693-.11-.692.12.692-.12-.694-.11-1.659 10.459h4.857L136.289 0l-.662 4.176.694.11m-2.949 17.107l.686.156 1.342-5.926h2.126l1.482 6.472h2.891l-4.25-20.4h-2.522l-3.946 20.4h2.753l.124-.546-.686-.156v-.703h-.488l3.402-17.593h.22l3.664 17.592h-.042l-1.482-6.471h-4.368l-1.59 7.018.684.157v-.703.703M107.486 2.446l.014.702.769-.016 5.816 18.168V3.123h.496v-.701h-.703V20.69h-.306v.702l.668-.215L108.013 1.8v18.889l-.527.001v.702h.702V2.446h-.702l.014.702-.014-.702h-.703v19.648h2.635V10.76l3.64 11.335h2.224V1.719h-2.604v10.582l-3.392-10.592-2.504.048v.689h.704m-11.839 1.84l-.69.131 3.355 17.678h2.913l-4.25-20.4h-2.522l-3.945 20.4h2.784L96.01 6.346l.331-1.941-.694-.119-.69.131.69-.131-.693-.118-.331 1.939-2.517 14.583h-.747v.702l.689.133 3.563-18.428h.221l3.664 17.592h-.021L95.61.328l-.656 3.84.693.118m-17.704 9.005h-.703v5.533c0 .615.119 1.178.445 1.642.485.626 1.195.726 2.023.739h1.545c.688-.004 1.365-.133 1.769-.76.268-.457.35-.982.352-1.597v-2.782l.401.001v-.702h-.703v4.177l.001.054c-.005.253-.077.455-.299.715-.194.213-.457.348-.959.381l.036.701v-.703h-3.09v.702l.031-.702c-.636-.033-.902-.2-1.031-.378a1.554 1.554 0 0 1-.315-.945V4.397c.004-.386.104-.663.324-.94.147-.184.446-.352 1.086-.383l-.031-.701v.701h2.901v-.701l-.036.701c.5.029.825.172 1.098.426.276.271.343.457.349.68l-.001.07v3.446l-.401.001v.702h.702V4.916c-.003-.614-.084-1.141-.353-1.598-.403-.625-1.08-.756-1.769-.76H79.14c-.561-.016-1.143.271-1.453.748-.312.451-.432.998-.432 1.586l-.016 4.295v4.104h1.405V9.189l.015-4.296c0-.403.084-.646.183-.788.1-.117.1-.125.297-.143h2.175c.251 0 .427.033.511.064l.065.031.03-.04-.042.024.012.016.03-.04-.042.024c.068.104.155.4.152.873V9.1h2.509V4.18c.006-.646-.305-1.252-.788-1.701-.526-.503-1.231-.773-1.991-.809h-2.965c-.854.035-1.621.295-2.115.902a2.84 2.84 0 0 0-.638 1.825v14.97a2.964 2.964 0 0 0 .584 1.771c.47.646 1.249.923 2.105.956h3.148l.01-.001c.757-.033 1.461-.309 1.939-.852.41-.459.656-1.042.651-1.646l-.001-.107-.702.027h.703v-4.853H81.97v4.186c.003.472-.084.771-.153.874l.043.023-.031-.041-.011.016.042.025-.031-.041c-.002.014-.195.101-.576.096h-1.545c-.333 0-.581-.035-.725-.081a.53.53 0 0 1-.138-.058l-.014-.01c-.096-.131-.187-.391-.186-.828V13.29h-.702m-8.922 8.103h.702V1.67h-2.667l.032 20.425h2.634v-.702h-.701v-.703h-.529l-.03-17.616h.558v-.701h-.703v19.02h.704v-.703.703M54.201 2.965v.701h2.033v-.701l-.059.7c1.048.11 1.427.409 1.625.896.261.678.412 1.665.411 2.938h.703l-.702-.047c-.06.928-.182 1.693-.352 2.285-.174.607-.382 1.056-.589 1.339-.108.157-.391.347-1.008.433l.096.695v-.702h-1.458V2.965h-.7v.701-.701h-.703v9.941h2.912l.046-.007c.812-.112 1.517-.4 1.956-1.001.341-.475.594-1.064.799-1.773.208-.727.338-1.583.404-2.582l.001-.021v-.024c-.001-1.38-.154-2.518-.503-3.438-.41-1.111-1.515-1.709-2.821-1.797l-.025-.002h-2.77v.703h.704m-.015 18.429h.702v-7.747l.653.001c.13 0 .232.007.297.016l.065.012.012-.049-.02.045.007.004.012-.049-.02.045.292-.639-.341.614c.053.027.167.12.3.306.099.128.293.518.5 1.093.213.583.495 1.45.839 2.587l1.313 4.464h2.935l-1.814-6.091c-.314-1.035-.646-1.908-1.006-2.632a4.73 4.73 0 0 0-.813-1.121l-.51.483.198.674c1.048-.299 1.857-1.081 2.313-2.146.455-1.038.665-2.272.666-3.69 0-1.102-.13-2.123-.397-3.059-.272-.936-.627-1.662-1.2-2.154-.585-.489-1.36-.678-2.243-.678H52.33v20.413h2.556v-.702h-.7v-.703h-.449V3.086h3.191c.693 0 1.111.154 1.336.348.236.191.532.671.755 1.465.226.793.343 1.683.343 2.674 0 1.281-.194 2.32-.548 3.125-.353.781-.789 1.168-1.423 1.363l-1.101.324.79.833c.268.283.457.548.576.784.311.623.62 1.43.917 2.407l1.274 4.28-.523.001v.702l.674-.199-1.167-3.965a54.31 54.31 0 0 0-.865-2.666c-.234-.636-.434-1.09-.682-1.438-.215-.293-.453-.538-.756-.708l-.027-.015-.022-.011c-.316-.133-.585-.143-.938-.148h-2.058v9.15h.703v-.702.703m-8.719 0l.701-.035-.081-1.605h-5.83V12.83l5.233.001v-2.38h-5.234V4.014h5.663l.041-2.27h-8.338v20.351h8.583l-.038-.737-.7.035v-.703h-6.44V3.148h5.503l-.003.149.703.013v-.702h-6.378v9.247h5.233v.273h.703v-.702h-5.937v9.729h5.898l.015.271.703-.033v-.703.703M29.229 4.199h-.703v17.896h2.682V1.67h-3.46l-5.331 15.62-5.605-15.62h-3.086l-.052 20.416 2.542-.056V8.149l5.053 13.938 1.237-.042-.024-.701v.701h1.077L29.89 4.438l-.661-.239h-.703.703l-.662-.237-5.997 16.679h-.129l-.199.007L14.811.16v20.495l-.448.011.016.702.702.001.045-18.295h.696l6.628 18.473 6.304-18.473h1.049v17.615l-.574.001v.702h.702V.172l-1.364 3.79.662.237M5.14 4.286l-.692.12 1.528 8.824H4.433l1.401-8.834-.694-.11-.692.12.692-.12-.694-.11-1.658 10.459h4.858L5.11.008l-.664 4.168.694.11M2.191 21.393l.685.156 1.343-5.926h2.125l1.483 6.472h2.889l-4.249-20.4H3.945L0 22.095h2.753l.124-.546-.686-.156v-.703h-.488L5.104 3.098h.221L8.99 20.689h-.043l-1.481-6.471H3.097l-1.591 7.018.685.157v-.703.703m316.662 31.169l.701-.031-.068-1.607-5.336-.024.029-6.92 4.79.021.01-2.38-4.789-.021.027-6.438 5.181.021.047-2.27-7.748-.031-.085 20.352 7.974.032-.032-.735-.701.031.003-.703-5.834-.024.073-17.542 4.916.021-.002.149.703.017.002-.702-5.896-.025L312.78 43l4.789.02-.001.273.702.004.004-.703-5.492-.022-.04 9.729 5.396.023.012.269.703-.031.003-.703-.003.703m-19.64-19.029l.011.701.646-.01 5.36 18.592.077-18.58.395.002.003-.703-.702-.003-.077 18.269h-.221l-.003.702.675-.195-5.737-19.819-.08 19.29-.423-.001-.003.703.702.003.079-18.946-.702-.005.011.701-.011-.701-.703-.003-.082 19.648 2.53.011.045-10.939 3.169 10.953 2.152.009.085-20.376-2.502-.01-.041 10.184-2.946-10.208-2.407.04-.003.688.703.003m-7.119 18.918l.702.002.082-19.723-2.56-.012-.056 20.426 2.53.012.003-.703-.701-.002.003-.703-.425-.002.047-17.615.451.002.003-.702-.703-.004-.078 19.021.702.003.003-.703-.003.703m-13.44-8.158l-.703-.004-.022 5.534c-.001.608.1 1.155.395 1.62.443.637 1.146.76 1.914.771l1.413.005c.644.007 1.321-.151 1.686-.776.246-.451.319-.964.325-1.572l.011-2.781.309.002.003-.703-.702-.002-.018 4.15v.08c-.006.268-.08.482-.281.738-.179.205-.385.321-.822.352l.038.703.003-.703-2.828-.012-.003.702.036-.701c-.561-.04-.762-.183-.882-.36a1.686 1.686 0 0 1-.291-.969l.062-14.969c.006-.398.104-.689.307-.965.136-.177.37-.322.936-.354l-.031-.701-.003.702 2.655.01.002-.701-.043.701c.435.031.702.159.947.407.245.266.315.462.319.704l-.001.069-.014 3.446h-.308l-.003.703.702.002.015-3.482c0-.608-.07-1.123-.311-1.574-.36-.63-1.036-.792-1.681-.791l-1.99-.009a1.607 1.607 0 0 0-1.397.765c-.284.449-.395.98-.396 1.561l-.033 4.296-.003.793-.007 1.681-.007 1.629.702.003.701.002.008-1.631.006-1.679.004-.79.032-4.297c.002-.41.083-.668.176-.812.1-.119.065-.098.208-.116l1.991.009c.221 0 .367.033.426.058l.04.02.044-.052-.059.033.015.019.044-.052-.059.033c.064.107.146.418.141.896l-.018 4.185 2.414.011.021-4.852v-.07c.009-.627-.265-1.225-.708-1.682-.484-.512-1.157-.8-1.876-.839l-.013-.001-2.696-.01h-.021c-.801.029-1.543.306-1.998.916a2.965 2.965 0 0 0-.586 1.801l-.062 14.969a3.12 3.12 0 0 0 .521 1.75c.425.649 1.179.955 1.982.987l.014.001 2.872.012h.017c.718-.031 1.396-.322 1.835-.868.379-.461.599-1.03.598-1.62v-.099l-.702.015.702.004.021-4.854-2.415-.01-.017 4.186c0 .479-.083.789-.148.896l.058.029-.042-.05-.016.019.058.031-.042-.05c-.001.006-.131.079-.468.074l-1.413-.006a2.134 2.134 0 0 1-.629-.077l-.104-.049-.005-.002c-.089-.132-.176-.408-.173-.854l.022-5.533-.701-.001m-8.199 8.067l.702.003.082-19.723-2.56-.012-.056 20.426 2.53.012.003-.703-.701-.003.003-.702-.425-.002.047-17.615.451.001.003-.702-.702-.003-.079 19.021.702.002.003-.702-.003.702m-13.585-18.1l.018.701 1.213-.031-.02-.703-.002.703c.308.004.561.089.839.302.471.354.888 1.048 1.149 2.179.266 1.135.442 2.932.507 5.334l.703-.019-.701-.052a188.54 188.54 0 0 1-.303 3.775c-.071.742-.309 1.572-.729 2.486-.416.934-.81 1.516-.863 1.533-.126.11-.41.258-.849.369l.177.681-.005-.702-.503.002.07-16.557-.701-.001.018.701-.018-.701-.703-.004-.074 17.977 2.011-.013.083-.021c.561-.148 1.029-.344 1.405-.658.447-.41.751-1.01 1.229-2.018.472-1.025.762-2.004.852-2.94.081-.851.184-2.116.306-3.807l.002-.035-.001-.035c-.067-2.456-.24-4.309-.543-5.613-.305-1.31-.822-2.332-1.661-2.976a2.732 2.732 0 0 0-1.69-.593h-.021l-1.893.05-.003.682.701.004m1.424 18.051l.03.701c.766-.043 1.388-.158 1.878-.614.286-.28.585-.634.909-1.063.354-.471.685-1.059 1.01-1.779.353-.778.586-1.738.731-2.891.144-1.143.217-2.443.224-3.906.007-1.709-.09-3.24-.292-4.598-.205-1.365-.526-2.508-.991-3.434l-.04-.076-.05-.061c-.508-.604-1.015-1.094-1.536-1.47l-.028-.021-.031-.019a2.815 2.815 0 0 0-1.416-.372c-.034 0-.085-.002-.159.004l.058.701.003-.703-3.43-.014-.084 20.301 3.228.014h.018l-.032-.7.003-.703-1.809-.008.072-17.492 2.058.008.029-.002h.037a1.4 1.4 0 0 1 .721.186l.352-.608-.411.57c.399.287.831.697 1.281 1.233l.538-.451-.627.314c.372.741.668 1.746.855 3.01.19 1.271.284 2.733.277 4.385-.006 1.418-.078 2.666-.213 3.737-.133 1.06-.349 1.896-.618 2.487-.296.653-.586 1.161-.851 1.512a8.128 8.128 0 0 1-.771.904c-.012.037-.334.197-.954.215l.031.703.003-.703-.003.703m-9.391-.04l.701-.031-.068-1.607-5.334-.023.028-6.92 4.79.021.01-2.38-4.789-.02.027-6.439 5.18.022.048-2.27-7.748-.032-.085 20.352 7.974.032-.032-.735-.702.03.003-.703-5.833-.024.073-17.542 4.916.021-.003.148.703.016.002-.702-5.895-.024-.039 9.248 4.789.02-.001.273.702.004.004-.703-5.492-.023-.04 9.729 5.397.022.011.27.703-.03.003-.703-.003.703m-14.786-17.253l-.703-.004-.073 17.895 2.573.011.085-20.425-3.282-.014-4.889 15.423-5.007-15.464-2.939-.014-.133 20.418 2.445-.048.057-13.529 4.452 13.608 1.192-.039-.024-.701-.002.701.533.002.508.003 5.873-17.602-.666-.221-.703-.004.703.004-.666-.225-5.551 16.639h-.062l-.128.004-6.828-20.861-.086 20.844-.354.008.014.702.702.005.118-18.295.521.002 6.045 18.672 5.901-18.623.844.004-.074 17.615-.466-.001-.002.702.702.003.09-21.562-1.387 4.143.667.224M205.21 52.089l.702-.028-.067-1.659-5.336-.022.075-18.033-2.56-.01-.056 20.425 7.973.033-.029-.733-.702.027.002-.702-5.834-.025.046-17.615.452.002.003-.702-.703-.003-.077 18.734 5.396.023.013.316.702-.028.002-.702-.002.702m-17.299-17.178l-.692.116 2.999 17.701 2.782.012-3.804-20.416-2.425-.01-3.696 20.385 2.666.012 2.553-15.75.311-1.939-.694-.111-.692.116.692-.116-.693-.112-.311 1.939-2.363 14.562-.624-.001-.003.703.69.123 3.336-18.402h.084l3.279 17.605-.492-.002-.003.704.693-.119-3.613-21.299-.674 4.187.694.112m-17.349-1.048l-.003.701 1.154.005.797.003-.075 18.082 2.443.011.076-18.083.971.005 1.855.008.01-2.294-3.963-.016-3.962-.018-.009 2.294.702.003.004-.701.702.003.001-.188 2.558.012 2.558.011-.001.187.702.004.003-.703-1.153-.005-2.376-.011-.076 18.082-.336-.001-.002.702.701.004.078-18.784-2.202-.01-1.153-.005-.004.702.702.003-.702-.003m-6.985 18.053l.702-.029-.068-1.609-5.335-.021.028-6.922 4.791.021.009-2.381-4.789-.02.027-6.438 5.181.021.047-2.268-7.749-.033-.084 20.352 7.973.033-.03-.734-.703.028.003-.703-5.833-.023.073-17.543 4.915.021-.002.15.702.015.003-.702-5.896-.025-.038 9.248 4.788.02-.001.273.703.004.004-.703-5.492-.022-.041 9.729 5.397.023.012.269.703-.031.003-.703-.003.703m-13.184-.055l.702-.027-.067-1.661-5.336-.021.075-18.032-2.56-.012-.056 20.426 7.973.033-.029-.732-.702.026.003-.703-5.835-.023.047-17.617.451.003.003-.702-.702-.004-.078 18.734 5.396.023.014.316.701-.027.003-.703-.003.703m-13.474-.056l.701-.029-.067-1.609-5.335-.021.028-6.922 4.79.021.01-2.381-4.791-.02.028-6.438 5.181.021.048-2.27-7.749-.033-.085 20.352 7.973.033-.031-.734-.701.03.003-.702-5.833-.024.073-17.543 4.916.021-.002.15.702.016.003-.703-5.895-.023-.039 9.247 4.789.02-.002.274.703.002.004-.702-5.493-.022-.041 9.729 5.397.021.012.271.703-.032.003-.702-.003.702m-19.128-.079l.702-.002-.015-6.708.544-1.135 2.587 8.562 2.761.012-3.706-11.99 3.754-8.386-2.84-.013-3.061 7.029.06-7.041-2.461-.011-.085 20.376 2.463.011-.002-.707-.701.003.003-.702-.352-.002.073-17.566.352.002.003-.703-.703-.006-.115 13.232 5.445-12.505.836.003.003-.701-.642-.287-3.531 7.885 3.297 10.667-.325-.001-.003.702.672-.204-3.483-11.521-2.249 4.681.015 7.028.704-.002.003-.702-.003.702m-13.177-12.257l.702.004.032-4.299c.001-.41.083-.668.176-.811.099-.119.065-.1.208-.117l1.99.008c.221.001.368.033.427.059l.04.02.043-.053-.059.033.016.02.043-.053-.059.033c.065.107.145.418.141.896l-.018 4.186 2.415.01.02-4.852.002-.099a2.788 2.788 0 0 0-.457-1.55c-.369-.582-1.035-.906-1.724-.94l-.012-.001-3.102-.013-.02.001c-.801.029-1.544.306-1.998.916a2.975 2.975 0 0 0-.586 1.801l-.003.791-.022 5.236c-.002.656.138 1.266.546 1.73.41.467 1.025.664 1.647.66l2.596.012c.293.007.411.08.435.105.021.026.068.062.073.303l-.001.077.02 5.587c-.006.367-.092.559-.225.708-.094.103-.28.21-.736.212l-1.412-.006a1.243 1.243 0 0 1-.428-.059l-.039-.02-.044.053.061-.032-.016-.021-.044.053.061-.032c-.065-.109-.146-.42-.141-.897l.018-4.187-2.415-.009-.02 4.852.703.004-.702-.039-.003.117a2.527 2.527 0 0 0 .585 1.624c.39.496.959.836 1.584.881l.027.003 3.113.012h.005c.801-.029 1.544-.307 1.998-.918a2.963 2.963 0 0 0 .586-1.799l.029-7.064c.003-.496-.109-.988-.455-1.369-.348-.381-.854-.529-1.335-.526l-3.058-.013c-.302-.003-.405-.073-.427-.096-.021-.022-.077-.077-.08-.341l.003-.79-.704-.001-.703-.004-.004.791c-.007.492.137 1.007.519 1.366.38.357.882.479 1.388.479l3.057.013c.249.006.29.056.306.073.019.016.086.117.086.412l-.03 7.064c-.005.398-.103.688-.306.963-.136.178-.37.324-.935.355l.032.703.002-.703-3.057-.013-.003.702.057-.7c-.222-.024-.382-.099-.604-.362-.201-.254-.271-.468-.274-.736l.001-.047v-.014l.014-3.47.308.003.003-.703-.703-.002-.014 3.482c0 .607.07 1.122.312 1.574.358.629 1.035.792 1.679.791l1.413.006c.679.008 1.332-.18 1.777-.667.408-.441.596-1.038.593-1.655l-.02-5.589v-.071c.008-.484-.146-.994-.525-1.342-.378-.344-.866-.466-1.368-.477l-2.609-.012c-.379-.008-.512-.094-.601-.189-.09-.096-.195-.328-.193-.791l.025-6.027c.005-.398.103-.689.306-.964.135-.177.37-.325.935-.355l-.031-.701-.003.702 3.057.013.003-.702-.046.701c.389.037.509.128.638.305.157.244.228.482.229.775l-.001.084-.014 3.463-.308-.002-.003.703.702.004.015-3.483c-.001-.609-.07-1.122-.311-1.575-.36-.629-1.037-.792-1.68-.791l-1.99-.009a1.609 1.609 0 0 0-1.398.767c-.285.447-.394.979-.396 1.559l-.031 4.296.704.007m-8.15 10.142l-.703-.004c-.01.391-.115.631-.388.895-.282.258-.605.396-1.087.424l.035.702.002-.702-2.481-.01-.003.702.037-.702c-.561-.039-.762-.182-.882-.359a1.69 1.69 0 0 1-.29-.969l.062-14.97c.004-.397.103-.689.305-.964.136-.178.371-.324.936-.355l-.031-.701-.003.701 2.827.012.003-.701-.036.701c.586.035.785.188.859.307.158.244.228.48.229.774l-.002.077v.021l-.018 4.15-.074 10.965.703.006.702.004.075-10.967.018-4.152-.702-.002.702.023.002-.119a2.76 2.76 0 0 0-.458-1.551c-.423-.641-1.165-.904-1.963-.94l-.014-.001-2.86-.012h-.02c-.801.029-1.544.307-1.998.918a2.959 2.959 0 0 0-.586 1.799L89.3 49.582a3.111 3.111 0 0 0 .521 1.749c.424.649 1.179.954 1.983.987l.014.001 2.527.011h.011c.749-.033 1.448-.303 1.977-.799a2.56 2.56 0 0 0 .834-1.917l-.703-.003m-5.34-6.099l-.703-.002-.023 5.533c0 .609.101 1.156.396 1.619.443.638 1.146.76 1.913.771l1.414.006c.644.006 1.321-.15 1.686-.775.23-.423.333-.912.38-1.496l.001-.024.058-13.983c0-.609-.071-1.124-.311-1.575-.36-.63-1.036-.792-1.681-.792l-1.991-.008a1.61 1.61 0 0 0-1.397.766c-.285.447-.394.98-.396 1.56l-.032 4.296-.003.793-.006 1.68-.007 1.631h.702l.702.003.018-4.101.032-4.296c.001-.411.083-.668.176-.812.099-.119.065-.098.208-.117l1.99.009c.22 0 .368.033.427.058l.04.021.042-.052-.058.031.015.021.042-.052-.058.031c.064.109.146.419.14.897l-.058 13.956.703.004-.701-.055c-.034.469-.128.786-.208.922l.058.031-.042-.051-.015.02.057.031-.042-.051c0 .006-.131.078-.468.074l-1.413-.006c-.296 0-.511-.037-.628-.077l-.104-.05h-.005c-.089-.133-.176-.41-.172-.854l.022-5.533-.7-.002m-7.81 8.07l.702-.027-.066-1.66-5.336-.023.075-18.032-2.561-.011-.055 20.426 7.972.033-.03-.732-.701.026.002-.702-5.834-.024.047-17.617.451.002.002-.701-.703-.003-.078 18.734 5.396.022.012.316.705-.027.002-.702-.002.702M63.29 48.683l.702.003.064-15.453.452.002.003-.701-.703-.004-.069 16.452c-.007.616.175 1.215.58 1.66.475.517 1.155.679 1.902.683l.75.002c.708.006 1.374-.168 1.835-.666.408-.442.595-1.039.593-1.656l.065-15.75.452.003.003-.702-.703-.002-.066 16.153-.003.742c-.005.432-.112.731-.318.998-.125.166-.425.34-1.092.367l.027.703.003-.702-1.14-.005-1.27-.006-.002.703.032-.703c-.667-.033-.967-.21-1.09-.376-.204-.269-.308-.568-.309-1.002l.003-.741-.701-.002-.703-.003-.003.742c-.006.686.193 1.342.602 1.866.488.627 1.265.882 2.136.921l1.3.006 1.172.005h-.002c.872-.032 1.649-.281 2.144-.903.413-.521.618-1.176.618-1.863l.073-17.598-2.559-.011-.072 17.154c-.006.37-.092.562-.224.712-.08.092-.29.212-.793.212l-.75-.005c-.561 0-.803-.139-.863-.217-.131-.15-.216-.343-.219-.713l.071-17.156-2.559-.01-.07 16.857.701.004m-12.298-5.337l-.703-.004-.023 5.533c0 .609.101 1.157.396 1.621.443.637 1.146.76 1.913.77l1.414.007c.644.007 1.322-.149 1.687-.776.244-.451.317-.964.323-1.572l.012-2.78.308.001.002-.701-.703-.004-.018 4.168.001.01v.053c-.005.268-.079.481-.282.736-.178.207-.385.323-.822.354l.038.703.002-.703-2.827-.012-.002.702.036-.702c-.561-.037-.762-.182-.882-.357a1.698 1.698 0 0 1-.29-.971l.062-14.969c.005-.398.103-.689.306-.964.136-.177.37-.325.935-.355l-.031-.701-.003.702 2.655.011.002-.702-.042.701c.434.032.701.159.945.407.247.267.317.462.321.705l-.001.059-.014 3.457-.307-.003-.003.703.703.003.015-3.482c-.001-.61-.071-1.124-.312-1.575-.36-.631-1.036-.793-1.68-.792l-1.99-.008a1.611 1.611 0 0 0-1.398.765c-.285.449-.394.981-.396 1.561l-.033 4.295-.002.793-.014 3.311.702.002.703.002.017-4.1.033-4.297c.001-.41.083-.668.175-.811.099-.12.065-.1.208-.117l1.99.008c.221 0 .368.033.428.058l.039.021.044-.055-.059.034.015.021.044-.055-.059.034c.064.109.146.419.141.897l-.018 4.186 2.415.01.021-4.852.001-.069c.007-.628-.266-1.227-.71-1.682-.483-.513-1.156-.802-1.875-.839l-.013-.001-2.71-.013-.006.002c-.801.029-1.544.306-1.998.916a2.967 2.967 0 0 0-.586 1.801l-.062 14.97a3.111 3.111 0 0 0 .521 1.749c.425.65 1.179.955 1.983.988h.014l2.871.013.016-.001c.718-.029 1.396-.322 1.836-.868.379-.461.6-1.03.599-1.62l-.001-.107-.702.024.702.003.02-4.854-2.415-.01-.017 4.187c.001.478-.082.788-.147.896l.058.031-.042-.051-.016.02.058.031-.042-.051c-.001.006-.131.078-.467.073l-1.414-.006c-.296 0-.511-.037-.628-.077l-.104-.049-.005-.001c-.089-.134-.175-.409-.172-.854l.023-5.533-.707-.002m-13.455-4.158l.702.005.032-4.298c.001-.411.083-.669.176-.812.099-.118.065-.098.208-.116l1.991.008c.22 0 .367.033.427.059l.04.021.042-.053-.058.032.015.021.042-.053-.058.032c.064.109.146.419.141.896l-.018 4.186 2.414.01.021-4.852-.702-.002.702.023.002-.12a2.768 2.768 0 0 0-.458-1.551c-.368-.581-1.034-.905-1.722-.938l-.012-.001-3.118-.013h-.006c-.801.029-1.544.306-1.998.918a2.965 2.965 0 0 0-.586 1.799l-.003.791-.022 5.236c-.002.657.138 1.266.546 1.73.409.467 1.025.664 1.646.66l2.597.012c.293.008.41.081.434.107.022.023.069.061.074.301l-.001.085.021 5.581c-.005.365-.092.558-.225.707-.094.103-.279.209-.735.211l-1.414-.006c-.221 0-.368-.033-.427-.059l-.04-.02-.044.053.061-.033-.016-.02-.044.053.061-.033c-.065-.108-.146-.418-.141-.896l.017-4.186-2.415-.01-.02 4.853.703.003-.702-.039-.003.117c-.007.59.208 1.162.586 1.623.389.496.958.838 1.583.882l.027.002 3.114.013h.005c.801-.029 1.543-.307 1.998-.917a2.954 2.954 0 0 0 .586-1.799l.03-7.065c.002-.495-.109-.988-.455-1.368-.348-.381-.854-.53-1.336-.527l-3.059-.013c-.303-.002-.406-.072-.428-.096-.021-.021-.076-.076-.08-.34l.003-.791-.701-.003-.703-.003-.004.791c-.006.493.138 1.008.52 1.366.38.356.882.479 1.387.479l3.058.014c.249.006.29.057.306.072.019.017.087.116.086.412l-.029 7.064c-.005.397-.104.688-.306.963-.136.179-.371.324-.936.356l.031.702.002-.703-3.058-.014-.003.703.057-.699c-.222-.025-.382-.1-.604-.363-.2-.255-.272-.468-.275-.736l.001-.047v-.014l.015-3.47.307.002.003-.702-.703-.002-.014 3.482c.001.608.07 1.122.312 1.575.359.629 1.035.791 1.679.79l1.414.006c.679.008 1.332-.18 1.778-.668.408-.44.595-1.038.593-1.654l-.02-5.588.001-.072c.008-.482-.146-.994-.526-1.34-.378-.346-.866-.467-1.368-.479l-2.61-.011c-.379-.008-.512-.094-.601-.188-.09-.098-.195-.33-.193-.793l.025-6.027c.005-.396.103-.689.306-.963.135-.178.37-.324.935-.355l-.031-.701-.003.701 3.058.012.002-.701-.045.701c.388.037.509.127.638.307.158.242.228.48.229.774l-.002.077v.021l-.015 3.447h-.307l-.003.702.702.003.015-3.484c0-.608-.071-1.122-.311-1.574-.36-.629-1.036-.791-1.681-.791l-1.991-.008a1.606 1.606 0 0 0-1.397.765c-.285.448-.394.981-.396 1.561l-.032 4.296.707.006M22.87 48.515l.703.003.064-15.454.452.003.003-.703-.703-.002-.069 16.45c-.007.616.174 1.216.579 1.661.476.517 1.155.677 1.902.682l.75.003c.708.006 1.375-.168 1.835-.666.408-.442.595-1.04.593-1.656l.029-6.743.003-.976.034-8.031.452.002.003-.701-.703-.002-.07 16.895c-.005.434-.112.732-.317 1-.125.166-.425.34-1.094.367l.028.703.002-.702-1.139-.005-1.27-.006-.002.703.032-.703c-.667-.033-.966-.211-1.09-.377-.204-.268-.307-.568-.309-1.001l.003-.741-.701-.003-.703-.003-.003.74c-.006.688.193 1.343.602 1.868.489.627 1.266.882 2.137.921l1.299.006 1.172.005h-.003c.872-.032 1.651-.282 2.144-.903.413-.521.618-1.176.618-1.863l.073-17.599-2.559-.01-.072 17.154c-.006.371-.092.562-.224.712-.08.092-.29.211-.793.211l-.75-.004c-.561 0-.804-.139-.863-.217-.132-.15-.216-.342-.219-.715l.072-17.154-2.559-.011-.07 16.858.701.004m-8.235-14.411l-.703-.003-.075 17.896 2.574.01.085-20.426-3.282-.014L8.347 46.99 3.339 31.525.4 31.514.267 51.932l2.446-.049.056-13.529 4.452 13.609 1.191-.039-.023-.703-.002.703.534.002.509.002 5.873-17.602-.668-.222-.703-.003.703.003-.667-.223-5.551 16.638h-.024l-.019-.001-.145.006L1.4 29.656l-.086 20.85-.354.006.014.703.702.004.119-18.295.521.002 6.045 18.673 5.901-18.624.844.004-.074 17.616-.466-.001-.003.702.703.003.089-21.566-1.387 4.148.667.223"/></svg>