<svg xmlns="http://www.w3.org/2000/svg" width="200" height="40" viewBox="50 0 200 40"><path d="M98.923 4.057h2.294c3.309 0 5.038 1.504 5.038 4.287 0 3.084-1.654 4.55-5.076 4.55h-2.257V4.057zm-7.256-2.182V3.53h.64c1.917 0 2.443.789 2.443 2.856v14.026c0 2.067-.526 2.857-2.443 2.857h-.64v1.654c1.729-.074 3.421-.074 5.151-.074s3.459 0 5.189.074v-1.654h-.602c-1.955 0-2.482-.753-2.482-2.857v-5.49h3.084c5.602 0 8.311-1.956 8.311-6.505 0-4.512-2.933-6.543-8.988-6.543h-9.663zm24.019 4.67c1.324 0 2.617-.03 3.911-.061V7.81h-.511c-1.654 0-1.956.571-1.956 2.286v8.151c0 3.431 1.053 4.996 4.271 4.996 3.159 0 4.241-1.565 4.241-4.935v-8.121c0-1.776-.331-2.376-2.075-2.376h-.481V6.485c1.293.031 2.527.061 3.76.061 1.203 0 2.406-.03 3.58-.061V7.81h-.542c-1.292 0-1.654.691-1.654 2.286v8.031c0 4.993-2.045 7.22-7.129 7.22-4.783 0-7.279-2.316-7.279-6.799v-8.453c0-1.564-.332-2.286-1.655-2.286h-.481V6.485c1.352.031 2.676.06 4 .06zm22.23 1.716h1.925c2.828 0 4.091 1.023 4.091 3.459 0 2.346-1.475 3.248-4.512 3.248h-1.504V8.261zm-5.806-1.776V7.81h.482c1.534 0 1.984.631 1.984 2.286v11.221c0 1.683-.421 2.286-1.984 2.286h-.482v1.322c1.384-.06 2.738-.06 4.121-.06 1.384 0 2.768 0 4.152.06v-1.322h-.511c-1.535 0-1.956-.604-1.956-2.286v-4.754h1.685c2.497 0 3.068.723 3.76 2.708.331.994.512 3.01 1.504 5.655h4.963v-1.322h-.301c-1.534 0-2.046-.903-2.556-2.979-.723-2.888-.903-4.542-3.219-4.934 2.166-.571 3.37-2.166 3.37-4.301 0-3.49-2.347-4.904-7.28-4.904h-7.732zm24.577 1.745h2.104c5.085 0 7.49 2.226 7.49 7.22 0 5.263-2.347 7.701-7.338 7.701h-2.257V8.23zm-5.807-1.745V7.81h.482c1.534 0 1.984.631 1.984 2.286v11.221c0 1.654-.45 2.286-1.984 2.286h-.482v1.322h8.814c6.829 0 10.168-3.067 10.168-9.445 0-6.106-3.489-8.995-10.649-8.995h-8.333zm23.712.06c1.323 0 2.617-.03 3.91-.061V7.81h-.511c-1.653 0-1.954.571-1.954 2.286v8.151c0 3.431 1.052 4.996 4.271 4.996 3.158 0 4.241-1.565 4.241-4.935v-8.121c0-1.776-.333-2.376-2.076-2.376h-.481V6.485c1.294.031 2.526.061 3.762.061 1.201 0 2.403-.03 3.577-.061V7.81h-.54c-1.294 0-1.655.691-1.655 2.286v8.031c0 4.993-2.046 7.22-7.128 7.22-4.785 0-7.281-2.316-7.281-6.799v-8.453c0-1.564-.33-2.286-1.653-2.286h-.483V6.485c1.353.031 2.677.06 4.001.06zm31.164.031v4.813h-1.533v-.482c0-2.347-.664-2.526-3.07-2.526h-4.36v6.227h1.414c2.286 0 2.796-.151 2.796-2.467h1.385v6.557h-1.353c-.032-2.255-.571-2.466-2.768-2.466h-1.475v6.859h4.242c2.826 0 3.309-.36 3.338-3.67h1.505v5.504h-15.012v-1.322h.633c1.594 0 1.954-.632 1.954-2.286V10.095c0-1.655-.39-2.286-1.954-2.286h-.512V6.576h14.77z" fill="#231F20"/><path d="M93.812 31.596c.443 0 .884-.01 1.307-.02v.52h-.118c-.539 0-.638.196-.638.768v2.643c0 .943.304 1.385 1.228 1.385.894 0 1.267-.451 1.267-1.404v-2.623c0-.54-.128-.768-.628-.768h-.118v-.52c.422.01.825.02 1.228.02.413 0 .806-.01 1.199-.02v.52h-.147c-.354 0-.492.246-.492.768v2.533c0 1.611-.677 2.34-2.406 2.34-1.622 0-2.418-.698-2.418-2.092v-2.781c0-.512-.088-.768-.481-.768h-.118v-.52c.451.009.903.019 1.335.019zm14.032-.02l2.309 4.932-.03-3.645c0-.54-.117-.768-.628-.768h-.117v-.52c.422.01.834.02 1.258.02.432 0 .855-.01 1.287-.02v.52h-.118c-.502 0-.629.228-.629.768v4.734h-1.67l-2.31-4.912.02 3.616c0 .54.118.775.629.775h.118v.521c-.422-.019-.845-.019-1.268-.019-.422 0-.845 0-1.276.019v-.521h.117c.501 0 .639-.235.639-.775v-3.438c0-.54-.137-.768-.639-.768h-.117v-.52h2.425zm12.478.02c.462 0 .935-.01 1.406-.02v.52h-.128c-.501 0-.628.228-.628.768v3.438c0 .54.127.775.628.775h.128v.521c-.471-.019-.944-.019-1.406-.019-.471 0-.943 0-1.414.019v-.521h.117c.502 0 .629-.235.629-.775v-3.438c0-.54-.127-.768-.629-.768h-.117v-.52c.471.01.943.02 1.414.02zm9.256 0c.422 0 .914-.01 1.455-.02v.52c-.501.02-.708.049-.708.323 0 .07.021.159.059.267l1.327 3.843 1.268-3.823a.932.932 0 0 0 .04-.255c0-.258-.227-.354-.708-.354v-.52c.472.01.904.02 1.317.02.403 0 .786-.01 1.139-.02v.52c-.353.068-.5.256-.629.63l-1.769 4.971h-1.423l-1.829-4.933c-.156-.432-.294-.637-.629-.668v-.52a35.6 35.6 0 0 0 1.09.019zm16.832 0v1.661h-.561v-.267c0-.571-.324-.688-1.05-.688h-1.209v1.876h.344c.649 0 .815-.118.826-.786h.53v2.182h-.53c-.03-.648-.177-.767-.787-.767h-.383v2.083h1.101c.982 0 1.199-.128 1.218-1.179h.551v1.886h-4.933v-.521h.119c.531 0 .629-.255.629-.775v-3.438c0-.54-.128-.768-.629-.768h-.119v-.5h4.883zm9.219.707h.501c.825 0 1.197.275 1.197 1.021 0 .717-.394.974-1.248.974h-.45v-1.995zm-2.066-.727v.52h.119c.5 0 .627.228.627.768v3.438c0 .54-.127.775-.627.775h-.119v.521c.473-.019.945-.019 1.416-.019.462 0 .935 0 1.406.019v-.521h-.129c-.5 0-.628-.235-.628-.775v-1.366h.471c.54 0 .845.158.981.551.188.521.218 1.276.58 2.111h1.809v-.521h-.05c-.274 0-.48-.078-.629-.255-.176-.207-.245-.647-.402-1.258-.167-.618-.305-.903-.864-.983.687-.165 1.062-.647 1.062-1.385 0-1.188-.807-1.62-2.525-1.62h-2.498zm17.157 1.798h-.757c.01-.069.01-.139.01-.196 0-.747-.372-1.082-1.188-1.082-.708 0-1.15.363-1.15.885 0 .424.236.658.756.864l1.248.501c.854.346 1.277.864 1.277 1.593 0 1.139-.854 1.798-2.445 1.798a9.746 9.746 0 0 1-2.164-.257v-1.698h.719c0 .05-.009.099-.009.139 0 .775.472 1.168 1.385 1.168.737 0 1.139-.325 1.139-.913 0-.425-.205-.641-.687-.847l-1.149-.491c-.953-.414-1.426-.854-1.426-1.641 0-1.081.845-1.76 2.39-1.76.627 0 1.316.1 2.052.277v1.66zm8.706-1.778c.462 0 .934-.01 1.406-.02v.52h-.128c-.501 0-.631.228-.631.768v3.438c0 .54.13.775.631.775h.128v.521c-.473-.019-.944-.019-1.406-.019-.471 0-.942 0-1.415.019v-.521h.119c.5 0 .629-.235.629-.775v-3.438c0-.54-.129-.768-.629-.768h-.119v-.52c.472.01.944.02 1.415.02zm10.17 0h1.661c.205 0 .835-.02 1.886-.02v1.816h-.649v-.157c0-.776-.216-.933-.942-.933h-.433v3.999c0 .54.127.775.629.775h.206v.521c-.501-.019-1.003-.019-1.493-.019-.5 0-1.001 0-1.503.019v-.521h.206c.502 0 .628-.235.628-.775v-3.999h-.53c-.658 0-.884.177-.884.835 0 .079 0 .156.011.255h-.619v-1.816c1.019 0 1.63.02 1.826.02zm11.466 0c.423 0 .864-.01 1.307-.02v.52h-.05c-.313 0-.452.089-.452.284 0 .1.049.217.119.354l.766 1.556.767-1.505a.926.926 0 0 0 .108-.374c0-.226-.148-.314-.481-.314v-.52c.423.01.826.02 1.228.02.395 0 .787-.01 1.17-.02v.52h-.04c-.314 0-.501.228-.765.658l-1.466 2.396v1.22c0 .521.1.707.669.707h.137v.521c-.461-.019-.933-.019-1.415-.019-.471 0-.951 0-1.434.019v-.521h.138c.56 0 .668-.187.668-.707v-1.237l-1.375-2.389c-.236-.402-.434-.629-.835-.648v-.52c.401.009.815.019 1.236.019zM91.817 27.394h114.09v1.082H91.817z" fill="#C4960C"/><path fill="#C4950C" d="M209.507 36.169c0 .762-.611 1.364-1.39 1.364s-1.398-.603-1.398-1.364.62-1.357 1.406-1.357c.771 0 1.382.595 1.382 1.357zm-2.441 0c0 .604.455 1.083 1.059 1.083.587.009 1.033-.479 1.033-1.076 0-.604-.446-1.092-1.05-1.092-.587 0-1.042.488-1.042 1.085zm.835.702h-.313v-1.355c.124-.019.297-.042.521-.042.257 0 .372.042.464.107a.34.34 0 0 1 .14.29c0 .164-.124.272-.281.321v.018c.133.042.199.149.241.33.04.207.074.282.1.331h-.331c-.042-.049-.067-.165-.108-.331-.024-.14-.107-.206-.281-.206h-.149v.537zm.008-.762h.149c.174 0 .314-.058.314-.198 0-.123-.091-.206-.29-.206a.672.672 0 0 0-.174.017v.387z"/></svg>