<svg xmlns="http://www.w3.org/2000/svg" width="60" height="60" viewBox="0.873 -6.371 60 60" enable-background="new 0.873 -6.371 60 60"><path fill="#fff" d="M28.262-1.579c-2.477.672-4.787 1.639-6.928 2.903-2.142 1.265-4.012 2.71-5.612 4.335-1.601 1.625-2.864 3.394-3.793 5.302-.929 1.91-1.393 3.87-1.393 5.883 0 1.188.232 2.219.697 3.096.464.877 1.057 1.315 1.781 1.315.67 0 1.238-.128 1.703-.387.464-.257.94-.555 1.432-.891.49-.334 1.045-.631 1.665-.889.619-.257 1.444-.387 2.477-.387 1.084 0 2.102.231 3.058.696.954.464 1.806 1.11 2.555 1.935.747.826 1.328 1.807 1.741 2.941.412 1.137.619 2.35.619 3.639 0 1.393-.285 2.685-.851 3.871-.568 1.188-1.354 2.232-2.361 3.135-1.006.905-2.181 1.6-3.522 2.09-1.342.49-2.787.736-4.335.736-2.012 0-3.884-.439-5.612-1.316-1.73-.877-3.239-2.09-4.528-3.639-1.291-1.549-2.31-3.354-3.058-5.419-.749-2.062-1.122-4.257-1.122-6.579 0-3.663.683-7.044 2.051-10.14 1.364-3.095 3.21-5.791 5.532-8.088 2.323-2.296 5.018-4.127 8.089-5.496 3.069-1.367 6.308-2.18 9.714-2.439v3.793zm29.414 0c-2.477.672-4.787 1.639-6.928 2.903-2.143 1.265-4.012 2.71-5.611 4.335-1.602 1.625-2.865 3.394-3.793 5.302-.93 1.91-1.395 3.87-1.395 5.883 0 1.188.234 2.219.697 3.096.465.877 1.057 1.315 1.779 1.315.672 0 1.24-.128 1.703-.387.465-.257.941-.555 1.434-.891.488-.334 1.043-.631 1.664-.889.619-.257 1.443-.387 2.477-.387 1.084 0 2.102.231 3.059.696.953.464 1.805 1.11 2.553 1.935.748.826 1.33 1.807 1.742 2.941.412 1.137.619 2.35.619 3.639 0 1.395-.283 2.685-.85 3.871-.568 1.188-1.355 2.232-2.361 3.135-1.008.905-2.182 1.6-3.523 2.09-1.342.492-2.785.736-4.334.736-2.012 0-3.885-.438-5.611-1.316-1.73-.877-3.24-2.09-4.53-3.637-1.29-1.55-2.31-3.355-3.057-5.42-.749-2.063-1.123-4.258-1.123-6.58 0-3.663.684-7.044 2.051-10.14 1.367-3.097 3.213-5.792 5.536-8.089 2.322-2.296 5.018-4.127 8.088-5.496 3.07-1.367 6.311-2.18 9.715-2.439v3.794z"/></svg>