<svg xmlns="http://www.w3.org/2000/svg" width="592.899" height="686.519" viewBox="9 0 592.899 686.519"><path fill="#00355F" d="M593.815.092l-.062 325.341c-.105 67.152-12.043 108.833-43.837 168.033-27.364 51.503-88.884 97.891-143.554 131.153-27.296 16.686-52.888 29.999-71.711 39.361l-29.2 13.755-29.207-13.755c-18.824-9.362-44.415-22.677-71.719-39.361-54.661-33.264-116.181-79.65-143.538-131.153-31.801-59.199-43.729-100.882-43.84-168.033L17.072.092H9l.16 325.341C9 393.543 21.582 437.571 53.804 497.309c57.169 106.871 251.65 189.21 251.65 189.21s194.469-82.339 251.641-189.21c32.23-59.737 44.806-103.766 44.653-171.875L601.899.093h-8.084"/><path fill="#00355F" d="M130.28 277.645l-93.573 94.89s.347 7.97 2.041 16.959c3.075 16.235 5.846 24.692 5.846 24.692l136.261-136.542H130.28m99.686.001L57.892 449.696s1.929 5.116 7.307 15.058c5.706 10.521 10.231 17.538 10.231 17.538l202.926-204.647h-48.39m-194.67 0v45.214l46.299-45.214H35.296m262.112 31.284L95.456 511.232s4.293 5.054 12.571 14.021c8.278 8.974 12.86 13.015 12.86 13.015l176.52-177.425.001-51.914m0 100.973L146.581 560.305s2.246 1.896 12.743 9.676c10.494 7.778 15.003 11.494 15.003 11.494l123.081-124.061v-47.512m0 97.058l-94.479 94.441s4.312 3.272 14.417 9.211c13.443 7.885 17.02 10.358 17.02 10.358l63.042-63.489V506.96m.114 146.659v-46.234L266.519 638.1l31.003 15.519m15.132-392.485h263.807V0H312.654v261.134zm9.658-132.859l24.062-24.068 26.024 26.976-50.088 50.049.002-52.957zm.938 120.353v-50.985L452.304 69.55l55.833 54.874-125.232 124.204H323.25zm241.701 0H400.274L545.6 105.174l19.351 18.23v125.224zM34.442 260.175h263.75V.229H34.442v259.946zm52.23-14.09H70.604v-41.286H50.39V191.06c10.504.182 19.681-3.426 20.476-15.483h15.806v70.508zm42.147 4.278c-16.659-.822-29.679-6.934-29.603-24.1-.076-13.632 10.664-15.977 12.944-18.436-5.423-1.378-9.221-6.79-9.221-14.806-.758-14.31 13.789-20.521 25.88-20.27 21.915-.251 26.463 9.035 27.746 20.27-.544 7.202-3.593 13.428-11.075 14.806 8.248 1.72 13.675 9.355 14.74 18.436 1.271 17.166-14.938 23.279-31.411 24.1zm90.567-59.213c-20.191 16.031-24.812 39.117-24.016 57.325h-20.354c-.4-.449 1.122-24.305 11.037-44.408 7.756-12.263 9.317-13.008 9.317-12.917h-31.445v-18.398h55.461v18.398zm65.188.449c-20.263 15.947-24.899 39.118-24.115 57.318h-20.286c-.434-.495 1.058-24.358 11.015-44.461 7.756-12.232 9.271-13.016 9.271-12.856h-31.392v-18.49h55.506l.001 18.489z"/><path fill="#00355F" d="M128.716 204.068c6.942 0 12.552-4.324 12.552-9.697 0-5.39-5.61-9.675-12.552-9.675-6.949 0-12.625 4.285-12.625 9.675.001 5.373 5.676 9.697 12.625 9.697m.872 11.851c-7.513 0-13.648 4.537-13.648 10.177 0 5.572 6.135 10.177 13.648 10.177 7.49 0 13.553-4.605 13.553-10.177 0-5.64-6.063-10.177-13.553-10.177m183.066 61.726v375.974s52.689-20.612 122.604-71.323c66.574-48.289 86.183-76.604 102.897-105.836 21.68-37.884 36.354-72.646 36.354-132.454 0-26.855.273-66.361.273-66.361H312.654m32.092 17.347h19.259v71.423h-19.259v-71.423zm113.426 72.404h-21.466v-32.411h-31.939v32.411h-20.796v-72.937h21.777v26.253h30.35v-26.253h22.074v72.937zm51.493 2.338c-10.815.813-39.292-3.038-38.857-27.738h25.864c.7 2.314.7 4.635 1.911 5.557 1.819 5.229 7.978 6.073 12.871 5.534 5.108.539 11.243-1.021 11.146-7.292.099-3.015-3.783-4.567-18.544-9.326-14.515-2.93-30.661-5.229-31.467-22.15.806-16.228 18.572-24.647 37.076-24.061 18.444-.586 35.374 5.58 36.904 24.061h-25.79c.373-2.329-1.135-3.881-3.73-5.541-2.763-1.424-5.099-2.215-7.384-1.888-3.926-.327-10.815.464-11.082 5.587 1.819 4.887 13.367 5.656 25.798 9.211 12.963 3.341 26.032 8.761 25.918 22.173.114 20.475-21.366 26.686-40.634 25.873z"/></svg>