<svg id="Layer_1" xmlns="http://www.w3.org/2000/svg" viewBox="0 0 792 612"><style>.st0{fill:#662e6b}</style><path class="st0" d="M369.8 355.6c0 .8-.6 1.4-1.3 1.5-.8.2-1.1-.2-1.3-1-.2-.8.1-1.2.4-1.4-.2-.3-.3-.6-.3-1-.5.8-1.4 1.4-2 1.8l1.1.8s0 .1.1.3c.1.6-.3.8-.3 1.5v.1c.2-.1.5-.1.7-.1h.2c.1-.1.3-.1.4-.2.3-.1.5 0 .8 0 .3-.8.9-1.3 1.6-1.3.1 0 .2.1.2.1 0-.1.1-.2.1-.3-.2-.2-.3-.5-.4-.8.1 0 0 0 0 0zm4.2-1.4c-.7-.2-1.3-.8-1.4-1.6-.1-.1-.2-.1-.2-.3-.3.2-.6.3-.9.3-.4 0-.8-.2-1.1-.4.3.3.5.6.6 1 .2-.1.5-.2.7-.2 1 0 1.8.9 1.8 2 0 .9-.6 1.6-1.4 1.9.1 0 .1.1.2.1.9.3 3.1 1.1 3.3 1.1-.2-1-.6-1.9-1-2.9-.2-.2-.5-.6-.6-1zm2.6-9.4c-.3 0-.5 0-.7-.1.2.1.4.4.5.8.2 0 .3 0 .5.1 0-.1-.1-.1-.1-.2 0-.2.1-.4.1-.6h-.3zm-2 3.7c-.2-.2-.4-.4-.5-.7-.2-.1-.3-.1-.5-.3 0 .1 0 .2.2.8.1.2.2.5.3.9.1-.3.3-.5.5-.7z"/><path class="st0" d="M374.8 343.9c-.1 0-.3-.1-.4-.1-.3.4-.8.6-1.3.6h-.1c-.1.4-.1.8 0 1.3 0 .3.2.3.3.7 0 .3-.3.4-.5.4-.2.1-.5.1-.5-.1-1.1.3-1.1.5-1 .6.3.2.6.5.8.8.1 0 .1 0 .2.1s.7 1.3.8 1.4c-.2-.5-.3-1.3-.2-1.8 0-.3.5-.5.6-.8.3-.9.4-2 1.3-2.3.4-.1.7-.1 1 0-.4-.2-.8-.4-1-.8zm3.2 10.7l.1.1-.1-.1zm-13.8 3.6c-.2-.8 0-1.4.5-2.2l-.6-.1c0 1.4-.4 1.6-1.6 1.9v.1c0 .3.2.4.3.3.3-.1.4-.3.6-.4.3-.1.4 0 .5.2.1.4-.1.5 0 .8.1.3.3.4.3.7.1.5-.2.8-.7 1.1.2.1.3.2.4.3l.1-.1h.3v-.1c0-.8.5-1.5 1.2-1.8 0-.1.1-.1.1-.2l-.1-.1c-.9 0-1.1.6-1.3-.4zm-1-3.2c.8-.2.6-1.8 1.1-2.6-.2-.1-.3-.2-.5-.3 0 .3-.1.6-.3.9v.1c.2 1.1-.5 1-1.2 1.1.1.6.1 1 .9.8zm4.5-8.1c.1 0 .1.1.2.1s.1-.1.2-.1.3.1.3.3v.1c.3.2.4.5.5.9.3-.6.9-1.1 1.6-1.1 0-.1 0-.3.1-.4-.2.1-1.1-.3-1.7-.6-.4.3-.9.5-1.4.6 0 .1.1.3.1.5 0-.2 0-.3.1-.3zm.8-4.6v.1c0-.1.1-.1.2-.1h-.2zm.8 2c.2-.2.4-.3.3-.6 0-.1-.2-.3-.3-.5 0-.3.1-.5.4-.6.6-.1.4.4.5.8.5-.1.8-.3 1.2-.5 0-.2-.1-.3-.1-.5s.1-.4.1-.6h-.1c-.3.1 0 .4-.6.6-.5.1-.9-.2-1.1-.7-.2.3-.5.5-.9.6.2 0 .5.3.5.4 0 .3-.2.5-.4.5-.3.1-.4 0-.5-.3v-.1c0 .1-.1.1-.1.2.5.4.9.8 1.1 1.3zm-6.1 5.8c-.1 0-.2.1-.4.1.1.1.2.1.3.2.1-.1.1-.2.1-.3zm5.6-1.7c0 .2-.1.3-.2.4h.1c0-.1 0-.2.1-.4zm14.9-12.2c-.3-.3-.4-.7-.4-1.1 0-.1.1-.3.1-.4-.2-.1-.3-.3-.5-.4-.3.2-.7.3-1.1.3h-.2c.5.8 1.1 2 1.2 2.6.3-.6.5-.8.9-1zm-15.9 16.1v.4c.3-.5.9-.9 1.5-.9.4 0 .8.2 1.1.4-.1-.1-.3-.3-.3-.4-.1 0-.1 0-.2.1v-.4c-.1-.2-.2-.5-.2-.8-.1-.1-.2-.1-.3-.2-.2.6-.6 1.1-1.1 1.2-.5-.1-.9-.3-1.2-.4 0 .2-.1.3-.2.4.4 0 .8.2.9.6zm19.2 2.4c.1 0 .2-.2.2-.3h-.1c0 .1-.1.3-.1.3zm-6.5-11.7c-.1 0 0 .2 0 .2.1-.1.1-.3 0-.2zm-.6 6.6c.4.2.8.7.9 1.2 0-.1.1-.2.2-.3-.4-.4-.7-.8-.7-1.5-.1 0-.2.3-.4.6zm-2.9-1c.3.3.4.7.5 1.2.1-.1.1-.2.1-.4 0-.1-.2-.8-.2-1.1-.1.2-.2.3-.4.3zm5-9.4c0-.2.1-.5.3-.5.2 0 .2 0 .5.1v-1.2c-.1.1-.6.4-.7.6h-.2c-.2-.1-1-.3-1.2-.4 0 .2-.1.4-.1.5.6.1 1.1.4 1.4.9zm1.7.5v-.2c0-.2-.3-.4-.5-.3h-.1c-.1.2-.4.6-.4.8l.7.4c-.1-.2.3-.7.3-.7zm-4.3-1.1c.2-.1.3-.2.5-.3 0-.1-.1-.1-.1-.2 0-.2.3-.6.4-.6h.4c.1 0 .2-.1.1-.2-.2-.5-.8-.2-1.3-.2-.2.1-.5.2-.8.2-.2 0-.4-.1-.6-.1 0 .3-.1.7-.3.9.4-.2 1.1.1 1.7.5zm2.8 1.3v.2c0-.1.1-.1.1-.2 0 .1 0 .1-.1 0zm9.1 5.8v-.3c-.4.1-.6.5-.9.8.2.1.3.2.5.3.2-.4.4-.7.4-.8zm-2.3-2.1c0 .2.1.5.1.7l.5-.1c-.2-.1-.4-.3-.6-.6zm.2 2.6c-.1-.2-.2-.6-.2-1-.7.9-1 .6-1.5 1.9.2 0 .5.1.6.3.2-.5.6-1 1.1-1.2zm-.8 3.2c0 .3-.1.6-.2.9.1 0 .2-.1.3-.1.4 0 .7.2 1 .4h.1l.4.4v.3c0 .1.1.1.1.2l.5-.9c-.4-.2-.5-.3-.6-.6-.1 0-.2.1-.4.1-.3-.1-.8-.3-1.2-.7zm-6.9-2c.4-.1.7.3 1 .2.1 0 .2 0 .2-.3-.2-.2-.4-.3-.6-.5-.3.4-.8.7-1.4.7-.1 0-.2-.1-.4-.1.1.3.2.6.2.9.3-.2.7-.8 1-.9zm-5.5-5.3c.1 0 .3 0 .4-.1-.1-.1-.2-.2-.2-.3-.1.2-.1.3-.2.4zm12.5.3c.1.1.3.2.3.4 0-.7.4-1.2 1-1.5-.3 0-.7-.1-1-.1 0 .1.1.2.1.3 0 .3-.2.7-.4.9zm-37.3 65l-2.9-8.8-4.2 9.1 1.5.7 2.5-5.4 2.9 8.8 4.2-8.8v-.2l-1.5-.7zM374.3 199l3.5-.7 1.3 2 1.8-.3-6.3-9-2.7 10.8 1.8-.3.6-2.5zm1.1-4.4l1.5 2.2-2.2.4.7-2.6zm13.3-3.1l.4 7.7 1.7-.2-.5-7.6 2.1-.1-.1-1.6-5.8.3.1 1.6z"/><path transform="rotate(-87.373 401.654 194.38) scale(.99995)" class="st0" d="M397 193.5h9.3v1.7H397z"/><path class="st0" d="M419.5 192.1l.1-.2-1.8-.3-3.3 5.4-1.4-6.1v-.1l-1.8-.3 2.4 10.7zm-75.8 20.8l-4.6-7.8-.1-.2-1.4.9 4.6 8z"/><path transform="rotate(-17.848 362.539 199.6)" class="st0" d="M361.7 194.9h1.7v9.3h-1.7z"/><path class="st0" d="M349.3 201.4l3.1 7 1.6-.6-3.2-7 1.9-.9-.6-1.4-5.3 2.3.6 1.5zm155.6 127.4h.3c.6 0 1.2-.4 1.3-1.1 1.5-7.4 2.3-15 2.3-22.6 0-11.4-1.7-22.6-5-33.4-.2-.7-1-1.1-1.7-.9-.7.2-1.1 1-.9 1.6 3.3 10.5 4.9 21.5 4.9 32.6 0 7.4-.8 14.9-2.2 22.1-.1.9.3 1.6 1 1.7zm-9.3-62.3l1.5-.6-1.4-3.3 2.4-1 1.4 3.2 1.5-.6-1.4-3.2 1.7-.7 1.4 3.3 1.4-.7-2-4.8-8.5 3.6zm-8.5-17l3.6-2.2 1.8 3.1-3.6 2.1.8 1.5 8-4.8-.9-1.4-3 1.8-1.8-3.1 3-1.8-.8-1.4-8 4.7zm-56.2-46.6l-3.4-1.1.8-2.5 3.3 1 .4-1.5-3.3-1.1.6-1.7 3.4 1 .5-1.5-5.1-1.5-2.7 8.8 5 1.6zm-102.4 20.6l1.3-1.1-3.7-4.7 9.3 1.4-6.1-8-1.3 1 3.6 4.8-9.3-1.5zm158.1 11.8l1.3 1.7 1.2-1-3.6-4.6-1.2 1 1.2 1.6-6 4.8 1.1 1.3zm-35.3-21c.8.5 1.6.7 2.5.7.4 0 .8 0 1.2-.1 1.3-.3 2.3-1 3-2.2.7-1.1.9-2.4.5-3.6-.3-1.3-1-2.3-2.2-3-1.1-.7-2.4-.9-3.7-.6-1.3.3-2.3 1-3 2.1-.8 1.3-.9 2.6-.5 3.9.5 1.2 1.2 2.2 2.2 2.8zm-.2-5.8c.5-.8 1.1-1.3 2-1.5.8-.2 1.6-.1 2.4.4.8.5 1.2 1.1 1.4 1.9.2.8.1 1.7-.4 2.4-.5.8-1.1 1.3-2 1.5-.9.2-1.6.1-2.4-.4-.7-.4-1.2-1.1-1.4-1.9-.2-.7 0-1.6.4-2.4zm15 10.8l2.3 1.9 1.1-1.2-2.4-1.9 1.2-1.5 2.4 2 1-1.2-3.7-3.1-5.9 7.2 1.3 1.1zM291.8 340.6c.8-.3 1.6-.3 2.4.1.8.3 1.3.9 1.6 1.7.3.7.2 1.6-.1 2.5l-.1.3 1.8-.6h.1v-.1c.2-.9.1-1.7-.2-2.5-.5-1.4-1.4-2.4-2.8-2.9-1.1-.4-2.2-.4-3.3 0-1.2.4-2.1 1.2-2.7 2.4-.5 1.2-.6 2.4-.2 3.6.3.8.8 1.5 1.5 2.1l.1.1 1.9-.7-.3-.2c-.2-.1-.5-.3-.6-.4-.2-.1-.3-.3-.5-.4-.2-.2-.4-.6-.6-1-.3-.8-.2-1.6.1-2.3.5-.8 1.1-1.4 1.9-1.7zm76 72.7l-4.3-8.3-2.7 9.5-.1.1 1.6.5 1.7-5.7 4.3 8.2 2.7-9.5-1.6-.5zm9.8-67.1l.3.6h.2c.1-.1.6-.4.7-.5-.4 0-.8 0-1.2-.1zm11.8 73.7v.1l1.7.1.2-4.2 2.9.1.1-1.5-3-.2.1-1.7 3.1.1v-1.6l-4.7-.2zm43.2-161.8c2.1 0 3.9-.7 5.3-2.2 1.4-1.5 2.2-3.2 2.2-5.4s-.7-3.9-2.1-5.4c-1.4-1.5-3.1-2.2-5.2-2.2s-3.8.7-5.3 2.2c-1.4 1.4-2.1 3.2-2.1 5.3 0 2.2.7 4 2.2 5.4 1.4 1.6 3.1 2.3 5 2.3zm-26.9 94.4c-1.6 1.5-3 4.2-3.4 6-.1.2-.3.9-1.2 4.5-.2.8-.9 5.7-.4 6.5v-.1c.1-.4.3-2 3-11.8.5-1.6 1.8-2.9 2.3-4.7.1-.2.1-.3-.3-.4zm-75.4 46.8l2-1.2 2.9 2-.4 2.3 1.5 1 1.8-10.7-9.3 5.7 1.5.9zm5.7-3.6l-.5 2.6-1.8-1.2 2.3-1.4zM447.3 279c-.8-.8-1.8-1.4-2.9-1.9-1.1-.5-2.4-.7-3.9-.7h-1.9v18.2h1.9c1.5 0 2.8-.2 3.9-.7 1.1-.5 2.1-1.1 2.9-1.9.8-.8 1.4-1.8 1.8-2.9.4-1.1.6-2.3.6-3.6 0-1.3-.2-2.5-.6-3.6-.4-1.2-1-2.1-1.8-2.9zm-70.9 61.9c.3-.4.5-1 .3-1.5-.4.1-.8.3-1.3.5.5.2.8.6 1 1zm-79.3-73.7l.7-1.7-1.6-1.8 1.4-3.3h2.4l.7-1.7-11 .2 7.2 8.1.2.2zm-2-4.7l-1.8-2h2.7l-.9 2z"/><path transform="rotate(-44.891 318.235 226.588)" class="st0" d="M317.4 222h1.7v9.3h-1.7z"/><path class="st0" d="M304.3 252.2l.9-1.4-5.1-3.2 9.2-1.9-8.5-5.4-.9 1.4 5.1 3.2-9.3 1.9zm.3 105.8l-.7-1.4-3.1 1.6-1.6-3.1 3-1.6-.8-1.5-7.9 4.3h-.1l.8 1.5 3.6-1.9 1.6 3-3.6 2 .8 1.4 7.9-4.2zm6.4 23.9l-.1.1 1.1 1.2 3.1-2.8 2 2.2 1.1-1.1-2-2.2 1.3-1.2 2.1 2.2 1.2-1-3.2-3.5zm-2.1-14.4l2.1 2.9 1.3-.9-3.1-4.2-7.4 5.3 3.1 4.2 1.3-.9-2.1-2.9 2.1-1.5 2 2.8 1.3-1-2-2.7zm-20.2-36.2c.7-.2 1.2-.9 1-1.6-1.8-8-2.7-16.2-2.7-24.5 0-11.1 1.7-22.1 4.9-32.6.2-.7-.2-1.4-.9-1.7-.7-.2-1.4.2-1.7.9-3.3 10.8-5 22-5 33.4 0 8.5.9 16.9 2.8 25.1.1.6.7 1 1.3 1h.3zm136.5 41c0-.3-.2-.3-.4-.3-.4-.1-.7.1-.8.5-.1.2 0 .4.2.3.4-.1.8-.1 1-.5zm-.5 5.7c.5-.1.9-.2 1.3-.3-.6-.5-1-.6-1.3.3zm-3.8-.3c.5.9 1.6.9 2.2 1.7.4-1 .4-1-2.2-1.7zm1.9 6.4c-1.4 1-.1 1.5.7 2.2-.4-1.1.7-2.1-.6-3.1-.1.4 0 .8-.1.9zm-2.9-11.1c.4.8.4.8 1.3.8-.4-.4-.8-.7-1.3-.8zm9.9 3.9c.6.1.8-.1.8-.8-.4.3-.7.5-.8.8zm-50.2-35c-.2-.1-.3-.2-.4-.3-.3.4-.7.7-1.1.9.2.1.3.3.4.4.4-.3.8-.5 1.1-.7-.1-.1-.1-.2 0-.3zm48.8 28.9c-.1-.1-.4-.3-.6-.3-.2 0-.5.1-.4.5.1.2-.3.3 0 .6l.6-.3c.1-.1.4-.2.4-.5zm1.2 4.4c-.5.1-1.1.1-1.4.7.1.4.1 1 .7.9.7 0 .8-.8 1-1.3-.1 0 .1-.4-.3-.3zm-18.1-3.9c-.1.1.2.4.5.4.6 0 .6-.6.8-1.1-.7.1-1.1.2-1.3.7zm13.6 10.6zm-1.2-.1c-.1-.1-.2-.3-.2-.4-.1-.3-.2-.6-.6-.5h-.1l.4 1.2c.7.3 1.3.7 2 .7.2-.4-.4-.6-.3-1-.2-.3-.5-.5-.7-.8-.4.1-.2.5-.5.8zm-3.3-12.6c-.7.3-1.6-1-2.3.2.8.3 1.6.5 2.3-.2zm-4.3 3.9c.7 0 .9-.5 1.5-.6-1-.6-1.2 0-1.5.6zm3.5 5.9c-.2-.2-.3.1-.4.3-.4.7.3.8.7 1.3.1-.7.2-1.2-.3-1.6zm1.1-6.4c.3.2.4.6.8.4.2-.1.1-.2.1-.3-.2-.4-.4-.7-.9-.6-.2 0-.3.1-.5.1.1.3.3.2.5.4zm-10.5 38.9c-1-.8-2.2-1.2-3.5-1.1-1.3.1-2.4.7-3.2 1.7-.8 1-1.2 2.2-1.1 3.4.1 1.4.8 2.6 1.9 3.4.9.6 1.8.9 2.8.9h.5c1.3-.1 2.4-.7 3.3-1.7.8-1 1.2-2.2 1.1-3.5-.2-1.2-.8-2.3-1.8-3.1zm-.7 5.7c-.5.7-1.2 1-2.1 1.1-.8.1-1.5-.2-2.2-.7-.7-.5-1.1-1.3-1.1-2.2-.1-.9.1-1.6.7-2.3.5-.7 1.2-1 2.1-1.1.9-.1 1.6.1 2.3.7.7.5 1 1.3 1.1 2.1 0 .9-.2 1.7-.8 2.4zm67.5-40.9l-1.1-1.1-3.9 4.2 1.1 1.1 1.4-1.5 5.5 5.1 1.2-1.2-5.6-5.1zm-10.6 19.9l.1.2 1.4-1.1-.6-2.3 2.7-2.3 2.1 1 1.4-1.2-9.8-4.8 2.7 10.5zm.4-4.8l-.7-2.6 2.4 1.2-1.7 1.4zm-12.1 3.6c-.6-.1-1.2-.1-1.8.1-.5.1-1.2.4-2 .9l-1.7 1.1 4.7 7.6.1.1 1.7-1c.8-.5 1.3-.9 1.7-1.3.4-.4.7-1 .8-1.6.4-1.3.2-2.5-.5-3.7-.8-1.2-1.8-1.9-3-2.2zm1.9 5.4c-.1.4-.3.7-.5 1-.3.3-.6.6-1.1.9l-.4.2-3.1-5.1.4-.2c.9-.6 1.8-.8 2.5-.6.8.2 1.5.6 2 1.4.3.8.4 1.6.2 2.4zm25.1-32.5l-1 1.3 7.2 5.4.1.1 1-1.3-7.2-5.4zm13.3-12.7c-1.1-.6-2.3-.8-3.6-.4-1.3.4-2.2 1.1-2.9 2.2-.6 1.1-.8 2.4-.5 3.6.3 1.3 1.1 2.2 2.2 2.9.8.4 1.6.7 2.3.7.5 0 1-.1 1.5-.3 1.2-.4 2-1.1 2.6-2.2.6-1.2.8-2.4.5-3.6-.2-1.3-.9-2.3-2.1-2.9zm.4 5.7c-.4.7-1 1.2-1.8 1.4-.8.2-1.6.2-2.4-.3-.8-.4-1.3-1.1-1.5-1.9-.2-.8-.1-1.6.3-2.4.4-.8 1-1.2 1.9-1.5.8-.2 1.6-.1 2.4.3.8.4 1.3 1.1 1.5 1.9.1.9 0 1.7-.4 2.5z"/><path class="st0" d="M396.5 181.9c-67.9 0-123.2 55.3-123.2 123.2s55.3 123.2 123.2 123.2S519.7 373 519.7 305.1s-55.2-123.2-123.2-123.2zm0 243.2c-66.1 0-119.9-53.8-119.9-119.9s53.8-119.9 119.9-119.9c66.1 0 119.9 53.8 119.9 119.9s-53.7 119.9-119.9 119.9z"/><path class="st0" d="M497.4 337.9l-.6 1.6 5.5 2-8.5 3.7 9.4 3.4.5-1.5-5.5-2.1 8.5-3.7zm-78.2 48.8zm12.9-17.6c1.2-.3 2.7.4 3.7-.9-1.4 0-2.5.5-3.7.9zm4.8 7.4c1.3.2 2.5 0 3.7-.4-1.3-.5-2.4.3-3.7.4zm5 24.7l-.1-.1-1.5.6 2.3 5.4-8.5-3.7 3.8 9.1.1.1 1.5-.6-2.3-5.5 8.5 3.7zm-8.8-27.2c.4 0 .6.1.8.1 0-.1 0-.2-.1-.3-.1-.2-.3.1-.7.2z"/><path class="st0" d="M497.9 305.2c0-56-45.4-101.4-101.4-101.4-56 0-101.4 45.4-101.4 101.4s45.4 101.4 101.4 101.4c56-.1 101.4-45.5 101.4-101.4zm-50.2-66.6h5v19h6.5v4.8h-11.5v-23.8zm10.8 74.9v1.7h-4.7v4h4.8v1.7H452v-12h6.6v1.7h-4.8v2.9h4.7zm-1.1-21.9c-.8 2-2 3.7-3.4 5.2-1.5 1.5-3.2 2.7-5.1 3.6-1.9.9-4 1.3-6.3 1.3h-12.5v-32.5h12.5c2.2 0 4.3.4 6.2 1.3 1.9.9 3.6 2.1 5.1 3.6 1.5 1.5 2.6 3.2 3.4 5.2.8 2 1.3 4 1.3 6.2 0 2.1-.4 4.2-1.2 6.1zm-20.6 19v-1.7h7.3v1.7h-2.7v10.3h-1.8v-10.3h-2.8zm-12.9-68.8c2.4-2.4 5.4-3.6 8.8-3.6 3.4 0 6.3 1.2 8.7 3.6 2.4 2.4 3.7 5.4 3.7 8.7 0 3.4-1.2 6.3-3.7 8.7-2.4 2.4-5.4 3.6-8.9 3.6-3.1 0-5.8-1.1-8.3-3.2-2.7-2.3-4.1-5.5-4.1-9.3.1-3.2 1.4-6.1 3.8-8.5zm-8.5 114.9c-.1.5-.8 1-1 1.6-.2.5-.4 1.3-.7 2.1-.2 0-.4.1-.7.2-1.5.6-2.4 1.9-2.4 3.5-.9.7-1.4 1.6-1.6 2.3-.2-.1-.4-.1-.6-.1-.4 0-.8 0-1.2.2-1.4.6-2.9 1.7-2.6 4.2-1 .6-1.5 1.5-2 2.2-.1.2-.3.5-.5.7-.6.2-1.4.4-2.4.6h-.2c-1-2.1-2.6-3.5-4.5-3.7h-.5c-.6 0-1.2 0-1.7.1-.1 0-.6-1.4-.6-1.6-.6-1.8-.8-3.8-.8-5.7 0-2 0-4.1.3-6.1.2-1.3.5-2.7 1-3.9.1-.3.3-.7.4-1 1.4-3 4.5-5.7 8-5.7.6 0 1.3.1 2 .3 1.2.3 2 .7 3 1.5.7.6 1.2 1.6 2.2 1.9h.1c.2 0 .6-.1 1.8-.8 0 0 .1-.4.2-.6.7-2.3.9-5.2-.7-7.3-.7-1.1-3.2-.6-2.7-2.3.3-1.1 1.9-2.2 3.1-2.2.2 0 .3 0 .5.1 1.4.4 2.4 3.7 2.5 4.9l-.2 7.2c.1 1.2 1.3 1 2.9 3.4l.7.2c.8 0 1.8-.8 3.1-.8.3 0 .6 0 1 .1 2.6.8 4.7 3.7 4.4 6.3-.2 1.4-.7 3.2-1.5 5.1-.4-.2-.7-.3-1-.4-.1 0-.2 0-.2-.1-.2-.1-.5-.2-.8-.2-.3 0-.6 0-.9.1-.4-.4-.9-.7-1.5-.8-.5-.5-1.2-.8-1.9-.9-.4 0-.8 0-1.2.1-.3-.4-.6-.6-1-.8.4-1.6.7-3.2.4-3.9zm-28.3 7.3c.1.7.7 3.7.8 4.3.2 1 .4 1.9.6 2.9-.8.2-1.8.3-2.9.6-.2 0-.4.1-.6.2h-.7c-.3-2.3-.6-4.9-.7-5.8-.1-.3-.5-2.4-.6-3.1-.1-.4-.4-1.9-.5-2.6-.1.2-.2.5-.4.6-.2.6-.3 1.2-.3 1.5.1.5.5 2.5.5 2.8.1.7.5 2.8.6 2.9.1.6.5 2.2.9 3.8-.3.1-.7.1-1.1.2-.1 0-.3.1-.4.1h-.4l-1.6.3-.6.1c-.1 0-.3.1-.4.1h-.4l-.5.1c-.6-2.9-1.3-5.7-1.9-8.6-.1-.5-.4-2-.4-2.1 0-.1-.6-1.3-.7-2l-3.5-.7c-.2 1.2-.9 2.1-1.8 2.1-.6 0-1-.4-1.4-.9-.2.4-.5.7-.9.8-.3.7-.9 1.1-1.7 1.1-.7 0-1.4-.5-1.6-1.1 0 0-.1 0-.1.1s0 .1.1.2c0 .3-.1.6-.3.8.6 0 1.3.4 1.5 1.1.2.9-.4 1.6-1 1.7-.7.2-1-.7-1.1-1.3-.1-.3-.1-.6-.1-.9-.3.2-.7.3-1.1.3-1.2 0-2.2-.8-2.2-1.7 0-.7.5-1.2 1.2-1.5 0-.1-.1-.1-.1-.2-.1-.7.2-1.3.6-1.7l-.2.1c-.7.2-.7 1-1.2 1.1-.5.1-1.4-1.4-1.5-1.7-.3-1.4 2-2.3 2.8-2.6-.2-.1-.3-.2-.4-.2-.3.3-.7.5-1.2.5-1 0-1.8-.9-1.8-2s.8-2 1.9-1.9h.1c.1-1 .9-1.8 1.8-1.8-.6-.3-.9-1-.9-1.7 0-1.1.8-2 1.9-1.9.4 0 .7.2 1 .4.2-.9.8-1.5 1.5-1.6 0-.1-.1-.2-.1-.3 0-.4.2-.7.4-1-.5-.3-.9-.9-.9-1.7 0-1 .8-1.9 1.7-1.9.4-.3.8-.5 1.4-.5.4 0 .8.1 1.1.3.1.1.3.2.4.3.1-.2.3-.4.5-.5.4-.1.8.3 1.3.2.1 0 .1-.1.2-.2-.9-.1-1.6-.9-1.6-1.9 0-1.1.8-2 1.9-1.9.6 0 1.1.4 1.5.9.4.1.9.6 1 1 .1.7-.4.5-.7 1.1-.3.5-.3 1.1-.4 1.7.3 0 .6.1.8.3.3-.3.6-.6.7-1.1 0-.1-.1-.7-.2-.8 0-.6.3-1.6.6-2.4-.3-.1-.6-.4-.7-.7-.1 0-.1-.1-.2-.2v-.1c-.1-.2-.1-.4-.1-.6 0-.9.6-1.6 1.4-1.6.7 0 1.3.7 1.4 1.5.3-.7.9-1.1 1.7-1.1.5 0 .9.2 1.2.5h.1c.1 0 .2-.1.4-.1-.2-.2-.4-.5-.4-.8 0-.8.9-1.4 1.9-1.4 1.1 0 1.9.6 1.9 1.4 0 .1-.1.2-.1.3l.3.3c.4-.3.9-.5 1.4-.5 1.1 0 2 .8 2 1.8 0 .5-.3 1-.7 1.3.4.2.6.5.7.7-.1-.2-.1-.4-.1-.6 0-1 .9-1.8 2-1.8.8 0 1.4.4 1.8 1 .3-.4.8-.7 1.4-.7.2 0 .4.1.6.1.1 0 .2-.1.3-.1.2-.1.4 0 .4.3v.4c.3.3.4.7.4 1.2 0 .3-.1.6-.2.8.3 0 .7.1.8.7.2 1-1 2-1.8 2.3.3.1.5.3.6.5.2-.5.5-.9.8-1h.1c.2-.5.6-.9 1.2-.9s1.1.6 1.2 1.3c.2 0 .3 0 .4.3.1.3 0 .4-.3.5h-.1c-.2.6-.6 1-1.2 1-.3 0-.6-.1-.8-.4-.2.2-.5.3-.8.4 0 .3-.1.5-.2.7 0 .3 0 .7-.1 1 0 .1.1.2.2.2.6-.2 1.1-1.3 1.4-1.4.8-.2.7 1.7 1.4 1.5l.4-.2c.1-.1.3-.2.5-.3-.3-.2-.6-.6-.6-.9-.2.1-.3.2-.4.2-.3.1-.3-.1-.4-.4-.1-.3 1-1.2 1.3-1.2.2-.1.3.1.3.3.3-.1.7-.3 1-.3 1.1 0 1.9.6 1.9 1.4 0 .3-.2.5-.4.8l.2.2v.3c-1.5.1-2.9.6-4.1 1.4l-.1-.1s-.4.1-.5.1c-.8-.3-.4-.8-1.4-.5-.1 0-.3.1-.3.1v.5c.1 0 .6.1.8.2 0 0 .4.3.6.4-.9.7-1.7 1.4-2.4 2.3-1.2 1.4-2 3-2.8 4.7-.8 1.7-1.8 3.3-2.6 4.9-.1.2-.6.9-.5 1.2 0 .1-.1.5-.1.6-.4-.1-.2 2.9-.2 3.5zm-16.8-47.2c-.1-.2-.2-.4-.3-.5-.1-.2-.3-.3-.5-.5-.2-.1-.5-.3-.8-.4l-1.2-.5c-1.6-.7-2.5-1.7-2.5-3 0-.9.3-1.6 1-2.3.7-.6 1.5-.9 2.6-.9 1.4 0 2.5.7 3.2 2l-1.5.9c-.3-.5-.5-.8-.8-.9-.3-.2-.6-.2-1-.2-.5 0-.9.1-1.2.4-.3.3-.5.6-.5 1.1 0 .6.4 1.1 1.3 1.4l1.2.5c1 .4 1.7.9 2.1 1.4.4.6.7 1.3.7 2.1 0 1.1-.4 2-1.1 2.7-.7.7-1.7 1.1-2.7 1.1-1 0-1.9-.3-2.6-.9-.7-.6-1.1-1.5-1.2-2.6l1.8-.4c.1.7.2 1.2.4 1.5.4.5.9.8 1.6.8.6 0 1-.2 1.4-.6.4-.4.6-.9.6-1.4.1-.4.1-.6 0-.8zm9.4-6.2v-1.7h7.3v1.7h-2.7v10.3h-1.8v-10.3h-2.8zm15.3 10.3v-12h1.8v12H395zm9.7-10.3v-1.7h7.3v1.7h-2.7v10.3h-1.8v-10.3h-2.8zm19.7 10.5c-1.3 0-2.4-.5-3.2-1.4-.8-.8-1.2-1.9-1.2-3.1v-7.7h1.8v7.2c0 1 .2 1.8.5 2.3.5.7 1.2 1 2.1 1 .9 0 1.6-.3 2.1-1 .3-.5.5-1.2.5-2.3v-7.2h1.8v7.7c0 1.3-.4 2.3-1.2 3.1-.8.9-1.9 1.4-3.2 1.4zm-26.8-79.3c2.4-2.4 5.4-3.6 8.8-3.6 3.4 0 6.3 1.2 8.7 3.6 2.4 2.4 3.7 5.4 3.7 8.7 0 3.4-1.2 6.3-3.7 8.7-2.4 2.4-5.4 3.6-8.9 3.6-3.1 0-5.8-1.1-8.3-3.2-2.7-2.4-4.1-5.5-4.1-9.3.1-3.2 1.4-6.1 3.8-8.5zm-4.4 36.9c.9-2.1 2.1-3.9 3.7-5.5s3.5-2.8 5.7-3.6c2.2-.9 4.6-1.3 7.3-1.3 2.6 0 5 .4 7.2 1.3s4.1 2.1 5.7 3.6c1.6 1.6 2.8 3.4 3.7 5.5.9 2.1 1.3 4.3 1.3 6.8 0 2.4-.4 4.7-1.3 6.8-.9 2.1-2.1 3.9-3.7 5.5s-3.5 2.8-5.7 3.6c-2.2.9-4.6 1.3-7.2 1.3-2.6 0-5.1-.4-7.3-1.3s-4.1-2.1-5.7-3.6c-1.6-1.6-2.8-3.4-3.7-5.5s-1.3-4.3-1.3-6.8c-.1-2.4.4-4.7 1.3-6.8zm-19.7-40.1h5v8.7h7.9v-8.7h5v23.9h-5v-10.4h-7.9v10.4h-5v-23.9zm6 31c2.2.9 4.1 2.1 5.7 3.6 1.6 1.6 2.8 3.4 3.7 5.5.9 2.1 1.3 4.3 1.3 6.8 0 2.4-.4 4.7-1.3 6.8-.9 2.1-2.1 3.9-3.7 5.5s-3.5 2.8-5.7 3.6c-2.2.9-4.6 1.3-7.2 1.3-2.6 0-5.1-.4-7.3-1.3s-4.1-2.1-5.7-3.6-2.8-3.4-3.7-5.5c-.9-2.1-1.3-4.3-1.3-6.8 0-2.4.4-4.7 1.3-6.8.9-2.1 2.1-3.9 3.7-5.5s3.5-2.8 5.7-3.6c2.2-.9 4.6-1.3 7.3-1.3 2.6 0 5 .5 7.2 1.3zm-45.1 32.1v-32.5H353v7.2h-10.2v5.4h9.3v7.2h-9.3v12.8h-8.4zm1.8 7.2v12h-1.8v-12h1.8zm9.2-.8l8.7 9.1v-8.3h1.8v12.7l-8.7-9.1v8.4h-1.8v-12.8zm8.7-65.6c2.5-2.9 5.7-4.4 9.6-4.4 2.1 0 4.2.6 6.2 1.7l.4.2v6.2l-1.4-1.1c-1.8-1.5-3.6-2.2-5.5-2.2-2.1 0-3.7.7-5.2 2.2-1.4 1.5-2.1 3.2-2.1 5.4 0 2.1.7 3.9 2.1 5.3 1.4 1.4 3.1 2.2 5.2 2.2 1 0 1.9-.2 2.7-.5.4-.2.9-.4 1.3-.7.5-.3 1-.7 1.5-1.1l1.4-1.2v6.3l-.4.2c-2 1.2-4.2 1.7-6.4 1.7-3.4 0-6.3-1.2-8.7-3.6-2.4-2.4-3.6-5.3-3.6-8.7-.1-2.8.9-5.5 2.9-7.9zm-9.4 11.8c-.1-.3-.2-.5-.4-.7-.2-.2-.5-.5-.8-.7-.4-.2-.8-.5-1.3-.7l-2.1-.9c-3.4-1.4-5.1-3.6-5.1-6.4 0-1.9.7-3.5 2.2-4.8 1.4-1.3 3.2-1.9 5.3-1.9 2.9 0 5.1 1.4 6.7 4.2l.4.7-4.2 2.5-.4-.7c-.6-1-1-1.3-1.1-1.4-.4-.2-.8-.3-1.4-.3-.7 0-1.3.2-1.8.6-.4.4-.6.8-.6 1.3 0 .7.6 1.3 1.9 1.8l2.2.9c1.9.8 3.4 1.8 4.3 2.9.9 1.2 1.4 2.7 1.4 4.4 0 2.3-.8 4.2-2.3 5.7-1.5 1.5-3.4 2.2-5.7 2.2-2.1 0-3.9-.6-5.3-1.9-1.4-1.3-2.2-3.1-2.6-5.3l-.1-.8 5.1-1.1.1.9c.2 1.5.5 2.1.6 2.3.5.8 1.3 1.1 2.4 1.1.8 0 1.5-.3 2-.8s.8-1.2.8-2.1c-.1-.5-.1-.8-.2-1zm-12.7 108c1.8-3.9-7.3-9.1-6.7-14.2.6-5.1 7.8-7.4 11.4-5.9 3.7 1.6 3.9.9 5.3-.9s4.8-2.3 7.4.3c2.6 2.6 3.4 8.9 5.1 7.4 1.3-1.1 2.8-3.7 4.7-3-.4.7-.6 1.4-.6 2.2 0 .3 0 .6.1.8-.1.2-.2.3-.4.5-1.5.7-2.5 2.3-2.5 4 0 .9.3 1.9.8 2.6-.4.9-.4 1.7-.2 2.3.1.6.6 1.6 1.3 2.3-.1.4-.2.7-.2 1.1 0 1.1.4 2.1 1.2 2.8.7.7 1.7 1.2 2.7 1.4.3.6.7 1.2 1.3 1.5.7.5 1.6.6 2.5.4.4-.1.8-.3 1.2-.6.6 1.3 1.4 2.4 2.3 3.2 1.5 1.4 2.9 2.6 4.2 3.5-1.3.3-2.5.5-3.7.8-.2 0-.4.1-.5.2-.2 0-.4 0-.6.1-.7.2-1.4.3-2 .5-2-.6-3.4-.9-5.6-1.3-3.2-.5-19.2-1.9-22.2-3.2-3.3-1.1-8.2-4.8-6.3-8.8zM443.4 375c-.6.2-.9 1.2-1.8.7-.3-.2-.8-.1-1.4-.2.8.6 1.4 1 2 1.5.2.1.4.3.4.6-.1.4-.4.1-.5.1-.7.3-1.6-.4-2.4.2.3.3.7.1.8.6h-3.1c.3 1 1.4 1 1.8 1.7-1.6.4-2.6-1.2-4.1-1.3.1.9 1 1.6.7 2.5-.4-.1-.8-.4-1-.7-.7-1.2-1.8-1.9-3-2.4-.2-.1-.6-.3-.7-.1-.1.2-.1.6.2.9.9.8 1.6 1.7 2.8 2.2.5.2 1 .6 1.3 1.4-1.9-.6-3.8-.8-4.5-3.1-.2-.7-.8-1.1-1.3-1.6-.3-.3-.8.1-1.2.1-1.1.1-1.4.6-1 1.7.1.2.2.4.3.7.1.2.2.4 0 .5-.1.1-.3 0-.5-.1-.8-.3-1-1.1-1.4-1.7-.2-.3-.2-.8-.7-.7-.5.1-1 .2-1.2.6-.2.3.5.5.7.8.4.6 1.4.9.8 1.8.5.2.8.7.7 1.2-.1.5-.6.5-1.1.3-.2-.1-.3.1-.3.2l.3.7-.1 1h-.1c-.1.3-.1.7.4.9.3.2.8.3.8.8-1.2-.2-2.3.1-3.4.1-.3 0-.4.2-.4.6.1.3.2.5.5.5.8.2 1.4.6 2.1 1.1-.9.5-1.6.1-2.3-.2-.2-.1-.4-.2-.6 0-.2.3.1.4.2.6.4.7.9 1.3 1.5 1.8.5.4.9.8.7 1.5-.7 0-1-.7-1.8-1.2.5.7.8 1.1.9 1.6.1.3 0 .7-.3.6-.4-.1-1.2-.5-1.2-.6-.3-.9-1-1.5-1.2-2.4-.3-1.3-.3-2.7-1.3-3.9-.1-.1-.2-.3-.1-.4-.2.2-.4-.3-.8-.1.3 1.1.6 2.3.9 3.4.2.6.6 1.3-.1 1.9 0-.2 0-.4-.2-.5-.2.3 0 .4.2.5 0 .7.2 1.6-.6 2.1-.2-.3-.1-1.1-.4-1-1 .5-.6-.4-.6-.6-.1-.5 0-1.1-.1-1.6-.4.2-.2.7-.8.9.4-1.2.1-2.4.7-3.3.6-.9 0-2.7-1.1-2.9-1.2-.3-2.3-.8-3.4-1.3-1.4-.6-2.8-1.1-4-2.3.4 1.6 1.9 1.7 2.9 2.4-.8 0-.7.5-.7 1-.2 1.1-.3 1.1-1.1.4-1.2-1.1-1.9-2.5-2.5-3.9-.7-1.6-2-2.4-3.6-2.4-1.8 0-3.6.2-5.4 0 0 2-.7 3.7-2.2 4.1-4.1 1.2-10.5.4-15.7.4-7.2-.1-15.9-.8-22.4-1.4-10-1-4.5-1.2 8-4.3.7-.2 1.5-.4 2.4-.6l.8 2.7.3-3c1.6-.3 3.3-.7 5.4-1.1l.6 3.3.3-3.4c1.1-.2 2.2-.5 3.5-.7l1.2 4.5-.3-4.7c.7-.1 1.5-.3 2.3-.5l.8 3.9.1-4c.8-.2 1.2-.2 1.9-.3l.9 3.1.1-3.3c1.3-.3 2.4-.5 3.3-.6l.6 5.2.4-5.4c1.9-.3 3-.4 4.4-.4 1.7 0 3 2 3.4 4.3 1.5-.4 3.6-1 4.9-1.3 1.6-.4 1.9-2.8 3.4-3.4.7-.3 1.1-.7.9-1.7-.3-1.3-.1-1.7.9-2.1.2.7-.1 1.4-.2 2.1.5 0 .8-.1.9-.5.1-.2.1-.3.4-.2 1.2.6 2 .3 2.6-.8.1-.2.2-.2.4-.1.1.1-.1.5.3.3.2-.1.4-.3.3-.6-.2-.6-.2-1.3-.4-2-.7.4-1 .9-1.1 1.6 0 .2-.1.4-.3.4-.1 0-.3-.2-.2-.3.5-.9.4-2.3 1.5-2.8.7-.3.8-.8.7-1.4-.2-.9.1-1.4.8-1.7.7.8 1.2 1.7 2.5 1 .3-.2 1.2-.1.8.9v.1c-.1.4-.2.8-.5.9-1 .3-.4.9-.5 1.5.6-.4.3-.8.4-1.1.4-.2.4.8.9.3.3-.3.4-.5.5-.8.1-.1.2-.3.2-.5.1-.2.1-.4.4-.4.2.5.6 1.1 1.3.9-.3.5-.8.6-1.1 1-.1.1-.5.1-.1.4.1.1.1.5.5.3.5-.2.9-.4 1.2-.9.2-.3.6-.9.7-.9.6.3 1.5.3 1.7 1.3.1.7.1 1.5-.4 1.9-.2.2-.3.4-.4.6-.2-.1-.4-.1-.7-.2-.2 0-.5-.1-.4.2.1.2-.3.6.2.7.4.1.7.1.4.6 0 .1.2.4.5.4s.4-.1.4-.4v-.1c0-.1 0-.1.1-.1.3-.5.5-1.1 1-1.4.1-.1.2-.3.4-.2.2.1.1.3.2.4.1.8-.5 1.3-.9 1.9.9-.6 1.4-1.3 1.4-2.4 0-2.2 1.7-3.2 3.2-4.4.1-.1.2-.1.5.1-.8 1.3-2 2.6-1.4 4.5.7-.3 1.1-1 1.1-1.8 0-.9.4-1.3 1.1-1.8.2.7 0 1.4 0 2 0 .2 0 .3.1.5.2.2.4 0 .5-.1.2-.2.4-.4.6-.7.5-.8 1.3-1.3 2.3-1.9-.2 1-1 1.5-1.2 2.4 1-.2 1.8-.9 2.8-.9.2.4-.6.4-.2.8.3.3.6.3.9.1.2-.1.3-.2.4-.4.2-.4.8-.6 1-.4.4.3 0 .7-.3 1-.4.4-.6.9-.8 1.4.6 0 1-.3 1.5-.4.5-.2.9.5 1.5.4-.4.6-1.1.3-1.6.7.3 0 .4.1.5.1.2 0 .5-.2.7.2.1.4-.3.4-.5.5-.3.2-.7.2-1.1.1-.5-.1-.7.3-.8.6-.1.3 0 .7.1 1.1 1-.1.3.5.3.7-.1.6-.6.8-1 1.2-.4.3-.9.9-.6 1.4.3.6.7-.1 1 0 1 .3 1.5-.4 1.7-1.2.2-.9.9-1.6 1.1-2.4.1-.2.2-.5.6-.4 0 .2 0 .3-.1.4-.1.4-.5.9-.1 1.1.6.3.5-.5.8-.8h.1c.8 1.6-1.4 1.7-1.4 3 .9-.3 1.8-.4 2.4-.8.7-.4 1.4-.3 2.1-.4.9-.1-.1.9.6.8-.2.2-.2.3-.2.3zm17.7-12.7c1.8 4.1-3.1 7.8-6.1 9-1.3.6-5.3 1.1-9.5 1.7-.1-.1-.1-.3-.2-.4-.5-.7-1.2-1.1-2-1.1h-1.1c0-.1-.1-.2-.1-.3v-.1c-.2-.4-.5-.8-.9-1l-.3-.3c.2-.6.1-1.3-.2-1.9-.3-.6-.8-1-1.4-1.2-.1-.7-.4-1.4-1-1.9l-.1-.1c.2-.2.4-.3.4-.3s5 1.7 8 2.1c3.1.4 3.6.1 5.3-.1 1.6-.3 4.3-1.4.8-.8-3.4.6-4.5.4-7.3-.3s-5.4-1.6-5.4-1.6 1.6-1.3 4-3.1c2.4-1.9 3.5-2.6 3.9-2.6.4 0 4.6.3 6.9-.2 2.3-.6 2.3-1 3.8-1.7.2-.1 1.1-.9.6-.7-1.6.6-3.1 1.8-7.5 1.8-2.2 0-3.2-.2-3.2-.2s9.8-7.9 11.1-10.4c.4-.7-2.9 2.2-3 2.3-5.3 4.9-8.8 7.3-10.4 8.6-1.6 1.3-4.9 4-4.9 4s1.2-1.5 1.7-4.1c.5-2.6.9-5.1.5-6.5-.4-1.2-1.2-2.7-.6.1.6 2.8-.8 6-1.8 8.8-.9 2.8-1.6 3.1-1.6 3.1s-.9.7-2.2 1.6c-.1 0-.2-.1-.4-.1-.4 0-.8 0-1.2.1-.1 0-.2-.1-.3-.1-.2-.5-.5-.9-.9-1.1-.4-.3-.8-.4-1.2-.4-.5-.1-1.1.1-1.6.3l-.1.1-.6.3c-.1 0-.1-.1-.2-.1-.1-.2-.2-.3-.3-.5-.5-.6-1.1-.8-1.6-.9 1.3-5.6 1.7-11.6 3.3-14.1 2.6-4.1 4.8-.1 6.5 1.4 1.7 1.5 2.5-4.8 5.1-7.4 2.6-2.6 6-2.2 7.4-.3 1.4 1.8 1.7 2.5 5.3.9 3.6-1.6 10.9.7 11.4 5.9.5 4.7-8.6 9.9-6.8 13.8zm-34.9 44.6l-1.6.4 1.4 5.3c.2.7.2 1.2.1 1.6-.2.5-.6.9-1.2 1-.6.2-1.1.1-1.5-.3-.3-.3-.5-.7-.7-1.4l-1.4-5.3-1.6.4 1.4 5.6c.2.9.7 1.6 1.5 2.1.6.3 1.2.5 1.8.5.3 0 .6 0 .9-.1 1-.2 1.7-.8 2.2-1.6.4-.8.5-1.6.3-2.6l-1.6-5.6z"/><path class="st0" d="M431.9 375.6c.2.4.4.7.9.8 0-.6-.2-.9-.9-.8zm2-4.1c0-.7-.1-1.2-.7-1.1-.6.1-1.4 0-1.7.7-.2.4.9 1.3 1.7 1.4.6-.1.6-.7.7-1zm-46.8-31.8c.3-.6 1-1 1.5-1.2v-.3c-.5-.1-.9-.4-1.2-.9.1.8-1.1 1.6-1.5 1.7h-.2c-.1 0-.5-.2-.6-.1-.1 0-.4.2-.4.4-.1 0-.2.3-.2.3.1.4.3.7.5 1 .1-.3.4-.5.6-.6.1-.3.2-.6.4-.6s.4.1.5.3h.6zm0 8s-.2-.1-.5-.2c0 .2.1.4.1.5 0 .2-.1.3-.1.5l.6-.3-.1-.5zm16.3-55.8c.8.8 1.8 1.4 2.9 1.9 1.1.4 2.3.7 3.5.7 1.2 0 2.4-.2 3.5-.7 1.1-.4 2.1-1.1 2.9-1.9.8-.8 1.5-1.8 2-2.8.5-1.1.7-2.3.7-3.6 0-1.3-.2-2.5-.7-3.6-.5-1.1-1.2-2-2-2.8-.8-.8-1.8-1.4-2.9-1.9-1.1-.4-2.3-.7-3.5-.7-1.2 0-2.4.2-3.5.7-1.1.4-2.1 1.1-2.9 1.9-.8.8-1.5 1.8-2 2.8-.5 1.1-.7 2.3-.7 3.6 0 1.3.2 2.5.7 3.6.5 1.1 1.2 2 2 2.8zm2.9-33.8c2.1 0 3.8-.7 5.3-2.2 1.4-1.5 2.2-3.2 2.2-5.4s-.7-3.9-2.1-5.4c-1.4-1.5-3.1-2.2-5.2-2.2s-3.8.7-5.3 2.2c-1.4 1.4-2.1 3.2-2.1 5.3 0 2.2.7 4 2.2 5.4 1.4 1.6 3.1 2.3 5 2.3zm-21 94.5c0-.4.2-.7.4-1-.1-.1-.1-.3-.2-.5-.1-.5-.1-.9 0-1.3-.2.1-.4.1-.7.1h-.1l.2 6.7c.4-.7.9-1.7 1.2-2.6-.4-.2-.8-.8-.8-1.4zm-6.3-6.7zm6.6-2.5c.2.9-.2 1.9-.8 2.7h.1c.2 0 .4.1.5.1.4-.5.8-1.2.6-2.5 0-.2 0-.4-.1-.6-.5-.2-.9-.6-1.1-1.1-.1 0-.1.1-.2.1-.4.1-.6.2-1-.1l-.2.7c1-.2 2-.3 2.2.7zm-4.5 10.7c-.2.3-.5.6-.8.6-.5.1-.8-.2-.9-.6-.2.1-.4.3-.6.3.1.4.2.9.3 1.4.3-.3.7-.4 1.1-.4h.1c.3-.5 1-.9 1.7-.9.3 0 .5.1.7.1.1-.2.2-.4.2-.6-.3.2-.6.3-1 .3-.1.1-.5 0-.8-.2zm-18-68.6c0 1.3.2 2.5.7 3.6.5 1.1 1.2 2 2 2.8.8.8 1.8 1.4 2.9 1.9 1.1.4 2.3.7 3.5.7 1.2 0 2.4-.2 3.5-.7 1.1-.4 2.1-1.1 2.9-1.9.8-.8 1.5-1.8 2-2.8.5-1.1.7-2.3.7-3.6 0-1.3-.2-2.5-.7-3.6-.5-1.1-1.2-2-2-2.8-.8-.8-1.8-1.4-2.9-1.9-1.1-.4-2.3-.7-3.5-.7-1.2 0-2.4.2-3.5.7-1.1.4-2.1 1.1-2.9 1.9-.8.8-1.5 1.8-2 2.8-.5 1.1-.7 2.3-.7 3.6zm20.7 64c-.1 0-.1 0 0 0l-.5 1c.3.1.3.2.4.5v.2l.3.3c.1-.5.1-1 0-1.5-.1.1-.2-.2-.2-.5zm51.7 19.5zm-15.4 16.6c-.5.1-.9 0-.8-.7 0-.1 0-.2-.1-.3 0-.1-.1-.1-.2-.1h-.3c-.1 0-.1 0-.2.1-.3.2 0 .4.1.6.2.3.5.5-.1.6-.1 0 .1.2.2.3.2.2.6.2.5.6.6.1.9.8 1.5.8.5-.8-.3-1.2-.6-1.9zm-54.8-14.3c-2.6-2-11.5-8.7-11.5-8.7s-.6-.3-1.6-3.1c-.9-2.8-2.4-6-1.8-8.8.6-2.8-.2-1.3-.6-.1-.4 1.4 0 3.9.5 6.5s1.7 4.1 1.7 4.1-3.2-2.7-4.9-4c-1.6-1.3-5.2-3.6-10.4-8.6-.1-.1-3.3-3-3-2.3 1.3 2.5 11.1 10.4 11.1 10.4s-1 .2-3.2.2c-4.5-.1-6-1.3-7.5-1.8-.5-.2.4.6.6.7 1.4.8 1.5 1.2 3.8 1.7 2.3.6 6.5.3 6.9.2.4 0 1.5.8 3.9 2.6s4 3.1 4 3.1-2.6 1-5.4 1.6c-2.8.7-3.9.9-7.3.3-3.4-.6-.8.5.8.8 1.6.3 2.2.5 5.3.1 3.1-.4 8-2.1 8-2.1s2.9 2.3 4.4 3.2c1.7 1 6.3 5.1 8.3 5.7.3.3-.9-.8-2.1-1.7zm54.8 14.3v-.1.1z"/></svg>