<svg xmlns="http://www.w3.org/2000/svg" width="159.289" height="159.289" viewBox="176.679 175.774 159.289 159.289"><g fill="#662E6B"><path d="M239.062 288.064a.98.98 0 0 1-.84.97c-.517.13-.711-.129-.84-.646s.064-.775.259-.905a1.092 1.092 0 0 1-.194-.646c-.323.518-.905.905-1.293 1.164l.711.518s0 .064.064.193c.065.389-.194.518-.194.97v.065c.129-.065.323-.065.453-.065h.129c.064-.064.194-.064.258-.129.194-.065.323 0 .517 0 .194-.518.582-.841 1.035-.841.064 0 .129.064.129.064 0-.064.064-.129.064-.193-.128-.13-.193-.324-.258-.519.065 0 0 0 0 0zm2.716-.904a1.254 1.254 0 0 1-.905-1.035c-.064-.064-.129-.064-.129-.193a1.044 1.044 0 0 1-.582.193c-.259 0-.517-.129-.711-.258.194.193.323.387.388.646a1.19 1.19 0 0 1 .453-.13c.646 0 1.164.582 1.164 1.293 0 .582-.388 1.034-.905 1.229.065 0 .065.064.129.064.582.194 2.004.711 2.133.711-.129-.646-.388-1.228-.646-1.874-.131-.129-.325-.388-.389-.646zm1.68-6.077c-.194 0-.323 0-.453-.065.129.065.259.26.323.518.129 0 .194 0 .323.064 0-.064-.064-.064-.064-.129 0-.129.064-.259.064-.388h-.193zm-1.292 2.392c-.129-.129-.258-.258-.323-.452-.129-.065-.194-.065-.323-.194 0 .064 0 .129.129.518.065.129.129.323.194.582.064-.196.193-.325.323-.454z"/><path d="M242.295 280.501c-.064 0-.194-.064-.259-.064-.194.259-.517.388-.84.388h-.064a1.856 1.856 0 0 0 0 .84c0 .194.129.194.194.453 0 .193-.194.259-.323.259-.129.064-.323.064-.323-.065-.711.194-.711.324-.646.389.194.129.388.323.517.518.065 0 .065 0 .129.064.065.064.453.84.517.904-.129-.322-.194-.84-.129-1.163 0-.194.323-.323.388-.518.194-.581.258-1.293.84-1.487.259-.064.453-.064.646 0-.259-.13-.518-.259-.647-.518zm2.069 6.917l.064.064-.064-.064zm-8.922 2.328c-.129-.518 0-.906.323-1.423l-.388-.064c0 .905-.259 1.034-1.035 1.228v.065c0 .194.129.259.194.194.194-.065.258-.194.388-.26.194-.064.258 0 .323.13.064.259-.065.323 0 .517.064.194.194.26.194.453.064.323-.129.518-.453.711.129.064.194.129.259.193l.064-.064h.194v-.064c0-.518.323-.969.776-1.163 0-.065.065-.065.065-.13l-.065-.064c-.58-.001-.709.388-.839-.259zm-.646-2.069c.517-.13.388-1.163.711-1.681-.129-.064-.194-.129-.323-.193 0 .193-.065.387-.194.581v.064c.129.712-.323.646-.775.712.064.387.064.647.581.517zm2.909-5.237c.064 0 .064.064.129.064.064 0 .064-.064.129-.064.064 0 .194.064.194.194v.064c.194.129.258.323.323.582.194-.389.582-.711 1.034-.711 0-.065 0-.194.064-.26-.129.065-.711-.193-1.099-.387a2.287 2.287 0 0 1-.905.387c0 .065.065.194.065.324.002-.128.002-.193.066-.193zm.517-2.973v.064c0-.064.065-.064.129-.064h-.129zm.517 1.293c.129-.129.259-.194.194-.389 0-.064-.129-.193-.194-.322 0-.194.065-.324.259-.389.388-.064.258.259.323.518.323-.064.517-.193.776-.323 0-.13-.065-.194-.065-.323s.065-.259.065-.388h-.065c-.194.064 0 .259-.388.388-.323.064-.582-.129-.711-.453a.942.942 0 0 1-.582.389c.129 0 .323.193.323.258 0 .194-.129.324-.259.324-.194.064-.258 0-.323-.194v-.064c0 .064-.064.064-.064.129.324.257.582.516.711.839zm-3.943 3.75c-.064 0-.129.064-.258.064.064.064.129.064.194.129.064-.064.064-.129.064-.193zm3.62-1.1c0 .129-.064.193-.129.259h.065c0-.065 0-.13.064-.259zm9.632-7.887c-.194-.194-.258-.453-.258-.711 0-.064.064-.194.064-.259-.129-.065-.194-.194-.323-.259a1.306 1.306 0 0 1-.711.193h-.129c.323.518.711 1.293.776 1.682.194-.388.323-.517.581-.646zm-10.278 10.409v.258c.194-.322.582-.582.97-.582.259 0 .517.13.711.26-.065-.065-.194-.194-.194-.26-.064 0-.064 0-.129.065v-.259a1.211 1.211 0 0 1-.129-.518c-.065-.064-.129-.064-.194-.129-.129.389-.388.711-.711.775-.323-.064-.582-.193-.775-.258 0 .129-.065.193-.129.258.256.001.515.131.58.39zm12.412 1.55c.065 0 .129-.129.129-.193h-.064c0 .065-.065.193-.065.193zm-4.202-7.563c-.065 0 0 .13 0 .13.064-.065.064-.195 0-.13zm-.388 4.267c.259.13.517.453.582.775 0-.064.064-.129.129-.193-.259-.258-.453-.518-.453-.97-.064 0-.129.194-.258.388zm-1.875-.647c.194.194.258.453.323.776.064-.065.064-.13.064-.259 0-.064-.129-.518-.129-.711-.064.13-.128.194-.258.194zm3.233-6.076c0-.129.064-.323.194-.323s.129 0 .323.064v-.775c-.065.065-.388.26-.453.389h-.129c-.129-.064-.646-.194-.776-.259 0 .13-.064.259-.064.323.387.063.71.258.905.581zm1.098.323v-.13c0-.129-.194-.258-.323-.193h-.064c-.064.129-.259.388-.259.518l.453.258c-.065-.13.193-.453.193-.453zm-2.779-.712c.129-.064.194-.129.323-.193 0-.064-.064-.064-.064-.129 0-.13.194-.389.258-.389h.259c.064 0 .129-.064.064-.129-.129-.323-.517-.129-.84-.129a1.225 1.225 0 0 1-.517.129c-.129 0-.258-.064-.388-.064 0 .193-.065.452-.194.582.258-.13.711.064 1.099.322zm1.81.841v.13c0-.064.065-.064.065-.13 0 .065 0 .065-.065 0zm5.882 3.749v-.193c-.258.064-.388.323-.582.518.129.064.194.129.323.193.131-.258.259-.453.259-.518zm-1.486-1.357c0 .13.065.324.065.453l.323-.064c-.13-.065-.259-.195-.388-.389zm.129 1.681a1.64 1.64 0 0 1-.129-.646c-.452.582-.646.388-.97 1.229.129 0 .323.064.388.193.129-.324.388-.647.711-.776zm-.517 2.069c0 .193-.064.388-.129.582.065 0 .129-.064.194-.064.259 0 .453.129.646.258h.065l.258.259v.194c0 .064.065.064.065.129l.323-.582c-.259-.129-.323-.193-.388-.388-.064 0-.129.065-.258.065-.195-.066-.518-.196-.776-.453zm-4.461-1.293c.258-.064.452.193.646.129.064 0 .129 0 .129-.193-.129-.129-.258-.194-.388-.323a1.13 1.13 0 0 1-.905.452c-.064 0-.129-.064-.258-.064.064.193.129.388.129.582.195-.13.453-.519.647-.583zm-3.555-3.426c.064 0 .194 0 .258-.064-.064-.065-.129-.13-.129-.195-.065.129-.065.194-.129.259zm8.08.193c.065.064.194.129.194.259 0-.452.259-.776.646-.97-.194 0-.452-.064-.646-.064 0 .064.065.129.065.193 0 .195-.129.453-.259.582zm-24.112 42.021l-1.875-5.689-2.716 5.883.97.451 1.616-3.49 1.875 5.689 2.715-5.689v-.129l-.969-.453zm14.933-134.724l2.263-.452.84 1.293 1.164-.194-4.073-5.818-1.745 6.981 1.164-.194.387-1.616zm.711-2.844l.97 1.422-1.422.258.452-1.68zm8.598-2.004l.259 4.978 1.098-.13-.323-4.913 1.358-.064-.065-1.035-3.75.194.065 1.034zm9.027-1.087l-.275 6.006-1.098-.05.275-6.007zm10.883 1.475l.065-.13-1.163-.194-2.134 3.491-.904-3.943v-.065l-1.164-.194 1.551 6.917zm-49.001 13.446l-2.974-5.043-.065-.128-.904.581 2.973 5.172zm13.618-5.935l-1.046.337-1.843-5.724 1.046-.337zm-9.998-1.499l2.004 4.525 1.035-.388-2.069-4.525 1.228-.582-.388-.905-3.426 1.487.388.969zm100.59 82.359h.193c.388 0 .776-.259.841-.711a73.681 73.681 0 0 0 1.486-14.61 73.73 73.73 0 0 0-3.232-21.592c-.129-.453-.646-.711-1.099-.582-.452.129-.711.646-.582 1.034 2.134 6.788 3.168 13.899 3.168 21.075 0 4.783-.518 9.633-1.422 14.287-.065.583.194 1.035.647 1.099zm-6.012-40.274l.969-.388-.905-2.134 1.552-.646.905 2.069.97-.388-.905-2.069 1.098-.452.906 2.133.905-.453-1.293-3.103-5.495 2.328zm-5.495-10.99l2.328-1.422 1.163 2.004-2.327 1.357.517.97 5.171-3.103-.581-.905-1.939 1.164-1.164-2.005 1.939-1.163-.518-.905-5.17 3.038zm-36.331-30.125l-2.199-.712.518-1.616 2.133.647.259-.97-2.133-.711.387-1.099 2.198.646.324-.97-3.297-.969-1.746 5.689 3.232 1.034zm-66.198 13.317l.84-.711-2.392-3.039 6.012.905-3.943-5.172-.84.647 2.327 3.103-6.013-.97zm102.205 7.628l.841 1.099.776-.646-2.328-2.974-.775.646.775 1.035-3.879 3.103.712.84zm-22.819-13.576a2.916 2.916 0 0 0 1.615.453c.259 0 .518 0 .776-.065.841-.194 1.487-.646 1.939-1.422.452-.711.581-1.552.323-2.328-.194-.84-.646-1.487-1.422-1.939-.712-.452-1.553-.582-2.393-.388s-1.486.646-1.939 1.357c-.518.841-.582 1.681-.323 2.521.324.777.778 1.423 1.424 1.811zm-.13-3.749c.323-.517.712-.84 1.293-.97.517-.129 1.034-.064 1.552.259s.775.711.904 1.228c.13.517.065 1.099-.258 1.552-.323.517-.711.84-1.293.969s-1.035.065-1.552-.258a1.955 1.955 0 0 1-.905-1.229c-.129-.452 0-1.034.259-1.551zm9.697 6.982l1.488 1.228.711-.776-1.552-1.228.775-.97 1.552 1.293.647-.776-2.393-2.004-3.814 4.655.841.711zm-112.679 78.415c.518-.193 1.035-.193 1.552.064.517.195.84.582 1.034 1.1.194.453.129 1.034-.064 1.616l-.065.194 1.164-.389h.064v-.064c.129-.582.064-1.099-.129-1.615-.323-.906-.905-1.553-1.81-1.875a3.025 3.025 0 0 0-2.133 0c-.776.258-1.357.775-1.746 1.551-.323.775-.388 1.552-.129 2.328.194.517.517.969.969 1.357l.065.064 1.228-.453-.194-.129a1.944 1.944 0 0 1-.388-.259c-.129-.064-.194-.194-.323-.259-.129-.129-.259-.388-.388-.646-.194-.517-.129-1.034.065-1.486.323-.517.711-.904 1.228-1.099zm49.132 46.998L234.99 320l-1.745 6.142-.065.064 1.034.323 1.099-3.685 2.78 5.302 1.745-6.142-1.034-.323zm6.335-43.377l.194.388h.129c.065-.065.388-.259.453-.323-.259 0-.517 0-.776-.065zm7.628 47.645v.064l1.1.065.128-2.715 1.875.064.065-.969-1.94-.13.065-1.099 2.004.065v-1.035l-3.038-.129zm27.927-104.599c1.357 0 2.521-.452 3.427-1.422s1.423-2.069 1.423-3.491c0-1.422-.453-2.521-1.358-3.491s-2.004-1.422-3.361-1.422c-1.358 0-2.456.453-3.427 1.422-.904.905-1.357 2.069-1.357 3.426 0 1.422.453 2.586 1.422 3.491.905 1.035 2.003 1.487 3.231 1.487zm-17.389 61.027c-1.034.97-1.938 2.715-2.198 3.879-.064.129-.193.582-.775 2.909-.129.517-.582 3.685-.258 4.202v-.064c.064-.259.193-1.293 1.938-7.629.323-1.034 1.164-1.875 1.487-3.038.064-.131.064-.195-.194-.259zm-48.744 30.253l1.293-.775 1.875 1.293-.258 1.487.97.646 1.164-6.917-6.012 3.685.968.581zm3.685-2.326l-.323 1.681-1.164-.776 1.487-.905zm71.952-75.443c-.518-.517-1.164-.905-1.875-1.228s-1.552-.453-2.521-.453h-1.229v11.766h1.229c.97 0 1.811-.129 2.521-.453s1.357-.711 1.875-1.228a5.115 5.115 0 0 0 1.163-1.875c.259-.711.388-1.487.388-2.327s-.129-1.616-.388-2.327a4.631 4.631 0 0 0-1.163-1.875zm-45.835 40.017c.194-.259.323-.646.194-.97-.259.064-.518.193-.841.323.324.13.518.388.647.647zm-51.265-47.645l.453-1.099-1.034-1.164.905-2.133h1.552l.453-1.099-7.111.129 4.655 5.236.127.13zm-1.293-3.038l-1.164-1.293h1.746l-.582 1.293zm17.518-21.43l-.779.776-4.243-4.26.779-.775zm-11.57 14.771l.582-.905-3.297-2.068 5.948-1.229-5.495-3.491-.582.905 3.297 2.069-6.012 1.228zm.194 68.396l-.453-.905-2.003 1.035-1.035-2.005 1.94-1.034-.518-.97-5.107 2.781h-.064l.517.968 2.327-1.227 1.035 1.939-2.328 1.292.517.906 5.108-2.715zm4.137 15.45l-.064.065.711.776 2.004-1.809 1.293 1.422.711-.711-1.293-1.423.84-.776 1.358 1.422.776-.646-2.069-2.263zm-1.357-9.308l1.357 1.875.841-.582-2.004-2.715-4.784 3.426 2.004 2.715.84-.582-1.357-1.875 1.357-.969 1.293 1.809.841-.645-1.293-1.746zm-13.059-23.403c.453-.129.776-.582.646-1.034a72.054 72.054 0 0 1-1.746-15.838c0-7.176 1.099-14.287 3.168-21.075.129-.453-.129-.905-.582-1.099-.453-.129-.905.129-1.099.582a73.7 73.7 0 0 0-3.232 21.592c0 5.495.582 10.925 1.81 16.226.064.389.453.646.84.646h.195zm88.243 26.505c0-.194-.129-.194-.259-.194-.259-.064-.452.065-.517.324-.065.129 0 .258.129.193.258-.064.518-.064.647-.323zm-.323 3.685c.323-.064.581-.129.841-.193-.389-.324-.647-.388-.841.193zm-2.456-.193c.322.582 1.033.582 1.422 1.1.257-.647.257-.647-1.422-1.1zm1.227 4.136c-.905.646-.064.971.452 1.423-.258-.711.453-1.357-.388-2.004-.064.259.001.517-.064.581zm-1.874-7.176c.258.518.258.518.84.518-.259-.258-.518-.452-.84-.518zm6.4 2.522c.388.064.517-.064.517-.517-.259.195-.453.324-.517.517zm-32.453-22.626c-.129-.064-.194-.13-.258-.194-.194.26-.453.453-.711.582.129.064.194.194.259.259.258-.194.517-.323.711-.452-.066-.065-.066-.13-.001-.195zm31.547 18.683c-.064-.064-.258-.193-.388-.193s-.323.064-.259.322c.064.13-.193.195 0 .389l.389-.193c.065-.067.258-.131.258-.325zm.776 2.844c-.322.064-.711.064-.904.452.064.259.064.646.452.582.452 0 .517-.518.646-.84-.064.001.065-.258-.194-.194zm-11.701-2.52c-.064.064.13.258.324.258.388 0 .388-.388.517-.711-.453.064-.712.129-.841.453zm8.792 6.851zm-.776-.064a.49.49 0 0 1-.129-.258c-.065-.195-.13-.389-.388-.324h-.064l.258.775c.453.194.841.453 1.293.453.129-.258-.258-.388-.193-.646-.13-.193-.324-.323-.453-.518-.258.065-.13.325-.324.518zm-2.134-8.146c-.451.194-1.033-.646-1.486.13.518.194 1.035.323 1.486-.13zm-2.779 2.522c.453 0 .582-.323.97-.388-.647-.388-.776 0-.97.388zm2.263 3.813c-.13-.129-.194.065-.259.194-.258.452.194.517.453.841.065-.453.129-.775-.194-1.035zm.712-4.136c.193.129.258.388.517.258.13-.064.064-.129.064-.193-.13-.258-.259-.453-.581-.388-.13 0-.195.064-.324.064.064.194.194.13.324.259zm-6.789 25.147a3.176 3.176 0 0 0-2.262-.712 2.873 2.873 0 0 0-2.069 1.1c-.517.646-.775 1.422-.711 2.198a2.941 2.941 0 0 0 1.229 2.198c.581.387 1.163.582 1.81.582h.324c.84-.065 1.551-.453 2.133-1.1a3.171 3.171 0 0 0 .711-2.263 3.216 3.216 0 0 0-1.165-2.003zm-.453 3.685c-.323.453-.775.646-1.357.711-.517.064-.97-.129-1.423-.452a1.719 1.719 0 0 1-.711-1.423c-.064-.581.064-1.033.453-1.486.323-.453.775-.646 1.357-.711s1.034.064 1.486.452c.453.323.646.841.711 1.358.001.581-.128 1.099-.516 1.551zm43.637-26.441l-.711-.711-2.521 2.716.711.711.905-.971 3.556 3.297.775-.775-3.62-3.297zm-6.852 12.865l.064.13.905-.711-.388-1.487 1.745-1.486 1.357.646.905-.775-6.336-3.104 1.748 6.787zm.257-3.103l-.452-1.681 1.552.775-1.1.906zm-7.822 2.327c-.387-.064-.775-.064-1.163.064-.323.064-.776.259-1.293.582l-1.099.711 3.038 4.914.064.064 1.099-.646c.518-.324.841-.582 1.1-.841s.453-.646.518-1.034c.258-.84.129-1.616-.324-2.393-.517-.774-1.163-1.227-1.94-1.421zm1.229 3.491c-.064.259-.193.452-.322.646a3.412 3.412 0 0 1-.712.581l-.259.13-2.004-3.297.259-.13c.582-.387 1.163-.517 1.616-.387.518.129.97.387 1.293.904.193.519.259 1.037.129 1.553zm16.226-21.01l-.646.84 4.654 3.492.065.064.647-.84-4.655-3.491zm8.598-8.209c-.711-.389-1.486-.518-2.327-.26-.84.26-1.422.712-1.874 1.423-.389.711-.518 1.552-.323 2.327.193.84.711 1.422 1.422 1.875.517.258 1.034.452 1.486.452.323 0 .646-.064.97-.194.776-.258 1.293-.711 1.682-1.422.388-.775.517-1.551.323-2.327-.131-.841-.583-1.488-1.359-1.874zm.259 3.683c-.259.453-.646.776-1.163.906-.518.129-1.035.129-1.552-.194-.518-.259-.841-.712-.97-1.229s-.064-1.034.193-1.552c.259-.517.646-.775 1.229-.969.518-.13 1.034-.065 1.552.193s.841.711.97 1.229c.064.583-.001 1.1-.259 1.616z"/><path d="M256.323 175.774c-43.895 0-79.645 35.75-79.645 79.644s35.75 79.645 79.645 79.645c43.896 0 79.645-35.75 79.645-79.645s-35.685-79.644-79.645-79.644zm0 157.22c-42.731 0-77.511-34.779-77.511-77.511 0-42.731 34.78-77.511 77.511-77.511s77.511 34.78 77.511 77.511c0 42.732-34.715 77.511-77.511 77.511z"/><path d="M321.552 276.622l-.388 1.034 3.555 1.293-5.494 2.393 6.076 2.197.323-.969-3.556-1.358 5.495-2.392zm-50.554 31.548zm8.34-11.378c.775-.194 1.745.259 2.392-.582-.906 0-1.617.323-2.392.582zm3.102 4.784c.841.129 1.616 0 2.392-.259-.84-.323-1.551.195-2.392.259zm3.233 15.967l-.066-.064-.968.388 1.486 3.49-5.494-2.391 2.456 5.883.064.064.97-.388-1.486-3.555 5.494 2.391zm-5.689-17.584c.258 0 .387.065.517.065 0-.065 0-.13-.064-.194-.066-.129-.195.065-.453.129z"/><path d="M321.875 255.483c0-36.202-29.35-65.552-65.552-65.552s-65.552 29.35-65.552 65.552c0 36.203 29.35 65.551 65.552 65.551 36.202-.064 65.552-29.414 65.552-65.551zm-32.453-43.055h3.232v12.283h4.202v3.103h-7.435v-15.386zm6.982 48.421v1.099h-3.039v2.586h3.104v1.1h-4.267v-7.758h4.267v1.099h-3.104v1.875h3.039zm-.711-14.158c-.518 1.293-1.293 2.392-2.198 3.362-.97.97-2.069 1.745-3.298 2.327-1.228.582-2.585.84-4.072.84h-8.08v-21.01h8.08c1.422 0 2.78.259 4.008.84a11.717 11.717 0 0 1 3.297 2.328 9.763 9.763 0 0 1 2.199 3.361c.517 1.293.84 2.586.84 4.008 0 1.358-.259 2.716-.776 3.944zm-13.317 12.283v-1.099h4.719v1.099h-1.745v6.659h-1.164v-6.659h-1.81zm-8.34-44.477c1.552-1.552 3.491-2.327 5.688-2.327 2.199 0 4.073.775 5.625 2.327 1.551 1.551 2.392 3.491 2.392 5.624 0 2.198-.775 4.073-2.392 5.625-1.552 1.551-3.491 2.327-5.754 2.327-2.004 0-3.749-.711-5.365-2.069-1.746-1.487-2.65-3.556-2.65-6.012.065-2.069.904-3.944 2.456-5.495zm-5.495 74.278c-.064.324-.517.646-.646 1.035-.129.322-.258.84-.452 1.357-.13 0-.259.064-.452.129-.971.389-1.552 1.229-1.552 2.263a2.973 2.973 0 0 0-1.034 1.487c-.129-.064-.259-.064-.389-.064-.258 0-.517 0-.775.129-.904.388-1.875 1.099-1.681 2.715-.646.389-.97.97-1.293 1.422-.064.13-.194.324-.323.453-.388.129-.904.258-1.551.388h-.13c-.646-1.357-1.681-2.263-2.909-2.392h-.323c-.388 0-.776 0-1.099.064-.064 0-.388-.905-.388-1.034-.388-1.164-.517-2.457-.517-3.685 0-1.293 0-2.65.194-3.943.129-.841.323-1.746.646-2.521.064-.194.194-.453.258-.646.905-1.939 2.909-3.686 5.172-3.686.388 0 .84.064 1.293.194.775.194 1.293.452 1.939.97.453.388.775 1.034 1.422 1.229h.064c.13 0 .389-.064 1.164-.518 0 0 .064-.258.129-.388.453-1.487.582-3.362-.452-4.72-.452-.711-2.069-.387-1.745-1.486.193-.711 1.229-1.422 2.004-1.422.129 0 .193 0 .323.064.905.258 1.552 2.392 1.616 3.168l-.129 4.654c.064.775.84.646 1.874 2.197l.452.13c.518 0 1.164-.517 2.004-.517.194 0 .389 0 .646.064 1.682.517 3.039 2.392 2.846 4.072-.13.905-.453 2.068-.971 3.297-.258-.129-.452-.193-.646-.258-.064 0-.129 0-.129-.065a1.226 1.226 0 0 0-.518-.13c-.193 0-.388 0-.582.065a1.774 1.774 0 0 0-.969-.517c-.324-.324-.775-.518-1.229-.582-.259 0-.518 0-.775.064-.194-.259-.389-.389-.646-.518.259-1.03.453-2.064.259-2.518zm-18.294 4.72c.064.452.453 2.392.517 2.78.129.646.259 1.228.388 1.874-.517.13-1.164.194-1.875.388-.129 0-.259.064-.388.129h-.452a234.253 234.253 0 0 1-.453-3.749c-.065-.194-.323-1.552-.388-2.004a25.81 25.81 0 0 1-.323-1.681c-.065.129-.129.323-.259.388-.129.388-.194.776-.194.97.064.323.323 1.616.323 1.811.064.452.323 1.81.388 1.875.065.387.323 1.422.582 2.456-.194.064-.453.064-.711.129-.064 0-.194.065-.258.065h-.259l-1.034.193-.388.064c-.064 0-.194.064-.258.064h-.259l-.323.064c-.388-1.874-.84-3.684-1.228-5.559-.065-.324-.259-1.293-.259-1.357 0-.065-.388-.841-.453-1.293l-2.262-.453c-.129.775-.582 1.357-1.164 1.357-.388 0-.646-.258-.905-.582-.129.26-.323.453-.582.518-.194.453-.582.711-1.099.711-.453 0-.905-.323-1.035-.711 0 0-.064 0-.064.064s0 .064.064.129a.732.732 0 0 1-.194.518c.388 0 .84.259.97.711.129.582-.259 1.035-.646 1.1-.453.129-.646-.453-.711-.841-.065-.194-.065-.388-.065-.581a1.304 1.304 0 0 1-.711.193c-.776 0-1.422-.518-1.422-1.1 0-.451.323-.775.776-.969 0-.064-.064-.064-.064-.129-.065-.453.129-.841.388-1.1l-.129.064c-.453.129-.453.646-.776.711s-.905-.904-.969-1.099c-.194-.905 1.292-1.487 1.81-1.681-.129-.064-.194-.129-.259-.129a1.074 1.074 0 0 1-.776.322c-.646 0-1.164-.582-1.164-1.293s.517-1.293 1.229-1.229h.064c.064-.646.582-1.163 1.164-1.163-.388-.194-.582-.646-.582-1.099 0-.711.517-1.293 1.228-1.229.259 0 .453.129.646.259.129-.582.517-.97.97-1.034 0-.064-.064-.13-.064-.194 0-.259.129-.452.258-.646-.323-.194-.582-.582-.582-1.099 0-.646.517-1.229 1.099-1.229.259-.193.518-.323.905-.323.258 0 .517.064.711.194.065.064.194.129.259.193a.78.78 0 0 1 .323-.323c.258-.064.517.194.84.13.064 0 .064-.064.129-.13-.582-.064-1.035-.581-1.035-1.228 0-.712.518-1.293 1.229-1.229.388 0 .711.258.97.582.258.064.582.387.646.646.064.451-.259.322-.453.711-.194.322-.194.711-.259 1.099.194 0 .388.064.518.194.194-.194.388-.389.452-.711 0-.065-.064-.453-.129-.518 0-.389.194-1.035.388-1.552a.782.782 0 0 1-.453-.452c-.064 0-.064-.064-.129-.13v-.064c-.064-.13-.064-.259-.064-.388 0-.582.388-1.035.905-1.035.452 0 .84.453.905.971.194-.453.582-.711 1.099-.711.323 0 .582.129.776.322h.064c.064 0 .129-.064.259-.064-.129-.129-.259-.323-.259-.518 0-.517.582-.904 1.228-.904.711 0 1.229.388 1.229.904 0 .065-.064.13-.064.194l.194.194c.258-.194.582-.323.905-.323.711 0 1.293.517 1.293 1.163 0 .324-.194.646-.453.841.259.13.388.323.453.452-.064-.129-.064-.258-.064-.388 0-.646.582-1.163 1.293-1.163.517 0 .905.258 1.164.646a1.13 1.13 0 0 1 .905-.453c.129 0 .259.064.388.064.064 0 .129-.064.194-.064.129-.064.259 0 .259.193v.26c.194.193.258.452.258.775 0 .193-.064.388-.129.518.194 0 .453.064.517.452.129.646-.646 1.293-1.164 1.487a.66.66 0 0 1 .388.322c.129-.322.323-.582.517-.646h.064c.129-.322.388-.582.776-.582s.711.389.776.841c.129 0 .193 0 .258.194.065.193 0 .258-.193.323h-.064c-.129.388-.388.646-.776.646a.588.588 0 0 1-.517-.259c-.129.129-.323.193-.517.259 0 .194-.065.323-.129.452 0 .194 0 .453-.064.646 0 .064.064.129.129.129.388-.129.711-.84.905-.904.517-.129.453 1.099.905.97l.258-.13c.064-.064.194-.129.324-.193-.194-.129-.389-.389-.389-.582-.129.064-.193.129-.258.129-.194.064-.194-.064-.259-.258-.064-.194.646-.776.841-.776.129-.064.193.065.193.194.193-.064.452-.194.646-.194.711 0 1.229.388 1.229.905 0 .193-.13.323-.259.518l.129.129v.193a5.422 5.422 0 0 0-2.65.906l-.064-.065s-.259.065-.323.065c-.517-.195-.259-.518-.905-.324-.064 0-.194.064-.194.064v.324c.065 0 .388.064.517.129 0 0 .259.193.388.258-.582.453-1.099.906-1.552 1.487-.776.905-1.293 1.939-1.81 3.038-.517 1.1-1.164 2.134-1.681 3.168-.065.129-.388.582-.323.775 0 .065-.065.324-.065.389-.261-.055-.131 1.884-.131 2.272zm-10.861-30.513c-.064-.13-.129-.26-.194-.324-.064-.129-.194-.193-.323-.322-.129-.065-.323-.194-.517-.26l-.776-.322c-1.034-.453-1.616-1.1-1.616-1.939 0-.582.194-1.035.646-1.487.453-.388.97-.581 1.681-.581.905 0 1.616.452 2.068 1.293l-.97.581c-.194-.323-.323-.517-.517-.581-.194-.13-.388-.13-.646-.13-.323 0-.582.064-.776.259-.194.193-.323.388-.323.711 0 .388.259.711.841.904l.775.324c.646.258 1.099.582 1.358.904.258.389.452.841.452 1.357 0 .712-.258 1.293-.711 1.746s-1.099.711-1.746.711-1.228-.193-1.681-.582c-.453-.388-.711-.969-.776-1.681l1.164-.259c.065.453.129.776.259.971.259.322.582.517 1.034.517.388 0 .646-.13.905-.388a1.28 1.28 0 0 0 .388-.905c.066-.259.066-.388.001-.517zm6.076-4.008v-1.099h4.719v1.099h-1.745v6.659h-1.164v-6.659h-1.81zm9.892 6.659v-7.758h1.164v7.758h-1.164zm6.27-6.659v-1.099h4.72v1.099h-1.746v6.659h-1.163v-6.659h-1.811zm12.735 6.788c-.84 0-1.551-.323-2.068-.905-.518-.517-.775-1.228-.775-2.004v-4.978h1.163v4.654c0 .646.13 1.164.323 1.486.323.453.775.646 1.357.646s1.035-.193 1.357-.646c.194-.322.324-.775.324-1.486v-4.654h1.163v4.978c0 .841-.259 1.487-.776 2.004-.516.581-1.227.905-2.068.905zm-17.325-51.265c1.552-1.552 3.491-2.327 5.688-2.327 2.199 0 4.073.775 5.625 2.327 1.551 1.551 2.392 3.491 2.392 5.624 0 2.198-.775 4.073-2.392 5.625-1.552 1.551-3.491 2.327-5.754 2.327-2.004 0-3.75-.711-5.365-2.069-1.746-1.551-2.651-3.556-2.651-6.012.066-2.069.906-3.944 2.457-5.495zm-2.844 23.855a11.123 11.123 0 0 1 2.392-3.556 9.939 9.939 0 0 1 3.685-2.327c1.423-.582 2.974-.84 4.72-.84 1.68 0 3.232.258 4.654.84 1.422.582 2.65 1.357 3.685 2.327 1.034 1.034 1.81 2.198 2.392 3.556s.841 2.78.841 4.396c0 1.551-.259 3.039-.841 4.396s-1.357 2.521-2.392 3.556a9.947 9.947 0 0 1-3.685 2.327c-1.422.582-2.975.84-4.654.84-1.682 0-3.297-.259-4.72-.84-1.423-.582-2.65-1.357-3.685-2.327a11.112 11.112 0 0 1-2.392-3.556c-.582-1.358-.84-2.78-.84-4.396-.065-1.552.258-3.039.84-4.396zm-12.735-25.924h3.232v5.625h5.107v-5.625h3.232v15.451h-3.232v-6.723h-5.107v6.723h-3.232v-15.451zm3.878 20.041c1.422.582 2.65 1.357 3.685 2.327a11.101 11.101 0 0 1 2.392 3.556c.582 1.357.84 2.78.84 4.396 0 1.551-.259 3.039-.84 4.396a11.123 11.123 0 0 1-2.392 3.556 9.947 9.947 0 0 1-3.685 2.327c-1.422.582-2.974.84-4.655.84s-3.297-.259-4.719-.84c-1.422-.582-2.65-1.357-3.685-2.327-1.035-.97-1.81-2.198-2.392-3.556-.582-1.358-.84-2.78-.84-4.396 0-1.552.258-3.039.84-4.396s1.357-2.521 2.392-3.556a9.947 9.947 0 0 1 3.685-2.327c1.422-.582 2.974-.84 4.719-.84a13.515 13.515 0 0 1 4.655.84zm-29.155 20.751v-21.01h12.024v4.655h-6.594v3.491h6.012v4.655h-6.012v8.274h-5.43v-.065zm1.163 4.655v7.758h-1.164v-7.758h1.164zm5.948-.518l5.624 5.883v-5.365h1.164v8.21l-5.624-5.883v5.431h-1.164v-8.276zm5.624-42.407c1.616-1.875 3.685-2.845 6.206-2.845 1.357 0 2.715.388 4.008 1.099l.258.129v4.008l-.905-.711c-1.164-.97-2.328-1.422-3.556-1.422-1.357 0-2.392.453-3.362 1.422-.905.97-1.357 2.069-1.357 3.491 0 1.358.453 2.521 1.357 3.426.905.905 2.004 1.422 3.362 1.422.646 0 1.228-.129 1.746-.323.258-.129.582-.259.84-.453.323-.194.646-.453.97-.711l.905-.776v4.073l-.258.129c-1.293.776-2.715 1.099-4.138 1.099-2.198 0-4.073-.776-5.624-2.328-1.552-1.551-2.327-3.426-2.327-5.624-.064-1.808.582-3.554 1.875-5.105zm-6.077 7.628c-.065-.194-.129-.323-.259-.453-.129-.129-.323-.323-.517-.452-.258-.129-.517-.323-.84-.453l-1.357-.582c-2.198-.905-3.297-2.327-3.297-4.137 0-1.228.453-2.263 1.422-3.103.905-.84 2.069-1.228 3.426-1.228 1.875 0 3.297.905 4.332 2.715l.258.453-2.715 1.616-.259-.453c-.388-.646-.646-.84-.711-.905-.259-.129-.517-.194-.905-.194-.453 0-.84.129-1.164.388-.258.258-.388.517-.388.84 0 .453.388.84 1.228 1.164l1.422.582c1.228.517 2.198 1.164 2.78 1.875.582.776.905 1.746.905 2.844 0 1.487-.518 2.715-1.487 3.685s-2.198 1.422-3.685 1.422c-1.357 0-2.521-.388-3.426-1.229-.905-.84-1.422-2.004-1.681-3.426l-.065-.517 3.297-.711.065.582c.129.97.323 1.358.388 1.487.323.518.84.711 1.552.711.517 0 .97-.194 1.293-.517s.517-.776.517-1.358c-.064-.323-.064-.517-.129-.646zm-8.21 69.818c1.164-2.521-4.719-5.883-4.332-9.18.388-3.298 5.042-4.785 7.37-3.814 2.392 1.034 2.521.582 3.426-.582.905-1.164 3.103-1.486 4.784.193 1.681 1.682 2.198 5.754 3.297 4.784.84-.711 1.81-2.392 3.038-1.939a2.773 2.773 0 0 0-.388 1.423c0 .193 0 .388.064.517-.064.13-.129.194-.258.323-.97.453-1.616 1.486-1.616 2.586 0 .582.194 1.229.517 1.681-.259.582-.259 1.099-.129 1.487.065.388.388 1.034.84 1.486-.064.259-.129.453-.129.711 0 .711.259 1.357.776 1.811.453.453 1.099.775 1.746.905.194.388.453.775.84.97.453.322 1.034.388 1.616.258.259-.064.517-.193.776-.387.388.84.905 1.551 1.487 2.068.97.904 1.875 1.681 2.715 2.262-.84.194-1.616.324-2.392.518a.49.49 0 0 0-.323.129c-.129 0-.259 0-.388.065-.452.129-.905.194-1.292.323-1.293-.389-2.198-.582-3.621-.841-2.068-.323-12.412-1.228-14.352-2.068-2.133-.712-5.3-3.103-4.072-5.689zm72.017 8.209c-.389.13-.582.776-1.164.453-.193-.129-.518-.064-.904-.129.517.388.904.646 1.293.969a.437.437 0 0 1 .258.389c-.064.258-.258.064-.322.064-.453.193-1.035-.259-1.553.129.194.194.453.064.518.389h-2.004c.193.646.904.646 1.164 1.099-1.035.259-1.682-.776-2.65-.841.064.582.646 1.035.452 1.617a1.185 1.185 0 0 1-.646-.453c-.452-.775-1.164-1.229-1.939-1.552-.13-.064-.388-.194-.452-.064s-.064.388.129.582c.582.517 1.034 1.099 1.811 1.422.322.13.646.388.84.905-1.229-.389-2.457-.518-2.909-2.004-.13-.453-.517-.711-.841-1.035-.193-.193-.517.065-.775.065-.711.064-.904.388-.646 1.099.064.129.129.259.193.453.065.129.13.258 0 .322-.064.065-.193 0-.322-.064-.518-.193-.646-.711-.905-1.099-.13-.194-.13-.517-.452-.452-.324.064-.646.129-.776.388-.129.194.323.323.452.517.26.389.906.582.518 1.164.323.129.518.453.453.775-.064.323-.389.323-.711.194-.13-.065-.194.064-.194.129l.194.452-.065.646h-.064c-.064.194-.064.453.259.582.193.13.518.194.518.518-.776-.129-1.487.064-2.199.064-.193 0-.258.129-.258.389.064.193.129.322.323.322.517.13.905.389 1.357.711-.582.324-1.034.065-1.487-.129-.129-.064-.258-.129-.388 0-.129.194.065.259.13.389.258.452.582.84.969 1.163.324.259.582.517.453.97-.453 0-.646-.453-1.164-.775.324.452.518.711.582 1.033.064.194 0 .453-.193.389-.259-.064-.776-.323-.776-.389-.194-.581-.646-.969-.775-1.551-.194-.84-.194-1.746-.841-2.521-.064-.064-.129-.193-.064-.258-.129.129-.258-.194-.518-.065.194.712.389 1.487.582 2.198.129.388.389.84-.064 1.229 0-.129 0-.259-.129-.324-.129.195 0 .26.129.324 0 .452.129 1.034-.388 1.357-.13-.194-.065-.711-.259-.646-.646.323-.388-.259-.388-.389-.065-.322 0-.711-.065-1.033-.258.129-.129.452-.517.582.259-.776.065-1.553.452-2.134.389-.582 0-1.745-.711-1.875-.775-.194-1.486-.517-2.197-.841-.905-.388-1.811-.711-2.586-1.486.258 1.034 1.229 1.1 1.875 1.551-.518 0-.453.324-.453.646-.129.712-.193.712-.711.26-.775-.712-1.229-1.617-1.616-2.521-.452-1.035-1.293-1.552-2.327-1.552-1.164 0-2.328.13-3.491 0 0 1.293-.452 2.392-1.422 2.65-2.651.776-6.788.259-10.15.259-4.654-.064-10.279-.518-14.48-.905-6.465-.646-2.909-.776 5.171-2.78.453-.129.97-.258 1.552-.387l.517 1.745.194-1.939c1.034-.194 2.133-.452 3.491-.712l.388 2.134.194-2.198c.711-.129 1.422-.322 2.263-.452l.776 2.909-.194-3.039c.453-.064.97-.193 1.487-.322l.517 2.521.064-2.586c.517-.13.776-.13 1.229-.194l.582 2.004.065-2.134c.84-.193 1.551-.322 2.133-.387l.388 3.361.259-3.491c1.228-.194 1.939-.259 2.844-.259 1.099 0 1.939 1.293 2.198 2.779.97-.258 2.327-.646 3.168-.84 1.034-.259 1.228-1.811 2.198-2.197.452-.194.711-.453.582-1.1-.194-.84-.065-1.1.581-1.357.13.452-.064.904-.129 1.357.323 0 .517-.064.581-.323.065-.13.065-.194.26-.13.775.389 1.293.194 1.68-.517.065-.13.13-.13.26-.064.064.064-.065.323.193.194.129-.065.258-.194.193-.389-.129-.388-.129-.84-.258-1.293-.453.259-.646.582-.711 1.035 0 .129-.064.258-.194.258-.064 0-.194-.129-.13-.193.324-.582.26-1.487.971-1.811.452-.193.517-.518.452-.904-.13-.582.064-.906.517-1.1.453.518.776 1.1 1.617.646.193-.129.775-.064.517.582v.064c-.064.258-.13.518-.323.582-.646.193-.259.582-.323.969.388-.258.194-.517.259-.711.258-.129.258.518.582.194.193-.194.258-.323.322-.517a.494.494 0 0 0 .13-.324c.064-.129.064-.258.259-.258.129.322.388.711.84.582-.193.322-.517.387-.711.646-.064.064-.323.064-.064.258.064.064.064.323.323.194.323-.13.581-.259.776-.582.129-.194.387-.582.451-.582.389.194.971.194 1.1.841.064.452.064.97-.258 1.229-.13.129-.195.258-.26.388-.129-.065-.258-.065-.452-.13-.13 0-.323-.064-.259.13.064.129-.193.388.13.452.259.064.452.064.259.389 0 .064.129.258.322.258.194 0 .26-.064.26-.258v-.065c0-.064 0-.064.064-.064.193-.323.322-.711.646-.905.064-.064.129-.193.258-.129s.064.193.129.258c.065.518-.322.841-.581 1.229.581-.388.905-.84.905-1.551 0-1.423 1.099-2.069 2.068-2.845.064-.065.129-.065.323.064-.517.841-1.293 1.681-.905 2.909.453-.193.711-.646.711-1.164 0-.582.259-.84.711-1.163.13.452 0 .905 0 1.293 0 .129 0 .194.065.323.129.129.259 0 .323-.064.129-.13.258-.259.388-.453.323-.518.841-.84 1.487-1.229-.13.646-.646.971-.776 1.552.646-.129 1.163-.581 1.81-.581.13.258-.387.258-.129.517.194.194.389.194.582.064a.507.507 0 0 0 .259-.259c.129-.258.517-.388.646-.258.259.193 0 .452-.194.646-.258.258-.388.582-.518.904.389 0 .646-.193.971-.258.322-.13.582.322.969.258-.258.389-.711.194-1.033.453.193 0 .258.064.322.064.13 0 .324-.129.453.129.064.259-.194.259-.323.324-.194.129-.452.129-.712.064-.322-.064-.452.193-.517.388s0 .452.065.711c.646-.064.193.323.193.452-.064.389-.389.518-.646.775-.259.195-.582.582-.389.906.195.387.453-.064.646 0 .646.193.971-.26 1.1-.776.129-.581.582-1.034.711-1.552.064-.129.129-.322.389-.258 0 .129 0 .193-.065.258-.064.259-.323.582-.064.711.388.194.323-.322.517-.517h.065c.517 1.034-.905 1.099-.905 1.939.582-.194 1.164-.259 1.552-.517.452-.26.905-.194 1.357-.26.581-.064-.065.582.388.518-.138.133-.138.197-.138.197zm11.442-8.209c1.163 2.65-2.004 5.042-3.943 5.818-.841.387-3.427.711-6.142 1.098-.064-.064-.064-.193-.129-.258-.324-.453-.776-.711-1.293-.711h-.711c0-.064-.065-.129-.065-.194v-.064c-.129-.259-.323-.517-.581-.646l-.194-.194c.13-.388.064-.84-.13-1.229a1.527 1.527 0 0 0-.904-.775c-.064-.452-.259-.904-.646-1.229l-.064-.064c.129-.129.258-.193.258-.193s3.232 1.099 5.172 1.357c2.004.258 2.328.064 3.426-.064 1.035-.194 2.78-.905.518-.518-2.197.388-2.908.259-4.719-.193-1.811-.453-3.491-1.035-3.491-1.035s1.034-.84 2.586-2.004c1.552-1.229 2.263-1.681 2.521-1.681.26 0 2.975.194 4.461-.13 1.487-.387 1.487-.646 2.457-1.099.129-.064.711-.581.388-.452-1.034.388-2.004 1.164-4.849 1.164-1.422 0-2.068-.13-2.068-.13s6.336-5.106 7.176-6.724c.258-.452-1.875 1.423-1.939 1.487-3.426 3.167-5.689 4.72-6.723 5.56-1.035.84-3.168 2.586-3.168 2.586s.775-.97 1.099-2.65c.323-1.682.582-3.297.323-4.202-.259-.776-.775-1.745-.388.064s-.518 3.879-1.163 5.688c-.582 1.811-1.035 2.004-1.035 2.004s-.582.453-1.422 1.035c-.064 0-.129-.064-.259-.064-.259 0-.517 0-.776.064-.064 0-.129-.064-.193-.064-.129-.324-.323-.582-.582-.711a1.244 1.244 0 0 0-.775-.26c-.323-.064-.711.065-1.035.194l-.064.065-.388.193c-.064 0-.064-.064-.129-.064-.065-.129-.13-.194-.194-.323-.322-.388-.711-.518-1.034-.582.841-3.62 1.099-7.499 2.134-9.115 1.681-2.65 3.103-.064 4.201.905 1.1.97 1.617-3.104 3.297-4.784 1.682-1.681 3.879-1.422 4.784-.194.905 1.164 1.099 1.617 3.427.582 2.327-1.034 7.047.453 7.369 3.814.319 3.04-5.564 6.401-4.401 8.922zm-22.562 28.833l-1.035.258.906 3.427c.129.452.129.776.064 1.034-.13.323-.389.582-.776.646-.388.129-.711.064-.97-.193-.193-.194-.323-.453-.452-.905l-.905-3.427-1.034.259.905 3.62c.129.582.452 1.035.969 1.357.389.194.776.324 1.164.324.194 0 .389 0 .582-.065.646-.129 1.1-.517 1.422-1.034.259-.518.324-1.034.194-1.681l-1.034-3.62z"/><path d="M279.208 300.994c.13.258.259.452.582.518 0-.389-.13-.582-.582-.518zm1.293-2.65c0-.453-.064-.775-.452-.711-.389.064-.905 0-1.1.452-.129.259.582.841 1.1.905.388-.064.388-.453.452-.646zm-30.254-20.558c.194-.388.646-.646.97-.776v-.193c-.323-.064-.582-.259-.776-.582.064.518-.711 1.034-.97 1.1h-.129c-.064 0-.323-.13-.388-.065-.065 0-.259.13-.259.259-.064 0-.129.193-.129.193.065.26.194.453.323.646.065-.193.259-.322.388-.387.064-.195.129-.389.258-.389s.259.064.323.193h.194l.195.001zm0 5.171s-.129-.064-.323-.129c0 .129.064.259.064.323 0 .13-.064.194-.064.323l.388-.193-.065-.324zm10.536-36.072c.518.517 1.164.905 1.875 1.229.711.258 1.487.452 2.264.452.775 0 1.551-.129 2.262-.452.711-.259 1.357-.711 1.875-1.229s.97-1.164 1.293-1.81c.323-.711.453-1.487.453-2.327s-.13-1.616-.453-2.327c-.323-.711-.775-1.293-1.293-1.81-.518-.518-1.164-.905-1.875-1.229-.711-.259-1.486-.453-2.262-.453s-1.553.129-2.264.453c-.711.259-1.357.711-1.875 1.229a7.152 7.152 0 0 0-1.293 1.81c-.322.711-.451 1.487-.451 2.327s.129 1.616.451 2.327c.324.711.777 1.293 1.293 1.81zm1.875-21.851c1.357 0 2.457-.452 3.427-1.422.905-.97 1.422-2.069 1.422-3.491 0-1.422-.452-2.521-1.357-3.491s-2.004-1.422-3.361-1.422c-1.358 0-2.457.453-3.427 1.422-.904.905-1.357 2.069-1.357 3.426 0 1.422.453 2.586 1.422 3.491.905 1.035 2.003 1.487 3.231 1.487zm-13.575 61.091c0-.258.129-.452.258-.646-.064-.064-.064-.193-.129-.322-.064-.324-.064-.582 0-.841-.129.064-.258.064-.452.064h-.065l.129 4.331c.259-.452.582-1.099.776-1.681-.259-.13-.517-.516-.517-.905zm-4.073-4.331zm4.267-1.616c.129.582-.129 1.229-.517 1.746h.064c.129 0 .259.064.323.064.259-.324.517-.776.388-1.617 0-.129 0-.258-.064-.387a1.286 1.286 0 0 1-.711-.711c-.065 0-.065.064-.129.064-.259.064-.388.129-.646-.064l-.129.451c.645-.128 1.291-.193 1.421.454zm-2.909 6.917c-.129.194-.323.388-.517.388-.323.064-.517-.129-.582-.388-.129.065-.258.194-.388.194.064.258.129.582.194.904.194-.193.453-.258.711-.258h.065c.194-.323.646-.582 1.099-.582.194 0 .323.064.452.064.065-.129.129-.258.129-.388-.194.13-.388.194-.646.194-.065.066-.323.002-.517-.128zm-11.637-44.347c0 .84.129 1.616.453 2.327.323.711.775 1.293 1.292 1.81.518.517 1.164.905 1.875 1.229.711.258 1.487.452 2.263.452s1.551-.129 2.263-.452c.711-.259 1.357-.711 1.875-1.229s.97-1.164 1.293-1.81c.323-.711.453-1.487.453-2.327s-.129-1.616-.453-2.327c-.323-.711-.776-1.293-1.293-1.81-.517-.518-1.164-.905-1.875-1.229-.711-.259-1.487-.453-2.263-.453s-1.552.129-2.263.453c-.711.259-1.357.711-1.875 1.229a7.099 7.099 0 0 0-1.292 1.81c-.324.71-.453 1.486-.453 2.327zm13.382 41.373c-.065 0-.065 0 0 0l-.323.646c.194.064.194.129.258.323v.13l.194.193a2.437 2.437 0 0 0 0-.97c-.064.067-.129-.129-.129-.322zm33.422 12.607zm-9.955 10.731c-.324.064-.582 0-.518-.453 0-.064 0-.129-.064-.193 0-.064-.064-.064-.129-.064h-.194c-.064 0-.064 0-.13.064-.193.129 0 .258.065.388.129.194.323.323-.065.388-.064 0 .065.129.13.193.13.13.388.13.323.389.388.064.582.518.97.518.323-.519-.195-.778-.388-1.23zm-35.427-9.244c-1.681-1.293-7.434-5.625-7.434-5.625s-.388-.193-1.034-2.004c-.582-1.811-1.552-3.879-1.164-5.689.388-1.81-.129-.84-.388-.064-.259.905 0 2.521.323 4.202s1.099 2.651 1.099 2.651-2.069-1.746-3.168-2.586c-1.034-.841-3.361-2.328-6.723-5.561-.064-.064-2.133-1.939-1.939-1.486.84 1.616 7.176 6.723 7.176 6.723s-.646.13-2.068.13c-2.909-.065-3.879-.841-4.849-1.164-.323-.129.258.388.388.452.905.518.97.776 2.457 1.1 1.487.388 4.202.193 4.461.129.258 0 .97.518 2.521 1.682 1.552 1.163 2.586 2.004 2.586 2.004s-1.681.646-3.491 1.034c-1.811.452-2.521.581-4.719.194-2.198-.389-.517.322.517.517s1.422.323 3.426.064 5.171-1.357 5.171-1.357 1.875 1.487 2.845 2.069c1.099.646 4.073 3.297 5.366 3.684.193.193-.583-.518-1.359-1.099zm35.427 9.244v-.064.064z"/></g></svg>