<svg xmlns="http://www.w3.org/2000/svg" width="425" height="425" viewBox="0 0 425 425"><g opacity=".1"><path fill="none" d="M268.183 180.137c-7.41-12.824-11.922-26.755-13.699-40.922-13.078 5.468-27.302 8.481-41.998 8.481-14.693 0-28.913-3.012-41.988-8.477-1.773 14.175-6.281 28.113-13.688 40.939-7.375 12.782-17.178 23.717-28.625 32.385 11.446 8.668 21.252 19.603 28.631 32.387 7.396 12.811 11.904 26.724 13.684 40.868 13.088-5.472 27.322-8.49 42.037-8.49 14.689 0 28.905 3.014 41.973 8.473 1.778-14.145 6.285-28.058 13.682-40.864 7.37-12.779 17.176-23.719 28.622-32.389-11.446-8.67-21.252-19.607-28.631-32.391z"/><path fill="#ED185E" d="M212.486 69.589c17.229 0 31.249-14.015 31.249-31.244 0-17.228-14.02-31.243-31.249-31.243-17.222 0-31.235 14.015-31.235 31.243-.001 17.229 14.013 31.244 31.235 31.244zm-41.988 69.631c13.075 5.465 27.295 8.477 41.988 8.477 14.696 0 28.92-3.014 41.998-8.481a110.179 110.179 0 0 1 5.472-50.41c-12.593 11.849-29.44 18.896-47.47 18.896-18.022 0-34.874-7.052-47.465-18.905a110.23 110.23 0 0 1 5.477 50.423z"/><path fill="#F7941E" d="M46.493 152.535a31.195 31.195 0 0 0 15.587 4.192c11.142 0 21.523-5.985 27.086-15.625 4.174-7.228 5.285-15.649 3.125-23.71-2.16-8.063-7.33-14.798-14.556-18.965a31.216 31.216 0 0 0-15.591-4.196c-11.144 0-21.523 5.99-27.089 15.631-4.174 7.228-5.278 15.642-3.12 23.706 2.162 8.058 7.33 14.795 14.558 18.967zm110.316 27.624c7.408-12.827 11.915-26.764 13.688-40.939-15.778-6.597-29.831-16.832-41.001-29.816 4.034 16.885 1.727 35.083-7.326 50.759-9.035 15.651-23.826 26.931-40.815 31.849a110.011 110.011 0 0 1 46.829 20.532c11.447-8.668 21.251-19.603 28.625-32.385z"/><path fill="#FCCD0B" d="M62.08 268.353a31.266 31.266 0 0 0-15.587 4.191c-14.918 8.614-20.047 27.764-11.431 42.69 5.563 9.628 15.938 15.611 27.082 15.611a31.23 31.23 0 0 0 15.589-4.191c7.228-4.17 12.397-10.904 14.558-18.968 2.16-8.059 1.054-16.474-3.118-23.705-5.568-9.637-15.952-15.628-27.093-15.628zm108.42 17.446c-1.78-14.145-6.288-28.058-13.684-40.868-7.379-12.784-17.185-23.719-28.631-32.387a109.985 109.985 0 0 1-46.832 20.522c16.989 4.921 31.785 16.212 40.831 31.876 9.03 15.638 11.339 33.801 7.332 50.661 11.164-12.975 25.213-23.207 40.984-29.804z"/><path fill="#8DC63F" d="M212.513 355.414c-17.229 0-31.247 14.015-31.247 31.244s14.018 31.24 31.247 31.24c17.22 0 31.241-14.011 31.241-31.24s-14.021-31.244-31.241-31.244zm41.997-69.633c-13.068-5.459-27.284-8.473-41.973-8.473-14.715 0-28.949 3.019-42.037 8.49a110.168 110.168 0 0 1-5.432 50.39c12.591-11.842 29.434-18.887 47.458-18.887 17.989 0 34.818 7.036 47.407 18.865-5.694-16.148-7.565-33.422-5.423-50.385z"/><path fill="#00AEEF" d="M268.192 244.917c-7.396 12.807-11.903 26.72-13.682 40.864 15.762 6.588 29.805 16.812 40.966 29.773-3.991-16.852-1.68-35.01 7.353-50.647 9.032-15.656 23.826-26.929 40.82-31.85a109.975 109.975 0 0 1-46.834-20.529c-11.447 8.67-21.253 19.61-28.623 32.389zm110.306 27.618a31.24 31.24 0 0 0-15.58-4.188c-11.148 0-21.523 5.987-27.09 15.62-4.178 7.232-5.279 15.655-3.125 23.715 2.166 8.059 7.33 14.797 14.559 18.967a31.222 31.222 0 0 0 15.59 4.191h.004c11.143 0 21.523-5.987 27.084-15.624 4.174-7.228 5.281-15.646 3.125-23.71-2.167-8.059-7.335-14.793-14.567-18.971z"/><path fill="#8151A1" d="M362.912 156.718h.006a31.22 31.22 0 0 0 15.58-4.192c7.232-4.174 12.4-10.911 14.566-18.972 2.156-8.057 1.049-16.476-3.129-23.704-5.566-9.642-15.941-15.627-27.09-15.627a31.245 31.245 0 0 0-15.584 4.19c-7.229 4.176-12.393 10.911-14.562 18.969-2.156 8.062-1.049 16.476 3.121 23.699 5.565 9.645 15.95 15.637 27.092 15.637zm-108.428-17.503c1.777 14.167 6.289 28.098 13.699 40.922 7.379 12.784 17.185 23.721 28.631 32.392a109.942 109.942 0 0 1 46.821-20.525c-16.99-4.921-31.783-16.211-40.824-31.872-9.046-15.66-11.354-33.854-7.317-50.739-11.17 12.988-25.226 23.223-41.01 29.822z"/><path fill="#D11F3D" d="M108.944 73.438c.269.803.512 1.647.798 2.434 4.57 12.509 11.364 23.777 19.754 33.532 11.17 12.984 25.224 23.219 41.001 29.816a110.23 110.23 0 0 0-5.477-50.423c-4.247-12.008-10.552-23.399-19.002-33.512-.556-.662-1.176-1.305-1.753-1.958-1.672-2.809-3.928-5.172-6.621-6.883-.263-.251-.484-.496-.751-.747a20.57 20.57 0 0 0-9.744-2.472c-.093 0-.185.018-.275.02-.084-.002-.169-.02-.253-.02-.371 0-.716.089-1.083.109-.496.027-.987.084-1.471.147-9.961 1.251-17.77 9.555-18.042 19.787.195.827.433 1.618.642 2.434a20.59 20.59 0 0 0 2.277 7.736z"/><path fill="#F58020" d="M81.355 192.012c-6.336-1.145-12.804-1.785-19.361-1.785-6.263 0-12.56.544-18.716 1.618-.355.062-.736.16-1.094.229a20.461 20.461 0 0 0-11.168 2.709c-.205.06-.402.103-.607.165-2.852 1.76-5.049 4.163-6.688 6.868-.1.16-.225.309-.32.476-.064.106-.091.22-.151.329a21 21 0 0 0-1.236 2.733c-.145.398-.3.789-.422 1.196-.238.771-.396 1.554-.54 2.34-.1.547-.202 1.089-.256 1.645-.068.685-.071 1.369-.068 2.053.002.641.002 1.28.064 1.921.058.602.171 1.193.282 1.787.135.729.282 1.457.498 2.178.142.462.322.911.491 1.367.327.854.689 1.695 1.138 2.518.075.138.111.289.193.427.129.231.298.427.44.649 1.638 2.64 3.818 4.987 6.632 6.712.182.054.366.093.553.151a20.648 20.648 0 0 0 11.117 2.697c.36.071.731.165 1.089.228a108.85 108.85 0 0 0 18.774 1.631c6.552 0 13.018-.64 19.352-1.787a110.008 110.008 0 0 0 46.832-20.522 109.974 109.974 0 0 0-46.828-20.533z"/><path fill="#BBD532" d="M129.516 315.604c-8.384 9.743-15.171 20.994-19.745 33.489-.302.822-.562 1.721-.849 2.583-1.265 2.4-2 5.005-2.25 7.658-.211.827-.449 1.614-.645 2.454.287 10.006 7.792 18.185 17.46 19.679 1.203.218 2.42.369 3.665.369h.002c3.4 0 6.77-.858 9.777-2.485.349-.329.663-.667 1.004-.996a20.502 20.502 0 0 0 6.234-6.498c.6-.676 1.243-1.343 1.813-2.027 8.497-10.148 14.827-21.585 19.083-33.641a110.168 110.168 0 0 0 5.432-50.39c-15.768 6.597-29.817 16.829-40.981 29.805z"/><path fill="#1FB686" d="M316.132 351.773c-.293-.88-.556-1.787-.866-2.641-4.579-12.53-11.384-23.808-19.79-33.578-11.161-12.962-25.204-23.186-40.966-29.773-2.143 16.963-.271 34.236 5.423 50.386 4.245 12.05 10.562 23.475 19.043 33.618.587.702 1.258 1.396 1.876 2.098a20.657 20.657 0 0 0 6.183 6.433c.365.351.693.706 1.067 1.058 3 1.622 6.352 2.476 9.743 2.476 1.267 0 2.512-.16 3.743-.387 9.654-1.524 17.127-9.712 17.389-19.728-.199-.871-.448-1.702-.671-2.556-.262-2.561-.969-5.076-2.174-7.406z"/><path fill="#B91E6A" d="M295.494 109.393c8.38-9.743 15.167-20.992 19.736-33.48.285-.789.534-1.638.81-2.451a20.778 20.778 0 0 0 2.293-7.792c.205-.825.445-1.614.641-2.454-.293-10.237-8.152-18.538-18.141-19.745a18.324 18.324 0 0 0-1.071-.104c-.462-.033-.907-.14-1.378-.14-.111 0-.213.022-.329.024-.071 0-.133-.013-.204-.013-3.409 0-6.783.862-9.793 2.496-.253.238-.484.484-.733.729-2.676 1.702-4.921 4.054-6.587 6.845-.569.647-1.183 1.287-1.726 1.934-8.481 10.128-14.802 21.539-19.056 33.565a110.178 110.178 0 0 0-5.472 50.41c15.784-6.601 29.84-16.836 41.01-29.824z"/><path fill="#384CA0" d="M404.203 210.577c-.053-.604-.174-1.202-.283-1.802-.135-.729-.281-1.458-.504-2.181-.133-.453-.311-.891-.475-1.333a20.792 20.792 0 0 0-1.164-2.574c-.072-.126-.107-.267-.18-.393-.123-.211-.275-.396-.404-.6-1.639-2.663-3.83-5.03-6.662-6.761-.188-.056-.365-.095-.551-.151-3.344-1.916-7.189-2.894-11.123-2.707-.363-.069-.736-.165-1.094-.229a109.107 109.107 0 0 0-18.775-1.629c-6.553 0-13.02.643-19.354 1.787a109.942 109.942 0 0 0-46.821 20.525c13.691 10.372 29.743 17.44 46.834 20.529 6.334 1.143 12.797 1.783 19.35 1.783 6.258 0 12.561-.543 18.713-1.618.348-.058.711-.151 1.059-.218a20.5 20.5 0 0 0 11.246-2.729c.195-.058.373-.094.568-.155 2.871-1.766 5.076-4.188 6.717-6.908.094-.146.205-.275.293-.427.055-.098.08-.204.133-.298.512-.916.916-1.862 1.277-2.818.133-.366.275-.729.391-1.104a19.74 19.74 0 0 0 .561-2.434c.088-.521.191-1.033.244-1.561.07-.708.076-1.416.07-2.12-.003-.625-.003-1.247-.066-1.874z"/></g></svg>