<svg xmlns="http://www.w3.org/2000/svg" width="300" height="110" viewBox="0 0 300 110"><path d="M162.787 58.602c0 2.623-.609 5.217-1.832 7.779a18.497 18.497 0 0 1-5.133 6.512c-2.414 1.932-5.224 3.439-8.435 4.523-3.212 1.086-7.08 1.629-11.604 1.629-4.854 0-9.22-.451-13.094-1.357-3.875-.904-7.818-2.246-11.828-4.025V62.445h.633c3.407 2.834 7.344 5.02 11.807 6.559 4.461 1.537 8.652 2.307 12.573 2.307 5.549 0 9.868-1.039 12.96-3.121 3.089-2.08 4.634-4.855 4.634-8.322 0-2.984-.73-5.186-2.192-6.604-1.463-1.418-3.686-2.518-6.672-3.302-2.262-.603-4.711-1.101-7.35-1.493a157.708 157.708 0 0 1-8.391-1.492c-5.971-1.266-10.396-3.43-13.275-6.49s-4.32-7.049-4.32-11.964c0-5.639 2.382-10.26 7.146-13.863 4.766-3.603 10.811-5.405 18.139-5.405 4.734 0 9.076.452 13.026 1.357 3.949.904 7.447 2.02 10.492 3.347v10.584h-.633c-2.562-2.171-5.934-3.973-10.108-5.405a39.272 39.272 0 0 0-12.822-2.148c-4.795 0-8.647.995-11.557 2.985-2.91 1.989-4.365 4.554-4.365 7.689 0 2.804.724 5.005 2.171 6.604s3.996 2.82 7.644 3.664c1.931.423 4.675.935 8.232 1.538s6.574 1.221 9.047 1.854c5.005 1.328 8.774 3.333 11.308 6.017s3.799 6.435 3.799 11.261zm66.4 14.337a159.8 159.8 0 0 0-4.502 2.035c-1.342.633-3.1 1.297-5.27 1.99a54.337 54.337 0 0 1-5.994 1.471c-2.154.406-4.529.609-7.123.609-4.885 0-9.324-.686-13.318-2.057-3.998-1.373-7.473-3.521-10.428-6.447-2.895-2.863-5.156-6.504-6.785-10.922-1.627-4.418-2.441-9.551-2.441-15.402 0-5.548.785-10.509 2.352-14.882 1.568-4.371 3.828-8.065 6.785-11.081 2.863-2.925 6.324-5.157 10.379-6.694 4.057-1.538 8.557-2.307 13.504-2.307 3.617 0 7.227.438 10.832 1.312 3.604.875 7.605 2.413 12.01 4.614v10.629h-.68c-3.709-3.105-7.389-5.367-11.037-6.785-3.648-1.417-7.555-2.126-11.715-2.126-3.408 0-6.475.551-9.205 1.651-2.729 1.102-5.162 2.812-7.303 5.134-2.082 2.261-3.703 5.118-4.865 8.571-1.158 3.453-1.738 7.44-1.738 11.964 0 4.734.639 8.805 1.92 12.212 1.281 3.408 2.934 6.182 4.953 8.322 2.111 2.232 4.578 3.883 7.396 4.953s5.797 1.605 8.934 1.605c4.311 0 8.352-.738 12.121-2.217 3.77-1.477 7.297-3.693 10.586-6.648h.633v10.496zm61.605-14.337c0 2.623-.611 5.217-1.832 7.779a18.525 18.525 0 0 1-5.135 6.512c-2.412 1.932-5.225 3.439-8.436 4.523-3.211 1.086-7.08 1.629-11.604 1.629-4.854 0-9.219-.451-13.092-1.357-3.877-.904-7.82-2.246-11.83-4.025V62.445h.633c3.408 2.834 7.344 5.02 11.807 6.559 4.463 1.537 8.654 2.307 12.574 2.307 5.547 0 9.867-1.039 12.959-3.121 3.09-2.08 4.635-4.855 4.635-8.322 0-2.984-.73-5.186-2.193-6.604s-3.684-2.518-6.67-3.302c-2.262-.603-4.713-1.101-7.35-1.493a157.766 157.766 0 0 1-8.393-1.492c-5.969-1.266-10.395-3.43-13.275-6.49-2.879-3.061-4.32-7.049-4.32-11.964 0-5.639 2.383-10.26 7.146-13.863 4.766-3.603 10.812-5.405 18.141-5.405 4.732 0 9.076.452 13.025 1.357 3.951.904 7.447 2.02 10.492 3.347v10.584h-.633c-2.562-2.171-5.934-3.973-10.109-5.405a39.263 39.263 0 0 0-12.822-2.148c-4.795 0-8.646.995-11.555 2.985-2.91 1.989-4.367 4.554-4.367 7.689 0 2.804.723 5.005 2.172 6.604 1.447 1.599 3.996 2.82 7.643 3.664 1.932.423 4.676.935 8.234 1.538 3.557.604 6.572 1.221 9.045 1.854 5.006 1.328 8.775 3.333 11.309 6.017s3.801 6.435 3.801 11.261zM10.77 108.424v-1.367c.156.139.344.262.562.373s.449.203.69.279c.242.076.485.135.729.176s.469.062.677.062c.713 0 1.246-.133 1.598-.396.352-.266.528-.646.528-1.145 0-.266-.059-.498-.176-.695a1.966 1.966 0 0 0-.486-.541c-.208-.164-.452-.32-.735-.471s-.588-.307-.915-.473a16.37 16.37 0 0 1-.967-.531 4.276 4.276 0 0 1-.78-.594c-.221-.217-.395-.463-.521-.736s-.19-.594-.19-.963c0-.451.099-.844.297-1.176.198-.334.458-.609.78-.826a3.545 3.545 0 0 1 1.101-.484 5.142 5.142 0 0 1 1.26-.158c.976 0 1.687.117 2.133.354v1.305c-.584-.406-1.334-.609-2.251-.609-.253 0-.506.027-.759.08-.253.053-.479.141-.677.26s-.359.273-.483.463a1.22 1.22 0 0 0-.187.689c0 .254.047.473.142.656.094.184.233.352.417.504.184.152.409.299.673.441.265.143.569.301.915.469.355.176.69.359 1.008.555.317.191.596.406.835.641.239.234.429.494.569.781.141.285.211.611.211.98 0 .486-.096.9-.287 1.238s-.449.613-.773.824a3.376 3.376 0 0 1-1.122.459 6.05 6.05 0 0 1-1.34.143 7.647 7.647 0 0 1-1.285-.148 5.965 5.965 0 0 1-.68-.18 2.186 2.186 0 0 1-.511-.239zm18.584-.014c-.732.387-1.643.58-2.734.58-1.409 0-2.536-.453-3.383-1.359-.847-.908-1.271-2.098-1.271-3.57 0-1.582.477-2.863 1.429-3.838.953-.977 2.161-1.465 3.625-1.465.938 0 1.717.137 2.333.408v1.236a4.73 4.73 0 0 0-2.348-.596c-1.136 0-2.058.381-2.765 1.141s-1.06 1.773-1.06 3.045c0 1.205.33 2.166.99 2.883.661.715 1.527 1.072 2.6 1.072.994 0 1.854-.221 2.582-.662v1.125zm13.331.414h-1.16v-4.516h-5.123v4.516h-1.16v-9.9h1.16v4.344h5.123v-4.344h1.16v9.9zm10.46.166c-1.404 0-2.528-.463-3.373-1.389-.844-.924-1.267-2.129-1.267-3.609 0-1.594.431-2.863 1.291-3.812.861-.947 2.032-1.422 3.514-1.422 1.367 0 2.468.461 3.304 1.381.835.922 1.252 2.125 1.252 3.611 0 1.615-.428 2.893-1.284 3.832-.855.938-2.001 1.408-3.437 1.408zm.083-9.183c-1.041 0-1.885.377-2.534 1.127s-.973 1.734-.973 2.953c0 1.221.316 2.201.949 2.945.632.744 1.458 1.115 2.475 1.115 1.086 0 1.942-.355 2.568-1.062.625-.709.939-1.701.939-2.977 0-1.307-.304-2.316-.912-3.031-.607-.713-1.445-1.07-2.512-1.07zm14.449 9.183c-1.404 0-2.528-.463-3.373-1.389-.844-.924-1.267-2.129-1.267-3.609 0-1.594.431-2.863 1.291-3.812.861-.947 2.032-1.422 3.514-1.422 1.367 0 2.468.461 3.304 1.381.834.922 1.252 2.125 1.252 3.611 0 1.615-.428 2.893-1.284 3.832-.855.938-2.001 1.408-3.437 1.408zm.083-9.183c-1.041 0-1.885.377-2.534 1.127s-.973 1.734-.973 2.953c0 1.221.316 2.201.949 2.945.632.744 1.458 1.115 2.475 1.115 1.086 0 1.942-.355 2.568-1.062.625-.709.939-1.701.939-2.977 0-1.307-.304-2.316-.912-3.031-.607-.713-1.444-1.07-2.512-1.07zm15.595 9.017h-5.136v-9.9h1.16v8.852h3.976v1.048zm19.876-.414c-.732.387-1.644.58-2.734.58-1.408 0-2.536-.453-3.383-1.359-.848-.908-1.27-2.098-1.27-3.57 0-1.582.476-2.863 1.429-3.838.952-.977 2.16-1.465 3.624-1.465.938 0 1.717.137 2.334.408v1.236a4.735 4.735 0 0 0-2.348-.596c-1.137 0-2.059.381-2.766 1.141-.706.76-1.059 1.773-1.059 3.045 0 1.205.33 2.166.99 2.883.66.715 1.527 1.072 2.6 1.072.994 0 1.854-.221 2.582-.662v1.125zm11.025.414h-5.137v-9.9h1.16v8.852h3.977v1.048zm6.551 0h-1.159v-9.9h1.159v9.9zm15.465 0h-1.152v-6.643c0-.262.007-.559.023-.893.016-.334.04-.691.072-1.074h-.027a2.437 2.437 0 0 1-.125.369 5.48 5.48 0 0 1-.176.395c-.062.125-.119.24-.172.342s-.092.178-.114.227l-2.54 4.695h-.566l-2.541-4.682a2.47 2.47 0 0 0-.117-.236 6.87 6.87 0 0 1-.342-.737 2.67 2.67 0 0 1-.121-.373h-.027c.018.197.032.465.041.801.01.336.014.73.014 1.182v6.627h-1.117v-9.9h1.449l2.568 4.709c.109.207.205.4.283.58s.135.336.172.469h.041c.047-.139.107-.299.184-.482s.174-.383.293-.594l2.562-4.682h1.437v9.9zm14.132 0h-1.284l-1.05-2.775h-4.197l-.987 2.775h-1.291l3.797-9.9h1.201l3.811 9.9zm-2.714-3.818l-1.553-4.219a3.865 3.865 0 0 1-.152-.662h-.027c-.046.281-.1.502-.159.662l-1.539 4.219h3.43zm13.897-5.033h-2.859v8.852h-1.16v-8.852h-2.85v-1.049h6.869v1.049zm10.672 8.851h-5.246v-9.9h5.025v1.049h-3.865v3.295h3.574v1.041h-3.574v3.467h4.086v1.048zm13.063-.4v-1.367c.154.139.342.262.562.373.219.111.449.203.689.279.242.076.484.135.729.176s.469.062.678.062c.713 0 1.246-.133 1.598-.396.352-.266.527-.646.527-1.145 0-.266-.059-.498-.176-.695s-.279-.379-.486-.541c-.209-.164-.451-.32-.734-.471s-.59-.307-.918-.473a16.62 16.62 0 0 1-.965-.531 4.32 4.32 0 0 1-.781-.594 2.502 2.502 0 0 1-.52-.736c-.129-.273-.189-.594-.189-.963 0-.451.1-.844.295-1.176.197-.334.459-.609.781-.826s.689-.377 1.102-.484c.41-.104.832-.158 1.258-.158.977 0 1.689.117 2.135.354v1.305c-.584-.406-1.336-.609-2.252-.609-.252 0-.504.027-.758.08a2.163 2.163 0 0 0-.676.26 1.46 1.46 0 0 0-.484.463 1.219 1.219 0 0 0-.186.689c0 .254.047.473.141.656s.232.352.418.504c.184.152.408.299.674.441.264.143.568.301.914.469.354.176.689.359 1.006.555.32.191.598.406.838.641.238.234.43.494.568.781.143.285.211.611.211.98 0 .486-.096.9-.287 1.238a2.343 2.343 0 0 1-.771.824 3.406 3.406 0 0 1-1.121.459 6.069 6.069 0 0 1-1.34.143 7.544 7.544 0 0 1-1.285-.148 5.965 5.965 0 0 1-.68-.18 2.13 2.13 0 0 1-.515-.239zm15.834.566c-1.402 0-2.527-.463-3.371-1.389-.844-.924-1.268-2.129-1.268-3.609 0-1.594.43-2.863 1.291-3.812.861-.947 2.031-1.422 3.514-1.422 1.369 0 2.469.461 3.305 1.381.834.922 1.254 2.125 1.254 3.611 0 1.615-.43 2.893-1.285 3.832-.856.938-2.003 1.408-3.44 1.408zm.086-9.183c-1.041 0-1.887.377-2.535 1.127s-.975 1.734-.975 2.953c0 1.221.318 2.201.951 2.945s1.457 1.115 2.473 1.115c1.088 0 1.943-.355 2.57-1.062.625-.709.938-1.701.938-2.977 0-1.307-.303-2.316-.91-3.031-.608-.713-1.446-1.07-2.512-1.07zm15.593 9.017H211.7v-9.9h1.16v8.852h3.975v1.048zm12.635-4.004c0 2.779-1.256 4.17-3.764 4.17-2.402 0-3.602-1.338-3.602-4.012v-6.055h1.158v5.979c0 2.031.855 3.045 2.568 3.045 1.652 0 2.479-.98 2.479-2.941v-6.082h1.16v5.896zm12.199-4.847h-2.859v8.852h-1.16v-8.852h-2.852v-1.049h6.871v1.049zm6.586 8.851h-1.16v-9.9h1.16v9.9zm10.465.166c-1.404 0-2.529-.463-3.371-1.389-.846-.924-1.27-2.129-1.27-3.609 0-1.594.432-2.863 1.293-3.812.861-.947 2.031-1.422 3.514-1.422 1.367 0 2.469.461 3.303 1.381.836.922 1.252 2.125 1.252 3.611 0 1.615-.426 2.893-1.283 3.832-.856.938-2 1.408-3.438 1.408zm.082-9.183c-1.039 0-1.883.377-2.533 1.127-.648.75-.975 1.734-.975 2.953 0 1.221.316 2.201.949 2.945.635.744 1.459 1.115 2.477 1.115 1.086 0 1.941-.355 2.568-1.062.627-.709.938-1.701.938-2.977 0-1.307-.303-2.316-.908-3.031-.61-.713-1.445-1.07-2.516-1.07zm18.442 9.017h-1.424l-5.094-7.891a3.187 3.187 0 0 1-.316-.621h-.043c.035.211.055.664.055 1.359v7.152h-1.158v-9.9h1.504l4.955 7.768c.209.32.342.543.4.662h.029c-.047-.285-.068-.77-.068-1.457v-6.973h1.16v9.901zm6.006-.4v-1.367c.154.139.344.262.562.373s.449.203.689.279c.242.076.486.135.729.176.244.041.469.062.678.062.713 0 1.246-.133 1.598-.396.352-.266.527-.646.527-1.145 0-.266-.059-.498-.176-.695s-.279-.379-.486-.541c-.209-.164-.451-.32-.734-.471s-.59-.307-.916-.473a15.985 15.985 0 0 1-.965-.531 4.25 4.25 0 0 1-.781-.594c-.223-.217-.395-.463-.521-.736s-.189-.594-.189-.963c0-.451.1-.844.297-1.176.197-.334.457-.609.781-.826.32-.217.688-.377 1.1-.484a5.13 5.13 0 0 1 1.26-.158c.975 0 1.688.117 2.133.354v1.305c-.584-.406-1.334-.609-2.25-.609-.254 0-.506.027-.76.08a2.163 2.163 0 0 0-.676.26 1.479 1.479 0 0 0-.484.463 1.235 1.235 0 0 0-.186.689c0 .254.047.473.141.656s.232.352.42.504c.184.152.406.299.672.441.264.143.568.301.914.469.354.176.691.359 1.008.555.318.191.598.406.836.641s.43.494.568.781c.143.285.211.611.211.98 0 .486-.096.9-.285 1.238-.191.338-.449.613-.773.824s-.699.365-1.121.459a6.069 6.069 0 0 1-1.34.143 7.544 7.544 0 0 1-1.285-.148 5.965 5.965 0 0 1-.68-.18 2.085 2.085 0 0 1-.516-.239z" fill="#0B1332"/><path fill="none" d="M63.571 39.025a23.887 23.887 0 0 1-3.009-8.99 23.905 23.905 0 0 1-9.227 1.863c-3.228 0-6.352-.662-9.225-1.862a23.896 23.896 0 0 1-3.007 8.994 23.93 23.93 0 0 1-6.289 7.115 23.935 23.935 0 0 1 6.29 7.115 23.9 23.9 0 0 1 3.006 8.979 23.92 23.92 0 0 1 9.235-1.865c3.227 0 6.35.662 9.221 1.861a23.907 23.907 0 0 1 3.006-8.978 23.934 23.934 0 0 1 6.289-7.116 23.98 23.98 0 0 1-6.29-7.116z"/><path fill="#ED185E" d="M51.335 14.738A6.872 6.872 0 0 0 58.2 7.874c0-3.785-3.08-6.864-6.865-6.864-3.784 0-6.862 3.079-6.862 6.864 0 3.785 3.079 6.864 6.862 6.864zm-9.224 15.298a23.898 23.898 0 0 0 9.225 1.862c3.229 0 6.354-.662 9.227-1.863a24.19 24.19 0 0 1 1.202-11.075 15.216 15.216 0 0 1-10.429 4.151 15.216 15.216 0 0 1-10.428-4.153 24.215 24.215 0 0 1 1.203 11.078z"/><path fill="#F7941E" d="M14.868 32.961a6.854 6.854 0 0 0 3.424.921 6.888 6.888 0 0 0 5.951-3.433 6.822 6.822 0 0 0 .687-5.209 6.816 6.816 0 0 0-3.198-4.167 6.858 6.858 0 0 0-3.425-.922 6.889 6.889 0 0 0-5.951 3.434 6.819 6.819 0 0 0-.686 5.208 6.82 6.82 0 0 0 3.198 4.168zm24.236 6.069a23.878 23.878 0 0 0 3.007-8.994 24.227 24.227 0 0 1-9.008-6.55 15.218 15.218 0 0 1-1.609 11.151c-1.985 3.438-5.234 5.917-8.967 6.997a24.164 24.164 0 0 1 10.288 4.511 23.944 23.944 0 0 0 6.289-7.115z"/><path fill="#FCCD0B" d="M18.292 58.405a6.861 6.861 0 0 0-3.424.921c-3.277 1.893-4.404 6.1-2.511 9.379a6.889 6.889 0 0 0 5.95 3.43 6.857 6.857 0 0 0 3.425-.921 6.813 6.813 0 0 0 3.198-4.167 6.82 6.82 0 0 0-.685-5.208 6.897 6.897 0 0 0-5.953-3.434zm23.819 3.833a23.9 23.9 0 0 0-3.006-8.979 23.935 23.935 0 0 0-6.29-7.115 24.16 24.16 0 0 1-10.289 4.509c3.732 1.082 6.983 3.561 8.97 7.003a15.212 15.212 0 0 1 1.611 11.13 24.241 24.241 0 0 1 9.004-6.548z"/><path fill="#8DC63F" d="M51.341 77.532c-3.785 0-6.865 3.079-6.865 6.864s3.08 6.863 6.865 6.863c3.784 0 6.863-3.078 6.863-6.863s-3.079-6.864-6.863-6.864zm9.226-15.298a23.91 23.91 0 0 0-9.221-1.861c-3.233 0-6.36.663-9.235 1.865a24.205 24.205 0 0 1-1.193 11.07 15.215 15.215 0 0 1 10.426-4.149c3.953 0 7.649 1.546 10.415 4.145a24.22 24.22 0 0 1-1.192-11.07z"/><path fill="#00AEEF" d="M63.573 53.257a23.896 23.896 0 0 0-3.006 8.978 24.218 24.218 0 0 1 9.001 6.541 15.217 15.217 0 0 1 1.615-11.127c1.984-3.439 5.234-5.917 8.967-6.997a24.155 24.155 0 0 1-10.289-4.51 23.929 23.929 0 0 0-6.288 7.115zm24.234 6.067a6.86 6.86 0 0 0-3.423-.92 6.888 6.888 0 0 0-5.951 3.432 6.825 6.825 0 0 0-.687 5.21 6.814 6.814 0 0 0 3.199 4.167 6.85 6.85 0 0 0 3.424.921 6.887 6.887 0 0 0 5.951-3.433 6.822 6.822 0 0 0 .686-5.209 6.82 6.82 0 0 0-3.199-4.168z"/><path fill="#8151A1" d="M84.383 33.88c1.197 0 2.38-.318 3.424-.921a6.82 6.82 0 0 0 3.2-4.168c.474-1.77.23-3.62-.688-5.208a6.887 6.887 0 0 0-5.951-3.433 6.864 6.864 0 0 0-3.423.92 6.823 6.823 0 0 0-3.199 4.167 6.816 6.816 0 0 0 .686 5.207 6.889 6.889 0 0 0 5.951 3.436zm-23.821-3.845a23.87 23.87 0 0 0 3.009 8.99 23.956 23.956 0 0 0 6.291 7.116 24.153 24.153 0 0 1 10.286-4.509 15.263 15.263 0 0 1-8.969-7.002 15.204 15.204 0 0 1-1.607-11.147 24.223 24.223 0 0 1-9.01 6.552z"/><path fill="#D11F3D" d="M28.588 15.584c.059.176.112.362.175.535a23.852 23.852 0 0 0 4.34 7.367 24.216 24.216 0 0 0 9.008 6.55 24.218 24.218 0 0 0-1.203-11.078 23.84 23.84 0 0 0-4.175-7.362c-.122-.146-.258-.287-.385-.43a4.52 4.52 0 0 0-1.455-1.512c-.058-.055-.106-.109-.165-.164a4.52 4.52 0 0 0-2.141-.543c-.021 0-.041.004-.061.004-.019 0-.037-.004-.056-.004-.082 0-.157.02-.238.024a4.837 4.837 0 0 0-.323.032c-2.188.275-3.904 2.099-3.964 4.347.043.182.095.355.141.535.056.587.22 1.165.502 1.699z"/><path fill="#F58020" d="M22.527 41.634a23.954 23.954 0 0 0-4.253-.392c-1.376 0-2.759.12-4.112.355-.078.014-.162.035-.24.05a4.495 4.495 0 0 0-2.454.595c-.045.013-.088.022-.133.036a4.475 4.475 0 0 0-1.469 1.509c-.022.035-.049.068-.07.104-.014.023-.02.048-.033.072a4.47 4.47 0 0 0-.271.601c-.032.087-.066.173-.093.263a4.555 4.555 0 0 0-.119.514c-.022.12-.044.239-.056.361-.015.15-.016.301-.015.451 0 .141 0 .281.014.422.013.132.038.262.062.393.03.16.062.32.109.479.031.102.071.2.108.3.072.188.151.373.25.554.017.03.024.063.042.094.028.05.065.093.097.142.36.581.839 1.095 1.457 1.475.04.012.081.021.122.033.73.417 1.574.63 2.442.593.079.016.161.036.239.05 1.356.238 2.744.358 4.125.358 1.439 0 2.86-.141 4.251-.393a24.165 24.165 0 0 0 10.289-4.509 24.172 24.172 0 0 0-10.289-4.51z"/><path fill="#BBD532" d="M33.107 68.786a23.848 23.848 0 0 0-4.338 7.357c-.066.181-.124.378-.187.567a4.507 4.507 0 0 0-.494 1.683c-.046.182-.099.354-.142.539.063 2.198 1.712 3.995 3.836 4.323.264.048.532.081.805.081.747 0 1.487-.188 2.148-.546.077-.072.146-.146.221-.219a4.518 4.518 0 0 0 1.37-1.428c.132-.148.273-.295.398-.445a23.833 23.833 0 0 0 4.192-7.391 24.193 24.193 0 0 0 1.193-11.07 24.264 24.264 0 0 0-9.002 6.549z"/><path fill="#1FB686" d="M74.106 76.732c-.064-.193-.122-.393-.19-.58a23.888 23.888 0 0 0-4.347-7.377 24.218 24.218 0 0 0-9.001-6.541 24.215 24.215 0 0 0 1.191 11.069 23.831 23.831 0 0 0 4.185 7.386c.129.154.276.307.412.461.349.57.813 1.052 1.358 1.413.08.077.152.155.234.232a4.51 4.51 0 0 0 2.141.544c.279 0 .552-.035.822-.085 2.121-.335 3.763-2.134 3.82-4.334-.044-.191-.099-.374-.147-.562a4.547 4.547 0 0 0-.478-1.626z"/><path fill="#B91E6A" d="M69.572 23.483a23.857 23.857 0 0 0 4.336-7.355c.063-.173.117-.36.177-.539.284-.538.45-1.12.504-1.712.046-.181.098-.354.141-.539-.065-2.249-1.791-4.073-3.985-4.338a4.558 4.558 0 0 0-.235-.023c-.102-.007-.2-.031-.303-.031-.024 0-.047.005-.072.005-.016 0-.03-.003-.046-.003-.749 0-1.49.189-2.151.548-.056.052-.106.106-.161.16a4.519 4.519 0 0 0-1.447 1.504c-.125.142-.26.283-.379.425a23.83 23.83 0 0 0-4.186 7.374 24.204 24.204 0 0 0-1.202 11.075 24.214 24.214 0 0 0 9.009-6.551z"/><path fill="#384CA0" d="M93.455 45.712c-.012-.133-.038-.264-.062-.396-.03-.16-.062-.32-.111-.479-.029-.1-.068-.196-.104-.293a4.515 4.515 0 0 0-.255-.565c-.016-.028-.023-.059-.04-.086-.027-.046-.061-.087-.089-.132a4.447 4.447 0 0 0-1.464-1.485c-.04-.012-.08-.021-.121-.033a4.481 4.481 0 0 0-2.443-.595c-.08-.015-.162-.036-.241-.05a24.016 24.016 0 0 0-4.124-.358c-1.44 0-2.861.141-4.252.393a24.153 24.153 0 0 0-10.286 4.509 24.155 24.155 0 0 0 10.289 4.51 23.92 23.92 0 0 0 4.25.392c1.375 0 2.759-.12 4.112-.355.076-.013.155-.034.232-.048a4.492 4.492 0 0 0 2.471-.6c.042-.012.082-.021.125-.034a4.452 4.452 0 0 0 1.475-1.517c.021-.033.045-.061.064-.095.012-.021.018-.044.029-.065.112-.201.201-.409.28-.619.03-.081.062-.16.086-.243.055-.176.091-.355.123-.535.02-.114.042-.227.054-.343.016-.156.016-.311.016-.466-.001-.137-.001-.274-.014-.412z"/></svg>