<svg xmlns="http://www.w3.org/2000/svg" width="110" height="40" viewBox="45 0 110 40"><path fill="#B30838" d="M83.287 9.04c0-1.339-.315-1.969-1.34-1.969h-1.812c-.236 0-.315-.079-.315-.354V5.81c0-.236.08-.314.394-.314.394 0 2.285.118 6.065.118 3.31 0 5.201-.118 5.673-.118.237 0 .315.079.315.275v.985c0 .237-.078.315-.315.315h-1.655c-1.181 0-1.891.709-1.929 1.536-.04.472-.119 2.836-.119 5.121v4.884c0 1.97.039 4.766.119 6.026.117 1.812.433 3.624 1.378 4.884 1.339 1.812 3.466 2.442 5.357 2.442 1.812 0 4.018-.709 5.278-1.891 1.496-1.497 2.285-3.781 2.285-6.656v-7.091c0-3.151-.316-6.617-.434-7.523-.119-1.023-.749-1.732-1.615-1.732H99.2c-.237 0-.315-.119-.315-.276V5.81c0-.236.079-.314.315-.314.394 0 2.205.118 4.806.118 2.441 0 3.701-.118 4.016-.118.355 0 .395.118.395.314v.906c0 .236-.039.354-.236.354h-1.418c-1.418 0-1.576 1.103-1.652 1.536-.08.472-.08 5.987-.08 6.499 0 .552-.078 7.405-.236 8.981-.236 3.229-1.182 5.672-3.31 7.562-1.653 1.497-4.174 2.441-7.168 2.441-1.891 0-4.175-.315-5.671-.944-2.285-.945-3.86-2.758-4.648-5.279-.55-1.732-.708-4.332-.708-9.492V9.04zm26.234 15.677c.158 0 .234.079.234.315.08 1.26.395 2.757 1.498 4.489 1.182 1.892 3.23 2.837 5.199 2.837 2.127 0 5.121-1.34 5.121-4.609 0-3.623-1.654-4.806-5.83-6.381-1.26-.473-3.861-1.575-5.75-3.308-1.34-1.261-1.971-3.231-1.971-5.633 0-2.206.865-4.017 2.758-5.515 1.574-1.338 3.309-1.891 5.594-1.891 2.6 0 4.176.63 4.963.946.395.157.629.08.826-.118l.512-.512a.716.716 0 0 1 .551-.237c.238 0 .316.237.316.63 0 .63.631 6.145.631 6.539 0 .158-.078.236-.236.276l-.631.197c-.156.039-.314 0-.395-.237-.393-1.103-1.023-2.678-2.441-4.175-1.023-1.103-2.283-1.655-4.096-1.655-3.15 0-4.412 2.522-4.412 3.979 0 1.34.156 2.521 1.104 3.545 1.023 1.024 3.229 1.97 4.805 2.443 2.285.709 4.176 1.497 5.672 3.072 1.26 1.34 1.971 2.993 1.971 5.633 0 4.805-3.152 8.744-8.352 8.744-3.229 0-5.121-.709-6.695-1.891-.473-.315-.711-.474-.945-.474-.236 0-.395.316-.633.711-.234.394-.391.472-.707.472-.314 0-.473-.236-.473-.629.08-.474.631-6.854.709-7.327.039-.236.08-.315.236-.315l.867.079zm42.934 2.363c.119.118.158.236.078.393-2.363 3.389-6.145 6.618-11.736 6.618-5.043 0-7.879-1.495-10.32-3.702-2.914-2.601-4.254-7.169-4.254-10.635 0-3.86 1.26-7.563 4.018-10.557 2.127-2.285 5.514-4.175 10.24-4.175 3.625 0 6.539 1.103 7.957 1.89.553.316.709.316.787 0l.316-1.023c.078-.236.158-.236.629-.236.473 0 .553.078.553.63 0 .709.787 7.011.945 8.193.039.236 0 .354-.158.394l-.748.236c-.197.079-.314-.079-.434-.393-.473-1.418-1.418-3.387-3.072-5.12-1.734-1.655-3.781-2.915-6.854-2.915-6.303 0-8.902 5.672-8.902 11.343 0 2.443.709 7.091 3.623 10.243 2.6 2.756 4.885 3.071 6.775 3.071 4.334 0 7.762-2.167 9.414-4.569.197-.276.355-.394.473-.276l.67.59z"/><path fill="#231F20" d="M74.337 9.826l-.044-.793a27.551 27.551 0 0 0-.266-2.292l-.089-.533c-.05-.284-.106-.568-.169-.855l-.052-.24-.235.069c-.009.003-.388.11-1.028.217l-1.553.176a14.587 14.587 0 0 1-3.623-.203l-.545-.105-.028-.006c-.012-.003-.45-.095-1.115-.322l-.724-.271a13.204 13.204 0 0 1-2.436-1.275l-.711-.518a8.575 8.575 0 0 1-.395-.328l-.158-.136-.153.144a6.352 6.352 0 0 1-.374.314l-.726.522c-.594.394-1.42.867-2.448 1.283l-.725.271a15.56 15.56 0 0 1-1.133.338l-.629.137c-.74.136-1.536.209-2.38.209-.413 0-.808-.015-1.177-.042l-1.555-.18a12.853 12.853 0 0 1-1.002-.196l-.23-.059-.052.233c-.05.229-.092.458-.134.685l-.119.695a26.303 26.303 0 0 0-.256 2.244l-.046.798c-.016.389-.024.766-.026 1.128l.005.775c.044 2.177.303 3.678.324 3.798.024.185.484 3.69 2.226 7.916 1.638 3.966 4.772 9.397 10.415 12.82l.245.148.244-.148c5.635-3.438 8.753-8.877 10.379-12.847 1.732-4.23 2.185-7.738 2.206-7.922.022-.122.272-1.605.315-3.76l.005-.77a31.405 31.405 0 0 0-.028-1.119m-2.861 4.856h-.007c-.5.001-1.326.091-1.841.241l-.395.116c-.332.099-.68.201-1.025.293l.06.222-.06-.222c-.808.218-1.386.32-1.818.322h-.01a9.815 9.815 0 0 1-3.215-.554 7.66 7.66 0 0 0-1.238-.338 4.178 4.178 0 0 0-1.302-.031c-.541.07-1.038.23-1.453.375a9.896 9.896 0 0 1-3.222.561h-.003c-.641 0-1.532-.231-2.32-.457l-.062.223.062-.223c-.232-.065-.46-.132-.68-.196l-.237-.069c-.469-.137-1.244-.237-1.811-.237h-.009c-.77 0-1.456.179-2.137.534a20.745 20.745 0 0 1-.072-.498 4.609 4.609 0 0 1 2.209-.572h.008c.524 0 1.261.096 1.683.22l.918.266.064-.22-.063.22c.863.246 1.756.474 2.447.474h.003a10.293 10.293 0 0 0 3.373-.588c.394-.139.862-.289 1.354-.351l.452-.034h.028l.695.062c.43.073.846.208 1.16.319 1.368.476 2.584.577 3.367.577h.01c.471 0 1.067-.103 1.937-.336.363-.097.728-.205 1.076-.309l.355-.104c.415-.122 1.183-.223 1.711-.223h.004c.777 0 1.54.199 2.218.569-.027.206-.049.368-.066.483a4.704 4.704 0 0 0-2.148-.515m-23.012-2.937l7.747.584a5.388 5.388 0 0 0-.348 1.344c-.627-.024-1.455-.234-2.199-.445l-.917-.267c-.465-.135-1.243-.237-1.812-.237h-.008a5.67 5.67 0 0 0-2.391.551c-.034-.455-.06-.968-.072-1.53m12.74.964l-.001.034v-.034a4.7 4.7 0 0 0-.542.037c-.54.069-1.039.229-1.453.375a9.891 9.891 0 0 1-2.879.553 4.881 4.881 0 0 1 4.852-4.226h.005c2.443 0 4.513 1.826 4.856 4.211a9.883 9.883 0 0 1-2.84-.544 7.83 7.83 0 0 0-1.237-.338l-.004.01.001-.01a4.483 4.483 0 0 0-.758-.068m10.269.978h-.006c-.502 0-1.328.091-1.841.241l-.355.105c-.343.1-.705.208-1.064.305l.06.222-.06-.222c-.514.138-1.261.32-1.819.32h-.008a9.84 9.84 0 0 1-3.215-.553 8.239 8.239 0 0 0-1.24-.339 4.572 4.572 0 0 0-.76-.065c-.182 0-.359.012-.542.036-.538.068-1.036.228-1.452.375a9.894 9.894 0 0 1-3.222.562h-.003c-.636 0-1.529-.231-2.32-.456l-.917-.267c-.465-.135-1.241-.237-1.812-.237h-.009a5.058 5.058 0 0 0-2.263.547 22.407 22.407 0 0 1-.049-.494 5.14 5.14 0 0 1 2.351-.581h.007c.523 0 1.261.094 1.684.217l.92.268.063-.221-.062.221c.861.246 1.754.475 2.445.475h.005a10.35 10.35 0 0 0 3.372-.588c.392-.139.859-.288 1.354-.352l.486-.033.691.06c.431.075.845.21 1.158.319a10.28 10.28 0 0 0 3.365.58h.01c.473 0 1.071-.104 1.937-.336a40.49 40.49 0 0 0 1.069-.307l.364-.106c.418-.123 1.186-.223 1.712-.224h.003c.786 0 1.61.206 2.286.556-.016.188-.033.361-.049.52a5.055 5.055 0 0 0-2.274-.548m.031-.991c-.5.001-1.326.093-1.839.242l-.364.107c-.342.1-.701.208-1.059.303-.489.131-1.187.299-1.734.315a5.4 5.4 0 0 0-.353-1.33l7.745-.582a31.003 31.003 0 0 1-.066 1.473 5.914 5.914 0 0 0-2.33-.528m2.401-1.689l-7.871 1.053a5.79 5.79 0 0 0-.199-.373l8.044-1.761c.016.373.026.737.026 1.081m-.312-4.065c.117.763.197 1.508.245 2.218l-8.153 2.284a5.47 5.47 0 0 0-.47-.621l8.378-3.881zm-2.046-.958a13.905 13.905 0 0 0 1.822-.299c.03.147.054.291.083.438l-8.421 4.505a4.064 4.064 0 0 0-.266-.258l6.782-4.386zm-4.257-.14c.849.149 1.728.225 2.628.224.109 0 .211-.003.315-.006l-5.662 4.146a5.453 5.453 0 0 0-.73-.501l3.449-3.863zm-1.935-.495c.485.167.866.269 1.073.319l-2.895 3.871a4.831 4.831 0 0 0-.453-.196l2.275-3.994zm-2.992-1.45a13.57 13.57 0 0 0 2.305 1.192l-1.903 4.14a5.318 5.318 0 0 0-1.094-.22l.692-5.112zm-1.189-.873c.169.144.341.277.514.406l-.308 5.567c-.065-.002-.127-.01-.195-.01h-.005c-.067 0-.133.008-.2.01l-.308-5.574c.221-.166.392-.304.502-.399m-1.193.873l.693 5.114a5.395 5.395 0 0 0-1.111.227l-1.906-4.147a13.927 13.927 0 0 0 2.324-1.194m-3.008 1.454l2.274 3.995a5.456 5.456 0 0 0-.451.198L55.904 5.68c.374-.1.731-.21 1.069-.327m-4.375.736c.872 0 1.696-.074 2.463-.217l3.428 3.839c-.26.151-.504.322-.734.513l-5.66-4.143c.165.005.331.009.503.008m-3.618-.378c.324.07.963.194 1.789.282l6.791 4.393c-.092.083-.176.17-.26.259l-8.401-4.496c.028-.146.052-.292.081-.438m-.218 1.254l8.362 3.874a5.469 5.469 0 0 0-.441.583l-8.159-2.287c.047-.697.123-1.423.238-2.17m-.279 2.944l8.051 1.762c-.07.124-.136.249-.198.379l-7.88-1.052c.002-.349.012-.717.027-1.089m22.924 13.326c-1.601 3.905-4.666 9.251-10.193 12.619-5.536-3.352-8.616-8.692-10.228-12.592-1.482-3.595-2.025-6.647-2.162-7.542a4.099 4.099 0 0 1 2.067-.553h.008c.521 0 1.258.096 1.683.219l.234.068c.223.066.452.132.685.199.818.235 1.748.474 2.446.474h.003a10.278 10.278 0 0 0 3.374-.587c.392-.136.858-.286 1.356-.353l.453-.032h.025l.698.062c.424.072.824.2 1.158.318 1.366.478 2.583.579 3.367.579h.01c.473-.001 1.088-.108 1.937-.336.347-.093.699-.198 1.035-.297l.395-.117c.419-.12 1.187-.221 1.713-.223h.005c.742 0 1.423.182 2.077.535-.133.878-.664 3.944-2.146 7.559"/><path fill="#231F20" d="M67.916 19.951c.313-.193.646-.566.48-1.137-.003-.008-.397-.769-.204-1.376l.065-.206-.214.024c-.032.003-.323.053-.658.428a2.954 2.954 0 0 0-.898-.885l-.532-.315.345.513c.062.093.224.398.155.592-.038.107-.085.19-.14.266-.353-.357-.892-.504-.914-.509l-.277-.073.114.263c.155.356.032.604-.108.892-.105.213-.223.454-.221.75 0 .384.189.631.373.769a.65.65 0 0 0-.218.484.652.652 0 0 0 .343.568c.031.328.175.537.361.639l.195 4.24a.571.571 0 0 0-.447.552c0 .292.22.522.499.566l.082 1.77a.5.5 0 0 0 1 .006L67.18 27a.576.576 0 0 0 .521-.569.574.574 0 0 0-.47-.56l.195-4.238a.561.561 0 0 0 .162-.104c.128-.128.196-.314.21-.55.047-.027.098-.052.138-.092a.652.652 0 0 0-.02-.936m-.367-2.03c.118-.145.229-.237.319-.294-.069.644.265 1.284.271 1.293.159.55-.386.816-.519.873a.566.566 0 0 0-.15-.02h-.283c.206-.267.462-.71.458-1.261.001-.233-.096-.591-.096-.591m-.831-.237a.67.67 0 0 0 .021-.341c.287.261.626.675.631 1.172.004.617-.39 1.092-.548 1.259h-.1c-.124-.17-.363-.555-.109-.982.051-.086.281-.442.31-.51.04-.083.035-.16.035-.16a1.22 1.22 0 0 1-.106.138c-.066.072-.293.308-.365.394-.375.455-.123.951-.023 1.121l-.326.002c-.559-.751.039-1.338.075-1.375l.121-.134c.154-.17.29-.316.384-.584m-1.532 1.494c0-.231.095-.424.194-.626.119-.243.251-.512.197-.848.171.071.394.193.559.367-.003.003-.006.006-.009.007-.04.044-.082.09-.116.13-.009.008-.715.698-.207 1.568h-.089a.799.799 0 0 0-.148.018.649.649 0 0 1-.381-.616m1.41 9.809a.224.224 0 0 1-.223-.228l-.079-1.748h.603l-.081 1.754a.22.22 0 0 1-.22.222m.826-2.557a.303.303 0 0 1-.302.302l-1.021.002-.001.139v-.139a.301.301 0 0 1-.3-.304c0-.166.135-.301.3-.301l.577-.002.444-.001c.165 0 .303.137.303.304m-.471-.583l-.711.001-.19-4.136 1.071-.001c.008 0 .014-.005.023-.006l-.193 4.142zm.44-4.516a.368.368 0 0 1-.27.099l-1.071.002c-.18 0-.304-.132-.351-.353l.018.002 1.755-.003c.01 0 .019-.006.029-.006a.49.49 0 0 1-.11.259m.346-.643a.367.367 0 0 1-.265.111l-1.755.003a.374.374 0 0 1-.001-.747l.285-.001.002.004.003-.004h.377l1.09-.002c.204 0 .373.168.373.373 0 .1-.038.193-.109.263m-10.762-.723c.313-.192.645-.567.481-1.137-.006-.006-.399-.768-.207-1.375l.065-.207-.215.025c-.033.003-.321.052-.656.427a3.008 3.008 0 0 0-.898-.884l-.527-.311.341.508c.065.099.223.399.153.593a1.017 1.017 0 0 1-.139.265c-.352-.357-.891-.504-.916-.509l-.276-.074.114.263c.155.355.033.604-.108.892-.104.212-.222.453-.222.749 0 .413.207.646.375.771-.009.009-.02.012-.028.021a.648.648 0 0 0 .152 1.03c.029.297.162.527.36.637l.197 4.24a.575.575 0 0 0-.447.556c0 .291.218.521.497.562l.082 1.771a.501.501 0 0 0 1.001.006l.082-1.771a.566.566 0 0 0 .52-.57.578.578 0 0 0-.47-.56l.194-4.231a.558.558 0 0 0 .169-.107c.124-.124.189-.309.205-.542a.655.655 0 0 0 .329-.563.65.65 0 0 0-.208-.475m-.37-2.03c.119-.145.232-.237.321-.294-.069.643.264 1.284.271 1.292.159.551-.385.817-.517.872a.748.748 0 0 0-.149-.017h-.284c.206-.268.464-.711.458-1.261-.001-.234-.1-.592-.1-.592m-.83-.237a.675.675 0 0 0 .02-.345c.288.262.628.675.632 1.175.004.617-.389 1.094-.549 1.26h-.098c-.124-.169-.364-.555-.11-.982.05-.088.282-.442.312-.511.035-.083.031-.159.031-.159a1.177 1.177 0 0 1-.104.136c-.068.073-.293.308-.364.395-.376.456-.123.953-.027 1.122l-.325.001c-.559-.749.038-1.339.075-1.374.041-.047.082-.091.119-.131.158-.172.293-.319.388-.587m-1.531 1.493c0-.23.095-.423.195-.626.119-.243.251-.511.196-.849.171.072.395.193.558.366l-.011.012c-.038.043-.08.087-.114.128-.009.008-.715.694-.208 1.566h-.087c-.046 0-.087.018-.131.028a.646.646 0 0 1-.398-.625M55.655 29a.224.224 0 0 1-.224-.227l-.08-1.747.606-.002-.082 1.754a.221.221 0 0 1-.22.222m.824-2.557a.3.3 0 0 1-.303.303h-1.019l-.002.14v-.14a.302.302 0 0 1 0-.604h.578l.442-.002a.304.304 0 0 1 .304.303m-.469-.582l-.711.002-.191-4.14h.001l1.069-.001.022-.002-.19 4.141zm.442-4.513a.374.374 0 0 1-.275.097l-1.068.001c-.176 0-.303-.135-.352-.353l.019.002 1.754-.002.03-.003a.495.495 0 0 1-.108.258m.078-.536l-1.754.003a.373.373 0 0 1-.003-.748h.286l.001.003.004-.003h.378l.551-.001h.538a.374.374 0 0 1-.001.746m6.357-.422c.287-.224.704-.705.472-1.505-.002-.009-.324-.808-.044-1.685l.064-.207-.215.025c-.016.001-.39.058-.829.521-.422-.884-1.332-1.432-1.381-1.462l-.461-.273.271.464c.003.004.303.526.176.883a1.57 1.57 0 0 1-.203.388c-.48-.512-1.213-.688-1.245-.696l-.27-.062.111.254c.227.522.051.878-.152 1.294-.15.307-.306.623-.305 1.024 0 .554.295.898.556 1.072a.855.855 0 0 0-.338.677.86.86 0 0 0 .48.765c.047.318.238.646.507.801l-.009.001.28 6.082a.756.756 0 0 0-.625.743.755.755 0 0 0 .693.75l.117 2.516a.643.643 0 0 0 .642.643h.003a.638.638 0 0 0 .455-.189.637.637 0 0 0 .188-.449l.117-2.518a.758.758 0 0 0 .728-.755.758.758 0 0 0-.658-.747l.28-6.099c.272-.167.472-.489.514-.794a.858.858 0 0 0 .208-.148.855.855 0 0 0-.127-1.314m.092-3.011a2.943 2.943 0 0 0 .118 1.598c.23.794-.338 1.186-.513 1.283a1.01 1.01 0 0 0-.177-.018l-.558.002c.291-.353.707-.997.7-1.819a1.999 1.999 0 0 0-.1-.598c.204-.24.394-.374.53-.448m-1.776-.133c.076-.213.049-.45-.006-.652.431.35 1.07 1.008 1.075 1.833.009.906-.58 1.596-.796 1.818h-.07a1.452 1.452 0 0 1-.24-.771c0-.612.297-.968.297-.968s-.377.254-.442.817c-.031.271.028.555.204.922h-.358c-.136-.2-.505-.78-.119-1.432.072-.12.458-.617.5-.713.05-.115.046-.223.046-.223a1.569 1.569 0 0 1-.148.193c-.092.101-.41.431-.509.55-.572.695-.101 1.459-.003 1.625h-.217c-.84-1.097.041-1.966.09-2.012.056-.065.11-.124.163-.182.215-.235.401-.437.533-.805m-2.046 2.108c0-.335.134-.61.276-.901.183-.373.37-.756.249-1.257.246.09.616.265.879.56l-.096.106c-.053.057-.111.119-.16.176-.012.01-1.016.987-.231 2.206h-.121a.944.944 0 0 0-.213.031c-.064-.022-.582-.245-.583-.921m2.39 13.406a.364.364 0 0 1-.363.364h-.001a.365.365 0 0 1-.365-.37l-.116-2.501.962-.002-.117 2.509zm.844-3.267a.479.479 0 0 1-.478.479l-1.425.002a.479.479 0 1 1-.003-.958l1.076-.002h.35a.483.483 0 0 1 .48.479m-.657-.757l-1.102.001-.274-5.983c.021.003.041.01.062.01h.001l1.497-.002c.031 0 .062-.009.092-.013l-.276 5.987zm.183-6.253l-1.497.002h-.001c-.238 0-.455-.26-.539-.532.024.001.049.007.073.007l2.455-.004c.031 0 .061-.006.09-.008-.088.266-.331.535-.581.535m.9-.975a.578.578 0 0 1-.408.169l-2.455.003a.58.58 0 0 1-.579-.576c0-.318.259-.578.577-.578 0 0 1.635 0 1.639-.003h.817c.318 0 .576.257.576.576a.57.57 0 0 1-.167.409"/></svg>