<svg id="Layer_1" xmlns="http://www.w3.org/2000/svg" viewBox="343 -256.8 1645 1233.8"><style>.st0{fill:#f2f2f2}.st1{fill:#fff}.st2{display:none}.st3{display:inline}.st4{opacity:.83}.st5{fill:gray}.st6{fill:none}</style><g id="Inside_Player_Content"><path class="st0" d="M604.6-102.4l44.3 232.6c8.5-2.5 17.2-4.7 26-6.5l-70.3-226.1zm584.9 789.6L993.8 554c-4.3 7.9-8.9 15.6-13.9 23l209.6 110.2zm-109.2-857.1L874 153.3c7.9 4.2 15.6 8.9 23 13.8l183.3-337zM2321.4 17.5L1016.9 328.9c2.6 8.6 4.8 17.2 6.6 26.1L2321.4 17.5zm-1458.9 912L818.2 697c-8.5 2.5-17.2 4.8-26 6.6l70.3 225.9zm-402.6-60L593 673.8c-7.9-4.3-15.6-8.9-23-13.8L459.9 869.5zM277.6 139.9L473.3 273c4.3-7.9 8.9-15.6 13.8-23L277.6 139.9zm-60 402.6l232.6-44.3c-2.6-8.5-4.8-17.2-6.6-26l-226 70.3z"/><path class="st0" d="M874 153.3c-29.2-15.8-61.6-26.9-96.4-32.2-35.2-5.3-69.8-4.2-102.8 2.5l68.8 221.3L874 153.3zM450.2 498.2C470 564.3 512.5 621.7 570 660l107.7-205.1-227.5 43.3zM593 673.8c29.2 15.8 61.6 26.9 96.4 32.1 35.2 5.3 69.8 4.2 102.8-2.4l-68.9-221.3L593 673.8zm386.9-96.7l-205-107.8 43.3 227.6c66.1-19.8 123.5-62.4 161.7-119.8zm13.9-23.1c15.8-29.2 26.9-61.6 32.2-96.3 5.3-35.2 4.2-69.8-2.5-102.8l-221.3 68.8L993.8 554zM473.3 273c-15.8 29.2-26.9 61.6-32.2 96.4-5.3 35.2-4.1 69.8 2.5 102.8l221.3-68.8L473.3 273zm543.6 55.9c-19.8-66.1-62.3-123.5-119.8-161.7l-107.8 205 227.6-43.3zm-368-198.7C582.8 150 525.4 192.5 487.2 250l205.1 107.8-43.4-227.6z"/><path class="st1" d="M979.9 577.1c5-7.4 9.6-15.1 13.9-23L802.2 423.8l221.3-68.8c-1.8-8.8-4-17.5-6.6-26.1l-227.6 43.3 107.8-205c-7.4-5-15.1-9.6-23-13.8L743.7 344.9l-68.8-221.3c-8.8 1.8-17.5 4-26 6.5l43.3 227.6-205-107.7c-4.9 7.4-9.6 15.1-13.8 23L665 403.3l-221.4 68.9c1.8 8.8 4 17.5 6.6 26l227.6-43.3L570 660c7.4 4.9 15.1 9.6 23 13.8l130.3-191.6 68.9 221.3c8.8-1.8 17.5-4 26-6.6l-43.3-227.6 205 107.8z"/></g><g id="Elements" class="st2"><g class="st3"><path class="st5" d="M1100 350.1v-54.5l65.6 27.3 65.4 27.2-65.5 27.3-65.5 27.2z"/></g></g><path class="st6" d="M348.9-115.6h1631.6v863.7H348.9zM347-250.8h1641.5v64.3H347z"/><path class="st6" d="M343-256h1645V977H343z"/><path class="st6" d="M343-256h1645V977H343z"/><path class="st6" d="M343-256h1645V977H343z"/><path class="st6" d="M346-252h1642V974H346z"/><path class="st6" d="M346-252h1642V974H346z"/><path class="st6" d="M346-252h1642V974H346z"/><path class="st6" d="M343-256h1645V977H343z"/><path class="st6" d="M343-256h1645V977H343z"/><path class="st6" d="M343-256h1645V977H343z"/><path class="st6" d="M343-256h1645V977H343z"/><path class="st6" d="M343-256h1645V977H343z"/><path class="st6" d="M346-252h1642V974H346z"/><path class="st6" d="M346-252h1642V974H346z"/><path class="st6" d="M343-256h1645V977H343z"/></svg>