<svg id="Layer_1" xmlns="http://www.w3.org/2000/svg" viewBox="0 0 362.2 176.2"><style>.st0{fill:#999}.st1,.st2{fill:#0c2e82}.st2{stroke:#0c2e82;stroke-width:5.2707}.st3{fill:#fff;stroke:#fff;stroke-width:.1998}</style><path class="st0" d="M62 11.4l7.1 37.1c1.4-.4 2.7-.8 4.2-1L62 11.4z"/><path class="st0" d="M62 11.4l7.1 37.1c1.4-.4 2.7-.8 4.2-1L62 11.4zm93.3 125.8L124.1 116c-.7 1.3-1.4 2.5-2.2 3.7l33.4 17.5zM137.8.6L105 52.1c1.3.7 2.5 1.4 3.7 2.2L137.8.6z"/><path class="st0" d="M137.8.6L105 52.1c1.3.7 2.5 1.4 3.7 2.2L137.8.6zm197.9 29.9l-208 49.6c.4 1.4.8 2.7 1 4.2l207-53.8zM103.1 175.9L96 138.8c-1.4.4-2.7.8-4.1 1l11.2 36.1z"/><path class="st0" d="M103.1 175.9L96 138.8c-1.4.4-2.7.8-4.1 1l11.2 36.1zM39 166.3l21.2-31.2c-1.3-.7-2.5-1.4-3.7-2.2L39 166.3z"/><path class="st0" d="M39 166.3l21.2-31.2c-1.3-.7-2.5-1.4-3.7-2.2L39 166.3zM9.9 50l31.2 21.2c.7-1.3 1.4-2.5 2.2-3.7L9.9 50z"/><path class="st0" d="M9.9 50l31.2 21.2c.7-1.3 1.4-2.5 2.2-3.7L9.9 50zM.3 114.2l37.1-7.1c-.4-1.4-.8-2.7-1-4.1L.3 114.2z"/><path class="st0" d="M.3 114.2l37.1-7.1c-.4-1.4-.8-2.7-1-4.1L.3 114.2zM105 52.1c-4.7-2.5-9.8-4.3-15.4-5.1s-11.1-.7-16.4.4l11 35.3L105 52.1zm-67.6 55c3.2 10.5 9.9 19.7 19.1 25.8l17.2-32.7-36.3 6.9zm22.8 28c4.7 2.5 9.8 4.3 15.4 5.1 5.6.9 11.1.7 16.4-.4l-11-35.3-20.8 30.6zm61.7-15.4l-32.7-17.2 6.9 36.3c10.5-3.2 19.7-10 25.8-19.1zm2.2-3.7c2.5-4.7 4.3-9.8 5.1-15.4s.7-11.1-.4-16.4l-35.3 11 30.6 20.8zm-83-44.8c-2.5 4.7-4.3 9.8-5.1 15.4s-.7 11.1.4 16.4l35.3-11-30.6-20.8zm86.6 8.9c-3.2-10.5-9.9-19.7-19.1-25.8L91.5 87l36.2-6.9zM69.1 48.4c-10.5 3.2-19.7 9.9-25.8 19.1L76 84.7l-6.9-36.3z"/><path class="st1" d="M68.7 106.5h293.5v42.1H68.7z"/><path class="st2" d="M74 92.1l4-2.4c2.8 5.2 6 7.8 9.7 7.8 1.6 0 3-.4 4.4-1.1s2.4-1.7 3.1-2.9c.7-1.2 1.1-2.5 1.1-3.9 0-1.6-.5-3.1-1.6-4.6-1.5-2.1-4.1-4.6-8-7.5-3.9-3-6.3-5.1-7.2-6.4-1.6-2.2-2.5-4.6-2.5-7.2 0-2 .5-3.9 1.5-5.6 1-1.7 2.3-3 4.1-4 1.8-1 3.7-1.5 5.8-1.5 2.2 0 4.3.6 6.2 1.7 1.9 1.1 3.9 3.1 6.1 6.1l-3.8 2.9c-1.8-2.3-3.3-3.9-4.5-4.6-1.2-.7-2.6-1.1-4.1-1.1-1.9 0-3.4.6-4.7 1.7-1.2 1.1-1.8 2.6-1.8 4.2 0 1 .2 2 .6 3s1.2 2 2.3 3.1c.6.6 2.6 2.2 6.1 4.7 4.1 3 6.8 5.6 8.3 8 1.5 2.3 2.3 4.7 2.3 7 0 3.4-1.3 6.3-3.9 8.8s-5.7 3.7-9.4 3.7c-2.8 0-5.4-.8-7.7-2.3-2.3-1.5-4.4-4-6.4-7.6zM132.4 54h9.2c3.7 0 6.6.4 8.6 1.3s3.6 2.2 4.7 4.1c1.2 1.8 1.7 3.9 1.7 6.1 0 2.1-.5 4-1.5 5.7s-2.5 3.1-4.4 4.2c2.4.8 4.3 1.8 5.5 2.9 1.3 1.1 2.3 2.5 3 4 .7 1.6 1.1 3.3 1.1 5.1 0 3.8-1.4 6.9-4.1 9.5-2.7 2.6-6.4 3.9-11 3.9h-12.8V54zm4.6 4.6v15h2.7c3.3 0 5.7-.3 7.2-.9s2.8-1.6 3.6-2.9c.9-1.3 1.3-2.8 1.3-4.3 0-2.1-.8-3.8-2.3-5s-3.9-1.8-7.2-1.8l-5.3-.1zm0 19.6v18h5.8c3.4 0 5.9-.3 7.5-1s2.9-1.7 3.8-3.1c1-1.4 1.5-3 1.5-4.6 0-2.1-.7-3.9-2-5.5-1.4-1.6-3.2-2.6-5.6-3.2-1.6-.4-4.4-.6-8.3-.6H137zm97.1-15.6l-3.7 2.8c-2-2.7-4.5-4.7-7.3-6.1-2.9-1.4-6-2.1-9.4-2.1-3.7 0-7.2.9-10.4 2.7s-5.7 4.2-7.4 7.2c-1.8 3-2.6 6.4-2.6 10.2 0 5.7 2 10.5 5.9 14.3s8.9 5.7 14.8 5.7c6.6 0 12.1-2.6 16.5-7.8l3.7 2.8c-2.3 3-5.2 5.3-8.7 7-3.5 1.6-7.4 2.5-11.7 2.5-8.2 0-14.6-2.7-19.3-8.2-4-4.6-5.9-10.2-5.9-16.7 0-6.8 2.4-12.6 7.2-17.3s10.8-7 18-7c4.4 0 8.3.9 11.8 2.6 3.4 1.9 6.3 4.4 8.5 7.4zm25.7-4V54h25.6v4.6h-10.5v42.3h-4.6V58.6h-10.5zm96.9 4l-3.7 2.8c-2-2.7-4.5-4.7-7.3-6.1-2.9-1.4-6-2.1-9.4-2.1-3.7 0-7.2.9-10.4 2.7-3.2 1.8-5.7 4.2-7.4 7.2-1.8 3-2.6 6.4-2.6 10.2 0 5.7 2 10.5 5.9 14.3s8.9 5.7 14.8 5.7c6.6 0 12.1-2.6 16.5-7.8l3.7 2.8c-2.3 3-5.2 5.3-8.7 7-3.5 1.6-7.4 2.5-11.7 2.5-8.2 0-14.6-2.7-19.3-8.2-4-4.6-5.9-10.2-5.9-16.7 0-6.8 2.4-12.6 7.2-17.3 4.8-4.7 10.8-7 18-7 4.4 0 8.3.9 11.8 2.6 3.4 1.9 6.3 4.4 8.5 7.4z"/><path class="st3" d="M75.1 113.3h1.1l2.3 8 3.2-8h.2l3.2 8 2.3-8h1.1l-3.2 11.1h-.2l-3.3-8.4-3.4 8.4h-.2l-3.1-11.1zm21.6 0l5.2 11.1h-1.2l-1.7-3.6h-4.8l-1.7 3.6h-1.2l5.4-11.1zm-.1 2.3l-1.9 4h3.8l-1.9-4zm7.4 6.7l.9-.6c.7 1.2 1.4 1.8 2.3 1.8.4 0 .7-.1 1.1-.3.3-.2.6-.4.7-.7.2-.3.3-.6.3-.9 0-.4-.1-.7-.4-1.1-.3-.5-1-1.1-1.9-1.8-.9-.7-1.5-1.2-1.7-1.5-.4-.5-.6-1.1-.6-1.7 0-.5.1-.9.3-1.3.2-.4.6-.7 1-.9.4-.2.9-.3 1.4-.3s1 .1 1.5.4.9.7 1.5 1.4l-.9.7c-.4-.6-.8-.9-1.1-1.1-.3-.2-.6-.3-1-.3-.5 0-.8.1-1.1.4-.3.3-.4.6-.4 1 0 .2.1.5.2.7s.3.5.6.7c.1.1.6.5 1.4 1.1 1 .7 1.6 1.3 2 1.9s.5 1.1.5 1.7c0 .8-.3 1.5-.9 2.1s-1.4.9-2.2.9c-.7 0-1.3-.2-1.8-.5-.7-.4-1.2-1-1.7-1.8zm10.4-9h1.1v4.6h5.7v-4.6h1.1v11.1h-1.1V119h-5.7v5.4h-1.1v-11.1zm12 0h1.1v11.1h-1.1v-11.1zm5.2 11.1v-11.1h.2l7.4 8.5v-8.5h1.1v11.1h-.3l-7.3-8.4v8.4h-1.1zm23.8-9.3l-.9.8c-.6-.6-1.3-1.1-2-1.4s-1.5-.5-2.2-.5c-.9 0-1.7.2-2.5.6s-1.4 1-1.8 1.7c-.4.7-.6 1.5-.6 2.3s.2 1.6.7 2.4c.4.8 1.1 1.3 1.9 1.8.8.4 1.7.6 2.6.6 1.1 0 2.1-.3 2.9-1 .8-.6 1.3-1.5 1.4-2.5h-3.5v-.9h4.8c0 1.7-.5 3.1-1.5 4.1s-2.4 1.5-4.1 1.5c-2.1 0-3.7-.7-4.9-2.1-.9-1.1-1.4-2.3-1.4-3.7 0-1.1.3-2 .8-2.9s1.3-1.6 2.2-2.1 2-.8 3.1-.8c.9 0 1.8.2 2.7.5.7.3 1.5.9 2.3 1.6zm3.2-.7v-1.1h6.1v1.1h-2.5v10H161v-10h-2.4zm14.5-1.4c1.7 0 3.1.6 4.2 1.7s1.7 2.5 1.7 4.1-.6 3-1.7 4.1c-1.1 1.1-2.5 1.7-4.1 1.7-1.7 0-3-.6-4.2-1.7-1.1-1.1-1.7-2.5-1.7-4.1 0-1.1.3-2.1.8-3s1.2-1.6 2.1-2.1c.9-.5 1.9-.7 2.9-.7zm.1 1.1c-.8 0-1.6.2-2.3.6s-1.3 1-1.7 1.7-.6 1.5-.6 2.4c0 1.3.5 2.4 1.4 3.3s2 1.4 3.3 1.4c.9 0 1.7-.2 2.4-.6s1.3-1 1.7-1.7.6-1.5.6-2.4-.2-1.7-.6-2.4c-.4-.7-1-1.3-1.7-1.7-.9-.4-1.7-.6-2.5-.6zm9.7 10.3v-11.1h.2l7.4 8.5v-8.5h1.1v11.1h-.3L184 116v8.4h-1.1zm17.6-2.1l.9-.6c.7 1.2 1.4 1.8 2.3 1.8.4 0 .7-.1 1.1-.3.3-.2.6-.4.7-.7.2-.3.3-.6.3-.9 0-.4-.1-.7-.4-1.1-.3-.5-1-1.1-1.9-1.8-.9-.7-1.5-1.2-1.7-1.5-.4-.5-.6-1.1-.6-1.7 0-.5.1-.9.3-1.3s.6-.7 1-.9c.4-.2.9-.3 1.4-.3s1 .1 1.5.4.9.7 1.5 1.4l-.9.7c-.4-.6-.8-.9-1.1-1.1s-.6-.3-1-.3c-.5 0-.8.1-1.1.4s-.4.6-.4 1c0 .2.1.5.2.7.1.2.3.5.6.7.1.1.6.5 1.4 1.1 1 .7 1.6 1.3 2 1.9s.5 1.1.5 1.7c0 .8-.3 1.5-.9 2.1-.6.6-1.4.9-2.2.9-.7 0-1.3-.2-1.8-.5-.7-.4-1.2-1-1.7-1.8zm9.3-7.9v-1.1h6.1v1.1h-2.5v10h-1.1v-10h-2.5zm13.9-1.1l5.2 11.1h-1.2l-1.7-3.6h-4.8l-1.7 3.6h-1.2l5.4-11.1zm-.2 2.3l-1.9 4h3.8l-1.9-4zm7.5-1.2v-1.1h6.1v1.1h-2.5v10h-1.1v-10H231zm9.3-1.1h6.4v1.1h-5.3v3.5h5.2v1.1h-5.2v4.3h5.2v1.1h-6.3v-11.1zm15.7 0h2.2c.9 0 1.6.1 2 .3.5.2.8.5 1.1 1 .3.4.4.9.4 1.4s-.1.9-.4 1.3c-.2.4-.6.7-1.1 1 .6.2 1 .4 1.3.7.3.3.6.6.7 1 .2.4.3.8.3 1.2 0 .9-.3 1.6-1 2.3-.7.6-1.5.9-2.6.9H256v-11.1zm1.1 1.1v3.5h.6c.8 0 1.3-.1 1.7-.2.4-.1.7-.4.9-.7.2-.3.3-.7.3-1 0-.5-.2-.9-.5-1.2-.4-.3-.9-.4-1.7-.4h-1.3zm0 4.6v4.3h1.4c.8 0 1.4-.1 1.8-.2.4-.2.7-.4.9-.7.2-.3.3-.7.3-1.1 0-.5-.2-.9-.5-1.3s-.8-.6-1.3-.8c-.4-.1-1-.1-2-.1h-.6v-.1zm14.6-6c1.7 0 3.1.6 4.2 1.7s1.7 2.5 1.7 4.1-.6 3-1.7 4.1-2.5 1.7-4.1 1.7c-1.7 0-3-.6-4.2-1.7-1.1-1.1-1.7-2.5-1.7-4.1 0-1.1.3-2.1.8-3s1.2-1.6 2.1-2.1c.9-.5 1.9-.7 2.9-.7zm.1 1.1c-.8 0-1.6.2-2.3.6-.7.4-1.3 1-1.7 1.7-.4.7-.6 1.5-.6 2.4 0 1.3.5 2.4 1.4 3.3s2 1.4 3.3 1.4c.9 0 1.7-.2 2.4-.6.7-.4 1.3-1 1.7-1.7.4-.7.6-1.5.6-2.4s-.2-1.7-.6-2.4c-.4-.7-1-1.3-1.7-1.7-.9-.4-1.7-.6-2.5-.6zm14.2-.8l5.2 11.1H290l-1.7-3.6h-4.8l-1.7 3.6h-1.2l5.3-11.1h.1zm-.2 2.3l-1.9 4h3.8l-1.9-4zm8.7-2.3h2.2c1.2 0 2.1.1 2.5.2.7.2 1.2.5 1.6 1s.6 1.1.6 1.8c0 .6-.1 1.1-.4 1.6s-.7.8-1.2 1-1.3.4-2.2.4l4 5.1h-1.4l-4-5.1h-.6v5.1h-1.1v-11.1zm1.1 1.1v3.8h1.9c.7 0 1.3-.1 1.6-.2.4-.1.6-.4.8-.7.2-.3.3-.7.3-1 0-.4-.1-.7-.3-1-.2-.3-.5-.5-.8-.7-.3-.1-.9-.2-1.6-.2h-1.9zm9.8 10v-11.1h2.3c1.7 0 2.9.1 3.6.4 1.1.4 1.9 1 2.5 2 .6.9.9 2 .9 3.3 0 1.1-.2 2.1-.7 2.9s-1.1 1.5-1.9 1.9-1.8.6-3.2.6h-3.5zm1.1-1.1h1.3c1.5 0 2.6-.1 3.2-.3.8-.3 1.5-.8 2-1.5s.7-1.6.7-2.6c0-1.1-.3-2-.8-2.7-.5-.8-1.2-1.3-2.2-1.6-.7-.2-1.8-.3-3.4-.3h-.8v9zm17.8-10h5.6v1.1h-4.5v3.5h4.5v1.1h-4.5v5.4h-1.1v-11.1zm14.4-.3c1.7 0 3.1.6 4.2 1.7s1.7 2.5 1.7 4.1-.6 3-1.7 4.1-2.5 1.7-4.1 1.7c-1.7 0-3-.6-4.2-1.7-1.1-1.1-1.7-2.5-1.7-4.1 0-1.1.3-2.1.8-3s1.2-1.6 2.1-2.1c.9-.5 1.8-.7 2.9-.7zm0 1.1c-.8 0-1.6.2-2.3.6-.7.4-1.3 1-1.7 1.7-.4.7-.6 1.5-.6 2.4 0 1.3.5 2.4 1.4 3.3s2 1.4 3.3 1.4c.9 0 1.7-.2 2.4-.6.7-.4 1.3-1 1.7-1.7.4-.7.6-1.5.6-2.4s-.2-1.7-.6-2.4c-.4-.7-1-1.3-1.7-1.7-.8-.4-1.6-.6-2.5-.6zm9.8-.8h2.2c1.2 0 2.1.1 2.5.2.7.2 1.2.5 1.6 1s.6 1.1.6 1.8c0 .6-.1 1.1-.4 1.6s-.7.8-1.2 1-1.3.4-2.2.4l4 5.1h-1.4l-4-5.1h-.6v5.1h-1.1v-11.1zm1.1 1.1v3.8h1.9c.7 0 1.3-.1 1.6-.2.4-.1.6-.4.8-.7.2-.3.3-.7.3-1 0-.4-.1-.7-.3-1-.2-.3-.5-.5-.8-.7-.3-.1-.9-.2-1.6-.2h-1.9zM85.9 133.3l-.9.7c-.5-.6-1.1-1.1-1.7-1.4-.7-.3-1.4-.5-2.2-.5-.9 0-1.7.2-2.5.6-.8.4-1.3 1-1.8 1.7-.4.7-.6 1.5-.6 2.4 0 1.4.5 2.5 1.4 3.4s2.1 1.4 3.5 1.4c1.6 0 2.9-.6 3.9-1.8l.9.7c-.6.7-1.2 1.2-2.1 1.6-.8.4-1.8.6-2.8.6-1.9 0-3.5-.6-4.6-1.9-.9-1.1-1.4-2.4-1.4-4s.6-3 1.7-4.1 2.6-1.7 4.3-1.7c1 0 2 .2 2.8.6.9.4 1.5 1 2.1 1.7zm7.5-2.3c1.7 0 3.1.6 4.2 1.7s1.7 2.5 1.7 4.1-.6 3-1.7 4.1-2.5 1.7-4.1 1.7c-1.7 0-3-.6-4.2-1.7-1.1-1.1-1.7-2.5-1.7-4.1 0-1.1.3-2.1.8-3s1.2-1.6 2.1-2.1c.9-.5 1.9-.7 2.9-.7zm.1 1.1c-.8 0-1.6.2-2.3.6-.7.4-1.3 1-1.7 1.7-.4.7-.6 1.5-.6 2.4 0 1.3.5 2.4 1.4 3.3.9.9 2 1.4 3.3 1.4.9 0 1.7-.2 2.4-.6.7-.4 1.3-1 1.7-1.7.4-.7.6-1.5.6-2.4s-.2-1.7-.6-2.4-1-1.3-1.7-1.7c-.9-.4-1.7-.6-2.5-.6zm7.6 10.3l1.6-11.1h.2l4.5 9.1 4.5-9.1h.2l1.6 11.1h-1.1l-1.1-7.9-3.9 7.9h-.3l-4-8-1.1 8h-1.1zm14.2 0l1.6-11.1h.2l4.5 9.1 4.5-9.1h.2l1.6 11.1h-1.1l-1.1-7.9-3.9 7.9h-.3l-4-8-1.1 8h-1.1zm14.8-11.1h1.1v8.2c.1.4.2.8.4 1.1s.5.5.9.7.8.3 1.3.3c.4 0 .7-.1 1.1-.2.3-.2.6-.4.8-.6.2-.3.4-.6.5-1 .1-.3.1-.9.1-1.7v-6.7h1.1v6.7c0 1-.1 1.8-.3 2.4-.2.6-.6 1.1-1.2 1.6s-1.3.7-2.1.7c-.9 0-1.7-.2-2.3-.6-.6-.4-1.1-1-1.3-1.7-.1-.4-.2-1.2-.2-2.3l.1-6.9zm10.1 11.1v-11.1h.2l7.4 8.5v-8.5h1.1v11.1h-.3l-7.3-8.4v8.4h-1.1zm11.3-11.1h1.1v11.1h-1.1v-11.1zm2.5 1.1v-1.1h6.1v1.1h-2.5v10h-1.1v-10H154zm6.9-1.1h1.3l2.9 4.6 2.8-4.6h1.3l-3.5 5.8v5.3h-1.1v-5.3l-3.7-5.8zm22.7 7l.8.8c-.5.4-.9.8-1.4 1.1.3.3.7.7 1.2 1.1.4.4.7.7 1 1.1h-1.6l-1.5-1.5c-.9.7-1.7 1.2-2.3 1.4s-1.2.3-1.8.3c-.9 0-1.5-.2-2.1-.7-.5-.5-.8-1.1-.8-1.8 0-.6.2-1.1.5-1.7.3-.6 1.1-1.3 2.1-2.1-.6-.7-1-1.3-1.2-1.6-.2-.4-.3-.7-.3-1 0-.6.2-1 .6-1.4.5-.4 1.1-.6 1.8-.6.5 0 .9.1 1.3.3.4.2.7.4.9.8.2.3.3.6.3 1s-.1.8-.4 1.2c-.3.4-.8 1-1.6 1.6l1.7 1.8 1.1 1.1c.9-.6 1.4-.9 1.7-1.2zm-5-1.2c-.9.7-1.6 1.3-1.8 1.7-.3.4-.4.8-.4 1.2s.2.8.5 1.1c.4.3.8.5 1.3.5.4 0 .8-.1 1.2-.2.6-.3 1.3-.7 2-1.3l-1.8-1.8c-.3-.4-.6-.7-1-1.2zm.2-1.4c.5-.4.9-.8 1.2-1.2.2-.3.3-.5.3-.8s-.1-.5-.4-.7c-.3-.2-.6-.3-1-.3s-.7.1-1 .3c-.2.2-.4.4-.4.7 0 .2.1.4.2.6.3.4.6.9 1.1 1.4zm11.3-3.3v-1.1h6.1v1.1h-2.5v10h-1.1v-10h-2.5zm7.7-1.1h6.4v1.1h-5.3v3.5h5.2v1.1h-5.2v4.3h5.2v1.1h-6.3v-11.1zm18.7 2l-.9.7c-.5-.6-1.1-1.1-1.7-1.4-.7-.3-1.4-.5-2.2-.5-.9 0-1.7.2-2.5.6-.8.4-1.3 1-1.8 1.7-.4.7-.6 1.5-.6 2.4 0 1.4.5 2.5 1.4 3.4s2.1 1.4 3.5 1.4c1.6 0 2.9-.6 3.9-1.8l.9.7c-.6.7-1.2 1.2-2.1 1.6-.8.4-1.8.6-2.8.6-1.9 0-3.5-.6-4.6-1.9-.9-1.1-1.4-2.4-1.4-4s.6-3 1.7-4.1c1.1-1.1 2.6-1.7 4.3-1.7 1 0 2 .2 2.8.6.9.4 1.6 1 2.1 1.7zm2.2-2h1.1v4.6h5.7v-4.6h1.1v11.1h-1.1V137h-5.7v5.4h-1.1v-11.1zm10.6 11.1v-11.1h.2l7.4 8.5v-8.5h1.1v11.1h-.3l-7.3-8.4v8.4h-1.1zm11.3-11.1h1.1v11.1h-1.1v-11.1zm14 2l-.9.7c-.5-.6-1.1-1.1-1.7-1.4-.7-.3-1.4-.5-2.2-.5-.9 0-1.7.2-2.5.6-.8.4-1.3 1-1.8 1.7-.4.7-.6 1.5-.6 2.4 0 1.4.5 2.5 1.4 3.4s2.1 1.4 3.5 1.4c1.6 0 2.9-.6 3.9-1.8l.9.7c-.6.7-1.2 1.2-2.1 1.6-.8.4-1.8.6-2.8.6-1.9 0-3.5-.6-4.6-1.9-.9-1.1-1.4-2.4-1.4-4s.6-3 1.7-4.1c1.1-1.1 2.6-1.7 4.3-1.7 1 0 2 .2 2.8.6.9.4 1.6 1 2.1 1.7zm6.8-2l5.2 11.1h-1.2l-1.7-3.6h-4.8l-1.7 3.6H256l5.3-11.1h.1zm-.1 2.3l-1.9 4h3.8l-1.9-4zm7-2.3h1.1v10h4.3v1.1h-5.4v-11.1zm21.9 2l-.9.7c-.5-.6-1.1-1.1-1.7-1.4-.7-.3-1.4-.5-2.2-.5-.9 0-1.7.2-2.5.6-.8.4-1.3 1-1.8 1.7-.4.7-.6 1.5-.6 2.4 0 1.4.5 2.5 1.4 3.4s2.1 1.4 3.5 1.4c1.6 0 2.9-.6 3.9-1.8l.9.7c-.6.7-1.2 1.2-2.1 1.6-.8.4-1.8.6-2.8.6-1.9 0-3.5-.6-4.6-1.9-.9-1.1-1.4-2.4-1.4-4s.6-3 1.7-4.1 2.6-1.7 4.3-1.7c1 0 2 .2 2.8.6.8.4 1.5 1 2.1 1.7zm7.5-2.3c1.7 0 3.1.6 4.2 1.7s1.7 2.5 1.7 4.1-.6 3-1.7 4.1-2.5 1.7-4.1 1.7c-1.7 0-3-.6-4.2-1.7-1.1-1.1-1.7-2.5-1.7-4.1 0-1.1.3-2.1.8-3s1.2-1.6 2.1-2.1c.9-.5 1.8-.7 2.9-.7zm0 1.1c-.8 0-1.6.2-2.3.6-.7.4-1.3 1-1.7 1.7-.4.7-.6 1.5-.6 2.4 0 1.3.5 2.4 1.4 3.3.9.9 2 1.4 3.3 1.4.9 0 1.7-.2 2.4-.6.7-.4 1.3-1 1.7-1.7.4-.7.6-1.5.6-2.4s-.2-1.7-.6-2.4-1-1.3-1.7-1.7c-.8-.4-1.6-.6-2.5-.6zm8.2-.8h1.1v10h4.3v1.1h-5.4v-11.1zm7.1 0h1.1v10h4.3v1.1H313v-11.1zm7.2 0h6.4v1.1h-5.3v3.5h5.2v1.1h-5.2v4.3h5.2v1.1h-6.3v-11.1zm19 1.8l-.9.8c-.6-.6-1.3-1.1-2-1.4-.7-.3-1.5-.5-2.2-.5-.9 0-1.7.2-2.5.6-.8.4-1.4 1-1.8 1.7s-.7 1.5-.7 2.3.2 1.6.7 2.4c.4.8 1.1 1.3 1.9 1.8.8.4 1.7.6 2.6.6 1.1 0 2.1-.3 2.9-1 .8-.6 1.3-1.5 1.4-2.5h-3.5v-.9h4.8c0 1.7-.5 3.1-1.5 4.1s-2.4 1.5-4.1 1.5c-2.1 0-3.7-.7-4.9-2.1-.9-1.1-1.4-2.3-1.4-3.7 0-1.1.3-2 .8-2.9s1.3-1.6 2.2-2.1c.9-.5 2-.8 3.1-.8.9 0 1.8.2 2.7.5.8.3 1.6.9 2.4 1.6zm2.8-1.8h6.4v1.1h-5.3v3.5h5.2v1.1h-5.2v4.3h5.2v1.1H342v-11.1zm7.1 9l.9-.6c.7 1.2 1.4 1.8 2.3 1.8.4 0 .7-.1 1.1-.3.3-.2.6-.4.7-.7.2-.3.3-.6.3-.9 0-.4-.1-.7-.4-1.1-.3-.5-1-1.1-1.9-1.8s-1.5-1.2-1.7-1.5c-.4-.5-.6-1.1-.6-1.7 0-.5.1-.9.3-1.3.2-.4.6-.7 1-.9s.9-.3 1.4-.3 1 .1 1.5.4c.5.3.9.7 1.5 1.4l-.9.7c-.4-.6-.8-.9-1.1-1.1-.3-.2-.6-.3-1-.3-.5 0-.8.1-1.1.4-.3.3-.4.6-.4 1 0 .2.1.5.2.7s.3.5.6.7c.1.1.6.5 1.4 1.1 1 .7 1.6 1.3 2 1.9.4.6.5 1.1.5 1.7 0 .8-.3 1.5-.9 2.1s-1.4.9-2.2.9c-.7 0-1.3-.2-1.8-.5s-1.2-1-1.7-1.8z"/></svg>