<?xml version="1.0" encoding="utf-8"?>
<!-- Generator: Adobe Illustrator 15.0.2, SVG Export Plug-In . SVG Version: 6.00 Build 0)  -->
<!DOCTYPE svg PUBLIC "-//W3C//DTD SVG 1.1//EN" "http://www.w3.org/Graphics/SVG/1.1/DTD/svg11.dtd">
<svg version="1.1" id="Layer_1" xmlns="http://www.w3.org/2000/svg" xmlns:xlink="http://www.w3.org/1999/xlink" x="0px" y="0px"
	 width="471.33px" height="68.857px" viewBox="0 0 471.33 68.857" enable-background="new 0 0 471.33 68.857" xml:space="preserve">
<path fill="#010101" d="M72.732,36.044c3.36,0,4.831-1.248,5.279-4.221l4.506,0.478c-0.509,4.799-3.39,7.902-9.786,7.902
	c-7.676,0-10.682-5.154-10.682-12.922c0-7.773,3.005-12.922,10.682-12.922c6.396,0,9.277,3.101,9.786,7.9l-4.506,0.479
	c-0.448-2.977-1.919-4.221-5.279-4.221c-5.119,0-6.109,4.125-6.109,8.764C66.623,31.915,67.613,36.044,72.732,36.044"/>
<path fill="#010101" d="M85.525,31.277c0-5.886,3.198-8.923,8.314-8.923c5.117,0,8.317,3.038,8.317,8.923s-3.2,8.924-8.317,8.924
	C88.724,40.201,85.525,37.163,85.525,31.277 M90.004,31.277c0,3.519,1.471,4.859,3.835,4.859c2.367,0,3.841-1.341,3.841-4.859
	c0-3.518-1.474-4.862-3.841-4.862C91.476,26.416,90.004,27.759,90.004,31.277"/>
<rect x="105.418" y="14.167" fill="#010101" width="4.352" height="25.586"/>
<path fill="#010101" d="M125.569,37.962c-1.119,1.375-3.137,2.236-5.119,2.236c-3.932,0-6.717-2.013-6.717-6.077V22.803h4.35v10.682
	c0,1.761,1.185,2.622,2.978,2.622c2.205,0,3.998-1.661,4.253-2.972V22.803h4.317V35.18l0.289,4.573h-3.998L125.569,37.962z"/>
<path fill="#010101" d="M138.583,24.592c1.086-1.438,2.75-2.237,4.446-2.237c2.398,0,3.999,0.925,4.892,2.429
	c1.217-1.6,3.296-2.429,5.278-2.429c3.902,0,6.173,2.269,6.173,6.235v11.163h-4.35V28.878c0-1.663-1.023-2.461-2.623-2.43
	c-1.823,0.031-2.975,1.566-3.294,2.974v10.331h-4.35V28.878c0-1.663-0.992-2.461-2.59-2.43c-1.826,0.031-2.978,1.566-3.33,2.974
	v10.331h-4.316V27.374l-0.286-4.571h3.998L138.583,24.592z"/>
<path fill="#010101" d="M167.783,24.307c0.959-1.089,2.846-1.952,4.765-1.952c5.023,0,7.772,3.167,7.772,8.923
	c0,5.755-2.75,8.925-7.772,8.925c-1.98,0-4.155-0.992-5.053-2.304l-0.35,1.854h-3.998l0.289-4.573V14.167h4.347V24.307z
	 M171.846,26.448c-2.24,0-3.742,1.439-4.063,2.847v3.966c0.321,1.407,1.823,2.847,4.063,2.847c2.238,0,3.935-1.565,3.935-4.829
	C175.78,28.014,174.084,26.448,171.846,26.448"/>
<path fill="#010101" d="M188.156,20.019h-4.795v-4.797h4.795V20.019z M183.583,22.803h4.35v16.95h-4.35V22.803z"/>
<path fill="#010101" d="M197.557,29.518l5.183-0.733v-0.353c0-1.504-1.053-2.271-3.261-2.271c-2.302-0.031-2.973,0.801-3.198,2.175
	l-4.448-0.575c0.483-3.04,2.081-5.405,7.517-5.405c4.83,0,7.742,2.014,7.742,6.43v6.395l0.286,4.573h-3.998l-0.353-1.791
	c-1.312,1.472-3.261,2.241-5.501,2.241c-4.509,0-6.239-2.208-6.239-5.281C191.288,31.148,193.721,30.062,197.557,29.518
	 M198.071,36.491c2.494,0.097,4.221-1.6,4.668-3.072v-1.374l-4.506,0.734c-1.727,0.29-2.337,0.801-2.337,1.953
	C195.896,35.852,196.693,36.461,198.071,36.491"/>
<path fill="#010101" d="M218.538,39.753V14.806h10.684c3.165,0,7.421,1.151,7.421,6.91c0,2.59-1.119,4.22-2.271,4.955
	c1.759,0.738,3.068,2.783,3.068,5.792c0,6.074-3.836,7.29-8.057,7.29H218.538z M223.017,18.965v5.947h5.887
	c1.919,0,3.132-0.576,3.132-3.038c0-2.399-1.183-2.909-3.132-2.909H223.017z M229.159,35.596c1.471,0,3.709-0.193,3.709-3.198
	c0-3.007-1.95-3.327-3.583-3.327h-6.269v6.525H229.159z"/>
<path fill="#010101" d="M252.217,37.962c-1.117,1.375-3.132,2.236-5.115,2.236c-3.934,0-6.717-2.013-6.717-6.077V22.803h4.347
	v10.682c0,1.761,1.185,2.622,2.978,2.622c2.206,0,3.998-1.661,4.253-2.972V22.803h4.317V35.18l0.292,4.573h-4.001L252.217,37.962z"
	/>
<path fill="#010101" d="M270.226,34.51c-0.03-1.408-1.378-1.344-3.712-1.569c-3.296-0.288-6.939-0.607-6.939-4.989
	c0-4.255,4.031-5.597,7.322-5.597c4.83,0,7.102,1.727,7.55,5.34l-4.415,0.578c-0.19-1.345-1.021-2.209-3.135-2.177
	c-1.34,0.033-2.684,0.384-2.684,1.76c0.032,1.185,1.344,1.185,3.42,1.405c3.393,0.355,7.133,0.452,7.133,5.216
	c0,4.318-4.125,5.727-7.961,5.727c-5.152,0-7.359-2.081-7.742-5.535l4.446-0.577c0.253,1.57,1.152,2.4,3.296,2.37
	C268.688,36.425,270.259,35.979,270.226,34.51"/>
<path fill="#010101" d="M282.92,20.019h-4.795v-4.797h4.795V20.019z M278.351,22.803h4.347v16.95h-4.347V22.803z"/>
<path fill="#010101" d="M291.399,24.592c1.117-1.374,3.132-2.237,5.114-2.237c3.937,0,6.719,2.014,6.719,6.077v11.321h-4.349V29.072
	c0-1.759-1.185-2.623-2.975-2.623c-2.208,0-4.001,1.661-4.257,2.974v10.331h-4.317V27.374l-0.287-4.571h3.999L291.399,24.592z"/>
<path fill="#010101" d="M310.522,32.94c0.132,2.398,1.696,3.454,3.871,3.454c2.269,0.03,3.135-0.865,3.393-2.015l4.446,0.544
	c-0.449,2.849-2.337,5.277-7.743,5.277c-5.405,0-8.57-3.135-8.57-8.925c0-5.789,3.165-8.921,8.348-8.921
	c5.246,0,8.062,3.166,8.062,8.921v1.665H310.522z M310.555,29.519h7.1c-0.091-2.271-1.215-3.357-3.357-3.357
	C312.188,26.162,310.781,27.186,310.555,29.519"/>
<path fill="#010101" d="M335.598,34.51c-0.03-1.408-1.375-1.344-3.706-1.569c-3.295-0.288-6.94-0.607-6.94-4.989
	c0-4.255,4.026-5.597,7.322-5.597c4.826,0,7.102,1.727,7.545,5.34l-4.411,0.578c-0.189-1.345-1.025-2.209-3.134-2.177
	c-1.345,0.033-2.687,0.384-2.687,1.76c0.03,1.185,1.342,1.185,3.42,1.405c3.391,0.355,7.133,0.452,7.133,5.216
	c0,4.318-4.124,5.727-7.963,5.727c-5.147,0-7.356-2.081-7.739-5.535l4.443-0.577c0.258,1.57,1.154,2.4,3.296,2.37
	C334.063,36.425,335.63,35.979,335.598,34.51"/>
<path fill="#010101" d="M353.032,34.51c-0.03-1.408-1.378-1.344-3.712-1.569c-3.297-0.288-6.94-0.607-6.94-4.989
	c0-4.255,4.031-5.597,7.325-5.597c4.831,0,7.099,1.727,7.547,5.34l-4.415,0.578c-0.192-1.345-1.021-2.209-3.132-2.177
	c-1.343,0.033-2.688,0.384-2.688,1.76c0.035,1.185,1.346,1.185,3.422,1.405c3.391,0.355,7.133,0.452,7.133,5.216
	c0,4.318-4.127,5.727-7.962,5.727c-5.15,0-7.358-2.081-7.74-5.535l4.445-0.577c0.253,1.57,1.15,2.4,3.295,2.37
	C351.492,36.425,353.062,35.979,353.032,34.51"/>
<path fill="#010101" d="M367.838,32.557l4.542-0.479c0.35,2.91,2.145,3.969,5.532,3.969c2.497-0.035,5.312-0.963,5.312-3.712
	c0-2.174-1.312-3.104-5.438-3.487c-4.573-0.384-9.055-1.568-9.084-6.908c-0.033-5.246,4.157-7.579,8.987-7.579
	c6.521,0,9.497,2.877,9.945,7.612l-4.543,0.479c-0.349-2.943-2.013-3.933-5.402-3.933c-1.696,0.032-4.51,0.638-4.51,3.454
	c0.033,1.727,0.988,2.463,4.829,2.844c6.108,0.544,9.626,1.665,9.659,7.518c0.032,5.565-4.799,7.867-9.756,7.867
	C371.165,40.201,368.353,37.515,367.838,32.557"/>
<path fill="#010101" d="M398.574,36.137c2.332,0.033,3.1-0.86,3.391-2.362l4.443,0.572c-0.413,3.231-2.143,5.856-7.803,5.856
	c-5.181,0-8.25-3.167-8.25-8.926c0-5.755,3.069-8.923,8.25-8.923c5.66,0,7.39,2.624,7.803,5.855l-4.443,0.574
	c-0.291-1.503-1.059-2.397-3.391-2.368c-2.369,0.066-3.805,1.566-3.805,4.862C394.77,34.572,396.205,36.076,398.574,36.137"/>
<path fill="#010101" d="M409.031,14.166h4.35v10.202c1.056-1.277,3.041-2.014,4.866-2.014c3.929,0,6.712,2.014,6.712,6.076v11.323
	h-4.351V29.071c0-1.76-1.182-2.623-2.972-2.623c-2.213,0-3.998,1.665-4.256,2.973v10.332h-4.35V14.166z"/>
<path fill="#010101" d="M427.037,31.277c0-5.886,3.198-8.923,8.317-8.923c5.116,0,8.317,3.038,8.317,8.923s-3.201,8.924-8.317,8.924
	C430.235,40.201,427.037,37.163,427.037,31.277 M431.517,31.277c0,3.519,1.471,4.859,3.838,4.859s3.836-1.341,3.836-4.859
	c0-3.518-1.469-4.862-3.836-4.862S431.517,27.759,431.517,31.277"/>
<path fill="#010101" d="M445.973,31.277c0-5.886,3.198-8.923,8.314-8.923c5.117,0,8.315,3.038,8.315,8.923s-3.198,8.924-8.315,8.924
	C449.171,40.201,445.973,37.163,445.973,31.277 M450.449,31.277c0,3.519,1.471,4.859,3.838,4.859c2.365,0,3.839-1.341,3.839-4.859
	c0-3.518-1.474-4.862-3.839-4.862C451.92,26.416,450.449,27.759,450.449,31.277"/>
<rect x="465.225" y="14.167" fill="#010101" width="4.348" height="25.586"/>
<path fill="#1A81C4" d="M50.439,29.42l4.2-4.199H29.422V0L0,29.42h25.22v4.205H12.366L8.16,37.828h17.06v4.206h-4.451l-4.203,4.202
	h8.654v8.404l4.202-4.198v-4.206h4.206l4.2-4.202h-8.406v-4.206h12.609l4.203-4.203H29.422V29.42H50.439z M10.145,25.221
	L25.22,10.147v15.074H10.145z"/>
<path fill="#1A81C4" d="M67.98,53.411h3.01l6.355,14.936h-3.413l-1.354-3.326h-6.269l-1.357,3.326h-3.327L67.98,53.411z
	 M71.413,62.14l-1.97-4.812l-1.972,4.812H71.413z"/>
<polygon fill="#1A81C4" points="80.748,56.523 76.236,56.523 76.236,53.516 88.523,53.516 88.523,56.523 84.009,56.523 
	84.009,68.345 80.748,68.345 "/>
<polygon fill="#1A81C4" points="99.975,56.523 95.463,56.523 95.463,53.516 107.75,53.516 107.75,56.523 103.238,56.523 
	103.238,68.345 99.975,68.345 "/>
<polygon fill="#1A81C4" points="109.818,53.516 113.082,53.516 113.082,59.384 119.098,59.384 119.098,53.516 122.359,53.516 
	122.359,68.345 119.098,68.345 119.098,62.393 113.082,62.393 113.082,68.345 109.818,68.345 "/>
<polygon fill="#1A81C4" points="125.491,53.516 136.674,53.516 136.674,56.417 128.731,56.417 128.731,59.43 135.722,59.43 
	135.722,62.329 128.731,62.329 128.731,65.443 136.78,65.443 136.78,68.345 125.491,68.345 "/>
<polygon fill="#1A81C4" points="143.913,53.516 147.513,53.516 151.389,63.96 155.268,53.516 158.782,53.516 152.789,68.451 
	149.905,68.451 "/>
<polygon fill="#1A81C4" points="160.643,53.516 171.826,53.516 171.826,56.417 163.883,56.417 163.883,59.43 170.871,59.43 
	170.871,62.329 163.883,62.329 163.883,65.443 171.932,65.443 171.932,68.345 160.643,68.345 "/>
<path fill="#1A81C4" d="M174.406,53.516h6.78c1.883,0,3.347,0.529,4.319,1.504c0.828,0.828,1.273,1.989,1.273,3.388v0.046
	c0,2.395-1.293,3.896-3.18,4.597l3.623,5.297h-3.815l-3.175-4.75h-0.043h-2.521v4.75h-3.261V53.516z M180.973,60.719
	c1.59,0,2.499-0.849,2.499-2.1v-0.04c0-1.399-0.975-2.116-2.564-2.116h-3.241v4.256H180.973z"/>
<polygon fill="#1A81C4" points="192.939,62.498 187.239,53.519 191.052,53.519 194.589,59.471 198.192,53.519 201.899,53.519 
	196.2,62.438 196.2,68.345 192.939,68.345 "/>
<path fill="#1A81C4" d="M208.775,60.974v-0.045c0-4.213,3.175-7.666,7.729-7.666c2.798,0,4.474,0.932,5.851,2.288l-2.079,2.396
	c-1.142-1.038-2.309-1.677-3.79-1.677c-2.501,0-4.301,2.076-4.301,4.619v0.04c0,2.548,1.757,4.664,4.301,4.664
	c1.694,0,2.732-0.679,3.896-1.737l2.079,2.097c-1.529,1.63-3.22,2.648-6.081,2.648C212.016,68.601,208.775,65.233,208.775,60.974"/>
<polygon fill="#1A81C4" points="224.638,53.516 235.82,53.516 235.82,56.417 227.878,56.417 227.878,59.43 234.866,59.43 
	234.866,62.329 227.878,62.329 227.878,65.443 235.927,65.443 235.927,68.345 224.638,68.345 "/>
<polygon fill="#1A81C4" points="238.4,53.516 241.408,53.516 248.355,62.648 248.355,53.516 251.576,53.516 251.576,68.345 
	248.801,68.345 241.621,58.918 241.621,68.345 238.4,68.345 "/>
<polygon fill="#1A81C4" points="258.159,56.523 253.645,56.523 253.645,53.516 265.934,53.516 265.934,56.523 261.42,56.523 
	261.42,68.345 258.159,68.345 "/>
<polygon fill="#1A81C4" points="268.003,53.516 279.188,53.516 279.188,56.417 271.246,56.417 271.246,59.43 278.233,59.43 
	278.233,62.329 271.246,62.329 271.246,65.443 279.294,65.443 279.294,68.345 268.003,68.345 "/>
<path fill="#1A81C4" d="M281.769,53.516h6.777c1.887,0,3.348,0.529,4.321,1.504c0.826,0.828,1.273,1.989,1.273,3.388v0.046
	c0,2.395-1.293,3.896-3.179,4.597l3.623,5.297h-3.816l-3.178-4.75h-0.042h-2.52v4.75h-3.261V53.516z M288.336,60.719
	c1.585,0,2.499-0.849,2.499-2.1v-0.04c0-1.399-0.975-2.116-2.564-2.116h-3.241v4.256H288.336z"/>
<path fill="#1A81C4" d="M301.929,60.974v-0.045c0-4.213,3.322-7.666,7.899-7.666c4.578,0,7.859,3.413,7.859,7.626v0.04
	c0,4.218-3.324,7.672-7.902,7.672C305.211,68.601,301.929,65.188,301.929,60.974 M314.277,60.974v-0.045
	c0-2.542-1.864-4.659-4.492-4.659c-2.626,0-4.448,2.076-4.448,4.619v0.04c0,2.548,1.863,4.664,4.491,4.664
	S314.277,63.517,314.277,60.974"/>
<polygon fill="#1A81C4" points="320.159,53.516 331.45,53.516 331.45,56.482 323.419,56.482 323.419,59.637 330.496,59.637 
	330.496,62.604 323.419,62.604 323.419,68.345 320.159,68.345 "/>
<path fill="#1A81C4" d="M339.558,53.519h6.884c1.693,0,3.028,0.463,3.874,1.312c0.681,0.676,1.021,1.506,1.021,2.521v0.043
	c0,1.671-0.892,2.605-1.949,3.198c1.716,0.655,2.774,1.652,2.774,3.643v0.046c0,2.709-2.203,4.063-5.55,4.063h-7.054V53.519z
	 M345.743,59.511c1.438,0,2.352-0.463,2.352-1.569V57.9c0-0.972-0.763-1.526-2.139-1.526h-3.224v3.137H345.743z M346.611,65.486
	c1.438,0,2.306-0.509,2.306-1.61v-0.044c0-0.994-0.739-1.607-2.412-1.607h-3.772v3.262H346.611z"/>
<path fill="#1A81C4" d="M354.188,61.992v-8.477h3.262v8.391c0,2.415,1.205,3.666,3.199,3.666c1.991,0,3.201-1.211,3.201-3.56v-8.497
	h3.261v8.37c0,4.489-2.524,6.694-6.504,6.694C356.625,68.58,354.188,66.354,354.188,61.992"/>
<path fill="#1A81C4" d="M368.987,66.185l1.93-2.309c1.334,1.104,2.732,1.8,4.428,1.8c1.332,0,2.14-0.532,2.14-1.397v-0.043
	c0-0.825-0.512-1.25-2.988-1.886c-2.984-0.765-4.914-1.588-4.914-4.53v-0.045c0-2.688,2.16-4.471,5.19-4.471
	c2.162,0,4.003,0.678,5.507,1.885l-1.693,2.459c-1.313-0.912-2.605-1.463-3.856-1.463c-1.248,0-1.906,0.571-1.906,1.294v0.042
	c0,0.973,0.635,1.292,3.197,1.95c3.009,0.785,4.704,1.863,4.704,4.448v0.041c0,2.943-2.245,4.595-5.445,4.595
	C373.036,68.555,370.771,67.774,368.987,66.185"/>
<rect x="383.285" y="53.519" fill="#1A81C4" width="3.261" height="14.828"/>
<polygon fill="#1A81C4" points="389.827,53.516 392.835,53.516 399.782,62.648 399.782,53.516 403.003,53.516 403.003,68.345 
	400.229,68.345 393.047,58.918 393.047,68.345 389.827,68.345 "/>
<polygon fill="#1A81C4" points="406.13,53.516 417.317,53.516 417.317,56.417 409.371,56.417 409.371,59.43 416.361,59.43 
	416.361,62.329 409.371,62.329 409.371,65.443 417.422,65.443 417.422,68.345 406.13,68.345 "/>
<path fill="#1A81C4" d="M418.88,66.185l1.93-2.309c1.332,1.104,2.731,1.8,4.423,1.8c1.34,0,2.14-0.532,2.14-1.397v-0.043
	c0-0.825-0.506-1.25-2.983-1.886c-2.987-0.765-4.916-1.588-4.916-4.53v-0.045c0-2.688,2.16-4.471,5.19-4.471
	c2.159,0,4.003,0.678,5.507,1.885l-1.694,2.459c-1.314-0.912-2.605-1.463-3.856-1.463c-1.25,0-1.906,0.571-1.906,1.294v0.042
	c0,0.973,0.633,1.292,3.2,1.95c3.009,0.785,4.702,1.863,4.702,4.448v0.041c0,2.943-2.246,4.595-5.443,4.595
	C422.926,68.555,420.657,67.774,418.88,66.185"/>
<path fill="#1A81C4" d="M431.798,66.185l1.924-2.309c1.337,1.104,2.737,1.8,4.428,1.8c1.337,0,2.143-0.532,2.143-1.397v-0.043
	c0-0.825-0.512-1.25-2.986-1.886c-2.986-0.765-4.916-1.588-4.916-4.53v-0.045c0-2.688,2.16-4.471,5.189-4.471
	c2.16,0,4.004,0.678,5.507,1.885l-1.692,2.459c-1.314-0.912-2.608-1.463-3.856-1.463c-1.251,0-1.906,0.571-1.906,1.294v0.042
	c0,0.973,0.635,1.292,3.2,1.95c3.005,0.785,4.701,1.863,4.701,4.448v0.041c0,2.943-2.246,4.595-5.443,4.595
	C435.843,68.555,433.575,67.774,431.798,66.185"/>
<path fill="#1A81C4" d="M446.854,53.557v0.409h-0.79v2.059h-0.488v-2.059h-0.79v-0.409H446.854z M449.521,56.024l-0.092-1.45
	c-0.007-0.19-0.007-0.426-0.018-0.689h-0.025c-0.066,0.216-0.137,0.506-0.21,0.735l-0.442,1.366h-0.509l-0.446-1.402
	c-0.043-0.193-0.116-0.483-0.172-0.699h-0.028c0,0.229-0.008,0.462-0.018,0.689l-0.091,1.45h-0.472l0.181-2.468h0.736l0.425,1.21
	c0.057,0.187,0.102,0.37,0.165,0.623h0.01c0.061-0.227,0.117-0.437,0.17-0.618l0.428-1.215h0.709l0.19,2.468H449.521z"/>
</svg>
