<svg xmlns="http://www.w3.org/2000/svg" width="471.33" height="68.857"><path fill="#010101" d="M72.732 36.044c3.36 0 4.831-1.248 5.279-4.221l4.506.478c-.509 4.799-3.39 7.902-9.786 7.902-7.676 0-10.682-5.154-10.682-12.922 0-7.773 3.005-12.922 10.682-12.922 6.396 0 9.277 3.101 9.786 7.9l-4.506.479c-.448-2.977-1.919-4.221-5.279-4.221-5.119 0-6.109 4.125-6.109 8.764 0 4.634.99 8.763 6.109 8.763"/><path fill="#010101" d="M85.525 31.277c0-5.886 3.198-8.923 8.314-8.923 5.117 0 8.317 3.038 8.317 8.923s-3.2 8.924-8.317 8.924c-5.115 0-8.314-3.038-8.314-8.924m4.479 0c0 3.519 1.471 4.859 3.835 4.859 2.367 0 3.841-1.341 3.841-4.859s-1.474-4.862-3.841-4.862c-2.363.001-3.835 1.344-3.835 4.862"/><rect x="105.418" y="14.167" fill="#010101" width="4.352" height="25.586"/><path fill="#010101" d="M125.569 37.962c-1.119 1.375-3.137 2.236-5.119 2.236-3.932 0-6.717-2.013-6.717-6.077v-11.318h4.35v10.682c0 1.761 1.185 2.622 2.978 2.622 2.205 0 3.998-1.661 4.253-2.972v-10.332h4.317v12.377l.289 4.573h-3.998l-.353-1.791z"/><path fill="#010101" d="M138.583 24.592c1.086-1.438 2.75-2.237 4.446-2.237 2.398 0 3.999.925 4.892 2.429 1.217-1.6 3.296-2.429 5.278-2.429 3.902 0 6.173 2.269 6.173 6.235v11.163h-4.35v-10.875c0-1.663-1.023-2.461-2.623-2.43-1.823.031-2.975 1.566-3.294 2.974v10.331h-4.35v-10.875c0-1.663-.992-2.461-2.59-2.43-1.826.031-2.978 1.566-3.33 2.974v10.331h-4.316v-12.379l-.286-4.571h3.998l.352 1.789z"/><path fill="#010101" d="M167.783 24.307c.959-1.089 2.846-1.952 4.765-1.952 5.023 0 7.772 3.167 7.772 8.923 0 5.755-2.75 8.925-7.772 8.925-1.98 0-4.155-.992-5.053-2.304l-.35 1.854h-3.998l.289-4.573v-21.013h4.347v10.14zm4.063 2.141c-2.24 0-3.742 1.439-4.063 2.847v3.966c.321 1.407 1.823 2.847 4.063 2.847 2.238 0 3.935-1.565 3.935-4.829-.001-3.265-1.697-4.831-3.935-4.831"/><path fill="#010101" d="M188.156 20.019h-4.795v-4.797h4.795v4.797zm-4.573 2.784h4.35v16.95h-4.35v-16.95z"/><path fill="#010101" d="M197.557 29.518l5.183-.733v-.353c0-1.504-1.053-2.271-3.261-2.271-2.302-.031-2.973.801-3.198 2.175l-4.448-.575c.483-3.04 2.081-5.405 7.517-5.405 4.83 0 7.742 2.014 7.742 6.43v6.395l.286 4.573h-3.998l-.353-1.791c-1.312 1.472-3.261 2.241-5.501 2.241-4.509 0-6.239-2.208-6.239-5.281.001-3.775 2.434-4.861 6.27-5.405m.514 6.973c2.494.097 4.221-1.6 4.668-3.072v-1.374l-4.506.734c-1.727.29-2.337.801-2.337 1.953 0 1.12.797 1.729 2.175 1.759"/><path fill="#010101" d="M218.538 39.753v-24.947h10.684c3.165 0 7.421 1.151 7.421 6.91 0 2.59-1.119 4.22-2.271 4.955 1.759.738 3.068 2.783 3.068 5.792 0 6.074-3.836 7.29-8.057 7.29h-10.845zm4.479-20.788v5.947h5.887c1.919 0 3.132-.576 3.132-3.038 0-2.399-1.183-2.909-3.132-2.909h-5.887zm6.142 16.631c1.471 0 3.709-.193 3.709-3.198 0-3.007-1.95-3.327-3.583-3.327h-6.269v6.525h6.143z"/><path fill="#010101" d="M252.217 37.962c-1.117 1.375-3.132 2.236-5.115 2.236-3.934 0-6.717-2.013-6.717-6.077v-11.318h4.347v10.682c0 1.761 1.185 2.622 2.978 2.622 2.206 0 3.998-1.661 4.253-2.972v-10.332h4.317v12.377l.292 4.573h-4.001l-.354-1.791z"/><path fill="#010101" d="M270.226 34.51c-.03-1.408-1.378-1.344-3.712-1.569-3.296-.288-6.939-.607-6.939-4.989 0-4.255 4.031-5.597 7.322-5.597 4.83 0 7.102 1.727 7.55 5.34l-4.415.578c-.19-1.345-1.021-2.209-3.135-2.177-1.34.033-2.684.384-2.684 1.76.032 1.185 1.344 1.185 3.42 1.405 3.393.355 7.133.452 7.133 5.216 0 4.318-4.125 5.727-7.961 5.727-5.152 0-7.359-2.081-7.742-5.535l4.446-.577c.253 1.57 1.152 2.4 3.296 2.37 1.883-.037 3.454-.483 3.421-1.952"/><path fill="#010101" d="M282.92 20.019h-4.795v-4.797h4.795v4.797zm-4.569 2.784h4.347v16.95h-4.347v-16.95z"/><path fill="#010101" d="M291.399 24.592c1.117-1.374 3.132-2.237 5.114-2.237 3.937 0 6.719 2.014 6.719 6.077v11.321h-4.349v-10.681c0-1.759-1.185-2.623-2.975-2.623-2.208 0-4.001 1.661-4.257 2.974v10.331h-4.317v-12.38l-.287-4.571h3.999l.353 1.789z"/><path fill="#010101" d="M310.522 32.94c.132 2.398 1.696 3.454 3.871 3.454 2.269.03 3.135-.865 3.393-2.015l4.446.544c-.449 2.849-2.337 5.277-7.743 5.277-5.405 0-8.57-3.135-8.57-8.925 0-5.789 3.165-8.921 8.348-8.921 5.246 0 8.062 3.166 8.062 8.921v1.665h-11.807zm.033-3.421h7.1c-.091-2.271-1.215-3.357-3.357-3.357-2.11 0-3.517 1.024-3.743 3.357"/><path fill="#010101" d="M335.598 34.51c-.03-1.408-1.375-1.344-3.706-1.569-3.295-.288-6.94-.607-6.94-4.989 0-4.255 4.026-5.597 7.322-5.597 4.826 0 7.102 1.727 7.545 5.34l-4.411.578c-.189-1.345-1.025-2.209-3.134-2.177-1.345.033-2.687.384-2.687 1.76.03 1.185 1.342 1.185 3.42 1.405 3.391.355 7.133.452 7.133 5.216 0 4.318-4.124 5.727-7.963 5.727-5.147 0-7.356-2.081-7.739-5.535l4.443-.577c.258 1.57 1.154 2.4 3.296 2.37 1.886-.037 3.453-.483 3.421-1.952"/><path fill="#010101" d="M353.032 34.51c-.03-1.408-1.378-1.344-3.712-1.569-3.297-.288-6.94-.607-6.94-4.989 0-4.255 4.031-5.597 7.325-5.597 4.831 0 7.099 1.727 7.547 5.34l-4.415.578c-.192-1.345-1.021-2.209-3.132-2.177-1.343.033-2.688.384-2.688 1.76.035 1.185 1.346 1.185 3.422 1.405 3.391.355 7.133.452 7.133 5.216 0 4.318-4.127 5.727-7.962 5.727-5.15 0-7.358-2.081-7.74-5.535l4.445-.577c.253 1.57 1.15 2.4 3.295 2.37 1.882-.037 3.452-.483 3.422-1.952"/><path fill="#010101" d="M367.838 32.557l4.542-.479c.35 2.91 2.145 3.969 5.532 3.969 2.497-.035 5.312-.963 5.312-3.712 0-2.174-1.312-3.104-5.438-3.487-4.573-.384-9.055-1.568-9.084-6.908-.033-5.246 4.157-7.579 8.987-7.579 6.521 0 9.497 2.877 9.945 7.612l-4.543.479c-.349-2.943-2.013-3.933-5.402-3.933-1.696.032-4.51.638-4.51 3.454.033 1.727.988 2.463 4.829 2.844 6.108.544 9.626 1.665 9.659 7.518.032 5.565-4.799 7.867-9.756 7.867-6.746-.001-9.558-2.687-10.073-7.645"/><path fill="#010101" d="M398.574 36.137c2.332.033 3.1-.86 3.391-2.362l4.443.572c-.413 3.231-2.143 5.856-7.803 5.856-5.181 0-8.25-3.167-8.25-8.926 0-5.755 3.069-8.923 8.25-8.923 5.66 0 7.39 2.624 7.803 5.855l-4.443.574c-.291-1.503-1.059-2.397-3.391-2.368-2.369.066-3.805 1.566-3.805 4.862.001 3.295 1.436 4.799 3.805 4.86"/><path fill="#010101" d="M409.031 14.166h4.35v10.202c1.056-1.277 3.041-2.014 4.866-2.014 3.929 0 6.712 2.014 6.712 6.076v11.323h-4.351v-10.682c0-1.76-1.182-2.623-2.972-2.623-2.213 0-3.998 1.665-4.256 2.973v10.332h-4.35v-25.587z"/><path fill="#010101" d="M427.037 31.277c0-5.886 3.198-8.923 8.317-8.923 5.116 0 8.317 3.038 8.317 8.923s-3.201 8.924-8.317 8.924c-5.119 0-8.317-3.038-8.317-8.924m4.48 0c0 3.519 1.471 4.859 3.838 4.859s3.836-1.341 3.836-4.859-1.469-4.862-3.836-4.862-3.838 1.344-3.838 4.862"/><path fill="#010101" d="M445.973 31.277c0-5.886 3.198-8.923 8.314-8.923 5.117 0 8.315 3.038 8.315 8.923s-3.198 8.924-8.315 8.924c-5.116 0-8.314-3.038-8.314-8.924m4.476 0c0 3.519 1.471 4.859 3.838 4.859 2.365 0 3.839-1.341 3.839-4.859s-1.474-4.862-3.839-4.862c-2.367.001-3.838 1.344-3.838 4.862"/><rect x="465.225" y="14.167" fill="#010101" width="4.348" height="25.586"/><path fill="#1A81C4" d="M50.439 29.42l4.2-4.199h-25.217v-25.221l-29.422 29.42h25.22v4.205h-12.854l-4.206 4.203h17.06v4.206h-4.451l-4.203 4.202h8.654v8.404l4.202-4.198v-4.206h4.206l4.2-4.202h-8.406v-4.206h12.609l4.203-4.203h-16.812v-4.205h21.017zm-40.294-4.199l15.075-15.074v15.074h-15.075z"/><path fill="#1A81C4" d="M67.98 53.411h3.01l6.355 14.936h-3.413l-1.354-3.326h-6.269l-1.357 3.326h-3.327l6.355-14.936zm3.433 8.729l-1.97-4.812-1.972 4.812h3.942z"/><polygon fill="#1A81C4" points="80.748,56.523 76.236,56.523 76.236,53.516 88.523,53.516 88.523,56.523 84.009,56.523 84.009,68.345 80.748,68.345"/><polygon fill="#1A81C4" points="99.975,56.523 95.463,56.523 95.463,53.516 107.75,53.516 107.75,56.523 103.238,56.523 103.238,68.345 99.975,68.345"/><polygon fill="#1A81C4" points="109.818,53.516 113.082,53.516 113.082,59.384 119.098,59.384 119.098,53.516 122.359,53.516 122.359,68.345 119.098,68.345 119.098,62.393 113.082,62.393 113.082,68.345 109.818,68.345"/><polygon fill="#1A81C4" points="125.491,53.516 136.674,53.516 136.674,56.417 128.731,56.417 128.731,59.43 135.722,59.43 135.722,62.329 128.731,62.329 128.731,65.443 136.78,65.443 136.78,68.345 125.491,68.345"/><polygon fill="#1A81C4" points="143.913,53.516 147.513,53.516 151.389,63.96 155.268,53.516 158.782,53.516 152.789,68.451 149.905,68.451"/><polygon fill="#1A81C4" points="160.643,53.516 171.826,53.516 171.826,56.417 163.883,56.417 163.883,59.43 170.871,59.43 170.871,62.329 163.883,62.329 163.883,65.443 171.932,65.443 171.932,68.345 160.643,68.345"/><path fill="#1A81C4" d="M174.406 53.516h6.78c1.883 0 3.347.529 4.319 1.504.828.828 1.273 1.989 1.273 3.388v.046c0 2.395-1.293 3.896-3.18 4.597l3.623 5.297h-3.815l-3.175-4.75h-2.564v4.75h-3.261v-14.832zm6.567 7.203c1.59 0 2.499-.849 2.499-2.1v-.04c0-1.399-.975-2.116-2.564-2.116h-3.241v4.256h3.306z"/><polygon fill="#1A81C4" points="192.939,62.498 187.239,53.519 191.052,53.519 194.589,59.471 198.192,53.519 201.899,53.519 196.2,62.438 196.2,68.345 192.939,68.345"/><path fill="#1A81C4" d="M208.775 60.974v-.045c0-4.213 3.175-7.666 7.729-7.666 2.798 0 4.474.932 5.851 2.288l-2.079 2.396c-1.142-1.038-2.309-1.677-3.79-1.677-2.501 0-4.301 2.076-4.301 4.619v.04c0 2.548 1.757 4.664 4.301 4.664 1.694 0 2.732-.679 3.896-1.737l2.079 2.097c-1.529 1.63-3.22 2.648-6.081 2.648-4.364 0-7.605-3.368-7.605-7.627"/><polygon fill="#1A81C4" points="224.638,53.516 235.82,53.516 235.82,56.417 227.878,56.417 227.878,59.43 234.866,59.43 234.866,62.329 227.878,62.329 227.878,65.443 235.927,65.443 235.927,68.345 224.638,68.345"/><polygon fill="#1A81C4" points="238.4,53.516 241.408,53.516 248.355,62.648 248.355,53.516 251.576,53.516 251.576,68.345 248.801,68.345 241.621,58.918 241.621,68.345 238.4,68.345"/><polygon fill="#1A81C4" points="258.159,56.523 253.645,56.523 253.645,53.516 265.934,53.516 265.934,56.523 261.42,56.523 261.42,68.345 258.159,68.345"/><polygon fill="#1A81C4" points="268.003,53.516 279.188,53.516 279.188,56.417 271.246,56.417 271.246,59.43 278.233,59.43 278.233,62.329 271.246,62.329 271.246,65.443 279.294,65.443 279.294,68.345 268.003,68.345"/><path fill="#1A81C4" d="M281.769 53.516h6.777c1.887 0 3.348.529 4.321 1.504.826.828 1.273 1.989 1.273 3.388v.046c0 2.395-1.293 3.896-3.179 4.597l3.623 5.297h-3.816l-3.178-4.75h-2.562v4.75h-3.261v-14.832zm6.567 7.203c1.585 0 2.499-.849 2.499-2.1v-.04c0-1.399-.975-2.116-2.564-2.116h-3.241v4.256h3.306z"/><path fill="#1A81C4" d="M301.929 60.974v-.045c0-4.213 3.322-7.666 7.899-7.666 4.578 0 7.859 3.413 7.859 7.626v.04c0 4.218-3.324 7.672-7.902 7.672-4.574 0-7.856-3.413-7.856-7.627m12.348 0v-.045c0-2.542-1.864-4.659-4.492-4.659-2.626 0-4.448 2.076-4.448 4.619v.04c0 2.548 1.863 4.664 4.491 4.664s4.449-2.076 4.449-4.619"/><polygon fill="#1A81C4" points="320.159,53.516 331.45,53.516 331.45,56.482 323.419,56.482 323.419,59.637 330.496,59.637 330.496,62.604 323.419,62.604 323.419,68.345 320.159,68.345"/><path fill="#1A81C4" d="M339.558 53.519h6.884c1.693 0 3.028.463 3.874 1.312.681.676 1.021 1.506 1.021 2.521v.043c0 1.671-.892 2.605-1.949 3.198 1.716.655 2.774 1.652 2.774 3.643v.046c0 2.709-2.203 4.063-5.55 4.063h-7.054v-14.826zm6.185 5.992c1.438 0 2.352-.463 2.352-1.569v-.042c0-.972-.763-1.526-2.139-1.526h-3.224v3.137h3.011zm.868 5.975c1.438 0 2.306-.509 2.306-1.61v-.044c0-.994-.739-1.607-2.412-1.607h-3.772v3.262h3.878z"/><path fill="#1A81C4" d="M354.188 61.992v-8.477h3.262v8.391c0 2.415 1.205 3.666 3.199 3.666 1.991 0 3.201-1.211 3.201-3.56v-8.497h3.261v8.37c0 4.489-2.524 6.694-6.504 6.694-3.982.001-6.419-2.225-6.419-6.587"/><path fill="#1A81C4" d="M368.987 66.185l1.93-2.309c1.334 1.104 2.732 1.8 4.428 1.8 1.332 0 2.14-.532 2.14-1.397v-.043c0-.825-.512-1.25-2.988-1.886-2.984-.765-4.914-1.588-4.914-4.53v-.045c0-2.688 2.16-4.471 5.19-4.471 2.162 0 4.003.678 5.507 1.885l-1.693 2.459c-1.313-.912-2.605-1.463-3.856-1.463-1.248 0-1.906.571-1.906 1.294v.042c0 .973.635 1.292 3.197 1.95 3.009.785 4.704 1.863 4.704 4.448v.041c0 2.943-2.245 4.595-5.445 4.595-2.245 0-4.51-.781-6.294-2.37"/><rect x="383.285" y="53.519" fill="#1A81C4" width="3.261" height="14.828"/><polygon fill="#1A81C4" points="389.827,53.516 392.835,53.516 399.782,62.648 399.782,53.516 403.003,53.516 403.003,68.345 400.229,68.345 393.047,58.918 393.047,68.345 389.827,68.345"/><polygon fill="#1A81C4" points="406.13,53.516 417.317,53.516 417.317,56.417 409.371,56.417 409.371,59.43 416.361,59.43 416.361,62.329 409.371,62.329 409.371,65.443 417.422,65.443 417.422,68.345 406.13,68.345"/><path fill="#1A81C4" d="M418.88 66.185l1.93-2.309c1.332 1.104 2.731 1.8 4.423 1.8 1.34 0 2.14-.532 2.14-1.397v-.043c0-.825-.506-1.25-2.983-1.886-2.987-.765-4.916-1.588-4.916-4.53v-.045c0-2.688 2.16-4.471 5.19-4.471 2.159 0 4.003.678 5.507 1.885l-1.694 2.459c-1.314-.912-2.605-1.463-3.856-1.463-1.25 0-1.906.571-1.906 1.294v.042c0 .973.633 1.292 3.2 1.95 3.009.785 4.702 1.863 4.702 4.448v.041c0 2.943-2.246 4.595-5.443 4.595-2.248 0-4.517-.781-6.294-2.37"/><path fill="#1A81C4" d="M431.798 66.185l1.924-2.309c1.337 1.104 2.737 1.8 4.428 1.8 1.337 0 2.143-.532 2.143-1.397v-.043c0-.825-.512-1.25-2.986-1.886-2.986-.765-4.916-1.588-4.916-4.53v-.045c0-2.688 2.16-4.471 5.189-4.471 2.16 0 4.004.678 5.507 1.885l-1.692 2.459c-1.314-.912-2.608-1.463-3.856-1.463-1.251 0-1.906.571-1.906 1.294v.042c0 .973.635 1.292 3.2 1.95 3.005.785 4.701 1.863 4.701 4.448v.041c0 2.943-2.246 4.595-5.443 4.595-2.248 0-4.516-.781-6.293-2.37"/><path fill="#1A81C4" d="M446.854 53.557v.409h-.79v2.059h-.488v-2.059h-.79v-.409h2.068zm2.667 2.467l-.092-1.45-.018-.689h-.025l-.21.735-.442 1.366h-.509l-.446-1.402-.172-.699h-.028l-.018.689-.091 1.45h-.472l.181-2.468h.736l.425 1.21.165.623h.01l.17-.618.428-1.215h.709l.19 2.468h-.491z"/></svg>