<?xml version="1.0" encoding="utf-8"?>
<!-- Generator: Adobe Illustrator 15.0.0, SVG Export Plug-In . SVG Version: 6.00 Build 0)  -->
<!DOCTYPE svg PUBLIC "-//W3C//DTD SVG 1.1//EN" "http://www.w3.org/Graphics/SVG/1.1/DTD/svg11.dtd">
<svg version="1.1" id="Layer_1" xmlns="http://www.w3.org/2000/svg" xmlns:xlink="http://www.w3.org/1999/xlink" x="0px" y="0px"
	 width="262.73px" height="38.857px" viewBox="0 0 262.73 38.857" enable-background="new 0 0 262.73 38.857" xml:space="preserve">
<path fill="#0056A5" d="M34.772,19.673c-1.868-1.64-2.365-3.776-2.365-5.625c0-1.297,0.401-3.547,2.232-5.225
	c1.372-1.259,3.184-2.022,6.025-2.022c1.183,0,1.888,0.077,2.765,0.191c0.725,0.095,1.335,0.267,1.907,0.324
	c0.21,0.019,0.286,0.115,0.286,0.229c0,0.153-0.057,0.382-0.095,1.049c-0.038,0.629-0.019,1.678-0.057,2.059
	c-0.019,0.286-0.058,0.439-0.229,0.439c-0.152,0-0.191-0.153-0.191-0.42c-0.019-0.591-0.267-1.258-0.743-1.754
	c-0.63-0.667-2.117-1.182-3.871-1.182c-1.659,0-2.746,0.419-3.585,1.182c-1.392,1.278-1.755,3.089-1.755,4.939
	c0,4.538,3.452,6.788,6.007,6.788c1.697,0,2.727-0.19,3.49-1.068c0.324-0.361,0.572-0.914,0.648-1.258
	c0.057-0.305,0.095-0.381,0.248-0.381c0.133,0,0.172,0.134,0.172,0.286c0,0.228-0.229,1.887-0.42,2.536
	c-0.095,0.324-0.172,0.42-0.496,0.553c-0.763,0.306-2.212,0.439-3.432,0.439C38.701,21.752,36.507,21.18,34.772,19.673"/>
<path fill="#0056A5" d="M48.063,15.444c0-2.728,1.803-6.254,6.59-6.254c3.973,0,6.445,2.314,6.445,5.967
	c0,3.654-2.552,6.542-6.605,6.542C49.914,21.699,48.063,18.268,48.063,15.444 M58.865,15.748c0-3.574-2.058-5.792-4.675-5.792
	c-1.835,0-3.925,1.021-3.925,4.994c0,3.318,1.835,5.951,4.898,5.951C56.28,20.901,58.865,20.359,58.865,15.748"/>
<path fill="#0056A5" d="M66.813,16.848c0,2.043,0,3.143,0.335,3.431c0.271,0.239,0.686,0.35,1.931,0.35
	c0.846,0,1.468-0.015,1.867-0.446c0.191-0.208,0.382-0.654,0.414-0.958c0.016-0.143,0.048-0.239,0.176-0.239
	c0.111,0,0.127,0.079,0.127,0.271c0,0.175-0.111,1.372-0.239,1.836c-0.096,0.35-0.175,0.43-1.005,0.43
	c-2.298,0-3.35-0.096-4.643-0.096c-0.367,0-1.372,0.049-2.01,0.049c-0.208,0-0.32-0.049-0.32-0.16c0-0.081,0.064-0.129,0.256-0.129
	c0.239,0,0.431-0.031,0.574-0.063c0.319-0.063,0.399-0.414,0.464-0.877c0.079-0.67,0.079-1.931,0.079-3.399V14.04
	c0-2.425,0-2.872-0.032-3.382c-0.032-0.543-0.16-0.798-0.686-0.91C63.973,9.716,63.782,9.7,63.574,9.7
	c-0.175,0-0.271-0.032-0.271-0.143c0-0.112,0.112-0.144,0.351-0.144c0.75,0,1.755,0.048,2.186,0.048c0.383,0,1.548-0.048,2.17-0.048
	c0.223,0,0.335,0.032,0.335,0.144c0,0.111-0.096,0.143-0.287,0.143c-0.176,0-0.431,0.016-0.622,0.048
	c-0.431,0.08-0.559,0.351-0.591,0.91c-0.032,0.51-0.032,0.957-0.032,3.382V16.848z"/>
<path fill="#0056A5" d="M74.739,14.04c0-2.425,0-2.872-0.032-3.383c-0.032-0.542-0.159-0.797-0.686-0.909
	C73.893,9.716,73.622,9.7,73.398,9.7c-0.175,0-0.27-0.032-0.27-0.143c0-0.112,0.111-0.144,0.35-0.144
	c0.846,0,1.851,0.048,2.33,0.048c0.383,0,1.388-0.048,1.962-0.048c0.24,0,0.352,0.032,0.352,0.144c0,0.111-0.096,0.143-0.256,0.143
	c-0.176,0-0.271,0.016-0.462,0.048c-0.431,0.08-0.559,0.351-0.591,0.909c-0.032,0.511-0.032,0.958-0.032,3.383v2.233
	c0,2.314,0.463,3.288,1.245,3.925c0.718,0.591,1.452,0.654,1.994,0.654c0.702,0,1.564-0.223,2.201-0.861
	c0.878-0.877,0.927-2.313,0.927-3.957V14.04c0-2.425,0-2.872-0.033-3.383c-0.031-0.542-0.159-0.797-0.686-0.909
	C82.301,9.716,82.031,9.7,81.855,9.7s-0.271-0.032-0.271-0.143c0-0.112,0.111-0.144,0.334-0.144c0.814,0,1.82,0.048,1.836,0.048
	c0.191,0,1.196-0.048,1.819-0.048c0.223,0,0.335,0.032,0.335,0.144c0,0.111-0.096,0.143-0.288,0.143
	c-0.175,0-0.271,0.016-0.463,0.048c-0.43,0.08-0.558,0.351-0.59,0.909c-0.032,0.511-0.032,0.958-0.032,3.383v1.708
	c0,1.77-0.175,3.653-1.515,4.802c-1.133,0.973-2.282,1.149-3.319,1.149c-0.846,0-2.378-0.048-3.542-1.101
	c-0.814-0.734-1.42-1.915-1.42-4.229V14.04z"/>
<path fill="#0056A5" d="M89.738,9.477c0.048-0.271,0.144-0.415,0.271-0.415c0.128,0,0.224,0.08,0.431,0.495l4.356,8.999l4.34-9.111
	c0.111-0.255,0.207-0.383,0.35-0.383c0.144,0,0.239,0.16,0.288,0.495l1.452,9.86c0.143,1.005,0.303,1.468,0.781,1.612
	c0.463,0.143,0.782,0.158,0.99,0.158c0.143,0,0.255,0.017,0.255,0.113c0,0.127-0.191,0.176-0.415,0.176
	c-0.399,0-2.601-0.049-3.239-0.098c-0.367-0.031-0.462-0.078-0.462-0.175c0-0.08,0.063-0.128,0.175-0.175
	c0.095-0.032,0.144-0.24,0.08-0.687l-0.958-7.02H98.37l-3.478,7.244c-0.367,0.75-0.447,0.894-0.591,0.894
	c-0.143,0-0.303-0.319-0.558-0.798c-0.383-0.734-1.643-3.176-1.835-3.623c-0.144-0.334-1.101-2.344-1.659-3.541h-0.064l-0.83,6.35
	c-0.032,0.286-0.048,0.494-0.048,0.75c0,0.303,0.208,0.447,0.479,0.511c0.287,0.062,0.51,0.078,0.67,0.078
	c0.128,0,0.239,0.033,0.239,0.113c0,0.143-0.143,0.176-0.382,0.176c-0.671,0-1.389-0.049-1.676-0.049
	c-0.303,0-1.069,0.049-1.58,0.049c-0.159,0-0.287-0.033-0.287-0.176c0-0.08,0.096-0.113,0.256-0.113c0.128,0,0.239,0,0.478-0.047
	c0.447-0.096,0.575-0.719,0.654-1.261L89.738,9.477z"/>
<path fill="#0056A5" d="M106.762,14.04c0-2.425,0-2.872-0.032-3.382c-0.031-0.543-0.159-0.798-0.686-0.91
	c-0.127-0.032-0.398-0.048-0.622-0.048c-0.175,0-0.271-0.032-0.271-0.143c0-0.112,0.112-0.143,0.351-0.143
	c0.846,0,1.851,0.047,2.17,0.047c0.782,0,1.404-0.047,1.947-0.047c2.887,0,3.398,1.547,3.398,2.393c0,1.308-0.75,2.089-1.628,2.792
	c1.308,0.447,2.904,1.579,2.904,3.445c0,1.708-1.324,3.479-4.26,3.479c-0.383,0-1.835-0.096-2.313-0.096
	c-0.367,0-1.372,0.049-2.011,0.049c-0.207,0-0.319-0.049-0.319-0.16c0-0.08,0.064-0.129,0.256-0.129c0.239,0,0.43-0.031,0.574-0.063
	c0.319-0.063,0.399-0.414,0.462-0.877c0.08-0.67,0.08-1.931,0.08-3.399V14.04z M108.677,14.312c0,0.127,0.048,0.159,0.112,0.175
	c0.143,0.031,0.383,0.048,0.75,0.048c0.526,0,0.877-0.064,1.149-0.303c0.414-0.336,0.654-0.91,0.654-1.691
	c0-1.069-0.623-2.473-1.995-2.473c-0.223,0-0.367,0-0.526,0.031c-0.112,0.032-0.144,0.096-0.144,0.272V14.312z M110.783,15.588
	c-0.335-0.24-0.702-0.352-1.324-0.383c-0.287-0.016-0.447-0.016-0.686-0.016c-0.064,0-0.096,0.032-0.096,0.112v3.781
	c0,1.053,0.048,1.324,0.558,1.532c0.431,0.175,0.798,0.19,1.165,0.19c0.718,0,1.931-0.382,1.931-2.041
	C112.331,17.774,111.995,16.434,110.783,15.588"/>
<path fill="#0056A5" d="M117.833,14.04c0-2.425,0-2.872-0.032-3.383c-0.032-0.542-0.191-0.813-0.542-0.893
	c-0.176-0.048-0.383-0.064-0.574-0.064c-0.16,0-0.256-0.032-0.256-0.16c0-0.095,0.128-0.127,0.383-0.127
	c0.606,0,1.611,0.048,2.074,0.048c0.399,0,1.341-0.048,1.947-0.048c0.207,0,0.335,0.032,0.335,0.127c0,0.128-0.096,0.16-0.255,0.16
	c-0.16,0-0.288,0.016-0.479,0.048c-0.431,0.08-0.558,0.351-0.59,0.909c-0.033,0.511-0.033,0.958-0.033,3.383v2.808
	c0,1.547,0,2.809,0.065,3.494c0.047,0.431,0.16,0.718,0.638,0.782c0.223,0.032,0.574,0.064,0.814,0.064
	c0.175,0,0.255,0.047,0.255,0.128c0,0.111-0.128,0.16-0.303,0.16c-1.053,0-2.059-0.049-2.489-0.049
	c-0.368,0-1.373,0.049-2.011,0.049c-0.207,0-0.319-0.049-0.319-0.16c0-0.081,0.064-0.128,0.255-0.128
	c0.24,0,0.431-0.032,0.575-0.064c0.319-0.063,0.415-0.335,0.462-0.798c0.08-0.669,0.08-1.931,0.08-3.478V14.04z"/>
<path fill="#0056A5" d="M127.543,17.311c-0.08,0-0.112,0.032-0.143,0.128l-0.862,2.282c-0.16,0.398-0.24,0.781-0.24,0.973
	c0,0.287,0.144,0.495,0.639,0.495h0.239c0.191,0,0.239,0.031,0.239,0.127c0,0.128-0.095,0.16-0.271,0.16
	c-0.511,0-1.196-0.048-1.691-0.048c-0.175,0-1.053,0.048-1.883,0.048c-0.207,0-0.303-0.032-0.303-0.16
	c0-0.096,0.063-0.127,0.192-0.127c0.144,0,0.366-0.017,0.494-0.032c0.734-0.096,1.037-0.638,1.357-1.436l4.004-10.02
	c0.192-0.463,0.287-0.638,0.447-0.638c0.143,0,0.239,0.143,0.399,0.51c0.383,0.878,2.936,7.387,3.957,9.813
	c0.605,1.436,1.068,1.659,1.404,1.739c0.238,0.047,0.478,0.063,0.668,0.063c0.129,0,0.209,0.015,0.209,0.127
	c0,0.128-0.145,0.16-0.734,0.16c-0.574,0-1.739,0-3.016-0.032c-0.287-0.016-0.478-0.016-0.478-0.128
	c0-0.096,0.064-0.127,0.223-0.144c0.113-0.031,0.224-0.175,0.144-0.367l-1.277-3.382c-0.031-0.08-0.079-0.112-0.159-0.112H127.543z
	 M130.798,16.514c0.08,0,0.096-0.048,0.08-0.096l-1.436-3.941c-0.016-0.064-0.032-0.144-0.08-0.144c-0.048,0-0.08,0.08-0.095,0.144
	l-1.468,3.925c-0.017,0.064,0,0.112,0.063,0.112H130.798z"/>
<path fill="#0056A5" d="M144.637,12.599c0-2.899,0-3.433-0.037-4.043c-0.039-0.649-0.19-0.953-0.82-1.087
	c-0.153-0.038-0.477-0.057-0.744-0.057c-0.21,0-0.324-0.038-0.324-0.172c0-0.133,0.135-0.172,0.42-0.172
	c1.01,0,2.213,0.058,2.784,0.058c0.457,0,1.658-0.058,2.345-0.058c0.287,0,0.42,0.039,0.42,0.172c0,0.134-0.115,0.172-0.306,0.172
	c-0.209,0-0.323,0.019-0.553,0.057c-0.515,0.095-0.667,0.42-0.705,1.087c-0.039,0.61-0.039,1.144-0.039,4.043v2.669
	c0,2.765,0.554,3.929,1.487,4.691c0.859,0.706,1.736,0.782,2.385,0.782c0.839,0,1.868-0.267,2.631-1.029
	c1.049-1.049,1.105-2.765,1.105-4.73v-2.383c0-2.899,0-3.433-0.037-4.043c-0.038-0.649-0.19-0.953-0.82-1.087
	c-0.152-0.038-0.477-0.057-0.688-0.057c-0.209,0-0.323-0.038-0.323-0.172c0-0.133,0.134-0.172,0.399-0.172
	c0.974,0,2.176,0.058,2.194,0.058c0.228,0,1.429-0.058,2.173-0.058c0.268,0,0.401,0.039,0.401,0.172
	c0,0.134-0.114,0.172-0.345,0.172c-0.209,0-0.323,0.019-0.551,0.057c-0.516,0.095-0.668,0.42-0.707,1.087
	c-0.037,0.61-0.037,1.144-0.037,4.043v2.04c0,2.117-0.211,4.367-1.812,5.74c-1.354,1.163-2.727,1.373-3.966,1.373
	c-1.011,0-2.841-0.059-4.233-1.317c-0.973-0.877-1.697-2.287-1.697-5.053V12.599z"/>
<path fill="#0056A5" d="M161.877,19.306c0.033,1.244,0.238,1.659,0.558,1.771c0.272,0.096,0.575,0.112,0.831,0.112
	c0.175,0,0.27,0.031,0.27,0.128c0,0.126-0.142,0.159-0.367,0.159c-1.035,0-1.674-0.048-1.978-0.048
	c-0.144,0-0.894,0.048-1.724,0.048c-0.207,0-0.35-0.017-0.35-0.159c0-0.097,0.096-0.128,0.254-0.128c0.207,0,0.496-0.017,0.719-0.08
	c0.414-0.128,0.479-0.591,0.494-1.979l0.145-9.445c0-0.319,0.048-0.543,0.207-0.543c0.176,0,0.318,0.208,0.591,0.496
	c0.19,0.206,2.616,2.807,4.946,5.12c1.084,1.086,3.238,3.383,3.509,3.638h0.08l-0.159-7.164c-0.016-0.973-0.158-1.276-0.542-1.435
	c-0.239-0.096-0.623-0.096-0.846-0.096c-0.192,0-0.255-0.048-0.255-0.144c0-0.127,0.175-0.143,0.414-0.143
	c0.83,0,1.596,0.048,1.931,0.048c0.176,0,0.782-0.048,1.563-0.048c0.207,0,0.367,0.016,0.367,0.143c0,0.096-0.096,0.144-0.287,0.144
	c-0.16,0-0.287,0-0.479,0.048c-0.446,0.128-0.574,0.462-0.589,1.356l-0.176,10.067c0,0.352-0.064,0.496-0.209,0.496
	c-0.174,0-0.367-0.176-0.543-0.352c-1.004-0.958-3.045-3.048-4.705-4.692c-1.739-1.723-3.51-3.717-3.799-4.02h-0.047L161.877,19.306
	z"/>
<path fill="#0056A5" d="M176.611,14.04c0-2.425,0-2.872-0.032-3.383c-0.032-0.542-0.192-0.813-0.543-0.893
	c-0.175-0.048-0.384-0.064-0.574-0.064c-0.159,0-0.256-0.032-0.256-0.16c0-0.095,0.129-0.127,0.384-0.127
	c0.605,0,1.611,0.048,2.075,0.048c0.397,0,1.34-0.048,1.946-0.048c0.207,0,0.335,0.032,0.335,0.127c0,0.128-0.097,0.16-0.255,0.16
	c-0.16,0-0.288,0.016-0.479,0.048c-0.432,0.08-0.559,0.351-0.59,0.909c-0.033,0.511-0.033,0.958-0.033,3.383v2.808
	c0,1.547,0,2.809,0.064,3.494c0.048,0.431,0.159,0.718,0.638,0.782c0.225,0.032,0.575,0.064,0.814,0.064
	c0.176,0,0.255,0.047,0.255,0.128c0,0.111-0.128,0.16-0.304,0.16c-1.052,0-2.058-0.049-2.488-0.049
	c-0.367,0-1.373,0.049-2.012,0.049c-0.205,0-0.317-0.049-0.317-0.16c0-0.081,0.063-0.128,0.255-0.128
	c0.238,0,0.432-0.032,0.575-0.064c0.317-0.063,0.413-0.335,0.462-0.798c0.08-0.669,0.08-1.931,0.08-3.478V14.04z"/>
<path fill="#0056A5" d="M183.623,10.977c-0.367-0.878-0.638-1.053-1.212-1.213c-0.24-0.064-0.495-0.064-0.623-0.064
	c-0.144,0-0.19-0.048-0.19-0.143c0-0.128,0.174-0.144,0.414-0.144c0.846,0,1.756,0.048,2.314,0.048c0.398,0,1.164-0.048,1.961-0.048
	c0.191,0,0.367,0.032,0.367,0.144c0,0.111-0.096,0.143-0.239,0.143c-0.255,0-0.495,0.016-0.622,0.112
	c-0.111,0.08-0.158,0.192-0.158,0.335c0,0.208,0.144,0.654,0.366,1.229l2.745,7.243h0.062c0.686-1.755,2.761-6.892,3.144-7.945
	c0.08-0.208,0.144-0.447,0.144-0.591c0-0.127-0.063-0.255-0.207-0.303c-0.192-0.064-0.432-0.08-0.638-0.08
	c-0.146,0-0.272-0.016-0.272-0.127c0-0.128,0.144-0.16,0.447-0.16c0.797,0,1.467,0.048,1.674,0.048c0.272,0,1.022-0.048,1.5-0.048
	c0.209,0,0.336,0.032,0.336,0.144c0,0.111-0.096,0.143-0.256,0.143c-0.158,0-0.494,0-0.781,0.192
	c-0.207,0.143-0.446,0.415-0.879,1.436c-0.621,1.5-1.051,2.361-1.914,4.323c-1.021,2.33-1.771,4.069-2.121,4.867
	c-0.414,0.925-0.51,1.181-0.734,1.181c-0.207,0-0.303-0.223-0.605-0.974L183.623,10.977z"/>
<path fill="#0056A5" d="M197.464,14.04c0-2.425,0-2.872-0.031-3.383c-0.032-0.542-0.16-0.797-0.687-0.909
	c-0.127-0.032-0.399-0.048-0.623-0.048c-0.176,0-0.271-0.032-0.271-0.143c0-0.112,0.113-0.144,0.352-0.144
	c0.846,0,1.852,0.048,2.297,0.048c0.512,0,3.688,0,3.99-0.016c0.303-0.032,0.558-0.064,0.686-0.096
	c0.08-0.016,0.175-0.064,0.255-0.064s0.097,0.064,0.097,0.144c0,0.111-0.08,0.303-0.129,1.037c-0.016,0.159-0.048,0.862-0.08,1.053
	c-0.016,0.079-0.047,0.176-0.158,0.176c-0.112,0-0.144-0.08-0.144-0.224c0-0.111-0.017-0.383-0.097-0.574
	c-0.111-0.287-0.271-0.479-1.069-0.574c-0.271-0.032-1.946-0.064-2.265-0.064c-0.08,0-0.112,0.048-0.112,0.159v4.037
	c0,0.112,0.017,0.175,0.112,0.175c0.351,0,2.187,0,2.553-0.031c0.382-0.032,0.621-0.081,0.766-0.24
	c0.112-0.127,0.176-0.208,0.256-0.208c0.062,0,0.111,0.033,0.111,0.128c0,0.096-0.08,0.351-0.127,1.164
	c-0.031,0.32-0.064,0.959-0.064,1.07c0,0.127,0,0.303-0.144,0.303c-0.112,0-0.144-0.064-0.144-0.143
	c-0.018-0.16-0.018-0.367-0.064-0.575c-0.08-0.319-0.303-0.558-0.895-0.622c-0.301-0.033-1.881-0.047-2.264-0.047
	c-0.08,0-0.097,0.063-0.097,0.159v1.26c0,0.542-0.015,2.01,0,2.473c0.032,1.101,0.287,1.341,1.914,1.341
	c0.416,0,1.086,0,1.501-0.192c0.414-0.191,0.605-0.527,0.718-1.181c0.032-0.175,0.063-0.239,0.175-0.239
	c0.129,0,0.129,0.127,0.129,0.287c0,0.367-0.129,1.452-0.209,1.771c-0.11,0.415-0.254,0.415-0.86,0.415
	c-2.409,0-3.478-0.096-4.42-0.096c-0.366,0-1.372,0.049-2.011,0.049c-0.207,0-0.318-0.049-0.318-0.16
	c0-0.081,0.064-0.128,0.255-0.128c0.239,0,0.431-0.032,0.574-0.064c0.319-0.063,0.399-0.415,0.463-0.877
	c0.08-0.67,0.08-1.931,0.08-3.399V14.04z"/>
<path fill="#0056A5" d="M208.426,14.041c0-2.426,0-2.873-0.033-3.383c-0.031-0.543-0.158-0.797-0.686-0.909
	c-0.128-0.032-0.398-0.048-0.622-0.048c-0.176,0-0.272-0.032-0.272-0.144c0-0.112,0.113-0.143,0.353-0.143
	c0.845,0,1.851,0.048,2.185,0.048c0.543,0,1.756-0.048,2.25-0.048c1.006,0,2.074,0.095,2.938,0.686
	c0.446,0.303,1.084,1.117,1.084,2.185c0,1.182-0.495,2.266-2.105,3.574c1.418,1.788,2.52,3.207,3.461,4.197
	c0.895,0.925,1.549,1.037,1.787,1.085c0.177,0.031,0.319,0.048,0.447,0.048c0.127,0,0.191,0.047,0.191,0.127
	c0,0.128-0.112,0.16-0.303,0.16h-1.517c-0.893,0-1.292-0.08-1.707-0.304c-0.686-0.367-1.292-1.116-2.186-2.345
	c-0.638-0.878-1.372-1.963-1.579-2.202c-0.081-0.095-0.176-0.111-0.287-0.111l-1.389-0.032c-0.08,0-0.129,0.032-0.129,0.128v0.223
	c0,1.484,0,2.745,0.08,3.415c0.049,0.462,0.145,0.812,0.623,0.875c0.239,0.033,0.59,0.065,0.781,0.065
	c0.127,0,0.192,0.047,0.192,0.127c0,0.112-0.112,0.16-0.319,0.16c-0.925,0-2.105-0.048-2.346-0.048
	c-0.303,0-1.309,0.048-1.946,0.048c-0.207,0-0.319-0.048-0.319-0.16c0-0.08,0.064-0.127,0.256-0.127
	c0.238,0,0.431-0.032,0.574-0.065c0.319-0.063,0.398-0.414,0.463-0.875c0.08-0.67,0.08-1.931,0.08-3.399V14.041z M210.307,15.3
	c0,0.176,0.033,0.239,0.145,0.287c0.335,0.112,0.814,0.16,1.213,0.16c0.639,0,0.846-0.064,1.133-0.271
	c0.479-0.352,0.941-1.085,0.941-2.394c0-2.265-1.5-2.92-2.441-2.92c-0.398,0-0.687,0.016-0.846,0.065
	c-0.111,0.031-0.145,0.095-0.145,0.223V15.3z"/>
<path fill="#0056A5" d="M220.566,21.284c-0.255-0.112-0.303-0.192-0.303-0.543c0-0.877,0.063-1.835,0.08-2.09
	c0.015-0.24,0.063-0.415,0.191-0.415c0.143,0,0.16,0.144,0.16,0.272c0,0.207,0.062,0.542,0.143,0.813
	c0.352,1.181,1.293,1.612,2.281,1.612c1.437,0,2.138-0.974,2.138-1.819c0-0.782-0.238-1.532-1.562-2.553l-0.733-0.574
	c-1.756-1.373-2.363-2.489-2.363-3.782c0-1.755,1.469-3.015,3.687-3.015c1.037,0,1.707,0.159,2.122,0.271
	c0.143,0.032,0.223,0.08,0.223,0.191c0,0.208-0.063,0.671-0.063,1.915c0,0.351-0.048,0.479-0.175,0.479
	c-0.112,0-0.159-0.096-0.159-0.288c0-0.143-0.08-0.638-0.415-1.052c-0.24-0.304-0.702-0.782-1.74-0.782
	c-1.18,0-1.898,0.686-1.898,1.643c0,0.734,0.367,1.292,1.691,2.297l0.447,0.336c1.915,1.483,2.617,2.553,2.617,4.068
	c0,0.926-0.353,2.027-1.501,2.777c-0.797,0.51-1.69,0.654-2.536,0.654C221.971,21.699,221.252,21.587,220.566,21.284"/>
<path fill="#0056A5" d="M231.439,14.04c0-2.425,0-2.872-0.032-3.383c-0.031-0.542-0.19-0.813-0.542-0.893
	c-0.176-0.048-0.384-0.064-0.574-0.064c-0.16,0-0.255-0.032-0.255-0.16c0-0.095,0.127-0.127,0.383-0.127
	c0.605,0,1.61,0.048,2.073,0.048c0.398,0,1.341-0.048,1.946-0.048c0.208,0,0.335,0.032,0.335,0.127c0,0.128-0.095,0.16-0.255,0.16
	c-0.159,0-0.287,0.016-0.478,0.048c-0.432,0.08-0.56,0.351-0.591,0.909c-0.032,0.511-0.032,0.958-0.032,3.383v2.808
	c0,1.547,0,2.809,0.063,3.494c0.048,0.431,0.159,0.718,0.639,0.782c0.224,0.032,0.574,0.064,0.813,0.064
	c0.176,0,0.255,0.047,0.255,0.128c0,0.111-0.127,0.16-0.303,0.16c-1.053,0-2.058-0.049-2.489-0.049c-0.367,0-1.372,0.049-2.01,0.049
	c-0.208,0-0.319-0.049-0.319-0.16c0-0.081,0.063-0.128,0.256-0.128c0.238,0,0.431-0.032,0.573-0.064
	c0.32-0.063,0.415-0.335,0.463-0.798c0.08-0.669,0.08-1.931,0.08-3.478V14.04z"/>
<path fill="#0056A5" d="M242.337,10.307l-2.377,0.064c-0.925,0.031-1.308,0.111-1.547,0.462c-0.16,0.24-0.24,0.431-0.271,0.559
	c-0.033,0.127-0.081,0.191-0.178,0.191c-0.11,0-0.143-0.079-0.143-0.255c0-0.255,0.303-1.707,0.335-1.835
	c0.048-0.207,0.096-0.303,0.19-0.303c0.127,0,0.287,0.16,0.688,0.192c0.462,0.047,1.069,0.079,1.596,0.079h6.317
	c1.021,0,1.404-0.159,1.532-0.159c0.111,0,0.128,0.096,0.128,0.335c0,0.335-0.048,1.436-0.048,1.851
	c-0.017,0.159-0.049,0.255-0.144,0.255c-0.128,0-0.16-0.08-0.177-0.319l-0.016-0.176c-0.031-0.415-0.462-0.861-1.884-0.893
	l-2.009-0.048v6.541c0,1.468,0,2.729,0.078,3.415c0.049,0.447,0.145,0.798,0.624,0.861c0.224,0.032,0.573,0.065,0.812,0.065
	c0.177,0,0.257,0.047,0.257,0.127c0,0.11-0.129,0.159-0.304,0.159c-1.054,0-2.059-0.049-2.506-0.049
	c-0.367,0-1.371,0.049-2.01,0.049c-0.207,0-0.319-0.049-0.319-0.159c0-0.08,0.064-0.127,0.256-0.127
	c0.239,0,0.431-0.033,0.574-0.065c0.319-0.063,0.414-0.414,0.462-0.877c0.08-0.67,0.08-1.931,0.08-3.399V10.307z"/>
<path fill="#0056A5" d="M255.564,17.343c0-0.862-0.158-1.212-0.366-1.675c-0.111-0.256-2.25-3.765-2.809-4.595
	c-0.397-0.591-0.797-0.989-1.101-1.165c-0.207-0.112-0.479-0.207-0.67-0.207c-0.128,0-0.239-0.032-0.239-0.144
	c0-0.096,0.111-0.143,0.303-0.143c0.287,0,1.484,0.047,2.011,0.047c0.335,0,0.988-0.047,1.708-0.047
	c0.158,0,0.239,0.047,0.239,0.143c0,0.096-0.113,0.112-0.352,0.175c-0.145,0.033-0.225,0.16-0.225,0.288
	c0,0.128,0.08,0.319,0.192,0.542c0.223,0.479,2.457,4.324,2.713,4.771c0.159-0.383,2.168-3.893,2.394-4.388
	c0.158-0.351,0.223-0.622,0.223-0.83c0-0.159-0.064-0.334-0.335-0.398c-0.145-0.032-0.287-0.064-0.287-0.16
	c0-0.112,0.08-0.143,0.271-0.143c0.526,0,1.036,0.047,1.499,0.047c0.352,0,1.404-0.047,1.707-0.047c0.177,0,0.287,0.031,0.287,0.127
	c0,0.112-0.127,0.16-0.302,0.16c-0.161,0-0.463,0.064-0.703,0.191c-0.335,0.16-0.51,0.351-0.86,0.782
	c-0.527,0.638-2.762,4.388-3.049,5.074c-0.238,0.574-0.238,1.069-0.238,1.595v1.309c0,0.255,0,0.925,0.048,1.596
	c0.031,0.462,0.175,0.812,0.654,0.876c0.223,0.032,0.573,0.065,0.798,0.065c0.175,0,0.254,0.047,0.254,0.127
	c0,0.11-0.126,0.159-0.334,0.159c-1.005,0-2.011-0.049-2.441-0.049c-0.398,0-1.404,0.049-1.995,0.049
	c-0.223,0-0.351-0.032-0.351-0.159c0-0.08,0.08-0.127,0.255-0.127c0.224,0,0.415-0.033,0.559-0.065
	c0.319-0.064,0.464-0.414,0.494-0.876c0.048-0.671,0.048-1.341,0.048-1.596V17.343z"/>
<path fill="#0056A5" d="M34.554,30.828c0-1.594,0-1.888-0.021-2.223c-0.021-0.355-0.126-0.533-0.356-0.586
	c-0.115-0.031-0.252-0.042-0.377-0.042c-0.105,0-0.168-0.021-0.168-0.104c0-0.062,0.084-0.084,0.251-0.084
	c0.399,0,1.059,0.031,1.363,0.031c0.262,0,0.88-0.031,1.278-0.031c0.136,0,0.22,0.021,0.22,0.084c0,0.084-0.063,0.104-0.168,0.104
	c-0.104,0-0.188,0.011-0.314,0.031c-0.283,0.053-0.367,0.231-0.388,0.597c-0.021,0.335-0.021,0.629-0.021,2.223v1.844
	c0,1.016,0,1.845,0.042,2.295c0.032,0.283,0.105,0.472,0.419,0.513c0.147,0.021,0.377,0.042,0.534,0.042
	c0.116,0,0.168,0.031,0.168,0.084c0,0.073-0.084,0.105-0.199,0.105c-0.691,0-1.352-0.032-1.634-0.032
	c-0.241,0-0.901,0.032-1.321,0.032c-0.136,0-0.209-0.032-0.209-0.105c0-0.053,0.042-0.084,0.168-0.084
	c0.157,0,0.282-0.021,0.377-0.042c0.209-0.041,0.272-0.22,0.303-0.524c0.053-0.438,0.053-1.268,0.053-2.283V30.828z"/>
<path fill="#0056A5" d="M40.412,34.285c0.021,0.816,0.157,1.089,0.367,1.164c0.178,0.062,0.377,0.072,0.544,0.072
	c0.115,0,0.179,0.021,0.179,0.085c0,0.083-0.095,0.104-0.241,0.104c-0.681,0-1.101-0.032-1.3-0.032
	c-0.094,0-0.586,0.032-1.131,0.032c-0.137,0-0.231-0.01-0.231-0.104c0-0.064,0.063-0.085,0.168-0.085
	c0.136,0,0.325-0.01,0.471-0.053c0.273-0.084,0.315-0.388,0.325-1.3l0.095-6.202c0-0.209,0.031-0.355,0.136-0.355
	c0.115,0,0.21,0.135,0.387,0.324c0.126,0.137,1.719,1.845,3.248,3.363c0.713,0.713,2.127,2.221,2.306,2.389h0.052l-0.105-4.704
	c-0.01-0.64-0.104-0.839-0.356-0.943c-0.157-0.063-0.409-0.063-0.555-0.063c-0.126,0-0.168-0.029-0.168-0.094
	c0-0.084,0.115-0.094,0.273-0.094c0.544,0,1.047,0.031,1.267,0.031c0.116,0,0.514-0.031,1.027-0.031c0.136,0,0.241,0.01,0.241,0.094
	c0,0.064-0.063,0.094-0.189,0.094c-0.104,0-0.188,0-0.314,0.033c-0.293,0.084-0.377,0.303-0.388,0.891l-0.115,6.611
	c0,0.23-0.042,0.324-0.136,0.324c-0.115,0-0.241-0.115-0.356-0.229c-0.66-0.63-2.002-2.003-3.091-3.081
	c-1.142-1.133-2.305-2.441-2.494-2.641h-0.031L40.412,34.285z"/>
<path fill="#0056A5" d="M55.353,28.376l-1.561,0.042c-0.608,0.021-0.859,0.073-1.016,0.305c-0.105,0.156-0.158,0.282-0.178,0.366
	c-0.021,0.083-0.053,0.125-0.115,0.125c-0.074,0-0.096-0.052-0.096-0.167c0-0.168,0.2-1.122,0.221-1.206
	c0.031-0.136,0.063-0.198,0.125-0.198c0.084,0,0.189,0.104,0.451,0.125c0.304,0.031,0.702,0.053,1.048,0.053h4.149
	c0.336,0,0.566-0.031,0.723-0.053c0.158-0.031,0.241-0.052,0.283-0.052c0.074,0,0.084,0.063,0.084,0.22
	c0,0.22-0.031,0.943-0.031,1.215c-0.011,0.104-0.032,0.168-0.095,0.168c-0.083,0-0.104-0.051-0.115-0.209l-0.011-0.115
	c-0.02-0.271-0.303-0.566-1.236-0.587l-1.32-0.031v4.296c0,0.964,0,1.791,0.052,2.242c0.032,0.293,0.095,0.523,0.409,0.566
	c0.147,0.021,0.377,0.041,0.534,0.041c0.116,0,0.168,0.031,0.168,0.084c0,0.072-0.084,0.104-0.199,0.104
	c-0.692,0-1.352-0.032-1.645-0.032c-0.241,0-0.901,0.032-1.321,0.032c-0.136,0-0.209-0.032-0.209-0.104
	c0-0.053,0.042-0.084,0.168-0.084c0.157,0,0.283-0.021,0.377-0.041c0.209-0.043,0.272-0.273,0.303-0.578
	c0.053-0.439,0.053-1.267,0.053-2.23V28.376z"/>
<path fill="#0056A5" d="M67.308,31.121c0.031,0,0.063-0.021,0.063-0.073v-0.22c0-1.594,0-1.887-0.021-2.223
	c-0.021-0.355-0.105-0.521-0.45-0.597c-0.084-0.021-0.262-0.031-0.409-0.031c-0.115,0-0.178-0.021-0.178-0.094
	s0.073-0.095,0.22-0.095c0.566,0,1.226,0.031,1.509,0.031c0.251,0,0.911-0.031,1.319-0.031c0.147,0,0.221,0.021,0.221,0.095
	s-0.063,0.094-0.189,0.094c-0.083,0-0.178,0.011-0.303,0.031c-0.284,0.052-0.367,0.231-0.388,0.597
	c-0.021,0.336-0.021,0.629-0.021,2.223v1.844c0,0.964,0,1.791,0.052,2.242c0.032,0.293,0.095,0.525,0.409,0.565
	c0.146,0.021,0.377,0.042,0.534,0.042c0.115,0,0.168,0.031,0.168,0.084c0,0.073-0.084,0.105-0.209,0.105
	c-0.682,0-1.342-0.032-1.635-0.032c-0.241,0-0.901,0.032-1.31,0.032c-0.147,0-0.22-0.032-0.22-0.105
	c0-0.053,0.042-0.084,0.168-0.084c0.157,0,0.283-0.021,0.377-0.042c0.209-0.04,0.262-0.272,0.304-0.575
	c0.052-0.441,0.052-1.269,0.052-2.232V31.75c0-0.042-0.032-0.063-0.063-0.063h-4.002c-0.032,0-0.063,0.011-0.063,0.063v0.922
	c0,0.964,0,1.791,0.052,2.242c0.032,0.293,0.094,0.525,0.409,0.565c0.147,0.021,0.377,0.042,0.534,0.042
	c0.116,0,0.168,0.031,0.168,0.084c0,0.073-0.084,0.105-0.21,0.105c-0.681,0-1.341-0.032-1.634-0.032
	c-0.241,0-0.901,0.032-1.321,0.032c-0.136,0-0.209-0.032-0.209-0.105c0-0.053,0.042-0.084,0.168-0.084
	c0.157,0,0.282-0.021,0.377-0.042c0.209-0.04,0.262-0.272,0.304-0.575c0.052-0.441,0.052-1.269,0.052-2.232v-1.844
	c0-1.594,0-1.887-0.021-2.223c-0.021-0.355-0.105-0.521-0.451-0.597c-0.083-0.021-0.261-0.031-0.408-0.031
	c-0.115,0-0.178-0.021-0.178-0.094s0.073-0.095,0.22-0.095c0.566,0,1.226,0.031,1.508,0.031c0.252,0,0.912-0.031,1.321-0.031
	c0.147,0,0.22,0.021,0.22,0.095s-0.063,0.094-0.189,0.094c-0.084,0-0.178,0.011-0.304,0.031c-0.282,0.052-0.366,0.231-0.387,0.597
	c-0.021,0.336-0.021,0.629-0.021,2.223v0.22c0,0.053,0.031,0.073,0.063,0.073H67.308z"/>
<path fill="#0056A5" d="M72.651,30.828c0-1.594,0-1.888-0.021-2.223c-0.021-0.355-0.105-0.521-0.451-0.597
	c-0.083-0.021-0.261-0.031-0.408-0.031c-0.115,0-0.178-0.021-0.178-0.094s0.073-0.095,0.23-0.095c0.555,0,1.216,0.031,1.509,0.031
	c0.335,0,2.421,0,2.619-0.01c0.199-0.021,0.367-0.043,0.451-0.064c0.053-0.01,0.115-0.041,0.168-0.041
	c0.052,0,0.063,0.041,0.063,0.095c0,0.073-0.053,0.198-0.084,0.681c-0.011,0.105-0.032,0.566-0.053,0.692
	c-0.01,0.053-0.031,0.114-0.105,0.114c-0.073,0-0.094-0.053-0.094-0.146c0-0.074-0.01-0.251-0.063-0.377
	c-0.072-0.189-0.178-0.314-0.701-0.378c-0.179-0.021-1.279-0.041-1.489-0.041c-0.052,0-0.072,0.03-0.072,0.104v2.651
	c0,0.073,0.01,0.114,0.072,0.114c0.231,0,1.436,0,1.677-0.021c0.251-0.021,0.409-0.052,0.503-0.157
	c0.073-0.084,0.115-0.137,0.167-0.137c0.043,0,0.074,0.022,0.074,0.084c0,0.063-0.052,0.23-0.084,0.766
	c-0.021,0.209-0.042,0.627-0.042,0.701c0,0.084,0,0.199-0.094,0.199c-0.073,0-0.095-0.042-0.095-0.094
	c-0.01-0.105-0.01-0.241-0.042-0.378c-0.052-0.209-0.198-0.366-0.586-0.408c-0.199-0.021-1.237-0.03-1.488-0.03
	c-0.052,0-0.062,0.041-0.062,0.104v0.828c0,0.355-0.011,1.32,0,1.623c0.02,0.724,0.188,0.881,1.256,0.881
	c0.273,0,0.713,0,0.985-0.126c0.273-0.125,0.398-0.345,0.472-0.775c0.02-0.114,0.042-0.157,0.115-0.157
	c0.084,0,0.084,0.084,0.084,0.189c0,0.24-0.084,0.953-0.136,1.163c-0.074,0.272-0.168,0.272-0.566,0.272
	c-1.582,0-2.284-0.063-2.902-0.063c-0.241,0-0.902,0.032-1.321,0.032c-0.136,0-0.209-0.032-0.209-0.105
	c0-0.053,0.041-0.084,0.168-0.084c0.157,0,0.283-0.021,0.377-0.042c0.209-0.041,0.262-0.272,0.303-0.575
	c0.053-0.441,0.053-1.269,0.053-2.232V30.828z"/>
<path fill="#0056A5" d="M83.642,34.715c-1.027-0.902-1.299-2.074-1.299-3.091c0-0.712,0.22-1.948,1.225-2.871
	c0.755-0.69,1.75-1.11,3.312-1.11c0.649,0,1.037,0.041,1.519,0.104c0.398,0.053,0.733,0.147,1.048,0.178
	c0.115,0.011,0.157,0.063,0.157,0.127c0,0.083-0.032,0.209-0.053,0.575c-0.02,0.347-0.01,0.922-0.031,1.132
	C89.509,29.917,89.489,30,89.394,30c-0.084,0-0.104-0.083-0.104-0.23c-0.011-0.326-0.147-0.691-0.409-0.965
	c-0.346-0.365-1.163-0.648-2.127-0.648c-0.912,0-1.509,0.23-1.97,0.648c-0.765,0.702-0.964,1.698-0.964,2.715
	c0,2.493,1.896,3.729,3.301,3.729c0.932,0,1.498-0.104,1.917-0.586c0.178-0.2,0.315-0.503,0.356-0.692
	c0.031-0.168,0.053-0.209,0.137-0.209c0.073,0,0.094,0.073,0.094,0.157c0,0.125-0.126,1.037-0.231,1.394
	c-0.052,0.178-0.094,0.23-0.272,0.303c-0.419,0.168-1.216,0.242-1.886,0.242C85.8,35.857,84.595,35.543,83.642,34.715"/>
<path fill="#0056A5" d="M92.401,30.828c0-1.594,0-1.888-0.021-2.223c-0.021-0.355-0.126-0.533-0.356-0.586
	c-0.116-0.031-0.252-0.042-0.378-0.042c-0.105,0-0.167-0.021-0.167-0.104c0-0.062,0.084-0.084,0.251-0.084
	c0.398,0,1.058,0.031,1.363,0.031c0.261,0,0.879-0.031,1.277-0.031c0.137,0,0.22,0.021,0.22,0.084c0,0.084-0.062,0.104-0.167,0.104
	c-0.105,0-0.189,0.011-0.314,0.031c-0.284,0.053-0.367,0.231-0.388,0.597c-0.021,0.335-0.021,0.629-0.021,2.223v1.844
	c0,1.016,0,1.845,0.042,2.295c0.031,0.283,0.105,0.472,0.419,0.513c0.147,0.021,0.377,0.042,0.534,0.042
	c0.115,0,0.168,0.031,0.168,0.084c0,0.073-0.084,0.105-0.199,0.105c-0.692,0-1.352-0.032-1.635-0.032
	c-0.241,0-0.901,0.032-1.32,0.032c-0.136,0-0.21-0.032-0.21-0.105c0-0.053,0.042-0.084,0.168-0.084c0.157,0,0.283-0.021,0.378-0.042
	c0.209-0.041,0.272-0.22,0.303-0.524c0.053-0.438,0.053-1.268,0.053-2.283V30.828z"/>
<path fill="#0056A5" d="M99.065,28.376l-1.561,0.042c-0.608,0.021-0.859,0.073-1.016,0.305c-0.106,0.156-0.158,0.282-0.179,0.366
	c-0.02,0.083-0.052,0.125-0.115,0.125c-0.073,0-0.094-0.052-0.094-0.167c0-0.168,0.198-1.122,0.22-1.206
	c0.031-0.136,0.062-0.198,0.125-0.198c0.084,0,0.189,0.104,0.451,0.125c0.304,0.031,0.702,0.053,1.048,0.053h4.149
	c0.335,0,0.566-0.031,0.723-0.053c0.157-0.031,0.241-0.052,0.283-0.052c0.073,0,0.084,0.063,0.084,0.22
	c0,0.22-0.032,0.943-0.032,1.215c-0.01,0.104-0.032,0.168-0.094,0.168c-0.084,0-0.105-0.051-0.115-0.209l-0.011-0.115
	c-0.021-0.271-0.304-0.566-1.236-0.587l-1.32-0.031v4.296c0,0.964,0,1.791,0.052,2.242c0.032,0.293,0.094,0.523,0.409,0.566
	c0.146,0.021,0.377,0.041,0.534,0.041c0.116,0,0.168,0.031,0.168,0.084c0,0.072-0.084,0.104-0.199,0.104
	c-0.692,0-1.352-0.032-1.645-0.032c-0.241,0-0.901,0.032-1.321,0.032c-0.136,0-0.209-0.032-0.209-0.104
	c0-0.053,0.041-0.084,0.168-0.084c0.157,0,0.282-0.021,0.377-0.041c0.209-0.043,0.272-0.273,0.303-0.578
	c0.053-0.439,0.053-1.267,0.053-2.23V28.376z"/>
<path fill="#0056A5" d="M106.87,32.996c0-0.565-0.105-0.795-0.241-1.101c-0.074-0.167-1.478-2.472-1.844-3.017
	c-0.262-0.389-0.524-0.649-0.723-0.766c-0.136-0.074-0.314-0.136-0.44-0.136c-0.084,0-0.157-0.021-0.157-0.094
	c0-0.063,0.073-0.095,0.199-0.095c0.188,0,0.974,0.031,1.32,0.031c0.22,0,0.649-0.031,1.121-0.031c0.105,0,0.157,0.031,0.157,0.095
	s-0.073,0.073-0.23,0.114c-0.095,0.021-0.147,0.104-0.147,0.188s0.052,0.209,0.126,0.357c0.147,0.313,1.613,2.839,1.781,3.132
	c0.105-0.251,1.425-2.557,1.571-2.88c0.105-0.232,0.147-0.41,0.147-0.546c0-0.104-0.042-0.221-0.219-0.262
	c-0.095-0.021-0.189-0.041-0.189-0.104c0-0.074,0.052-0.095,0.178-0.095c0.346,0,0.681,0.031,0.985,0.031
	c0.23,0,0.922-0.031,1.121-0.031c0.115,0,0.189,0.021,0.189,0.082c0,0.076-0.084,0.106-0.2,0.106c-0.104,0-0.303,0.042-0.461,0.125
	c-0.22,0.105-0.335,0.231-0.566,0.515c-0.345,0.418-1.812,2.881-2.001,3.332c-0.157,0.377-0.157,0.701-0.157,1.047v0.858
	c0,0.169,0,0.608,0.032,1.048c0.02,0.305,0.115,0.536,0.429,0.577c0.147,0.022,0.377,0.042,0.524,0.042
	c0.116,0,0.168,0.031,0.168,0.084c0,0.073-0.084,0.105-0.22,0.105c-0.661,0-1.321-0.032-1.604-0.032
	c-0.262,0-0.922,0.032-1.309,0.032c-0.147,0-0.231-0.021-0.231-0.105c0-0.053,0.053-0.084,0.168-0.084
	c0.147,0,0.272-0.02,0.367-0.042c0.209-0.041,0.303-0.272,0.325-0.577c0.031-0.439,0.031-0.879,0.031-1.048V32.996z"/>
<path fill="#0056A5" d="M115.786,31.75c0-1.791,1.184-4.107,4.327-4.107c2.609,0,4.234,1.52,4.234,3.918
	c0,2.4-1.676,4.296-4.338,4.296C117.001,35.856,115.786,33.604,115.786,31.75 M122.88,31.948c0-2.347-1.352-3.803-3.071-3.803
	c-1.204,0-2.577,0.67-2.577,3.278c0,2.181,1.205,3.908,3.217,3.908C121.182,35.332,122.88,34.977,122.88,31.948"/>
<path fill="#0056A5" d="M128.393,32.672c0,1.006,0,1.791,0.053,2.231c0.031,0.304,0.094,0.534,0.408,0.577
	c0.147,0.021,0.377,0.041,0.524,0.041c0.136,0,0.179,0.031,0.179,0.085c0,0.071-0.074,0.104-0.231,0.104
	c-0.66,0-1.32-0.032-1.593-0.032c-0.272,0-0.932,0.032-1.331,0.032c-0.147,0-0.219-0.021-0.219-0.104
	c0-0.054,0.042-0.085,0.157-0.085c0.157,0,0.282-0.021,0.377-0.041c0.21-0.043,0.261-0.273,0.304-0.577
	c0.052-0.44,0.052-1.226,0.052-2.231v-1.844c0-1.594,0-1.887-0.021-2.222c-0.021-0.357-0.105-0.523-0.45-0.597
	c-0.084-0.021-0.262-0.033-0.409-0.033c-0.105,0-0.178-0.02-0.178-0.084c0-0.082,0.084-0.104,0.24-0.104
	c0.546,0,1.206,0.032,1.51,0.032c0.397,0,2.525,0,2.765-0.011c0.2-0.012,0.325-0.012,0.43-0.043
	c0.063-0.021,0.115-0.062,0.168-0.062c0.042,0,0.073,0.041,0.073,0.094c0,0.073-0.052,0.199-0.084,0.473
	c-0.01,0.104-0.031,0.723-0.052,0.848c-0.01,0.084-0.031,0.148-0.105,0.148c-0.073,0-0.094-0.053-0.105-0.168
	c0-0.084,0-0.252-0.062-0.399c-0.073-0.146-0.294-0.304-0.692-0.313l-1.614-0.033c-0.063,0-0.094,0.033-0.094,0.148v2.619
	c0,0.062,0.01,0.094,0.074,0.094l1.341-0.01c0.178,0,0.324,0,0.471-0.011c0.199-0.011,0.346-0.052,0.451-0.188
	c0.052-0.063,0.073-0.104,0.136-0.104c0.041,0,0.063,0.03,0.063,0.094s-0.053,0.325-0.084,0.649
	c-0.021,0.209-0.042,0.691-0.042,0.765c0,0.095,0,0.2-0.105,0.2c-0.062,0-0.084-0.074-0.084-0.146c0-0.074-0.02-0.199-0.062-0.326
	c-0.053-0.146-0.209-0.334-0.535-0.377c-0.261-0.031-1.372-0.031-1.55-0.031c-0.053,0-0.074,0.021-0.074,0.095V32.672z"/>
<path fill="#0056A5" d="M138.389,34.285c0.021,0.816,0.158,1.089,0.366,1.164c0.179,0.062,0.378,0.072,0.546,0.072
	c0.115,0,0.178,0.021,0.178,0.085c0,0.083-0.094,0.104-0.24,0.104c-0.682,0-1.102-0.032-1.301-0.032
	c-0.094,0-0.586,0.032-1.131,0.032c-0.137,0-0.23-0.01-0.23-0.104c0-0.064,0.062-0.085,0.168-0.085c0.136,0,0.325-0.01,0.473-0.053
	c0.271-0.084,0.312-0.388,0.324-1.3l0.094-6.202c0-0.209,0.031-0.355,0.137-0.355c0.115,0,0.209,0.135,0.388,0.324
	c0.125,0.137,1.718,1.845,3.247,3.363c0.713,0.713,2.127,2.221,2.305,2.389h0.053l-0.104-4.704c-0.012-0.64-0.105-0.839-0.357-0.943
	c-0.158-0.063-0.408-0.063-0.555-0.063c-0.127,0-0.168-0.029-0.168-0.094c0-0.084,0.116-0.094,0.271-0.094
	c0.545,0,1.049,0.031,1.269,0.031c0.114,0,0.513-0.031,1.026-0.031c0.137,0,0.242,0.01,0.242,0.094c0,0.064-0.063,0.094-0.188,0.094
	c-0.104,0-0.188,0-0.315,0.033c-0.293,0.084-0.377,0.303-0.387,0.891l-0.115,6.611c0,0.23-0.043,0.324-0.137,0.324
	c-0.115,0-0.241-0.115-0.355-0.229c-0.66-0.63-2.002-2.003-3.092-3.081c-1.142-1.133-2.305-2.441-2.494-2.641h-0.031L138.389,34.285
	z"/>
<path fill="#0056A5" d="M148.26,30.828c0-1.594,0-1.888-0.022-2.223c-0.021-0.355-0.103-0.521-0.449-0.597
	c-0.085-0.021-0.262-0.031-0.409-0.031c-0.115,0-0.178-0.021-0.178-0.094s0.073-0.095,0.23-0.095c0.556,0,1.215,0.031,1.508,0.031
	c0.337,0,2.421,0,2.621-0.01c0.197-0.021,0.365-0.043,0.449-0.064c0.053-0.01,0.116-0.041,0.168-0.041
	c0.053,0,0.063,0.041,0.063,0.095c0,0.073-0.052,0.198-0.084,0.681c-0.011,0.105-0.031,0.566-0.054,0.692
	c-0.01,0.053-0.03,0.114-0.104,0.114c-0.074,0-0.095-0.053-0.095-0.146c0-0.074-0.011-0.251-0.062-0.377
	c-0.076-0.189-0.18-0.314-0.703-0.378c-0.178-0.021-1.277-0.041-1.488-0.041c-0.053,0-0.074,0.03-0.074,0.104v2.651
	c0,0.073,0.012,0.114,0.074,0.114c0.23,0,1.436,0,1.678-0.021c0.25-0.021,0.408-0.052,0.502-0.157
	c0.073-0.084,0.115-0.137,0.168-0.137c0.042,0,0.073,0.022,0.073,0.084c0,0.063-0.054,0.23-0.084,0.766
	c-0.021,0.209-0.042,0.627-0.042,0.701c0,0.084,0,0.199-0.094,0.199c-0.074,0-0.096-0.042-0.096-0.094
	c-0.01-0.105-0.01-0.241-0.041-0.378c-0.053-0.209-0.199-0.366-0.586-0.408c-0.199-0.021-1.236-0.03-1.488-0.03
	c-0.053,0-0.064,0.041-0.064,0.104v0.828c0,0.355-0.01,1.32,0,1.623c0.021,0.724,0.189,0.881,1.26,0.881
	c0.271,0,0.711,0,0.983-0.126c0.272-0.125,0.397-0.345,0.472-0.775c0.02-0.114,0.041-0.157,0.115-0.157
	c0.084,0,0.084,0.084,0.084,0.189c0,0.24-0.084,0.953-0.137,1.163c-0.073,0.272-0.166,0.272-0.565,0.272
	c-1.583,0-2.284-0.063-2.903-0.063c-0.24,0-0.899,0.032-1.319,0.032c-0.136,0-0.209-0.032-0.209-0.105
	c0-0.053,0.042-0.084,0.168-0.084c0.155,0,0.282-0.021,0.377-0.042c0.209-0.041,0.262-0.272,0.303-0.575
	c0.054-0.441,0.054-1.269,0.054-2.232V30.828z"/>
<path fill="#0056A5" d="M154.482,28.816c-0.125-0.389-0.24-0.64-0.388-0.744c-0.114-0.074-0.325-0.096-0.419-0.096
	c-0.105,0-0.168-0.01-0.168-0.093c0-0.074,0.084-0.095,0.23-0.095c0.545,0,1.121,0.031,1.217,0.031c0.094,0,0.555-0.031,1.162-0.031
	c0.146,0,0.221,0.031,0.221,0.095c0,0.083-0.084,0.093-0.189,0.093c-0.084,0-0.188,0-0.262,0.043
	c-0.094,0.043-0.115,0.115-0.115,0.23c0,0.136,0.104,0.492,0.23,0.964c0.179,0.692,1.154,3.867,1.342,4.453h0.031l2.033-5.459
	c0.114-0.293,0.178-0.377,0.262-0.377c0.115,0,0.168,0.157,0.303,0.493l2.18,5.27h0.031c0.189-0.702,1.028-3.469,1.395-4.693
	c0.072-0.242,0.104-0.461,0.104-0.608c0-0.167-0.094-0.315-0.502-0.315c-0.105,0-0.178-0.029-0.178-0.093
	c0-0.074,0.082-0.095,0.24-0.095c0.556,0,0.996,0.031,1.09,0.031c0.072,0,0.523-0.031,0.869-0.031c0.117,0,0.189,0.021,0.189,0.083
	c0,0.075-0.053,0.104-0.146,0.104c-0.105,0-0.252,0.012-0.366,0.053c-0.253,0.096-0.367,0.515-0.589,1.111
	c-0.481,1.32-1.582,4.652-2.094,6.225c-0.117,0.365-0.168,0.492-0.305,0.492c-0.105,0-0.167-0.127-0.324-0.514l-2.18-5.25h-0.021
	c-0.199,0.534-1.593,4.244-2.043,5.208c-0.199,0.429-0.25,0.556-0.377,0.556c-0.104,0-0.158-0.115-0.24-0.389L154.482,28.816z"/>
<path fill="#0056A5" d="M172.17,32.996c0-0.565-0.105-0.795-0.241-1.101c-0.075-0.167-1.478-2.472-1.845-3.017
	c-0.262-0.389-0.524-0.649-0.723-0.766c-0.137-0.074-0.314-0.136-0.441-0.136c-0.084,0-0.156-0.021-0.156-0.094
	c0-0.063,0.072-0.095,0.199-0.095c0.188,0,0.976,0.031,1.32,0.031c0.221,0,0.649-0.031,1.121-0.031c0.105,0,0.156,0.031,0.156,0.095
	s-0.072,0.073-0.23,0.114c-0.095,0.021-0.146,0.104-0.146,0.188s0.052,0.209,0.126,0.357c0.147,0.313,1.614,2.839,1.781,3.132
	c0.104-0.251,1.426-2.557,1.571-2.88c0.105-0.232,0.148-0.41,0.148-0.546c0-0.104-0.043-0.221-0.221-0.262
	c-0.096-0.021-0.189-0.041-0.189-0.104c0-0.074,0.053-0.095,0.178-0.095c0.347,0,0.682,0.031,0.985,0.031
	c0.231,0,0.922-0.031,1.121-0.031c0.116,0,0.188,0.021,0.188,0.082c0,0.076-0.084,0.106-0.198,0.106
	c-0.105,0-0.304,0.042-0.462,0.125c-0.219,0.105-0.336,0.231-0.565,0.515c-0.346,0.418-1.812,2.881-2.001,3.332
	c-0.158,0.377-0.158,0.701-0.158,1.047v0.858c0,0.169,0,0.608,0.031,1.048c0.021,0.305,0.117,0.536,0.432,0.577
	c0.146,0.022,0.377,0.042,0.523,0.042c0.115,0,0.167,0.031,0.167,0.084c0,0.073-0.084,0.105-0.22,0.105
	c-0.661,0-1.32-0.032-1.604-0.032c-0.262,0-0.921,0.032-1.309,0.032c-0.146,0-0.23-0.021-0.23-0.105
	c0-0.053,0.051-0.084,0.168-0.084c0.146,0,0.271-0.02,0.365-0.042c0.21-0.041,0.303-0.272,0.325-0.577
	c0.032-0.439,0.032-0.879,0.032-1.048V32.996z"/>
<path fill="#0056A5" d="M177.2,31.75c0-1.791,1.185-4.107,4.327-4.107c2.609,0,4.232,1.52,4.232,3.918
	c0,2.4-1.674,4.296-4.336,4.296C178.416,35.856,177.2,33.604,177.2,31.75 M184.295,31.948c0-2.347-1.353-3.803-3.07-3.803
	c-1.205,0-2.578,0.67-2.578,3.278c0,2.181,1.205,3.908,3.217,3.908C182.596,35.332,184.295,34.977,184.295,31.948"/>
<path fill="#0056A5" d="M188.487,30.828c0-1.594,0-1.887-0.021-2.223c-0.021-0.355-0.105-0.521-0.45-0.596
	c-0.084-0.021-0.263-0.032-0.409-0.032c-0.115,0-0.178-0.021-0.178-0.094s0.072-0.095,0.23-0.095c0.555,0,1.215,0.031,1.436,0.031
	c0.355,0,1.152-0.031,1.477-0.031c0.66,0,1.362,0.063,1.928,0.451c0.295,0.199,0.713,0.733,0.713,1.436
	c0,0.775-0.326,1.488-1.383,2.347c0.932,1.173,1.655,2.106,2.273,2.755c0.587,0.608,1.018,0.682,1.175,0.713
	c0.114,0.021,0.208,0.031,0.292,0.031s0.126,0.032,0.126,0.085c0,0.083-0.073,0.104-0.198,0.104h-0.996
	c-0.586,0-0.849-0.053-1.121-0.199c-0.451-0.241-0.849-0.734-1.436-1.541c-0.419-0.576-0.902-1.288-1.037-1.445
	c-0.052-0.062-0.115-0.074-0.189-0.074l-0.91-0.02c-0.053,0-0.084,0.02-0.084,0.083v0.147c0,0.974,0,1.801,0.052,2.24
	c0.032,0.305,0.095,0.536,0.408,0.577c0.157,0.022,0.388,0.042,0.514,0.042c0.084,0,0.126,0.032,0.126,0.085
	c0,0.072-0.074,0.104-0.21,0.104c-0.606,0-1.383-0.032-1.54-0.032c-0.199,0-0.859,0.032-1.277,0.032
	c-0.137,0-0.211-0.032-0.211-0.104c0-0.053,0.043-0.085,0.168-0.085c0.156,0,0.282-0.02,0.377-0.042
	c0.211-0.041,0.263-0.272,0.305-0.577c0.052-0.439,0.052-1.267,0.052-2.23V30.828z M189.725,31.655c0,0.115,0.021,0.157,0.094,0.189
	c0.221,0.073,0.535,0.104,0.796,0.104c0.42,0,0.558-0.041,0.745-0.179c0.312-0.231,0.617-0.712,0.617-1.571
	c0-1.488-0.984-1.918-1.604-1.918c-0.262,0-0.449,0.01-0.555,0.043c-0.072,0.021-0.094,0.062-0.094,0.146V31.655z"/>
<path fill="#0056A5" d="M198.211,31.289h0.054c0.354-0.388,1.884-1.949,2.188-2.306c0.293-0.345,0.523-0.607,0.523-0.785
	c0-0.115-0.041-0.188-0.146-0.21c-0.095-0.021-0.137-0.041-0.137-0.105c0-0.072,0.053-0.094,0.168-0.094
	c0.221,0,0.797,0.032,1.08,0.032c0.325,0,0.901-0.032,1.225-0.032c0.106,0,0.179,0.021,0.179,0.094c0,0.074-0.052,0.094-0.157,0.094
	c-0.146,0-0.408,0.043-0.607,0.117c-0.324,0.125-0.681,0.346-1.131,0.785c-0.326,0.314-1.908,1.885-2.264,2.264
	c0.376,0.492,2.43,2.703,2.84,3.09c0.46,0.441,0.932,0.912,1.498,1.133c0.314,0.125,0.523,0.156,0.648,0.156
	c0.074,0,0.137,0.021,0.137,0.084c0,0.072-0.052,0.104-0.251,0.104h-0.912c-0.313,0-0.502,0-0.724-0.021
	c-0.564-0.053-0.848-0.283-1.299-0.682c-0.461-0.408-2.524-2.828-2.744-3.133l-0.114-0.156h-0.054v0.953
	c0,0.963,0,1.791,0.031,2.242c0.022,0.293,0.115,0.523,0.377,0.566c0.146,0.021,0.379,0.041,0.515,0.041
	c0.084,0,0.135,0.031,0.135,0.084c0,0.072-0.083,0.104-0.199,0.104c-0.586,0-1.245-0.032-1.508-0.032
	c-0.241,0-0.901,0.032-1.319,0.032c-0.138,0-0.211-0.032-0.211-0.104c0-0.053,0.041-0.084,0.168-0.084
	c0.157,0,0.282-0.021,0.377-0.041c0.209-0.043,0.262-0.273,0.303-0.577c0.054-0.44,0.054-1.269,0.054-2.231v-1.844
	c0-1.594,0-1.887-0.021-2.223c-0.021-0.356-0.105-0.522-0.451-0.596c-0.084-0.021-0.262-0.033-0.408-0.033
	c-0.116,0-0.178-0.02-0.178-0.094c0-0.072,0.072-0.094,0.229-0.094c0.556,0,1.216,0.032,1.468,0.032s0.911-0.032,1.268-0.032
	c0.146,0,0.22,0.021,0.22,0.094c0,0.074-0.062,0.094-0.147,0.094c-0.104,0-0.166,0.012-0.293,0.033
	c-0.283,0.051-0.367,0.229-0.387,0.596c-0.021,0.336-0.021,0.629-0.021,2.223V31.289z"/>
<path fill="#0058A9" d="M24.963,8.867c-0.261-1.519-1.488-2.576-2.989-2.697c-2.682-0.215-4.996,1.22-7.598,1.679
	c-0.209,0.036-0.488-0.406-0.741-0.66c1.207-0.909,1.043-2.692-0.354-3.462c-0.097-0.11-0.062-1.137-0.006-1.183
	c0.114-0.095,1.005,0.076,1.131-0.034c0.127-0.11,0.101-1.179,0.02-1.282c-0.081-0.102-1.085,0.007-1.142-0.061
	c-0.056-0.069,0.028-1.031-0.066-1.107C13.15,0.006,12.871,0,12.716,0.001C12.561,0,12.282,0.006,12.215,0.06
	c-0.095,0.076-0.01,1.038-0.067,1.107c-0.056,0.068-1.06-0.041-1.142,0.061C10.926,1.331,10.9,2.4,11.027,2.51
	c0.126,0.11,1.017-0.061,1.131,0.034c0.055,0.046,0.09,1.073-0.006,1.183c-1.397,0.77-1.561,2.553-0.354,3.462
	c-0.253,0.254-0.533,0.696-0.741,0.66C8.455,7.39,6.141,5.955,3.459,6.17C1.958,6.291,0.731,7.348,0.47,8.867
	C0,11.6,1.964,13.701,2.918,16.022c0.301,0.732,0.566,1.717,0.518,2.563c0,0,7.788,0,9.175,0v0.001c0,0,0.037,0,0.106-0.001
	c0.069,0.001,0.105,0.001,0.105,0.001v-0.001c1.387,0,9.175,0,9.175,0c-0.047-0.846,0.217-1.831,0.519-2.563
	C23.469,13.701,25.433,11.6,24.963,8.867 M11.607,14.919c-0.242,1.372-1.004,2.244-1.638,2.248c-0.416,0.003-0.75-0.155-1.053-0.421
	c-0.418-0.365-0.758-0.967-0.649-1.322c0.092-0.12,1.217,0.052,1.298-0.06c0.08-0.112-0.137-0.988-0.265-1.102
	c-0.126-0.113-1.142,0.038-1.279-0.073c-0.135-0.111-0.262-1.198-0.401-1.264c0,0-1.075-0.161-1.153-0.008
	c-0.078,0.154,0.363,1.061,0.288,1.216c-0.076,0.154-1.499-0.136-1.524,0.024c-0.025,0.16,0.082,0.959,0.219,1.077
	c0.136,0.118,1.464,0.126,1.464,0.126c0.276,0.211,0.349,0.639,0.35,1.077c0.003,0.556-0.43,0.843-1.12,0.65
	c-1.286-0.36-2.88-3.149-3.826-5.081c-0.696-1.419-1.115-3.742,0.711-4.438c1.112-0.424,2.28-0.184,3.477,0.171
	c1.254,0.373,2.908,0.876,3.883,1.482c0.239,0.149-0.285,0.03,0.58,1.947C11.372,12.06,11.775,13.96,11.607,14.919 M19.289,17.087
	c-0.69,0.193-1.122-0.094-1.12-0.65c0.001-0.438,0.073-0.866,0.35-1.077c0,0,1.328-0.008,1.464-0.126
	c0.137-0.118,0.244-0.917,0.219-1.077c-0.025-0.16-1.448,0.13-1.524-0.024c-0.075-0.155,0.366-1.062,0.288-1.216
	c-0.079-0.153-1.153,0.008-1.153,0.008c-0.139,0.066-0.265,1.153-0.401,1.264c-0.137,0.111-1.153-0.04-1.279,0.073
	c-0.128,0.114-0.344,0.99-0.265,1.102c0.08,0.112,1.205-0.06,1.298,0.06c0.109,0.355-0.231,0.957-0.649,1.322
	c-0.303,0.266-0.637,0.424-1.053,0.421c-0.635-0.004-1.397-0.876-1.638-2.248c-0.168-0.959,0.236-2.859,0.637-3.751
	c0.866-1.917,0.342-1.798,0.581-1.947c0.975-0.606,2.629-1.109,3.884-1.482c1.196-0.355,2.364-0.595,3.477-0.171
	c1.825,0.696,1.405,3.019,0.71,4.438C22.169,13.938,20.575,16.727,19.289,17.087"/>
<polygon fill="#005DAA" points="12.822,19.855 12.611,19.855 3.227,19.855 3.227,21.468 12.611,21.468 12.822,21.468 22.206,21.468 
	22.206,19.855 "/>
</svg>
