<?xml version="1.0" encoding="utf-8"?>
<!-- Generator: Adobe Illustrator 19.2.1, SVG Export Plug-In . SVG Version: 6.00 Build 0)  -->
<svg version="1.1" id="Layer_1" xmlns="http://www.w3.org/2000/svg" xmlns:xlink="http://www.w3.org/1999/xlink" x="0px" y="0px"
	 viewBox="0 0 194.9 80" style="enable-background:new 0 0 194.9 80;" xml:space="preserve">
<style type="text/css">
	.st0{fill:url(#SVGID_1_);}
	.st1{fill:none;stroke:#4D4D4D;stroke-miterlimit:10;}
	.st2{fill:#00ACEE;}
	.st3{enable-background:new    ;}
	.st4{fill:#4D4D4D;}
</style>
<linearGradient id="SVGID_1_" gradientUnits="userSpaceOnUse" x1="89.25" y1="432.6388" x2="89.25" y2="377.1388" gradientTransform="matrix(1 0 0 1 0 -356.8)">
	<stop  offset="0" style="stop-color:#FFFFFF"/>
	<stop  offset="1" style="stop-color:#FFFFFF"/>
</linearGradient>
<rect x="4" y="20.3" class="st0" width="170.6" height="55.5"/>
<polyline class="st1" points="16.3,21.2 3.8,21.2 3.8,76.2 174.3,76.2 "/>
<polygon class="st2" points="179.3,56.7 179.3,49.9 185.3,53.3 191.1,56.7 185.3,60.1 179.3,63.5 "/>
<g class="st3">
	<path class="st4" d="M32.5,10.6h-7.6v20.8h-3.2V10.6h-7.6V8h18.4V10.6z"/>
	<path class="st4" d="M37.9,17.1c0.7-0.8,1.5-1.4,2.4-1.8c0.9-0.4,1.9-0.7,3-0.7c0.9,0,1.7,0.1,2.4,0.4c0.7,0.3,1.3,0.7,1.7,1.3
		c0.5,0.6,0.8,1.2,1.1,2c0.2,0.8,0.4,1.6,0.4,2.6v10.6h-2.9V20.9c0-1.3-0.3-2.2-0.9-2.9c-0.6-0.7-1.4-1-2.6-1
		c-0.9,0-1.7,0.2-2.4,0.6c-0.7,0.4-1.4,1-2.1,1.7v12.2H35V7.3h2.9V17.1z"/>
	<path class="st4" d="M66.7,29.1c-0.4,0.4-0.8,0.8-1.3,1.1c-0.5,0.3-1,0.6-1.6,0.8c-0.6,0.2-1.2,0.4-1.8,0.5s-1.2,0.2-1.8,0.2
		c-1.1,0-2.2-0.2-3.2-0.6c-1-0.4-1.8-1-2.5-1.7c-0.7-0.7-1.3-1.7-1.6-2.8s-0.6-2.4-0.6-3.8c0-1.2,0.2-2.2,0.5-3.2
		c0.4-1,0.9-1.9,1.5-2.6c0.7-0.7,1.5-1.3,2.4-1.7c1-0.4,2-0.6,3.2-0.6c1,0,1.9,0.2,2.8,0.5c0.8,0.3,1.6,0.8,2.2,1.4s1.1,1.4,1.4,2.3
		s0.5,2,0.5,3.1c0,0.5,0,0.8-0.1,0.9c-0.1,0.2-0.3,0.2-0.6,0.2H55.2c0,1,0.2,2,0.4,2.7c0.3,0.8,0.6,1.4,1.1,1.9
		c0.5,0.5,1,0.9,1.6,1.2c0.6,0.3,1.3,0.4,2.1,0.4c0.7,0,1.4-0.1,1.9-0.3c0.5-0.2,1-0.4,1.4-0.5s0.7-0.4,1-0.5s0.5-0.3,0.7-0.3
		c0.2,0,0.4,0.1,0.6,0.3L66.7,29.1z M64.3,21.3c0-0.7-0.1-1.3-0.3-1.9c-0.2-0.6-0.5-1-0.8-1.5c-0.4-0.4-0.8-0.7-1.3-0.9
		s-1.1-0.3-1.8-0.3c-1.4,0-2.5,0.4-3.3,1.2s-1.3,1.9-1.5,3.4H64.3z"/>
	<path class="st4" d="M96,26.6c0.2,0,0.3,0.1,0.5,0.2l1.3,1.4c-1,1.1-2.1,2-3.5,2.6c-1.4,0.6-3,0.9-5,0.9c-1.7,0-3.2-0.3-4.6-0.9
		c-1.4-0.6-2.5-1.4-3.5-2.5s-1.7-2.3-2.3-3.8c-0.5-1.5-0.8-3.1-0.8-4.9s0.3-3.4,0.8-4.9c0.6-1.5,1.3-2.7,2.3-3.8
		c1-1.1,2.2-1.9,3.6-2.5c1.4-0.6,3-0.9,4.7-0.9c1.7,0,3.1,0.3,4.4,0.8c1.3,0.5,2.4,1.3,3.4,2.2l-1,1.5c-0.1,0.1-0.1,0.2-0.3,0.3
		c-0.1,0.1-0.2,0.1-0.4,0.1c-0.2,0-0.4-0.1-0.7-0.3s-0.7-0.5-1.1-0.7s-1-0.5-1.7-0.7c-0.7-0.2-1.5-0.3-2.5-0.3
		c-1.2,0-2.3,0.2-3.3,0.6s-1.9,1-2.6,1.8c-0.7,0.8-1.3,1.8-1.7,2.9c-0.4,1.1-0.6,2.4-0.6,3.9c0,1.5,0.2,2.8,0.6,3.9s1,2.1,1.7,2.9
		c0.7,0.8,1.6,1.4,2.6,1.8c1,0.4,2.1,0.6,3.2,0.6c0.7,0,1.3,0,1.9-0.1c0.6-0.1,1.1-0.2,1.6-0.4c0.5-0.2,0.9-0.4,1.3-0.7
		c0.4-0.3,0.8-0.6,1.2-1C95.7,26.7,95.8,26.6,96,26.6z"/>
	<path class="st4" d="M100.3,17.2c0.9-0.9,1.9-1.5,3-2c1.1-0.4,2.2-0.7,3.5-0.7c0.9,0,1.8,0.2,2.5,0.5c0.7,0.3,1.3,0.7,1.8,1.3
		c0.5,0.5,0.9,1.2,1.1,2c0.3,0.8,0.4,1.6,0.4,2.6v10.6h-1.3c-0.3,0-0.5,0-0.7-0.1c-0.2-0.1-0.3-0.3-0.4-0.5l-0.3-1.6
		c-0.4,0.4-0.9,0.8-1.3,1.1c-0.4,0.3-0.9,0.6-1.3,0.8c-0.5,0.2-0.9,0.4-1.5,0.5c-0.5,0.1-1.1,0.2-1.7,0.2c-0.6,0-1.2-0.1-1.8-0.3
		c-0.6-0.2-1.1-0.5-1.5-0.8c-0.4-0.4-0.8-0.8-1-1.4c-0.2-0.6-0.4-1.2-0.4-2c0-0.7,0.2-1.3,0.5-1.9c0.4-0.6,0.9-1.1,1.8-1.6
		c0.8-0.5,1.9-0.9,3.2-1.2c1.3-0.3,2.9-0.5,4.8-0.5v-1.3c0-1.3-0.3-2.3-0.8-2.9c-0.6-0.7-1.4-1-2.4-1c-0.7,0-1.3,0.1-1.8,0.3
		s-0.9,0.4-1.3,0.6s-0.7,0.4-0.9,0.6c-0.3,0.2-0.5,0.3-0.8,0.3c-0.2,0-0.4-0.1-0.5-0.2s-0.3-0.2-0.4-0.4L100.3,17.2z M109.7,24
		c-1.3,0-2.5,0.1-3.4,0.3c-0.9,0.2-1.7,0.4-2.3,0.7s-1,0.6-1.3,1c-0.3,0.4-0.4,0.8-0.4,1.2c0,0.4,0.1,0.8,0.2,1.1s0.3,0.6,0.6,0.8
		c0.2,0.2,0.5,0.3,0.9,0.4c0.3,0.1,0.7,0.1,1.1,0.1c0.5,0,1-0.1,1.4-0.2c0.4-0.1,0.8-0.3,1.2-0.5s0.7-0.4,1.1-0.7s0.7-0.6,1-0.9V24z
		"/>
	<path class="st4" d="M119.8,18.2c0.5-1.1,1.2-2,1.9-2.7c0.8-0.6,1.7-1,2.8-1c0.3,0,0.7,0,1,0.1c0.3,0.1,0.6,0.2,0.9,0.4l-0.2,2.2
		c-0.1,0.3-0.2,0.4-0.5,0.4c-0.2,0-0.4,0-0.7-0.1c-0.3-0.1-0.6-0.1-1-0.1c-0.5,0-1,0.1-1.4,0.2c-0.4,0.2-0.8,0.4-1.1,0.7
		c-0.3,0.3-0.6,0.7-0.9,1.1c-0.3,0.4-0.5,0.9-0.7,1.5v10.5H117V14.8h1.7c0.3,0,0.5,0.1,0.7,0.2c0.1,0.1,0.2,0.3,0.2,0.6L119.8,18.2z
		"/>
	<path class="st4" d="M141.7,29.1c-0.4,0.4-0.8,0.8-1.3,1.1c-0.5,0.3-1,0.6-1.6,0.8c-0.6,0.2-1.2,0.4-1.8,0.5
		c-0.6,0.1-1.2,0.2-1.8,0.2c-1.1,0-2.2-0.2-3.2-0.6c-1-0.4-1.8-1-2.5-1.7c-0.7-0.7-1.3-1.7-1.6-2.8s-0.6-2.4-0.6-3.8
		c0-1.2,0.2-2.2,0.5-3.2c0.4-1,0.9-1.9,1.5-2.6c0.7-0.7,1.5-1.3,2.4-1.7c1-0.4,2-0.6,3.2-0.6c1,0,1.9,0.2,2.8,0.5
		c0.8,0.3,1.6,0.8,2.2,1.4s1.1,1.4,1.4,2.3c0.3,0.9,0.5,2,0.5,3.1c0,0.5,0,0.8-0.1,0.9c-0.1,0.2-0.3,0.2-0.6,0.2h-11.1
		c0,1,0.2,2,0.4,2.7s0.6,1.4,1.1,1.9c0.5,0.5,1,0.9,1.6,1.2c0.6,0.3,1.3,0.4,2.1,0.4c0.7,0,1.4-0.1,1.9-0.3c0.5-0.2,1-0.4,1.4-0.5
		s0.7-0.4,1-0.5c0.3-0.2,0.5-0.3,0.7-0.3c0.2,0,0.4,0.1,0.6,0.3L141.7,29.1z M139.3,21.3c0-0.7-0.1-1.3-0.3-1.9
		c-0.2-0.6-0.5-1-0.8-1.5s-0.8-0.7-1.3-0.9s-1.1-0.3-1.8-0.3c-1.4,0-2.5,0.4-3.3,1.2s-1.3,1.9-1.5,3.4H139.3z"/>
	<path class="st4" d="M159,29.1c-0.4,0.4-0.8,0.8-1.3,1.1c-0.5,0.3-1,0.6-1.6,0.8s-1.2,0.4-1.8,0.5c-0.6,0.1-1.2,0.2-1.8,0.2
		c-1.1,0-2.2-0.2-3.2-0.6s-1.8-1-2.5-1.7s-1.3-1.7-1.6-2.8s-0.6-2.4-0.6-3.8c0-1.2,0.2-2.2,0.5-3.2c0.4-1,0.9-1.9,1.5-2.6
		s1.5-1.3,2.4-1.7s2-0.6,3.2-0.6c1,0,1.9,0.2,2.8,0.5c0.8,0.3,1.6,0.8,2.2,1.4s1.1,1.4,1.4,2.3c0.3,0.9,0.5,2,0.5,3.1
		c0,0.5,0,0.8-0.1,0.9c-0.1,0.2-0.3,0.2-0.6,0.2h-11.1c0,1,0.2,2,0.4,2.7c0.3,0.8,0.6,1.4,1.1,1.9c0.5,0.5,1,0.9,1.6,1.2
		c0.6,0.3,1.3,0.4,2.1,0.4c0.7,0,1.4-0.1,1.9-0.3c0.5-0.2,1-0.4,1.4-0.5s0.7-0.4,1-0.5c0.3-0.2,0.5-0.3,0.7-0.3
		c0.2,0,0.4,0.1,0.6,0.3L159,29.1z M156.6,21.3c0-0.7-0.1-1.3-0.3-1.9c-0.2-0.6-0.5-1-0.8-1.5c-0.4-0.4-0.8-0.7-1.3-0.9
		s-1.1-0.3-1.8-0.3c-1.4,0-2.5,0.4-3.3,1.2s-1.3,1.9-1.5,3.4H156.6z"/>
	<path class="st4" d="M165.6,18.2c0.5-1.1,1.2-2,1.9-2.7c0.8-0.6,1.7-1,2.8-1c0.3,0,0.7,0,1,0.1c0.3,0.1,0.6,0.2,0.9,0.4l-0.2,2.2
		c-0.1,0.3-0.2,0.4-0.5,0.4c-0.2,0-0.4,0-0.7-0.1c-0.3-0.1-0.6-0.1-1-0.1c-0.5,0-1,0.1-1.4,0.2c-0.4,0.2-0.8,0.4-1.1,0.7
		c-0.3,0.3-0.6,0.7-0.9,1.1c-0.3,0.4-0.5,0.9-0.7,1.5v10.5h-2.9V14.8h1.7c0.3,0,0.5,0.1,0.7,0.2c0.1,0.1,0.2,0.3,0.2,0.6L165.6,18.2
		z"/>
</g>
<g class="st3">
	<path class="st4" d="M25.6,38.3c1.8,0,3.4,0.2,4.8,0.6c1.3,0.4,2.5,1,3.3,1.8c0.9,0.8,1.5,1.7,1.9,2.8c0.4,1.1,0.6,2.3,0.6,3.5
		c0,1.3-0.2,2.6-0.7,3.7c-0.4,1.1-1.1,2.1-2,2.9c-0.9,0.8-2,1.4-3.3,1.9c-1.3,0.4-2.9,0.7-4.7,0.7h-3.8v9.7h-5.1V38.3H25.6z
		 M25.6,52.1c0.9,0,1.8-0.1,2.5-0.4c0.7-0.2,1.3-0.6,1.7-1c0.5-0.4,0.8-1,1-1.6c0.2-0.6,0.3-1.3,0.3-2.1c0-0.7-0.1-1.4-0.3-2
		c-0.2-0.6-0.6-1.1-1-1.5c-0.5-0.4-1-0.7-1.7-1c-0.7-0.2-1.5-0.3-2.5-0.3h-3.8v9.9H25.6z"/>
	<path class="st4" d="M44.2,37.6v28.3h-4.7V37.6H44.2z"/>
	<path class="st4" d="M48.4,49c2.2-2.1,4.9-3.1,8.1-3.1c1.1,0,2.2,0.2,3.1,0.6c0.9,0.4,1.7,0.9,2.3,1.6c0.6,0.7,1.1,1.5,1.4,2.4
		c0.3,0.9,0.5,1.9,0.5,3v12.3h-2.1c-0.4,0-0.8-0.1-1-0.2c-0.2-0.1-0.4-0.4-0.6-0.8l-0.4-1.4c-0.5,0.4-1,0.8-1.4,1.2
		c-0.5,0.3-1,0.6-1.5,0.8c-0.5,0.2-1,0.4-1.6,0.5c-0.6,0.1-1.2,0.2-1.9,0.2c-0.8,0-1.6-0.1-2.3-0.3c-0.7-0.2-1.3-0.6-1.8-1
		c-0.5-0.4-0.9-1-1.2-1.7s-0.4-1.4-0.4-2.3c0-0.5,0.1-1,0.2-1.5c0.2-0.5,0.4-1,0.8-1.4s0.9-0.9,1.5-1.3c0.6-0.4,1.3-0.7,2.2-1
		c0.9-0.3,1.9-0.5,3-0.7s2.5-0.3,4-0.3v-1.1c0-1.3-0.3-2.3-0.8-2.9c-0.6-0.6-1.4-0.9-2.4-0.9c-0.8,0-1.4,0.1-1.9,0.3
		c-0.5,0.2-0.9,0.4-1.3,0.6c-0.4,0.2-0.7,0.4-1,0.6c-0.3,0.2-0.7,0.3-1,0.3c-0.3,0-0.6-0.1-0.8-0.3c-0.2-0.2-0.4-0.4-0.6-0.6
		L48.4,49z M59.2,57.5c-1.4,0.1-2.5,0.2-3.4,0.4c-0.9,0.2-1.7,0.4-2.2,0.7c-0.6,0.3-1,0.6-1.2,0.9c-0.2,0.4-0.4,0.7-0.4,1.2
		c0,0.8,0.2,1.4,0.7,1.8c0.5,0.4,1.1,0.5,1.9,0.5c1,0,1.8-0.2,2.5-0.5c0.7-0.3,1.4-0.9,2.1-1.6V57.5z"/>
	<path class="st4" d="M85.4,46.3L74.7,71.2c-0.1,0.3-0.3,0.6-0.5,0.8c-0.2,0.2-0.6,0.3-1,0.3h-3.5l3.7-7.8l-7.9-18h4.1
		c0.4,0,0.7,0.1,0.9,0.3c0.2,0.2,0.4,0.4,0.5,0.6L75,57.3c0.1,0.3,0.3,0.7,0.4,1c0.1,0.3,0.2,0.7,0.3,1c0.1-0.4,0.2-0.7,0.3-1.1
		c0.1-0.3,0.2-0.7,0.4-1l3.9-10.1c0.1-0.3,0.3-0.5,0.5-0.6c0.2-0.2,0.5-0.2,0.8-0.2H85.4z"/>
	<path class="st4" d="M92.4,48.7c0.8-0.8,1.7-1.5,2.6-2c1-0.5,2.1-0.7,3.3-0.7c1.1,0,2.1,0.2,3.1,0.7c0.9,0.4,1.7,1.1,2.3,1.9
		c0.6,0.8,1.1,1.8,1.5,3c0.3,1.2,0.5,2.5,0.5,4c0,1.6-0.2,3-0.6,4.3c-0.4,1.3-1,2.4-1.7,3.3c-0.7,0.9-1.6,1.6-2.6,2.1
		c-1,0.5-2.2,0.8-3.4,0.8c-0.6,0-1.2-0.1-1.7-0.2s-1-0.3-1.4-0.5c-0.4-0.2-0.8-0.5-1.2-0.8s-0.7-0.7-1-1l-0.2,1.3
		c-0.1,0.3-0.2,0.6-0.4,0.7c-0.2,0.1-0.4,0.2-0.8,0.2h-3.1V37.6h4.7V48.7z M92.4,60.8c0.5,0.6,1.1,1.1,1.7,1.4
		c0.6,0.3,1.3,0.4,2,0.4c0.7,0,1.4-0.1,1.9-0.4s1.1-0.7,1.5-1.2c0.4-0.6,0.7-1.3,0.9-2.1c0.2-0.9,0.3-1.9,0.3-3.1
		c0-2.1-0.4-3.7-1.1-4.6s-1.7-1.4-3.1-1.4c-0.9,0-1.7,0.2-2.4,0.6c-0.7,0.4-1.3,1-1.9,1.7V60.8z"/>
	<path class="st4" d="M117.9,46c1.4,0,2.8,0.2,3.9,0.7s2.2,1.1,3,2c0.8,0.9,1.5,1.9,1.9,3.2c0.5,1.2,0.7,2.6,0.7,4.2
		c0,1.5-0.2,2.9-0.7,4.2s-1.1,2.3-1.9,3.2c-0.8,0.9-1.9,1.5-3,2c-1.2,0.5-2.5,0.7-3.9,0.7c-1.5,0-2.8-0.2-4-0.7
		c-1.2-0.5-2.2-1.1-3.1-2c-0.8-0.9-1.5-1.9-2-3.2s-0.7-2.6-0.7-4.2c0-1.5,0.2-2.9,0.7-4.2c0.5-1.2,1.1-2.3,2-3.2
		c0.8-0.9,1.9-1.5,3.1-2C115.1,46.2,116.5,46,117.9,46z M117.9,62.5c1.6,0,2.8-0.5,3.6-1.6c0.8-1.1,1.2-2.7,1.2-4.8
		c0-2.1-0.4-3.7-1.2-4.8c-0.8-1.1-2-1.7-3.6-1.7c-1.6,0-2.9,0.6-3.7,1.7c-0.8,1.1-1.2,2.7-1.2,4.8c0,2.1,0.4,3.7,1.2,4.8
		C115.1,61.9,116.3,62.5,117.9,62.5z"/>
	<path class="st4" d="M139.8,46c1.4,0,2.8,0.2,3.9,0.7s2.2,1.1,3,2c0.8,0.9,1.5,1.9,1.9,3.2c0.5,1.2,0.7,2.6,0.7,4.2
		c0,1.5-0.2,2.9-0.7,4.2s-1.1,2.3-1.9,3.2c-0.8,0.9-1.9,1.5-3,2c-1.2,0.5-2.5,0.7-3.9,0.7c-1.5,0-2.8-0.2-4-0.7
		c-1.2-0.5-2.2-1.1-3.1-2c-0.8-0.9-1.5-1.9-2-3.2s-0.7-2.6-0.7-4.2c0-1.5,0.2-2.9,0.7-4.2c0.5-1.2,1.1-2.3,2-3.2
		c0.8-0.9,1.9-1.5,3.1-2C137,46.2,138.3,46,139.8,46z M139.8,62.5c1.6,0,2.8-0.5,3.6-1.6c0.8-1.1,1.2-2.7,1.2-4.8
		c0-2.1-0.4-3.7-1.2-4.8c-0.8-1.1-2-1.7-3.6-1.7c-1.6,0-2.9,0.6-3.7,1.7c-0.8,1.1-1.2,2.7-1.2,4.8c0,2.1,0.4,3.7,1.2,4.8
		C136.9,61.9,138.1,62.5,139.8,62.5z"/>
	<path class="st4" d="M157.7,37.6v16.2h0.9c0.3,0,0.6,0,0.8-0.1s0.4-0.3,0.6-0.5l4.8-6c0.2-0.3,0.4-0.5,0.7-0.6s0.6-0.2,1-0.2h4.3
		l-6.1,7.2c-0.4,0.6-0.9,1-1.4,1.3c0.3,0.2,0.5,0.4,0.7,0.7c0.2,0.3,0.4,0.5,0.6,0.8l6.5,9.5h-4.2c-0.4,0-0.7-0.1-1-0.2
		c-0.3-0.1-0.5-0.3-0.7-0.7l-5-7.4c-0.2-0.3-0.4-0.5-0.6-0.6s-0.5-0.1-0.9-0.1h-1.1v8.9H153V37.6H157.7z"/>
</g>
</svg>
