<svg xmlns="http://www.w3.org/2000/svg" width="593.422" height="200.91"><path fill="#fff" d="M396.777 135.659c-7.983 0-14.479 6.495-14.479 14.479 0 6.459 4.321 12.147 10.537 13.915v11.157c0 9.863-8.024 17.889-17.891 17.889h-232.02c-9.621 0-17.471-7.64-17.854-17.166v-.607h-7.883v.607c.387 13.874 11.77 25.051 25.737 25.051h232.02c14.211 0 25.775-11.562 25.775-25.773v-11.157c6.213-1.765 10.531-7.456 10.531-13.915.001-7.985-6.492-14.48-14.473-14.48zm0 22.282c-4.305 0-7.809-3.501-7.809-7.803 0-4.306 3.504-7.809 7.809-7.809 4.302 0 7.803 3.503 7.803 7.809 0 4.302-3.501 7.803-7.803 7.803z"/><path fill="#fff" d="M400.719 40.775v-15.039c-.022-14.194-11.576-25.736-25.775-25.736h-232.02c-14.213 0-25.774 11.562-25.774 25.774v24.932c-6.311 1.71-10.698 7.417-10.698 13.96 0 7.983 6.494 14.477 14.474 14.477 7.983 0 14.479-6.493 14.479-14.477 0-6.382-4.254-12.051-10.371-13.865v-25.027c0-9.865 8.026-17.891 17.89-17.891h232.02c9.866 0 17.891 8.025 17.891 17.891v15.001h7.884zm-271.984 23.891c0 4.305-3.503 7.805-7.809 7.805-4.303 0-7.803-3.5-7.803-7.805s3.5-7.805 7.803-7.805c4.306 0 7.809 3.5 7.809 7.805z"/><g fill="#fff"><polyline points="504.827,156.46 504.827,110.796 528.815,110.796 528.815,102.056 504.827,102.056 504.827,59.208 530.815,59.208 530.932,51.117 496.158,51.117 496.158,164.983 531.98,164.983 531.645,156.46 504.827,156.46"/><path d="M593.411 88.975v-25.737c.104-2.974-.545-5.722-1.931-8.171-1.515-2.677-3.93-4.15-7.244-4.382l-15.402.002c-3.92.22-6.792 1.72-8.528 4.458-1.618 2.548-2.44 5.544-2.44 8.903v35.26c0 9.374 4.91 11.342 9.031 11.342h12.971c1.586.036 2.754.441 3.473 1.202.802.843 1.178 2.254 1.115 4.23l.218 32.646c0 2.532-.573 4.553-1.705 6.006-1.055 1.356-2.721 2.015-5.09 2.015h-7.08c-3.228 0-3.791-1.194-3.976-1.586-.67-1.427-1.011-3.64-1.011-6.58v-21.89h-8.09v25.736c-.109 3.019.713 5.811 2.44 8.29 1.804 2.595 4.044 4.027 6.734 4.264h15.376l.026-.001c3.918-.221 6.787-1.72 8.527-4.459 1.619-2.548 2.439-5.544 2.439-8.905v-41.327c0-7.354-4.389-8.452-7.006-8.452h-15.318c-3.232 0-4.553-1.488-4.553-5.13l.071-29.77c0-2.617.412-4.708 1.227-6.213.679-1.25 1.502-1.808 2.678-1.808h9.97c3.229 0 3.791 1.194 3.976 1.587.671 1.427 1.013 3.639 1.013 6.579v21.89h8.089"/><rect x="116.544" y="90.792" width="9.096" height="74.191"/><rect x="392.229" y="51.117" width="9.098" height="72.892"/><polyline points="62.086,26.361 46.586,143.227 29.845,27.141 29.733,26.361 20.611,26.361 0.154,163.761 0,164.807 9.218,164.807 15.188,122.446 25.478,47.58 35.687,122.632 41.928,164.789 51.601,165.002 56.941,122.801 67.229,47.935 77.437,122.988 83.592,164.983 93.258,164.983 71.476,26.361 62.086,26.361"/><polyline points="184.218,124.315 165.986,51.65 165.812,50.945 157.195,51.154 157.195,164.983 165.864,164.983 165.864,87.27 185.129,163.833 185.415,164.983 192.741,164.983 192.741,50.975 184.218,50.975 184.218,124.315"/><path d="M252.851 61.498c-1.968-3.818-4.332-6.307-6.934-8.246-1.779-1.324-5.281-1.856-7.543-1.856l-14.855.013v113.575h14.146l.024-.001c3.93-.219 6.326-1.462 8.142-2.979 1.335-1.116 3.324-3.469 4.898-5.929 1.587-2.479 2.652-5.817 4.188-9.948 1.536-4.131 2.727-9.544 3.416-16.134.675-6.491 1.02-14.068 1.02-22.521 0-9.834-.515-18.734-1.529-26.459-1.031-7.82-3.286-16.241-4.973-19.515m-21.242 95.883v-98.01l4.578-.163c1.907.008 3.698.751 5.33 2.222 3.006 2.65 5.226 7.426 6.597 14.192 1.42 7 2.932 17.661 2.718 31.619-.153 9.865-1.062 17.301-1.443 22.149-.375 4.75-1.654 9.953-3.805 15.465-2.646 6.797-4.104 9.123-4.861 9.88-1.021 1.024-2.654 2.477-4.718 2.595l-4.396.051z"/><polyline points="354.33,68.366 344.126,143.41 333.841,68.553 328.498,26.342 318.827,26.556 312.582,68.723 302.375,143.766 292.087,68.895 286.114,26.538 276.897,26.538 297.392,164.208 297.509,164.983 306.632,164.983 323.483,48.119 338.878,164.192 338.983,164.983 348.374,164.983 370.155,26.361 360.487,26.361 354.33,68.366"/><path d="M458.475 117.825c-.571-1.446-1.345-2.923-2.309-4.394 3.405-1.899 5.997-5.387 7.715-10.381 1.9-5.527 2.865-12.402 2.865-20.434 0-6.189-.583-11.938-1.733-17.094-1.187-5.297-2.818-9.094-4.85-11.283-2.146-2.312-5.278-3.484-9.312-3.484h-19.362v114.228h8.308v-49.42h4.697c1.566 0 2.074.232 2.09.232.625.441 1.311 1.296 1.975 2.472.73 1.28 1.595 3.661 2.571 7.068.999 3.505 2.307 8.648 3.883 15.281l5.613 24.366h9.839l-7.515-32.212c-1.407-5.916-2.911-10.945-4.475-14.945m-18.606-59.425l7.689-.002c4.583.002 7.952 2.668 9.181 6.774 1.347 4.511 1.7 9.431 1.702 16.935-.281 5.516-.854 10.219-1.701 13.979-.828 3.695-1.846 6.618-3.018 8.689-1.014 1.788-2.909 2.945-5.473 3.42h-8.381v-49.795z"/></g></svg>