<?xml version="1.0" encoding="utf-8"?>
<!DOCTYPE svg PUBLIC "-//W3C//DTD SVG 1.0//EN" "http://www.w3.org/TR/2001/REC-SVG-20010904/DTD/svg10.dtd">
<svg version="1.0" id="Layer_1" xmlns="http://www.w3.org/2000/svg" xmlns:xlink="http://www.w3.org/1999/xlink" x="0px" y="0px"
	 width="164.526px" height="29.996px" viewBox="0 0 164.526 29.996" enable-background="new 0 0 164.526 29.996"
	 xml:space="preserve">
<path fill="#716658" d="M164.24,27.554c0,1.349-1.093,2.442-2.443,2.442h-38.813c-1.35,0-2.444-1.093-2.444-2.442V4.647
	c0-1.351,1.094-2.443,2.444-2.443h38.813c1.35,0,2.443,1.092,2.443,2.443V27.554"/>
<rect x="123.568" y="5.24" fill="#1E76BB" width="37.644" height="21.722"/>
<path fill="#FFFFFF" d="M161.212,27.416h-37.644c-0.251,0-0.454-0.203-0.454-0.455V5.24c0-0.251,0.203-0.455,0.454-0.455h37.644
	c0.251,0,0.455,0.204,0.455,0.455v21.722C161.667,27.213,161.463,27.416,161.212,27.416 M124.022,26.507h36.735V5.694h-36.735
	V26.507z"/>
<polyline fill="#FFFFFF" points="132.832,10.415 135.271,10.415 135.271,23.353 137.14,23.353 137.14,10.415 139.739,10.415 
	139.739,8.866 132.832,8.866 132.832,10.415 "/>
<polyline fill="#FFFFFF" points="149.687,8.847 148.59,13.324 147.231,19.448 145.861,13.337 144.825,8.847 142.674,8.847 
	146.212,23.353 148.156,23.353 151.949,8.847 149.687,8.847 "/>
<g>
	<rect x="17.504" y="15.556" fill="#1E76BB" width="6.669" height="1.952"/>
	<polyline fill="#1E76BB" points="29.408,24.944 29.408,0.38 27.42,0.38 27.455,26.93 35.729,26.93 35.655,24.944 29.408,24.944 	
		"/>
	<polyline fill="#1E76BB" points="40.576,26.93 42.557,26.93 42.557,5.175 40.548,5.175 40.576,26.93 	"/>
	<polyline fill="#1E76BB" points="47.261,7.115 49.751,7.115 49.751,26.93 51.652,26.93 51.652,7.115 54.305,7.115 54.305,5.216 
		47.261,5.216 47.261,7.115 	"/>
	<polyline fill="#1E76BB" points="60.968,24.977 60.968,16.78 65.462,16.78 65.462,14.784 60.968,14.784 60.968,7.115 65.834,7.115 
		65.861,5.243 58.987,5.243 58.987,26.93 66.062,26.93 65.985,24.977 60.968,24.977 	"/>
	<path fill="#1E76BB" d="M76.117,17.852c-0.091-0.23-0.208-0.464-0.351-0.7c0.599-0.391,1.057-1.043,1.367-1.944
		c0.362-1.055,0.546-2.362,0.546-3.886c0-1.173-0.111-2.264-0.33-3.241c-0.232-1.039-0.543-1.757-0.951-2.196
		c-0.437-0.471-1.068-0.71-1.875-0.71h-3.807V26.93h1.914v-9.257h0.701c0.198,0,0.286,0.021,0.313,0.029
		c0.06,0.05,0.163,0.158,0.293,0.387c0.089,0.156,0.243,0.506,0.465,1.285c0.186,0.65,0.43,1.611,0.725,2.853l1.084,4.703h2.21
		l-1.459-6.254C76.697,19.559,76.412,18.609,76.117,17.852 M72.644,6.737h1.258c0.811,0.092,1.285,0.458,1.49,1.145
		c0.248,0.828,0.373,1.958,0.374,3.336c-0.053,1.025-0.159,1.896-0.314,2.588c-0.152,0.673-0.335,1.206-0.546,1.579
		c-0.161,0.284-0.459,0.464-0.912,0.549h-1.349V6.737z"/>
	<path fill="#1E76BB" d="M89.25,26.93h2.203L87.904,5.188h-1.969L82.641,26.93h2.093l1.01-7.469h2.395L89.25,26.93 M86.007,17.508
		l0.876-6.481l0.965,6.481H86.007z"/>
	<polyline fill="#1E76BB" points="94.495,7.115 96.985,7.115 96.985,26.93 98.885,26.93 98.885,7.115 101.538,7.115 101.538,5.216 
		94.495,5.216 94.495,7.115 	"/>
	<path fill="#1E76BB" d="M8.059,9.454c-1.06,0-2.088,0.262-3.057,0.777c-0.974,0.517-1.839,1.262-2.574,2.213
		c-0.739,0.957-1.334,2.121-1.77,3.461C0.221,17.246,0,18.748,0,20.37c0,0.734,0.102,1.507,0.303,2.296
		c0.198,0.776,0.549,1.5,1.045,2.149c0.493,0.646,1.172,1.186,2.018,1.603c0.847,0.417,1.93,0.629,3.221,0.629
		c0.847,0,1.664-0.121,2.429-0.358c0.761-0.237,1.461-0.591,2.081-1.053c0.617-0.46,1.152-1.045,1.591-1.742
		c0.383-0.607,0.679-1.313,0.881-2.098h-2.132c-0.395,1.037-0.984,1.852-1.752,2.421c-0.815,0.603-1.857,0.909-3.097,0.909
		c-0.572,0-1.129-0.102-1.656-0.302c-0.528-0.201-1.008-0.489-1.427-0.856c-0.426-0.374-0.767-0.848-1.011-1.411
		c-0.245-0.562-0.369-1.208-0.369-1.918c0-0.525,0.032-1.047,0.096-1.552l0.032-0.246h12.188c0.034-0.207,0.073-0.453,0.117-0.738
		c0.06-0.386,0.09-0.8,0.09-1.231c0-2.362-0.531-4.212-1.578-5.499C12.031,10.1,10.346,9.454,8.059,9.454 M12.504,16.886h-10
		l0.101-0.365c0.192-0.689,0.453-1.347,0.775-1.958c0.325-0.617,0.732-1.167,1.21-1.634c0.481-0.47,1.051-0.845,1.695-1.114
		c0.645-0.27,1.379-0.407,2.181-0.407c0.771,0,1.435,0.153,1.972,0.454c0.536,0.3,0.974,0.703,1.3,1.198
		c0.322,0.489,0.546,1.056,0.668,1.686c0.119,0.62,0.158,1.251,0.114,1.878L12.504,16.886z"/>
	<polyline fill="#1E76BB" points="113.219,24.977 108.202,24.977 108.202,16.78 112.696,16.78 112.696,14.784 108.202,14.784 
		108.202,7.115 113.068,7.115 113.095,5.243 106.221,5.243 106.221,26.93 113.296,26.93 113.219,24.977 	"/>
</g>
</svg>
