<svg version="1" xmlns="http://www.w3.org/2000/svg" width="164.526" height="29.996"><path fill="#716658" d="M164.24 27.554c0 1.349-1.093 2.442-2.443 2.442h-38.813c-1.35 0-2.444-1.093-2.444-2.442v-22.907c0-1.351 1.094-2.443 2.444-2.443h38.813c1.35 0 2.443 1.092 2.443 2.443v22.907"/><rect x="123.568" y="5.24" fill="#1E76BB" width="37.644" height="21.722"/><path fill="#fff" d="M161.212 27.416h-37.644c-.251 0-.454-.203-.454-.455v-21.721c0-.251.203-.455.454-.455h37.644c.251 0 .455.204.455.455v21.722c0 .251-.204.454-.455.454m-37.19-.909h36.735v-20.813h-36.735v20.813z"/><polyline fill="#fff" points="132.832,10.415 135.271,10.415 135.271,23.353 137.14,23.353 137.14,10.415 139.739,10.415 139.739,8.866 132.832,8.866 132.832,10.415"/><polyline fill="#fff" points="149.687,8.847 148.59,13.324 147.231,19.448 145.861,13.337 144.825,8.847 142.674,8.847 146.212,23.353 148.156,23.353 151.949,8.847 149.687,8.847"/><g fill="#1E76BB"><rect x="17.504" y="15.556" width="6.669" height="1.952"/><polyline points="29.408,24.944 29.408,0.38 27.42,0.38 27.455,26.93 35.729,26.93 35.655,24.944 29.408,24.944"/><polyline points="40.576,26.93 42.557,26.93 42.557,5.175 40.548,5.175 40.576,26.93"/><polyline points="47.261,7.115 49.751,7.115 49.751,26.93 51.652,26.93 51.652,7.115 54.305,7.115 54.305,5.216 47.261,5.216 47.261,7.115"/><polyline points="60.968,24.977 60.968,16.78 65.462,16.78 65.462,14.784 60.968,14.784 60.968,7.115 65.834,7.115 65.861,5.243 58.987,5.243 58.987,26.93 66.062,26.93 65.985,24.977 60.968,24.977"/><path d="M76.117 17.852c-.091-.23-.208-.464-.351-.7.599-.391 1.057-1.043 1.367-1.944.362-1.055.546-2.362.546-3.886 0-1.173-.111-2.264-.33-3.241-.232-1.039-.543-1.757-.951-2.196-.437-.471-1.068-.71-1.875-.71h-3.807v21.755h1.914v-9.257h.701c.198 0 .286.021.313.029.06.05.163.158.293.387.089.156.243.506.465 1.285.186.65.43 1.611.725 2.853l1.084 4.703h2.21l-1.459-6.254c-.265-1.117-.55-2.067-.845-2.824m-3.473-11.115h1.258c.811.092 1.285.458 1.49 1.145.248.828.373 1.958.374 3.336-.053 1.025-.159 1.896-.314 2.588-.152.673-.335 1.206-.546 1.579-.161.284-.459.464-.912.549h-1.349v-9.197zM89.25 26.93h2.203l-3.549-21.742h-1.969l-3.294 21.742h2.093l1.01-7.469h2.395l1.111 7.469m-3.243-9.422l.876-6.481.965 6.481h-1.841z"/><polyline points="94.495,7.115 96.985,7.115 96.985,26.93 98.885,26.93 98.885,7.115 101.538,7.115 101.538,5.216 94.495,5.216 94.495,7.115"/><path d="M8.059 9.454c-1.06 0-2.088.262-3.057.777-.974.517-1.839 1.262-2.574 2.213-.739.957-1.334 2.121-1.77 3.461-.437 1.341-.658 2.843-.658 4.465 0 .734.102 1.507.303 2.296.198.776.549 1.5 1.045 2.149.493.646 1.172 1.186 2.018 1.603.847.417 1.93.629 3.221.629.847 0 1.664-.121 2.429-.358.761-.237 1.461-.591 2.081-1.053.617-.46 1.152-1.045 1.591-1.742.383-.607.679-1.313.881-2.098h-2.132c-.395 1.037-.984 1.852-1.752 2.421-.815.603-1.857.909-3.097.909-.572 0-1.129-.102-1.656-.302-.528-.201-1.008-.489-1.427-.856-.426-.374-.767-.848-1.011-1.411-.245-.562-.369-1.208-.369-1.918 0-.525.032-1.047.096-1.552l.032-.246h12.188l.117-.738c.06-.386.09-.8.09-1.231 0-2.362-.531-4.212-1.578-5.499-1.039-1.273-2.724-1.919-5.011-1.919m4.445 7.432h-10l.101-.365c.192-.689.453-1.347.775-1.958.325-.617.732-1.167 1.21-1.634.481-.47 1.051-.845 1.695-1.114.645-.27 1.379-.407 2.181-.407.771 0 1.435.153 1.972.454.536.3.974.703 1.3 1.198.322.489.546 1.056.668 1.686.119.62.158 1.251.114 1.878l-.016.262z"/><polyline points="113.219,24.977 108.202,24.977 108.202,16.78 112.696,16.78 112.696,14.784 108.202,14.784 108.202,7.115 113.068,7.115 113.095,5.243 106.221,5.243 106.221,26.93 113.296,26.93 113.219,24.977"/></g></svg>