<svg xmlns="http://www.w3.org/2000/svg" width="573.374" height="53.5"><g><polygon fill="#4F2D81" points="74,53.5 0,53.5 40,0 114,0"/><path fill="#fff" d="M56.959 22.758c-.278.232-1.021.927-1.021 1.344 0 .417.418.974 1.113 1.902l8.854 11.921c3.615 4.917 5.656 3.619 5.656 4.778 0 .324-.046.603-.603.603-1.021-.001-2.226-.187-3.478-.188-.881 0-1.809.186-3.107.185-.881 0-1.344-.093-2.272-1.345l-9.224-12.663c-.603-.788-.881-1.299-1.159-1.299-.371 0-1.159.788-2.18 1.947-.696.788-.604 1.205-.604 2.271l-.001 6.075c-.002 4.267 4.543 2.784 4.542 4.453 0 .417-.186.557-1.298.556-1.252 0-2.504-.186-5.147-.187-2.226-.001-4.637.184-6.075.184-.881 0-1.438-.047-1.438-.372.001-2.318 3.709.697 3.712-6.306l.007-20.172c.001-5.611-4.869-3.247-4.868-5.287 0-.511.371-.696.928-.696.881 0 2.411.187 5.564.188 2.597.001 5.519-.184 6.446-.184.417 0 .974 0 .974.557-.001 1.854-3.339-.651-3.34 4.451l-.004 10.619c0 .464-.047 1.113.232 1.067.278.046.556-.186 1.159-.788l6.124-5.98c1.299-1.297 5.798-5.053 5.799-7.139 0-1.438-2.829-.836-2.829-1.902 0-.835.464-.881 1.067-.881.464 0 3.664.187 5.055.187 1.159.001 2.365-.185 4.359-.184.371 0 1.206-.046 1.205.789 0 1.252-1.484-.139-5.983 3.94l-8.165 7.556z"/></g><g><polygon points="149,23.387 150.54,23.387 150.54,26.446 153.378,23.387 155.237,23.387 152.388,26.356 155.367,30.383 153.518,30.383 151.349,27.405 150.54,28.245 150.54,30.383 149,30.383"/><polygon points="157.3,23.387 162.577,23.387 162.577,24.756 158.829,24.756 158.829,26.176 162.128,26.176 162.128,27.545 158.829,27.545 158.829,29.014 162.627,29.014 162.627,30.383 157.3,30.383"/><polygon points="165,23.387 166.54,23.387 166.54,28.984 170.027,28.984 170.027,30.383 165,30.383"/><polygon points="172.19,23.387 173.73,23.387 173.73,28.984 177.217,28.984 177.217,30.383 172.19,30.383"/><path d="M178.67 26.906v-.021c0-1.988 1.569-3.618 3.728-3.618 2.159 0 3.708 1.609 3.708 3.599v.02c0 1.989-1.569 3.618-3.728 3.618-2.158-.001-3.708-1.61-3.708-3.598m5.827 0v-.021c0-1.199-.879-2.198-2.119-2.198-1.239 0-2.099.979-2.099 2.179v.02c0 1.199.88 2.199 2.119 2.199 1.24-.001 2.099-.98 2.099-2.179"/><path d="M188.17 26.906v-.021c0-1.988 1.549-3.618 3.668-3.618 1.259 0 2.019.34 2.749.96l-.97 1.169c-.54-.449-1.019-.709-1.829-.709-1.119 0-2.009.99-2.009 2.179v.02c0 1.279.88 2.219 2.119 2.219.56 0 1.059-.14 1.449-.42v-.999h-1.549v-1.329h3.038v3.038c-.719.609-1.709 1.109-2.988 1.109-2.179-.001-3.678-1.53-3.678-3.598"/><path d="M197.01 26.906v-.021c0-1.988 1.549-3.618 3.668-3.618 1.259 0 2.019.34 2.749.96l-.97 1.169c-.54-.449-1.02-.709-1.829-.709-1.119 0-2.009.99-2.009 2.179v.02c0 1.279.88 2.219 2.119 2.219.56 0 1.059-.14 1.449-.42v-.999h-1.549v-1.329h3.039v3.038c-.72.609-1.71 1.109-2.989 1.109-2.179-.001-3.678-1.53-3.678-3.598"/><path d="M209.68 29.364l.91-1.089c.629.52 1.289.85 2.089.85.629 0 1.009-.25 1.009-.66v-.02c0-.39-.24-.59-1.409-.89-1.41-.36-2.319-.75-2.319-2.139v-.021c0-1.269 1.019-2.108 2.449-2.108 1.019 0 1.888.319 2.598.89l-.8 1.159c-.619-.43-1.229-.689-1.819-.689-.589 0-.899.27-.899.609v.02c0 .46.3.61 1.509.92 1.419.37 2.219.88 2.219 2.099v.021c0 1.389-1.059 2.169-2.569 2.169-1.059-.001-2.129-.371-2.968-1.121"/><path d="M217.25 26.906v-.021c0-1.988 1.499-3.618 3.648-3.618 1.319 0 2.109.44 2.758 1.08l-.979 1.129c-.54-.489-1.09-.789-1.789-.789-1.18 0-2.029.979-2.029 2.179v.02c0 1.199.829 2.199 2.029 2.199.799 0 1.289-.32 1.839-.819l.98.989c-.72.77-1.52 1.249-2.869 1.249-2.059-.001-3.588-1.589-3.588-3.598"/><polygon points="225.939,23.387 227.479,23.387 227.479,26.156 230.317,26.156 230.317,23.387 231.856,23.387 231.856,30.383 230.317,30.383 230.317,27.574 227.479,27.574 227.479,30.383 225.939,30.383"/><path d="M234.229 26.906v-.021c0-1.988 1.569-3.618 3.728-3.618 2.159 0 3.708 1.609 3.708 3.599v.02c0 1.989-1.568 3.618-3.729 3.618-2.156-.001-3.707-1.61-3.707-3.598m5.827 0v-.021c0-1.199-.879-2.198-2.119-2.198-1.238 0-2.098.979-2.098 2.179v.02c0 1.199.88 2.199 2.119 2.199 1.24-.001 2.098-.98 2.098-2.179"/><path d="M243.729 26.906v-.021c0-1.988 1.569-3.618 3.728-3.618 2.16 0 3.709 1.609 3.709 3.599v.02c0 1.989-1.569 3.618-3.729 3.618-2.158-.001-3.708-1.61-3.708-3.598m5.827 0v-.021c0-1.199-.879-2.198-2.119-2.198-1.238 0-2.099.979-2.099 2.179v.02c0 1.199.88 2.199 2.118 2.199 1.241-.001 2.1-.98 2.1-2.179"/><polygon points="253.539,23.387 255.08,23.387 255.08,28.984 258.566,28.984 258.566,30.383 253.539,30.383"/><path d="M264.419 26.906v-.021c0-1.988 1.568-3.618 3.728-3.618s3.708 1.609 3.708 3.599v.02c0 1.989-1.568 3.618-3.729 3.618-2.157-.001-3.707-1.61-3.707-3.598m5.827 0v-.021c0-1.199-.879-2.198-2.119-2.198-1.238 0-2.098.979-2.098 2.179v.02c0 1.199.879 2.199 2.118 2.199 1.24-.001 2.099-.98 2.099-2.179"/><polygon points="274.229,23.387 279.556,23.387 279.556,24.787 275.769,24.787 275.769,26.276 279.106,26.276 279.106,27.675 275.769,27.675 275.769,30.383 274.229,30.383"/><polygon points="285.789,23.387 287.448,23.387 289.287,26.346 291.125,23.387 292.786,23.387 292.786,30.383 291.255,30.383 291.255,25.816 289.287,28.804 289.247,28.804 287.297,25.846 287.297,30.383 285.789,30.383"/><path d="M297.868 23.337h1.419l2.998 7.046h-1.609l-.639-1.569h-2.959l-.639 1.569h-1.57l2.999-7.046zm1.619 4.119l-.931-2.27-.928 2.27h1.859z"/><polygon points="304.369,23.387 305.788,23.387 309.067,27.695 309.067,23.387 310.585,23.387 310.585,30.383 309.277,30.383 305.888,25.936 305.888,30.383 304.369,30.383"/><path d="M315.667 23.337h1.42l2.998 7.046h-1.61l-.64-1.569h-2.957l-.641 1.569h-1.568l2.998-7.046zm1.62 4.119l-.93-2.27-.929 2.27h1.859zM321.408 26.906v-.021c0-1.988 1.551-3.618 3.668-3.618 1.261 0 2.02.34 2.75.96l-.971 1.169c-.54-.449-1.019-.709-1.828-.709-1.119 0-2.01.99-2.01 2.179v.02c0 1.279.88 2.219 2.12 2.219.56 0 1.06-.14 1.449-.42v-.999h-1.55v-1.329h3.039v3.038c-.721.609-1.709 1.109-2.988 1.109-2.179-.001-3.679-1.53-3.679-3.598"/><polygon points="330.558,23.387 335.834,23.387 335.834,24.756 332.087,24.756 332.087,26.176 335.386,26.176 335.386,27.545 332.087,27.545 332.087,29.014 335.886,29.014 335.886,30.383 330.558,30.383"/><polygon points="338.259,23.387 339.917,23.387 341.757,26.346 343.595,23.387 345.255,23.387 345.255,30.383 343.726,30.383 343.726,25.816 341.757,28.804 341.716,28.804 339.767,25.846 339.767,30.383 338.259,30.383"/><polygon points="347.939,23.387 353.214,23.387 353.214,24.756 349.467,24.756 349.467,26.176 352.765,26.176 352.765,27.545 349.467,27.545 349.467,29.014 353.265,29.014 353.265,30.383 347.939,30.383"/><polygon points="355.638,23.387 357.058,23.387 360.335,27.695 360.335,23.387 361.855,23.387 361.855,30.383 360.546,30.383 357.158,25.936 357.158,30.383 355.638,30.383"/><polygon points="366.167,24.806 364.039,24.806 364.039,23.387 369.835,23.387 369.835,24.806 367.707,24.806 367.707,30.383 366.167,30.383"/><path d="M378.417 23.337h1.419l2.999 7.046h-1.609l-.64-1.569h-2.959l-.64 1.569h-1.568l2.998-7.046zm1.619 4.119l-.93-2.27-.93 2.27h1.86z"/><polygon points="385.647,24.806 383.518,24.806 383.518,23.387 389.315,23.387 389.315,24.806 387.186,24.806 387.186,30.383 385.647,30.383"/><polygon points="395.498,23.387 396.917,23.387 400.195,27.695 400.195,23.387 401.713,23.387 401.713,30.383 400.405,30.383 397.016,25.936 397.016,30.383 395.498,30.383"/><path d="M404.087 26.906v-.021c0-1.988 1.569-3.618 3.729-3.618 2.158 0 3.708 1.609 3.708 3.599v.02c0 1.989-1.569 3.618-3.729 3.618-2.158-.001-3.708-1.61-3.708-3.598m5.828 0v-.021c0-1.199-.88-2.198-2.119-2.198s-2.099.979-2.099 2.179v.02c0 1.199.88 2.199 2.119 2.199s2.099-.98 2.099-2.179"/><path d="M413.898 23.387h3.198c.89 0 1.579.25 2.039.71.39.39.6.939.6 1.599v.021c0 1.129-.61 1.839-1.5 2.169l1.709 2.498h-1.799l-1.499-2.238h-1.209v2.238h-1.539v-6.997zm3.098 3.399c.75 0 1.18-.4 1.18-.989v-.021c0-.659-.46-.999-1.209-.999h-1.529v2.009h1.558z"/><polygon points="423.756,24.806 421.627,24.806 421.627,23.387 427.424,23.387 427.424,24.806 425.295,24.806 425.295,30.383 423.756,30.383"/><polygon points="429.608,23.387 431.147,23.387 431.147,26.156 433.985,26.156 433.985,23.387 435.524,23.387 435.524,30.383 433.985,30.383 433.985,27.574 431.147,27.574 431.147,30.383 429.608,30.383"/><polygon points="437.667,23.387 439.317,23.387 440.766,28.125 442.334,23.368 443.654,23.368 445.223,28.125 446.672,23.387 448.282,23.387 445.893,30.433 444.554,30.433 442.974,25.856 441.395,30.433 440.056,30.433"/><polygon points="450.427,23.387 455.704,23.387 455.704,24.756 451.957,24.756 451.957,26.176 455.254,26.176 455.254,27.545 451.957,27.545 451.957,29.014 455.754,29.014 455.754,30.383 450.427,30.383"/><path d="M457.647 29.364l.91-1.089c.63.52 1.289.85 2.089.85.63 0 1.009-.25 1.009-.66v-.02c0-.39-.239-.59-1.409-.89-1.409-.36-2.318-.75-2.318-2.139v-.021c0-1.269 1.02-2.108 2.449-2.108 1.019 0 1.889.319 2.598.89l-.799 1.159c-.62-.43-1.229-.689-1.819-.689s-.899.27-.899.609v.02c0 .46.3.61 1.509.92 1.42.37 2.219.88 2.219 2.099v.021c0 1.389-1.06 2.169-2.568 2.169-1.062-.001-2.131-.371-2.971-1.121"/><polygon points="467.006,24.806 464.877,24.806 464.877,23.387 470.674,23.387 470.674,24.806 468.545,24.806 468.545,30.383 467.006,30.383"/><polygon points="472.857,23.387 478.133,23.387 478.133,24.756 474.386,24.756 474.386,26.176 477.684,26.176 477.684,27.545 474.386,27.545 474.386,29.014 478.184,29.014 478.184,30.383 472.857,30.383"/><path d="M480.557 23.387h3.198c.89 0 1.579.25 2.038.71.391.39.601.939.601 1.599v.021c0 1.129-.61 1.839-1.5 2.169l1.709 2.498h-1.799l-1.499-2.238h-1.209v2.238h-1.539v-6.997zm3.098 3.399c.75 0 1.18-.4 1.18-.989v-.021c0-.659-.46-.999-1.209-.999h-1.529v2.009h1.558z"/><polygon points="488.788,23.387 490.207,23.387 493.485,27.695 493.485,23.387 495.003,23.387 495.003,30.383 493.695,30.383 490.306,25.936 490.306,30.383 488.788,30.383"/><path d="M501.577 27.385v-3.998h1.539v3.958c0 1.14.57 1.729 1.51 1.729s1.509-.569 1.509-1.679v-4.008h1.539v3.948c0 2.118-1.189 3.158-3.068 3.158s-3.029-1.049-3.029-3.108"/><polygon points="510.247,23.387 511.666,23.387 514.944,27.695 514.944,23.387 516.462,23.387 516.462,30.383 515.154,30.383 511.765,25.936 511.765,30.383 510.247,30.383"/><rect x="519.216" y="23.387" width="1.539" height="6.996"/><polygon points="522.908,23.387 524.606,23.387 526.435,28.315 528.263,23.387 529.923,23.387 527.094,30.433 525.736,30.433"/><polygon points="532.007,23.387 537.284,23.387 537.284,24.756 533.537,24.756 533.537,26.176 536.834,26.176 536.834,27.545 533.537,27.545 533.537,29.014 537.334,29.014 537.334,30.383 532.007,30.383"/><path d="M539.707 23.387h3.198c.89 0 1.579.25 2.039.71.39.39.6.939.6 1.599v.021c0 1.129-.61 1.839-1.5 2.169l1.709 2.498h-1.799l-1.499-2.238h-1.209v2.238h-1.539v-6.997zm3.097 3.399c.75 0 1.18-.4 1.18-.989v-.021c0-.659-.46-.999-1.209-.999h-1.529v2.009h1.558zM547.457 29.364l.91-1.089c.63.52 1.289.85 2.089.85.63 0 1.009-.25 1.009-.66v-.02c0-.39-.238-.59-1.409-.89-1.409-.36-2.318-.75-2.318-2.139v-.021c0-1.269 1.02-2.108 2.449-2.108 1.019 0 1.889.319 2.598.89l-.799 1.159c-.62-.43-1.229-.689-1.819-.689s-.898.27-.898.609v.02c0 .46.299.61 1.508.92 1.42.37 2.219.88 2.219 2.099v.021c0 1.389-1.059 2.169-2.568 2.169-1.062-.001-2.132-.371-2.971-1.121"/><rect x="555.406" y="23.387" width="1.539" height="6.996"/><polygon points="561.326,24.806 559.197,24.806 559.197,23.387 564.994,23.387 564.994,24.806 562.865,24.806 562.865,30.383 561.326,30.383"/><polygon points="569.146,27.625 566.458,23.387 568.256,23.387 569.925,26.196 571.625,23.387 573.374,23.387 570.685,27.595 570.685,30.383 569.146,30.383"/></g></svg>