<svg xmlns="http://www.w3.org/2000/svg" width="371.371" height="53.5"><g><polygon fill="#4F2D81" points="74,53.5 0,53.5 40,0 114,0"/><path fill="#fff" d="M56.959 22.758c-.278.232-1.021.927-1.021 1.344s.418.974 1.113 1.902l8.854 11.921c3.615 4.917 5.656 3.619 5.656 4.778 0 .324-.046.604-.603.604-1.021-.002-2.226-.188-3.478-.188-.881 0-1.809.187-3.107.185-.881 0-1.344-.093-2.272-1.345l-9.224-12.663c-.603-.788-.881-1.299-1.159-1.299-.371 0-1.159.788-2.18 1.947-.696.787-.604 1.205-.604 2.271l-.001 6.075c-.002 4.268 4.543 2.784 4.542 4.453 0 .417-.186.557-1.298.556-1.252 0-2.504-.187-5.147-.187-2.226-.002-4.637.184-6.075.184-.881 0-1.438-.047-1.438-.372.001-2.317 3.709.697 3.712-6.306l.007-20.172c.001-5.611-4.869-3.247-4.868-5.287 0-.511.371-.696.928-.696.881 0 2.411.187 5.564.188 2.597.001 5.519-.184 6.446-.184.417 0 .974 0 .974.557-.001 1.854-3.339-.651-3.34 4.451l-.004 10.619c0 .464-.047 1.113.232 1.067.278.046.556-.186 1.159-.788l6.124-5.98c1.299-1.297 5.798-5.053 5.799-7.139 0-1.438-2.829-.836-2.829-1.902 0-.835.464-.881 1.067-.881.464 0 3.664.188 5.055.188 1.159.001 2.365-.185 4.359-.184.371 0 1.206-.046 1.205.789 0 1.252-1.484-.139-5.983 3.94l-8.165 7.554z"/></g><g><polygon points="150.535,15.512 152.074,15.512 152.074,18.57 154.912,15.512 156.771,15.512 153.922,18.48 156.901,22.508 155.052,22.508 152.883,19.53 152.074,20.369 152.074,22.508 150.535,22.508"/><polygon points="158.833,15.512 164.111,15.512 164.111,16.881 160.363,16.881 160.363,18.301 163.662,18.301 163.662,19.67 160.363,19.67 160.363,21.139 164.162,21.139 164.162,22.508 158.833,22.508"/><polygon points="166.535,15.512 168.074,15.512 168.074,21.109 171.561,21.109 171.561,22.508 166.535,22.508"/><polygon points="173.724,15.512 175.264,15.512 175.264,21.109 178.751,21.109 178.751,22.508 173.724,22.508"/><path d="M180.205 19.03v-.02c0-1.989 1.568-3.618 3.728-3.618s3.708 1.609 3.708 3.598v.02c0 1.989-1.567 3.618-3.729 3.618-2.158 0-3.707-1.608-3.707-3.598m5.826 0v-.02c0-1.199-.879-2.199-2.119-2.199-1.238 0-2.099.98-2.099 2.179v.02c0 1.199.88 2.199 2.119 2.199 1.24 0 2.099-.98 2.099-2.179"/><path d="M189.705 19.03v-.02c0-1.989 1.549-3.618 3.668-3.618 1.259 0 2.02.34 2.748.959l-.971 1.17c-.539-.45-1.019-.71-1.828-.71-1.119 0-2.01.99-2.01 2.179v.02c0 1.279.881 2.219 2.119 2.219.561 0 1.061-.14 1.449-.42v-1h-1.55v-1.329h3.039v3.039c-.72.609-1.709 1.109-2.988 1.109-2.178 0-3.676-1.529-3.676-3.598"/><path d="M198.544 19.03v-.02c0-1.989 1.549-3.618 3.668-3.618 1.259 0 2.021.34 2.749.959l-.97 1.17c-.54-.45-1.021-.71-1.829-.71-1.119 0-2.01.99-2.01 2.179v.02c0 1.279.88 2.219 2.119 2.219.561 0 1.06-.14 1.449-.42v-1h-1.55v-1.329h3.039v3.039c-.72.609-1.71 1.109-2.989 1.109-2.177 0-3.676-1.529-3.676-3.598"/><path d="M211.214 21.489l.91-1.089c.629.519 1.289.849 2.089.849.629 0 1.008-.25 1.008-.659v-.02c0-.39-.238-.59-1.406-.89-1.41-.36-2.32-.75-2.32-2.139v-.02c0-1.269 1.02-2.109 2.449-2.109 1.02 0 1.89.32 2.599.89l-.8 1.159c-.619-.43-1.229-.689-1.819-.689-.589 0-.899.27-.899.61v.019c0 .46.302.61 1.511.92 1.42.37 2.219.879 2.219 2.099v.02c0 1.389-1.062 2.169-2.569 2.169-1.062 0-2.133-.37-2.972-1.12"/><path d="M218.783 19.03v-.02c0-1.989 1.5-3.618 3.648-3.618 1.319 0 2.108.439 2.76 1.079l-.979 1.13c-.54-.49-1.091-.79-1.789-.79-1.181 0-2.03.98-2.03 2.179v.02c0 1.199.83 2.199 2.03 2.199.798 0 1.289-.32 1.839-.82l.979.99c-.72.769-1.521 1.249-2.867 1.249-2.062 0-3.591-1.589-3.591-3.598"/><polygon points="227.475,15.512 229.014,15.512 229.014,18.281 231.852,18.281 231.852,15.512 233.391,15.512 233.391,22.508 231.852,22.508 231.852,19.699 229.014,19.699 229.014,22.508 227.475,22.508"/><path d="M235.764 19.03v-.02c0-1.989 1.569-3.618 3.729-3.618 2.158 0 3.708 1.609 3.708 3.598v.02c0 1.989-1.569 3.618-3.728 3.618-2.161 0-3.709-1.608-3.709-3.598m5.827 0v-.02c0-1.199-.881-2.199-2.118-2.199-1.24 0-2.101.98-2.101 2.179v.02c0 1.199.881 2.199 2.119 2.199 1.241 0 2.1-.98 2.1-2.179"/><path d="M245.264 19.03v-.02c0-1.989 1.569-3.618 3.729-3.618 2.158 0 3.708 1.609 3.708 3.598v.02c0 1.989-1.569 3.618-3.728 3.618-2.161 0-3.709-1.608-3.709-3.598m5.827 0v-.02c0-1.199-.881-2.199-2.118-2.199-1.24 0-2.101.98-2.101 2.179v.02c0 1.199.881 2.199 2.119 2.199 1.241 0 2.1-.98 2.1-2.179"/><polygon points="255.074,15.512 256.613,15.512 256.613,21.109 260.102,21.109 260.102,22.508 255.074,22.508"/><path d="M265.954 19.03v-.02c0-1.989 1.569-3.618 3.729-3.618 2.157 0 3.707 1.609 3.707 3.598v.02c0 1.989-1.568 3.618-3.729 3.618-2.158 0-3.707-1.608-3.707-3.598m5.827 0v-.02c0-1.199-.881-2.199-2.119-2.199-1.239 0-2.1.98-2.1 2.179v.02c0 1.199.881 2.199 2.119 2.199 1.24 0 2.1-.98 2.1-2.179"/><polygon points="275.764,15.512 281.091,15.512 281.091,16.911 277.303,16.911 277.303,18.4 280.641,18.4 280.641,19.8 277.303,19.8 277.303,22.508 275.764,22.508"/><polygon points="287.324,15.512 288.982,15.512 290.822,18.47 292.661,15.512 294.32,15.512 294.32,22.508 292.791,22.508 292.791,17.941 290.822,20.929 290.782,20.929 288.833,17.97 288.833,22.508 287.324,22.508"/><path d="M299.402 15.462h1.418l3 7.046h-1.609l-.641-1.569h-2.959l-.639 1.569h-1.568l2.998-7.046zm1.619 4.118l-.931-2.269-.93 2.269h1.861z"/><polygon points="305.904,15.512 307.323,15.512 310.601,19.82 310.601,15.512 312.12,15.512 312.12,22.508 310.811,22.508 307.422,18.06 307.422,22.508 305.904,22.508"/><path d="M317.202 15.462h1.419l2.999 7.046h-1.609l-.64-1.569h-2.959l-.641 1.569h-1.567l2.998-7.046zm1.619 4.118l-.931-2.269-.93 2.269h1.861zM322.943 19.03v-.02c0-1.989 1.55-3.618 3.668-3.618 1.26 0 2.019.34 2.749.959l-.971 1.17c-.539-.45-1.02-.71-1.829-.71-1.118 0-2.009.99-2.009 2.179v.02c0 1.279.88 2.219 2.119 2.219.56 0 1.06-.14 1.449-.42v-1h-1.549v-1.329h3.038v3.039c-.721.609-1.709 1.109-2.988 1.109-2.177 0-3.677-1.529-3.677-3.598"/><polygon points="332.093,15.512 337.37,15.512 337.37,16.881 333.623,16.881 333.623,18.301 336.92,18.301 336.92,19.67 333.623,19.67 333.623,21.139 337.42,21.139 337.42,22.508 332.093,22.508"/><polygon points="339.793,15.512 341.453,15.512 343.292,18.47 345.13,15.512 346.79,15.512 346.79,22.508 345.26,22.508 345.26,17.941 343.292,20.929 343.251,20.929 341.302,17.97 341.302,22.508 339.793,22.508"/><polygon points="349.473,15.512 354.75,15.512 354.75,16.881 351.002,16.881 351.002,18.301 354.3,18.301 354.3,19.67 351.002,19.67 351.002,21.139 354.8,21.139 354.8,22.508 349.473,22.508"/><polygon points="357.173,15.512 358.592,15.512 361.871,19.82 361.871,15.512 363.389,15.512 363.389,22.508 362.081,22.508 358.692,18.06 358.692,22.508 357.173,22.508"/><polygon points="367.703,16.931 365.574,16.931 365.574,15.512 371.371,15.512 371.371,16.931 369.242,16.931 369.242,22.508 367.703,22.508"/><path d="M162.443 29.962h1.419l2.998 7.045h-1.608l-.64-1.567h-2.959l-.639 1.567h-1.57l2.999-7.045zm1.619 4.118l-.93-2.27-.93 2.27h1.86z"/><polygon points="169.673,31.432 167.544,31.432 167.544,30.011 173.341,30.011 173.341,31.432 171.212,31.432 171.212,37.007 169.673,37.007"/><polygon points="179.524,30.011 180.943,30.011 184.222,34.32 184.222,30.011 185.741,30.011 185.741,37.007 184.432,37.007 181.044,32.561 181.044,37.007 179.524,37.007"/><path d="M188.113 33.531v-.021c0-1.988 1.57-3.617 3.729-3.617 2.16 0 3.709 1.609 3.709 3.599v.02c0 1.99-1.568 3.619-3.729 3.619-2.158-.003-3.709-1.611-3.709-3.6m5.828 0v-.021c0-1.197-.879-2.197-2.119-2.197-1.238 0-2.1.979-2.1 2.179v.02c0 1.199.881 2.199 2.118 2.199 1.242-.003 2.101-.981 2.101-2.18"/><path d="M197.923 30.011h3.199c.89 0 1.578.25 2.039.712.389.389.598.938.598 1.6v.02c0 1.129-.608 1.838-1.497 2.168l1.709 2.498h-1.8l-1.5-2.238h-1.209v2.238h-1.539v-6.998zm3.098 3.399c.75 0 1.18-.4 1.18-.988v-.02c0-.66-.46-1-1.209-1h-1.529v2.008h1.558z"/><polygon points="207.783,31.432 205.654,31.432 205.654,30.011 211.451,30.011 211.451,31.432 209.322,31.432 209.322,37.007 207.783,37.007"/><polygon points="213.633,30.011 215.173,30.011 215.173,32.781 218.01,32.781 218.01,30.011 219.55,30.011 219.55,37.007 218.01,37.007 218.01,34.199 215.173,34.199 215.173,37.007 213.633,37.007"/><polygon points="221.693,30.011 223.342,30.011 224.792,34.75 226.361,29.992 227.68,29.992 229.25,34.75 230.699,30.011 232.307,30.011 229.919,37.059 228.581,37.059 227,32.482 225.421,37.059 224.083,37.059"/><polygon points="234.455,30.011 239.73,30.011 239.73,31.38 235.982,31.38 235.982,32.8 239.281,32.8 239.281,34.169 235.982,34.169 235.982,35.639 239.781,35.639 239.781,37.007 234.455,37.007"/><path d="M241.673 35.988l.91-1.088c.629.52 1.288.85 2.088.85.631 0 1.011-.25 1.011-.66v-.02c0-.391-.24-.59-1.41-.891-1.41-.359-2.318-.75-2.318-2.14v-.019c0-1.27 1.02-2.108 2.449-2.108 1.02 0 1.889.319 2.598.891l-.799 1.158c-.62-.43-1.229-.688-1.818-.688s-.898.271-.898.61v.017c0 .461.299.61 1.508.92 1.42.371 2.22.879 2.22 2.1v.02c0 1.39-1.06 2.17-2.567 2.17-1.065-.001-2.133-.372-2.974-1.122"/><polygon points="251.033,31.432 248.904,31.432 248.904,30.011 254.701,30.011 254.701,31.432 252.572,31.432 252.572,37.007 251.033,37.007"/><polygon points="256.884,30.011 262.161,30.011 262.161,31.38 258.413,31.38 258.413,32.8 261.711,32.8 261.711,34.169 258.413,34.169 258.413,35.639 262.211,35.639 262.211,37.007 256.884,37.007"/><path d="M264.584 30.011h3.198c.89 0 1.579.25 2.038.712.391.389.601.938.601 1.6v.02c0 1.129-.61 1.838-1.5 2.168l1.709 2.498h-1.799l-1.499-2.238h-1.209v2.238h-1.539v-6.998zm3.098 3.399c.75 0 1.18-.4 1.18-.988v-.02c0-.66-.459-1-1.209-1h-1.528v2.008h1.557z"/><polygon points="272.814,30.011 274.232,30.011 277.511,34.32 277.511,30.011 279.029,30.011 279.029,37.007 277.721,37.007 274.333,32.561 274.333,37.007 272.814,37.007"/><path d="M285.604 34.009v-3.998h1.539v3.959c0 1.14.57 1.729 1.51 1.729.94 0 1.51-.568 1.51-1.68v-4.009h1.539v3.949c0 2.117-1.189 3.156-3.068 3.156s-3.03-1.047-3.03-3.106"/><polygon points="294.273,30.011 295.693,30.011 298.971,34.32 298.971,30.011 300.49,30.011 300.49,37.007 299.182,37.007 295.792,32.561 295.792,37.007 294.273,37.007"/><rect x="303.244" y="30.011" width="1.539" height="6.996"/><polygon points="306.934,30.011 308.632,30.011 310.461,34.939 312.291,30.011 313.95,30.011 311.122,37.059 309.762,37.059"/><polygon points="316.034,30.011 321.31,30.011 321.31,31.38 317.562,31.38 317.562,32.8 320.861,32.8 320.861,34.169 317.562,34.169 317.562,35.639 321.361,35.639 321.361,37.007 316.034,37.007"/><path d="M323.734 30.011h3.197c.891 0 1.579.25 2.038.712.392.389.602.938.602 1.6v.02c0 1.129-.61 1.838-1.5 2.168l1.709 2.498h-1.799l-1.499-2.238h-1.209v2.238h-1.539v-6.998zm3.098 3.399c.75 0 1.18-.4 1.18-.988v-.02c0-.66-.46-1-1.209-1h-1.528v2.008h1.557zM331.483 35.988l.909-1.088c.631.52 1.289.85 2.09.85.63 0 1.009-.25 1.009-.66v-.02c0-.391-.239-.59-1.409-.891-1.409-.359-2.318-.75-2.318-2.14v-.019c0-1.27 1.021-2.108 2.449-2.108 1.02 0 1.889.319 2.598.891l-.799 1.158c-.62-.43-1.229-.688-1.818-.688-.591 0-.899.271-.899.61v.017c0 .461.3.61 1.509.92 1.42.371 2.22.879 2.22 2.1v.02c0 1.39-1.061 2.17-2.568 2.17-1.064-.001-2.133-.372-2.973-1.122"/><rect x="339.433" y="30.011" width="1.539" height="6.996"/><polygon points="345.353,31.432 343.224,31.432 343.224,30.011 349.021,30.011 349.021,31.432 346.892,31.432 346.892,37.007 345.353,37.007"/><polygon points="353.172,34.25 350.484,30.011 352.283,30.011 353.952,32.82 355.651,30.011 357.4,30.011 354.711,34.22 354.711,37.007 353.172,37.007"/></g></svg>