<?xml version="1.0" encoding="utf-8"?>
<!-- Generator: Adobe Illustrator 15.0.0, SVG Export Plug-In . SVG Version: 6.00 Build 0)  -->
<!DOCTYPE svg PUBLIC "-//W3C//DTD SVG 1.1//EN" "http://www.w3.org/Graphics/SVG/1.1/DTD/svg11.dtd">
<svg version="1.1" id="Layer_1" xmlns="http://www.w3.org/2000/svg" xmlns:xlink="http://www.w3.org/1999/xlink" x="0px" y="0px"
	 width="403.46px" height="399.2px" viewBox="0 0 403.46 399.2" enable-background="new 0 0 403.46 399.2" xml:space="preserve">
<path fill="#FFFFFF" d="M225.988,149.442c-3.386,2.815-12.406,11.269-12.41,16.341c0,5.075,5.072,11.84,13.521,23.118
	l107.615,144.896c43.944,59.763,68.754,43.987,68.747,58.08c0,3.943-0.564,7.326-7.329,7.323c-12.4-0.005-27.053-2.263-42.274-2.27
	c-10.709-0.002-21.981,2.247-37.764,2.242c-10.712-0.002-16.346-1.13-27.615-16.352L176.359,228.9
	c-7.327-9.582-10.706-15.782-14.089-15.784c-4.51-0.004-14.093,9.575-26.498,23.663c-8.459,9.582-7.333,14.654-7.338,27.619
	l-0.022,73.839c-0.018,51.857,55.228,33.838,55.22,54.132c0,5.07-2.257,6.762-15.784,6.757c-15.218-0.005-30.437-2.264-62.569-2.272
	c-27.054-0.01-56.365,2.233-73.839,2.229c-10.709-0.005-17.473-0.569-17.473-4.515c0.01-28.183,45.091,8.468,45.119-76.646
	l0.081-245.197C59.189,4.523-0.008,33.252,0,8.454C0.002,2.251,4.512-0.004,11.278,0c10.708,0.003,29.309,2.265,67.64,2.278
	c31.565,0.01,67.074-2.233,78.349-2.232c5.071,0.002,11.836,0.005,11.835,6.77c-0.008,22.544-40.582-7.906-40.602,54.1
	l-0.041,129.077c-0.004,5.638-0.571,13.529,2.813,12.965c3.381,0.565,6.765-2.253,14.096-9.575l74.427-72.691
	c15.786-15.775,70.476-61.418,70.485-86.781c0.006-17.474-34.379-10.156-34.375-23.121c0.005-10.149,5.639-10.71,12.966-10.707
	c5.639,0.002,44.528,2.271,61.44,2.276c14.091,0.005,28.747-2.247,52.984-2.239c4.51,0.002,14.656-0.557,14.651,9.586
	c-0.003,15.221-18.035-1.696-72.725,47.891L225.988,149.442z"/>
</svg>
