<svg xmlns:xlink="http://www.w3.org/1999/xlink" xmlns="http://www.w3.org/2000/svg" viewBox="0 0 442.3 164.7" enable-background="new 0 0 442.3 164.7"><style type="text/css">.st0{fill:url(#SVGID_1_);} .st1{fill:url(#SVGID_2_);} .st2{clip-path:url(#SVGID_4_);fill:#6CAB36;} .st3{clip-path:url(#SVGID_4_);} .st4{clip-path:url(#SVGID_6_);fill:#6CAB36;} .st5{clip-path:url(#SVGID_6_);fill:#B5B7B7;} .st6{clip-path:url(#SVGID_6_);fill:none;stroke:#939598;stroke-width:0.526;stroke-miterlimit:10;}</style><linearGradient id="SVGID_1_" gradientUnits="userSpaceOnUse" x1="422.687" y1="164.676" x2="422.687"><stop offset="0" stop-color="#6CAB36"/><stop offset=".78" stop-color="#fff"/></linearGradient><rect x="403.1" class="st0" width="39.3" height="164.7"/><linearGradient id="SVGID_2_" gradientUnits="userSpaceOnUse" x1="383.437" y1="164.676" x2="383.437" y2="25.676"><stop offset="0" stop-color="#4B4B52"/><stop offset=".613" stop-color="#fff"/></linearGradient><rect x="363.8" y="25.7" class="st1" width="39.3" height="139"/><defs><rect id="SVGID_3_" y="104" width="356.8" height="54.2"/></defs><clipPath id="SVGID_4_"><use xlink:href="#SVGID_3_" overflow="visible"/></clipPath><polygon class="st2" points="125.4,122.3 104.1,122.3 104.1,128.8 119,128.8 119,132.5 104.1,132.5 104.1,143.8 100,143.8 100,118.5 125.4,118.5"/><rect x="129.1" y="122.3" class="st2" width="4.2" height="21.5"/><polygon class="st2" points="162.4,143.8 139.2,143.8 139.2,122.3 161.5,122.3 161.5,126.1 143.4,126.1 143.4,130.7 156,130.7 156,134.5 143.4,134.5 143.4,140 162.4,140"/><polygon class="st2" points="187.8,143.8 167.1,143.8 167.1,122.3 171.3,122.3 171.3,140 187.8,140"/><g class="st3"><defs><rect id="SVGID_5_" x="-24.2" y="83.3" width="392.6" height="103.7"/></defs><clipPath id="SVGID_6_"><use xlink:href="#SVGID_5_" overflow="visible"/></clipPath><path class="st4" d="M204.9 122.3c3.8 0 6.8 1 9.1 3s3.4 4.5 3.4 7.6c0 2.8-1.2 5.5-3.6 8.1-.7.7-1.7 1.4-3.2 1.9-1.6.6-3.3.9-5 .9h-14.6v-21.5h13.9zm1 17.7c2 0 3.7-.6 5-1.9 1.3-1.3 2-2.9 2-4.9 0-2.1-.7-3.8-2.1-5.1-1.4-1.3-3.3-1.9-5.6-1.9h-10v13.8h10.7z"/><path class="st5" d="M241.6 118.5c2.6 0 4.6.7 6.1 2.1 1.5 1.4 2.3 3.3 2.3 5.7 0 2.5-.8 4.4-2.4 5.8-1.6 1.3-3.9 2-6.9 2h-15v9.6h-4.2v-25.3h20.1zm-.7 11.9c3.2 0 4.9-1.3 4.9-3.9 0-2.8-1.7-4.2-5.1-4.2h-14.8v8.1h15z"/><path class="st5" d="M278.9 143.8h-4.8l-5.6-7.9h-10.7v7.9h-4.2v-21.5h17.4c2.3 0 4.1.6 5.4 1.9 1.3 1.2 2 2.9 2 5 0 3.6-1.8 5.7-5.3 6.5l5.8 8.1zm-8.6-11.7c2.5 0 3.8-1 3.8-2.9 0-2.1-1.3-3.1-4.1-3.1h-12.3v6h12.6z"/><path class="st5" d="M309.7 133c0 3.5-1.5 6.4-4.5 8.6-2.6 1.9-5.8 2.8-9.6 2.8s-7.1-.9-9.6-2.8c-3-2.2-4.5-5-4.5-8.6 0-3.5 1.5-6.3 4.5-8.5 2.7-1.9 5.9-2.9 9.6-2.9 3.7 0 6.9 1 9.6 2.9 3 2.2 4.5 5 4.5 8.5m-4.4 0c0-2.2-.9-4-2.7-5.5-1.8-1.4-4.2-2.1-7-2.1-2.9 0-5.3.7-7.1 2.2-1.8 1.4-2.7 3.3-2.7 5.5 0 2.3.9 4.1 2.7 5.5 1.8 1.4 4.2 2.1 7.1 2.1 2.9 0 5.3-.7 7.1-2.1 1.7-1.5 2.6-3.4 2.6-5.6"/><path class="st5" d="M333.8 127.6c-2.8-1.5-5.8-2.2-9.1-2.2-4.8 0-7.2.9-7.2 2.5 0 1 .9 1.7 2.7 2 2.4.2 4.9.4 7.3.7 3.5.4 6 1 7.5 1.9 1.7 1 2.5 2.5 2.5 4.6 0 2.3-1 4.1-3.1 5.3-2.1 1.3-5 1.9-9 1.9-5.5 0-9.9-1.3-13.2-3.8l2.3-3c3 2.1 6.6 3.1 10.9 3.1 2.4 0 4.3-.3 5.6-.9 1.3-.6 2-1.4 2-2.5s-.8-1.9-2.4-2.4c-.9-.3-2.3-.4-4.2-.5-3-.1-4.8-.2-5.5-.3-2.7-.3-4.6-.8-5.9-1.7-1.3-.9-1.9-2.2-1.9-3.9 0-2 1-3.7 3-4.9 2-1.2 4.8-1.8 8.5-1.8 4.8 0 8.8 1 11.8 3.1l-2.6 2.8z"/><line class="st6" y1="111.6" x2="93.4" y2="111.6"/><line class="st6" y1="150.6" x2="356.8" y2="150.6"/><line class="st6" x1="85.9" y1="158.2" x2="85.9" y2="104"/><line class="st6" x1="349.2" y1="158.2" x2="349.2" y2="143.1"/><polygon class="st4" points="47.8,122.2 12.5,122.2 12.5,130.3 34,130.3 34,134 12.5,134 12.5,143.7 8.3,143.7 8.3,118.5 47.8,118.5"/><path class="st5" d="M74.3 120.6c-1.5-1.4-3.6-2.1-6.1-2.1h-16.6v3.8h15.5c3.4 0 5.1 1.4 5.1 4.2 0 2.6-1.6 3.9-4.8 3.9h-29.6v13.4h4.2v-9.6h25.3c3 0 5.3-.7 6.9-2 1.6-1.3 2.4-3.2 2.4-5.8-.1-2.4-.8-4.3-2.3-5.8"/></g></svg>