<svg xmlns="http://www.w3.org/2000/svg" width="485.687" height="116.026"><polyline points="125.905,70.014 131.813,68.847 132.542,61.48 132.542,35.299 131.813,27.933 125.905,26.767 125.905,24.579 141.657,24.579 145.379,35.299 156.39,63.96 167.693,35.227 171.123,24.579 186.874,24.579 186.874,26.767 181.039,27.933 180.236,35.299 180.236,61.48 181.039,68.847 186.874,70.014 186.874,72.275 166.747,72.275 166.747,70.014 172.58,68.847 173.384,61.48 173.384,29.54 160.839,61.48 157.12,72.275 152.38,72.275 148.441,61.48 135.824,29.54 135.824,61.48 136.625,68.847 142.461,70.014 142.461,72.275 125.905,72.275 125.905,70.014"/><path d="M192.469 70.014l5.104-.948.729-5.544v-15.023l-.729-5.614-5.835-.949v-2.261l13.564-1.311-.729 10.135v15.023l.729 5.544 5.104.948v2.261h-17.938v-2.261m3.793-44.778c0-2.48 2.041-4.597 4.595-4.597 2.479 0 4.597 2.044 4.597 4.668 0 2.334-1.897 4.521-4.597 4.521-2.481 0-4.595-1.821-4.595-4.592zM213.286 57.544c0-11.378 7.148-19.401 17.504-19.401 2.043 0 3.647.221 5.616.657v-8.532l-.804-5.618-5.833-.946v-2.261l13.638-1.314-.804 10.139v33.254l.804 5.544 4.74.948v2.261l-11.741 1.531 1.093-6.928c-3.354 4.521-6.78 6.928-11.596 6.928-7.365 0-12.617-6.345-12.617-16.262m23.12 6.708v-21.588c-2.041-.874-3.646-1.31-5.908-1.31-6.855 0-10.648 5.688-10.648 14.658 0 7.949 2.919 12.762 8.607 12.762 2.554 0 5.251-1.167 7.949-4.522zM250.78 57.544c0-11.378 7.148-19.401 17.504-19.401 2.042 0 3.646.221 5.615.657v-8.532l-.804-5.618-5.833-.946v-2.261l13.639-1.314-.805 10.139v33.254l.805 5.544 4.739.948v2.261l-11.741 1.531 1.094-6.928c-3.354 4.521-6.781 6.928-11.596 6.928-7.366 0-12.617-6.345-12.617-16.262m23.119 6.708v-21.588c-2.04-.874-3.646-1.31-5.908-1.31-6.855 0-10.647 5.688-10.647 14.658 0 7.949 2.918 12.762 8.607 12.762 2.551 0 5.251-1.167 7.948-4.522z"/><polyline points="290.244,70.014 295.348,69.066 296.152,63.522 296.152,30.268 295.348,24.65 289.515,23.705 289.515,21.443 303.082,20.129 302.349,30.268 302.349,63.522 303.153,69.066 308.186,70.014 308.186,72.275 290.244,72.275 290.244,70.014"/><path d="M310.8 56.302c0-11.084 5.616-18.159 14.731-18.159 7.658 0 12.981 4.959 12.688 15.316h-21.075s-.072 1.02-.072 1.604c0 8.239 4.012 14.074 11.741 14.074 2.333 0 4.959-.582 7.509-2.48l1.461 1.971c-4.158 3.792-7.293 5.178-12.545 5.178-8.678 0-14.438-6.27-14.438-17.504m15.9-5.759l4.957-.73c0-5.761-2.699-8.751-6.71-8.751-4.083 0-6.926 3.062-7.73 9.481h9.483zM345.324 72.275v-42.007l-.729-5.618-5.833-.946v-2.261l13.562-1.314-.729 10.139v13.71c2.697-3.573 6.637-5.835 11.088-5.835 7.001 0 11.885 5.98 11.885 15.243 0 11.305-6.78 20.42-19.911 20.42-3.061 0-5.175 0-9.333-1.531m22.829-16.554c0-7.513-3.211-12.619-8.096-12.619-2.99 0-5.835 1.24-8.461 4.304v16.116l.729 6.347c1.752.583 2.99.876 4.888.876 7.512 0 10.94-6.711 10.94-15.024zM383.031 62.429v-13.93l-.804-5.614-5.689-.949v-2.261l13.494-1.311-.732 10.135v12.252c0 5.032 2.335 8.096 6.929 8.096 3.138 0 5.98-1.896 8.022-4.375v-15.973l-.729-5.614-5.689-.949v-2.261l13.491-1.311-.801 10.135v15.023l.801 5.544 5.251.948v2.261l-12.324 1.312.805-6.563c-3.43 4.74-6.494 6.782-11.67 6.782-6.42 0-10.355-4.083-10.355-11.377"/><polyline points="452.722,89.56 452.722,87.08 460.015,85.914 463.151,80.807 466.288,73.442 456.076,48.499 453.086,42.812 449.803,41.936 449.803,39.674 465.777,39.674 465.777,41.936 461.109,42.812 462.862,48.499 469.423,65.346 475.55,48.499 477.153,42.812 472.561,41.936 472.561,39.674 485.687,39.674 485.687,41.936 481.968,42.812 479.198,48.499 463.298,90.506 452.722,89.56"/><path d="M442.989 39.123c-4.139 0-7.406 2.317-10.459 7.452l-.027-.235.011-.851c.025-.371.066-.741.109-1.112l.276-2.43.404-3.554-12.823 1.31v2.26l5.829.946.8 5.608v15.005l-.8 5.537-5.098.946v2.259h18.716v-2.259l-5.825-.946-.799-5.537v-13.776999999999997l.012-.294c2.111-2.61 4.943-3.554 7.124-3.554 1.53 0 3.06.51 4.298 1.093l1.823-7.356c-1.53-.439-2.259-.511-3.571-.511"/><path d="M52.617 116.026l-.567-.272c-26.778-12.845-39.497-29.112-45.451-40.498-6.498-12.425-6.598-21.715-6.599-22.104v-53.152h105.176v53.148c0 .39-.073 9.677-6.553 22.104-5.936 11.385-18.639 27.652-45.44 40.502l-.566.272m-49.996-113.405v50.527c.001.085.123 9.153 6.379 21.045 5.74 10.905 17.96 26.477 43.616 38.924 25.677-12.453 37.882-28.021 43.604-38.926 6.237-11.89 6.334-20.955 6.334-21.043v-50.527h-99.933zM33.667 19.753c-1.183-1.585-2.758-2.859-4.587-3.67.7 1.013 1.291 2.256 1.746 3.67h2.841"/><path d="M25.403 15.338v4.415h3.36c-.848-2.31-2.081-3.876-3.36-4.415"/><path d="M18.986 25.655h4.451v-3.936h-3.94c-.275 1.187-.454 2.506-.511 3.936"/><path d="M20.076 19.753h3.361v-4.416c-1.28.539-2.513 2.105-3.361 4.416"/><path d="M19.497 31.559h3.94v-3.938h-4.451c.057 1.431.236 2.75.511 3.938"/><path d="M23.437 37.939v-4.414h-3.36c.847 2.31 2.08 3.876 3.36 4.414"/><path d="M17.021 27.621h-4.098c.119 1.4.493 2.725 1.067 3.938h3.504c-.257-1.231-.42-2.551-.473-3.938"/><path d="M29.343 21.719h-3.94v3.936h4.451c-.058-1.43-.237-2.749-.511-3.936"/><path d="M17.494 21.719h-3.504c-.575 1.213-.947 2.537-1.066 3.936h4.098c.052-1.386.215-2.706.472-3.936"/><path d="M15.174 33.525c1.183 1.584 2.756 2.857 4.585 3.668-.701-1.013-1.29-2.255-1.745-3.668h-2.84"/><path d="M31.819 25.655h4.097c-.118-1.399-.491-2.723-1.065-3.936h-3.506c.258 1.23.42 2.55.474 3.936"/><path d="M19.759 16.083c-1.829.811-3.402 2.084-4.584 3.669h2.84c.454-1.413 1.044-2.655 1.744-3.669"/><path d="M31.344 31.559h3.505c.575-1.214.948-2.538 1.066-3.938h-4.097c-.053 1.387-.215 2.707-.474 3.938"/><path d="M53.735 5.825v1.309c1 .429 1.704 1.382 1.704 2.504 0 1.121-.704 2.075-1.704 2.503v1.591c1.502.549 4.213 1.864 5.453 4.532 1.16 2.501 1.372 4.666 1.383 5.851h1.069v2.293h-18.103v-2.293h1.068c.012-1.185.224-3.35 1.384-5.851 1.237-2.663 3.948-3.983 5.452-4.534v-1.59c-.999-.429-1.704-1.38-1.704-2.501 0-1.122.706-2.075 1.704-2.502v-1.312h-45.002v45.924s.006 2.066.689 5.503l.238-.081c4.919-1.68 13.799-4.559 19.679-4.559 5.88 0 8.039 1.559 13.679 1.559.651 0 1.279.015 1.895.037v-10.312h19.938v10.65c3.994-.121 6.97-.005 10.567.646 4.979.899 8.04 4.139 11.579 4.679 3.54.541 6.659-.239 10.44-.059l2.312.108c1.28-5.013 1.283-8.172 1.283-8.172v-45.923h-45.003m-29.314 34.325c-7.451 0-13.513-6.062-13.513-13.513s6.062-13.511 13.513-13.511c7.45 0 13.51 6.06 13.51 13.511s-6.06 13.513-13.51 13.513zm39.574 1.795h-22.813v-2.294h3.455v-11.276h15.901v11.276h3.458v2.294zm17.15-20.313c2.381-4.335 7.679-4.419 7.679-4.419.079-.086 0 13.175 0 13.175s-5.298.085-7.679 4.421v-13.177zm-9.552-4.534s5.244.085 7.599 4.42v13.177c-2.355-4.336-7.599-4.421-7.599-4.421s-.076-13.262 0-13.176zm21.259 15.513l-12.599 7.389-12.608-7.389v-14.265h1.966v13.139l10.643 6.237 10.634-6.237v-13.139h1.965v14.265zM29.854 27.621h-4.451v3.938h3.94c.274-1.188.453-2.507.511-3.938"/><path d="M25.403 37.938c1.279-.54 2.512-2.104 3.36-4.413h-3.36v4.413"/><path d="M29.079 37.194c1.829-.81 3.403-2.085 4.586-3.669h-2.84c-.455 1.413-1.046 2.657-1.746 3.669"/><rect x="50.462" y="45.929" width="4.251" height="7.355"/><path d="M49.718 88.003c-.324-.259-.829-.519-1.67-.868-.635.337-1.089.855-1.089 1.607 0 .906.648 1.49 1.66 1.49.906 0 1.528-.532 1.528-1.297-.001-.4-.142-.711-.429-.932"/><path d="M48.629 85.93c.57-.285 1.245-.739 1.245-1.451 0-.688-.505-1.102-1.374-1.102-.83 0-1.375.453-1.375 1.126.001.754.896 1.181 1.504 1.427"/><path d="M55.823 83.416c-.505 0-.895.402-1.141 1.088-.208.559-.298 1.296-.298 2.217 0 .869.064 1.543.181 2.022.234 1.011.7 1.438 1.245 1.438.544 0 .983-.467 1.218-1.219.168-.557.246-1.296.246-2.163 0-.844-.065-1.426-.194-1.983-.247-1.011-.688-1.4-1.257-1.4"/><path d="M65.859 71.74v.047h-26.495l-19.201 12.027c6.84 8.364 17.082 17.088 32.433 24.439 15.388-7.365 25.637-16.105 32.468-24.481l-19.205-12.032m-21.7 19.309h-4.108v-1.153h1.504v-5.754c-.13.078-.532.337-.882.505-.349.169-.83.376-.985.428l-.349-.765 2.604-1.827h1.011v7.413h1.205v1.153zm4.315.246c-1.49 0-3.058-.738-3.058-2.449 0-1.05.7-1.893 1.658-2.229-.79-.323-1.386-1.114-1.386-1.982 0-1.646 1.529-2.294 2.941-2.294 1.633 0 2.762.868 2.762 2.139 0 1.062-.83 1.659-1.725 1.995 1.258.519 2.048 1.142 2.048 2.216 0 1.672-1.75 2.604-3.24 2.604zm7.322-.052c-2.28 0-3.006-2.655-3.006-4.51 0-2.552 1.296-4.393 3.02-4.393 2.319 0 3.045 2.554 3.045 4.433 0 2.682-1.244 4.47-3.059 4.47zm7.257 0c-2.28 0-3.007-2.655-3.007-4.51 0-2.552 1.297-4.393 3.021-4.393 2.321 0 3.045 2.554 3.045 4.433 0 2.682-1.243 4.47-3.059 4.47zM63.079 83.416c-.506 0-.895.402-1.141 1.088-.208.559-.298 1.296-.298 2.217 0 .869.064 1.543.182 2.022.233 1.011.699 1.438 1.244 1.438.543 0 .985-.467 1.218-1.219.169-.557.246-1.296.246-2.163 0-.844-.065-1.426-.194-1.983-.246-1.011-.687-1.4-1.257-1.4"/><rect x="38.909" y="56.496" width="27.359" height="1.965"/><path d="M42.287 61.243h20.603v7.915h-20.603v-7.915zm1.965 5.948h16.671v-3.982h-16.671v3.982z"/><rect x="50.462" y="30.558" width="4.251" height="6.6"/><rect x="46.863" y="30.568" width="1.311" height="6.586"/><rect x="57.001" y="30.568" width="1.311" height="6.586"/><path d="M53.837 9.641c0 .65-.559 1.18-1.248 1.18-.69 0-1.249-.529-1.249-1.18 0-.655.559-1.186 1.249-1.186.689 0 1.248.53 1.248 1.186"/><path d="M39.317 64.661l-22.745 14.342c.484.707.992 1.421 1.523 2.138l21.222-13.381v-3.099"/><path d="M65.858 67.87l21.184 13.389c.533-.717 1.042-1.43 1.527-2.136l-22.711-14.353v3.1"/></svg>