<?xml version="1.0" encoding="utf-8"?>
<!-- Generator: Adobe Illustrator 15.0.0, SVG Export Plug-In . SVG Version: 6.00 Build 0)  -->
<!DOCTYPE svg PUBLIC "-//W3C//DTD SVG 1.1//EN" "http://www.w3.org/Graphics/SVG/1.1/DTD/svg11.dtd">
<svg version="1.1" id="Layer_1" xmlns="http://www.w3.org/2000/svg" xmlns:xlink="http://www.w3.org/1999/xlink" x="0px" y="0px"
	 width="389.458px" height="228.368px" viewBox="0 0 389.458 228.368" enable-background="new 0 0 389.458 228.368"
	 xml:space="preserve">
<rect x="-5.271" y="-0.382" fill="#06132D" width="400" height="38.5"/>
<rect x="7.526" y="21.618" fill="#B8002A" width="13.5" height="51"/>
<rect x="37.484" y="7.618" fill="#B8002A" width="13.5" height="51"/>
<rect x="67.443" y="4.118" fill="#FD0029" width="13.5" height="51"/>
<rect x="97.401" y="11.118" fill="#FE3400" width="13.5" height="51"/>
<rect x="127.359" y="26.118" fill="#FF9100" width="13.5" height="51"/>
<rect x="157.318" y="-0.382" fill="#FFA400" width="13.5" height="51"/>
<rect x="187.276" y="9.618" fill="#FFC500" width="13.5" height="51"/>
<rect x="217.233" y="9.618" fill="#928D3B" width="13.5" height="51"/>
<rect x="247.192" y="25.618" fill="#969E31" width="13.5" height="51"/>
<rect x="277.151" y="-0.382" fill="#E8D726" width="13.5" height="51"/>
<rect x="307.108" y="5.118" fill="#E8E200" width="13.5" height="51"/>
<rect x="337.067" y="21.118" fill="#FFDF25" width="13.5" height="51"/>
<rect x="367.026" y="10.118" fill="#BE000A" width="13.5" height="51"/>
</svg>
