<?xml version="1.0" encoding="utf-8" ?>
<!-- Generator: Adobe Illustrator 15.0.0, SVG Export Plug-In . SVG Version: 6.00 Build 0)  -->
<!DOCTYPE svg PUBLIC "-//W3C//DTD SVG 1.1//EN" "http://www.w3.org/Graphics/SVG/1.1/DTD/svg11.dtd">
<svg version="1.1" id="Layer_1" xmlns="http://www.w3.org/2000/svg" xmlns:xlink="http://www.w3.org/1999/xlink" x="0px" y="0px" width="230.277px" height="43.295px" viewBox="0 0 230.277 43.295" enable-background="new 0 0 230.277 43.295" xml:space="preserve">
	<g>
		<g>
			<path fill="#06132D" d="M24.719,28.896c2.335,0,3.012-0.415,3.238-3.69l0.904-13.855c0.226-3.351-0.189-3.841-2.373-3.841V6.493
			h6.966l8.133,17.432l7.68-17.432h6.966v1.016c-2.107,0-2.56,0.451-2.409,2.184l1.355,17.132c0.151,1.921,0.867,2.07,3.088,2.07
			v1.016H47.575v-1.016c3.087,0,3.614-0.754,3.313-4.744l-1.017-13.893h-0.075l-8.698,19.653h-1.279l-8.85-19.163h-0.075
			L29.99,24.679c-0.263,4.03,0.604,4.03,3.089,4.217v1.016h-8.36V28.896z" />
			<path fill="#06132D" d="M59.246,15.529l5.686-1.582h0.828v11.935c0,2.485,0.528,3.09,2.749,3.09v0.939h-9.262v-0.939
			c2.109,0.075,2.937-0.64,2.937-2.674v-8.434c0-0.792-0.075-1.13-2.937-1.507V15.529z M63.765,5.514
			c1.354,0,2.296,0.791,2.296,1.958c0,1.205-0.979,2.034-2.41,2.034c-1.355,0-2.297-0.791-2.297-1.996S62.297,5.514,63.765,5.514z" />
			<path fill="#06132D" d="M81.76,27.917c-2.294,1.544-4.064,2.409-6.248,2.409c-3.313,0-5.949-3.201-5.949-7.305
			c0-4.931,3.877-8.66,8.961-8.66c1.055,0,2.219,0.151,3.235,0.414V9.241c0-1.317-0.486-2.108-2.484-2.071V6.229l5.122-1.582h0.941
			v21.5c0,0.867,0.301,1.204,1.053,1.204c0.076,0,0.829-0.075,1.469-0.301v0.866l-5.157,2.447H81.76V27.917z M81.76,18.653
			c-1.428-1.958-2.671-2.785-4.254-2.785c-2.559,0-4.178,2.258-4.178,5.798c0,3.916,1.77,6.628,4.406,6.628
			c1.129,0,2.07-0.34,4.026-1.469V18.653z" />
			<path fill="#06132D" d="M101.379,27.917c-2.297,1.544-4.068,2.409-6.251,2.409c-3.313,0-5.949-3.201-5.949-7.305
			c0-4.931,3.877-8.66,8.961-8.66c1.055,0,2.223,0.151,3.239,0.414V9.241c0-1.317-0.491-2.108-2.485-2.071V6.229l5.12-1.582h0.943
			v21.5c0,0.867,0.302,1.204,1.055,1.204c0.074,0,0.828-0.075,1.468-0.301v0.866l-5.159,2.447h-0.94L101.379,27.917L101.379,27.917z
			 M101.379,18.653c-1.431-1.958-2.673-2.785-4.255-2.785c-2.562,0-4.179,2.258-4.179,5.798c0,3.916,1.768,6.628,4.403,6.628
			c1.13,0,2.072-0.34,4.03-1.469V18.653z" />
			<path fill="#06132D" d="M108.644,6.229l5.385-1.582h1.09v21.538c0,2.146,0.565,2.786,2.864,2.786v0.939h-9.34v-0.939
			c2.372,0,2.9-0.753,2.9-3.051V9.542c0-1.732-0.152-2.146-2.9-2.372V6.229z" />
			<path fill="#06132D" d="M133.269,26.186c-1.882,2.824-4.367,4.141-7.644,4.141c-5.271,0-7.002-4.065-7.002-7.569
			c0-4.893,3.276-8.396,7.794-8.396c2.032,0,3.651,0.677,4.669,1.693c1.732,1.734,1.055,3.503,2.372,4.069v1.054h-11.258
			c0,4.179,2.296,6.964,5.61,6.964c1.619,0,3.161-0.865,4.742-2.634L133.269,26.186z M129.127,20.123
			c-0.301-3.125-1.431-4.744-3.352-4.744c-1.995,0-3.198,1.582-3.576,4.744H129.127z" />
			<path fill="#06132D" d="M136.661,9.052c0-1.279-0.564-1.882-2.484-1.882V6.229l4.97-1.582h1.093v12.274
			c2.973-1.996,4.329-2.561,5.948-2.561c3.464,0,6.175,3.238,6.175,7.343c0,4.292-2.975,8.622-9.977,8.622
			c-0.867,0-1.733-0.075-2.714-0.15c-0.939-0.074-1.917-0.226-3.011-0.411V9.052L136.661,9.052z M140.239,23.776
			c0,2.973,0.564,5.346,3.765,5.346c2.824,0,4.594-2.373,4.594-5.951c0-3.5-1.618-6.476-4.479-6.476
			c-1.093,0-2.108,0.377-3.878,1.506L140.239,23.776L140.239,23.776z" />
			<path fill="#06132D" d="M167.466,30.326h-0.867v-2.862c-3.388,2.223-4.894,2.862-6.589,2.862c-2.748,0-4.027-1.958-4.027-4.856
			v-6.702c0-1.922-0.076-1.998-2.337-2.447v-0.829l4.97-1.13h0.942v10.091c0,2.034,0.715,3.577,2.898,3.577
			c1.056,0,2.184-0.527,4.142-1.881v-7.721c0-1.581-0.227-1.919-3.239-2.258v-0.903l5.875-0.904h0.941v11.974
			c0,1.544,0.149,1.807,0.941,1.807c0.376,0,0.791-0.075,1.582-0.226v0.94L167.466,30.326z" />
			<path fill="#06132D" d="M173.452,16.771v-0.752l5.156-1.657h0.942v3.766h0.074c1.469-2.786,2.337-3.766,3.353-3.766
			c0.563,0,1.279,0.49,3.539,0.943l-1.242,3.087c-1.694-0.339-2.787-1.055-3.274-1.055c-0.867,0-1.659,0.79-2.449,2.409v6.25
			c0,2.713,0.679,3.014,3.766,2.976v0.939h-9.864v-0.939c1.731,0,2.522-0.604,2.522-2.824v-8.436L173.452,16.771z" />
			<path fill="#06132D" d="M190.385,18.353c-1.168-2.409-1.431-2.6-3.275-2.637v-0.941h8.81v0.941c-1.693,0-2.181,0.338-2.181,1.054
			c0,0.414,0.147,0.791,0.526,1.583l3.539,7.38l2.637-5.874c0.602-1.32,0.829-2.148,0.829-2.711c0-1.095-0.715-1.433-2.374-1.433
			v-0.941h6.664v0.941c-1.504,0.076-2.146,0.717-3.162,2.976l-6.889,15.4c-1.394,3.125-2.6,4.556-4.181,4.556
			c-1.129,0-1.996-0.827-1.996-1.92c0-2.408,2.938-1.431,4.407-2.899c0.376-0.376,0.939-0.94,2.181-3.916L190.385,18.353z" />
		</g>
	</g>
</svg>
