<?xml version="1.0" encoding="utf-8"?>
<!-- Generator: Adobe Illustrator 18.1.1, SVG Export Plug-In . SVG Version: 6.00 Build 0)  -->
<!DOCTYPE svg PUBLIC "-//W3C//DTD SVG 1.1//EN" "http://www.w3.org/Graphics/SVG/1.1/DTD/svg11.dtd">
<svg version="1.1" id="Layer_1" xmlns="http://www.w3.org/2000/svg" xmlns:xlink="http://www.w3.org/1999/xlink" x="0px" y="0px"
	 viewBox="0 0 980.7 977.9" enable-background="new 0 0 980.7 977.9" xml:space="preserve">
<path fill-rule="evenodd" clip-rule="evenodd" fill="#F4F4F3" d="M776.9,693.2c12.2,14.5,27.7,26,45.2,33.3
	c0.2-8.2,1.2-16.4,3.1-24.5C803.6,697.7,800.9,693.3,776.9,693.2L776.9,693.2z M753.8,693.2c3.4,0,36.5,38.8,68.9,48.4
	c0.9,8.3,2.7,16.5,5.4,24.3c-3.7-1.2-7.4-2.6-11.1-4.3C787.3,748.5,764.5,723.6,753.8,693.2L753.8,693.2z M478.3,81.8
	c27-12.6,56.4-18.4,85.8-17.2c10.3,5,20.4,10.5,30.3,16.5C663,123,771.6,292.4,752.6,378.8C729.7,270.2,662,174.5,563.6,118
	C536.3,102.3,507.7,90.3,478.3,81.8L478.3,81.8z M783,315.1c7.3-11.3,15.8-21.7,25.3-31c-9.4,1-18-5.1-14.9-17.1
	c1.8-6.9,8.2-11.6,15.3-11.2c-3.7,1.5-6.3,4.8-6.9,8.8c-2.3,15.9,16.5,10.1,15.7-4.7c-0.4-7.2-6-13-13.1-13.7
	C759.9,249.1,778,288,783,315.1L783,315.1z M804.4,835.8c-9.6-10.8-14.9-25.1-14.3-39.9c-24.7-17.9-46-40.4-62.6-66.5
	c16.5,26.5,24.5,57.1,23.4,87.8C766.4,829.2,785.2,835.6,804.4,835.8L804.4,835.8z M695.9,873.6c26.7-35.2,36-82.1,21.7-126.5
	c16.8,27.3,23.5,59.6,18.8,91.3c-2.4,21.3-9.1,41.7-19.6,59.9C707.5,892.4,700.2,883.7,695.9,873.6L695.9,873.6z M382.3,886.5
	c109.8-12.1,214.8-59.5,297.6-138.3c-33.7,93.1-126.8,151.1-225.2,140.3c-29.4,20.7-62.7,34.8-97.6,41.7
	C361.5,913.8,370.2,898.7,382.3,886.5L382.3,886.5z M355.5,937c-0.5,2.8-1,5.6-1.3,8.4c18.4-2.1,36.1-5.7,50.8-14.2
	c6.8,6.1,13.2,14.1,18.8,22.2c12.8-2.5,25.5-5.4,38-8.9c11.9-12.1,21.5-26.4,28.2-42.2c-9.7,0.2-19.5-0.3-29.3-1.4
	C428.8,921.4,392.7,933.6,355.5,937L355.5,937z M673.7,849.1c0.4,14.8-1.3,29.4-5,43.4c30-36.9,45.6-83.9,42.9-132
	C705,793,691.9,823,673.7,849.1L673.7,849.1z M618.3,861.3c-10.5,7.2-21.6,13.6-33.1,19c-14.7,25.4-34.4,47.2-57.6,64.4
	c20.9-6.4,40.6-15.3,58.9-26.3C598.6,900.3,609.3,881.2,618.3,861.3L618.3,861.3z M601.4,908.5c54-38.1,92.5-96,105.3-163.2
	c-14,40.3-38.1,74.7-68.8,100.9C627.8,868.1,615.6,889,601.4,908.5L601.4,908.5z M485,937.4c30.4-10.1,63.5-20.5,80.9-49.1
	c-17.9,6.5-36.7,10.9-56.1,12.9C503.2,914.3,494.8,926.5,485,937.4L485,937.4z M454.5,951.3c-6.8,5.9-14.1,11.2-22.1,15.8
	c-2.1-3.6-4.4-7.3-6.8-11C435.3,954.8,445,953.2,454.5,951.3L454.5,951.3z M130.7,725.8c11.6,1.4,23.4,1.5,35.4,0.1
	c10.5,27.2,29.6,48.8,53,62.9c-4.8,1-9.6,1.8-14.5,2.5C177.9,771.7,153.2,749.8,130.7,725.8L130.7,725.8z M222.3,803.8
	c5.6-1.4,11.1-3.2,16.5-5.3c24.5,9.4,52,11.3,79,3.8c1.4,11,4.8,21.4,9.9,30.8c-11.7,4.4-23.7,7.9-35.9,10.4
	C267.6,831.9,244.4,818.6,222.3,803.8L222.3,803.8z M851.4,396.1c47-11.4,107.1,7.2,124.1,49.6c9.8,24.5,5.6,52.4-11.2,72.7
	c-16.7,20.3-43.1,29.6-68.7,24.3c24.2,4.2,48.7-5.6,63.4-25.5c14.8-19.8,17.3-46.3,6.5-68.6c-10.7-22.3-32.9-36.7-57.5-37.2
	c23.8,9,38.4,33.3,35.5,58.7c-2.9,25.5-22.6,45.7-47.8,49.1c-25.2,3.4-49.4-11-58.7-34.9c6.9,17.7,23.4,29.7,42.2,30.7
	c18.8,1,36.4-9.3,45-26.3c8.6-16.9,6.6-37.4-5.2-52.2c-11.8-19.2-32.1-31.3-54.4-32.7c-22.3-1.4-43.9,8.2-58,25.8
	c13.9-5.5,29.7-3.4,41.7,5.6c12,9,18.5,23.7,17.2,38.8c-3.6-17.5-16.9-31.4-34-35.7C758.9,420,744.7,557.6,752,595.5
	c1.5,5.2,3.2,10.3,5.3,15.4c16.2,39.7,49.4,70,90.4,82.5c9.2,0.9,18.5,0.9,27.8,0c37.3-3.9,71.4-23,94.1-53
	c-21.5,34-56.8,56.9-96.5,62.9c-12.4,1.9-24.8,2-37,0.6c-2.6,8.6-4.1,17.4-4.7,26.2c3.3,1.1,6.6,2,9.9,2.7
	c34,7.8,69.8,0.3,97.7-20.6c-27,26.8-65.3,38.9-102.8,32.6c-1.7-0.3-3.4-0.6-5-1c0.4,8.2,1.6,16.3,3.7,24.2
	c29.4,7.7,60.9,3.8,87.8-11.5c-24.7,17.5-54.8,25.2-84.5,22.1c4,11.1,9.6,21.6,16.9,31.3c-9.2-9.5-16.6-20.3-22.1-32
	c-3.2-0.5-6.5-1.1-9.7-1.8c-34.4-8-63.7-30.3-80.6-61.3c22.7,50,62.2,90.5,111.5,114.6c-20.2-7-39.2-16.5-56.7-28.2
	c0,12.5,3.9,24.6,11,34.7c9.2-0.3,18.4-2.1,27.3-5.4c-8.1,3.9-16.6,6.6-25.3,8.1c3,3.7,6.4,7.2,10.3,10.1c-5-2.6-9.5-5.8-13.5-9.6
	c-9.9,1.4-19.9,1.4-29.7-0.2c5.4,14.1,16.8,25.2,31.4,30c-18.5-2.8-34.1-15.1-41.4-32.2c-6.1-1.6-12-3.8-17.8-6.6
	c-0.7,6-1.8,11.9-3.2,17.8c-1.4,5.9-3.2,11.7-5.3,17.4c6.3,13,18.2,22.5,32.5,25.6c-14.4,1.3-28.2-5.7-35.6-17.9
	c-4.3,10.1-9.7,19.6-15.9,28.5c12.5,6,26.8,7,40.1,2.7c-14.1,5.5-29.2,5.5-42.7,1c-11.8,15.8-26.7,29.3-43.9,39.7
	c15.3-11.6,28.2-25.9,38.2-41.9c-9.9-4.4-18.7-11.4-25.3-20.7c-6.9,7.7-14.7,14.7-23.3,20.7c-7.6,22.1-20.3,42.5-37.3,59.2
	c14.2-15.7,24.3-34.3,29.7-54.3c-2.6,1.6-5.3,3.1-8.1,4.6c3.2-2.9,6.2-5.9,9.2-9c3-12.7,4-25.9,3.1-39.1
	c-8.6,10.5-18.1,20.2-28.4,29c-9.1,15.9-11.8,35-6.8,53.2c-13.5,9.8-28.8,16.9-45,20.8c13.6-6.3,26.1-14.9,36.9-25.2
	c-2.4-13-1.5-26.4,2.6-38.9c-9.9,7.4-20.3,14.1-31.3,19.9c-15.1,18.8-32.1,36.1-50.7,51.7c14.5-14.4,27.7-29.8,39.6-46.2
	c-17,7.9-35.1,13.9-53.9,17.6c-19.4,14-41.3,24.7-64.8,31.5c27.6-11.2,52.4-27.7,73.1-48.4c-18.9,6.9-38.2,12.6-57.7,17.3
	c-13.2,12.4-28.4,22.6-45.2,30.1c-3.2-7.1-7.3-13.8-12.1-19.8c-16.6,2-33.3,3.3-50,3.7c16.2-1.2,32.2-3.2,48.2-6
	c-4.6-5.5-9.8-10.4-15.6-14.7c-15.3,5.6-31.1,9.2-47.2,10.6c-0.2,3.2-0.2,6.4,0,9.7c-1.3-3.1-2.4-6.2-3.2-9.4
	c-13.5,1-27.1,0.4-40.6-1.6c12.8-1.3,26.2-2,39.4-3.3c-0.5-2.8-0.9-5.6-1.1-8.4c-17.4,1-35,0.1-52.5-2.8c17.6,0.8,35.1-0.1,52.3-2.9
	c0.1-15.6,5.3-30.9,15.1-43.6c-6.3,0.5-12.6,0.8-18.9,1c-27.4,9.1-52.9,23.2-75.3,41.5c-22.2-22.3-49-39.5-78.4-50.4
	c29.7,5.1,57.2,19,78.9,40c13-13.1,28.4-23.6,45.2-30.9c-46.9-1.1-94.1-8.6-140.2-22.8c68.2,16.9,137.8,19.3,204.9,8.5
	c-18-5.5-33.4-16.4-44.3-30.8c-17.5,6.1-35.5,10.1-53.8,12l0,0l0,0c-48.7,5-99-5.2-143.3-31.3c39.8,19,82.9,26.4,125,22.8
	c-22.5-11.2-43.8-24.6-63.6-39.9c-36.1,3.3-72.8-7-102.3-30.2c27,10.9,55.8,16.1,84.5,15.4c-11.6-10.3-22.6-21.2-33-32.9
	c-13.4-12-26-24.8-37.8-38.2c-37.4-9.8-70.2-34-90.6-68.5c19.5,26,46.7,43.9,76.8,52C45.9,642.1,12.3,566.2,0,485
	c20.5,83.9,60.6,160.4,115.7,224.2c17.9,2.3,36.4,1.2,54.5-3.7c31,60.6,99,92.8,165.5,78.2c2.6,14.2,7.7,27.5,15,39.3
	c21-10.5,40.8-24.1,58.5-40.9c90.7,13.2,181.8-20.7,241.9-89.9c30.5-29.8,45.1-72.3,39.3-114.6c-1.7-12.3-5-24.1-9.8-35.2
	c-19-40.2-54.7-69.6-96.9-80.5c-33.9-8.4-69.6,4.5-90.4,32.8c-20.9,28.4-22.8,66.7-4.9,97.1c17.9,30.4,52.2,46.9,86.9,41.9
	c-37.9,7.7-76.6-8.7-97.6-41.5c-21-32.8-20-75.2,2.6-106.9c5.6-7.9,12.3-14.7,19.7-20.4c-29.4,10-54.7,29-72.7,54
	c-3.6,22.8-0.6,46.5,9,67.9c13.3,29.8,38.2,52.7,68.8,63.4c-51.1-11.3-87.9-54.6-92.7-105.4c-30.4,67.5,18.6,136.6,89.5,141.2
	c54.6,3.6,103.2-34.6,113.2-88.8c-3.4,44.2-31.4,82.5-72.1,98.9c-40.7,16.4-87.2,7.9-119.7-21.8c-32.5-29.7-45.5-75.5-33.4-118.1
	c18.4-61.4,70.7-106.2,133.7-114.4c35.6-4.7,70.9,2.8,100.9,20.1C385.6,284.4,362.6,596.5,162,537.9
	C84.1,515.2,38.7,441.3,49.4,361.2c-1.2,26.7,4.2,52.5,15,75.6c-0.3-5.3,0.9-10.8,3.5-15.8c7.4-13.9,27.1-21.6,41.4-15.1
	c14.3,6.5,23.7,21.4,13.1,39.7c11.7-27.9-19.9-49.5-40.5-33.1c-33,26.2,21.8,81.4,46,95.1c10.1,5.7,21.3,10.4,33.4,14.2
	c39.3,12.2,80.4,8.3,115.5-8.7c-42.2,3.7-84.5-12.4-114-44.8c53.4,41.9,130.7,55.1,174.3-6.3c-31.6,10.4-65.8,11.7-98.8,3.2
	C138,439,63.2,313.1,162.8,244.5c39.3-27.1,89.1-21.1,128.1,6.7c85.8,61.1,64.4,170.4-65.1,172.2c-39.3,0.6-59.4-53-33.4-101.2
	c6.9-12.7,17-25.3,35.2-34.5c20.9-6.7,43.6,2.1,54.6,21.1c11,19,7.2,43.1-9,57.8c11-12.1,13.8-29.5,7.3-44.4
	c-6.5-15-21.2-24.7-37.6-24.8C193,296.9,171,397,225.4,405.8c55.6,9.1,167.9-61,49.6-148.7c-33.2-23.3-77.5-22.6-109.9,1.8
	c-87.5,65.6-11.5,173.2,75,197.1c124.9,34.5,154.4-78.1,285-61.1c-32.3-14.6-147.6-79.6-166.1-100.8c24.8,17.9,52.6,30.9,82.1,38.5
	c-22.4-25.6-39.7-56-50.3-89.8c33.2,70.3,93.1,123.6,165.6,148.2c-2.8-4.2-5.6-8.4-8.2-12.7c-12.8-29.8-3.8-64.5,21.9-84.1
	c25.6-19.6,61.2-19,86.1,1.5c-19.3-11.7-43.2-11.3-62.8-0.2c-85.1,48.4,21.7,127.1,62.9,144.6l51.5,27.5
	c-0.4-24.1,2.7-46.3,6.6-67.4c26.5-141.8-125.5-69.1-55.9-7.5c-15.4-10-24.2-27.6-23-46.1c1.2-18.4,12.2-34.8,28.8-42.6
	c11.6-5.5,24.6-6.3,36.5-2.5c-5.8-11.5-12.2-22.6-19.1-33.5c-106.5-42.4-199.5,103.4-273.3-55.1c88,131.9,151.1,8.9,256.1,30.3
	c-1.1-1.4-2.1-2.8-3.2-4.3c-33.2-26.5-71.5-44.4-111.6-53.2c-15.7,1-30.9,8.7-41.1,22.1c-5.2,7.4-5.3,17.4-0.1,24.8
	c5.2,7.5,14.4,10.8,23.1,8.4c7.4-1.2,12.7-7.9,12.4-15.4c-0.4-7.6-6.3-13.7-13.8-14.2c7.8-0.8,15.4,2.7,19.8,9.3
	c4.4,6.5,4.9,15,1.3,22c-8.8,11.9-24.2,16.7-38.2,11.8c-13.9-4.9-23-18.4-22.5-33.3c1.2-16.1,10-30.5,23.6-38.8c1-0.6,2-1.2,3-1.7
	c-41.5-4-84.1,1.6-124.4,17.4c71.4-38.2,155.9-39.4,227.6-4.8c-17.2-16.5-35.9-31.5-56.2-44.9l-1.3-0.9
	c-29.4-10.4-59.7-17.1-90.3-20c-31.3,30.4-55.2,44.1-101.3,23.3c36.8,10.4,62.2,3.3,85.6-24.4c-52.3-2.8-105.1,5.2-155,24.2
	c66.3-37.4,143.7-47.1,216.1-28.4c-79.4-48.4-224.3-45.7-240.2,28.6c-7.6,35.3,22.2,110.7,66.6,73.9c19.3-16,18.7-57.7-4.9-57.7
	c-7.9,0-14.7,5.7-16.1,13.6c-0.3,7.1,2.7,13.9,8,18.6c5.3,4.7,12.4,6.7,19.3,5.4c-8.4,6.1-19.7,6.3-28.3,0.5
	c-8.6-5.8-12.8-16.4-10.5-26.6c2.1-9.6,9-17.3,18.1-20.6c9.1-3.3,19.3-1.5,26.9,4.6c32.3,27.8,7,82.4-33.6,81.3
	c-28.4-0.8-50.7-18.1-55.5-46c-3.5,6.6-8.8,12.2-15.5,16.1c-14.7,8.5-33.1,6.8-46-4.3c-8.1-7.1-10.5-18.8-5.8-28.5
	c4.7-9.7,15.2-15.1,25.8-13.1c4.9,0.9,9,4.5,10.4,9.4c1.4,4.9,0,10.1-3.6,13.6c-3.7,3.5-8.9,4.6-13.7,2.9c4.3,0.8,8.5-1.8,9.6-6.1
	c1.1-4.3-1.3-8.7-5.5-10c-6.5,0.6-12.1,5.1-13.9,11.5c-1.8,6.4,0.5,13.2,5.7,17.2c16,5.5,33.7,1,45.3-11.4c2.3-2.4,4.2-5.1,5.9-7.9
	c-6.5-40.3,4.3-56.8,16.4-74.6C132.4,144,96.4,223.1,59.5,336.8C96.2,136,207.5,114.1,311.5,84.5c-55.4,4.9-110,21.5-160.2,50
	c96.2-65.9,214.9-84.2,323.8-53.7C494,66,516.4,56.8,539.9,54c-91.8-36.1-195.5-32.2-285.3,13C471-45.9,663,34.9,758.7,235.9
	c-2.4-19.4-6.6-38.3-12.5-56.7c-0.9-2.2-1.6-4.5-2.2-6.7C723.5,113.7,647.9,0,517,0C654,0,719.1,92.4,742.6,139.8
	c3.8-19.7,15.9-37.6,34.4-48.1c-16.8,19.2-25.6,43.7-25.3,68.6c11.1,28,17.5,57.9,18.8,88.7c0.4-0.5,0.9-1.1,1.3-1.6
	c10.5-11.7,27.4-15.1,41.5-8.4c11,4.5,16.9,16.5,13.8,28c-0.1,0.4-0.2,0.8-0.3,1.1c21.4-16.1,44.7-26.3,49.2-51
	c3.6-19.8-2.3-41.7-24.2-46.2c-3-0.6-6-0.8-8.9-0.6c-6,0.4-11.8,2.5-16.7,6.2c-8.2,5.2-11.3,15.7-7.4,24.6
	c4,8.9,13.8,13.5,23.1,10.9c5.9-2.3,9.5-8.2,9-14.6c-0.5-6.3-5.1-11.5-11.3-12.8c8.6,0.6,15.8,6.6,18.1,14.9
	c2.2,8.4-1,17.3-8.2,22.1c-7.1,4.9-16.5,4.6-23.4-0.6c-14.8-8.2-20.8-26.5-13.9-42.1c6.9-15.5,26.3-22.8,42.2-17.1
	c19.5,8.4,33.5,28.3,34.2,49.8c1.5,51.6-69.9,61-102.3,124.5c0.2,1.4,0.3,2.8,0.5,4.2c10.7-22.2,28.1-40.5,49.8-52.8
	c29.2-16.6,63.9-19.7,95.5-8.7c-32.9-8.7-67.9-1.8-95.1,18.8c-24.4,18.5-40,46.2-43.6,76.5c45.1-18.1,64.5-46.2,67.9-77.8
	c0.1,39-16.5,76.2-45.4,102.1c47.4-23.8,154.1-54.9,129.6-126.8C972.1,345.8,909.9,370.2,851.4,396.1L851.4,396.1L851.4,396.1z
	 M358.6,834.5c12.3,15.6,28.6,27.9,47.5,35.5c100.1-21.7,193.2-73.2,265.6-150.6c-65.4,70-163.3,99.5-256.5,77.1
	C398,812.2,378.9,824.9,358.6,834.5z"/>
</svg>
