<svg xmlns="http://www.w3.org/2000/svg" width="320" height="132"><g fill-rule="evenodd" clip-rule="evenodd"><path fill="#5A5A5A" d="M69.168 83.261c1.029 1.227 2.34 2.192 3.822 2.812.013-.69.1-1.384.262-2.068-1.824-.366-2.055-.742-4.084-.744zm-1.944-.003c.286.001 3.08 3.278 5.824 4.087.078.7.23 1.39.456 2.057-.316-.104-.629-.224-.937-.359-2.517-1.117-4.442-3.218-5.343-5.785zm-23.277-51.659c2.28-1.061 4.768-1.552 7.253-1.451.87.421 1.726.887 2.562 1.398 5.786 3.539 14.96 17.849 13.358 25.146-1.936-9.173-7.656-17.259-15.968-22.031-2.304-1.323-4.724-2.342-7.205-3.062zm25.743 19.713c.618-.953 1.337-1.831 2.141-2.62-.797.083-1.523-.428-1.256-1.449.152-.584.692-.979 1.29-.943-.312.123-.534.406-.581.74-.191 1.342 1.394.853 1.324-.397-.033-.61-.504-1.103-1.106-1.158-3.765.25-2.238 3.54-1.812 5.827zm1.808 43.992c-.812-.915-1.257-2.121-1.208-3.372-2.085-1.515-3.884-3.416-5.289-5.618 1.392 2.237 2.068 4.822 1.976 7.416 1.305 1.014 2.898 1.558 4.521 1.574zm-9.166 3.196c2.26-2.971 3.039-6.94 1.834-10.688 1.42 2.305 1.981 5.036 1.587 7.714-.202 1.801-.772 3.52-1.656 5.061-.79-.503-1.404-1.232-1.765-2.087zm-26.495 1.086c9.28-1.021 18.149-5.028 25.143-11.681-2.849 7.868-10.711 12.766-19.029 11.854-2.487 1.75-5.3 2.943-8.247 3.521.375-1.388 1.108-2.664 2.133-3.694zm-2.267 4.268c-.047.235-.083.473-.108.713 1.552-.178 3.05-.484 4.293-1.202.571.52 1.113 1.188 1.588 1.875 1.08-.208 2.15-.46 3.21-.755 1.007-1.024 1.816-2.233 2.382-3.567-.817.014-1.645-.023-2.475-.114-2.694 1.733-5.748 2.767-8.89 3.05zm26.884-7.423c.034 1.247-.112 2.48-.427 3.665 2.538-3.113 3.85-7.085 3.625-11.151-.555 2.747-1.662 5.281-3.198 7.486zm-4.683 1.026c-.887.608-1.823 1.146-2.799 1.602-1.242 2.145-2.904 3.991-4.867 5.443 1.767-.538 3.434-1.29 4.974-2.225 1.032-1.525 1.933-3.137 2.692-4.82zm-1.426 3.991c4.558-3.215 7.812-8.114 8.899-13.792-1.18 3.402-3.218 6.308-5.811 8.525-.857 1.856-1.893 3.619-3.088 5.267zm-9.833 2.436c2.566-.857 5.364-1.73 6.835-4.151-1.513.552-3.103.92-4.736 1.087-.562 1.118-1.27 2.147-2.099 3.064zm-2.574 1.181c-.571.502-1.195.949-1.864 1.332-.175-.303-.368-.616-.576-.928.816-.112 1.63-.247 2.44-.404zm-27.363-19.052c.979.119 1.98.124 2.987.006.891 2.298 2.497 4.125 4.475 5.311-.406.084-.814.153-1.226.209-2.249-1.654-4.336-3.504-6.236-5.526zm7.744 6.586c.472-.122.938-.272 1.397-.452 2.067.793 4.393.951 6.672.323.118.932.409 1.812.841 2.604-.989.372-2.004.664-3.033.879-2.053-.977-4.016-2.1-5.877-3.354zm53.143-34.442c3.969-.967 9.046.611 10.486 4.188.832 2.066.47 4.427-.942 6.141-1.411 1.715-3.644 2.505-5.806 2.057 2.044.354 4.113-.476 5.359-2.15 1.246-1.676 1.459-3.914.553-5.798-.907-1.885-2.781-3.098-4.855-3.144 2.009.764 3.245 2.81 2.999 4.963-.245 2.153-1.909 3.861-4.037 4.144-2.127.283-4.173-.932-4.962-2.947.58 1.497 1.976 2.512 3.565 2.592 1.589.081 3.078-.787 3.804-2.218s.554-3.158-.44-4.414c-.999-1.618-2.712-2.648-4.598-2.764-1.885-.116-3.709.696-4.896 2.18 1.177-.469 2.51-.289 3.524.475 1.014.765 1.563 2.004 1.453 3.277-.308-1.478-1.425-2.65-2.876-3.015-6.146-1.547-7.343 10.08-6.724 13.275.123.439.272.874.446 1.302 1.369 3.354 4.175 5.912 7.641 6.967.775.079 1.562.079 2.351-.002 3.155-.327 6.035-1.947 7.954-4.474-1.821 2.869-4.796 4.808-8.157 5.313-1.047.157-2.099.171-3.129.048-.217.728-.35 1.469-.399 2.212.274.089.555.167.84.231 2.874.661 5.894.026 8.258-1.737-2.281 2.266-5.517 3.29-8.686 2.75l-.425-.081c.033.688.137 1.373.309 2.042 2.483.65 5.146.317 7.415-.97-2.085 1.479-4.626 2.132-7.14 1.864.336.936.812 1.828 1.424 2.644-.781-.801-1.406-1.716-1.864-2.699-.272-.041-.545-.092-.815-.155-2.905-.673-5.385-2.559-6.812-5.178 1.921 4.224 5.254 7.646 9.425 9.678-1.704-.588-3.311-1.392-4.788-2.383.002 1.057.333 2.078.934 2.928.776-.028 1.555-.178 2.308-.455-.687.326-1.405.554-2.137.684.251.315.541.604.868.856-.424-.218-.805-.493-1.137-.813-.835.12-1.682.114-2.513-.017.456 1.189 1.423 2.127 2.651 2.537-1.564-.239-2.884-1.271-3.497-2.716-.514-.136-1.017-.322-1.502-.557-.061.504-.149 1.007-.27 1.506-.12.501-.269.992-.444 1.471.528 1.096 1.537 1.9 2.749 2.159-1.221.113-2.383-.484-3.008-1.51-.364.85-.815 1.656-1.346 2.406 1.054.505 2.265.589 3.384.229-1.195.464-2.469.466-3.61.082-.999 1.33-2.253 2.473-3.705 3.352 1.297-.982 2.385-2.186 3.225-3.54-.836-.375-1.579-.967-2.137-1.745-.582.649-1.241 1.239-1.973 1.754-.642 1.869-1.712 3.587-3.153 5.005 1.204-1.322 2.056-2.898 2.512-4.585-.222.135-.448.264-.681.386.269-.247.527-.502.776-.765.25-1.072.342-2.185.264-3.302-.729.886-1.531 1.705-2.398 2.452-.772 1.342-.997 2.956-.577 4.491-1.141.827-2.431 1.424-3.8 1.758 1.148-.536 2.202-1.257 3.119-2.131-.204-1.101-.125-2.23.222-3.284-.834.627-1.719 1.191-2.646 1.684-1.277 1.586-2.709 3.051-4.28 4.37 1.222-1.214 2.34-2.52 3.348-3.905-1.435.669-2.962 1.174-4.557 1.491-1.643 1.181-3.489 2.087-5.472 2.663 2.331-.942 4.428-2.341 6.179-4.093-1.599.581-3.228 1.068-4.878 1.461-1.113 1.047-2.401 1.911-3.819 2.546-.272-.601-.617-1.163-1.023-1.676-1.401.172-2.812.277-4.228.315 1.366-.102 2.724-.272 4.068-.51-.39-.461-.831-.879-1.317-1.244-1.289.475-2.631.775-3.988.896-.015.271-.017.545-.004.818-.109-.262-.2-.527-.271-.796-1.14.081-2.289.037-3.428-.135l3.332-.281c-.045-.237-.076-.475-.093-.714-1.473.088-2.961.01-4.437-.24 1.487.071 2.968-.012 4.421-.243.011-1.317.447-2.614 1.271-3.681-.532.039-1.064.067-1.598.087-2.312.772-4.468 1.958-6.364 3.504-1.875-1.881-4.136-3.333-6.626-4.256 2.511.429 4.834 1.606 6.664 3.38 1.102-1.107 2.398-1.992 3.82-2.613-3.964-.09-7.948-.723-11.842-1.93 5.761 1.429 11.644 1.635 17.312.719-1.519-.461-2.818-1.387-3.745-2.605-1.475.516-3.001.854-4.546 1.012l-.001.001h-.001c-4.115.421-8.362-.439-12.109-2.646 3.362 1.604 7.005 2.226 10.557 1.926-1.902-.943-3.703-2.074-5.375-3.373-3.046.276-6.146-.594-8.644-2.548 2.282.925 4.713 1.36 7.14 1.302-.982-.866-1.913-1.794-2.785-2.779-1.131-1.017-2.197-2.095-3.194-3.226-3.156-.832-5.935-2.872-7.657-5.786 1.645 2.197 3.946 3.71 6.485 4.394-4.294-5.352-7.132-11.77-8.175-18.627 1.736 7.087 5.123 13.556 9.778 18.943 1.512.192 3.072.099 4.604-.309 2.617 5.123 8.361 7.837 13.981 6.605.219 1.198.653 2.32 1.266 3.324 1.778-.887 3.447-2.04 4.941-3.453 7.66 1.113 15.359-1.748 20.434-7.594 2.578-2.52 3.811-6.111 3.322-9.683-.142-1.038-.424-2.038-.83-2.979-1.602-3.396-4.623-5.877-8.189-6.798-2.866-.713-5.876.379-7.638 2.772-1.767 2.399-1.931 5.638-.414 8.207 1.516 2.569 4.414 3.965 7.345 3.538-3.2.653-6.47-.736-8.242-3.505s-1.687-6.351.217-9.029c.474-.666 1.035-1.242 1.661-1.72-2.482.841-4.625 2.448-6.143 4.559-.306 1.929-.05 3.925.762 5.735 1.127 2.515 3.228 4.452 5.811 5.356-4.316-.951-7.424-4.61-7.832-8.905-2.565 5.702 1.573 11.542 7.562 11.933 4.608.301 8.715-2.921 9.564-7.505-.289 3.73-2.652 6.97-6.096 8.353-3.442 1.384-7.363.669-10.11-1.842s-3.841-6.38-2.821-9.978c1.555-5.185 5.976-8.969 11.296-9.668 3.009-.395 5.989.238 8.521 1.696-20.171-15.004-22.118 11.36-39.062 6.412-6.581-1.917-10.423-8.161-9.519-14.924-.101 2.26.358 4.44 1.267 6.385-.022-.451.073-.913.3-1.336.628-1.178 2.289-1.822 3.498-1.274s2.006 1.805 1.104 3.357c.992-2.357-1.678-4.183-3.417-2.8-2.784 2.212 1.84 6.874 3.884 8.033.855.485 1.8.88 2.825 1.199 3.318 1.031 6.79.703 9.759-.735-3.566.312-7.142-1.045-9.628-3.784 4.515 3.542 11.039 4.659 14.726-.533-2.67.879-5.563.989-8.345.266-8.481-2.206-14.798-12.843-6.391-18.638 3.322-2.29 7.532-1.783 10.821.562 7.244 5.164 5.438 14.393-5.497 14.548-3.322.047-5.022-4.479-2.823-8.55.579-1.072 1.438-2.134 2.971-2.911 1.766-.565 3.687.178 4.613 1.783.926 1.605.609 3.64-.763 4.887.928-1.021 1.17-2.49.618-3.754-.552-1.264-1.794-2.086-3.173-2.1-4.211-.042-6.074 8.411-1.479 9.162 4.695.768 14.186-5.156 4.193-12.559-2.808-1.968-6.545-1.908-9.288.15-7.39 5.543-.976 14.631 6.337 16.651 10.556 2.916 13.042-6.602 24.082-5.163-2.732-1.232-12.47-6.727-14.033-8.514 2.095 1.511 4.447 2.611 6.935 3.25-1.892-2.16-3.356-4.729-4.249-7.584 2.806 5.936 7.869 10.439 13.993 12.521-.239-.352-.47-.71-.691-1.076-1.081-2.516-.318-5.453 1.847-7.109 2.164-1.657 5.17-1.604 7.276.127-1.63-.988-3.646-.958-5.303-.016-7.187 4.086 1.837 10.736 5.314 12.217l4.349 2.323c-.036-2.04.227-3.913.56-5.691 2.239-11.979-10.604-5.839-4.727-.635-1.302-.843-2.047-2.333-1.945-3.891.1-1.558 1.03-2.938 2.429-3.603.98-.466 2.082-.529 3.085-.211-.491-.967-1.028-1.911-1.61-2.828-8.994-3.586-16.854 8.732-23.086-4.659 7.437 11.145 12.766.75 21.639 2.556l-.271-.36c-2.805-2.237-6.039-3.75-9.433-4.494-1.329.087-2.608.734-3.474 1.869-.442.627-.445 1.468-.009 2.098.438.631 1.22.916 1.955.711.626-.104 1.075-.665 1.045-1.305-.03-.64-.53-1.155-1.163-1.198.658-.07 1.3.23 1.674.782.372.551.415 1.264.112 1.857-.742 1.01-2.049 1.414-3.224.997-1.175-.416-1.943-1.557-1.897-2.814.097-1.356.841-2.58 1.994-3.282l.255-.143c-3.508-.334-7.105.138-10.515 1.468 6.033-3.229 13.171-3.328 19.229-.402-1.452-1.39-3.037-2.661-4.748-3.79l-.113-.074c-2.479-.88-5.043-1.444-7.632-1.693-2.642 2.57-4.664 3.725-8.561 1.965 3.109.879 5.253.277 7.234-2.065-4.415-.239-8.876.439-13.095 2.044 5.601-3.164 12.145-3.983 18.258-2.398-6.71-4.091-18.947-3.859-20.294 2.415-.641 2.983 1.878 9.352 5.628 6.245 1.633-1.353 1.578-4.876-.415-4.876-.669 0-1.243.484-1.362 1.149-.023.6.224 1.178.672 1.572.448.394 1.049.563 1.634.458-.711.515-1.663.53-2.391.041-.728-.489-1.079-1.383-.883-2.244.179-.807.757-1.464 1.528-1.74.772-.275 1.631-.129 2.271.386 2.732 2.35.596 6.962-2.835 6.868-2.396-.067-4.285-1.532-4.691-3.883-.294.557-.739 1.033-1.308 1.362-1.241.719-2.795.575-3.887-.36-.684-.599-.886-1.587-.492-2.411.395-.823 1.287-1.278 2.177-1.109.417.075.758.38.879.791.122.411.005.855-.304 1.148-.31.294-.756.388-1.154.241.363.07.718-.156.81-.518.093-.361-.109-.733-.462-.848-.552.048-1.019.435-1.172.974s.038 1.117.482 1.454c1.354.464 2.851.087 3.83-.963.192-.207.357-.431.495-.669-.552-3.402.364-4.794 1.387-6.306-12.728 2.668-15.768 9.349-18.88 18.958 3.101-16.968 12.501-18.822 21.284-21.323-4.678.415-9.296 1.82-13.537 4.227 8.129-5.568 18.152-7.115 27.36-4.533 1.597-1.249 3.491-2.028 5.476-2.27-7.755-3.053-16.515-2.718-24.107 1.097 18.285-9.533 34.511-2.708 42.595 14.274-.2-1.636-.555-3.238-1.054-4.787-.073-.188-.136-.376-.189-.566-1.729-4.969-8.119-14.577-19.174-14.577 11.568 0 17.073 7.802 19.059 11.812.323-1.668 1.346-3.176 2.906-4.062-1.418 1.62-2.159 3.692-2.136 5.794.937 2.365 1.48 4.896 1.585 7.491l.114-.134c.891-.987 2.313-1.273 3.51-.706.926.377 1.428 1.394 1.167 2.368l-.027.094c1.812-1.356 3.78-2.225 4.155-4.31.301-1.674-.193-3.519-2.049-3.901-.251-.052-.505-.068-.755-.049-.504.038-.994.214-1.412.52-.692.44-.958 1.327-.624 2.081.334.754 1.166 1.145 1.952.917.494-.195.803-.696.759-1.23-.045-.535-.432-.976-.952-1.085.724.047 1.339.555 1.528 1.262.189.707-.087 1.458-.689 1.868-.601.41-1.395.388-1.973-.055-1.248-.696-1.758-2.242-1.173-3.555.585-1.312 2.224-1.929 3.562-1.448 1.65.709 2.835 2.392 2.886 4.207.124 4.359-5.902 5.154-8.643 10.52l.043.356c.904-1.873 2.375-3.421 4.203-4.46 2.467-1.401 5.395-1.662 8.071-.735-2.777-.737-5.736-.151-8.031 1.592-2.06 1.564-3.382 3.905-3.684 6.463 3.812-1.528 5.446-3.906 5.739-6.57.006 3.297-1.391 6.438-3.834 8.624 4.008-2.011 13.021-4.641 10.946-10.714 2.239 6.266-3.013 8.326-7.96 10.519zm-41.628 37.039c1.041 1.318 2.418 2.361 4.014 3.001 8.455-1.832 16.319-6.188 22.437-12.727-5.523 5.914-13.798 8.403-21.667 6.518-1.459 1.32-3.073 2.391-4.784 3.208z"/><path fill="#DC6026" d="M170.624 67.624v4.327h11.984c1.052 0 2.085-.248 2.085-1.48v-1.366c0-1.233-1.033-1.48-2.085-1.48h-11.984v-.001zm9.38 7.509h-9.38v8.244h-3.943v-18.936h15.928c.909 0 1.868.077 2.742.338.678.201 1.339.503 1.881.963.481.409.848.906 1.075 1.496.234.604.33 1.247.33 1.893v1.313c0 1.171-.327 2.244-1.105 3.129-.822.935-2.123 1.316-3.335 1.47l4.379 8.335h-4.239l-4.333-8.245z"/><path fill="#DC6026" d="M194.41 67.624v4.327h11.983c1.052 0 2.085-.248 2.085-1.48v-1.366c0-1.233-1.033-1.48-2.085-1.48h-11.983v-.001zm9.379 7.509h-9.379v8.244h-3.943v-18.936h15.927c.909 0 1.868.077 2.743.338.677.201 1.339.503 1.88.963.482.409.848.906 1.075 1.496.234.604.331 1.247.331 1.893v1.313c0 1.171-.328 2.244-1.106 3.129-.822.935-2.123 1.316-3.335 1.47l4.379 8.335h-4.238l-4.334-8.245z"/><polygon fill="#DC6026" points="151.362,68.68 141.798,83.377 137.368,83.377 149.957,64.441 152.746,64.441 165.255,83.377 160.772,83.377"/><polygon fill="#DC6026" points="227.44,68.68 217.875,83.377 213.445,83.377 226.034,64.441 228.823,64.441 241.332,83.377 236.85,83.377"/><path fill="#DC6026" d="M242.307 83.377v-3.182h16.296c1.051 0 2.084-.248 2.084-1.481v-2.337c0-1.233-1.033-1.48-2.084-1.48h-10.871c-.909 0-1.868-.077-2.743-.338-.676-.201-1.338-.503-1.88-.963-.481-.409-.848-.906-1.075-1.496-.234-.604-.33-1.246-.33-1.893v-1.077c0-.646.096-1.288.33-1.893.228-.59.594-1.087 1.075-1.496.542-.46 1.204-.762 1.88-.963.875-.261 1.834-.338 2.743-.338h15.875v3.183h-15.875c-1.052 0-2.085.247-2.085 1.48v1.129c0 1.234 1.033 1.481 2.085 1.481h10.871c.908 0 1.867.077 2.742.338.677.201 1.339.504 1.88.963.482.409.848.906 1.076 1.496.234.604.33 1.246.33 1.893v2.284c0 .646-.096 1.289-.33 1.894-.229.589-.594 1.087-1.076 1.495-.541.46-1.203.762-1.88.964-.875.261-1.834.337-2.742.337h-16.296z"/><polygon fill="#DC6026" points="277.152,75.741 264.933,64.441 270.062,64.441 279.11,72.814 288.16,64.441 293.233,64.441 281.096,75.741 281.096,83.377 277.152,83.377"/><path fill="#DC6026" d="M294.141 83.377v-3.182h16.295c1.052 0 2.085-.248 2.085-1.481v-2.337c0-1.233-1.033-1.48-2.085-1.48h-10.87c-.91 0-1.869-.077-2.743-.338-.677-.201-1.339-.503-1.88-.963-.482-.409-.848-.906-1.076-1.496-.233-.604-.33-1.246-.33-1.893v-1.077c0-.646.097-1.288.33-1.893.229-.59.594-1.087 1.076-1.496.541-.46 1.203-.762 1.88-.963.874-.261 1.833-.338 2.743-.338h15.874v3.183h-15.874c-1.052 0-2.085.247-2.085 1.48v1.129c0 1.234 1.033 1.481 2.085 1.481h10.87c.909 0 1.868.077 2.743.338.677.201 1.338.504 1.88.963.482.409.848.906 1.075 1.496.234.604.331 1.246.331 1.893v2.284c0 .646-.097 1.289-.331 1.894-.228.589-.593 1.087-1.075 1.495-.542.46-1.203.762-1.88.964-.875.261-1.834.337-2.743.337h-16.295z"/><polygon fill="#DC6026" points="133.352,83.377 107.712,64.102 107.712,83.377 103.752,83.377 103.752,58.615 107.678,58.615 131.61,77.011 131.61,58.615 135.57,58.615 135.57,83.377"/><path fill="#5A5A5A" d="M120.556 99.352v-2.958h-5.325v2.958h-1.229v-6.508h1.229v2.588h5.325v-2.588h1.229v6.508h-1.229zm3.899 0v-6.508h6.691v.961h-5.462v1.627h5.186v.962h-5.186v1.996h5.462v.962h-6.691zm26.463 0l-6.942-5.065v5.065h-1.072v-6.508h1.063l6.479 4.834v-4.834h1.072v6.508h-.6zm10.805 0l-3.356-5.241-3.41 5.241h-1.368l4.325-6.508h.897l4.298 6.508h-1.386zm9.796-4.945c0-.401-.271-.602-.813-.602h-4.298v1.683h4.298c.543 0 .813-.2.813-.601v-.48zm-.157 4.945l-1.525-2.903h-3.43v2.903h-1.229v-6.508h5.527c.37 0 .685.038.943.115s.47.186.633.324.282.303.356.494c.074.19.11.403.11.638v.462c0 .419-.123.769-.369 1.05-.247.28-.659.448-1.239.503l1.535 2.922h-1.312zm10.185-4.945c0-.401-.271-.602-.813-.602h-4.298v1.683h4.298c.542 0 .813-.2.813-.601v-.48zm-.157 4.945l-1.525-2.903h-3.429v2.903h-1.229v-6.508h5.527c.37 0 .685.038.942.115.259.077.471.186.634.324s.282.303.355.494c.074.19.111.403.111.638v.462c0 .419-.123.769-.37 1.05-.246.28-.659.448-1.238.503l1.534 2.922h-1.312zm11.378 0l-3.356-5.241-3.41 5.241h-1.368l4.326-6.508h.896l4.298 6.508h-1.386zm4.878 0v-5.547h-3.411v-.961h7.958v.961h-3.317v5.547h-1.23zm6.885 0v-6.508h1.229v6.508h-1.229zm7.671 0l-4.326-6.508h1.396l3.402 5.241 3.364-5.241h1.358l-4.298 6.508h-.896zm7.264 0v-6.508h6.692v.961h-5.463v1.627h5.186v.962h-5.186v1.996h5.463v.962h-6.692zm24.596-4.945c0-.401-.271-.602-.812-.602h-4.104v2.182h4.104c.542 0 .812-.2.812-.601v-.979zm-4.917 2.542v2.403h-1.229v-6.508h5.334c.369 0 .684.038.942.115s.47.186.633.324c.164.139.282.303.356.494.073.19.11.403.11.638v.961c0 .234-.037.447-.11.639-.074.19-.192.355-.356.494-.163.139-.374.246-.633.323s-.573.116-.942.116h-4.105v.001zm8.474 2.403v-6.508h1.238v5.546h5.278v.962h-6.516zm16.379 0l-3.356-5.241-3.41 5.241h-1.368l4.326-6.508h.896l4.298 6.508h-1.386zm4.879 0v-5.547h-3.411v-.961h7.958v.961h-3.317v5.547h-1.23zm8.068-2.682v2.682h-1.229v-6.508h6.692v.961h-5.463v1.904h5.093v.961h-5.093zm14.704-2.263c0-.401-.271-.602-.812-.602h-4.299c-.542 0-.813.2-.813.602v3.383c0 .4.271.601.813.601h4.299c.542 0 .812-.2.812-.601v-3.383zm-5.111 4.945c-.369 0-.684-.039-.942-.116s-.47-.185-.634-.323c-.163-.139-.281-.304-.355-.495-.074-.19-.111-.403-.111-.638v-3.364c0-.234.037-.447.111-.638.074-.191.192-.355.355-.494.164-.139.375-.247.634-.324s.573-.115.942-.115h4.299c.369 0 .684.038.942.115s.47.186.634.324c.163.139.281.303.355.494.074.19.111.403.111.638v3.364c0 .234-.037.447-.111.638-.074.191-.192.356-.355.495-.164.139-.375.246-.634.323s-.573.116-.942.116h-4.299zm15.306-4.945c0-.401-.271-.602-.812-.602h-4.299v1.683h4.299c.542 0 .812-.2.812-.601v-.48zm-.156 4.945l-1.525-2.903h-3.43v2.903h-1.229v-6.508h5.528c.369 0 .684.038.942.115s.47.186.633.324.282.303.356.494c.074.19.11.403.11.638v.462c0 .419-.123.769-.369 1.05-.247.28-.659.448-1.238.503l1.534 2.922h-1.312zm12.615 0v-4.558l-3.309 4.558h-1.008l-3.318-4.548v4.548h-1.137v-6.508h1.146l3.864 5.314 3.846-5.314h1.054v6.508h-1.138zm-207.14 0v-5.547h-3.411v-.961h7.959v.961h-3.319v5.547h-1.229z"/></g></svg>