<?xml version="1.0" encoding="utf-8"?>
<!-- Generator: Adobe Illustrator 15.0.0, SVG Export Plug-In . SVG Version: 6.00 Build 0)  -->
<!DOCTYPE svg PUBLIC "-//W3C//DTD SVG 1.1//EN" "http://www.w3.org/Graphics/SVG/1.1/DTD/svg11.dtd">
<svg version="1.1" id="Layer_1" xmlns="http://www.w3.org/2000/svg" xmlns:xlink="http://www.w3.org/1999/xlink" x="0px" y="0px"
	 width="319.586px" height="53.267px" viewBox="0 0 319.586 53.267" enable-background="new 0 0 319.586 53.267"
	 xml:space="preserve">
<path fill="#1B181A" d="M312.764,21.393h0.702v-8.562h5.233v-2.38h-5.234V4.014h5.663l0.041-2.27h-8.338v20.351h2.635v-0.702
	H312.764V20.69h-0.528V3.147h5.504l-0.003,0.15l0.702,0.013V2.608h-6.377v9.247h5.232v0.273h0.703v-0.702h-5.936v9.966H312.764
	V20.69V21.393 M303.902,19.367H303.2c-0.01,0.373-0.111,0.6-0.417,0.874c-0.314,0.267-0.697,0.419-1.248,0.45l0.035,0.701V20.69
	h-2.712v0.702l0.031-0.702c-0.637-0.033-0.902-0.2-1.032-0.378c-0.219-0.307-0.312-0.595-0.315-0.945V4.397
	c0.005-0.384,0.104-0.663,0.325-0.94c0.146-0.184,0.445-0.352,1.085-0.383l-0.031-0.701v0.701h3.09V2.373l-0.03,0.701
	c0.66,0.029,0.927,0.205,1.007,0.326c0.172,0.244,0.242,0.468,0.246,0.749l-0.002,0.101v4.149L303.2,19.365L303.902,19.367
	l0.702,0.002L304.636,8.4V4.25l0.002-0.101c0.004-0.563-0.179-1.113-0.512-1.57c-0.468-0.637-1.231-0.874-2.085-0.909h-3.151
	c-0.854,0.035-1.621,0.295-2.114,0.902c-0.421,0.512-0.642,1.155-0.638,1.825v14.97c-0.004,0.637,0.204,1.254,0.583,1.771
	c0.471,0.646,1.25,0.923,2.106,0.956h2.771l0.007-0.001c0.794-0.035,1.525-0.294,2.094-0.786c0.577-0.481,0.917-1.193,0.906-1.94
	H303.902 M298.039,13.291h-0.702v5.533c0,0.615,0.117,1.178,0.444,1.642c0.484,0.626,1.195,0.726,2.022,0.739h1.546
	c0.688-0.004,1.365-0.133,1.768-0.76c0.253-0.427,0.365-0.926,0.414-1.517l0.002-0.026V4.916c-0.003-0.614-0.085-1.141-0.353-1.598
	c-0.403-0.625-1.08-0.756-1.769-0.76h-2.175c-0.561-0.016-1.145,0.271-1.454,0.748c-0.311,0.451-0.432,0.998-0.432,1.586
	l-0.015,4.295v4.104h1.404V9.189l0.016-4.296c0-0.403,0.083-0.646,0.183-0.788c0.1-0.117,0.1-0.125,0.298-0.143h2.175
	c0.251,0,0.427,0.033,0.511,0.064l0.065,0.031l0.03-0.042l-0.043,0.026l0.013,0.016l0.03-0.042l-0.043,0.026
	c0.068,0.104,0.155,0.4,0.153,0.873v13.957h0.702l-0.7-0.057c-0.035,0.463-0.134,0.771-0.218,0.906l0.041,0.021l-0.028-0.039
	l-0.012,0.016l0.04,0.023l-0.028-0.039c-0.003,0.014-0.195,0.101-0.576,0.096h-1.546c-0.332,0-0.581-0.035-0.724-0.081
	c-0.072-0.021-0.117-0.044-0.139-0.058l-0.015-0.01c-0.095-0.13-0.187-0.391-0.186-0.828v-5.533H298.039 M270.403,2.446l0.012,0.702
	l0.77-0.016l5.816,18.166V3.123h0.496V2.422h-0.703v18.268l-0.306,0.001v0.702l0.668-0.215l-6.226-19.371V20.69h-0.527v0.702h0.701
	V2.446H270.403l0.012,0.702L270.403,2.446H269.7v19.648h2.635V10.758l3.64,11.337h2.224V1.719h-2.603v10.58l-3.392-10.592
	l-2.504,0.05v0.689H270.403 M262.772,19.367h-0.703c-0.01,0.373-0.11,0.6-0.416,0.874c-0.315,0.267-0.698,0.419-1.249,0.45
	l0.035,0.701V20.69h-2.712v0.702l0.031-0.702c-0.637-0.033-0.903-0.2-1.032-0.378c-0.219-0.307-0.312-0.595-0.315-0.945V4.397
	c0.004-0.384,0.104-0.663,0.325-0.94c0.146-0.184,0.445-0.352,1.085-0.383l-0.031-0.701v0.701h3.091V2.373l-0.031,0.701
	c0.66,0.029,0.926,0.205,1.007,0.326c0.173,0.244,0.242,0.468,0.246,0.749l-0.001,0.101v4.149l-0.032,10.966L262.772,19.367
	l0.701,0.002L263.506,8.4V4.25l0.001-0.101c0.004-0.563-0.178-1.113-0.511-1.57c-0.469-0.637-1.232-0.874-2.085-0.909h-3.152
	c-0.853,0.035-1.62,0.295-2.114,0.902c-0.42,0.512-0.642,1.155-0.638,1.825v14.97c-0.003,0.637,0.204,1.254,0.584,1.771
	c0.47,0.646,1.25,0.923,2.105,0.956h2.771l0.007-0.001c0.794-0.035,1.525-0.294,2.094-0.786c0.578-0.481,0.917-1.193,0.906-1.94
	H262.772 M256.908,13.291h-0.702v5.533c0.001,0.615,0.118,1.178,0.444,1.642c0.485,0.626,1.195,0.726,2.023,0.739h1.544
	c0.688-0.004,1.366-0.133,1.769-0.76c0.253-0.427,0.365-0.926,0.414-1.517l0.002-0.026V4.916c-0.003-0.614-0.084-1.141-0.353-1.598
	c-0.402-0.625-1.08-0.756-1.769-0.76h-2.175c-0.561-0.016-1.144,0.271-1.453,0.748c-0.311,0.451-0.433,0.998-0.432,1.586
	l-0.016,4.295v4.104h1.404V9.189l0.016-4.296c0.001-0.403,0.084-0.646,0.183-0.788c0.1-0.117,0.1-0.125,0.298-0.143h2.175
	c0.251,0,0.428,0.033,0.511,0.064l0.065,0.031l0.03-0.042l-0.042,0.026l0.012,0.016l0.03-0.042l-0.042,0.026
	c0.068,0.104,0.155,0.4,0.152,0.873v13.957h0.702l-0.7-0.057c-0.035,0.463-0.134,0.771-0.218,0.906l0.042,0.021l-0.029-0.039
	l-0.011,0.016l0.04,0.023l-0.029-0.039c-0.003,0.014-0.195,0.101-0.577,0.096h-1.544c-0.332,0-0.581-0.035-0.725-0.081
	c-0.071-0.021-0.117-0.044-0.139-0.058l-0.015-0.01c-0.095-0.13-0.186-0.391-0.186-0.828v-5.533H256.908 M247.985,21.393h0.702V1.67
	h-2.666l0.03,20.425h2.636v-0.702H247.985V20.69h-0.529l-0.029-17.616h0.559V2.373h-0.703v19.02H247.985V20.69V21.393
	 M231.999,3.311v0.703h2.197l0.001,18.081h2.54V4.012l1.126,0.002h1.964V1.719h-8.53v2.295h0.702V3.311h0.702V3.123h5.721v0.188
	h0.703V2.608h-3.792V20.69h-0.434v0.702h0.702V2.608h-3.603V3.311h0.702H231.999 M220.191,4.286L219.5,4.417l3.355,17.678h2.913
	l-4.25-20.4h-2.521l-3.947,20.4h2.784l2.718-15.749l0.332-1.941L220.191,4.286L219.5,4.417L220.191,4.286l-0.692-0.118l-0.332,1.939
	l-2.517,14.582l-0.747,0.001v0.702l0.689,0.133l3.562-18.428h0.221l3.664,17.592h-0.02l-3.864-20.354l-0.657,3.832L220.191,4.286
	 M208.289,21.393h0.701V1.67h-2.666l0.031,20.425h2.635v-0.702H208.289V20.69h-0.53L207.73,3.074h0.559V2.373h-0.703v19.02H208.289
	V20.69V21.393 M193.564,13.291h-0.703v5.533c0.001,0.615,0.118,1.178,0.445,1.642c0.485,0.626,1.195,0.726,2.023,0.739h1.544
	c0.688-0.004,1.365-0.133,1.769-0.76c0.269-0.457,0.351-0.982,0.354-1.597v-2.782l0.4,0.001v-0.702h-0.702v4.168l0.001,0.062
	c-0.005,0.252-0.076,0.455-0.299,0.715c-0.193,0.212-0.456,0.348-0.96,0.381l0.037,0.701V20.69h-3.09v0.702l0.03-0.702
	c-0.636-0.033-0.901-0.2-1.032-0.378c-0.218-0.307-0.311-0.595-0.314-0.945V4.397c0.004-0.384,0.104-0.663,0.324-0.94
	c0.147-0.184,0.446-0.352,1.086-0.383l-0.031-0.701v0.701h2.901V2.373l-0.037,0.701c0.501,0.029,0.825,0.172,1.099,0.424
	c0.275,0.272,0.344,0.46,0.349,0.682v0.07v3.446l-0.401,0.001v0.702h0.702V4.916c-0.003-0.614-0.085-1.141-0.353-1.598
	c-0.403-0.625-1.081-0.756-1.769-0.76h-2.175c-0.562-0.016-1.145,0.271-1.453,0.748c-0.311,0.451-0.433,0.998-0.432,1.586
	l-0.017,4.295v4.104h1.405V9.189l0.016-4.296c0.001-0.403,0.084-0.646,0.183-0.788c0.1-0.117,0.1-0.125,0.298-0.143h2.175
	c0.25,0,0.427,0.033,0.511,0.064l0.064,0.031l0.031-0.042l-0.042,0.026l0.011,0.016l0.031-0.042l-0.042,0.026
	c0.067,0.104,0.154,0.4,0.151,0.873v4.186h2.509V4.25l0.001-0.07c0.005-0.646-0.306-1.252-0.787-1.699
	c-0.526-0.505-1.231-0.775-1.991-0.811h-0.015h-2.955c-0.854,0.035-1.62,0.295-2.115,0.902c-0.419,0.512-0.642,1.155-0.637,1.825
	v14.97c-0.004,0.637,0.203,1.254,0.583,1.771c0.471,0.646,1.251,0.923,2.105,0.956h3.135l0.023-0.001
	c0.758-0.033,1.462-0.309,1.939-0.853c0.409-0.458,0.656-1.038,0.651-1.646l-0.002-0.099l-0.702,0.019h0.702v-4.853h-2.508v4.186
	c0.003,0.472-0.084,0.771-0.152,0.874l0.042,0.021l-0.03-0.039l-0.01,0.016l0.04,0.023l-0.03-0.039
	c-0.002,0.014-0.195,0.101-0.576,0.096h-1.544c-0.333,0-0.581-0.035-0.725-0.081c-0.072-0.021-0.117-0.044-0.139-0.058l-0.015-0.01
	c-0.096-0.13-0.187-0.391-0.186-0.828v-5.533H193.564 M184.704,19.367h-0.703c-0.01,0.373-0.11,0.6-0.417,0.874
	c-0.314,0.267-0.697,0.419-1.248,0.45l0.034,0.701V20.69h-2.711v0.702l0.03-0.702c-0.636-0.033-0.901-0.2-1.032-0.378
	c-0.218-0.307-0.311-0.595-0.314-0.945V4.397c0.004-0.384,0.104-0.663,0.325-0.94c0.146-0.184,0.445-0.352,1.085-0.383l-0.031-0.701
	v0.701h3.091V2.373l-0.031,0.701c0.661,0.029,0.927,0.205,1.007,0.326c0.172,0.244,0.242,0.468,0.246,0.749l-0.001,0.101v4.149
	l-0.032,10.966L184.704,19.367l0.702,0.002L185.438,8.4V4.25l0.001-0.101c0.004-0.563-0.178-1.113-0.512-1.57
	c-0.468-0.637-1.231-0.874-2.084-0.909h-3.152c-0.854,0.035-1.62,0.295-2.115,0.902c-0.419,0.512-0.641,1.155-0.637,1.825v14.97
	c-0.004,0.637,0.203,1.254,0.583,1.771c0.471,0.646,1.251,0.923,2.105,0.956h2.758l0.021-0.001c0.794-0.035,1.525-0.294,2.094-0.786
	c0.577-0.481,0.917-1.193,0.907-1.94H184.704 M178.84,13.291h-0.703v5.533c0.001,0.615,0.118,1.178,0.445,1.642
	c0.484,0.626,1.195,0.726,2.023,0.739h1.544c0.688-0.004,1.366-0.133,1.769-0.76c0.253-0.427,0.365-0.926,0.414-1.517l0.002-0.026
	V4.916c-0.003-0.614-0.085-1.141-0.353-1.598c-0.403-0.625-1.08-0.756-1.769-0.76h-2.175c-0.562-0.016-1.145,0.271-1.453,0.748
	c-0.312,0.451-0.433,0.998-0.432,1.586l-0.017,4.295v4.104h1.405V9.189l0.016-4.296c0.001-0.403,0.084-0.646,0.182-0.788
	c0.101-0.117,0.101-0.125,0.299-0.143h2.175c0.25,0,0.427,0.033,0.511,0.064l0.064,0.031l0.031-0.042l-0.042,0.026l0.011,0.016
	l0.031-0.042l-0.042,0.026c0.067,0.104,0.154,0.4,0.152,0.873v13.957h0.702l-0.701-0.057c-0.034,0.463-0.133,0.771-0.217,0.906
	l0.042,0.021l-0.03-0.039l-0.01,0.016l0.04,0.023l-0.03-0.039c-0.002,0.014-0.195,0.101-0.576,0.096h-1.544
	c-0.333,0-0.581-0.035-0.725-0.081c-0.072-0.021-0.117-0.044-0.139-0.058l-0.015-0.01c-0.096-0.13-0.187-0.391-0.186-0.828v-5.533
	H178.84 M164.115,9.189l0.702,0.003l0.016-4.299c0.001-0.403,0.084-0.646,0.183-0.788c0.1-0.117,0.1-0.125,0.298-0.143h2.175
	c0.25,0,0.427,0.033,0.511,0.064l0.064,0.031l0.03-0.04l-0.041,0.024l0.011,0.016l0.03-0.04l-0.041,0.024
	c0.067,0.104,0.154,0.4,0.151,0.873v4.186h2.509V4.25h-0.702l0.702,0.027l0.001-0.128c0.003-0.566-0.181-1.114-0.511-1.569
	c-0.411-0.582-1.101-0.879-1.824-0.91h-0.012h-3.401c-0.854,0.035-1.621,0.295-2.115,0.902c-0.419,0.512-0.641,1.155-0.637,1.825
	v6.028c-0.002,0.664,0.165,1.293,0.609,1.75c0.446,0.456,1.075,0.635,1.733,0.631h2.837c0.34,0.005,0.504,0.088,0.543,0.125
	c0.032,0.037,0.07,0.053,0.079,0.281c0,0-0.003,0.04,0.001,0.113l0.701-0.035l-0.702,0.006l0.047,5.582
	c-0.006,0.354-0.089,0.528-0.237,0.686c-0.109,0.111-0.354,0.234-0.873,0.236h-1.544c-0.252,0-0.428-0.032-0.513-0.064l-0.064-0.031
	l-0.031,0.041l0.043-0.025l-0.012-0.016l-0.031,0.041l0.043-0.025c-0.067-0.102-0.154-0.399-0.152-0.872v-4.186h-2.508v4.853h0.702
	l-0.702-0.037l-0.003,0.115c-0.005,0.604,0.238,1.19,0.654,1.648c0.428,0.492,1.027,0.811,1.673,0.852l0.018,0.001h3.405
	c0.854-0.035,1.62-0.295,2.114-0.901c0.421-0.514,0.642-1.158,0.638-1.826v-7.064c0.003-0.504-0.133-1.018-0.509-1.389
	c-0.374-0.371-0.886-0.503-1.392-0.5h-3.343c-0.348,0-0.5-0.08-0.535-0.115c-0.032-0.033-0.078-0.066-0.086-0.318V9.189h-1.405V9.98
	c-0.008,0.504,0.167,1.039,0.576,1.385c0.405,0.344,0.915,0.453,1.45,0.453h3.343c0.292,0.003,0.38,0.069,0.404,0.094
	c0.023,0.023,0.088,0.104,0.091,0.391v7.064c-0.004,0.385-0.104,0.662-0.323,0.941c-0.147,0.183-0.447,0.351-1.086,0.382
	l0.031,0.702V20.69h-3.342v0.702l0.049-0.701c-0.279-0.025-0.479-0.119-0.723-0.383c-0.223-0.26-0.294-0.459-0.299-0.715
	l0.002-0.042l0.001-0.014v-3.472l0.401,0.001v-0.702h-0.702v3.483c0.003,0.613,0.084,1.139,0.352,1.597
	c0.403,0.627,1.081,0.756,1.771,0.76h1.544c0.723,0.002,1.392-0.172,1.87-0.651c0.44-0.437,0.651-1.052,0.645-1.681l-0.048-5.613
	v-0.006l0.001-0.041c0.01-0.494-0.174-1.025-0.582-1.358c-0.402-0.333-0.9-0.441-1.432-0.452h-2.85
	c-0.437-0.004-0.627-0.105-0.728-0.209c-0.103-0.103-0.209-0.314-0.211-0.768V4.397c0.004-0.384,0.104-0.663,0.325-0.94
	c0.146-0.184,0.445-0.352,1.085-0.383l-0.03-0.701v0.701h3.342V2.373l-0.04,0.701c0.455,0.035,0.626,0.148,0.764,0.326
	c0.17,0.243,0.243,0.469,0.246,0.749l-0.001,0.071v3.476l-0.401,0.001v0.702h0.702V4.916c-0.003-0.614-0.085-1.141-0.353-1.598
	c-0.403-0.625-1.08-0.756-1.769-0.76h-2.175c-0.561-0.016-1.145,0.271-1.453,0.748c-0.311,0.451-0.433,0.998-0.432,1.586
	l-0.017,4.295L164.115,9.189 M149.391,9.189l0.702,0.003l0.016-4.299c0-0.403,0.084-0.646,0.183-0.788
	c0.101-0.117,0.101-0.125,0.298-0.143h2.175c0.25,0,0.427,0.033,0.511,0.064l0.065,0.031l0.03-0.042l-0.042,0.026l0.012,0.016
	l0.03-0.042l-0.042,0.026c0.067,0.104,0.154,0.4,0.152,0.873v4.186h2.508V4.25h-0.702l0.702,0.027l0.001-0.128
	c0.003-0.566-0.181-1.114-0.511-1.569c-0.411-0.582-1.101-0.879-1.824-0.91h-0.012h-3.401c-0.854,0.035-1.621,0.295-2.114,0.902
	c-0.42,0.512-0.642,1.155-0.638,1.825v6.028c-0.002,0.664,0.165,1.293,0.609,1.75c0.446,0.456,1.076,0.635,1.733,0.631h2.837
	c0.34,0.005,0.504,0.088,0.543,0.125c0.033,0.037,0.07,0.053,0.079,0.281c0,0-0.003,0.04,0.001,0.113l0.701-0.035l-0.702,0.006
	l0.047,5.582c-0.006,0.354-0.089,0.528-0.237,0.686c-0.109,0.111-0.354,0.234-0.873,0.236h-1.544c-0.252,0-0.428-0.032-0.513-0.064
	l-0.064-0.031l-0.031,0.041l0.043-0.025l-0.012-0.016l-0.031,0.041l0.043-0.025c-0.067-0.102-0.154-0.399-0.152-0.872v-4.186h-2.508
	v4.853h0.702l-0.702-0.037l-0.003,0.115c-0.005,0.604,0.238,1.19,0.654,1.648c0.428,0.492,1.027,0.811,1.673,0.852l0.018,0.001
	h3.405c0.854-0.035,1.62-0.295,2.114-0.901c0.421-0.514,0.642-1.158,0.638-1.826v-7.064c0.003-0.504-0.133-1.018-0.509-1.389
	c-0.374-0.371-0.886-0.503-1.392-0.5h-3.343c-0.348,0-0.5-0.08-0.535-0.115c-0.032-0.033-0.078-0.066-0.086-0.318V9.189h-1.405V9.98
	c-0.007,0.504,0.166,1.039,0.576,1.385c0.406,0.344,0.915,0.453,1.45,0.453h3.343c0.292,0.003,0.38,0.069,0.404,0.094
	c0.023,0.023,0.088,0.104,0.091,0.391v7.064c-0.004,0.385-0.104,0.662-0.323,0.941c-0.147,0.183-0.447,0.351-1.086,0.382
	l0.032,0.702V20.69h-3.343v0.702l0.049-0.701c-0.279-0.025-0.479-0.119-0.722-0.383c-0.224-0.26-0.295-0.459-0.3-0.715l0.003-0.056
	v-3.472l0.401,0.001v-0.702h-0.702v3.483c0.003,0.613,0.084,1.139,0.352,1.597c0.403,0.627,1.08,0.756,1.771,0.76h1.544
	c0.722,0.002,1.392-0.172,1.87-0.651c0.44-0.437,0.651-1.052,0.645-1.681l-0.048-5.613v-0.006l0.001-0.041
	c0.01-0.494-0.174-1.025-0.582-1.358c-0.402-0.333-0.9-0.441-1.432-0.452h-2.85c-0.437-0.004-0.627-0.105-0.728-0.209
	c-0.103-0.103-0.209-0.314-0.211-0.768V4.397c0.005-0.384,0.104-0.663,0.325-0.94c0.146-0.184,0.446-0.352,1.085-0.383l-0.03-0.701
	v0.701h3.342V2.373l-0.04,0.701c0.455,0.035,0.626,0.148,0.764,0.326c0.171,0.243,0.243,0.469,0.246,0.749l-0.001,0.071v3.476
	l-0.401,0.001v0.702h0.702V4.916c-0.003-0.614-0.085-1.141-0.353-1.598c-0.403-0.625-1.08-0.756-1.769-0.76h-2.175
	c-0.561-0.016-1.145,0.271-1.453,0.748c-0.312,0.451-0.433,0.998-0.432,1.586l-0.017,4.295L149.391,9.189 M136.321,4.286
	l-0.692,0.12l1.528,8.824h-1.543l1.4-8.834L136.321,4.286l-0.692,0.12L136.321,4.286l-0.694-0.11l-1.659,10.459h4.857L136.289,0
	l-0.662,4.176L136.321,4.286 M133.372,21.393l0.686,0.156l1.342-5.926h2.126l1.482,6.472h2.891l-4.25-20.4h-2.522l-3.946,20.4h2.753
	l0.124-0.546L133.372,21.393V20.69h-0.488l3.402-17.593h0.22l3.664,17.592h-0.042l-1.482-6.471h-4.368l-1.59,7.018L133.372,21.393
	V20.69V21.393 M107.486,2.446l0.014,0.702l0.769-0.016l5.816,18.168V3.123h0.496V2.422h-0.703V20.69h-0.306v0.702l0.668-0.215
	l-6.227-19.377v18.889l-0.527,0.001v0.702h0.702V2.446H107.486l0.014,0.702L107.486,2.446h-0.703v19.648h2.635V10.76l3.64,11.335
	h2.224V1.719h-2.604v10.582l-3.392-10.592l-2.504,0.048v0.689H107.486 M95.647,4.286l-0.69,0.131l3.355,17.678h2.913l-4.25-20.4
	h-2.522l-3.945,20.4h2.784l2.718-15.749l0.331-1.941L95.647,4.286l-0.69,0.131L95.647,4.286l-0.693-0.118l-0.331,1.939L92.106,20.69
	h-0.747v0.702l0.689,0.133l3.563-18.428h0.221l3.664,17.592h-0.021L95.61,0.328l-0.656,3.84L95.647,4.286 M77.943,13.291h-0.703
	v5.533c0,0.615,0.119,1.178,0.445,1.642c0.485,0.626,1.195,0.726,2.023,0.739h1.545c0.688-0.004,1.365-0.133,1.769-0.76
	c0.268-0.457,0.35-0.982,0.352-1.597v-2.782l0.401,0.001v-0.702h-0.703v4.168l0,0.009l0.001,0.054
	c-0.005,0.253-0.077,0.455-0.299,0.715c-0.194,0.213-0.457,0.348-0.959,0.381l0.036,0.701V20.69h-3.09v0.702l0.031-0.702
	c-0.636-0.033-0.902-0.2-1.031-0.378c-0.219-0.307-0.312-0.595-0.315-0.945V4.397c0.004-0.386,0.104-0.663,0.324-0.94
	c0.147-0.184,0.446-0.352,1.086-0.383l-0.031-0.701v0.701h2.901V2.373L81.69,3.074c0.5,0.029,0.825,0.172,1.098,0.426
	c0.276,0.271,0.343,0.457,0.349,0.68l-0.001,0.07v3.446l-0.401,0.001v0.702h0.702V4.916c-0.003-0.614-0.084-1.141-0.353-1.598
	c-0.403-0.625-1.08-0.756-1.769-0.76h-2.175c-0.561-0.016-1.143,0.271-1.453,0.748c-0.312,0.451-0.432,0.998-0.432,1.586
	l-0.016,4.295v4.104h1.405V9.189l0.015-4.296c0-0.403,0.084-0.646,0.183-0.788c0.1-0.117,0.1-0.125,0.297-0.143h2.175
	c0.251,0,0.427,0.033,0.511,0.064l0.065,0.031l0.03-0.04l-0.042,0.024l0.012,0.016l0.03-0.04l-0.042,0.024
	c0.068,0.104,0.155,0.4,0.152,0.873v4.186h2.509V4.25l0-0.07c0.006-0.646-0.305-1.252-0.788-1.701
	c-0.526-0.503-1.231-0.773-1.991-0.809H81.75h-2.955c-0.854,0.035-1.621,0.295-2.115,0.902c-0.421,0.512-0.641,1.156-0.638,1.825
	v14.97c-0.003,0.637,0.204,1.254,0.584,1.771c0.47,0.646,1.249,0.923,2.105,0.956h3.148l0.01-0.001
	c0.757-0.033,1.461-0.309,1.939-0.852c0.41-0.459,0.656-1.042,0.651-1.646l-0.001-0.107l-0.702,0.027h0.703v-4.853H81.97v4.186
	c0.003,0.472-0.084,0.771-0.153,0.874l0.043,0.023l-0.031-0.041l-0.011,0.016l0.042,0.025l-0.031-0.041
	c-0.002,0.014-0.195,0.101-0.576,0.096h-1.545c-0.333,0-0.581-0.035-0.725-0.081c-0.072-0.021-0.117-0.044-0.138-0.058l-0.014-0.01
	c-0.096-0.131-0.187-0.391-0.186-0.828v-5.533H77.943 M69.021,21.393h0.702V1.67h-2.667l0.032,20.425h2.634v-0.702H69.021V20.69
	h-0.529L68.462,3.074h0.558V2.373h-0.703v19.02H69.021V20.69V21.393 M54.201,2.965v0.701h2.033V2.965l-0.059,0.7
	c1.048,0.11,1.427,0.409,1.625,0.896c0.261,0.678,0.412,1.665,0.411,2.938h0.703l-0.702-0.047c-0.06,0.928-0.182,1.693-0.352,2.285
	c-0.174,0.607-0.382,1.056-0.589,1.339c-0.108,0.157-0.391,0.347-1.008,0.433l0.096,0.695v-0.702h-1.458V2.965H54.201v0.701V2.965
	h-0.703v9.941h2.912l0.046-0.007c0.812-0.112,1.517-0.4,1.956-1.001c0.341-0.475,0.594-1.064,0.799-1.773
	c0.208-0.727,0.338-1.583,0.404-2.582l0.001-0.021V7.498c-0.001-1.38-0.154-2.518-0.503-3.438c-0.41-1.111-1.515-1.709-2.821-1.797
	l-0.025-0.002h-2.77v0.703H54.201 M54.186,21.393h0.702v-7.747l0.653,0.001c0.13,0,0.232,0.007,0.297,0.016l0.065,0.012l0.012-0.049
	l-0.02,0.045l0.007,0.004l0.012-0.049l-0.02,0.045l0.292-0.639l-0.341,0.614c0.053,0.027,0.167,0.12,0.3,0.306
	c0.099,0.128,0.293,0.518,0.5,1.093c0.213,0.583,0.495,1.45,0.839,2.587l1.313,4.464h2.935l-1.814-6.091
	c-0.314-1.035-0.646-1.908-1.006-2.632c-0.198-0.393-0.472-0.762-0.813-1.121l-0.51,0.483l0.198,0.674
	c1.048-0.299,1.857-1.081,2.313-2.146c0.455-1.038,0.665-2.272,0.666-3.69c0-1.102-0.13-2.123-0.397-3.059
	c-0.272-0.936-0.627-1.662-1.2-2.154c-0.585-0.489-1.36-0.678-2.243-0.678h-4.596v20.413h2.556v-0.702H54.186V20.69h-0.449V3.086
	h3.191c0.693,0,1.111,0.154,1.336,0.348c0.236,0.191,0.532,0.671,0.755,1.465c0.226,0.793,0.343,1.683,0.343,2.674
	c0,1.281-0.194,2.32-0.548,3.125c-0.353,0.781-0.789,1.168-1.423,1.363l-1.101,0.324l0.79,0.833
	c0.268,0.283,0.457,0.548,0.576,0.784c0.311,0.623,0.62,1.43,0.917,2.407l1.274,4.28l-0.523,0.001v0.702l0.674-0.199l-1.167-3.965
	c-0.351-1.156-0.636-2.039-0.865-2.666c-0.234-0.636-0.434-1.09-0.682-1.438c-0.215-0.293-0.453-0.538-0.756-0.708l-0.027-0.015
	l-0.022-0.011c-0.316-0.133-0.585-0.143-0.938-0.148h-2.058v9.15H54.186V20.69V21.393 M45.467,21.393l0.701-0.035l-0.081-1.605
	h-5.83V12.83l5.233,0.001v-2.38h-5.234V4.014h5.663l0.041-2.27h-8.338v20.351h8.583l-0.038-0.737L45.467,21.393V20.69h-6.44V3.148
	h5.503l-0.003,0.149l0.703,0.013V2.608h-6.378v9.247h5.233l0,0.273h0.703v-0.702h-5.937v9.729h5.898l0.015,0.271L45.467,21.393
	V20.69V21.393 M29.229,4.199h-0.703v17.896h2.682V1.67h-3.46l-5.331,15.62L16.812,1.67h-3.086l-0.052,20.416l2.542-0.056V8.149
	l5.053,13.938l1.237-0.042l-0.024-0.701v0.701h1.077L29.89,4.438L29.229,4.199h-0.703H29.229l-0.662-0.237L22.57,20.641h-0.088
	h-0.041l-0.199,0.007L14.811,0.16v20.495l-0.448,0.011l0.016,0.702l0.702,0.001l0.045-18.295h0.696l6.628,18.473l6.304-18.473h1.049
	v17.615l-0.574,0.001v0.702h0.702V0.172l-1.364,3.79L29.229,4.199 M5.14,4.286l-0.692,0.12l1.528,8.824H4.433l1.401-8.834
	L5.14,4.286l-0.692,0.12L5.14,4.286l-0.694-0.11L2.788,14.635h4.858L5.11,0.008L4.446,4.176L5.14,4.286 M2.191,21.393l0.685,0.156
	l1.343-5.926h2.125l1.483,6.472h2.889l-4.249-20.4H3.945L0,22.095h2.753l0.124-0.546L2.191,21.393V20.69H1.703L5.104,3.098h0.221
	L8.99,20.689H8.947l-1.481-6.471H3.097l-1.591,7.018L2.191,21.393V20.69V21.393"/>
<path fill="#1B181A" d="M318.853,52.562l0.701-0.031l-0.068-1.607L314.15,50.9l0.029-6.92l4.79,0.021l0.01-2.38l-4.789-0.021
	l0.027-6.438l5.181,0.021l0.047-2.27l-7.748-0.031l-0.085,20.352l7.974,0.032l-0.032-0.735L318.853,52.562l0.003-0.703l-5.834-0.024
	l0.073-17.542l4.916,0.021l-0.002,0.149l0.703,0.017l0.002-0.702l-5.896-0.025L312.78,43l4.789,0.02l-0.001,0.273l0.702,0.004
	l0.004-0.703l-5.492-0.022l-0.04,9.729l5.396,0.023l0.012,0.269L318.853,52.562l0.003-0.703L318.853,52.562 M299.213,33.533
	l0.011,0.701l0.646-0.01l5.36,18.592l0.077-18.58l0.395,0.002l0.003-0.703l-0.702-0.003l-0.077,18.269h-0.221l-0.003,0.702
	l0.675-0.195l-5.737-19.819l-0.08,19.29l-0.423-0.001l-0.003,0.703l0.702,0.003l0.079-18.946L299.213,33.533l0.011,0.701
	L299.213,33.533l-0.703-0.003l-0.082,19.648l2.53,0.011l0.045-10.939l3.169,10.953l2.152,0.009l0.085-20.376l-2.502-0.01
	l-0.041,10.184l-2.946-10.208l-2.407,0.04l-0.003,0.688L299.213,33.533 M292.094,52.451l0.702,0.002l0.082-19.723l-2.56-0.012
	l-0.056,20.426l2.53,0.012l0.003-0.703L292.094,52.451l0.003-0.703l-0.425-0.002l0.047-17.615l0.451,0.002l0.003-0.702l-0.703-0.004
	l-0.078,19.021L292.094,52.451l0.003-0.703L292.094,52.451 M278.654,44.293l-0.703-0.004l-0.022,5.534
	c-0.001,0.608,0.1,1.155,0.395,1.62c0.443,0.637,1.146,0.76,1.914,0.771l1.413,0.005c0.644,0.007,1.321-0.151,1.686-0.776
	c0.246-0.451,0.319-0.964,0.325-1.572l0.011-2.781l0.309,0.002l0.003-0.703l-0.702-0.002l-0.018,4.15v0.08
	c-0.006,0.268-0.08,0.482-0.281,0.738c-0.179,0.205-0.385,0.321-0.822,0.352l0.038,0.703l0.003-0.703l-2.828-0.012l-0.003,0.702
	l0.036-0.701c-0.561-0.04-0.762-0.183-0.882-0.36c-0.2-0.304-0.289-0.604-0.291-0.969l0.062-14.969
	c0.006-0.398,0.104-0.689,0.307-0.965c0.136-0.177,0.37-0.322,0.936-0.354l-0.031-0.701l-0.003,0.702l2.655,0.01l0.002-0.701
	l-0.043,0.701c0.435,0.031,0.702,0.159,0.947,0.407c0.245,0.266,0.315,0.462,0.319,0.704l-0.001,0.069l-0.014,3.446h-0.308
	l-0.003,0.703l0.702,0.002l0.015-3.482c0-0.608-0.07-1.123-0.311-1.574c-0.36-0.63-1.036-0.792-1.681-0.791l-1.99-0.009
	c-0.55-0.022-1.119,0.294-1.397,0.765c-0.284,0.449-0.395,0.98-0.396,1.561l-0.033,4.296l-0.003,0.793l-0.007,1.681l-0.007,1.629
	L278.654,44.293l0.701,0.002l0.008-1.631l0.006-1.679l0.004-0.79l0.032-4.297c0.002-0.41,0.083-0.668,0.176-0.812
	c0.1-0.119,0.065-0.098,0.208-0.116l1.991,0.009c0.221,0,0.367,0.033,0.426,0.058l0.04,0.02l0.044-0.052l-0.059,0.033l0.015,0.019
	l0.044-0.052l-0.059,0.033c0.064,0.107,0.146,0.418,0.141,0.896l-0.018,4.185l2.414,0.011l0.021-4.852v-0.07
	c0.009-0.627-0.265-1.225-0.708-1.682c-0.484-0.512-1.157-0.8-1.876-0.839l-0.013-0.001l-2.696-0.01h-0.021
	c-0.801,0.029-1.543,0.306-1.998,0.916c-0.388,0.514-0.587,1.144-0.586,1.801l-0.062,14.969c-0.005,0.624,0.177,1.23,0.521,1.75
	c0.425,0.649,1.179,0.955,1.982,0.987l0.014,0.001l2.872,0.012h0.017c0.718-0.031,1.396-0.322,1.835-0.868
	c0.379-0.461,0.599-1.03,0.598-1.62v-0.099l-0.702,0.015l0.702,0.004l0.021-4.854l-2.415-0.01l-0.017,4.186
	c0,0.479-0.083,0.789-0.148,0.896l0.058,0.029l-0.042-0.05l-0.016,0.019l0.058,0.031l-0.042-0.05
	c-0.001,0.006-0.131,0.079-0.468,0.074l-1.413-0.006c-0.296-0.001-0.512-0.037-0.629-0.077l-0.104-0.049l-0.005-0.002
	c-0.089-0.132-0.176-0.408-0.173-0.854l0.022-5.533L278.654,44.293 M270.455,52.36l0.702,0.003l0.082-19.723l-2.56-0.012
	l-0.056,20.426l2.53,0.012l0.003-0.703L270.455,52.36l0.003-0.702l-0.425-0.002l0.047-17.615l0.451,0.001l0.003-0.702l-0.702-0.003
	l-0.079,19.021L270.455,52.36l0.003-0.702L270.455,52.36 M256.87,34.26l0.018,0.701l1.213-0.031l-0.02-0.703l-0.002,0.703
	c0.308,0.004,0.561,0.089,0.839,0.302c0.471,0.354,0.888,1.048,1.149,2.179c0.266,1.135,0.442,2.932,0.507,5.334l0.703-0.019
	l-0.701-0.052c-0.123,1.686-0.224,2.945-0.303,3.775c-0.071,0.742-0.309,1.572-0.729,2.486c-0.416,0.934-0.81,1.516-0.863,1.533
	c-0.126,0.11-0.41,0.258-0.849,0.369l0.177,0.681l-0.005-0.702l-0.503,0.002l0.07-16.557L256.87,34.26l0.018,0.701L256.87,34.26
	l-0.703-0.004l-0.074,17.977l2.011-0.013l0.083-0.021c0.561-0.148,1.029-0.344,1.405-0.658c0.447-0.41,0.751-1.01,1.229-2.018
	c0.472-1.025,0.762-2.004,0.852-2.94c0.081-0.851,0.184-2.116,0.306-3.807l0.002-0.035l-0.001-0.035
	c-0.067-2.456-0.24-4.309-0.543-5.613c-0.305-1.31-0.822-2.332-1.661-2.976c-0.483-0.38-1.077-0.594-1.69-0.593h-0.021l-1.893,0.05
	l-0.003,0.682L256.87,34.26 M258.294,52.311l0.03,0.701c0.766-0.043,1.388-0.158,1.878-0.614c0.286-0.28,0.585-0.634,0.909-1.063
	c0.354-0.471,0.685-1.059,1.01-1.779c0.353-0.778,0.586-1.738,0.731-2.891c0.144-1.143,0.217-2.443,0.224-3.906
	c0.007-1.709-0.09-3.24-0.292-4.598c-0.205-1.365-0.526-2.508-0.991-3.434l-0.04-0.076l-0.05-0.061
	c-0.508-0.604-1.015-1.094-1.536-1.47l-0.028-0.021l-0.031-0.019c-0.426-0.247-0.914-0.372-1.416-0.372
	c-0.034,0-0.085-0.002-0.159,0.004l0.058,0.701l0.003-0.703l-3.43-0.014l-0.084,20.301l3.228,0.014h0.018L258.294,52.311
	l0.003-0.703l-1.809-0.008l0.072-17.492l2.058,0.008l0.029-0.002h0.037c0.284,0.002,0.509,0.064,0.721,0.186l0.352-0.608
	l-0.411,0.57c0.399,0.287,0.831,0.697,1.281,1.233l0.538-0.451l-0.627,0.314c0.372,0.741,0.668,1.746,0.855,3.01
	c0.19,1.271,0.284,2.733,0.277,4.385c-0.006,1.418-0.078,2.666-0.213,3.737c-0.133,1.06-0.349,1.896-0.618,2.487
	c-0.296,0.653-0.586,1.161-0.851,1.512c-0.295,0.392-0.557,0.695-0.771,0.904c-0.012,0.037-0.334,0.197-0.954,0.215L258.294,52.311
	l0.003-0.703L258.294,52.311 M248.903,52.271l0.701-0.031l-0.068-1.607l-5.334-0.023l0.028-6.92l4.79,0.021l0.01-2.38l-4.789-0.02
	l0.027-6.439l5.18,0.022l0.048-2.27l-7.748-0.032l-0.085,20.352l7.974,0.032l-0.032-0.735L248.903,52.271l0.003-0.703l-5.833-0.024
	l0.073-17.542l4.916,0.021l-0.003,0.148l0.703,0.016l0.002-0.702l-5.895-0.024l-0.039,9.248l4.789,0.02l-0.001,0.273l0.702,0.004
	l0.004-0.703l-5.492-0.023l-0.04,9.729l5.397,0.022l0.011,0.27L248.903,52.271l0.003-0.703L248.903,52.271 M234.117,35.018
	l-0.703-0.004l-0.073,17.895l2.573,0.011l0.085-20.425l-3.282-0.014l-4.889,15.423l-5.007-15.464l-2.939-0.014l-0.133,20.418
	l2.445-0.048l0.057-13.529l4.452,13.608l1.192-0.039l-0.024-0.701l-0.002,0.701l0.533,0.002l0.508,0.003l5.873-17.602
	L234.117,35.018l-0.703-0.004L234.117,35.018l-0.666-0.225L227.9,51.432h-0.062l-0.128,0.004l-6.828-20.861l-0.086,20.844
	l-0.354,0.008l0.014,0.702l0.702,0.005l0.118-18.295l0.521,0.002l6.045,18.672l5.901-18.623l0.844,0.004l-0.074,17.615l-0.466-0.001
	l-0.002,0.702l0.702,0.003l0.09-21.562l-1.387,4.143L234.117,35.018 M205.21,52.089l0.702-0.028l-0.067-1.659l-5.336-0.022
	l0.075-18.033l-2.56-0.01l-0.056,20.425l7.973,0.033l-0.029-0.733L205.21,52.089l0.002-0.702l-5.834-0.025l0.046-17.615l0.452,0.002
	l0.003-0.702l-0.703-0.003l-0.077,18.734l5.396,0.023l0.013,0.316L205.21,52.089l0.002-0.702L205.21,52.089 M187.911,34.911
	l-0.692,0.116l2.999,17.701L193,52.74l-3.804-20.416l-2.425-0.01l-3.696,20.385l2.666,0.012l2.553-15.75l0.311-1.939L187.911,34.911
	l-0.692,0.116L187.911,34.911l-0.693-0.112l-0.311,1.939L184.544,51.3l-0.624-0.001l-0.003,0.703l0.69,0.123l3.336-18.402h0.084
	l3.279,17.605l-0.492-0.002l-0.003,0.704l0.693-0.119l-3.613-21.299l-0.674,4.187L187.911,34.911 M170.562,33.863l-0.003,0.701
	l1.154,0.005l0.797,0.003l-0.075,18.082l2.443,0.011l0.076-18.083l0.971,0.005l1.855,0.008l0.01-2.294l-3.963-0.016l-3.962-0.018
	l-0.009,2.294l0.702,0.003L170.562,33.863l0.702,0.003l0.001-0.188l2.558,0.012l2.558,0.011l-0.001,0.187l0.702,0.004l0.003-0.703
	l-1.153-0.005l-2.376-0.011l-0.076,18.082l-0.336-0.001l-0.002,0.702l0.701,0.004l0.078-18.784l-2.202-0.01l-1.153-0.005
	L170.562,33.863l0.702,0.003L170.562,33.863 M163.577,51.916l0.702-0.029l-0.068-1.609l-5.335-0.021l0.028-6.922l4.791,0.021
	l0.009-2.381l-4.789-0.02l0.027-6.438l5.181,0.021l0.047-2.268l-7.749-0.033l-0.084,20.352l7.973,0.033l-0.03-0.734L163.577,51.916
	l0.003-0.703l-5.833-0.023l0.073-17.543l4.915,0.021l-0.002,0.15l0.702,0.015l0.003-0.702l-5.896-0.025l-0.038,9.248l4.788,0.02
	l-0.001,0.273l0.703,0.004l0.004-0.703l-5.492-0.022l-0.041,9.729l5.397,0.023l0.012,0.269L163.577,51.916l0.003-0.703
	L163.577,51.916 M150.393,51.861l0.702-0.027l-0.067-1.661l-5.336-0.021l0.075-18.032l-2.56-0.012l-0.056,20.426l7.973,0.033
	l-0.029-0.732L150.393,51.861l0.003-0.703l-5.835-0.023l0.047-17.617l0.451,0.003l0.003-0.702l-0.702-0.004l-0.078,18.734
	l5.396,0.023l0.014,0.316L150.393,51.861l0.003-0.703L150.393,51.861 M136.919,51.805l0.701-0.029l-0.067-1.609l-5.335-0.021
	l0.028-6.922l4.79,0.021l0.01-2.381l-4.791-0.02l0.028-6.438l5.181,0.021l0.048-2.27l-7.749-0.033l-0.085,20.352l7.973,0.033
	l-0.031-0.734L136.919,51.805l0.003-0.702l-5.833-0.024l0.073-17.543l4.916,0.021l-0.002,0.15l0.702,0.016l0.003-0.703l-5.895-0.023
	l-0.039,9.247l4.789,0.02l-0.002,0.274l0.703,0.002l0.004-0.702l-5.493-0.022l-0.041,9.729l5.397,0.021l0.012,0.271L136.919,51.805
	l0.003-0.702L136.919,51.805 M117.791,51.726l0.702-0.002l-0.015-6.708l0.544-1.135l2.587,8.562l2.761,0.012l-3.706-11.99
	l3.754-8.386l-2.84-0.013l-3.061,7.029l0.06-7.041l-2.461-0.011l-0.085,20.376l2.463,0.011l-0.002-0.707L117.791,51.726l0.003-0.702
	l-0.352-0.002l0.073-17.566l0.352,0.002l0.003-0.703l-0.703-0.006l-0.115,13.232l5.445-12.505l0.836,0.003l0.003-0.701l-0.642-0.287
	l-3.531,7.885l3.297,10.667l-0.325-0.001l-0.003,0.702l0.672-0.204l-3.483-11.521l-2.249,4.681l0.015,7.028L117.791,51.726
	l0.003-0.702L117.791,51.726 M104.614,39.469l0.702,0.004l0.032-4.299c0.001-0.41,0.083-0.668,0.176-0.811
	c0.099-0.119,0.065-0.1,0.208-0.117l1.99,0.008c0.221,0.001,0.368,0.033,0.427,0.059l0.04,0.02l0.043-0.053l-0.059,0.033l0.016,0.02
	l0.043-0.053l-0.059,0.033c0.065,0.107,0.145,0.418,0.141,0.896l-0.018,4.186l2.415,0.01l0.02-4.852l0.002-0.099
	c0.004-0.554-0.157-1.093-0.457-1.55c-0.369-0.582-1.035-0.906-1.724-0.94l-0.012-0.001l-3.102-0.013l-0.02,0.001
	c-0.801,0.029-1.544,0.306-1.998,0.916c-0.388,0.515-0.586,1.145-0.586,1.801l-0.003,0.791l-0.022,5.236
	c-0.002,0.656,0.138,1.266,0.546,1.73c0.41,0.467,1.025,0.664,1.647,0.66l2.596,0.012c0.293,0.007,0.411,0.08,0.435,0.105
	c0.021,0.026,0.068,0.062,0.073,0.303l-0.001,0.077l0.02,5.587c-0.006,0.367-0.092,0.559-0.225,0.708
	c-0.094,0.103-0.28,0.21-0.736,0.212l-1.412-0.006c-0.221-0.001-0.368-0.033-0.428-0.059l-0.039-0.02l-0.044,0.053l0.061-0.032
	l-0.016-0.021l-0.044,0.053l0.061-0.032c-0.065-0.109-0.146-0.42-0.141-0.897l0.018-4.187l-2.415-0.009l-0.02,4.852l0.703,0.004
	l-0.702-0.039l-0.003,0.117c-0.007,0.589,0.207,1.162,0.585,1.624c0.39,0.496,0.959,0.836,1.584,0.881l0.027,0.003l3.113,0.012
	h0.005c0.801-0.029,1.544-0.307,1.998-0.918c0.388-0.512,0.586-1.143,0.586-1.799l0.029-7.064c0.003-0.496-0.109-0.988-0.455-1.369
	c-0.348-0.381-0.854-0.529-1.335-0.526l-3.058-0.013c-0.302-0.003-0.405-0.073-0.427-0.096c-0.021-0.022-0.077-0.077-0.08-0.341
	l0.003-0.79L104.614,39.469l-0.703-0.004l-0.004,0.791c-0.007,0.492,0.137,1.007,0.519,1.366c0.38,0.357,0.882,0.479,1.388,0.479
	l3.057,0.013c0.249,0.006,0.29,0.056,0.306,0.073c0.019,0.016,0.086,0.117,0.086,0.412l-0.03,7.064
	c-0.005,0.398-0.103,0.688-0.306,0.963c-0.136,0.178-0.37,0.324-0.935,0.355l0.032,0.703l0.002-0.703l-3.057-0.013l-0.003,0.702
	l0.057-0.7c-0.222-0.024-0.382-0.099-0.604-0.362c-0.201-0.254-0.271-0.468-0.274-0.736l0.001-0.047l0-0.014l0.014-3.47l0.308,0.003
	l0.003-0.703l-0.703-0.002l-0.014,3.482c0,0.607,0.07,1.122,0.312,1.574c0.358,0.629,1.035,0.792,1.679,0.791l1.413,0.006
	c0.679,0.008,1.332-0.18,1.777-0.667c0.408-0.441,0.596-1.038,0.593-1.655l-0.02-5.589l0-0.071c0.008-0.484-0.146-0.994-0.525-1.342
	c-0.378-0.344-0.866-0.466-1.368-0.477l-2.609-0.012c-0.379-0.008-0.512-0.094-0.601-0.189c-0.09-0.096-0.195-0.328-0.193-0.791
	l0.025-6.027c0.005-0.398,0.103-0.689,0.306-0.964c0.135-0.177,0.37-0.325,0.935-0.355l-0.031-0.701l-0.003,0.702l3.057,0.013
	l0.003-0.702l-0.046,0.701c0.389,0.037,0.509,0.128,0.638,0.305c0.157,0.244,0.228,0.482,0.229,0.775l-0.001,0.084l-0.014,3.463
	l-0.308-0.002l-0.003,0.703l0.702,0.004l0.015-3.483c-0.001-0.609-0.07-1.122-0.311-1.575c-0.36-0.629-1.037-0.792-1.68-0.791
	l-1.99-0.009c-0.55-0.021-1.12,0.294-1.398,0.767c-0.285,0.447-0.394,0.979-0.396,1.559l-0.031,4.296L104.614,39.469 M96.464,49.611
	l-0.703-0.004c-0.01,0.391-0.115,0.631-0.388,0.895c-0.282,0.258-0.605,0.396-1.087,0.424l0.035,0.702l0.002-0.702l-2.481-0.01
	l-0.003,0.702l0.037-0.702c-0.561-0.039-0.762-0.182-0.882-0.359c-0.199-0.305-0.289-0.605-0.29-0.969l0.062-14.97
	c0.004-0.397,0.103-0.689,0.305-0.964c0.136-0.178,0.371-0.324,0.936-0.355l-0.031-0.701l-0.003,0.701l2.827,0.012l0.003-0.701
	l-0.036,0.701c0.586,0.035,0.785,0.188,0.859,0.307c0.158,0.244,0.228,0.48,0.229,0.774l-0.002,0.077v0.021l-0.018,4.15
	l-0.074,10.965L96.464,49.611l0.702,0.004l0.075-10.967l0.018-4.152l-0.702-0.002l0.702,0.023l0.002-0.119
	c0.005-0.553-0.154-1.092-0.458-1.551c-0.423-0.641-1.165-0.904-1.963-0.94l-0.014-0.001l-2.86-0.012h-0.02
	c-0.801,0.029-1.544,0.307-1.998,0.918c-0.389,0.513-0.586,1.143-0.586,1.799l-0.062,14.971c-0.005,0.623,0.176,1.229,0.521,1.749
	c0.424,0.649,1.179,0.954,1.983,0.987l0.014,0.001l2.527,0.011h0.011c0.749-0.033,1.448-0.303,1.977-0.799
	c0.538-0.49,0.841-1.188,0.834-1.917L96.464,49.611 M91.124,43.512l-0.703-0.002l-0.023,5.533c0,0.609,0.101,1.156,0.396,1.619
	c0.443,0.638,1.146,0.76,1.913,0.771l1.414,0.006c0.644,0.006,1.321-0.15,1.686-0.775c0.23-0.423,0.333-0.912,0.38-1.496
	l0.001-0.024l0.058-13.983c0-0.609-0.071-1.124-0.311-1.575c-0.36-0.63-1.036-0.792-1.681-0.792l-1.991-0.008
	c-0.549-0.021-1.119,0.294-1.397,0.766c-0.285,0.447-0.394,0.98-0.396,1.56l-0.032,4.296l-0.003,0.793l-0.006,1.68l-0.007,1.631
	L91.124,43.512l0.702,0.003l0.018-4.101l0.032-4.296c0.001-0.411,0.083-0.668,0.176-0.812c0.099-0.119,0.065-0.098,0.208-0.117
	l1.99,0.009c0.22,0,0.368,0.033,0.427,0.058l0.04,0.021l0.042-0.052l-0.058,0.031l0.015,0.021l0.042-0.052l-0.058,0.031
	c0.064,0.109,0.146,0.419,0.14,0.897l-0.058,13.956l0.703,0.004l-0.701-0.055c-0.034,0.469-0.128,0.786-0.208,0.922l0.058,0.031
	l-0.042-0.051l-0.015,0.02l0.057,0.031l-0.042-0.051c0,0.006-0.131,0.078-0.468,0.074l-1.413-0.006
	c-0.296,0-0.511-0.037-0.628-0.077l-0.104-0.05h-0.005c-0.089-0.133-0.176-0.41-0.172-0.854l0.022-5.533L91.124,43.512
	 M83.314,51.582l0.702-0.027l-0.066-1.66l-5.336-0.023l0.075-18.032l-2.561-0.011l-0.055,20.426l7.972,0.033l-0.03-0.732
	L83.314,51.582l0.002-0.702l-5.834-0.024l0.047-17.617l0.451,0.002l0.002-0.701l-0.703-0.003l-0.078,18.734l5.396,0.022l0.012,0.316
	L83.314,51.582l0.002-0.702L83.314,51.582 M63.29,48.683l0.702,0.003l0.064-15.453l0.452,0.002l0.003-0.701l-0.703-0.004
	l-0.069,16.452c-0.007,0.616,0.175,1.215,0.58,1.66c0.475,0.517,1.155,0.679,1.902,0.683l0.75,0.002
	c0.708,0.006,1.374-0.168,1.835-0.666c0.408-0.442,0.595-1.039,0.593-1.656l0.065-15.75l0.452,0.003l0.003-0.702l-0.703-0.002
	L69.15,48.707l-0.003,0.742c-0.005,0.432-0.112,0.731-0.318,0.998c-0.125,0.166-0.425,0.34-1.092,0.367l0.027,0.703l0.003-0.702
	l-1.14-0.005l-1.27-0.006l-0.002,0.703l0.032-0.703c-0.667-0.033-0.967-0.21-1.09-0.376c-0.204-0.269-0.308-0.568-0.309-1.002
	l0.003-0.741L63.29,48.683l-0.703-0.003l-0.003,0.742c-0.006,0.686,0.193,1.342,0.602,1.866c0.488,0.627,1.265,0.882,2.136,0.921
	l1.3,0.006l1.172,0.005h-0.002c0.872-0.032,1.649-0.281,2.144-0.903c0.413-0.521,0.618-1.176,0.618-1.863l0.073-17.598l-2.559-0.011
	l-0.072,17.154c-0.006,0.37-0.092,0.562-0.224,0.712c-0.08,0.092-0.29,0.212-0.793,0.212l-0.75-0.005
	c-0.561,0-0.803-0.139-0.863-0.217c-0.131-0.15-0.216-0.343-0.219-0.713l0.071-17.156l-2.559-0.01l-0.07,16.857L63.29,48.683
	 M50.992,43.346l-0.703-0.004l-0.023,5.533c0,0.609,0.101,1.157,0.396,1.621c0.443,0.637,1.146,0.76,1.913,0.77l1.414,0.007
	c0.644,0.007,1.322-0.149,1.687-0.776c0.244-0.451,0.317-0.964,0.323-1.572l0.012-2.78l0.308,0.001l0.002-0.701l-0.703-0.004
	l-0.018,4.168l0.001,0.01l0,0.053c-0.005,0.268-0.079,0.481-0.282,0.736c-0.178,0.207-0.385,0.323-0.822,0.354l0.038,0.703
	l0.002-0.703l-2.827-0.012l-0.002,0.702l0.036-0.702c-0.561-0.037-0.762-0.182-0.882-0.357c-0.199-0.306-0.289-0.607-0.29-0.971
	l0.062-14.969c0.005-0.398,0.103-0.689,0.306-0.964c0.136-0.177,0.37-0.325,0.935-0.355l-0.031-0.701l-0.003,0.702l2.655,0.011
	l0.002-0.702l-0.042,0.701c0.434,0.032,0.701,0.159,0.945,0.407c0.247,0.267,0.317,0.462,0.321,0.705l-0.001,0.059l-0.014,3.457
	L55.4,37.77l-0.003,0.703l0.703,0.003l0.015-3.482c-0.001-0.61-0.071-1.124-0.312-1.575c-0.36-0.631-1.036-0.793-1.68-0.792
	l-1.99-0.008c-0.55-0.021-1.12,0.294-1.398,0.765c-0.285,0.449-0.394,0.981-0.396,1.561l-0.033,4.295l-0.002,0.793l-0.014,3.311
	L50.992,43.346l0.703,0.002l0.017-4.1l0.033-4.297c0.001-0.41,0.083-0.668,0.175-0.811c0.099-0.12,0.065-0.1,0.208-0.117l1.99,0.008
	c0.221,0,0.368,0.033,0.428,0.058l0.039,0.021l0.044-0.055l-0.059,0.034l0.015,0.021l0.044-0.055l-0.059,0.034
	c0.064,0.109,0.146,0.419,0.141,0.897l-0.018,4.186l2.415,0.01l0.021-4.852l0.001-0.069c0.007-0.628-0.266-1.227-0.71-1.682
	c-0.483-0.513-1.156-0.802-1.875-0.839l-0.013-0.001l-2.71-0.013l-0.006,0.002c-0.801,0.029-1.544,0.306-1.998,0.916
	c-0.389,0.514-0.586,1.145-0.586,1.801l-0.062,14.97c-0.005,0.623,0.176,1.229,0.521,1.749c0.425,0.65,1.179,0.955,1.983,0.988
	h0.014l2.871,0.013l0.016-0.001c0.718-0.029,1.396-0.322,1.836-0.868c0.379-0.461,0.6-1.03,0.599-1.62l-0.001-0.107l-0.702,0.024
	l0.702,0.003l0.02-4.854l-2.415-0.01l-0.017,4.187c0.001,0.478-0.082,0.788-0.147,0.896l0.058,0.031l-0.042-0.051l-0.016,0.02
	l0.058,0.031l-0.042-0.051c-0.001,0.006-0.131,0.078-0.467,0.073l-1.414-0.006c-0.296,0-0.511-0.037-0.628-0.077l-0.104-0.049
	l-0.005-0.001c-0.089-0.134-0.175-0.409-0.172-0.854l0.023-5.533L50.992,43.346 M37.537,39.188l0.702,0.005l0.032-4.298
	c0.001-0.411,0.083-0.669,0.176-0.812c0.099-0.118,0.065-0.098,0.208-0.116l1.991,0.008c0.22,0,0.367,0.033,0.427,0.059l0.04,0.021
	l0.042-0.053l-0.058,0.032l0.015,0.021l0.042-0.053l-0.058,0.032c0.064,0.109,0.146,0.419,0.141,0.896l-0.018,4.186l2.414,0.01
	l0.021-4.852l-0.702-0.002l0.702,0.023l0.002-0.12c0.005-0.554-0.155-1.091-0.458-1.551c-0.368-0.581-1.034-0.905-1.722-0.938
	l-0.012-0.001l-3.118-0.013h-0.006c-0.801,0.029-1.544,0.306-1.998,0.918c-0.388,0.513-0.586,1.143-0.586,1.799l-0.003,0.791
	l-0.022,5.236c-0.002,0.657,0.138,1.266,0.546,1.73c0.409,0.467,1.025,0.664,1.646,0.66l2.597,0.012
	c0.293,0.008,0.41,0.081,0.434,0.107c0.022,0.023,0.069,0.061,0.074,0.301l-0.001,0.085l0.021,5.581
	c-0.005,0.365-0.092,0.558-0.225,0.707c-0.094,0.103-0.279,0.209-0.735,0.211l-1.414-0.006c-0.221,0-0.368-0.033-0.427-0.059
	l-0.04-0.02l-0.044,0.053l0.061-0.033l-0.016-0.02l-0.044,0.053l0.061-0.033c-0.065-0.108-0.146-0.418-0.141-0.896l0.017-4.186
	l-2.415-0.01l-0.02,4.853l0.703,0.003l-0.702-0.039l-0.003,0.117c-0.007,0.59,0.208,1.162,0.586,1.623
	c0.389,0.496,0.958,0.838,1.583,0.882l0.027,0.002l3.114,0.013h0.005c0.801-0.029,1.543-0.307,1.998-0.917
	c0.389-0.513,0.587-1.144,0.586-1.799l0.03-7.065c0.002-0.495-0.109-0.988-0.455-1.368c-0.348-0.381-0.854-0.53-1.336-0.527
	l-3.059-0.013c-0.303-0.002-0.406-0.072-0.428-0.096c-0.021-0.021-0.076-0.076-0.08-0.34l0.003-0.791L37.537,39.188l-0.703-0.003
	l-0.004,0.791c-0.006,0.493,0.138,1.008,0.52,1.366c0.38,0.356,0.882,0.479,1.387,0.479l3.058,0.014
	c0.249,0.006,0.29,0.057,0.306,0.072c0.019,0.017,0.087,0.116,0.086,0.412l-0.029,7.064c-0.005,0.397-0.104,0.688-0.306,0.963
	c-0.136,0.179-0.371,0.324-0.936,0.356l0.031,0.702l0.002-0.703l-3.058-0.014l-0.003,0.703l0.057-0.699
	c-0.222-0.025-0.382-0.1-0.604-0.363c-0.2-0.255-0.272-0.468-0.275-0.736l0.001-0.047l0-0.014l0.015-3.47l0.307,0.002l0.003-0.702
	l-0.703-0.002l-0.014,3.482c0.001,0.608,0.07,1.122,0.312,1.575c0.359,0.629,1.035,0.791,1.679,0.79l1.414,0.006
	c0.679,0.008,1.332-0.18,1.778-0.668c0.408-0.44,0.595-1.038,0.593-1.654l-0.02-5.588l0.001-0.072
	c0.008-0.482-0.146-0.994-0.526-1.34c-0.378-0.346-0.866-0.467-1.368-0.479l-2.61-0.011c-0.379-0.008-0.512-0.094-0.601-0.188
	c-0.09-0.098-0.195-0.33-0.193-0.793l0.025-6.027c0.005-0.396,0.103-0.689,0.306-0.963c0.135-0.178,0.37-0.324,0.935-0.355
	l-0.031-0.701l-0.003,0.701l3.058,0.012l0.002-0.701l-0.045,0.701c0.388,0.037,0.509,0.127,0.638,0.307
	c0.158,0.242,0.228,0.48,0.229,0.774l-0.002,0.077v0.021l-0.015,3.447h-0.307l-0.003,0.702l0.702,0.003l0.015-3.484
	c0-0.608-0.071-1.122-0.311-1.574c-0.36-0.629-1.036-0.791-1.681-0.791l-1.991-0.008c-0.549-0.022-1.119,0.293-1.397,0.765
	c-0.285,0.448-0.394,0.981-0.396,1.561l-0.032,4.296L37.537,39.188 M22.87,48.515l0.703,0.003l0.064-15.454l0.452,0.003l0.003-0.703
	l-0.703-0.002L23.32,48.812c-0.007,0.616,0.174,1.216,0.579,1.661c0.476,0.517,1.155,0.677,1.902,0.682l0.75,0.003
	c0.708,0.006,1.375-0.168,1.835-0.666c0.408-0.442,0.595-1.04,0.593-1.656l0.029-6.743l0.003-0.976l0.034-8.031l0.452,0.002
	l0.003-0.701l-0.703-0.002l-0.07,16.895c-0.005,0.434-0.112,0.732-0.317,1c-0.125,0.166-0.425,0.34-1.094,0.367l0.028,0.703
	l0.002-0.702l-1.139-0.005l-1.27-0.006l-0.002,0.703l0.032-0.703c-0.667-0.033-0.966-0.211-1.09-0.377
	c-0.204-0.268-0.307-0.568-0.309-1.001l0.003-0.741L22.87,48.515l-0.703-0.003l-0.003,0.74c-0.006,0.688,0.193,1.343,0.602,1.868
	c0.489,0.627,1.266,0.882,2.137,0.921l1.299,0.006l1.172,0.005h-0.003c0.872-0.032,1.651-0.282,2.144-0.903
	c0.413-0.521,0.618-1.176,0.618-1.863l0.073-17.599l-2.559-0.01l-0.072,17.154c-0.006,0.371-0.092,0.562-0.224,0.712
	c-0.08,0.092-0.29,0.211-0.793,0.211l-0.75-0.004c-0.561,0-0.804-0.139-0.863-0.217c-0.132-0.15-0.216-0.342-0.219-0.715
	l0.072-17.154l-2.559-0.011l-0.07,16.858L22.87,48.515 M14.635,34.104l-0.703-0.003l-0.075,17.896l2.574,0.01l0.085-20.426
	l-3.282-0.014L8.347,46.99L3.339,31.525L0.4,31.514L0.267,51.932l2.446-0.049l0.056-13.529l4.452,13.609l1.191-0.039l-0.023-0.703
	l-0.002,0.703l0.534,0.002l0.509,0.002l5.873-17.602L14.635,34.104l-0.703-0.003L14.635,34.104l-0.667-0.223L8.417,50.519H8.393
	l-0.019-0.001l-0.145,0.006L1.4,29.656l-0.086,20.85L0.96,50.512l0.014,0.703l0.702,0.004l0.119-18.295l0.521,0.002l6.045,18.673
	l5.901-18.624l0.844,0.004l-0.074,17.616l-0.466-0.001l-0.003,0.702l0.703,0.003l0.089-21.566l-1.387,4.148L14.635,34.104"/>
</svg>
