<svg xmlns="http://www.w3.org/2000/svg" width="399.289" height="266.642"><g stroke="#E3AE24" stroke-linecap="round" stroke-linejoin="round" fill="none"><line stroke-width="1.961" stroke-dasharray="0,4.025" x1="83.642" y1="9.256" x2="83.642" y2="129.238"/><path stroke-width="1.961" d="M83.642 133.375m0-132.395"/><line stroke-width="1.961" stroke-dasharray="0,4.025" x1="-3.83" y1="24.679" x2="37.207" y2="137.426"/><path stroke-width="1.961" d="M38.621 141.314m-45.282-124.412"/><line stroke-width="1.961" stroke-dasharray="0,4.025" x1="221.423" y1="240.711" x2="339.582" y2="219.877"/><path stroke-width="1.961" d="M343.657 219.158m-130.385 22.99"/><line stroke-width="1.961" stroke-dasharray="0,4.025" x1="204.806" y1="195.053" x2="308.711" y2="135.062"/><path stroke-width="1.961" d="M312.297 132.992m-114.658 66.199"/><line stroke-width="1.961" stroke-dasharray="0,4.025" x1="173.573" y1="157.831" x2="250.696" y2="65.92"/><path stroke-width="1.961" d="M253.354 62.752m-85.1 101.418"/><line stroke-width="1.961" stroke-dasharray="0,4.025" x1="131.493" y1="133.537" x2="172.529" y2="20.791"/><path stroke-width="1.961" d="M173.945 16.904m-45.282 124.408"/><line stroke-width="3.268" stroke-dasharray="0,9.2" x1="41.08" y1="23.628" x2="59.143" y2="126.068"/><path stroke-width="3.268" d="M60.784 135.381m-22.989-130.379"/><line stroke-width="3.268" stroke-dasharray="0,9.2" x1="-38.91" y1="52.74" x2="13.1" y2="142.825"/><path stroke-width="3.268" d="M17.83 151.016m-66.196-114.654"/><line stroke-width="3.268" stroke-dasharray="0,9.2" x1="234.183" y1="265.008" x2="338.2" y2="265.008"/><path stroke-width="3.268" d="M347.655 265.008m-132.386 0"/><line stroke-width="3.268" stroke-dasharray="0,9.2" x1="225.103" y1="213.52" x2="322.85" y2="177.941"/><path stroke-width="3.268" d="M331.736 174.709m-124.405 45.279"/><line stroke-width="3.268" stroke-dasharray="0,9.2" x1="198.962" y1="168.24" x2="278.647" y2="101.377"/><path stroke-width="3.268" d="M285.889 95.301m-101.415 85.097"/><line stroke-width="3.268" stroke-dasharray="0,9.2" x1="158.911" y1="134.635" x2="210.92" y2="44.551"/><path stroke-width="3.268" d="M215.649 36.363m-66.193 114.651"/><line stroke-width="3.268" stroke-dasharray="0,9.2" x1="109.783" y1="116.754" x2="127.846" y2="14.315"/><path stroke-width="3.268" d="M129.486 5.003m-22.987 130.376"/></g></svg>