<svg xmlns="http://www.w3.org/2000/svg" width="689" height="259"><path fill="#00355F" d="M207.208 201.047c-.431-.787-.815-1.552-1.197-2.314h-180.156v5.095h183.032c-.614-.917-1.178-1.843-1.679-2.781"/><path fill="#00355F" d="M282.624 198.732c-.374.757-.749 1.516-1.17 2.297-.512.958-1.101 1.886-1.719 2.798h379.307v-5.095h-376.418"/><path fill="#00355F" d="M37.839 184.395h6.049v3.392h-18.033v-3.392h6.217v-27.049h-6.217v-3.393h18.032c11.256 0 14.28 4.523 14.28 8.792 0 3.497-2.241 7.147-9.352 8.228v.463c5.712 1.132 7.392 3.703 7.672 7.251l.335 3.754c.167 1.696.672 2.312 1.68 2.312.897 0 1.569-.667 2.465-2.158l2.464 1.079c-1.177 2.828-3.249 4.679-6.272 4.679-3.304 0-6.442-1.388-6.553-6.066l-.111-4.115c-.112-3.495-.952-5.296-6.273-5.296h-6.384l.001 11.519m5.937-14.604c5.991 0 7.783-2.469 7.783-6.635 0-3.702-1.792-5.812-7.112-5.812h-6.608v12.445l5.937.002z"/><path fill="#00355F" d="M68.223 184.395h6.216v-27.049h-6.216v-3.393h32.592v11.004h-2.688c-2.017-6.067-2.577-7.611-6.889-7.611h-11.032v11.622h3.864c4.145 0 4.648-.516 5.713-5.194h2.966v13.475h-2.966c-.952-4.887-1.568-5.4-5.713-5.4h-3.864v12.547h10.809c4.928 0 5.544-1.594 7.616-8.64h2.688v12.031h-33.096v-3.392"/><path fill="#00355F" d="M126.062 188.611c-10.527 0-17.527-7.92-17.527-17.844 0-9.564 7.952-17.637 17.416-17.637 4.424 0 8.008 1.594 10.249 3.959l1.008-3.807h3.695v13.268h-3.36c-2.52-6.12-6.327-10.026-11.256-10.026-6.215 0-11.032 3.958-11.032 13.935 0 9.204 4.2 14.552 11.704 14.552 4.089 0 6.271-2.006 7.504-4.062.784-1.337 1.177-3.96 1.177-5.501v-1.287h-6.777v-3.393h17.472v3.393h-4.927v13.987h-3.585l-1.566-4.577c-2.299 3.085-5.771 5.04-10.195 5.04"/><polyline fill="#00355F" points="149.824,184.395 156.042,184.395 156.042,157.346 149.824,157.346 149.824,153.953 168.026,153.953 168.026,157.346 161.809,157.346 161.809,184.395 168.026,184.395 168.026,187.786 149.824,187.786 149.824,184.395"/><path fill="#00355F" d="M174.816 176.217h3.359c4.089 6.892 6.665 9.204 11.873 9.204 4.367 0 6.999-2.055 6.999-5.604 0-4.165-4.76-5.295-9.8-6.633-5.768-1.49-11.928-3.291-11.928-10.232 0-5.039 4.592-9.82 11.593-9.82 3.136 0 7 1.233 9.071 3.599l1.178-3.446h3.695v11.725h-3.361c-3.416-6.684-6.665-8.689-10.864-8.689-3.585 0-5.825 2.057-5.825 5.141 0 4.576 4.929 5.606 10.081 6.84 5.656 1.285 11.648 2.879 11.648 9.719 0 5.912-5.264 10.594-12.432 10.594-4.145 0-8.009-1.338-10.249-3.704l-1.344 3.549h-3.696v-12.243"/><path fill="#00355F" d="M288.168 177.555v-20.209h-5.376v-3.393h16.633v3.393h-5.489v18.513c0 6.529 3.584 9.049 10.416 9.049 3.025 0 5.041-.926 6.666-2.417 1.904-1.748 2.295-4.01 2.295-7.867v-17.277h-5.768v-3.393h15.176v3.393h-5.264v20.209c0 5.812-5.208 11.057-14.84 11.057-9.409-.002-14.449-4.58-14.449-11.058"/><polyline fill="#00355F" points="338.861,160.791 338.356,160.791 338.356,184.395 344.182,184.395 344.182,187.786 328.556,187.786 328.556,184.395 334.214,184.395 334.214,157.346 328.556,157.346 328.556,153.953 340.766,153.953 359.301,178.634 359.807,178.634 359.807,157.346 353.981,157.346 353.981,153.953 369.607,153.953 369.607,157.346 363.951,157.346 363.951,188.611 359.693,188.611 338.861,160.791"/><polyline fill="#00355F" points="375.729,184.395 381.943,184.395 381.943,157.346 375.729,157.346 375.729,153.953 393.93,153.953 393.93,157.346 387.714,157.346 387.714,184.395 393.93,184.395 393.93,187.786 375.729,187.786 375.729,184.395"/><polyline fill="#00355F" points="404.123,157.346 399.028,157.346 399.028,153.953 416.331,153.953 416.331,157.346 410.508,157.346 419.915,182.079 420.421,182.079 430.444,157.346 425.796,157.346 425.796,153.953 438.733,153.953 438.733,157.346 434.757,157.346 421.764,187.994 416.557,187.994 404.123,157.346"/><path fill="#00355F" d="M443.624 184.395h6.215v-27.049h-6.215v-3.393h32.594v11.004h-2.688c-2.018-6.067-2.575-7.611-6.891-7.611h-11.031v11.622h3.863c4.144 0 4.647-.516 5.712-5.194h2.97v13.475h-2.97c-.952-4.887-1.568-5.4-5.712-5.4h-3.863v12.547h10.809c4.929 0 5.544-1.594 7.615-8.64h2.688v12.031h-33.097v-3.392"/><path fill="#00355F" d="M495.399 184.395h6.048v3.392h-18.033v-3.392h6.216v-27.049h-6.216v-3.393h18.033c11.256 0 14.279 4.523 14.279 8.792 0 3.497-2.238 7.147-9.351 8.228v.463c5.711 1.132 7.391 3.703 7.67 7.251l.335 3.754c.167 1.696.675 2.312 1.682 2.312.896 0 1.567-.667 2.466-2.158l2.464 1.079c-1.178 2.828-3.25 4.679-6.273 4.679-3.303 0-6.439-1.388-6.55-6.066l-.112-4.115c-.112-3.495-.953-5.296-6.272-5.296h-6.385l-.001 11.519m5.936-14.604c5.991 0 7.782-2.469 7.782-6.635 0-3.702-1.791-5.812-7.111-5.812h-6.606v12.445l5.935.002z"/><path fill="#00355F" d="M526.381 176.217h3.359c4.09 6.892 6.665 9.204 11.874 9.204 4.364 0 7-2.055 7-5.604 0-4.165-4.759-5.295-9.802-6.633-5.768-1.49-11.927-3.291-11.927-10.232 0-5.039 4.59-9.82 11.591-9.82 3.138 0 7.001 1.233 9.072 3.599l1.176-3.446h3.695v11.725h-3.359c-3.416-6.684-6.664-8.689-10.863-8.689-3.583 0-5.824 2.057-5.824 5.141 0 4.576 4.927 5.606 10.079 6.84 5.658 1.285 11.649 2.879 11.649 9.719 0 5.912-5.265 10.594-12.433 10.594-4.144 0-8.01-1.338-10.249-3.704l-1.344 3.549h-3.696l.002-12.243"/><polyline fill="#00355F" points="559.608,184.395 565.824,184.395 565.824,157.346 559.608,157.346 559.608,153.953 577.81,153.953 577.81,157.346 571.594,157.346 571.594,184.395 577.81,184.395 577.81,187.786 559.608,187.786 559.608,184.395"/><path fill="#00355F" d="M591.6 184.395h6.497v-27.562h-2.466c-4.926 0-5.99 1.492-8.737 9.153h-2.631v-12.032h33.434v12.032h-2.631c-2.742-7.661-3.81-9.153-8.737-9.153h-2.463v27.562h6.498v3.392h-18.764v-3.392"/><polyline fill="#00355F" points="650.756,157.346 646.052,157.346 646.052,153.953 659.042,153.953 659.042,157.346 654.73,157.346 643.923,173.648 643.923,184.395 649.578,184.395 649.578,187.786 632.612,187.786 632.612,184.395 638.155,184.395 638.155,173.698 628.02,157.346 623.428,157.346 623.428,153.953 639.611,153.953 639.611,157.346 634.573,157.346 642.41,170.612 650.756,157.346"/><path fill="#00355F" d="M488.571 214.999h8.982c2.534 0 4.521.749 5.816 2.015 1.063 1.096 1.67 2.592 1.67 4.349v.058c0 3.312-1.986 5.297-4.779 6.104l5.441 7.632h-4.204l-4.951-7.026h-4.435v7.026h-3.542l.002-20.158m8.724 9.99c2.534 0 4.146-1.324 4.146-3.367v-.059c0-2.16-1.556-3.34-4.175-3.34h-5.153v6.766h5.182z"/><polyline fill="#00355F" points="511.117,214.999 526.061,214.999 526.061,218.166 514.658,218.166 514.658,223.406 524.764,223.406 524.764,226.573 514.658,226.573 514.658,231.986 526.204,231.986 526.204,235.155 511.117,235.155 511.117,214.999"/><path fill="#00355F" d="M531.243 225.134v-.058c0-5.643 4.318-10.424 10.395-10.424 3.514 0 5.672.98 7.745 2.737l-2.246 2.677c-1.555-1.325-3.079-2.16-5.643-2.16-3.715 0-6.536 3.255-6.536 7.113v.057c0 4.146 2.735 7.198 6.854 7.198 1.899 0 3.627-.604 4.865-1.524v-3.773h-5.154v-3.08h8.58v8.466c-1.985 1.698-4.839 3.138-8.407 3.138-6.305-.001-10.453-4.493-10.453-10.367"/><rect x="556.642" y="214.999" fill="#00355F" width="3.541" height="20.156"/><path fill="#00355F" d="M565.94 232.218l2.131-2.534c1.929 1.67 3.888 2.62 6.362 2.62 2.189 0 3.571-1.036 3.571-2.533v-.059c0-1.439-.807-2.217-4.55-3.08-4.291-1.037-6.709-2.305-6.709-6.019v-.057c0-3.456 2.88-5.845 6.882-5.845 2.938 0 5.269.893 7.312 2.532l-1.898 2.679c-1.814-1.354-3.63-2.074-5.472-2.074-2.074 0-3.282 1.067-3.282 2.392v.057c0 1.554.922 2.245 4.807 3.167 4.265 1.036 6.451 2.563 6.451 5.902v.059c0 3.771-2.966 6.017-7.198 6.017-3.079-.001-5.988-1.065-8.407-3.224"/><rect x="586.816" y="231.181" fill="#00355F" width="3.83" height="3.975"/><polyline fill="#00355F" points="596.925,214.999 611.868,214.999 611.868,218.166 600.466,218.166 600.466,223.406 610.571,223.406 610.571,226.573 600.466,226.573 600.466,231.986 612.011,231.986 612.011,235.155 596.925,235.155 596.925,214.999"/><path fill="#00355F" d="M617.943 214.999h7.515c6.335 0 10.712 4.348 10.712 10.021v.057c0 5.674-4.377 10.079-10.712 10.079h-7.515v-20.157m3.541 3.225v13.705h3.974c4.232 0 6.997-2.85 6.997-6.795v-.058c0-3.944-2.765-6.853-6.997-6.853l-3.974.001z"/><path fill="#00355F" d="M641.873 226.603v-11.604h3.54v11.459c0 3.743 1.93 5.73 5.098 5.73 3.139 0 5.067-1.872 5.067-5.586v-11.604h3.541v11.431c0 6.017-3.397 9.042-8.667 9.042-5.24.001-8.579-3.025-8.579-8.868"/><path fill="#FFD200" d="M214.333 143.891l.015 33.147c-.015 6.939 1.258 11.426 4.519 17.512 5.786 10.89 25.468 19.279 25.468 19.279s19.681-8.39 25.468-19.279c3.261-6.086 4.534-10.572 4.518-17.512l.016-33.147h-60.004"/><path fill="#00355F" d="M273.926 143.891l-.007 33.385c-.011 6.892-1.236 11.169-4.498 17.243-2.809 5.285-9.122 10.046-14.73 13.458-2.802 1.713-5.427 3.079-7.359 4.039 0 0-2.973 1.404-2.997 1.412l-2.997-1.412c-1.932-.96-4.557-2.326-7.359-4.039-5.609-3.412-11.922-8.173-14.729-13.458-3.263-6.074-4.487-10.352-4.499-17.243l-.008-33.385h-.829l.016 33.385c-.016 6.99 1.275 11.508 4.582 17.638 5.866 10.967 25.823 19.416 25.823 19.416s19.956-8.449 25.823-19.416c3.306-6.13 4.597-10.647 4.581-17.638l.016-33.385h-.829"/><path fill="#00355F" d="M226.36 172.372l-9.602 9.737s.035.817.209 1.74c.315 1.666.6 2.533.6 2.533l13.983-14.011-5.19.001"/><path fill="#00355F" d="M236.589 172.372l-17.658 17.655s.198.525.75 1.545c.586 1.079 1.05 1.799 1.05 1.799l20.824-20.999h-4.966"/><polyline fill="#00355F" points="216.613,172.372 216.613,177.012 221.364,172.372 216.613,172.372"/><path fill="#00355F" d="M243.51 175.582l-20.724 20.76s.441.519 1.29 1.438c.85.921 1.32 1.336 1.32 1.336l18.114-18.207v-5.327"/><path fill="#00355F" d="M243.51 185.944l-15.477 15.434s.23.194 1.307.992c1.077.799 1.54 1.18 1.54 1.18l12.63-12.73v-4.876"/><path fill="#00355F" d="M243.51 195.903l-9.695 9.691s.443.336 1.479.945c1.38.81 1.748 1.062 1.748 1.062l6.469-6.515v-5.183"/><polyline fill="#00355F" points="243.521,210.953 243.521,206.209 240.34,209.36 243.521,210.953"/><path fill="#00355F" d="M245.074 170.678h27.071v-26.797h-27.071v26.797zm.992-13.633l2.468-2.471 2.67 2.769-5.139 5.136.001-5.434zm.096 12.35v-5.232l13.243-13.144 5.729 5.631-12.851 12.745h-6.121zm24.802 0h-16.898l14.913-14.721 1.986 1.871-.001 12.85z"/><path fill="#00355F" d="M216.525 170.579h27.064v-26.675h-27.064v26.675zm5.36-1.446h-1.649v-4.236h-2.074v-1.409c1.078.019 2.019-.354 2.101-1.589h1.622v7.234zm4.325.439c-1.709-.084-3.046-.711-3.038-2.473-.008-1.398 1.095-1.64 1.329-1.892-.557-.142-.946-.696-.946-1.52-.078-1.468 1.415-2.105 2.656-2.08 2.249-.025 2.716.927 2.847 2.08-.056.739-.369 1.378-1.137 1.52.847.177 1.403.96 1.513 1.892.129 1.762-1.534 2.389-3.224 2.473zm9.294-6.076c-2.072 1.646-2.546 4.014-2.465 5.883h-2.089c-.041-.046.115-2.494 1.133-4.557.796-1.259.956-1.335.956-1.326h-3.227v-1.888h5.691l.001 1.888zm6.688.047c-2.079 1.636-2.555 4.014-2.474 5.881h-2.082c-.044-.051.109-2.499 1.13-4.562.797-1.255.952-1.336.952-1.318h-3.221v-1.898h5.695v1.897z"/><path fill="#00355F" d="M226.199 164.822c.712 0 1.288-.443 1.288-.995 0-.554-.576-.993-1.288-.993-.713 0-1.295.439-1.295.993 0 .552.582.995 1.295.995"/><path fill="#00355F" d="M226.289 166.038c-.771 0-1.4.466-1.4 1.044 0 .572.629 1.045 1.4 1.045.769 0 1.39-.473 1.39-1.045 0-.578-.621-1.044-1.39-1.044"/><path fill="#00355F" d="M245.074 172.372v38.581s5.407-2.115 12.581-7.319c6.831-4.955 8.844-7.86 10.559-10.86 2.224-3.888 3.731-7.454 3.731-13.592 0-2.756.027-6.81.027-6.81h-26.898m3.294 1.78h1.976v7.329h-1.976v-7.329zm11.638 7.43h-2.203v-3.326h-3.277v3.326h-2.133v-7.484h2.234v2.693h3.115v-2.693h2.265l-.001 7.484zm5.285.24c-1.11.083-4.032-.312-3.988-2.847h2.655c.071.237.071.476.195.57.187.536.818.623 1.321.567.524.056 1.154-.104 1.143-.748.011-.31-.388-.469-1.902-.957-1.49-.301-3.146-.537-3.229-2.273.083-1.665 1.906-2.528 3.805-2.469 1.893-.06 3.629.573 3.787 2.469h-2.646c.039-.238-.116-.397-.382-.568-.284-.146-.523-.227-.758-.193-.403-.033-1.11.048-1.138.573.187.501 1.372.581 2.647.945 1.33.343 2.671.899 2.66 2.275.011 2.103-2.193 2.739-4.17 2.656z"/><polygon fill="#00355F" stroke="#00355F" stroke-width="2" stroke-miterlimit="10" points="618.5,2 618.5,3 686,3 686,256 3,256 3,3 71.5,3 71.5,2 2,2 2,257 687,257 687,256.5 687,2"/></svg>