<?xml version="1.0" encoding="utf-8"?>
<!-- Generator: Adobe Illustrator 19.2.0, SVG Export Plug-In . SVG Version: 6.00 Build 0)  -->
<!DOCTYPE svg PUBLIC "-//W3C//DTD SVG 1.1//EN" "http://www.w3.org/Graphics/SVG/1.1/DTD/svg11.dtd">
<svg version="1.1" id="Layer_1" xmlns="http://www.w3.org/2000/svg" xmlns:xlink="http://www.w3.org/1999/xlink" x="0px" y="0px"
	 viewBox="0 0 2103.8 1099.6" enable-background="new 0 0 2103.8 1099.6" xml:space="preserve">
<path fill="#A6CAE1" stroke="#A6CAE1" stroke-width="0.7732" d="M387,67.8l44.3,232.5c8.5-2.5,17.2-4.7,26-6.5L387,67.8z"/>
<path fill="#F2F2F2" d="M387,67.8l44.3,232.5c8.5-2.5,17.2-4.7,26-6.5L387,67.8z"/>
<path fill="#F2F2F2" d="M971.9,857.3L776.1,724.2c-4.3,7.9-8.9,15.6-13.9,23L971.9,857.3z"/>
<path fill="#A6CAE1" stroke="#A6CAE1" stroke-width="0.7732" d="M862.6,0.2L656.4,323.4c7.9,4.2,15.6,8.9,23,13.8L862.6,0.2z"/>
<path fill="#F2F2F2" d="M862.6,0.2L656.4,323.4c7.9,4.2,15.6,8.9,23,13.8L862.6,0.2z"/>
<path fill="#F2F2F2" d="M2103.8,187.6L799.2,499c2.6,8.6,4.8,17.2,6.6,26.1L2103.8,187.6z"/>
<path fill="#142463" d="M644.8,1099.6L600.5,867c-8.5,2.5-17.2,4.8-26,6.6L644.8,1099.6z"/>
<path fill="#F2F2F2" d="M644.8,1099.6L600.5,867c-8.5,2.5-17.2,4.8-26,6.6L644.8,1099.6z"/>
<path fill="#142463" d="M242.3,1039.6l133.1-195.7c-7.9-4.3-15.6-8.9-23-13.8L242.3,1039.6z"/>
<path fill="#F2F2F2" d="M242.3,1039.6l133.1-195.7c-7.9-4.3-15.6-8.9-23-13.8L242.3,1039.6z"/>
<path fill="#142463" d="M59.9,310l195.7,133.1c4.3-7.9,8.9-15.6,13.8-23L59.9,310z"/>
<path fill="#F2F2F2" d="M59.9,310l195.7,133.1c4.3-7.9,8.9-15.6,13.8-23L59.9,310z"/>
<path fill="#142463" d="M0,712.6l232.6-44.3c-2.6-8.5-4.8-17.2-6.6-26L0,712.6z"/>
<path fill="#F2F2F2" d="M0,712.6l232.6-44.3c-2.6-8.5-4.8-17.2-6.6-26L0,712.6z"/>
<path fill="#F2F2F2" d="M656.4,323.4c-29.2-15.8-61.6-26.9-96.4-32.2c-35.2-5.3-69.8-4.2-102.8,2.5L526.1,515L656.4,323.4z"/>
<path fill="#F2F2F2" d="M232.6,668.3c19.8,66.1,62.3,123.5,119.8,161.8L460.1,625L232.6,668.3z"/>
<path fill="#F2F2F2" d="M375.4,843.9c29.2,15.8,61.6,26.9,96.4,32.1c35.2,5.3,69.8,4.2,102.8-2.4l-68.9-221.3L375.4,843.9z"/>
<path fill="#F2F2F2" d="M762.3,747.2L557.2,639.4L600.5,867C666.7,847.2,724.1,804.7,762.3,747.2z"/>
<path fill="#F2F2F2" d="M776.1,724.2c15.8-29.2,26.9-61.6,32.2-96.3c5.3-35.2,4.2-69.8-2.5-102.8l-221.3,68.8L776.1,724.2z"/>
<path fill="#F2F2F2" d="M255.7,443.2c-15.8,29.2-26.9,61.6-32.2,96.4c-5.3,35.2-4.2,69.8,2.5,102.8l221.3-68.8L255.7,443.2z"/>
<path fill="#F2F2F2" d="M799.2,499c-19.8-66.1-62.3-123.5-119.8-161.7L571.7,542.4L799.2,499z"/>
<path fill="#F2F2F2" d="M431.3,300.3c-66.1,19.8-123.5,62.3-161.7,119.8l205.1,107.8L431.3,300.3z"/>
<path fill="#FFFFFF" d="M762.3,747.2c5-7.4,9.6-15.1,13.9-23L584.5,593.9l221.3-68.8c-1.8-8.8-4-17.5-6.6-26.1l-227.6,43.4
	l107.8-205.1c-7.4-5-15.1-9.6-23-13.8L526.1,515l-68.8-221.3c-8.8,1.8-17.5,4-26,6.5l43.3,227.6L269.5,420.1
	c-4.9,7.4-9.6,15.1-13.8,23l191.6,130.3L226,642.3c1.8,8.8,4,17.5,6.6,26L460.1,625L352.4,830.1c7.4,4.9,15.1,9.6,23,13.8
	l130.3-191.6l68.9,221.3c8.8-1.8,17.5-4,26-6.6l-43.3-227.6L762.3,747.2z"/>
</svg>
