<svg xmlns="http://www.w3.org/2000/svg" width="425" height="425"><g opacity=".1"><path d="M268.183 180.137c-7.41-12.824-11.922-26.755-13.699-40.922-13.078 5.468-27.302 8.481-41.998 8.481-14.693 0-28.913-3.012-41.988-8.477-1.773 14.175-6.281 28.113-13.688 40.939-7.375 12.782-17.178 23.717-28.625 32.385 11.446 8.668 21.252 19.603 28.631 32.387 7.396 12.811 11.904 26.724 13.684 40.868 13.088-5.472 27.322-8.49 42.037-8.49 14.689 0 28.905 3.014 41.973 8.473 1.778-14.145 6.285-28.058 13.682-40.864 7.37-12.779 17.176-23.719 28.622-32.389-11.446-8.67-21.252-19.607-28.631-32.391z" fill="none"/><path fill="#ED185E" d="M212.486 69.589c17.229 0 31.249-14.015 31.249-31.244 0-17.228-14.02-31.243-31.249-31.243-17.222 0-31.235 14.015-31.235 31.243-.001 17.229 14.013 31.244 31.235 31.244z"/><path fill="#ED185E" d="M170.498 139.22c13.075 5.465 27.295 8.477 41.988 8.477 14.696 0 28.92-3.014 41.998-8.481-2.125-16.971-.245-34.256 5.472-50.41-12.593 11.849-29.44 18.896-47.47 18.896-18.022 0-34.874-7.052-47.465-18.905 5.717 16.155 7.602 33.447 5.477 50.423z"/><path fill="#F7941E" d="M46.493 152.535c4.75 2.745 10.139 4.192 15.587 4.192 11.142 0 21.523-5.985 27.086-15.625 4.174-7.228 5.285-15.649 3.125-23.71-2.16-8.063-7.33-14.798-14.556-18.965-4.752-2.745-10.142-4.196-15.591-4.196-11.144 0-21.523 5.99-27.089 15.631-4.174 7.228-5.278 15.642-3.12 23.706 2.162 8.058 7.33 14.795 14.558 18.967z"/><path fill="#F7941E" d="M156.809 180.159c7.408-12.827 11.915-26.764 13.688-40.939-15.778-6.597-29.831-16.832-41.001-29.816 4.034 16.885 1.727 35.083-7.326 50.759-9.035 15.651-23.826 26.931-40.815 31.849 17.087 3.089 33.138 10.162 46.829 20.532 11.447-8.668 21.251-19.603 28.625-32.385z"/><path fill="#FCCD0B" d="M62.08 268.353c-5.448 0-10.837 1.453-15.587 4.191-14.918 8.614-20.047 27.764-11.431 42.69 5.563 9.628 15.938 15.611 27.082 15.611 5.449 0 10.839-1.449 15.589-4.191 7.228-4.17 12.397-10.904 14.558-18.968 2.16-8.059 1.054-16.474-3.118-23.705-5.568-9.637-15.952-15.628-27.093-15.628z"/><path fill="#FCCD0B" d="M170.5 285.799c-1.78-14.145-6.288-28.058-13.684-40.868-7.379-12.784-17.185-23.719-28.631-32.387-13.688 10.365-29.744 17.438-46.832 20.522 16.989 4.921 31.785 16.212 40.831 31.876 9.03 15.638 11.339 33.801 7.332 50.661 11.164-12.975 25.213-23.207 40.984-29.804z"/><path fill="#8DC63F" d="M212.513 355.414c-17.229 0-31.247 14.015-31.247 31.244s14.018 31.24 31.247 31.24c17.22 0 31.241-14.011 31.241-31.24s-14.021-31.244-31.241-31.244z"/><path fill="#8DC63F" d="M254.51 285.781c-13.068-5.459-27.284-8.473-41.973-8.473-14.715 0-28.949 3.019-42.037 8.49 2.136 16.963.267 34.245-5.432 50.39 12.591-11.842 29.434-18.887 47.458-18.887 17.989 0 34.818 7.036 47.407 18.865-5.694-16.148-7.565-33.422-5.423-50.385z"/><path fill="#00AEEF" d="M268.192 244.917c-7.396 12.807-11.903 26.72-13.682 40.864 15.762 6.588 29.805 16.812 40.966 29.773-3.991-16.852-1.68-35.01 7.353-50.647 9.032-15.656 23.826-26.929 40.82-31.85-17.092-3.089-33.143-10.157-46.834-20.529-11.447 8.67-21.253 19.61-28.623 32.389z"/><path fill="#00AEEF" d="M378.498 272.535c-4.748-2.738-10.135-4.188-15.58-4.188-11.148 0-21.523 5.987-27.09 15.62-4.178 7.232-5.279 15.655-3.125 23.715 2.166 8.059 7.33 14.797 14.559 18.967 4.752 2.743 10.139 4.191 15.59 4.191h.004c11.143 0 21.523-5.987 27.084-15.624 4.174-7.228 5.281-15.646 3.125-23.71-2.167-8.059-7.335-14.793-14.567-18.971z"/><path fill="#8151A1" d="M362.912 156.718h.006c5.439 0 10.828-1.449 15.58-4.192 7.232-4.174 12.4-10.911 14.566-18.972 2.156-8.057 1.049-16.476-3.129-23.704-5.566-9.642-15.941-15.627-27.09-15.627-5.449 0-10.836 1.452-15.584 4.19-7.229 4.176-12.393 10.911-14.562 18.969-2.156 8.062-1.049 16.476 3.121 23.699 5.565 9.645 15.95 15.637 27.092 15.637z"/><path fill="#8151A1" d="M254.484 139.215c1.777 14.167 6.289 28.098 13.699 40.922 7.379 12.784 17.185 23.721 28.631 32.392 13.687-10.368 29.733-17.438 46.821-20.525-16.99-4.921-31.783-16.211-40.824-31.872-9.046-15.66-11.354-33.854-7.317-50.739-11.17 12.988-25.226 23.223-41.01 29.822z"/><path fill="#D11F3D" d="M108.944 73.438c.269.803.512 1.647.798 2.434 4.57 12.509 11.364 23.777 19.754 33.532 11.17 12.984 25.224 23.219 41.001 29.816 2.125-16.976.24-34.268-5.477-50.423-4.247-12.008-10.552-23.399-19.002-33.512-.556-.662-1.176-1.305-1.753-1.958-1.672-2.809-3.928-5.172-6.621-6.883l-.751-.747c-2.998-1.616-6.354-2.472-9.744-2.472l-.275.02-.253-.02c-.371 0-.716.089-1.083.109-.496.027-.987.084-1.471.147-9.961 1.251-17.77 9.555-18.042 19.787.195.827.433 1.618.642 2.434.246 2.676.995 5.305 2.277 7.736z"/><path fill="#F58020" d="M81.355 192.012c-6.336-1.145-12.804-1.785-19.361-1.785-6.263 0-12.56.544-18.716 1.618l-1.094.229c-3.96-.191-7.819.789-11.168 2.709l-.607.165c-2.852 1.76-5.049 4.163-6.688 6.868l-.32.476-.151.329c-.491.891-.887 1.809-1.236 2.733-.145.398-.3.789-.422 1.196-.238.771-.396 1.554-.54 2.34-.1.547-.202 1.089-.256 1.645-.068.685-.071 1.369-.068 2.053.002.641.002 1.28.064 1.921.058.602.171 1.193.282 1.787.135.729.282 1.457.498 2.178.142.462.322.911.491 1.367.327.854.689 1.695 1.138 2.518l.193.427c.129.231.298.427.44.649 1.638 2.64 3.818 4.987 6.632 6.712l.553.151c3.323 1.894 7.163 2.867 11.117 2.697.36.071.731.165 1.089.228 6.172 1.084 12.491 1.631 18.774 1.631 6.552 0 13.018-.64 19.352-1.787 17.087-3.085 33.143-10.157 46.832-20.522-13.689-10.372-29.741-17.444-46.828-20.533z"/><path fill="#BBD532" d="M129.516 315.604c-8.384 9.743-15.171 20.994-19.745 33.489-.302.822-.562 1.721-.849 2.583-1.265 2.4-2 5.005-2.25 7.658-.211.827-.449 1.614-.645 2.454.287 10.006 7.792 18.185 17.46 19.679 1.203.218 2.42.369 3.665.369h.002c3.4 0 6.77-.858 9.777-2.485.349-.329.663-.667 1.004-.996 2.51-1.657 4.639-3.867 6.234-6.498.6-.676 1.243-1.343 1.813-2.027 8.497-10.148 14.827-21.585 19.083-33.641 5.699-16.145 7.568-33.427 5.432-50.39-15.768 6.597-29.817 16.829-40.981 29.805z"/><path fill="#1FB686" d="M316.132 351.773c-.293-.88-.556-1.787-.866-2.641-4.579-12.53-11.384-23.808-19.79-33.578-11.161-12.962-25.204-23.186-40.966-29.773-2.143 16.963-.271 34.236 5.423 50.386 4.245 12.05 10.562 23.475 19.043 33.618.587.702 1.258 1.396 1.876 2.098 1.591 2.596 3.702 4.787 6.183 6.433.365.351.693.706 1.067 1.058 3 1.622 6.352 2.476 9.743 2.476 1.267 0 2.512-.16 3.743-.387 9.654-1.524 17.127-9.712 17.389-19.728-.199-.871-.448-1.702-.671-2.556-.262-2.561-.969-5.076-2.174-7.406z"/><path fill="#B91E6A" d="M295.494 109.393c8.38-9.743 15.167-20.992 19.736-33.48.285-.789.534-1.638.81-2.451 1.289-2.447 2.045-5.097 2.293-7.792.205-.825.445-1.614.641-2.454-.293-10.237-8.152-18.538-18.141-19.745-.352-.042-.707-.082-1.071-.104-.462-.033-.907-.14-1.378-.14l-.329.024-.204-.013c-3.409 0-6.783.862-9.793 2.496-.253.238-.484.484-.733.729-2.676 1.702-4.921 4.054-6.587 6.845-.569.647-1.183 1.287-1.726 1.934-8.481 10.128-14.802 21.539-19.056 33.565-5.717 16.154-7.597 33.438-5.472 50.41 15.784-6.601 29.84-16.836 41.01-29.824z"/><path fill="#384CA0" d="M404.203 210.577c-.053-.604-.174-1.202-.283-1.802-.135-.729-.281-1.458-.504-2.181-.133-.453-.311-.891-.475-1.333-.334-.871-.703-1.733-1.164-2.574l-.18-.393-.404-.6c-1.639-2.663-3.83-5.03-6.662-6.761l-.551-.151c-3.344-1.916-7.189-2.894-11.123-2.707l-1.094-.229c-6.168-1.081-12.49-1.629-18.775-1.629-6.553 0-13.02.643-19.354 1.787-17.088 3.087-33.134 10.157-46.821 20.525 13.691 10.372 29.743 17.44 46.834 20.529 6.334 1.143 12.797 1.783 19.35 1.783 6.258 0 12.561-.543 18.713-1.618.348-.058.711-.151 1.059-.218 4 .199 7.885-.796 11.246-2.729l.568-.155c2.871-1.766 5.076-4.188 6.717-6.908l.293-.427.133-.298c.512-.916.916-1.862 1.277-2.818.133-.366.275-.729.391-1.104.248-.802.418-1.618.561-2.434.088-.521.191-1.033.244-1.561.07-.708.076-1.416.07-2.12-.003-.625-.003-1.247-.066-1.874z"/></g></svg>