<?xml version="1.0" encoding="utf-8"?>
<!-- Generator: Adobe Illustrator 15.0.0, SVG Export Plug-In . SVG Version: 6.00 Build 0)  -->
<!DOCTYPE svg PUBLIC "-//W3C//DTD SVG 1.1//EN" "http://www.w3.org/Graphics/SVG/1.1/DTD/svg11.dtd">
<svg version="1.1" id="Layer_1" xmlns="http://www.w3.org/2000/svg" xmlns:xlink="http://www.w3.org/1999/xlink" x="0px" y="0px"
	 width="300px" height="110px" viewBox="0 0 300 110" enable-background="new 0 0 300 110" xml:space="preserve">
<g>
	<path fill="#0B1332" d="M162.787,58.602c0,2.623-0.609,5.217-1.832,7.779c-1.221,2.562-2.932,4.734-5.133,6.512
		c-2.414,1.932-5.224,3.439-8.435,4.523c-3.212,1.086-7.08,1.629-11.604,1.629c-4.854,0-9.22-0.451-13.094-1.357
		c-3.875-0.904-7.818-2.246-11.828-4.025V62.445h0.633c3.407,2.834,7.344,5.02,11.807,6.559c4.461,1.537,8.652,2.307,12.573,2.307
		c5.549,0,9.868-1.039,12.96-3.121c3.089-2.08,4.634-4.855,4.634-8.322c0-2.984-0.73-5.186-2.192-6.604
		c-1.463-1.418-3.686-2.518-6.672-3.302c-2.262-0.603-4.711-1.101-7.35-1.493c-2.639-0.391-5.436-0.889-8.391-1.492
		c-5.971-1.266-10.396-3.43-13.275-6.49s-4.32-7.049-4.32-11.964c0-5.639,2.382-10.26,7.146-13.863
		c4.766-3.603,10.811-5.405,18.139-5.405c4.734,0,9.076,0.452,13.026,1.357c3.949,0.904,7.447,2.02,10.492,3.347v10.584h-0.633
		c-2.562-2.171-5.934-3.973-10.108-5.405c-4.176-1.432-8.451-2.148-12.822-2.148c-4.795,0-8.647,0.995-11.557,2.985
		c-2.91,1.989-4.365,4.554-4.365,7.689c0,2.804,0.724,5.005,2.171,6.604s3.996,2.82,7.644,3.664
		c1.931,0.423,4.675,0.935,8.232,1.538s6.574,1.221,9.047,1.854c5.005,1.328,8.774,3.333,11.308,6.017
		S162.787,53.776,162.787,58.602z"/>
	<path fill="#0B1332" d="M229.187,72.939c-1.66,0.723-3.16,1.4-4.502,2.035c-1.342,0.633-3.1,1.297-5.27,1.99
		c-1.84,0.572-3.838,1.062-5.994,1.471c-2.154,0.406-4.529,0.609-7.123,0.609c-4.885,0-9.324-0.686-13.318-2.057
		c-3.998-1.373-7.473-3.521-10.428-6.447c-2.895-2.863-5.156-6.504-6.785-10.922c-1.627-4.418-2.441-9.551-2.441-15.402
		c0-5.548,0.785-10.509,2.352-14.882c1.568-4.371,3.828-8.065,6.785-11.081c2.863-2.925,6.324-5.157,10.379-6.694
		c4.057-1.538,8.557-2.307,13.504-2.307c3.617,0,7.227,0.438,10.832,1.312c3.604,0.875,7.605,2.413,12.01,4.614v10.629h-0.68
		c-3.709-3.105-7.389-5.367-11.037-6.785c-3.648-1.417-7.555-2.126-11.715-2.126c-3.408,0-6.475,0.551-9.205,1.651
		c-2.729,1.102-5.162,2.812-7.303,5.134c-2.082,2.261-3.703,5.118-4.865,8.571c-1.158,3.453-1.738,7.44-1.738,11.964
		c0,4.734,0.639,8.805,1.92,12.212c1.281,3.408,2.934,6.182,4.953,8.322c2.111,2.232,4.578,3.883,7.396,4.953
		s5.797,1.605,8.934,1.605c4.311,0,8.352-0.738,12.121-2.217c3.77-1.477,7.297-3.693,10.586-6.648h0.633V72.939z"/>
	<path fill="#0B1332" d="M290.792,58.602c0,2.623-0.611,5.217-1.832,7.779c-1.223,2.562-2.934,4.734-5.135,6.512
		c-2.412,1.932-5.225,3.439-8.436,4.523c-3.211,1.086-7.08,1.629-11.604,1.629c-4.854,0-9.219-0.451-13.092-1.357
		c-3.877-0.904-7.82-2.246-11.83-4.025V62.445h0.633c3.408,2.834,7.344,5.02,11.807,6.559c4.463,1.537,8.654,2.307,12.574,2.307
		c5.547,0,9.867-1.039,12.959-3.121c3.09-2.08,4.635-4.855,4.635-8.322c0-2.984-0.73-5.186-2.193-6.604s-3.684-2.518-6.67-3.302
		c-2.262-0.603-4.713-1.101-7.35-1.493c-2.641-0.391-5.436-0.889-8.393-1.492c-5.969-1.266-10.395-3.43-13.275-6.49
		c-2.879-3.061-4.32-7.049-4.32-11.964c0-5.639,2.383-10.26,7.146-13.863c4.766-3.603,10.812-5.405,18.141-5.405
		c4.732,0,9.076,0.452,13.025,1.357c3.951,0.904,7.447,2.02,10.492,3.347v10.584h-0.633c-2.562-2.171-5.934-3.973-10.109-5.405
		c-4.176-1.432-8.449-2.148-12.822-2.148c-4.795,0-8.646,0.995-11.555,2.985c-2.91,1.989-4.367,4.554-4.367,7.689
		c0,2.804,0.723,5.005,2.172,6.604c1.447,1.599,3.996,2.82,7.643,3.664c1.932,0.423,4.676,0.935,8.234,1.538
		c3.557,0.604,6.572,1.221,9.045,1.854c5.006,1.328,8.775,3.333,11.309,6.017S290.792,53.776,290.792,58.602z"/>
</g>
<g>
	<path fill="#0B1332" d="M10.77,108.424v-1.367c0.156,0.139,0.344,0.262,0.562,0.373s0.449,0.203,0.69,0.279
		c0.242,0.076,0.485,0.135,0.729,0.176s0.469,0.062,0.677,0.062c0.713,0,1.246-0.133,1.598-0.396
		c0.352-0.266,0.528-0.646,0.528-1.145c0-0.266-0.059-0.498-0.176-0.695c-0.117-0.197-0.279-0.379-0.486-0.541
		c-0.208-0.164-0.452-0.32-0.735-0.471s-0.588-0.307-0.915-0.473c-0.345-0.176-0.668-0.352-0.967-0.531
		c-0.299-0.182-0.559-0.377-0.78-0.594c-0.221-0.217-0.395-0.463-0.521-0.736s-0.19-0.594-0.19-0.963
		c0-0.451,0.099-0.844,0.297-1.176c0.198-0.334,0.458-0.609,0.78-0.826c0.322-0.217,0.689-0.377,1.101-0.484
		c0.413-0.104,0.833-0.158,1.26-0.158c0.976,0,1.687,0.117,2.133,0.354v1.305c-0.584-0.406-1.334-0.609-2.251-0.609
		c-0.253,0-0.506,0.027-0.759,0.08c-0.253,0.053-0.479,0.141-0.677,0.26s-0.359,0.273-0.483,0.463
		c-0.125,0.189-0.187,0.418-0.187,0.689c0,0.254,0.047,0.473,0.142,0.656c0.094,0.184,0.233,0.352,0.417,0.504
		c0.184,0.152,0.409,0.299,0.673,0.441c0.265,0.143,0.569,0.301,0.915,0.469c0.355,0.176,0.69,0.359,1.008,0.555
		c0.317,0.191,0.596,0.406,0.835,0.641c0.239,0.234,0.429,0.494,0.569,0.781c0.141,0.285,0.211,0.611,0.211,0.98
		c0,0.486-0.096,0.9-0.287,1.238s-0.449,0.613-0.773,0.824c-0.324,0.211-0.698,0.365-1.122,0.459
		c-0.424,0.096-0.87,0.143-1.34,0.143c-0.156,0-0.35-0.014-0.58-0.039c-0.23-0.023-0.465-0.062-0.705-0.109
		c-0.239-0.049-0.466-0.109-0.68-0.18C11.07,108.59,10.899,108.512,10.77,108.424z"/>
	<path fill="#0B1332" d="M29.354,108.41c-0.732,0.387-1.643,0.58-2.734,0.58c-1.409,0-2.536-0.453-3.383-1.359
		c-0.847-0.908-1.271-2.098-1.271-3.57c0-1.582,0.477-2.863,1.429-3.838c0.953-0.977,2.161-1.465,3.625-1.465
		c0.938,0,1.717,0.137,2.333,0.408v1.236c-0.708-0.396-1.491-0.596-2.348-0.596c-1.136,0-2.058,0.381-2.765,1.141
		s-1.06,1.773-1.06,3.045c0,1.205,0.33,2.166,0.99,2.883c0.661,0.715,1.527,1.072,2.6,1.072c0.994,0,1.854-0.221,2.582-0.662V108.41
		z"/>
	<path fill="#0B1332" d="M42.685,108.824h-1.16v-4.516h-5.123v4.516h-1.16v-9.9h1.16v4.344h5.123v-4.344h1.16V108.824z"/>
	<path fill="#0B1332" d="M53.145,108.99c-1.404,0-2.528-0.463-3.373-1.389c-0.844-0.924-1.267-2.129-1.267-3.609
		c0-1.594,0.431-2.863,1.291-3.812c0.861-0.947,2.032-1.422,3.514-1.422c1.367,0,2.468,0.461,3.304,1.381
		c0.835,0.922,1.252,2.125,1.252,3.611c0,1.615-0.428,2.893-1.284,3.832C55.727,108.52,54.581,108.99,53.145,108.99z M53.228,99.807
		c-1.041,0-1.885,0.377-2.534,1.127s-0.973,1.734-0.973,2.953c0,1.221,0.316,2.201,0.949,2.945c0.632,0.744,1.458,1.115,2.475,1.115
		c1.086,0,1.942-0.355,2.568-1.062c0.625-0.709,0.939-1.701,0.939-2.977c0-1.307-0.304-2.316-0.912-3.031
		C55.133,100.164,54.295,99.807,53.228,99.807z"/>
	<path fill="#0B1332" d="M67.677,108.99c-1.404,0-2.528-0.463-3.373-1.389c-0.844-0.924-1.267-2.129-1.267-3.609
		c0-1.594,0.431-2.863,1.291-3.812c0.861-0.947,2.032-1.422,3.514-1.422c1.367,0,2.468,0.461,3.304,1.381
		c0.834,0.922,1.252,2.125,1.252,3.611c0,1.615-0.428,2.893-1.284,3.832C70.259,108.52,69.113,108.99,67.677,108.99z M67.76,99.807
		c-1.041,0-1.885,0.377-2.534,1.127s-0.973,1.734-0.973,2.953c0,1.221,0.316,2.201,0.949,2.945c0.632,0.744,1.458,1.115,2.475,1.115
		c1.086,0,1.942-0.355,2.568-1.062c0.625-0.709,0.939-1.701,0.939-2.977c0-1.307-0.304-2.316-0.912-3.031
		C69.665,100.164,68.828,99.807,67.76,99.807z"/>
	<path fill="#0B1332" d="M83.355,108.824h-5.136v-9.9h1.16v8.852h3.976V108.824z"/>
	<path fill="#0B1332" d="M103.231,108.41c-0.732,0.387-1.644,0.58-2.734,0.58c-1.408,0-2.536-0.453-3.383-1.359
		c-0.848-0.908-1.27-2.098-1.27-3.57c0-1.582,0.476-2.863,1.429-3.838c0.952-0.977,2.16-1.465,3.624-1.465
		c0.938,0,1.717,0.137,2.334,0.408v1.236c-0.709-0.396-1.492-0.596-2.348-0.596c-1.137,0-2.059,0.381-2.766,1.141
		c-0.706,0.76-1.059,1.773-1.059,3.045c0,1.205,0.33,2.166,0.99,2.883c0.66,0.715,1.527,1.072,2.6,1.072
		c0.994,0,1.854-0.221,2.582-0.662V108.41z"/>
	<path fill="#0B1332" d="M114.256,108.824h-5.137v-9.9h1.16v8.852h3.977V108.824z"/>
	<path fill="#0B1332" d="M120.807,108.824h-1.159v-9.9h1.159V108.824z"/>
	<path fill="#0B1332" d="M136.272,108.824h-1.152v-6.643c0-0.262,0.007-0.559,0.023-0.893c0.016-0.334,0.04-0.691,0.072-1.074
		h-0.027c-0.027,0.111-0.068,0.234-0.125,0.369c-0.055,0.137-0.113,0.268-0.176,0.395c-0.062,0.125-0.119,0.24-0.172,0.342
		s-0.092,0.178-0.114,0.227l-2.54,4.695h-0.566l-2.541-4.682c-0.022-0.055-0.062-0.135-0.117-0.236
		c-0.056-0.105-0.113-0.221-0.173-0.346c-0.06-0.127-0.116-0.258-0.169-0.391s-0.094-0.258-0.121-0.373h-0.027
		c0.018,0.197,0.032,0.465,0.041,0.801c0.01,0.336,0.014,0.73,0.014,1.182v6.627h-1.117v-9.9h1.449l2.568,4.709
		c0.109,0.207,0.205,0.4,0.283,0.58s0.135,0.336,0.172,0.469h0.041c0.047-0.139,0.107-0.299,0.184-0.482s0.174-0.383,0.293-0.594
		l2.562-4.682h1.437V108.824z"/>
	<path fill="#0B1332" d="M150.404,108.824h-1.284l-1.05-2.775h-4.197l-0.987,2.775h-1.291l3.797-9.9h1.201L150.404,108.824z
		 M147.69,105.006l-1.553-4.219c-0.051-0.137-0.102-0.357-0.152-0.662h-0.027c-0.046,0.281-0.1,0.502-0.159,0.662l-1.539,4.219
		H147.69z"/>
	<path fill="#0B1332" d="M161.587,99.973h-2.859v8.852h-1.16v-8.852h-2.85v-1.049h6.869V99.973z"/>
	<path fill="#0B1332" d="M172.259,108.824h-5.246v-9.9h5.025v1.049h-3.865v3.295h3.574v1.041h-3.574v3.467h4.086V108.824z"/>
	<path fill="#0B1332" d="M185.322,108.424v-1.367c0.154,0.139,0.342,0.262,0.562,0.373c0.219,0.111,0.449,0.203,0.689,0.279
		c0.242,0.076,0.484,0.135,0.729,0.176s0.469,0.062,0.678,0.062c0.713,0,1.246-0.133,1.598-0.396
		c0.352-0.266,0.527-0.646,0.527-1.145c0-0.266-0.059-0.498-0.176-0.695s-0.279-0.379-0.486-0.541
		c-0.209-0.164-0.451-0.32-0.734-0.471s-0.59-0.307-0.918-0.473c-0.344-0.176-0.666-0.352-0.965-0.531
		c-0.299-0.182-0.559-0.377-0.781-0.594c-0.221-0.217-0.393-0.463-0.52-0.736c-0.129-0.273-0.189-0.594-0.189-0.963
		c0-0.451,0.1-0.844,0.295-1.176c0.197-0.334,0.459-0.609,0.781-0.826s0.689-0.377,1.102-0.484c0.41-0.104,0.832-0.158,1.258-0.158
		c0.977,0,1.689,0.117,2.135,0.354v1.305c-0.584-0.406-1.336-0.609-2.252-0.609c-0.252,0-0.504,0.027-0.758,0.08
		c-0.252,0.053-0.479,0.141-0.676,0.26c-0.199,0.119-0.361,0.273-0.484,0.463c-0.125,0.189-0.186,0.418-0.186,0.689
		c0,0.254,0.047,0.473,0.141,0.656s0.232,0.352,0.418,0.504c0.184,0.152,0.408,0.299,0.674,0.441
		c0.264,0.143,0.568,0.301,0.914,0.469c0.354,0.176,0.689,0.359,1.006,0.555c0.32,0.191,0.598,0.406,0.838,0.641
		c0.238,0.234,0.43,0.494,0.568,0.781c0.143,0.285,0.211,0.611,0.211,0.98c0,0.486-0.096,0.9-0.287,1.238
		c-0.189,0.338-0.449,0.613-0.771,0.824c-0.326,0.211-0.699,0.365-1.121,0.459c-0.426,0.096-0.871,0.143-1.34,0.143
		c-0.156,0-0.352-0.014-0.58-0.039c-0.23-0.023-0.467-0.062-0.705-0.109c-0.24-0.049-0.465-0.109-0.68-0.18
		C185.621,108.59,185.451,108.512,185.322,108.424z"/>
	<path fill="#0B1332" d="M201.156,108.99c-1.402,0-2.527-0.463-3.371-1.389c-0.844-0.924-1.268-2.129-1.268-3.609
		c0-1.594,0.43-2.863,1.291-3.812c0.861-0.947,2.031-1.422,3.514-1.422c1.369,0,2.469,0.461,3.305,1.381
		c0.834,0.922,1.254,2.125,1.254,3.611c0,1.615-0.43,2.893-1.285,3.832C203.74,108.52,202.593,108.99,201.156,108.99z
		 M201.242,99.807c-1.041,0-1.887,0.377-2.535,1.127s-0.975,1.734-0.975,2.953c0,1.221,0.318,2.201,0.951,2.945
		s1.457,1.115,2.473,1.115c1.088,0,1.943-0.355,2.57-1.062c0.625-0.709,0.938-1.701,0.938-2.977c0-1.307-0.303-2.316-0.91-3.031
		C203.146,100.164,202.308,99.807,201.242,99.807z"/>
	<path fill="#0B1332" d="M216.835,108.824h-5.135v-9.9h1.16v8.852h3.975V108.824z"/>
	<path fill="#0B1332" d="M229.47,104.82c0,2.779-1.256,4.17-3.764,4.17c-2.402,0-3.602-1.338-3.602-4.012v-6.055h1.158v5.979
		c0,2.031,0.855,3.045,2.568,3.045c1.652,0,2.479-0.98,2.479-2.941v-6.082h1.16V104.82z"/>
	<path fill="#0B1332" d="M241.669,99.973h-2.859v8.852h-1.16v-8.852h-2.852v-1.049h6.871V99.973z"/>
	<path fill="#0B1332" d="M248.255,108.824h-1.16v-9.9h1.16V108.824z"/>
	<path fill="#0B1332" d="M258.72,108.99c-1.404,0-2.529-0.463-3.371-1.389c-0.846-0.924-1.27-2.129-1.27-3.609
		c0-1.594,0.432-2.863,1.293-3.812c0.861-0.947,2.031-1.422,3.514-1.422c1.367,0,2.469,0.461,3.303,1.381
		c0.836,0.922,1.252,2.125,1.252,3.611c0,1.615-0.426,2.893-1.283,3.832C261.302,108.52,260.158,108.99,258.72,108.99z
		 M258.802,99.807c-1.039,0-1.883,0.377-2.533,1.127c-0.648,0.75-0.975,1.734-0.975,2.953c0,1.221,0.316,2.201,0.949,2.945
		c0.635,0.744,1.459,1.115,2.477,1.115c1.086,0,1.941-0.355,2.568-1.062c0.627-0.709,0.938-1.701,0.938-2.977
		c0-1.307-0.303-2.316-0.908-3.031C260.708,100.164,259.873,99.807,258.802,99.807z"/>
	<path fill="#0B1332" d="M277.244,108.824h-1.424l-5.094-7.891c-0.129-0.199-0.236-0.406-0.316-0.621h-0.043
		c0.035,0.211,0.055,0.664,0.055,1.359v7.152h-1.158v-9.9h1.504l4.955,7.768c0.209,0.32,0.342,0.543,0.4,0.662h0.029
		c-0.047-0.285-0.068-0.77-0.068-1.457v-6.973h1.16V108.824z"/>
	<path fill="#0B1332" d="M283.25,108.424v-1.367c0.154,0.139,0.344,0.262,0.562,0.373s0.449,0.203,0.689,0.279
		c0.242,0.076,0.486,0.135,0.729,0.176c0.244,0.041,0.469,0.062,0.678,0.062c0.713,0,1.246-0.133,1.598-0.396
		c0.352-0.266,0.527-0.646,0.527-1.145c0-0.266-0.059-0.498-0.176-0.695s-0.279-0.379-0.486-0.541
		c-0.209-0.164-0.451-0.32-0.734-0.471s-0.59-0.307-0.916-0.473c-0.346-0.176-0.666-0.352-0.965-0.531
		c-0.299-0.182-0.561-0.377-0.781-0.594c-0.223-0.217-0.395-0.463-0.521-0.736s-0.189-0.594-0.189-0.963
		c0-0.451,0.1-0.844,0.297-1.176c0.197-0.334,0.457-0.609,0.781-0.826c0.32-0.217,0.688-0.377,1.1-0.484
		c0.412-0.104,0.832-0.158,1.26-0.158c0.975,0,1.688,0.117,2.133,0.354v1.305c-0.584-0.406-1.334-0.609-2.25-0.609
		c-0.254,0-0.506,0.027-0.76,0.08c-0.252,0.053-0.479,0.141-0.676,0.26c-0.199,0.119-0.359,0.273-0.484,0.463
		c-0.123,0.189-0.186,0.418-0.186,0.689c0,0.254,0.047,0.473,0.141,0.656s0.232,0.352,0.42,0.504
		c0.184,0.152,0.406,0.299,0.672,0.441c0.264,0.143,0.568,0.301,0.914,0.469c0.354,0.176,0.691,0.359,1.008,0.555
		c0.318,0.191,0.598,0.406,0.836,0.641s0.43,0.494,0.568,0.781c0.143,0.285,0.211,0.611,0.211,0.98c0,0.486-0.096,0.9-0.285,1.238
		c-0.191,0.338-0.449,0.613-0.773,0.824s-0.699,0.365-1.121,0.459c-0.426,0.096-0.871,0.143-1.34,0.143
		c-0.156,0-0.352-0.014-0.58-0.039c-0.23-0.023-0.467-0.062-0.705-0.109c-0.24-0.049-0.465-0.109-0.68-0.18
		C283.548,108.59,283.378,108.512,283.25,108.424z"/>
</g>
<path fill="none" d="M63.571,39.025c-1.627-2.817-2.619-5.878-3.009-8.99c-2.873,1.201-5.998,1.863-9.227,1.863
	c-3.228,0-6.352-0.662-9.225-1.862c-0.39,3.114-1.38,6.176-3.007,8.994c-1.62,2.808-3.774,5.21-6.289,7.115
	c2.515,1.904,4.669,4.307,6.29,7.115c1.625,2.815,2.615,5.872,3.006,8.979c2.875-1.202,6.002-1.865,9.235-1.865
	c3.227,0,6.35,0.662,9.221,1.861c0.392-3.107,1.381-6.164,3.006-8.978c1.62-2.808,3.774-5.211,6.289-7.116
	C67.347,44.236,65.193,41.833,63.571,39.025z"/>
<path fill="#ED185E" d="M51.335,14.738c3.786,0,6.865-3.079,6.865-6.864c0-3.785-3.08-6.864-6.865-6.864
	c-3.784,0-6.862,3.079-6.862,6.864C44.473,11.659,47.552,14.738,51.335,14.738z"/>
<path fill="#ED185E" d="M42.111,30.036c2.873,1.201,5.997,1.862,9.225,1.862c3.229,0,6.354-0.662,9.227-1.863
	c-0.468-3.729-0.054-7.526,1.202-11.075c-2.766,2.603-6.467,4.151-10.429,4.151c-3.959,0-7.662-1.549-10.428-4.153
	C42.164,22.507,42.578,26.306,42.111,30.036z"/>
<path fill="#F7941E" d="M14.868,32.961c1.043,0.603,2.228,0.921,3.424,0.921c2.448,0,4.729-1.315,5.951-3.433
	c0.917-1.588,1.161-3.438,0.687-5.209c-0.475-1.771-1.61-3.251-3.198-4.167c-1.044-0.603-2.228-0.922-3.425-0.922
	c-2.448,0-4.729,1.316-5.951,3.434c-0.917,1.588-1.16,3.437-0.686,5.208C12.145,30.564,13.28,32.044,14.868,32.961z"/>
<path fill="#F7941E" d="M39.104,39.03c1.627-2.818,2.618-5.88,3.007-8.994c-3.466-1.449-6.554-3.698-9.008-6.55
	c0.886,3.709,0.379,7.708-1.609,11.151c-1.985,3.438-5.234,5.917-8.967,6.997c3.754,0.679,7.28,2.232,10.288,4.511
	C35.33,44.24,37.483,41.838,39.104,39.03z"/>
<path fill="#FCCD0B" d="M18.292,58.405c-1.197,0-2.381,0.319-3.424,0.921c-3.277,1.893-4.404,6.1-2.511,9.379
	c1.222,2.115,3.501,3.43,5.95,3.43c1.197,0,2.381-0.318,3.425-0.921c1.588-0.916,2.724-2.396,3.198-4.167
	c0.475-1.771,0.231-3.619-0.685-5.208C23.021,59.722,20.74,58.405,18.292,58.405z"/>
<path fill="#FCCD0B" d="M42.111,62.238c-0.391-3.107-1.381-6.164-3.006-8.979c-1.621-2.808-3.775-5.211-6.29-7.115
	c-3.007,2.278-6.535,3.831-10.289,4.509c3.732,1.082,6.983,3.561,8.97,7.003c1.984,3.436,2.491,7.426,1.611,11.13
	C35.56,65.936,38.646,63.688,42.111,62.238z"/>
<path fill="#8DC63F" d="M51.341,77.532c-3.785,0-6.865,3.079-6.865,6.864s3.08,6.863,6.865,6.863c3.784,0,6.863-3.078,6.863-6.863
	S55.125,77.532,51.341,77.532z"/>
<path fill="#8DC63F" d="M60.567,62.234c-2.871-1.199-5.994-1.861-9.221-1.861c-3.233,0-6.36,0.663-9.235,1.865
	c0.469,3.727,0.059,7.523-1.193,11.07c2.766-2.602,6.466-4.149,10.426-4.149c3.953,0,7.649,1.546,10.415,4.145
	C60.508,69.756,60.098,65.961,60.567,62.234z"/>
<path fill="#00AEEF" d="M63.573,53.257c-1.625,2.813-2.614,5.87-3.006,8.978c3.463,1.447,6.548,3.693,9.001,6.541
	c-0.878-3.702-0.369-7.691,1.615-11.127c1.984-3.439,5.234-5.917,8.967-6.997c-3.754-0.678-7.281-2.231-10.289-4.51
	C67.347,48.046,65.193,50.449,63.573,53.257z"/>
<path fill="#00AEEF" d="M87.807,59.324c-1.043-0.602-2.227-0.92-3.423-0.92c-2.449,0-4.729,1.315-5.951,3.432
	c-0.917,1.589-1.161,3.439-0.687,5.21c0.475,1.771,1.61,3.251,3.199,4.167c1.043,0.603,2.227,0.921,3.424,0.921h0
	c2.449,0,4.729-1.315,5.951-3.433c0.917-1.588,1.16-3.438,0.686-5.209C90.532,61.722,89.396,60.242,87.807,59.324z"/>
<path fill="#8151A1" d="M84.383,33.88L84.383,33.88c1.197,0,2.38-0.318,3.424-0.921c1.589-0.917,2.725-2.397,3.2-4.168
	c0.474-1.77,0.23-3.62-0.688-5.208c-1.222-2.118-3.502-3.433-5.951-3.433c-1.197,0-2.381,0.319-3.423,0.92
	c-1.588,0.917-2.724,2.397-3.199,4.167c-0.474,1.771-0.231,3.62,0.686,5.207C79.654,32.563,81.935,33.88,84.383,33.88z"/>
<path fill="#8151A1" d="M60.562,30.035c0.39,3.112,1.381,6.173,3.009,8.99c1.622,2.809,3.776,5.211,6.291,7.116
	c3.007-2.278,6.533-3.831,10.286-4.509c-3.732-1.081-6.982-3.562-8.969-7.002c-1.987-3.44-2.494-7.438-1.607-11.147
	C67.118,26.336,64.03,28.585,60.562,30.035z"/>
<path fill="#D11F3D" d="M28.588,15.584c0.059,0.176,0.112,0.362,0.175,0.535c1.004,2.748,2.497,5.224,4.34,7.367
	c2.454,2.853,5.542,5.101,9.008,6.55c0.467-3.729,0.053-7.528-1.203-11.078c-0.933-2.638-2.318-5.141-4.175-7.362
	c-0.122-0.146-0.258-0.287-0.385-0.43c-0.367-0.617-0.863-1.136-1.455-1.512c-0.058-0.055-0.106-0.109-0.165-0.164
	c-0.659-0.355-1.396-0.543-2.141-0.543c-0.021,0-0.041,0.004-0.061,0.004c-0.019,0-0.037-0.004-0.056-0.004
	c-0.082,0-0.157,0.02-0.238,0.024c-0.109,0.006-0.217,0.019-0.323,0.032c-2.188,0.275-3.904,2.099-3.964,4.347
	c0.043,0.182,0.095,0.355,0.141,0.535C28.142,14.472,28.306,15.05,28.588,15.584z"/>
<path fill="#F58020" d="M22.527,41.634c-1.392-0.251-2.813-0.392-4.253-0.392c-1.376,0-2.759,0.12-4.112,0.355
	c-0.078,0.014-0.162,0.035-0.24,0.05c-0.87-0.042-1.718,0.173-2.454,0.595c-0.045,0.013-0.088,0.022-0.133,0.036
	c-0.626,0.387-1.109,0.915-1.469,1.509c-0.022,0.035-0.049,0.068-0.07,0.104c-0.014,0.023-0.02,0.048-0.033,0.072
	c-0.108,0.196-0.195,0.397-0.271,0.601c-0.032,0.087-0.066,0.173-0.093,0.263c-0.052,0.169-0.087,0.341-0.119,0.514
	c-0.022,0.12-0.044,0.239-0.056,0.361c-0.015,0.15-0.016,0.301-0.015,0.451c0,0.141,0,0.281,0.014,0.422
	c0.013,0.132,0.038,0.262,0.062,0.393c0.03,0.16,0.062,0.32,0.109,0.479c0.031,0.102,0.071,0.2,0.108,0.3
	c0.072,0.188,0.151,0.373,0.25,0.554c0.017,0.03,0.024,0.063,0.042,0.094c0.028,0.05,0.065,0.093,0.097,0.142
	c0.36,0.581,0.839,1.095,1.457,1.475c0.04,0.012,0.081,0.021,0.122,0.033c0.73,0.417,1.574,0.63,2.442,0.593
	c0.079,0.016,0.161,0.036,0.239,0.05c1.356,0.238,2.744,0.358,4.125,0.358c1.439,0,2.86-0.141,4.251-0.393
	c3.754-0.678,7.281-2.231,10.289-4.509C29.807,43.866,26.281,42.312,22.527,41.634z"/>
<path fill="#BBD532" d="M33.107,68.786c-1.842,2.141-3.333,4.612-4.338,7.357c-0.066,0.181-0.124,0.378-0.187,0.567
	c-0.278,0.527-0.439,1.1-0.494,1.683c-0.046,0.182-0.099,0.354-0.142,0.539c0.063,2.198,1.712,3.995,3.836,4.323
	c0.264,0.048,0.532,0.081,0.805,0.081h0c0.747,0,1.487-0.188,2.148-0.546c0.077-0.072,0.146-0.146,0.221-0.219
	c0.551-0.364,1.019-0.85,1.37-1.428c0.132-0.148,0.273-0.295,0.398-0.445c1.867-2.229,3.257-4.742,4.192-7.391
	c1.252-3.547,1.663-7.344,1.193-11.07C38.646,63.688,35.56,65.936,33.107,68.786z"/>
<path fill="#1FB686" d="M74.106,76.732c-0.064-0.193-0.122-0.393-0.19-0.58c-1.006-2.753-2.501-5.23-4.347-7.377
	c-2.453-2.848-5.538-5.094-9.001-6.541c-0.47,3.727-0.059,7.521,1.191,11.069c0.933,2.647,2.321,5.157,4.185,7.386
	c0.129,0.154,0.276,0.307,0.412,0.461c0.349,0.57,0.813,1.052,1.358,1.413c0.08,0.077,0.152,0.155,0.234,0.232
	c0.659,0.356,1.396,0.544,2.141,0.544c0.279,0,0.552-0.035,0.822-0.085c2.121-0.335,3.763-2.134,3.82-4.334
	c-0.044-0.191-0.099-0.374-0.147-0.562C74.526,77.797,74.371,77.244,74.106,76.732z"/>
<path fill="#B91E6A" d="M69.572,23.483c1.841-2.141,3.332-4.612,4.336-7.355c0.063-0.173,0.117-0.36,0.177-0.539
	c0.284-0.538,0.45-1.12,0.504-1.712c0.046-0.181,0.098-0.354,0.141-0.539C74.665,11.089,72.939,9.265,70.745,9
	c-0.078-0.009-0.156-0.018-0.235-0.023c-0.102-0.007-0.2-0.031-0.303-0.031c-0.024,0-0.047,0.005-0.072,0.005
	c-0.016,0-0.03-0.003-0.046-0.003c-0.749,0-1.49,0.189-2.151,0.548c-0.056,0.052-0.106,0.106-0.161,0.16
	c-0.588,0.374-1.081,0.891-1.447,1.504c-0.125,0.142-0.26,0.283-0.379,0.425c-1.863,2.225-3.252,4.732-4.186,7.374
	c-1.256,3.549-1.669,7.346-1.202,11.075C64.03,28.585,67.118,26.336,69.572,23.483z"/>
<path fill="#384CA0" d="M93.455,45.712c-0.012-0.133-0.038-0.264-0.062-0.396c-0.03-0.16-0.062-0.32-0.111-0.479
	c-0.029-0.1-0.068-0.196-0.104-0.293c-0.073-0.191-0.154-0.381-0.255-0.565c-0.016-0.028-0.023-0.059-0.04-0.086
	c-0.027-0.046-0.061-0.087-0.089-0.132c-0.36-0.585-0.842-1.105-1.464-1.485c-0.04-0.012-0.08-0.021-0.121-0.033
	c-0.733-0.421-1.579-0.636-2.443-0.595c-0.08-0.015-0.162-0.036-0.241-0.05c-1.355-0.237-2.744-0.358-4.124-0.358
	c-1.44,0-2.861,0.141-4.252,0.393c-3.753,0.678-7.279,2.231-10.286,4.509c3.008,2.279,6.535,3.832,10.289,4.51
	c1.391,0.251,2.811,0.392,4.25,0.392h0c1.375,0,2.759-0.12,4.112-0.355c0.076-0.013,0.155-0.034,0.232-0.048
	c0.879,0.044,1.732-0.174,2.471-0.6c0.042-0.012,0.082-0.021,0.125-0.034c0.63-0.388,1.115-0.919,1.475-1.517
	c0.021-0.033,0.045-0.061,0.064-0.095c0.012-0.021,0.018-0.044,0.029-0.065c0.112-0.201,0.201-0.409,0.28-0.619
	c0.03-0.081,0.062-0.16,0.086-0.243c0.055-0.176,0.091-0.355,0.123-0.535c0.02-0.114,0.042-0.227,0.054-0.343
	c0.016-0.156,0.016-0.311,0.016-0.466C93.468,45.987,93.468,45.85,93.455,45.712z"/>
</svg>
