<svg xmlns="http://www.w3.org/2000/svg" width="300" height="110"><g fill="#0B1332"><path d="M162.787 58.602c0 2.623-.609 5.217-1.832 7.779-1.221 2.562-2.932 4.734-5.133 6.512-2.414 1.932-5.224 3.439-8.435 4.523-3.212 1.086-7.08 1.629-11.604 1.629-4.854 0-9.22-.451-13.094-1.357-3.875-.904-7.818-2.246-11.828-4.025v-11.218h.633c3.407 2.834 7.344 5.02 11.807 6.559 4.461 1.537 8.652 2.307 12.573 2.307 5.549 0 9.868-1.039 12.96-3.121 3.089-2.08 4.634-4.855 4.634-8.322 0-2.984-.73-5.186-2.192-6.604-1.463-1.418-3.686-2.518-6.672-3.302-2.262-.603-4.711-1.101-7.35-1.493-2.639-.391-5.436-.889-8.391-1.492-5.971-1.266-10.396-3.43-13.275-6.49s-4.32-7.049-4.32-11.964c0-5.639 2.382-10.26 7.146-13.863 4.766-3.603 10.811-5.405 18.139-5.405 4.734 0 9.076.452 13.026 1.357 3.949.904 7.447 2.02 10.492 3.347v10.584h-.633c-2.562-2.171-5.934-3.973-10.108-5.405-4.176-1.432-8.451-2.148-12.822-2.148-4.795 0-8.647.995-11.557 2.985-2.91 1.989-4.365 4.554-4.365 7.689 0 2.804.724 5.005 2.171 6.604s3.996 2.82 7.644 3.664c1.931.423 4.675.935 8.232 1.538s6.574 1.221 9.047 1.854c5.005 1.328 8.774 3.333 11.308 6.017s3.799 6.435 3.799 11.261zM229.187 72.939c-1.66.723-3.16 1.4-4.502 2.035-1.342.633-3.1 1.297-5.27 1.99-1.84.572-3.838 1.062-5.994 1.471-2.154.406-4.529.609-7.123.609-4.885 0-9.324-.686-13.318-2.057-3.998-1.373-7.473-3.521-10.428-6.447-2.895-2.863-5.156-6.504-6.785-10.922-1.627-4.418-2.441-9.551-2.441-15.402 0-5.548.785-10.509 2.352-14.882 1.568-4.371 3.828-8.065 6.785-11.081 2.863-2.925 6.324-5.157 10.379-6.694 4.057-1.538 8.557-2.307 13.504-2.307 3.617 0 7.227.438 10.832 1.312 3.604.875 7.605 2.413 12.01 4.614v10.629h-.68c-3.709-3.105-7.389-5.367-11.037-6.785-3.648-1.417-7.555-2.126-11.715-2.126-3.408 0-6.475.551-9.205 1.651-2.729 1.102-5.162 2.812-7.303 5.134-2.082 2.261-3.703 5.118-4.865 8.571-1.158 3.453-1.738 7.44-1.738 11.964 0 4.734.639 8.805 1.92 12.212 1.281 3.408 2.934 6.182 4.953 8.322 2.111 2.232 4.578 3.883 7.396 4.953s5.797 1.605 8.934 1.605c4.311 0 8.352-.738 12.121-2.217 3.77-1.477 7.297-3.693 10.586-6.648h.633v10.496zM290.792 58.602c0 2.623-.611 5.217-1.832 7.779-1.223 2.562-2.934 4.734-5.135 6.512-2.412 1.932-5.225 3.439-8.436 4.523-3.211 1.086-7.08 1.629-11.604 1.629-4.854 0-9.219-.451-13.092-1.357-3.877-.904-7.82-2.246-11.83-4.025v-11.218h.633c3.408 2.834 7.344 5.02 11.807 6.559 4.463 1.537 8.654 2.307 12.574 2.307 5.547 0 9.867-1.039 12.959-3.121 3.09-2.08 4.635-4.855 4.635-8.322 0-2.984-.73-5.186-2.193-6.604s-3.684-2.518-6.67-3.302c-2.262-.603-4.713-1.101-7.35-1.493-2.641-.391-5.436-.889-8.393-1.492-5.969-1.266-10.395-3.43-13.275-6.49-2.879-3.061-4.32-7.049-4.32-11.964 0-5.639 2.383-10.26 7.146-13.863 4.766-3.603 10.812-5.405 18.141-5.405 4.732 0 9.076.452 13.025 1.357 3.951.904 7.447 2.02 10.492 3.347v10.584h-.633c-2.562-2.171-5.934-3.973-10.109-5.405-4.176-1.432-8.449-2.148-12.822-2.148-4.795 0-8.646.995-11.555 2.985-2.91 1.989-4.367 4.554-4.367 7.689 0 2.804.723 5.005 2.172 6.604 1.447 1.599 3.996 2.82 7.643 3.664 1.932.423 4.676.935 8.234 1.538 3.557.604 6.572 1.221 9.045 1.854 5.006 1.328 8.775 3.333 11.309 6.017s3.801 6.435 3.801 11.261z"/></g><g fill="#0B1332"><path d="M10.77 108.424v-1.367c.156.139.344.262.562.373s.449.203.69.279c.242.076.485.135.729.176s.469.062.677.062c.713 0 1.246-.133 1.598-.396.352-.266.528-.646.528-1.145 0-.266-.059-.498-.176-.695-.117-.197-.279-.379-.486-.541-.208-.164-.452-.32-.735-.471l-.915-.473c-.345-.176-.668-.352-.967-.531-.299-.182-.559-.377-.78-.594-.221-.217-.395-.463-.521-.736s-.19-.594-.19-.963c0-.451.099-.844.297-1.176.198-.334.458-.609.78-.826.322-.217.689-.377 1.101-.484.413-.104.833-.158 1.26-.158.976 0 1.687.117 2.133.354v1.305c-.584-.406-1.334-.609-2.251-.609-.253 0-.506.027-.759.08-.253.053-.479.141-.677.26s-.359.273-.483.463c-.125.189-.187.418-.187.689 0 .254.047.473.142.656.094.184.233.352.417.504.184.152.409.299.673.441.265.143.569.301.915.469.355.176.69.359 1.008.555.317.191.596.406.835.641.239.234.429.494.569.781.141.285.211.611.211.98 0 .486-.096.9-.287 1.238s-.449.613-.773.824c-.324.211-.698.365-1.122.459-.424.096-.87.143-1.34.143-.156 0-.35-.014-.58-.039-.23-.023-.465-.062-.705-.109-.239-.049-.466-.109-.68-.18-.211-.073-.382-.151-.511-.239zM29.354 108.41c-.732.387-1.643.58-2.734.58-1.409 0-2.536-.453-3.383-1.359-.847-.908-1.271-2.098-1.271-3.57 0-1.582.477-2.863 1.429-3.838.953-.977 2.161-1.465 3.625-1.465.938 0 1.717.137 2.333.408v1.236c-.708-.396-1.491-.596-2.348-.596-1.136 0-2.058.381-2.765 1.141s-1.06 1.773-1.06 3.045c0 1.205.33 2.166.99 2.883.661.715 1.527 1.072 2.6 1.072.994 0 1.854-.221 2.582-.662v1.125zM42.685 108.824h-1.16v-4.516h-5.123v4.516h-1.16v-9.9h1.16v4.344h5.123v-4.344h1.16v9.9zM53.145 108.99c-1.404 0-2.528-.463-3.373-1.389-.844-.924-1.267-2.129-1.267-3.609 0-1.594.431-2.863 1.291-3.812.861-.947 2.032-1.422 3.514-1.422 1.367 0 2.468.461 3.304 1.381.835.922 1.252 2.125 1.252 3.611 0 1.615-.428 2.893-1.284 3.832-.855.938-2.001 1.408-3.437 1.408zm.083-9.183c-1.041 0-1.885.377-2.534 1.127s-.973 1.734-.973 2.953c0 1.221.316 2.201.949 2.945.632.744 1.458 1.115 2.475 1.115 1.086 0 1.942-.355 2.568-1.062.625-.709.939-1.701.939-2.977 0-1.307-.304-2.316-.912-3.031-.607-.713-1.445-1.07-2.512-1.07zM67.677 108.99c-1.404 0-2.528-.463-3.373-1.389-.844-.924-1.267-2.129-1.267-3.609 0-1.594.431-2.863 1.291-3.812.861-.947 2.032-1.422 3.514-1.422 1.367 0 2.468.461 3.304 1.381.834.922 1.252 2.125 1.252 3.611 0 1.615-.428 2.893-1.284 3.832-.855.938-2.001 1.408-3.437 1.408zm.083-9.183c-1.041 0-1.885.377-2.534 1.127s-.973 1.734-.973 2.953c0 1.221.316 2.201.949 2.945.632.744 1.458 1.115 2.475 1.115 1.086 0 1.942-.355 2.568-1.062.625-.709.939-1.701.939-2.977 0-1.307-.304-2.316-.912-3.031-.607-.713-1.444-1.07-2.512-1.07zM83.355 108.824h-5.136v-9.9h1.16v8.852h3.976v1.048zM103.231 108.41c-.732.387-1.644.58-2.734.58-1.408 0-2.536-.453-3.383-1.359-.848-.908-1.27-2.098-1.27-3.57 0-1.582.476-2.863 1.429-3.838.952-.977 2.16-1.465 3.624-1.465.938 0 1.717.137 2.334.408v1.236c-.709-.396-1.492-.596-2.348-.596-1.137 0-2.059.381-2.766 1.141-.706.76-1.059 1.773-1.059 3.045 0 1.205.33 2.166.99 2.883.66.715 1.527 1.072 2.6 1.072.994 0 1.854-.221 2.582-.662v1.125zM114.256 108.824h-5.137v-9.9h1.16v8.852h3.977v1.048zM120.807 108.824h-1.159v-9.9h1.159v9.9zM136.272 108.824h-1.152v-6.643c0-.262.007-.559.023-.893.016-.334.04-.691.072-1.074h-.027c-.027.111-.068.234-.125.369l-.176.395-.172.342-.114.227-2.54 4.695h-.566l-2.541-4.682-.117-.236-.173-.346-.169-.391-.121-.373h-.027c.018.197.032.465.041.801.01.336.014.73.014 1.182v6.627h-1.117v-9.9h1.449l2.568 4.709c.109.207.205.4.283.58s.135.336.172.469h.041l.184-.482s.174-.383.293-.594l2.562-4.682h1.437v9.9zM150.404 108.824h-1.284l-1.05-2.775h-4.197l-.987 2.775h-1.291l3.797-9.9h1.201l3.811 9.9zm-2.714-3.818l-1.553-4.219c-.051-.137-.102-.357-.152-.662h-.027c-.046.281-.1.502-.159.662l-1.539 4.219h3.43zM161.587 99.973h-2.859v8.852h-1.16v-8.852h-2.85v-1.049h6.869v1.049zM172.259 108.824h-5.246v-9.9h5.025v1.049h-3.865v3.295h3.574v1.041h-3.574v3.467h4.086v1.048zM185.322 108.424v-1.367c.154.139.342.262.562.373.219.111.449.203.689.279.242.076.484.135.729.176s.469.062.678.062c.713 0 1.246-.133 1.598-.396.352-.266.527-.646.527-1.145 0-.266-.059-.498-.176-.695s-.279-.379-.486-.541c-.209-.164-.451-.32-.734-.471l-.918-.473c-.344-.176-.666-.352-.965-.531-.299-.182-.559-.377-.781-.594-.221-.217-.393-.463-.52-.736-.129-.273-.189-.594-.189-.963 0-.451.1-.844.295-1.176.197-.334.459-.609.781-.826s.689-.377 1.102-.484c.41-.104.832-.158 1.258-.158.977 0 1.689.117 2.135.354v1.305c-.584-.406-1.336-.609-2.252-.609-.252 0-.504.027-.758.08-.252.053-.479.141-.676.26-.199.119-.361.273-.484.463-.125.189-.186.418-.186.689 0 .254.047.473.141.656s.232.352.418.504c.184.152.408.299.674.441.264.143.568.301.914.469.354.176.689.359 1.006.555.32.191.598.406.838.641.238.234.43.494.568.781.143.285.211.611.211.98 0 .486-.096.9-.287 1.238-.189.338-.449.613-.771.824-.326.211-.699.365-1.121.459-.426.096-.871.143-1.34.143-.156 0-.352-.014-.58-.039-.23-.023-.467-.062-.705-.109-.24-.049-.465-.109-.68-.18-.216-.073-.386-.151-.515-.239zM201.156 108.99c-1.402 0-2.527-.463-3.371-1.389-.844-.924-1.268-2.129-1.268-3.609 0-1.594.43-2.863 1.291-3.812.861-.947 2.031-1.422 3.514-1.422 1.369 0 2.469.461 3.305 1.381.834.922 1.254 2.125 1.254 3.611 0 1.615-.43 2.893-1.285 3.832-.856.938-2.003 1.408-3.44 1.408zm.086-9.183c-1.041 0-1.887.377-2.535 1.127s-.975 1.734-.975 2.953c0 1.221.318 2.201.951 2.945s1.457 1.115 2.473 1.115c1.088 0 1.943-.355 2.57-1.062.625-.709.938-1.701.938-2.977 0-1.307-.303-2.316-.91-3.031-.608-.713-1.446-1.07-2.512-1.07zM216.835 108.824h-5.135v-9.9h1.16v8.852h3.975v1.048zM229.47 104.82c0 2.779-1.256 4.17-3.764 4.17-2.402 0-3.602-1.338-3.602-4.012v-6.055h1.158v5.979c0 2.031.855 3.045 2.568 3.045 1.652 0 2.479-.98 2.479-2.941v-6.082h1.16v5.896zM241.669 99.973h-2.859v8.852h-1.16v-8.852h-2.852v-1.049h6.871v1.049zM248.255 108.824h-1.16v-9.9h1.16v9.9zM258.72 108.99c-1.404 0-2.529-.463-3.371-1.389-.846-.924-1.27-2.129-1.27-3.609 0-1.594.432-2.863 1.293-3.812.861-.947 2.031-1.422 3.514-1.422 1.367 0 2.469.461 3.303 1.381.836.922 1.252 2.125 1.252 3.611 0 1.615-.426 2.893-1.283 3.832-.856.938-2 1.408-3.438 1.408zm.082-9.183c-1.039 0-1.883.377-2.533 1.127-.648.75-.975 1.734-.975 2.953 0 1.221.316 2.201.949 2.945.635.744 1.459 1.115 2.477 1.115 1.086 0 1.941-.355 2.568-1.062.627-.709.938-1.701.938-2.977 0-1.307-.303-2.316-.908-3.031-.61-.713-1.445-1.07-2.516-1.07zM277.244 108.824h-1.424l-5.094-7.891c-.129-.199-.236-.406-.316-.621h-.043c.035.211.055.664.055 1.359v7.152h-1.158v-9.9h1.504l4.955 7.768c.209.32.342.543.4.662h.029c-.047-.285-.068-.77-.068-1.457v-6.973h1.16v9.901zM283.25 108.424v-1.367c.154.139.344.262.562.373s.449.203.689.279c.242.076.486.135.729.176.244.041.469.062.678.062.713 0 1.246-.133 1.598-.396.352-.266.527-.646.527-1.145 0-.266-.059-.498-.176-.695s-.279-.379-.486-.541c-.209-.164-.451-.32-.734-.471l-.916-.473c-.346-.176-.666-.352-.965-.531-.299-.182-.561-.377-.781-.594-.223-.217-.395-.463-.521-.736s-.189-.594-.189-.963c0-.451.1-.844.297-1.176.197-.334.457-.609.781-.826.32-.217.688-.377 1.1-.484.412-.104.832-.158 1.26-.158.975 0 1.688.117 2.133.354v1.305c-.584-.406-1.334-.609-2.25-.609-.254 0-.506.027-.76.08-.252.053-.479.141-.676.26-.199.119-.359.273-.484.463-.123.189-.186.418-.186.689 0 .254.047.473.141.656s.232.352.42.504c.184.152.406.299.672.441.264.143.568.301.914.469.354.176.691.359 1.008.555.318.191.598.406.836.641s.43.494.568.781c.143.285.211.611.211.98 0 .486-.096.9-.285 1.238-.191.338-.449.613-.773.824s-.699.365-1.121.459c-.426.096-.871.143-1.34.143-.156 0-.352-.014-.58-.039-.23-.023-.467-.062-.705-.109-.24-.049-.465-.109-.68-.18-.218-.073-.388-.151-.516-.239z"/></g><path d="M63.571 39.025c-1.627-2.817-2.619-5.878-3.009-8.99-2.873 1.201-5.998 1.863-9.227 1.863-3.228 0-6.352-.662-9.225-1.862-.39 3.114-1.38 6.176-3.007 8.994-1.62 2.808-3.774 5.21-6.289 7.115 2.515 1.904 4.669 4.307 6.29 7.115 1.625 2.815 2.615 5.872 3.006 8.979 2.875-1.202 6.002-1.865 9.235-1.865 3.227 0 6.35.662 9.221 1.861.392-3.107 1.381-6.164 3.006-8.978 1.62-2.808 3.774-5.211 6.289-7.116-2.514-1.905-4.668-4.308-6.29-7.116z" fill="none"/><path fill="#ED185E" d="M51.335 14.738c3.786 0 6.865-3.079 6.865-6.864 0-3.785-3.08-6.864-6.865-6.864-3.784 0-6.862 3.079-6.862 6.864 0 3.785 3.079 6.864 6.862 6.864z"/><path fill="#ED185E" d="M42.111 30.036c2.873 1.201 5.997 1.862 9.225 1.862 3.229 0 6.354-.662 9.227-1.863-.468-3.729-.054-7.526 1.202-11.075-2.766 2.603-6.467 4.151-10.429 4.151-3.959 0-7.662-1.549-10.428-4.153 1.256 3.549 1.67 7.348 1.203 11.078z"/><path fill="#F7941E" d="M14.868 32.961c1.043.603 2.228.921 3.424.921 2.448 0 4.729-1.315 5.951-3.433.917-1.588 1.161-3.438.687-5.209-.475-1.771-1.61-3.251-3.198-4.167-1.044-.603-2.228-.922-3.425-.922-2.448 0-4.729 1.316-5.951 3.434-.917 1.588-1.16 3.437-.686 5.208.475 1.771 1.61 3.251 3.198 4.168z"/><path fill="#F7941E" d="M39.104 39.03c1.627-2.818 2.618-5.88 3.007-8.994-3.466-1.449-6.554-3.698-9.008-6.55.886 3.709.379 7.708-1.609 11.151-1.985 3.438-5.234 5.917-8.967 6.997 3.754.679 7.28 2.232 10.288 4.511 2.515-1.905 4.668-4.307 6.289-7.115z"/><path fill="#FCCD0B" d="M18.292 58.405c-1.197 0-2.381.319-3.424.921-3.277 1.893-4.404 6.1-2.511 9.379 1.222 2.115 3.501 3.43 5.95 3.43 1.197 0 2.381-.318 3.425-.921 1.588-.916 2.724-2.396 3.198-4.167.475-1.771.231-3.619-.685-5.208-1.224-2.117-3.505-3.434-5.953-3.434z"/><path fill="#FCCD0B" d="M42.111 62.238c-.391-3.107-1.381-6.164-3.006-8.979-1.621-2.808-3.775-5.211-6.29-7.115-3.007 2.278-6.535 3.831-10.289 4.509 3.732 1.082 6.983 3.561 8.97 7.003 1.984 3.436 2.491 7.426 1.611 11.13 2.453-2.85 5.539-5.098 9.004-6.548z"/><path fill="#8DC63F" d="M51.341 77.532c-3.785 0-6.865 3.079-6.865 6.864s3.08 6.863 6.865 6.863c3.784 0 6.863-3.078 6.863-6.863s-3.079-6.864-6.863-6.864z"/><path fill="#8DC63F" d="M60.567 62.234c-2.871-1.199-5.994-1.861-9.221-1.861-3.233 0-6.36.663-9.235 1.865.469 3.727.059 7.523-1.193 11.07 2.766-2.602 6.466-4.149 10.426-4.149 3.953 0 7.649 1.546 10.415 4.145-1.251-3.548-1.661-7.343-1.192-11.07z"/><path fill="#00AEEF" d="M63.573 53.257c-1.625 2.813-2.614 5.87-3.006 8.978 3.463 1.447 6.548 3.693 9.001 6.541-.878-3.702-.369-7.691 1.615-11.127 1.984-3.439 5.234-5.917 8.967-6.997-3.754-.678-7.281-2.231-10.289-4.51-2.514 1.904-4.668 4.307-6.288 7.115z"/><path fill="#00AEEF" d="M87.807 59.324c-1.043-.602-2.227-.92-3.423-.92-2.449 0-4.729 1.315-5.951 3.432-.917 1.589-1.161 3.439-.687 5.21.475 1.771 1.61 3.251 3.199 4.167 1.043.603 2.227.921 3.424.921 2.449 0 4.729-1.315 5.951-3.433.917-1.588 1.16-3.438.686-5.209-.474-1.77-1.61-3.25-3.199-4.168z"/><path fill="#8151A1" d="M84.383 33.88c1.197 0 2.38-.318 3.424-.921 1.589-.917 2.725-2.397 3.2-4.168.474-1.77.23-3.62-.688-5.208-1.222-2.118-3.502-3.433-5.951-3.433-1.197 0-2.381.319-3.423.92-1.588.917-2.724 2.397-3.199 4.167-.474 1.771-.231 3.62.686 5.207 1.222 2.119 3.503 3.436 5.951 3.436z"/><path fill="#8151A1" d="M60.562 30.035c.39 3.112 1.381 6.173 3.009 8.99 1.622 2.809 3.776 5.211 6.291 7.116 3.007-2.278 6.533-3.831 10.286-4.509-3.732-1.081-6.982-3.562-8.969-7.002-1.987-3.44-2.494-7.438-1.607-11.147-2.454 2.853-5.542 5.102-9.01 6.552z"/><path fill="#D11F3D" d="M28.588 15.584l.175.535c1.004 2.748 2.497 5.224 4.34 7.367 2.454 2.853 5.542 5.101 9.008 6.55.467-3.729.053-7.528-1.203-11.078-.933-2.638-2.318-5.141-4.175-7.362l-.385-.43c-.367-.617-.863-1.136-1.455-1.512l-.165-.164c-.659-.355-1.396-.543-2.141-.543l-.061.004-.056-.004-.238.024-.323.032c-2.188.275-3.904 2.099-3.964 4.347l.141.535c.056.587.22 1.165.502 1.699z"/><path fill="#F58020" d="M22.527 41.634c-1.392-.251-2.813-.392-4.253-.392-1.376 0-2.759.12-4.112.355l-.24.05c-.87-.042-1.718.173-2.454.595l-.133.036c-.626.387-1.109.915-1.469 1.509l-.07.104-.033.072c-.108.196-.195.397-.271.601l-.093.263c-.052.169-.087.341-.119.514l-.056.361-.015.451.014.422.062.393c.03.16.062.32.109.479l.108.3c.072.188.151.373.25.554l.042.094.097.142c.36.581.839 1.095 1.457 1.475l.122.033c.73.417 1.574.63 2.442.593l.239.05c1.356.238 2.744.358 4.125.358 1.439 0 2.86-.141 4.251-.393 3.754-.678 7.281-2.231 10.289-4.509-3.009-2.278-6.535-3.832-10.289-4.51z"/><path fill="#BBD532" d="M33.107 68.786c-1.842 2.141-3.333 4.612-4.338 7.357l-.187.567c-.278.527-.439 1.1-.494 1.683l-.142.539c.063 2.198 1.712 3.995 3.836 4.323.264.048.532.081.805.081.747 0 1.487-.188 2.148-.546l.221-.219c.551-.364 1.019-.85 1.37-1.428l.398-.445c1.867-2.229 3.257-4.742 4.192-7.391 1.252-3.547 1.663-7.344 1.193-11.07-3.463 1.451-6.549 3.699-9.002 6.549z"/><path fill="#1FB686" d="M74.106 76.732l-.19-.58c-1.006-2.753-2.501-5.23-4.347-7.377-2.453-2.848-5.538-5.094-9.001-6.541-.47 3.727-.059 7.521 1.191 11.069.933 2.647 2.321 5.157 4.185 7.386l.412.461c.349.57.813 1.052 1.358 1.413l.234.232c.659.356 1.396.544 2.141.544.279 0 .552-.035.822-.085 2.121-.335 3.763-2.134 3.82-4.334l-.147-.562c-.058-.561-.213-1.114-.478-1.626z"/><path fill="#B91E6A" d="M69.572 23.483c1.841-2.141 3.332-4.612 4.336-7.355l.177-.539c.284-.538.45-1.12.504-1.712l.141-.539c-.065-2.249-1.791-4.073-3.985-4.338l-.235-.023-.303-.031-.072.005-.046-.003c-.749 0-1.49.189-2.151.548l-.161.16c-.588.374-1.081.891-1.447 1.504l-.379.425c-1.863 2.225-3.252 4.732-4.186 7.374-1.256 3.549-1.669 7.346-1.202 11.075 3.467-1.449 6.555-3.698 9.009-6.551z"/><path fill="#384CA0" d="M93.455 45.712l-.062-.396c-.03-.16-.062-.32-.111-.479l-.104-.293c-.073-.191-.154-.381-.255-.565l-.04-.086-.089-.132c-.36-.585-.842-1.105-1.464-1.485l-.121-.033c-.733-.421-1.579-.636-2.443-.595l-.241-.05c-1.355-.237-2.744-.358-4.124-.358-1.44 0-2.861.141-4.252.393-3.753.678-7.279 2.231-10.286 4.509 3.008 2.279 6.535 3.832 10.289 4.51 1.391.251 2.811.392 4.25.392 1.375 0 2.759-.12 4.112-.355l.232-.048c.879.044 1.732-.174 2.471-.6l.125-.034c.63-.388 1.115-.919 1.475-1.517l.064-.095.029-.065c.112-.201.201-.409.28-.619l.086-.243c.055-.176.091-.355.123-.535l.054-.343.016-.466-.014-.412z"/></svg>