<?xml version="1.0" encoding="utf-8"?>
<!-- Generator: Adobe Illustrator 15.0.0, SVG Export Plug-In . SVG Version: 6.00 Build 0)  -->
<!DOCTYPE svg PUBLIC "-//W3C//DTD SVG 1.1//EN" "http://www.w3.org/Graphics/SVG/1.1/DTD/svg11.dtd">
<svg version="1.1" id="Layer_1" xmlns="http://www.w3.org/2000/svg" xmlns:xlink="http://www.w3.org/1999/xlink" x="0px" y="0px"
	 width="425px" height="425px" viewBox="0 0 425 425" enable-background="new 0 0 425 425" xml:space="preserve">
<g opacity="0.1">
	<path fill="none" d="M268.183,180.137c-7.41-12.824-11.922-26.755-13.699-40.922c-13.078,5.468-27.302,8.481-41.998,8.481
		c-14.693,0-28.913-3.012-41.988-8.477c-1.773,14.175-6.281,28.113-13.688,40.939c-7.375,12.782-17.178,23.717-28.625,32.385
		c11.446,8.668,21.252,19.603,28.631,32.387c7.396,12.811,11.904,26.724,13.684,40.868c13.088-5.472,27.322-8.49,42.037-8.49
		c14.689,0,28.905,3.014,41.973,8.473c1.778-14.145,6.285-28.058,13.682-40.864c7.37-12.779,17.176-23.719,28.622-32.389
		C285.368,203.858,275.562,192.921,268.183,180.137z"/>
	<path fill="#ED185E" d="M212.486,69.589c17.229,0,31.249-14.015,31.249-31.244c0-17.228-14.02-31.243-31.249-31.243
		c-17.222,0-31.235,14.015-31.235,31.243C181.25,55.574,195.264,69.589,212.486,69.589z"/>
	<path fill="#ED185E" d="M170.498,139.22c13.075,5.465,27.295,8.477,41.988,8.477c14.696,0,28.92-3.014,41.998-8.481
		c-2.125-16.971-0.245-34.256,5.472-50.41c-12.593,11.849-29.44,18.896-47.47,18.896c-18.022,0-34.874-7.052-47.465-18.905
		C170.738,104.952,172.623,122.244,170.498,139.22z"/>
	<path fill="#F7941E" d="M46.493,152.535c4.75,2.745,10.139,4.192,15.587,4.192c11.142,0,21.523-5.985,27.086-15.625
		c4.174-7.228,5.285-15.649,3.125-23.71c-2.16-8.063-7.33-14.798-14.556-18.965c-4.752-2.745-10.142-4.196-15.591-4.196
		c-11.144,0-21.523,5.99-27.089,15.631c-4.174,7.228-5.278,15.642-3.12,23.706C34.097,141.626,39.265,148.363,46.493,152.535z"/>
	<path fill="#F7941E" d="M156.809,180.159c7.408-12.827,11.915-26.764,13.688-40.939c-15.778-6.597-29.831-16.832-41.001-29.816
		c4.034,16.885,1.727,35.083-7.326,50.759c-9.035,15.651-23.826,26.931-40.815,31.849c17.087,3.089,33.138,10.162,46.829,20.532
		C139.631,203.876,149.435,192.941,156.809,180.159z"/>
	<path fill="#FCCD0B" d="M62.08,268.353c-5.448,0-10.837,1.453-15.587,4.191c-14.918,8.614-20.047,27.764-11.431,42.69
		c5.563,9.628,15.938,15.611,27.082,15.611c5.449,0,10.839-1.449,15.589-4.191c7.228-4.17,12.397-10.904,14.558-18.968
		c2.16-8.059,1.054-16.474-3.118-23.705C83.605,274.344,73.221,268.353,62.08,268.353z"/>
	<path fill="#FCCD0B" d="M170.5,285.799c-1.78-14.145-6.288-28.058-13.684-40.868c-7.379-12.784-17.185-23.719-28.631-32.387
		c-13.688,10.365-29.744,17.438-46.832,20.522c16.989,4.921,31.785,16.212,40.831,31.876c9.03,15.638,11.339,33.801,7.332,50.661
		C140.68,302.628,154.729,292.396,170.5,285.799z"/>
	<path fill="#8DC63F" d="M212.513,355.414c-17.229,0-31.247,14.015-31.247,31.244s14.018,31.24,31.247,31.24
		c17.22,0,31.241-14.011,31.241-31.24S229.733,355.414,212.513,355.414z"/>
	<path fill="#8DC63F" d="M254.51,285.781c-13.068-5.459-27.284-8.473-41.973-8.473c-14.715,0-28.949,3.019-42.037,8.49
		c2.136,16.963,0.267,34.245-5.432,50.39c12.591-11.842,29.434-18.887,47.458-18.887c17.989,0,34.818,7.036,47.407,18.865
		C254.239,320.018,252.368,302.744,254.51,285.781z"/>
	<path fill="#00AEEF" d="M268.192,244.917c-7.396,12.807-11.903,26.72-13.682,40.864c15.762,6.588,29.805,16.812,40.966,29.773
		c-3.991-16.852-1.68-35.01,7.353-50.647c9.032-15.656,23.826-26.929,40.82-31.85c-17.092-3.089-33.143-10.157-46.834-20.529
		C285.368,221.198,275.562,232.138,268.192,244.917z"/>
	<path fill="#00AEEF" d="M378.498,272.535c-4.748-2.738-10.135-4.188-15.58-4.188c-11.148,0-21.523,5.987-27.09,15.62
		c-4.178,7.232-5.279,15.655-3.125,23.715c2.166,8.059,7.33,14.797,14.559,18.967c4.752,2.743,10.139,4.191,15.59,4.191h0.004
		c11.143,0,21.523-5.987,27.084-15.624c4.174-7.228,5.281-15.646,3.125-23.71C390.898,283.447,385.73,276.713,378.498,272.535z"/>
	<path fill="#8151A1" d="M362.912,156.718h0.006c5.439,0,10.828-1.449,15.58-4.192c7.232-4.174,12.4-10.911,14.566-18.972
		c2.156-8.057,1.049-16.476-3.129-23.704c-5.566-9.642-15.941-15.627-27.09-15.627c-5.449,0-10.836,1.452-15.584,4.19
		c-7.229,4.176-12.393,10.911-14.562,18.969c-2.156,8.062-1.049,16.476,3.121,23.699
		C341.385,150.726,351.77,156.718,362.912,156.718z"/>
	<path fill="#8151A1" d="M254.484,139.215c1.777,14.167,6.289,28.098,13.699,40.922c7.379,12.784,17.185,23.721,28.631,32.392
		c13.687-10.368,29.733-17.438,46.821-20.525c-16.99-4.921-31.783-16.211-40.824-31.872c-9.046-15.66-11.354-33.854-7.317-50.739
		C284.324,122.381,270.268,132.616,254.484,139.215z"/>
	<path fill="#D11F3D" d="M108.944,73.438c0.269,0.803,0.512,1.647,0.798,2.434c4.57,12.509,11.364,23.777,19.754,33.532
		c11.17,12.984,25.224,23.219,41.001,29.816c2.125-16.976,0.24-34.268-5.477-50.423c-4.247-12.008-10.552-23.399-19.002-33.512
		c-0.556-0.662-1.176-1.305-1.753-1.958c-1.672-2.809-3.928-5.172-6.621-6.883c-0.263-0.251-0.484-0.496-0.751-0.747
		c-2.998-1.616-6.354-2.472-9.744-2.472c-0.093,0-0.185,0.018-0.275,0.02c-0.084-0.002-0.169-0.02-0.253-0.02
		c-0.371,0-0.716,0.089-1.083,0.109c-0.496,0.027-0.987,0.084-1.471,0.147c-9.961,1.251-17.77,9.555-18.042,19.787
		c0.195,0.827,0.433,1.618,0.642,2.434C106.913,68.378,107.662,71.007,108.944,73.438z"/>
	<path fill="#F58020" d="M81.355,192.012c-6.336-1.145-12.804-1.785-19.361-1.785c-6.263,0-12.56,0.544-18.716,1.618
		c-0.355,0.062-0.736,0.16-1.094,0.229c-3.96-0.191-7.819,0.789-11.168,2.709c-0.205,0.06-0.402,0.103-0.607,0.165
		c-2.852,1.76-5.049,4.163-6.688,6.868c-0.1,0.16-0.225,0.309-0.32,0.476c-0.064,0.106-0.091,0.22-0.151,0.329
		c-0.491,0.891-0.887,1.809-1.236,2.733c-0.145,0.398-0.3,0.789-0.422,1.196c-0.238,0.771-0.396,1.554-0.54,2.34
		c-0.1,0.547-0.202,1.089-0.256,1.645c-0.068,0.685-0.071,1.369-0.068,2.053c0.002,0.641,0.002,1.28,0.064,1.921
		c0.058,0.602,0.171,1.193,0.282,1.787c0.135,0.729,0.282,1.457,0.498,2.178c0.142,0.462,0.322,0.911,0.491,1.367
		c0.327,0.854,0.689,1.695,1.138,2.518c0.075,0.138,0.111,0.289,0.193,0.427c0.129,0.231,0.298,0.427,0.44,0.649
		c1.638,2.64,3.818,4.987,6.632,6.712c0.182,0.054,0.366,0.093,0.553,0.151c3.323,1.894,7.163,2.867,11.117,2.697
		c0.36,0.071,0.731,0.165,1.089,0.228c6.172,1.084,12.491,1.631,18.774,1.631c6.552,0,13.018-0.64,19.352-1.787
		c17.087-3.085,33.143-10.157,46.832-20.522C114.494,202.173,98.442,195.101,81.355,192.012z"/>
	<path fill="#BBD532" d="M129.516,315.604c-8.384,9.743-15.171,20.994-19.745,33.489c-0.302,0.822-0.562,1.721-0.849,2.583
		c-1.265,2.4-2,5.005-2.25,7.658c-0.211,0.827-0.449,1.614-0.645,2.454c0.287,10.006,7.792,18.185,17.46,19.679
		c1.203,0.218,2.42,0.369,3.665,0.369h0.002c3.4,0,6.77-0.858,9.777-2.485c0.349-0.329,0.663-0.667,1.004-0.996
		c2.51-1.657,4.639-3.867,6.234-6.498c0.6-0.676,1.243-1.343,1.813-2.027c8.497-10.148,14.827-21.585,19.083-33.641
		c5.699-16.145,7.568-33.427,5.432-50.39C154.729,292.396,140.68,302.628,129.516,315.604z"/>
	<path fill="#1FB686" d="M316.132,351.773c-0.293-0.88-0.556-1.787-0.866-2.641c-4.579-12.53-11.384-23.808-19.79-33.578
		c-11.161-12.962-25.204-23.186-40.966-29.773c-2.143,16.963-0.271,34.236,5.423,50.386c4.245,12.05,10.562,23.475,19.043,33.618
		c0.587,0.702,1.258,1.396,1.876,2.098c1.591,2.596,3.702,4.787,6.183,6.433c0.365,0.351,0.693,0.706,1.067,1.058
		c3,1.622,6.352,2.476,9.743,2.476c1.267,0,2.512-0.16,3.743-0.387c9.654-1.524,17.127-9.712,17.389-19.728
		c-0.199-0.871-0.448-1.702-0.671-2.556C318.044,356.618,317.337,354.103,316.132,351.773z"/>
	<path fill="#B91E6A" d="M295.494,109.393c8.38-9.743,15.167-20.992,19.736-33.48c0.285-0.789,0.534-1.638,0.81-2.451
		c1.289-2.447,2.045-5.097,2.293-7.792c0.205-0.825,0.445-1.614,0.641-2.454c-0.293-10.237-8.152-18.538-18.141-19.745
		c-0.352-0.042-0.707-0.082-1.071-0.104c-0.462-0.033-0.907-0.14-1.378-0.14c-0.111,0-0.213,0.022-0.329,0.024
		c-0.071,0-0.133-0.013-0.204-0.013c-3.409,0-6.783,0.862-9.793,2.496c-0.253,0.238-0.484,0.484-0.733,0.729
		c-2.676,1.702-4.921,4.054-6.587,6.845c-0.569,0.647-1.183,1.287-1.726,1.934c-8.481,10.128-14.802,21.539-19.056,33.565
		c-5.717,16.154-7.597,33.438-5.472,50.41C270.268,132.616,284.324,122.381,295.494,109.393z"/>
	<path fill="#384CA0" d="M404.203,210.577c-0.053-0.604-0.174-1.202-0.283-1.802c-0.135-0.729-0.281-1.458-0.504-2.181
		c-0.133-0.453-0.311-0.891-0.475-1.333c-0.334-0.871-0.703-1.733-1.164-2.574c-0.072-0.126-0.107-0.267-0.18-0.393
		c-0.123-0.211-0.275-0.396-0.404-0.6c-1.639-2.663-3.83-5.03-6.662-6.761c-0.188-0.056-0.365-0.095-0.551-0.151
		c-3.344-1.916-7.189-2.894-11.123-2.707c-0.363-0.069-0.736-0.165-1.094-0.229c-6.168-1.081-12.49-1.629-18.775-1.629
		c-6.553,0-13.02,0.643-19.354,1.787c-17.088,3.087-33.134,10.157-46.821,20.525c13.691,10.372,29.743,17.44,46.834,20.529
		c6.334,1.143,12.797,1.783,19.35,1.783l0,0c6.258,0,12.561-0.543,18.713-1.618c0.348-0.058,0.711-0.151,1.059-0.218
		c4,0.199,7.885-0.796,11.246-2.729c0.195-0.058,0.373-0.094,0.568-0.155c2.871-1.766,5.076-4.188,6.717-6.908
		c0.094-0.146,0.205-0.275,0.293-0.427c0.055-0.098,0.08-0.204,0.133-0.298c0.512-0.916,0.916-1.862,1.277-2.818
		c0.133-0.366,0.275-0.729,0.391-1.104c0.248-0.802,0.418-1.618,0.561-2.434c0.088-0.521,0.191-1.033,0.244-1.561
		c0.07-0.708,0.076-1.416,0.07-2.12C404.266,211.826,404.266,211.204,404.203,210.577z"/>
</g>
</svg>
