<svg xmlns="http://www.w3.org/2000/svg" width="164.525" height="29.996"><g fill="#5E5E5E"><path d="M5.894 22.489l-2.343 3.278h12.026l8.618 4.266-2.616-4.266h15.227l-2.344-3.278 4.84 1.448v-20.373l-4.84 1.579 2.344-2.94h-33.255l2.343 2.94-4.894-1.579v20.373m16.842-2.6h-10.637v-15.043h11.382c-3.441.811-6.012 3.906-6.012 7.591 0 3.497 2.314 6.465 5.492 7.451h-.225zm-4.549-7.451c0-3.781 3.076-6.858 6.858-6.858s6.858 3.077 6.858 6.858c0 3.782-3.077 6.858-6.858 6.858s-6.858-3.076-6.858-6.858m9.19 7.451h-.023c3.177-.986 5.491-3.954 5.491-7.451 0-3.686-2.57-6.78-6.012-7.591h11.209999999999999v15.042"/><path d="M11.9 13.886c0-2.826 1.375-5.366 3.565-6.915h-7.358v13.69h7.167c-2.089-1.565-3.374-4.041-3.374-6.775"/><path d="M28.65 13.886c0 2.734-1.285 5.21-3.374 6.775h7.167v-13.69h-7.359c2.191 1.549 3.566 4.089 3.566 6.915"/></g><path fill="#5E5E5E" d="M40.886 3.563h9.84v2.895h-3.328v17.364h-3.184v-17.364h-3.328v-2.895z"/><path fill="#5E5E5E" d="M55.064 12.102h4.37v2.894h-4.37v5.933h5.499v2.894h-8.683v-20.26h8.683v2.895h-5.499v5.644z"/><path fill="#5E5E5E" d="M61.979 3.563h3.184v17.365h5.238v2.894h-8.422v-20.259z"/><path fill="#5E5E5E" d="M71.555 3.563h3.184v17.365h5.238v2.894h-8.422v-20.259z"/><path fill="#5E5E5E" d="M81.129 3.563h3.185v20.259h-3.185v-20.259z"/><path fill="#5E5E5E" d="M88.81 9.149v14.673h-2.865v-20.259h3.994l3.27 12.126v-12.126h2.836v20.259h-3.27l-3.965-14.673z"/><path fill="#5E5E5E" d="M102.583 12.535h4.457v6.425c0 3.242-1.621 5.094-4.746 5.094-3.127 0-4.746-1.852-4.746-5.094v-10.534c0-3.241 1.619-5.094 4.746-5.094 3.125 0 4.746 1.853 4.746 5.094v1.968h-3.01v-2.17c0-1.447-.637-1.997-1.65-1.997-1.012 0-1.648.55-1.648 1.997v10.94c0 1.446.637 1.968 1.648 1.968 1.014 0 1.65-.521 1.65-1.968v-3.734h-1.447v-2.895z"/><path fill="#C44343" d="M114.495 3.332c3.098 0 4.689 1.853 4.689 5.094v.637h-3.01v-.84c0-1.447-.58-1.997-1.592-1.997-1.014 0-1.592.55-1.592 1.997 0 4.167 6.223 4.949 6.223 10.737 0 3.242-1.621 5.094-4.748 5.094-3.125 0-4.746-1.852-4.746-5.094v-1.244h3.01v1.447c0 1.446.637 1.968 1.65 1.968s1.65-.521 1.65-1.968c0-4.167-6.223-4.949-6.223-10.737.002-3.241 1.594-5.094 4.689-5.094z"/><path fill="#C44343" d="M120.05 3.563h9.84v2.895h-3.328v17.364h-3.184v-17.364h-3.328v-2.895z"/><path fill="#C44343" d="M130.847 8.426c0-3.241 1.709-5.094 4.834-5.094s4.834 1.853 4.834 5.094v10.534c0 3.242-1.709 5.094-4.834 5.094s-4.834-1.852-4.834-5.094v-10.534zm3.184 10.737c0 1.446.637 1.997 1.65 1.997s1.65-.551 1.65-1.997v-10.94c0-1.447-.637-1.997-1.65-1.997s-1.65.55-1.65 1.997v10.94z"/><path fill="#C44343" d="M148.685 23.822c-.174-.521-.289-.839-.289-2.489v-3.183c0-1.882-.637-2.576-2.084-2.576h-1.1v8.248h-3.184v-20.259h4.803c3.301 0 4.719 1.534 4.719 4.66v1.592c0 2.083-.666 3.444-2.084 4.109 1.592.666 2.113 2.2 2.113 4.313v3.125c0 .984.027 1.708.346 2.46h-3.24zm-3.473-17.364v6.222h1.244c1.186 0 1.91-.521 1.91-2.142v-1.996c0-1.447-.492-2.083-1.621-2.083h-1.533z"/><path fill="#C44343" d="M156.109 17.108l-4.023-13.545h3.328l2.432 9.232 2.432-9.232h3.037l-4.021 13.545v6.714h-3.184v-6.714z"/><polygon fill="#C44343" points="17.349,9.763 24.611,13.955 17.349,18.146"/></svg>