<svg xmlns="http://www.w3.org/2000/svg" viewBox="0 0 424.3 100.6" enable-background="new 0 0 424.3 100.6"><style type="text/css">.st0{fill:#0C234B;} .st1{fill:#FFFFFF;} .st2{fill:#AB0520;}</style><path class="st0" d="M121.5 43.6c0 1.6.1 2.9.4 3.7.3.8.8 1.5 1.5 2.1h-8.8c.7-.6 1.2-1.3 1.5-2.1.3-.8.4-2 .4-3.7v-23.2h-2.6c-1.8 0-3.2.1-4.3.4-1.1.3-2 .7-2.6 1.4l1.6-5.3h22.9l-1.5 5.2c-.5-.6-1.1-1-1.9-1.3-.8-.3-1.8-.4-2.9-.4h-3.6v23.2h-.1z"/><path class="st0" d="M138.9 44.2c0 1.5.1 2.5.4 3.3.3.7.7 1.3 1.3 1.9h-7.8c.6-.6 1-1.2 1.3-1.9.3-.7.4-1.8.4-3.3v-18.8c0-1.5-.1-2.5-.4-3.2-.3-.7-.7-1.3-1.3-1.9h7.8c-.6.5-1 1.2-1.3 1.9-.2.7-.4 1.8-.4 3.2v6.6h15.4v-6.5c0-1.5-.1-2.5-.4-3.2-.3-.7-.7-1.3-1.3-1.9h7.8c-.6.5-1 1.2-1.3 1.9-.3.7-.4 1.8-.4 3.2v18.8c0 1.5.1 2.5.4 3.3.3.7.7 1.3 1.3 1.9h-7.8c.6-.6 1-1.2 1.3-1.9.3-.7.4-1.8.4-3.3v-8.9h-15.4v8.8z"/><path class="st0" d="M164.2 49.4c.6-.6 1-1.2 1.3-1.9.3-.7.4-1.8.4-3.3v-18.7c0-1.5-.1-2.6-.4-3.3-.3-.7-.7-1.3-1.3-1.9h15.7v4.6c-.7-.6-1.5-1-2.3-1.2-.8-.3-1.8-.4-2.9-.4-.6 0-1.2 0-1.9.1s-1.5.2-2.4.4v8.2h7v4.2c-.3-.4-.8-.7-1.3-.8-.6-.2-1.6-.2-3.1-.2h-2.6v10.4c1.1.2 2.1.3 2.9.4.9.1 1.6.1 2.3.1 1.5 0 2.8-.2 4.1-.6 1.3-.4 2.6-1 3.8-1.8l-2 5.7h-17.3z"/><path class="st0" d="M220.1 49.3v-2.5c-1.6 1.1-3.1 2-4.7 2.5-1.6.6-3.2.8-4.8.8-1.9 0-3.5-.3-5-.9-1.5-.6-2.7-1.6-3.8-2.8-.8-1-1.4-2.1-1.8-3.4-.4-1.3-.5-3-.5-5.2v-15.2c0-1.6-.1-2.8-.4-3.6-.3-.8-.8-1.5-1.4-2.1h8.7c-.7.6-1.1 1.3-1.4 2.1-.3.8-.4 2-.4 3.6v14.2c0 2.2.1 3.9.3 4.9.2 1.1.6 1.9 1.1 2.6.6.8 1.4 1.3 2.4 1.7 1 .4 2.2.6 3.6.6 1.2 0 2.3-.2 3.3-.5s1.9-.9 2.7-1.5c.7-.6 1.2-1.3 1.5-2.2.3-.9.4-2.1.4-3.7v-16.1c0-1.7-.1-2.9-.4-3.7-.3-.8-.8-1.4-1.4-2h8.8c-.7.6-1.2 1.3-1.5 2.1-.3.8-.4 2-.4 3.6v21c0 1.6.1 2.8.4 3.6.3.8.8 1.5 1.5 2.1h-6.8z"/><path class="st0" d="M258.6 20.3c-.6.5-1.1 1.2-1.3 1.9-.3.7-.4 1.8-.4 3.2v24.6c-1 0-1.9-.4-2.8-1-.9-.6-2-1.8-3.4-3.6l-14.7-18.8v17.7c0 1.5.1 2.6.4 3.3.2.7.7 1.3 1.3 1.8h-6.5c.6-.6 1-1.2 1.3-1.9.3-.7.4-1.8.4-3.3v-18.8c0-1.5-.1-2.5-.4-3.2-.3-.7-.7-1.3-1.3-1.9h5.8l16.9 21.8v-16.7c0-1.5-.1-2.5-.4-3.2-.3-.7-.7-1.3-1.3-1.9h6.4z"/><path class="st0" d="M269.5 44.2c0 1.5.1 2.6.4 3.3.3.7.7 1.3 1.3 1.9h-7.8c.6-.6 1-1.2 1.3-1.9.3-.7.4-1.8.4-3.3v-18.8c0-1.5-.1-2.5-.4-3.2-.3-.7-.7-1.3-1.3-1.9h7.8c-.6.5-1 1.2-1.3 1.9-.3.7-.4 1.8-.4 3.2v18.8z"/><path class="st0" d="M287.8 50.1c-1.2-.3-2.3-1-3.1-2.1-.9-1.1-1.7-2.7-2.4-4.8l-5.8-16.9c-.5-1.4-.9-2.5-1.3-3.4-.4-.9-.9-1.7-1.4-2.5h5.9c0 .5.1.9.1 1.3.1.4.1.8.3 1.2l7 20.8 6.6-17.3.5-1.6c.1-.5.2-1 .2-1.5 0-.4-.1-.8-.3-1.2-.2-.4-.6-1-1.1-1.6h6.6l-11.8 29.6z"/><path class="st0" d="M301.4 49.4c.6-.6 1-1.2 1.3-1.9.3-.7.4-1.8.4-3.3v-18.7c0-1.5-.1-2.6-.4-3.3-.3-.7-.7-1.3-1.3-1.9h15.6v4.6c-.7-.6-1.5-1-2.3-1.2-.8-.3-1.8-.4-2.9-.4-.6 0-1.2 0-1.9.1s-1.5.2-2.4.4v8.2h7v4.2c-.3-.4-.8-.7-1.3-.8-.6-.2-1.6-.2-3.1-.2h-2.6v10.4c1.1.2 2.1.3 2.9.4.9.1 1.6.1 2.3.1 1.4 0 2.8-.2 4.1-.6 1.3-.4 2.6-1 3.8-1.8l-2 5.7h-17.2z"/><path class="st0" d="M328.9 44.2c0 1.5.1 2.5.4 3.3.3.7.7 1.3 1.3 1.9h-7.8c.6-.6 1-1.2 1.3-1.9.3-.7.4-1.8.4-3.3v-18.7c0-1.5-.1-2.5-.4-3.2-.3-.7-.7-1.3-1.3-1.9h9.9c2.8 0 5.1.7 6.8 2 1.7 1.4 2.6 3.1 2.6 5.3 0 1.6-.5 3-1.6 4.2-1 1.2-2.7 2.3-4.9 3.2l7.4 10.1c.4.6 1 1.2 1.6 1.9.6.7 1.3 1.4 2.1 2.1l-2.2.2h-.3c-1 0-2.1-.3-3-.8-1-.6-1.8-1.3-2.5-2.3l-8.5-11.9c2.5-.6 4.4-1.4 5.6-2.4 1.2-1 1.8-2.3 1.8-3.9 0-1.5-.5-2.7-1.5-3.6-1-.9-2.3-1.4-4-1.4-.4 0-.8 0-1.3.1s-1.1.2-1.8.3v20.7h-.1z"/><path class="st0" d="M348.1 48.7l-1.4-5.3c1.7 1.1 3.3 2 4.8 2.5 1.6.6 3.1.8 4.7.8 2 0 3.5-.4 4.7-1.3 1.2-.9 1.8-2 1.8-3.3 0-.4-.1-.8-.2-1.2-.1-.4-.3-.8-.5-1.1-.5-.8-2.3-1.9-5.2-3.4-.8-.4-1.3-.7-1.8-.9-2.8-1.4-4.7-2.7-5.7-3.9-1-1.2-1.6-2.6-1.6-4.3 0-2.4 1-4.2 2.8-5.6 1.9-1.4 4.5-2.1 7.8-2.1.9 0 2 .1 3.1.2s2.4.3 3.7.6v4.9c-1.2-.9-2.4-1.6-3.6-2-1.2-.4-2.4-.7-3.7-.7-1.6 0-2.9.4-3.9 1.1-1 .7-1.5 1.6-1.5 2.8 0 1 .4 1.9 1.2 2.7.8.8 2.5 1.8 5.3 3.1.2.1.4.2.7.3 2.3 1.1 4 2.1 5.2 3 .8.7 1.5 1.5 2 2.4.5 1 .7 2 .7 3.1 0 2.5-1.1 4.6-3.4 6.4-2.3 1.7-5.1 2.6-8.4 2.6-1.1 0-2.2-.1-3.5-.4-1.2-.1-2.6-.5-4.1-1z"/><path class="st0" d="M377.6 44.2c0 1.5.1 2.6.4 3.3.3.7.7 1.3 1.3 1.9h-7.9c.6-.6 1.1-1.2 1.3-1.9.3-.7.4-1.8.4-3.3v-18.8c0-1.5-.1-2.5-.4-3.2-.3-.7-.7-1.3-1.3-1.9h7.9c-.6.5-1.1 1.2-1.3 1.9-.3.7-.4 1.8-.4 3.2v18.8z"/><path class="st0" d="M216.8 69.2l-4.7 12.1h9.4l-4.7-12.1zm.6-10.4l2.6 6.3 9.8 24.6c1.1 2.7 1.9 5.4 4.6 6.8v.1h-9.7v-.1c2.3-1 1.9-1.6.7-4.9l-2.6-6.8h-12l-2.5 6.8c-1 2.7-1.3 4.1.9 4.9v.1h-8.7v-.1c2.7-1.4 3.5-4.1 4.6-6.8l12.3-30.7v-.2z"/><path class="st0" d="M156.7 70c-3.2 0-5.8 1.1-7.9 3.3-2.1 2.2-3.1 5.1-3.1 8.5 0 3.6 1 6.5 3.1 8.9 2 2.4 4.6 3.5 7.7 3.5 3.2 0 5.8-1.1 7.9-3.3 2.1-2.2 3.1-5.1 3.1-8.5 0-3.6-1-6.5-3.1-8.8-2.2-2.4-4.7-3.6-7.7-3.6zm-.2 27.4c-2.2 0-4.2-.4-6.2-1.1-1.9-.7-3.6-1.7-5-3-1.5-1.4-2.6-3-3.4-4.9-.8-1.9-1.2-3.9-1.2-6 0-1.6.3-3.2.8-4.8.5-1.5 1.2-3 2.2-4.3 1.5-2 3.3-3.6 5.5-4.7s4.6-1.7 7.2-1.7c2.2 0 4.3.4 6.2 1.1 1.9.7 3.6 1.7 5 3 1.5 1.4 2.6 3 3.4 4.9.8 1.9 1.2 4 1.2 6.2 0 2-.4 4-1.3 5.9-.9 1.9-2.1 3.7-3.7 5.1-1.4 1.4-3.1 2.4-4.9 3.1-1.8.8-3.7 1.2-5.8 1.2z"/><path class="st0" d="M180.8 91.5c0 1.5.1 2.5.4 3.3.3.7.7 1.3 1.3 1.9h-7.8c.6-.6 1-1.2 1.3-1.9.3-.7.4-1.8.4-3.3v-18.7c0-1.5-.1-2.6-.4-3.3-.3-.7-.7-1.3-1.3-1.9h15.7v4.6c-.7-.6-1.5-1-2.3-1.2-.8-.3-1.8-.4-2.9-.4-.6 0-1.2 0-1.9.1s-1.5.2-2.4.4v8.2h7v4.2c-.3-.4-.8-.7-1.3-.8-.6-.2-1.6-.2-3.1-.2h-2.6v9h-.1z"/><path class="st0" d="M242.7 91.5c0 1.5.1 2.5.4 3.2.3.7.7 1.3 1.3 1.9h-7.8c.6-.6 1-1.2 1.3-1.9.3-.7.4-1.8.4-3.2v-18.8c0-1.5-.1-2.5-.4-3.3-.3-.7-.7-1.3-1.3-1.9h9.9c2.8 0 5.1.7 6.8 2 1.7 1.4 2.6 3.1 2.6 5.3 0 1.6-.5 3-1.6 4.2-1 1.2-2.7 2.3-4.9 3.2l7.4 10.1c.4.6 1 1.2 1.6 1.9.6.7 1.3 1.4 2.1 2.1l-2.2.2h-.3c-1 0-2.1-.3-3-.8-1-.6-1.8-1.3-2.5-2.3l-8.5-11.9c2.5-.6 4.4-1.4 5.6-2.4 1.2-1 1.8-2.3 1.8-3.9 0-1.5-.5-2.7-1.5-3.6-1-.9-2.3-1.4-4-1.4-.4 0-.8 0-1.3.1s-1.1.2-1.8.3v20.9h-.1z"/><path class="st0" d="M269.2 91.5c0 1.5.1 2.6.4 3.3.3.7.7 1.3 1.3 1.9h-7.9c.6-.6 1-1.2 1.3-1.9.3-.7.4-1.8.4-3.3v-18.8c0-1.5-.1-2.5-.4-3.2-.3-.7-.7-1.3-1.3-1.9h7.8c-.6.5-1.1 1.2-1.3 1.9-.3.7-.4 1.8-.4 3.2v18.8h.1z"/><path class="st0" d="M298.2 91.2l-2.1 5.4h-22.3l15.2-25.2c-1.1-.3-2.2-.5-3.2-.6-1-.1-1.9-.2-2.8-.2-1.3 0-2.5.2-3.7.5-1.2.3-2.4.8-3.6 1.5l2-4.9h18.6l-15.3 25.2c1.7.2 3.1.3 4.3.4 1.1.1 2.1.1 3 .1 2 0 3.8-.2 5.4-.6 1.6-.3 3.1-.8 4.5-1.6z"/><path class="st0" d="M314.8 70c-3.2 0-5.8 1.1-7.9 3.3-2.1 2.2-3.1 5.1-3.1 8.5 0 3.6 1 6.5 3.1 8.9 2 2.4 4.6 3.5 7.7 3.5 3.2 0 5.8-1.1 7.9-3.3 2.1-2.2 3.1-5.1 3.1-8.5 0-3.6-1-6.5-3.1-8.8-2.1-2.4-4.6-3.6-7.7-3.6zm-.1 27.4c-2.2 0-4.2-.4-6.2-1.1-1.9-.7-3.6-1.7-5-3-1.5-1.4-2.6-3-3.4-4.9-.8-1.9-1.2-3.9-1.2-6 0-1.6.2-3.2.8-4.8.5-1.5 1.2-3 2.2-4.3 1.5-2 3.4-3.6 5.6-4.7 2.2-1.1 4.6-1.7 7.2-1.7 2.2 0 4.3.4 6.2 1.1 1.9.7 3.6 1.7 5 3 1.5 1.4 2.6 3 3.4 4.9.8 1.9 1.2 4 1.2 6.2 0 2-.4 4-1.3 5.9-.9 1.9-2.1 3.7-3.7 5.1-1.4 1.4-3.1 2.4-4.9 3.1-1.9.8-3.9 1.2-5.9 1.2z"/><path class="st0" d="M360.3 67.6c-.6.5-1.1 1.2-1.3 1.9-.3.7-.4 1.8-.4 3.2v24.6c-1 0-2-.4-2.8-1-.9-.6-2-1.8-3.4-3.6l-14.8-18.9v17.7c0 1.5.1 2.6.4 3.3.2.7.7 1.3 1.3 1.8h-6.5c.6-.6 1-1.2 1.3-1.9.3-.7.4-1.8.4-3.3v-18.7c0-1.5-.1-2.5-.4-3.2-.3-.7-.7-1.3-1.3-1.9h5.8l16.9 21.8v-16.7c0-1.5-.1-2.5-.4-3.2-.3-.7-.7-1.3-1.3-1.9h6.5z"/><path class="st0" d="M370.8 82.9h8.4l-4-11.2-4.4 11.2zm-3.8 9.9l-.3.9c-.1.3-.1.6-.1 1 0 .3.1.6.3.9.2.3.5.7 1 1.1h-6.8c.6-.4 1.1-.9 1.5-1.6.4-.7.9-1.6 1.4-2.8l8.1-20.7c.2-.4.3-.8.4-1.1s.1-.7.1-1c0-.3-.1-.6-.2-.9-.2-.3-.4-.6-.8-.8h6.5l9.1 24.3c.4 1.1.9 2 1.4 2.7.5.7 1.1 1.4 1.9 2h-8.2l.1-.1c.8-.8 1.1-1.4 1.1-1.8 0-.4-.2-1.1-.5-2l-.1-.3-2.5-6.7h-10.7l-2.7 6.9z"/><path class="st0" d="M405.4 20.3l7.5 12.7 5-8.2c.3-.5.5-1 .7-1.4.2-.4.2-.8.2-1.1 0-.3-.1-.7-.3-1-.2-.3-.5-.7-.9-1h6.7l-9.8 16v7.9c0 1.5.1 2.6.4 3.3.3.7.7 1.3 1.3 1.9h-7.9c.6-.6 1.1-1.2 1.3-1.9.3-.7.4-1.8.4-3.3v-8l-6.7-11.1c-.7-1-1.2-1.1-1.8-1.4-.7-.2-1.9-.3-2.9-.3h-3.2v20.7c0 1.5.1 2.6.4 3.3.3.7.7 1.3 1.3 1.9h-7.9c.6-.6 1-1.2 1.3-1.9.2-.7.4-1.8.4-3.3v-20.6h-2.3c-1.6 0-2.9.1-3.9.4-1 .3-1.8.7-2.4 1.2l1.4-4.8h21.7z"/><polygon class="st1" points="87.8,0 87.8,32.7 84.5,32.7 97.6,67.9 108.9,67.9 108.9,100.6 0,100.6 0,67.9 11.2,67.9 24.5,32.6 21.1,32.6 21.2,0 87.8,0"/><polyline class="st0" points="54.5,12.1 75.5,12.1 75.5,20.5 66.8,20.5 89.8,79.8 96.6,79.8 96.6,88.5 68.1,88.5 68.1,80 60.1,80 60.1,96.6 105,96.6 105,71.8 94.9,71.9 78.8,28.7 83.8,28.7 83.8,3.9 54.5,3.9 54.5,3.9 25.1,3.9 25.1,28.7 30.2,28.7 14,71.8 3.9,71.8 3.9,96.6 48.9,96.6 48.9,80 40.9,80 40.9,88.5 12.4,88.5 12.4,79.8 19.2,79.8 42.2,20.5 33.4,20.5 33.4,12.1 54.5,12.1"/><path class="st0" d="M118 89.4c.8.8 1.2 1.8 1.2 3s-.4 2.1-1.2 2.9c-.8.8-1.8 1.2-3 1.2s-2.2-.4-3-1.2c-.8-.8-1.2-1.8-1.2-2.9 0-1.2.4-2.2 1.2-3 .8-.8 1.8-1.2 3-1.2s2.2.4 3 1.2zm-.6.5c-.7-.7-1.5-1-2.4-1-1 0-1.8.3-2.4 1-.7.7-1 1.5-1 2.5s.3 1.8 1 2.5 1.5 1 2.4 1c1 0 1.8-.3 2.4-1 .7-.7 1-1.5 1-2.5s-.3-1.8-1-2.5zm-4.2.1h1.9c.5 0 .9.1 1.2.3.3.2.4.6.4 1s-.1.8-.4 1c-.2.2-.5.3-.9.4l1.4 2.1h-.8l-1.2-2.1h-.8v2.1h-.8v-4.8zm.7 2.1h1c.4 0 .6-.1.8-.2.2-.1.2-.3.2-.6 0-.2-.1-.4-.2-.5-.2-.1-.4-.2-.8-.2h-1v1.5z"/><path class="st2" d="M54.5 12.2l23.3 60.5s3 7.4 7.8 7.4h-17s.9.1 1.7-1.3c.5-.8.1-2 .1-2l-5.3-13.5h-21.299999999999997l-5.3 13.5s-.4 1.2.1 2c.8 1.4 1.7 1.3 1.7 1.3h-17c4.9 0 7.8-7.4 7.8-7.4l23.4-60.5m-.1 44.6h8.2l-8.2-21.2-8.2 21.2h8.2z"/></svg>