<svg xmlns="http://www.w3.org/2000/svg" width="110" height="40" viewBox="45 0 110 40" enable-background="new 45 0 110 40"><path fill="#B30838" d="M83.287 9.04c0-1.339-.315-1.969-1.34-1.969h-1.812c-.236 0-.315-.079-.315-.354v-.907c0-.236.08-.314.394-.314.394 0 2.285.118 6.065.118 3.31 0 5.201-.118 5.673-.118.237 0 .315.079.315.275v.985c0 .237-.078.315-.315.315h-1.655c-1.181 0-1.891.709-1.929 1.536-.04.472-.119 2.836-.119 5.121v4.884c0 1.97.039 4.766.119 6.026.117 1.812.433 3.624 1.378 4.884 1.339 1.812 3.466 2.442 5.357 2.442 1.812 0 4.018-.709 5.278-1.891 1.496-1.497 2.285-3.781 2.285-6.656v-7.091c0-3.151-.316-6.617-.434-7.523-.119-1.023-.749-1.732-1.615-1.732h-1.417c-.237 0-.315-.119-.315-.276v-.985c0-.236.079-.314.315-.314.394 0 2.205.118 4.806.118 2.441 0 3.701-.118 4.016-.118.355 0 .395.118.395.314v.906c0 .236-.039.354-.236.354h-1.418c-1.418 0-1.576 1.103-1.652 1.536-.08.472-.08 5.987-.08 6.499 0 .552-.078 7.405-.236 8.981-.236 3.229-1.182 5.672-3.31 7.562-1.653 1.497-4.174 2.441-7.168 2.441-1.891 0-4.175-.315-5.671-.944-2.285-.945-3.86-2.758-4.648-5.279-.55-1.732-.708-4.332-.708-9.492v-9.334z"/><path fill="#B30838" d="M109.521 24.717c.158 0 .234.079.234.315.08 1.26.395 2.757 1.498 4.489 1.182 1.892 3.23 2.837 5.199 2.837 2.127 0 5.121-1.34 5.121-4.609 0-3.623-1.654-4.806-5.83-6.381-1.26-.473-3.861-1.575-5.75-3.308-1.34-1.261-1.971-3.231-1.971-5.633 0-2.206.865-4.017 2.758-5.515 1.574-1.338 3.309-1.891 5.594-1.891 2.6 0 4.176.63 4.963.946.395.157.629.08.826-.118l.512-.512c.158-.158.316-.237.551-.237.238 0 .316.237.316.63 0 .63.631 6.145.631 6.539 0 .158-.078.236-.236.276l-.631.197c-.156.039-.314 0-.395-.237-.393-1.103-1.023-2.678-2.441-4.175-1.023-1.103-2.283-1.655-4.096-1.655-3.15 0-4.412 2.522-4.412 3.979 0 1.34.156 2.521 1.104 3.545 1.023 1.024 3.229 1.97 4.805 2.443 2.285.709 4.176 1.497 5.672 3.072 1.26 1.34 1.971 2.993 1.971 5.633 0 4.805-3.152 8.744-8.352 8.744-3.229 0-5.121-.709-6.695-1.891-.473-.315-.711-.474-.945-.474-.236 0-.395.316-.633.711-.234.394-.391.472-.707.472-.314 0-.473-.236-.473-.629.08-.474.631-6.854.709-7.327.039-.236.08-.315.236-.315l.867.079z"/><path fill="#B30838" d="M152.455 27.08c.119.118.158.236.078.393-2.363 3.389-6.145 6.618-11.736 6.618-5.043 0-7.879-1.495-10.32-3.702-2.914-2.601-4.254-7.169-4.254-10.635 0-3.86 1.26-7.563 4.018-10.557 2.127-2.285 5.514-4.175 10.24-4.175 3.625 0 6.539 1.103 7.957 1.89.553.316.709.316.787 0l.316-1.023c.078-.236.158-.236.629-.236.473 0 .553.078.553.63 0 .709.787 7.011.945 8.193.039.236 0 .354-.158.394l-.748.236c-.197.079-.314-.079-.434-.393-.473-1.418-1.418-3.387-3.072-5.12-1.734-1.655-3.781-2.915-6.854-2.915-6.303 0-8.902 5.672-8.902 11.343 0 2.443.709 7.091 3.623 10.243 2.6 2.756 4.885 3.071 6.775 3.071 4.334 0 7.762-2.167 9.414-4.569.197-.276.355-.394.473-.276l.67.59z"/><path fill="#231F20" d="M74.337 9.826l-.044-.793c-.054-.735-.141-1.504-.266-2.292l-.089-.533c-.05-.284-.106-.568-.169-.855l-.052-.24-.235.069c-.009.003-.388.11-1.028.217l-1.553.176c-.309.021-.636.034-.981.034-.905.001-1.79-.081-2.642-.237l-.545-.105-.028-.006c-.012-.003-.45-.095-1.115-.322l-.724-.271c-.726-.288-1.584-.706-2.436-1.275l-.711-.518-.395-.328-.158-.136-.153.144-.374.314-.726.522c-.594.394-1.42.867-2.448 1.283l-.725.271c-.349.118-.716.232-1.104.332l-.029.006-.629.137c-.74.136-1.536.209-2.38.209-.413 0-.808-.015-1.177-.042l-1.555-.18c-.615-.099-.995-.194-1.002-.196l-.23-.059-.052.233-.134.685-.119.695c-.121.771-.206 1.525-.256 2.244l-.046.798c-.016.389-.024.766-.026 1.128l.005.775c.044 2.177.303 3.678.324 3.798.024.185.484 3.69 2.226 7.916 1.638 3.966 4.772 9.397 10.415 12.82l.245.148.244-.148c5.635-3.438 8.753-8.877 10.379-12.847 1.732-4.23 2.185-7.738 2.206-7.922.022-.122.272-1.605.315-3.76l.005-.77c-.003-.359-.011-.732-.028-1.119m-2.861 4.856h-.007c-.5.001-1.326.091-1.841.241l-.395.116c-.332.099-.68.201-1.025.293l.06.222-.06-.222c-.808.218-1.386.32-1.818.322h-.01c-.747 0-1.909-.096-3.215-.554-.353-.123-.778-.26-1.238-.338-.466-.079-.872-.089-1.302-.031-.541.07-1.038.23-1.453.375-1.312.461-2.476.559-3.222.561h-.003c-.641 0-1.532-.231-2.32-.457l-.062.223.062-.223-.68-.196-.237-.069c-.469-.137-1.244-.237-1.811-.237h-.009c-.77 0-1.456.179-2.137.534l-.072-.498c.675-.37 1.433-.571 2.209-.572h.008c.524 0 1.261.096 1.683.22l.918.266.064-.22-.063.22c.863.246 1.756.474 2.447.474h.003c.784-.001 2.004-.105 3.373-.588.394-.139.862-.289 1.354-.351l.452-.034h.028l.695.062c.43.073.846.208 1.16.319 1.368.476 2.584.577 3.367.577h.01c.471 0 1.067-.103 1.937-.336.363-.097.728-.205 1.076-.309l.355-.104c.415-.122 1.183-.223 1.711-.223h.004c.777 0 1.54.199 2.218.569l-.066.483c-.677-.339-1.381-.515-2.148-.515m-23.012-2.937l7.747.584c-.171.422-.288.873-.348 1.344-.627-.024-1.455-.234-2.199-.445l-.917-.267c-.465-.135-1.243-.237-1.812-.237h-.008c-.821 0-1.668.206-2.391.551-.034-.455-.06-.968-.072-1.53m12.74.964l-.001.034v-.034c-.18.001-.362.015-.542.037-.54.069-1.039.229-1.453.375-1.124.396-2.142.524-2.879.553.335-2.421 2.378-4.222 4.852-4.226h.005c2.443 0 4.513 1.826 4.856 4.211-.735-.03-1.735-.158-2.84-.544-.332-.116-.772-.258-1.237-.338l-.004.01.001-.01c-.264-.045-.513-.068-.758-.068m10.269.978h-.006c-.502 0-1.328.091-1.841.241l-.355.105c-.343.1-.705.208-1.064.305l.06.222-.06-.222c-.514.138-1.261.32-1.819.32h-.008c-.747 0-1.908-.096-3.215-.553-.333-.114-.775-.258-1.24-.339-.264-.044-.512-.065-.76-.065-.182 0-.359.012-.542.036-.538.068-1.036.228-1.452.375-1.31.461-2.476.56-3.222.562h-.003c-.636 0-1.529-.231-2.32-.456l-.917-.267c-.465-.135-1.241-.237-1.812-.237h-.009c-.79.001-1.562.195-2.263.547l-.049-.494c.693-.367 1.535-.581 2.351-.581h.007c.523 0 1.261.094 1.684.217l.92.268.063-.221-.062.221c.861.246 1.754.475 2.445.475h.005c.782-.001 2.003-.107 3.372-.588.392-.139.859-.288 1.354-.352l.486-.033.691.06c.431.075.845.21 1.158.319 1.366.479 2.583.58 3.365.58h.01c.473 0 1.071-.104 1.937-.336.361-.097.724-.204 1.069-.307l.364-.106c.418-.123 1.186-.223 1.712-.224h.003c.786 0 1.61.206 2.286.556l-.049.52c-.704-.355-1.482-.548-2.274-.548m.031-.991c-.5.001-1.326.093-1.839.242l-.364.107c-.342.1-.701.208-1.059.303-.489.131-1.187.299-1.734.315-.062-.464-.181-.909-.353-1.33l7.745-.582c-.012.538-.035 1.032-.066 1.473-.708-.328-1.528-.512-2.33-.528m2.401-1.689l-7.871 1.053-.199-.373 8.044-1.761c.016.373.026.737.026 1.081m-.312-4.065c.117.763.197 1.508.245 2.218l-8.153 2.284c-.142-.219-.299-.425-.47-.621l8.378-3.881zm-2.046-.958c.856-.086 1.497-.221 1.822-.299l.083.438-8.421 4.505-.266-.258 6.782-4.386zm-4.257-.14c.849.149 1.728.225 2.628.224l.315-.006-5.662 4.146c-.229-.186-.473-.354-.73-.501l3.449-3.863zm-1.935-.495c.485.167.866.269 1.073.319l-2.895 3.871c-.146-.073-.297-.137-.453-.196l2.275-3.994zm-2.992-1.45c.813.527 1.618.916 2.305 1.192l-1.903 4.14c-.352-.109-.718-.186-1.094-.22l.692-5.112zm-1.189-.873c.169.144.341.277.514.406l-.308 5.567-.195-.01h-.005l-.2.01-.308-5.574c.221-.166.392-.304.502-.399m-1.193.873l.693 5.114c-.383.036-.754.115-1.111.227l-1.906-4.147c.954-.384 1.733-.814 2.324-1.194m-3.008 1.454l2.274 3.995-.451.198-2.892-3.866c.374-.1.731-.21 1.069-.327m-4.375.736c.872 0 1.696-.074 2.463-.217l3.428 3.839c-.26.151-.504.322-.734.513l-5.66-4.143.503.008m-3.618-.378c.324.07.963.194 1.789.282l6.791 4.393-.26.259-8.401-4.496.081-.438m-.218 1.254l8.362 3.874c-.159.184-.307.378-.441.583l-8.159-2.287c.047-.697.123-1.423.238-2.17m-.279 2.944l8.051 1.762-.198.379-7.88-1.052c.002-.349.012-.717.027-1.089m22.924 13.326c-1.601 3.905-4.666 9.251-10.193 12.619-5.536-3.352-8.616-8.692-10.228-12.592-1.482-3.595-2.025-6.647-2.162-7.542.662-.372 1.322-.551 2.067-.553h.008c.521 0 1.258.096 1.683.219l.234.068.685.199c.818.235 1.748.474 2.446.474h.003c.784-.001 2.002-.103 3.374-.587.392-.136.858-.286 1.356-.353l.453-.032h.025l.698.062c.424.072.824.2 1.158.318 1.366.478 2.583.579 3.367.579h.01c.473-.001 1.088-.108 1.937-.336.347-.093.699-.198 1.035-.297l.395-.117c.419-.12 1.187-.221 1.713-.223h.005c.742 0 1.423.182 2.077.535-.133.878-.664 3.944-2.146 7.559"/><path fill="#231F20" d="M67.916 19.951c.313-.193.646-.566.48-1.137-.003-.008-.397-.769-.204-1.376l.065-.206-.214.024c-.032.003-.323.053-.658.428-.331-.536-.864-.867-.898-.885l-.532-.315.345.513c.062.093.224.398.155.592-.038.107-.085.19-.14.266-.353-.357-.892-.504-.914-.509l-.277-.073.114.263c.155.356.032.604-.108.892-.105.213-.223.454-.221.75 0 .384.189.631.373.769-.133.119-.218.292-.218.484.001.245.141.458.343.568.031.328.175.537.361.639l.195 4.24c-.254.062-.447.279-.447.552 0 .292.22.522.499.566l.082 1.77c0 .276.224.5.5.5s.5-.224.5-.494l.083-1.772c.291-.032.522-.271.521-.569 0-.282-.204-.506-.47-.56l.195-4.238.162-.104c.128-.128.196-.314.21-.55l.138-.092c.123-.122.191-.287.19-.46-.001-.189-.082-.357-.21-.476m-.367-2.03c.118-.145.229-.237.319-.294-.069.644.265 1.284.271 1.293.159.55-.386.816-.519.873l-.15-.02h-.283c.206-.267.462-.71.458-1.261.001-.233-.096-.591-.096-.591m-.831-.237c.04-.11.04-.229.021-.341.287.261.626.675.631 1.172.004.617-.39 1.092-.548 1.259h-.1c-.124-.17-.363-.555-.109-.982l.31-.51.035-.16-.106.138-.365.394c-.375.455-.123.951-.023 1.121l-.326.002c-.559-.751.039-1.338.075-1.375l.121-.134c.154-.17.29-.316.384-.584m-1.532 1.494c0-.231.095-.424.194-.626.119-.243.251-.512.197-.848.171.071.394.193.559.367l-.009.007-.116.13c-.009.008-.715.698-.207 1.568h-.089l-.148.018c-.079-.035-.38-.193-.381-.616m1.41 9.809c-.123 0-.223-.099-.223-.228l-.079-1.748h.603l-.081 1.754c.001.124-.098.222-.22.222m.826-2.557c0 .166-.136.302-.302.302l-1.021.002-.001.139v-.139c-.167 0-.3-.136-.3-.304 0-.166.135-.301.3-.301l.577-.002.444-.001c.165 0 .303.137.303.304m-.471-.583l-.711.001-.19-4.136 1.071-.001.023-.006-.193 4.142zm.44-4.516c-.066.066-.158.099-.27.099l-1.071.002c-.18 0-.304-.132-.351-.353l.018.002 1.755-.003.029-.006c-.02.108-.051.199-.11.259m.346-.643c-.071.072-.164.111-.265.111l-1.755.003c-.207 0-.373-.168-.375-.374 0-.205.167-.373.374-.373l.285-.001.002.004.003-.004h.377l1.09-.002c.204 0 .373.168.373.373 0 .1-.038.193-.109.263"/><path fill="#231F20" d="M56.975 19.965c.313-.192.645-.567.481-1.137-.006-.006-.399-.768-.207-1.375l.065-.207-.215.025c-.033.003-.321.052-.656.427-.332-.535-.866-.865-.898-.884l-.527-.311.341.508c.065.099.223.399.153.593-.038.107-.084.189-.139.265-.352-.357-.891-.504-.916-.509l-.276-.074.114.263c.155.355.033.604-.108.892-.104.212-.222.453-.222.749 0 .413.207.646.375.771l-.028.021c-.124.123-.19.287-.19.46 0 .247.139.46.342.57.029.297.162.527.36.637l.197 4.24c-.254.062-.447.282-.447.556 0 .291.218.521.497.562l.082 1.771c0 .276.226.502.501.502s.5-.226.5-.496l.082-1.771c.132-.015.255-.063.35-.16.111-.111.171-.256.17-.41 0-.279-.204-.504-.47-.56l.194-4.231.169-.107c.124-.124.189-.309.205-.542.194-.114.329-.322.329-.563.001-.187-.082-.356-.208-.475m-.37-2.03c.119-.145.232-.237.321-.294-.069.643.264 1.284.271 1.292.159.551-.385.817-.517.872l-.149-.017h-.284c.206-.268.464-.711.458-1.261-.001-.234-.1-.592-.1-.592m-.83-.237c.04-.112.04-.231.02-.345.288.262.628.675.632 1.175.004.617-.389 1.094-.549 1.26h-.098c-.124-.169-.364-.555-.11-.982l.312-.511.031-.159-.104.136-.364.395c-.376.456-.123.953-.027 1.122l-.325.001c-.559-.749.038-1.339.075-1.374l.119-.131c.158-.172.293-.319.388-.587m-1.531 1.493c0-.23.095-.423.195-.626.119-.243.251-.511.196-.849.171.072.395.193.558.366l-.011.012-.114.128c-.009.008-.715.694-.208 1.566h-.087l-.131.028c-.033-.012-.397-.157-.398-.625m1.411 9.809c-.123 0-.224-.099-.224-.227l-.08-1.747.606-.002-.082 1.754c0 .123-.099.222-.22.222m.824-2.557c0 .081-.031.157-.088.214-.058.058-.134.089-.215.089h-1.019l-.002.14v-.14c-.166 0-.302-.135-.302-.301 0-.167.136-.303.302-.303h.578l.442-.002c.168.001.304.136.304.303m-.469-.582l-.711.002-.191-4.14h.001l1.069-.001.022-.002-.19 4.141zm.442-4.513c-.063.063-.155.097-.275.097l-1.068.001c-.176 0-.303-.135-.352-.353l.019.002 1.754-.002.03-.003c-.02.107-.051.201-.108.258m.078-.536l-1.754.003c-.207 0-.374-.167-.374-.373 0-.1.038-.193.108-.264.07-.071.164-.111.263-.111h.286l.001.003.004-.003h.378l.551-.001h.538c.206 0 .372.167.373.373 0 .207-.167.373-.374.373"/><path fill="#231F20" d="M62.887 20.39c.287-.224.704-.705.472-1.505-.002-.009-.324-.808-.044-1.685l.064-.207-.215.025c-.016.001-.39.058-.829.521-.422-.884-1.332-1.432-1.381-1.462l-.461-.273.271.464c.003.004.303.526.176.883-.056.157-.125.277-.203.388-.48-.512-1.213-.688-1.245-.696l-.27-.062.111.254c.227.522.051.878-.152 1.294-.15.307-.306.623-.305 1.024 0 .554.295.898.556 1.072-.204.157-.338.402-.338.677.001.337.199.624.48.765.047.318.238.646.507.801l-.009.001.28 6.082c-.354.062-.625.371-.625.743.001.396.307.718.693.75l.117 2.516c0 .171.067.333.188.455.122.121.283.188.454.188h.003c.172 0 .333-.067.455-.189.121-.122.189-.285.188-.449l.117-2.518c.403-.016.728-.348.728-.755-.001-.384-.289-.697-.658-.747l.28-6.099c.272-.167.472-.489.514-.794l.208-.148c.162-.163.251-.379.25-.606 0-.294-.15-.554-.377-.708m.092-3.011c-.182.865.109 1.577.118 1.598.23.794-.338 1.186-.513 1.283l-.177-.018-.558.002c.291-.353.707-.997.7-1.819-.001-.21-.04-.409-.1-.598.204-.24.394-.374.53-.448m-1.776-.133c.076-.213.049-.45-.006-.652.431.35 1.07 1.008 1.075 1.833.009.906-.58 1.596-.796 1.818h-.07c-.114-.175-.24-.453-.24-.771 0-.612.297-.968.297-.968s-.377.254-.442.817c-.031.271.028.555.204.922h-.358c-.136-.2-.505-.78-.119-1.432.072-.12.458-.617.5-.713.05-.115.046-.223.046-.223l-.148.193-.509.55c-.572.695-.101 1.459-.003 1.625h-.217c-.84-1.097.041-1.966.09-2.012l.163-.182c.215-.235.401-.437.533-.805m-2.046 2.108c0-.335.134-.61.276-.901.183-.373.37-.756.249-1.257.246.09.616.265.879.56l-.096.106-.16.176c-.012.01-1.016.987-.231 2.206h-.121l-.213.031c-.064-.022-.582-.245-.583-.921m2.39 13.406c0 .096-.038.188-.106.258-.069.068-.16.106-.257.106h-.001c-.098 0-.189-.038-.258-.106-.069-.067-.107-.159-.107-.264l-.116-2.501.962-.002-.117 2.509zm.844-3.267c0 .265-.215.479-.478.479l-1.425.002c-.264 0-.48-.215-.48-.479 0-.265.215-.479.477-.479l1.076-.002h.35c.263.001.479.215.48.479m-.657-.757l-1.102.001-.274-5.983.062.01h.001l1.497-.002.092-.013-.276 5.987zm.183-6.253l-1.497.002h-.001c-.238 0-.455-.26-.539-.532l.073.007 2.455-.004.09-.008c-.088.266-.331.535-.581.535m.9-.975c-.109.108-.254.169-.408.169l-2.455.003c-.318 0-.577-.258-.579-.576 0-.318.259-.578.577-.578l1.639-.003h.817c.318 0 .576.257.576.576.001.155-.058.299-.167.409"/></svg>