<svg xmlns="http://www.w3.org/2000/svg" width="72.062" height="92.887"><g fill="#fff"><path d="M22.699 50.174l-3.723.006c-.438 0-.812-.02-.92-.52-.141-.645.47-.773.47-.773-.053.037-.204.322-.085.619.108.267.328.228.696.228l4.161-.004c0 .403-.599.444-.599.444"/><path d="M21.693 66.341h-1.81c-.308-.001-.586-.058-.699-.399-.137-.41.318-.506.318-.506-.035.028-.094.16-.01.367.077.189.246.178.506.18l2.118.012c.001.347-.423.346-.423.346"/><path d="M23.244 50.559l-5.022.009c-.475 0-.904-.409-.906-1.027 0-.591.435-1.02.904-1.02l5.022-.007c.467 0 .906.451.908 1.018-.001.571-.44 1.027-.906 1.027m-1.222 1.254l-2.572.002c-.441.002-.835-.206-1.086-.532l4.738-.006c-.248.326-.641.534-1.08.536m-1.798.789c.548.022 1.26.017 1.999-.08l-.528 11.767-1.261.002-.21-11.689zm-1.019-.082l.488.05.435 11.721-.339.001-.584-11.772zm3.786 13.369c0 .475-.397.883-.882.884l-2.709.003c-.49.001-.887-.393-.887-.881 0-.479.394-.883.885-.885l2.709-.002c.487-.002.884.396.884.881m-1.656 6.408c0 .323-.235.582-.574.582-.316.002-.576-.261-.576-.58l-.237-4.802h.3l.171 4.644c0 .351.163.422.163.422l-.091-5.065 1.06-.002-.216 4.801zm-4.453-26.193c0-.633.257-1.158.529-1.714.333-.677.701-1.426.526-2.375.349.133.791.368 1.175.751l-.659.759c-1.023 1.219-1.419 2.67-.32 4.287h-.158c-.01-.003-1.091-.387-1.093-1.708m3.619-5.362c.916.739 2.046 2.133 2.049 3.734 0 1.447-1.24 3.107-1.537 3.32-.24-.324-.538-.931-.54-1.62-.003-1.192.581-1.891.581-1.891s-.862.556-.988 1.66c-.061.54.057 1.106.422 1.851h-.522c-.141-.226-1.151-1.484-.311-2.907.141-.233.774-1.148.852-1.333.099-.226.089-.437.089-.437-.105.171-.286.374-.286.374-.182.2-.8.84-.995 1.076-1.207 1.464-.032 3.092.024 3.229h-.489c-.538-.614-.717-1.212-.663-2.113.122-2.023 2.558-2.276 2.314-4.943m3.371 1.714c-.249 1.523.206 2.768.281 2.955.43 1.54-.735 2.251-.993 2.389l-.035-.008-1.168.002c.729-.955 1.313-2.204 1.313-3.318-.002-.338-.036-.658-.1-.967l-.098-.326c.296-.343.573-.58.8-.727m.205 5.61c.618-.556 1.182-1.519.793-2.881l-.017-.04c-.005-.014-.618-1.529-.087-3.215l.178-.558-.58.073c-.084.009-.765.117-1.594.948-.69-1.394-2.007-2.434-3.375-3.118.502 1.601.569 2.188.157 2.871-.936-.872-2.074-1.04-2.126-1.046l-.658-.09.266.61c.423.975.09 1.652-.296 2.439-.284.58-.607 1.237-.607 2.047.001 1.063.541 1.742 1.052 2.113-.358.324-.588.802-.586 1.324 0 .67.342 1.252.862 1.543.169.522.535.953 1.013 1.207l.598 12.031c-.731.153-1.277.807-1.275 1.571 0 .827.628 1.509 1.43 1.593l.242 4.822c0 .714.58 1.292 1.295 1.291.746 0 1.288-.58 1.296-1.278l.216-4.838c.813-.085 1.439-.788 1.437-1.597 0-.78-.558-1.432-1.296-1.571l.535-12.004c.506-.251.894-.701 1.066-1.249.519-.305.854-.91.854-1.535-.002-.586-.315-1.148-.793-1.463"/><path d="M52.737 50.174l-3.723.006c-.438 0-.812-.02-.92-.52-.141-.645.47-.773.47-.773-.054.037-.203.322-.085.619.107.267.328.228.695.228l4.162-.004c.001.403-.599.444-.599.444"/><path d="M51.732 66.341h-1.81c-.309-.001-.587-.058-.699-.399-.138-.41.317-.506.317-.506-.034.028-.094.16-.01.367.077.189.246.178.506.18l2.118.012c.002.347-.422.346-.422.346"/><path d="M53.282 50.559l-5.021.009c-.477 0-.905-.409-.906-1.027 0-.591.435-1.02.904-1.02l5.021-.007c.467 0 .906.451.909 1.018 0 .571-.441 1.027-.907 1.027m-1.22 1.254l-2.573.002c-.44.002-.833-.206-1.085-.532l4.738-.006c-.248.326-.642.534-1.08.536m-1.801.789c.549.022 1.263.017 2-.08l-.527 11.767-1.262.002-.211-11.689zm-1.018-.082l.488.05.435 11.721-.339.001-.584-11.772zm3.787 13.369c0 .475-.396.883-.882.884l-2.709.003c-.49.001-.888-.393-.888-.881 0-.479.396-.883.885-.885l2.71-.002c.488-.002.884.396.884.881m-1.656 6.408c0 .323-.236.582-.574.582-.315.002-.576-.261-.576-.58l-.236-4.802h.3l.171 4.644c0 .351.163.422.163.422l-.091-5.065 1.061-.002-.218 4.801zm-4.453-26.193c0-.633.258-1.158.529-1.714.333-.677.701-1.426.525-2.375.351.133.791.368 1.174.751l-.658.759c-1.021 1.219-1.417 2.67-.318 4.287h-.158c-.01-.003-1.092-.387-1.094-1.708m3.619-5.362c.917.739 2.047 2.133 2.049 3.734 0 1.447-1.238 3.107-1.537 3.32-.24-.324-.537-.931-.539-1.62-.002-1.192.582-1.891.582-1.891s-.862.556-.989 1.66c-.06.54.057 1.106.423 1.851h-.523c-.141-.226-1.15-1.484-.311-2.907.141-.233.773-1.148.852-1.333.1-.226.09-.437.09-.437-.105.171-.287.374-.287.374-.18.2-.799.84-.994 1.076-1.207 1.464-.032 3.092.023 3.229h-.489c-.539-.614-.717-1.212-.664-2.113.121-2.023 2.558-2.276 2.314-4.943m3.37 1.714c-.249 1.523.206 2.768.281 2.955.429 1.54-.735 2.251-.993 2.389l-.035-.008-1.168.002c.729-.955 1.312-2.204 1.312-3.318-.002-.338-.035-.658-.1-.967l-.098-.326c.297-.343.574-.58.801-.727m.205 5.61c.618-.556 1.183-1.519.793-2.881l-.017-.04c-.006-.014-.618-1.529-.086-3.215l.177-.558-.581.073c-.083.009-.764.117-1.594.949-.688-1.395-2.006-2.434-3.375-3.119.502 1.6.57 2.187.156 2.87-.936-.871-2.072-1.039-2.125-1.045l-.658-.09.267.61c.422.975.09 1.652-.296 2.439-.285.58-.607 1.237-.607 2.047.002 1.064.541 1.742 1.053 2.115-.358.324-.588.8-.586 1.322 0 .67.342 1.252.861 1.543.169.522.535.953 1.014 1.207l.597 12.031c-.729.153-1.276.807-1.274 1.571 0 .827.629 1.509 1.43 1.593l.242 4.822c0 .714.58 1.292 1.295 1.291.746 0 1.289-.58 1.297-1.278l.217-4.838c.812-.085 1.438-.788 1.435-1.597 0-.78-.557-1.432-1.294-1.571l.534-12.004c.505-.251.894-.701 1.065-1.249.52-.305.854-.91.854-1.535-.003-.586-.316-1.148-.794-1.463"/><path d="M39.324 52.911l-6.634.008c-.865.002-1.567-.701-1.568-1.562-.002-.865.7-1.566 1.563-1.568l6.635-.008c.117 0 .229.014.338.039l.009.014.019-.01c.687.165 1.202.783 1.203 1.52 0 .862-.701 1.567-1.565 1.567m-1.332 1.693l-4.042.005c-.644 0-1.201-.39-1.442-.947l.182.008 6.637-.008.225-.01c-.252.55-.864.95-1.56.952m-.491 17.397l-1.928.003-.204-16.644 2.626-.004.273-.017-.767 16.662zm1.783 2.045c0 .716-.58 1.3-1.297 1.3l-3.856.006c-.715 0-1.297-.582-1.298-1.297 0-.716.58-1.297 1.294-1.297l3.857-.007c.716 0 1.298.581 1.3 1.295m-2.285 8.837c.002.545-.441.99-.986.99-.546 0-.989-.443-.993-1.006l-.31-6.767h.609l.256 6.612c0 .486.226.585.226.585l-.114-7.197 1.628-.004-.316 6.787zm-2.516-27.523l.697 16.645-.658.001-.764-16.653.192.01.533-.003zm-3.956-8.735c-.003-.911.363-1.652.749-2.44.501-1.021 1.017-2.072.662-3.452.545.175 1.347.54 2.012 1.239-.165.203-.346.398-.539.608l-.455.501c-.226.228-2.663 2.799-.597 5.983l-.257.051c-.233-.095-1.573-.718-1.575-2.49m4.875-5.698c.23-.641.191-1.378.097-1.956 1.145.884 3.13 2.76 3.146 5.145.018 2.421-1.555 4.293-2.155 4.915l-.103.002c-.328-.451-.735-1.283-.735-2.228-.004-1.654.804-2.623.804-2.623s-1.193.774-1.368 2.301c-.085.745.076 1.528.575 2.55h-.726c-.226-.347-1.571-2.067-.419-4.011.193-.326 1.067-1.591 1.18-1.849.137-.313.12-.608.12-.608-.142.237-.396.521-.396.521-.252.278-1.108 1.165-1.379 1.493-1.637 1.986-.108 4.195.027 4.456l-.812.002c-2.277-2.971.123-5.322.23-5.425l.025-.026.45-.493c.583-.634 1.085-1.179 1.439-2.166m5.158.357c-.465 2.238.23 4.101.326 4.339.576 2.044-.797 3.095-1.331 3.418l-.234-.012-1.819.002c.787-.953 1.912-2.707 1.896-4.921-.003-.572-.103-1.112-.267-1.624.551-.647 1.059-1.007 1.429-1.202m-.12 8.033c.764-.643 1.739-1.904 1.162-3.922l-.014-.04c-.012-.022-.881-2.182-.127-4.557l.178-.558-.581.073c-.048.006-1.05.143-2.24 1.398-1.146-2.387-3.599-3.866-3.735-3.945l-.9-.531.358.983c.144.398.454 1.617.154 2.455-.091.254-.196.472-.308.671-1.282-1.273-2.908-1.501-2.981-1.511l-.658-.086.266.608c.613 1.408.139 2.379-.411 3.501-.407.828-.828 1.686-.826 2.77.001 1.492.794 2.424 1.497 2.896-.548.426-.905 1.088-.903 1.834.001.91.53 1.695 1.294 2.074.131.771.641 1.412 1.333 1.725l.774 16.885c-.962.17-1.692 1.012-1.691 2.016.002 1.071.828 1.95 1.877 2.041l.312 6.791c0 .959.783 1.739 1.742 1.737.96 0 1.74-.782 1.738-1.726l.314-6.803c1.094-.045 1.971-.944 1.971-2.051-.003-1.039-.779-1.894-1.783-2.025l.777-16.892c.725-.327 1.26-.977 1.374-1.735.735-.389 1.237-1.162 1.235-2.053.002-.869-.485-1.629-1.198-2.023"/><path d="M32.326 51.377c-.191-.475.05-.936.135-.999 0 0-.937.161-.709 1.204.173.802.727.887 1.435.885l6.007-.008s.703.066.97-.6l-6.718.01c-.592.003-.947-.058-1.12-.492"/><path d="M33.817 74.094c-.15-.379.04-.738.107-.789 0 0-.739.127-.561.951.139.633.575.697 1.135.696l3.274-.004s.553.051.762-.471l-3.834.006c-.466 0-.746-.049-.883-.389"/><path d="M63.981 56.923c-4.377 10.676-12.755 25.286-27.861 34.494-15.134-9.167-23.553-23.758-27.954-34.422-4.055-9.819-5.537-18.161-5.912-20.612 1.808-1.016 3.611-1.509 5.65-1.511h.016c1.428 0 3.446.262 4.602.598l.701.205c.587.172 1.196.351 1.815.525 2.235.639 4.775 1.293 6.682 1.293h.014c2.138-.003 5.473-.283 9.221-1.603 1.066-.377 2.339-.785 3.703-.963l1.234-.09.073-.001 1.907.171c1.156.198 2.25.549 3.167.869 3.731 1.306 7.063 1.582 9.207 1.582h.021c1.291-.002 2.973-.294 5.293-.92v.001c.965-.259 1.94-.548 2.867-.822l1.04-.307c1.149-.334 3.25-.607 4.685-.609h.011c2.036 0 3.897.492 5.683 1.459-.361 2.403-1.814 10.786-5.865 20.663m-41.521-29.809c-.468 1.159-.803 2.392-.966 3.686-1.709-.068-3.981-.652-6.012-1.231l-2.51-.73c-1.27-.369-3.396-.647-4.952-.647h-.019c-2.238.003-4.567.534-6.538 1.475-.089-1.236-.161-2.629-.194-4.148l21.191 1.595zm-21.139-6.617l22.017 4.821c-.193.335-.371.681-.539 1.034l-21.549-2.879c.003-.952.031-1.954.071-2.976m.758-8.044l22.871 10.594c-.434.503-.844 1.028-1.208 1.589l-22.308-6.251c.129-1.904.338-3.892.645-5.932m.604-3.428c.884.192 2.631.53 4.889.768l18.574 12.016c-.249.228-.494.458-.726.702l-22.96-12.291c.075-.4.139-.795.223-1.195m9.884 1.033c2.386-.002 4.638-.203 6.734-.596l9.372 10.499c-.71.411-1.378.88-2.006 1.401l-15.474-11.326c.451.012.904.024 1.374.022m11.96-2.016l6.215 10.92c-.421.161-.833.343-1.235.541l-7.904-10.565c1.024-.274 1.998-.574 2.924-.896m8.223-3.967l1.891 13.975c-1.048.099-2.059.317-3.031.623l-5.212-11.334c2.605-1.054 4.736-2.23 6.352-3.264m3.26-2.389c.463.39.935.759 1.406 1.113l-.842 15.211-.529-.025h-.02l-.547.026-.843-15.236c.607-.451 1.075-.831 1.375-1.089m3.249 2.389c2.223 1.436 4.422 2.498 6.305 3.258l-5.205 11.318c-.963-.299-1.961-.51-2.99-.604l1.89-13.972zm8.178 3.959c1.328.457 2.369.738 2.939.874l-7.912 10.574c-.402-.198-.816-.376-1.238-.539l6.211-10.909zm5.289 1.352c2.32.406 4.727.618 7.187.615l.862-.018-15.482 11.335c-.624-.511-1.288-.971-1.989-1.376l9.422-10.556zm11.636.384c2.34-.238 4.095-.602 4.979-.818.085.401.15.798.228 1.199l-23.011 12.318c-.236-.243-.48-.479-.732-.705l18.536-11.994zm5.593 2.621c.321 2.085.537 4.116.67 6.059l-22.289 6.247c-.39-.598-.826-1.159-1.295-1.691l22.914-10.615zm.855 11.112l-21.539 2.878c-.166-.346-.343-.685-.533-1.017l22.002-4.817c.038 1.017.068 2.009.07 2.956m-15.317 7.003l-.163-.607c-1.336.358-3.245.826-4.745.869-.166-1.273-.504-2.49-.975-3.638l21.185-1.594c-.03 1.457-.095 2.796-.178 3.99-1.931-.9-4.196-1.407-6.359-1.407h-.012c-1.367.002-3.621.25-5.028.66l-.968.285c-.942.279-1.933.573-2.919.835l.162.607zm-19.4-2.352l-.004.095-.002-.095c-.497.003-.995.038-1.48.101v.001c-1.472.186-2.833.622-3.973 1.022-3.07 1.083-5.85 1.433-7.872 1.513.918-6.615 6.508-11.541 13.265-11.55h.018c6.672 0 12.333 4.989 13.272 11.51-2.01-.083-4.744-.43-7.766-1.488-.902-.316-2.105-.706-3.385-.926l-.008.046.006-.046c-.724-.122-1.402-.183-2.071-.183m-14.268 3.917h.01c1.495-.004 3.58-.152 5.969-.684 1.035-.23 2.12-.524 3.249-.923 1.075-.379 2.356-.79 3.709-.961l1.318-.091 1.886.168c1.186.204 2.317.572 3.171.871 1.386.484 2.714.826 3.946 1.065 2.093.406 3.911.517 5.258.517h.021c1.293 0 2.926-.284 5.293-.92.996-.265 2-.562 2.951-.844l.963-.284c1.145-.334 3.244-.607 4.679-.609h.01c2.153 0 4.399.56 6.252 1.518-.044.502-.088.968-.134 1.396-1.922-.961-4.055-1.469-6.214-1.469h-.017c-1.379.003-3.637.251-5.031.66l-1.036.305c-.92.273-1.886.559-2.847.816-1.414.378-3.461.848-5.002.875-2.039 0-5.209-.263-8.779-1.511-.444-.155-.959-.327-1.516-.488-.588-.17-1.222-.327-1.873-.438-.721-.123-1.396-.183-2.074-.183-.498.002-.981.035-1.479.102v-.001c-.776.098-1.519.267-2.219.463-.625.175-1.217.37-1.756.561-3.584 1.262-6.766 1.531-8.804 1.534h-.012c-1.737 0-4.178-.63-6.338-1.245l-2.509-.729c-1.271-.37-3.392-.647-4.946-.647h-.027c-2.158.002-4.281.507-6.192 1.464-.045-.412-.089-.857-.131-1.334 1.889-.999 4.203-1.573 6.429-1.576h.016c1.431 0 3.448.261 4.605.598l2.512.731.173-.604-.172.604c2.358.672 4.8 1.293 6.688 1.293m33.572 3.861l-.164-.606c-2.211.595-3.791.873-4.969.875h-.02c-2.046 0-5.225-.263-8.792-1.512-.972-.338-2.132-.712-3.386-.924-1.277-.216-2.376-.241-3.56-.087-1.484.193-2.84.627-3.971 1.027-3.581 1.261-6.765 1.528-8.805 1.531h-.01c-1.751 0-4.185-.628-6.336-1.245l-.173.605.17-.605c-.614-.174-1.22-.351-1.805-.524l-.703-.205c-1.274-.37-3.399-.648-4.952-.648h-.019c-2.107.002-3.986.463-5.851 1.435-.048-.317-.115-.767-.187-1.336 1.843-1.01 3.917-1.559 6.035-1.561h.025c1.429 0 3.443.261 4.597.596l2.511.731.174-.604-.172.604c2.357.672 4.797 1.294 6.684 1.294h.014c2.136-.004 5.469-.285 9.219-1.606 1.076-.38 2.36-.789 3.711-.961l1.228-.091.075-.001 1.899.168c1.166.2 2.259.552 3.172.87 3.734 1.306 7.056 1.582 9.193 1.582h.032c1.289 0 2.923-.283 5.296-.917.971-.26 1.946-.549 2.877-.825l1.032-.304c1.136-.334 3.234-.607 4.681-.61h.016c2.12 0 4.206.546 6.058 1.559-.067.542-.13.975-.178 1.288-1.849-.927-3.783-1.381-5.881-1.381h-.013c-1.366.002-3.623.25-5.033.66l-1.047.308c-.916.272-1.879.557-2.834.813l.162.607zm16.59-15.658l-.123-2.172c-.143-2.007-.383-4.112-.723-6.261l-.242-1.461c-.141-.773-.293-1.553-.463-2.336l-.145-.655-.645.187c-.02.006-1.06.302-2.811.595l-4.244.482c-.843.054-1.738.089-2.683.092-2.47.002-4.888-.221-7.22-.645l-1.488-.294-.08-.014c-.03-.008-1.227-.262-3.046-.881l-1.979-.735c-1.977-.791-4.322-1.932-6.65-3.49l-1.945-1.414c-.362-.288-.725-.583-1.079-.895l-.433-.377-.414.394c-.013.013-.363.34-1.025.86l-1.987 1.43c-1.622 1.076-3.88 2.368-6.691 3.506l-1.979.74c-.956.326-1.959.634-3.018.904l-.082.018-1.718.374c-2.022.377-4.199.573-6.507.576-1.128 0-2.206-.043-3.216-.116l-4.252-.493c-1.682-.27-2.719-.531-2.74-.536l-.632-.159-.139.634c-.136.629-.251 1.251-.368 1.875l-.324 1.898c-.33 2.105-.56 4.165-.699 6.133l-.123 2.185c-.045 1.065-.069 2.093-.074 3.084l.016 2.117c.119 5.948.827 10.052.884 10.382.066.506 1.325 10.086 6.087 21.636 4.477 10.842 13.04 25.688 28.465 35.042l.67.403.664-.403c15.4-9.394 23.926-24.263 28.371-35.118 4.734-11.562 5.971-21.146 6.031-21.652.058-.327.746-4.384.859-10.273l.014-2.104c-.005-.987-.028-2.005-.074-3.063"/></g></svg>