<?xml version="1.0" encoding="utf-8"?>
<!-- Generator: Adobe Illustrator 15.0.0, SVG Export Plug-In . SVG Version: 6.00 Build 0)  -->
<!DOCTYPE svg PUBLIC "-//W3C//DTD SVG 1.1//EN" "http://www.w3.org/Graphics/SVG/1.1/DTD/svg11.dtd">
<svg version="1.1" id="Layer_1" xmlns="http://www.w3.org/2000/svg" xmlns:xlink="http://www.w3.org/1999/xlink" x="0px" y="0px"
	 width="110px" height="40px" viewBox="45 0 110 40" enable-background="new 45 0 110 40" xml:space="preserve">
<path fill="#B30838" d="M83.287,9.04c0-1.339-0.315-1.969-1.34-1.969h-1.812c-0.236,0-0.315-0.079-0.315-0.354V5.81
	c0-0.236,0.08-0.314,0.394-0.314c0.394,0,2.285,0.118,6.065,0.118c3.31,0,5.201-0.118,5.673-0.118c0.237,0,0.315,0.079,0.315,0.275
	v0.985c0,0.237-0.078,0.315-0.315,0.315h-1.655c-1.181,0-1.891,0.709-1.929,1.536c-0.04,0.472-0.119,2.836-0.119,5.121v4.884
	c0,1.97,0.039,4.766,0.119,6.026c0.117,1.812,0.433,3.624,1.378,4.884c1.339,1.812,3.466,2.442,5.357,2.442
	c1.812,0,4.018-0.709,5.278-1.891c1.496-1.497,2.285-3.781,2.285-6.656v-7.091c0-3.151-0.316-6.617-0.434-7.523
	c-0.119-1.023-0.749-1.732-1.615-1.732H99.2c-0.237,0-0.315-0.119-0.315-0.276V5.81c0-0.236,0.079-0.314,0.315-0.314
	c0.394,0,2.205,0.118,4.806,0.118c2.441,0,3.701-0.118,4.016-0.118c0.355,0,0.395,0.118,0.395,0.314v0.906
	c0,0.236-0.039,0.354-0.236,0.354h-1.418c-1.418,0-1.576,1.103-1.652,1.536c-0.08,0.472-0.08,5.987-0.08,6.499
	c0,0.552-0.078,7.405-0.236,8.981c-0.236,3.229-1.182,5.672-3.31,7.562c-1.653,1.497-4.174,2.441-7.168,2.441
	c-1.891,0-4.175-0.315-5.671-0.944c-2.285-0.945-3.86-2.758-4.648-5.279c-0.55-1.732-0.708-4.332-0.708-9.492V9.04z"/>
<path fill="#B30838" d="M109.521,24.717c0.158,0,0.234,0.079,0.234,0.315c0.08,1.26,0.395,2.757,1.498,4.489
	c1.182,1.892,3.23,2.837,5.199,2.837c2.127,0,5.121-1.34,5.121-4.609c0-3.623-1.654-4.806-5.83-6.381
	c-1.26-0.473-3.861-1.575-5.75-3.308c-1.34-1.261-1.971-3.231-1.971-5.633c0-2.206,0.865-4.017,2.758-5.515
	c1.574-1.338,3.309-1.891,5.594-1.891c2.6,0,4.176,0.63,4.963,0.946c0.395,0.157,0.629,0.08,0.826-0.118l0.512-0.512
	c0.158-0.158,0.316-0.237,0.551-0.237c0.238,0,0.316,0.237,0.316,0.63c0,0.63,0.631,6.145,0.631,6.539
	c0,0.158-0.078,0.236-0.236,0.276l-0.631,0.197c-0.156,0.039-0.314,0-0.395-0.237c-0.393-1.103-1.023-2.678-2.441-4.175
	c-1.023-1.103-2.283-1.655-4.096-1.655c-3.15,0-4.412,2.522-4.412,3.979c0,1.34,0.156,2.521,1.104,3.545
	c1.023,1.024,3.229,1.97,4.805,2.443c2.285,0.709,4.176,1.497,5.672,3.072c1.26,1.34,1.971,2.993,1.971,5.633
	c0,4.805-3.152,8.744-8.352,8.744c-3.229,0-5.121-0.709-6.695-1.891c-0.473-0.315-0.711-0.474-0.945-0.474
	c-0.236,0-0.395,0.316-0.633,0.711c-0.234,0.394-0.391,0.472-0.707,0.472c-0.314,0-0.473-0.236-0.473-0.629
	c0.08-0.474,0.631-6.854,0.709-7.327c0.039-0.236,0.08-0.315,0.236-0.315L109.521,24.717z"/>
<path fill="#B30838" d="M152.455,27.08c0.119,0.118,0.158,0.236,0.078,0.393c-2.363,3.389-6.145,6.618-11.736,6.618
	c-5.043,0-7.879-1.495-10.32-3.702c-2.914-2.601-4.254-7.169-4.254-10.635c0-3.86,1.26-7.563,4.018-10.557
	c2.127-2.285,5.514-4.175,10.24-4.175c3.625,0,6.539,1.103,7.957,1.89c0.553,0.316,0.709,0.316,0.787,0l0.316-1.023
	c0.078-0.236,0.158-0.236,0.629-0.236c0.473,0,0.553,0.078,0.553,0.63c0,0.709,0.787,7.011,0.945,8.193
	c0.039,0.236,0,0.354-0.158,0.394l-0.748,0.236c-0.197,0.079-0.314-0.079-0.434-0.393c-0.473-1.418-1.418-3.387-3.072-5.12
	c-1.734-1.655-3.781-2.915-6.854-2.915c-6.303,0-8.902,5.672-8.902,11.343c0,2.443,0.709,7.091,3.623,10.243
	c2.6,2.756,4.885,3.071,6.775,3.071c4.334,0,7.762-2.167,9.414-4.569c0.197-0.276,0.355-0.394,0.473-0.276L152.455,27.08z"/>
<path fill="#231F20" d="M74.337,9.826l-0.044-0.793c-0.054-0.735-0.141-1.504-0.266-2.292l-0.089-0.533
	c-0.05-0.284-0.106-0.568-0.169-0.855l-0.052-0.24l-0.235,0.069c-0.009,0.003-0.388,0.11-1.028,0.217l-1.553,0.176
	c-0.309,0.021-0.636,0.034-0.981,0.034c-0.905,0.001-1.79-0.081-2.642-0.237l-0.545-0.105c-0.01-0.003-0.021-0.004-0.028-0.006
	c-0.012-0.003-0.45-0.095-1.115-0.322l-0.724-0.271C64.14,4.38,63.282,3.962,62.43,3.393l-0.711-0.518
	c-0.133-0.105-0.266-0.213-0.395-0.328l-0.158-0.136l-0.153,0.144c-0.004,0.004-0.132,0.123-0.374,0.314l-0.726,0.522
	c-0.594,0.394-1.42,0.867-2.448,1.283L56.74,4.945c-0.349,0.118-0.716,0.232-1.104,0.332c-0.01,0.001-0.021,0.003-0.029,0.006
	L54.978,5.42c-0.74,0.136-1.536,0.209-2.38,0.209c-0.413,0-0.808-0.015-1.177-0.042l-1.555-0.18
	c-0.615-0.099-0.995-0.194-1.002-0.196l-0.23-0.059l-0.052,0.233c-0.05,0.229-0.092,0.458-0.134,0.685l-0.119,0.695
	c-0.121,0.771-0.206,1.525-0.256,2.244l-0.046,0.798c-0.016,0.389-0.024,0.766-0.026,1.128l0.005,0.775
	c0.044,2.177,0.303,3.678,0.324,3.798c0.024,0.185,0.484,3.69,2.226,7.916c1.638,3.966,4.772,9.397,10.415,12.82l0.245,0.148
	l0.244-0.148c5.635-3.438,8.753-8.877,10.379-12.847c1.732-4.23,2.185-7.738,2.206-7.922c0.022-0.122,0.272-1.605,0.315-3.76
	l0.005-0.77C74.362,10.586,74.354,10.213,74.337,9.826 M71.476,14.682h-0.007c-0.5,0.001-1.326,0.091-1.841,0.241l-0.395,0.116
	c-0.332,0.099-0.68,0.201-1.025,0.293l0.06,0.222l-0.06-0.222c-0.808,0.218-1.386,0.32-1.818,0.322h-0.01
	c-0.747,0-1.909-0.096-3.215-0.554c-0.353-0.123-0.778-0.26-1.238-0.338c-0.466-0.079-0.872-0.089-1.302-0.031
	c-0.541,0.07-1.038,0.23-1.453,0.375c-1.312,0.461-2.476,0.559-3.222,0.561h-0.003c-0.641,0-1.532-0.231-2.32-0.457l-0.062,0.223
	l0.062-0.223c-0.232-0.065-0.46-0.132-0.68-0.196l-0.237-0.069c-0.469-0.137-1.244-0.237-1.811-0.237H50.89
	c-0.77,0-1.456,0.179-2.137,0.534c-0.019-0.116-0.043-0.285-0.072-0.498c0.675-0.37,1.433-0.571,2.209-0.572h0.008
	c0.524,0,1.261,0.096,1.683,0.22l0.918,0.266l0.064-0.22l-0.063,0.22c0.863,0.246,1.756,0.474,2.447,0.474h0.003
	c0.784-0.001,2.004-0.105,3.373-0.588c0.394-0.139,0.862-0.289,1.354-0.351l0.452-0.034h0.028l0.695,0.062
	c0.43,0.073,0.846,0.208,1.16,0.319c1.368,0.476,2.584,0.577,3.367,0.577h0.01c0.471,0,1.067-0.103,1.937-0.336
	c0.363-0.097,0.728-0.205,1.076-0.309l0.355-0.104c0.415-0.122,1.183-0.223,1.711-0.223h0.004c0.777,0,1.54,0.199,2.218,0.569
	c-0.027,0.206-0.049,0.368-0.066,0.483C72.947,14.858,72.243,14.682,71.476,14.682 M48.464,11.745l7.747,0.584
	c-0.171,0.422-0.288,0.873-0.348,1.344c-0.627-0.024-1.455-0.234-2.199-0.445l-0.917-0.267c-0.465-0.135-1.243-0.237-1.812-0.237
	h-0.008c-0.821,0-1.668,0.206-2.391,0.551C48.502,12.82,48.476,12.307,48.464,11.745 M61.204,12.709l-0.001,0.034l0-0.034
	c-0.18,0.001-0.362,0.015-0.542,0.037c-0.54,0.069-1.039,0.229-1.453,0.375c-1.124,0.396-2.142,0.524-2.879,0.553
	c0.335-2.421,2.378-4.222,4.852-4.226h0.005c2.443,0,4.513,1.826,4.856,4.211c-0.735-0.03-1.735-0.158-2.84-0.544
	c-0.332-0.116-0.772-0.258-1.237-0.338l-0.004,0.01l0.001-0.01C61.698,12.732,61.449,12.709,61.204,12.709 M71.473,13.687h-0.006
	c-0.502,0-1.328,0.091-1.841,0.241l-0.355,0.105c-0.343,0.1-0.705,0.208-1.064,0.305l0.06,0.222l-0.06-0.222
	c-0.514,0.138-1.261,0.32-1.819,0.32h-0.008c-0.747,0-1.908-0.096-3.215-0.553c-0.333-0.114-0.775-0.258-1.24-0.339
	c-0.264-0.044-0.512-0.065-0.76-0.065c-0.182,0-0.359,0.012-0.542,0.036c-0.538,0.068-1.036,0.228-1.452,0.375
	c-1.31,0.461-2.476,0.56-3.222,0.562h-0.003c-0.636,0-1.529-0.231-2.32-0.456l-0.917-0.267c-0.465-0.135-1.241-0.237-1.812-0.237
	h-0.009c-0.79,0.001-1.562,0.195-2.263,0.547c-0.017-0.152-0.033-0.315-0.049-0.494c0.693-0.367,1.535-0.581,2.351-0.581h0.007
	c0.523,0,1.261,0.094,1.684,0.217l0.92,0.268l0.063-0.221l-0.062,0.221c0.861,0.246,1.754,0.475,2.445,0.475h0.005
	c0.782-0.001,2.003-0.107,3.372-0.588c0.392-0.139,0.859-0.288,1.354-0.352l0.486-0.033l0.691,0.06
	c0.431,0.075,0.845,0.21,1.158,0.319c1.366,0.479,2.583,0.58,3.365,0.58h0.01c0.473,0,1.071-0.104,1.937-0.336
	c0.361-0.097,0.724-0.204,1.069-0.307l0.364-0.106c0.418-0.123,1.186-0.223,1.712-0.224h0.003c0.786,0,1.61,0.206,2.286,0.556
	c-0.016,0.188-0.033,0.361-0.049,0.52C73.043,13.88,72.265,13.687,71.473,13.687 M71.504,12.696c-0.5,0.001-1.326,0.093-1.839,0.242
	l-0.364,0.107c-0.342,0.1-0.701,0.208-1.059,0.303c-0.489,0.131-1.187,0.299-1.734,0.315c-0.062-0.464-0.181-0.909-0.353-1.33
	l7.745-0.582c-0.012,0.538-0.035,1.032-0.066,1.473C73.126,12.896,72.306,12.712,71.504,12.696 M73.905,11.007l-7.871,1.053
	c-0.062-0.126-0.128-0.252-0.199-0.373l8.044-1.761C73.895,10.299,73.905,10.663,73.905,11.007 M73.593,6.942
	C73.71,7.705,73.79,8.45,73.838,9.16l-8.153,2.284c-0.142-0.219-0.299-0.425-0.47-0.621L73.593,6.942z M71.547,5.984
	c0.856-0.086,1.497-0.221,1.822-0.299c0.03,0.147,0.054,0.291,0.083,0.438l-8.421,4.505c-0.084-0.088-0.172-0.176-0.266-0.258
	L71.547,5.984z M67.29,5.844c0.849,0.149,1.728,0.225,2.628,0.224c0.109,0,0.211-0.003,0.315-0.006l-5.662,4.146
	c-0.229-0.186-0.473-0.354-0.73-0.501L67.29,5.844z M65.355,5.349c0.485,0.167,0.866,0.269,1.073,0.319l-2.895,3.871
	c-0.146-0.073-0.297-0.137-0.453-0.196L65.355,5.349z M62.363,3.899c0.813,0.527,1.618,0.916,2.305,1.192l-1.903,4.14
	c-0.352-0.109-0.718-0.186-1.094-0.22L62.363,3.899z M61.174,3.026c0.169,0.144,0.341,0.277,0.514,0.406L61.38,8.999
	c-0.065-0.002-0.127-0.01-0.195-0.01H61.18c-0.067,0-0.133,0.008-0.2,0.01l-0.308-5.574C60.893,3.259,61.064,3.121,61.174,3.026
	 M59.981,3.899l0.693,5.114c-0.383,0.036-0.754,0.115-1.111,0.227l-1.906-4.147C58.611,4.709,59.39,4.279,59.981,3.899
	 M56.973,5.353l2.274,3.995c-0.152,0.059-0.304,0.125-0.451,0.198L55.904,5.68C56.278,5.58,56.635,5.47,56.973,5.353 M52.598,6.089
	c0.872,0,1.696-0.074,2.463-0.217l3.428,3.839c-0.26,0.151-0.504,0.322-0.734,0.513l-5.66-4.143
	C52.26,6.086,52.426,6.09,52.598,6.089 M48.98,5.711c0.324,0.07,0.963,0.194,1.789,0.282l6.791,4.393
	c-0.092,0.083-0.176,0.17-0.26,0.259l-8.401-4.496C48.927,6.003,48.951,5.857,48.98,5.711 M48.762,6.965l8.362,3.874
	c-0.159,0.184-0.307,0.378-0.441,0.583l-8.159-2.287C48.571,8.438,48.647,7.712,48.762,6.965 M48.483,9.909l8.051,1.762
	c-0.07,0.124-0.136,0.249-0.198,0.379l-7.88-1.052C48.458,10.649,48.468,10.281,48.483,9.909 M71.407,23.235
	c-1.601,3.905-4.666,9.251-10.193,12.619c-5.536-3.352-8.616-8.692-10.228-12.592c-1.482-3.595-2.025-6.647-2.162-7.542
	c0.662-0.372,1.322-0.551,2.067-0.553h0.008c0.521,0,1.258,0.096,1.683,0.219l0.234,0.068c0.223,0.066,0.452,0.132,0.685,0.199
	c0.818,0.235,1.748,0.474,2.446,0.474h0.003c0.784-0.001,2.002-0.103,3.374-0.587c0.392-0.136,0.858-0.286,1.356-0.353l0.453-0.032
	h0.025l0.698,0.062c0.424,0.072,0.824,0.2,1.158,0.318c1.366,0.478,2.583,0.579,3.367,0.579h0.01
	c0.473-0.001,1.088-0.108,1.937-0.336c0.347-0.093,0.699-0.198,1.035-0.297l0.395-0.117c0.419-0.12,1.187-0.221,1.713-0.223h0.005
	c0.742,0,1.423,0.182,2.077,0.535C73.42,16.554,72.889,19.62,71.407,23.235"/>
<path fill="#231F20" d="M67.916,19.951c0.313-0.193,0.646-0.566,0.48-1.137c-0.003-0.008-0.397-0.769-0.204-1.376l0.065-0.206
	l-0.214,0.024c-0.032,0.003-0.323,0.053-0.658,0.428c-0.331-0.536-0.864-0.867-0.898-0.885l-0.532-0.315l0.345,0.513
	c0.062,0.093,0.224,0.398,0.155,0.592c-0.038,0.107-0.085,0.19-0.14,0.266c-0.353-0.357-0.892-0.504-0.914-0.509l-0.277-0.073
	l0.114,0.263c0.155,0.356,0.032,0.604-0.108,0.892c-0.105,0.213-0.223,0.454-0.221,0.75c0,0.384,0.189,0.631,0.373,0.769
	c-0.133,0.119-0.218,0.292-0.218,0.484c0.001,0.245,0.141,0.458,0.343,0.568c0.031,0.328,0.175,0.537,0.361,0.639l0.195,4.24
	c-0.254,0.062-0.447,0.279-0.447,0.552c0,0.292,0.22,0.522,0.499,0.566l0.082,1.77c0,0.276,0.224,0.5,0.5,0.5
	c0.276,0,0.5-0.224,0.5-0.494l0.083-1.772c0.291-0.032,0.522-0.271,0.521-0.569c0-0.282-0.204-0.506-0.47-0.56l0.195-4.238
	c0.059-0.027,0.116-0.059,0.162-0.104c0.128-0.128,0.196-0.314,0.21-0.55c0.047-0.027,0.098-0.052,0.138-0.092
	c0.123-0.122,0.191-0.287,0.19-0.46C68.125,20.238,68.044,20.07,67.916,19.951 M67.549,17.921c0.118-0.145,0.229-0.237,0.319-0.294
	c-0.069,0.644,0.265,1.284,0.271,1.293c0.159,0.55-0.386,0.816-0.519,0.873c-0.048-0.013-0.097-0.02-0.15-0.02h-0.283
	c0.206-0.267,0.462-0.71,0.458-1.261C67.646,18.279,67.549,17.921,67.549,17.921 M66.718,17.684c0.04-0.11,0.04-0.229,0.021-0.341
	c0.287,0.261,0.626,0.675,0.631,1.172c0.004,0.617-0.39,1.092-0.548,1.259h-0.1c-0.124-0.17-0.363-0.555-0.109-0.982
	c0.051-0.086,0.281-0.442,0.31-0.51c0.04-0.083,0.035-0.16,0.035-0.16c-0.039,0.063-0.106,0.138-0.106,0.138
	c-0.066,0.072-0.293,0.308-0.365,0.394c-0.375,0.455-0.123,0.951-0.023,1.121l-0.326,0.002c-0.559-0.751,0.039-1.338,0.075-1.375
	c0.042-0.047,0.083-0.092,0.121-0.134C66.488,18.098,66.624,17.952,66.718,17.684 M65.186,19.178c0-0.231,0.095-0.424,0.194-0.626
	c0.119-0.243,0.251-0.512,0.197-0.848c0.171,0.071,0.394,0.193,0.559,0.367c-0.003,0.003-0.006,0.006-0.009,0.007
	c-0.04,0.044-0.082,0.09-0.116,0.13c-0.009,0.008-0.715,0.698-0.207,1.568h-0.089c-0.051,0.001-0.1,0.008-0.148,0.018
	C65.488,19.759,65.187,19.601,65.186,19.178 M66.596,28.987c-0.123,0-0.223-0.099-0.223-0.228l-0.079-1.748h0.603l-0.081,1.754
	C66.817,28.889,66.718,28.987,66.596,28.987 M67.422,26.43c0,0.166-0.136,0.302-0.302,0.302l-1.021,0.002l-0.001,0.139v-0.139
	c-0.167,0-0.3-0.136-0.3-0.304c0-0.166,0.135-0.301,0.3-0.301l0.577-0.002l0.444-0.001C67.284,26.126,67.422,26.263,67.422,26.43
	 M66.951,25.847l-0.711,0.001l-0.19-4.136l1.071-0.001c0.008,0,0.014-0.005,0.023-0.006L66.951,25.847z M67.391,21.331
	c-0.066,0.066-0.158,0.099-0.27,0.099l-1.071,0.002c-0.18,0-0.304-0.132-0.351-0.353c0.006,0,0.013,0.002,0.018,0.002l1.755-0.003
	c0.01,0,0.019-0.006,0.029-0.006C67.481,21.18,67.45,21.271,67.391,21.331 M67.737,20.688c-0.071,0.072-0.164,0.111-0.265,0.111
	l-1.755,0.003c-0.207,0-0.373-0.168-0.375-0.374c0-0.205,0.167-0.373,0.374-0.373l0.285-0.001c0,0.001,0.002,0.003,0.002,0.004
	l0.003-0.004h0.377l1.09-0.002c0.204,0,0.373,0.168,0.373,0.373C67.846,20.525,67.808,20.618,67.737,20.688"/>
<path fill="#231F20" d="M56.975,19.965c0.313-0.192,0.645-0.567,0.481-1.137c-0.006-0.006-0.399-0.768-0.207-1.375l0.065-0.207
	l-0.215,0.025c-0.033,0.003-0.321,0.052-0.656,0.427c-0.332-0.535-0.866-0.865-0.898-0.884l-0.527-0.311l0.341,0.508
	c0.065,0.099,0.223,0.399,0.153,0.593c-0.038,0.107-0.084,0.189-0.139,0.265c-0.352-0.357-0.891-0.504-0.916-0.509l-0.276-0.074
	l0.114,0.263c0.155,0.355,0.033,0.604-0.108,0.892c-0.104,0.212-0.222,0.453-0.222,0.749c0,0.413,0.207,0.646,0.375,0.771
	c-0.009,0.009-0.02,0.012-0.028,0.021c-0.124,0.123-0.19,0.287-0.19,0.46c0,0.247,0.139,0.46,0.342,0.57
	c0.029,0.297,0.162,0.527,0.36,0.637l0.197,4.24c-0.254,0.062-0.447,0.282-0.447,0.556c0,0.291,0.218,0.521,0.497,0.562l0.082,1.771
	c0,0.276,0.226,0.502,0.501,0.502c0.275,0,0.5-0.226,0.5-0.496l0.082-1.771c0.132-0.015,0.255-0.063,0.35-0.16
	c0.111-0.111,0.171-0.256,0.17-0.41c0-0.279-0.204-0.504-0.47-0.56l0.194-4.231c0.062-0.028,0.122-0.06,0.169-0.107
	c0.124-0.124,0.189-0.309,0.205-0.542c0.194-0.114,0.329-0.322,0.329-0.563C57.184,20.253,57.101,20.084,56.975,19.965
	 M56.605,17.935c0.119-0.145,0.232-0.237,0.321-0.294c-0.069,0.643,0.264,1.284,0.271,1.292c0.159,0.551-0.385,0.817-0.517,0.872
	c-0.049-0.01-0.099-0.017-0.149-0.017h-0.284c0.206-0.268,0.464-0.711,0.458-1.261C56.704,18.293,56.605,17.935,56.605,17.935
	 M55.775,17.698c0.04-0.112,0.04-0.231,0.02-0.345c0.288,0.262,0.628,0.675,0.632,1.175c0.004,0.617-0.389,1.094-0.549,1.26h-0.098
	c-0.124-0.169-0.364-0.555-0.11-0.982c0.05-0.088,0.282-0.442,0.312-0.511c0.035-0.083,0.031-0.159,0.031-0.159
	c-0.038,0.062-0.104,0.136-0.104,0.136c-0.068,0.073-0.293,0.308-0.364,0.395c-0.376,0.456-0.123,0.953-0.027,1.122l-0.325,0.001
	c-0.559-0.749,0.038-1.339,0.075-1.374c0.041-0.047,0.082-0.091,0.119-0.131C55.545,18.113,55.68,17.966,55.775,17.698
	 M54.244,19.191c0-0.23,0.095-0.423,0.195-0.626c0.119-0.243,0.251-0.511,0.196-0.849c0.171,0.072,0.395,0.193,0.558,0.366
	c-0.004,0.003-0.006,0.008-0.011,0.012c-0.038,0.043-0.08,0.087-0.114,0.128c-0.009,0.008-0.715,0.694-0.208,1.566h-0.087
	c-0.046,0-0.087,0.018-0.131,0.028C54.609,19.804,54.245,19.659,54.244,19.191 M55.655,29c-0.123,0-0.224-0.099-0.224-0.227
	l-0.08-1.747l0.606-0.002l-0.082,1.754C55.875,28.901,55.776,29,55.655,29 M56.479,26.443c0,0.081-0.031,0.157-0.088,0.214
	c-0.058,0.058-0.134,0.089-0.215,0.089h-1.019l-0.002,0.14v-0.14c-0.166,0-0.302-0.135-0.302-0.301c0-0.167,0.136-0.303,0.302-0.303
	h0.578l0.442-0.002C56.343,26.141,56.479,26.276,56.479,26.443 M56.01,25.861l-0.711,0.002l-0.191-4.14h0.001l1.069-0.001
	c0.009,0,0.014-0.002,0.022-0.002L56.01,25.861z M56.452,21.348c-0.063,0.063-0.155,0.097-0.275,0.097l-1.068,0.001
	c-0.176,0-0.303-0.135-0.352-0.353c0.008,0,0.012,0.002,0.019,0.002l1.754-0.002c0.01,0,0.021-0.003,0.03-0.003
	C56.54,21.197,56.509,21.291,56.452,21.348 M56.53,20.812l-1.754,0.003c-0.207,0-0.374-0.167-0.374-0.373
	c0-0.1,0.038-0.193,0.108-0.264c0.07-0.071,0.164-0.111,0.263-0.111h0.286c0,0,0.001,0.002,0.001,0.003l0.004-0.003h0.378
	l0.551-0.001h0.538c0.206,0,0.372,0.167,0.373,0.373C56.904,20.646,56.737,20.812,56.53,20.812"/>
<path fill="#231F20" d="M62.887,20.39c0.287-0.224,0.704-0.705,0.472-1.505c-0.002-0.009-0.324-0.808-0.044-1.685l0.064-0.207
	l-0.215,0.025c-0.016,0.001-0.39,0.058-0.829,0.521c-0.422-0.884-1.332-1.432-1.381-1.462l-0.461-0.273l0.271,0.464
	c0.003,0.004,0.303,0.526,0.176,0.883c-0.056,0.157-0.125,0.277-0.203,0.388c-0.48-0.512-1.213-0.688-1.245-0.696l-0.27-0.062
	l0.111,0.254c0.227,0.522,0.051,0.878-0.152,1.294c-0.15,0.307-0.306,0.623-0.305,1.024c0,0.554,0.295,0.898,0.556,1.072
	c-0.204,0.157-0.338,0.402-0.338,0.677c0.001,0.337,0.199,0.624,0.48,0.765c0.047,0.318,0.238,0.646,0.507,0.801l-0.009,0.001
	l0.28,6.082c-0.354,0.062-0.625,0.371-0.625,0.743c0.001,0.396,0.307,0.718,0.693,0.75l0.117,2.516c0,0.171,0.067,0.333,0.188,0.455
	c0.122,0.121,0.283,0.188,0.454,0.188h0.003c0.172,0,0.333-0.067,0.455-0.189c0.121-0.122,0.189-0.285,0.188-0.449l0.117-2.518
	c0.403-0.016,0.728-0.348,0.728-0.755c-0.001-0.384-0.289-0.697-0.658-0.747l0.28-6.099h0c0.272-0.167,0.472-0.489,0.514-0.794
	c0.075-0.038,0.146-0.088,0.208-0.148c0.162-0.163,0.251-0.379,0.25-0.606C63.264,20.804,63.114,20.544,62.887,20.39 M62.979,17.379
	c-0.182,0.865,0.109,1.577,0.118,1.598c0.23,0.794-0.338,1.186-0.513,1.283c-0.056-0.01-0.116-0.018-0.177-0.018l-0.558,0.002
	c0.291-0.353,0.707-0.997,0.7-1.819c-0.001-0.21-0.04-0.409-0.1-0.598C62.653,17.587,62.843,17.453,62.979,17.379 M61.203,17.246
	c0.076-0.213,0.049-0.45-0.006-0.652c0.431,0.35,1.07,1.008,1.075,1.833c0.009,0.906-0.58,1.596-0.796,1.818h-0.07
	c-0.114-0.175-0.24-0.453-0.24-0.771c0-0.612,0.297-0.968,0.297-0.968s-0.377,0.254-0.442,0.817
	c-0.031,0.271,0.028,0.555,0.204,0.922h-0.358c-0.136-0.2-0.505-0.78-0.119-1.432c0.072-0.12,0.458-0.617,0.5-0.713
	c0.05-0.115,0.046-0.223,0.046-0.223c-0.054,0.089-0.148,0.193-0.148,0.193c-0.092,0.101-0.41,0.431-0.509,0.55
	c-0.572,0.695-0.101,1.459-0.003,1.625h-0.217c-0.84-1.097,0.041-1.966,0.09-2.012c0.056-0.065,0.11-0.124,0.163-0.182
	C60.885,17.816,61.071,17.614,61.203,17.246 M59.157,19.354c0-0.335,0.134-0.61,0.276-0.901c0.183-0.373,0.37-0.756,0.249-1.257
	c0.246,0.09,0.616,0.265,0.879,0.56c-0.031,0.034-0.062,0.069-0.096,0.106c-0.053,0.057-0.111,0.119-0.16,0.176
	c-0.012,0.01-1.016,0.987-0.231,2.206h-0.121c-0.074,0-0.143,0.015-0.213,0.031C59.676,20.253,59.158,20.03,59.157,19.354
	 M61.547,32.76c0,0.096-0.038,0.188-0.106,0.258c-0.069,0.068-0.16,0.106-0.257,0.106h-0.001c-0.098,0-0.189-0.038-0.258-0.106
	c-0.069-0.067-0.107-0.159-0.107-0.264l-0.116-2.501l0.962-0.002L61.547,32.76z M62.391,29.493c0,0.265-0.215,0.479-0.478,0.479
	l-1.425,0.002c-0.264,0-0.48-0.215-0.48-0.479c0-0.265,0.215-0.479,0.477-0.479l1.076-0.002h0.35
	C62.174,29.015,62.39,29.229,62.391,29.493 M61.734,28.736l-1.102,0.001l-0.274-5.983c0.021,0.003,0.041,0.01,0.062,0.01h0.001
	l1.497-0.002c0.031,0,0.062-0.009,0.092-0.013L61.734,28.736z M61.917,22.483l-1.497,0.002h-0.001c-0.238,0-0.455-0.26-0.539-0.532
	c0.024,0.001,0.049,0.007,0.073,0.007l2.455-0.004c0.031,0,0.061-0.006,0.09-0.008C62.41,22.214,62.167,22.483,61.917,22.483
	 M62.817,21.508c-0.109,0.108-0.254,0.169-0.408,0.169l-2.455,0.003c-0.318,0-0.577-0.258-0.579-0.576
	c0-0.318,0.259-0.578,0.577-0.578c0,0,1.635,0,1.639-0.003h0.817c0.318,0,0.576,0.257,0.576,0.576
	C62.985,21.254,62.926,21.398,62.817,21.508"/>
</svg>
