<?xml version="1.0" encoding="utf-8"?>
<!-- Generator: Adobe Illustrator 15.0.0, SVG Export Plug-In . SVG Version: 6.00 Build 0)  -->
<!DOCTYPE svg PUBLIC "-//W3C//DTD SVG 1.1//EN" "http://www.w3.org/Graphics/SVG/1.1/DTD/svg11.dtd">
<svg version="1.1" id="Layer_1" xmlns="http://www.w3.org/2000/svg" xmlns:xlink="http://www.w3.org/1999/xlink" x="0px" y="0px"
	 width="136.895px" height="14.568px" viewBox="0 0 136.895 14.568" enable-background="new 0 0 136.895 14.568"
	 xml:space="preserve">
<g enable-background="new    ">
	<path fill="#F47924" d="M0.156,2.14h1.811l0.54,3.657c0.108,0.816,0.216,1.644,0.324,2.471h0.048
		c0.144-0.827,0.3-1.654,0.456-2.471l0.84-3.657h1.499l0.852,3.657C6.68,6.59,6.837,7.429,6.992,8.268H7.04
		c0.096-0.839,0.204-1.667,0.312-2.471l0.54-3.657h1.691L8.192,9.96H5.973L5.205,6.41c-0.12-0.6-0.228-1.235-0.312-1.812H4.845
		C4.75,5.175,4.654,5.81,4.534,6.41L3.79,9.96H1.607L0.156,2.14z"/>
	<path fill="#F47924" d="M10.38,2.212c0-0.539,0.432-0.911,1.02-0.911c0.6,0,1.019,0.372,1.019,0.911
		c0,0.54-0.419,0.924-1.019,0.924C10.812,3.135,10.38,2.752,10.38,2.212z M10.524,4.01h1.763V9.96h-1.763V4.01z"/>
	<path fill="#F47924" d="M13.836,1.552h1.763v6.632c0,0.372,0.168,0.492,0.312,0.492c0.072,0,0.12,0,0.216-0.024l0.216,1.308
		c-0.192,0.084-0.492,0.144-0.888,0.144c-1.211,0-1.619-0.791-1.619-1.99V1.552z"/>
	<path fill="#F47924" d="M19.726,3.867c1.691,0,2.531,1.235,2.531,2.854c0,0.312-0.036,0.6-0.072,0.744h-3.562
		c0.156,0.899,0.756,1.295,1.547,1.295c0.443,0,0.852-0.132,1.283-0.396l0.587,1.067c-0.611,0.419-1.403,0.671-2.111,0.671
		c-1.703,0-3.01-1.151-3.01-3.118C16.92,5.054,18.299,3.867,19.726,3.867z M20.758,6.374c0-0.684-0.288-1.163-0.995-1.163
		c-0.552,0-1.032,0.371-1.151,1.163H20.758z"/>
	<path fill="#F47924" d="M23.939,10.895c0.588,0,0.888-0.312,1.043-0.779l0.084-0.312L22.776,4.01h1.775l0.852,2.555
		c0.168,0.54,0.312,1.104,0.468,1.691h0.048c0.132-0.563,0.264-1.127,0.408-1.691l0.72-2.555h1.691l-2.062,6.009
		c-0.564,1.5-1.2,2.268-2.603,2.268c-0.36,0-0.6-0.049-0.84-0.12l0.312-1.344C23.652,10.847,23.807,10.895,23.939,10.895z"/>
	<path fill="#F47924" d="M29.796,2.14h2.854c1.703,0,3.058,0.623,3.058,2.519c0,1.835-1.403,2.65-3.058,2.65h-1.08v2.65h-1.775V2.14
		z M32.542,5.906c0.971,0,1.439-0.432,1.439-1.247s-0.504-1.115-1.439-1.115h-0.972v2.362H32.542z"/>
	<path fill="#F47924" d="M37.055,2.14h1.775v6.332h3.083V9.96h-4.857V2.14z"/>
	<path fill="#F47924" d="M42.767,2.14h1.763v4.377c0,1.535,0.479,2.063,1.355,2.063s1.392-0.528,1.392-2.063V2.14h1.703v4.197
		c0,2.627-1.067,3.766-3.094,3.766s-3.118-1.139-3.118-3.766V2.14z"/>
	<path fill="#F47924" d="M51.155,7.765c0.552,0.479,1.271,0.815,1.919,0.815c0.731,0,1.091-0.288,1.091-0.756
		c0-0.492-0.444-0.647-1.127-0.936l-1.007-0.432c-0.815-0.324-1.583-0.995-1.583-2.135c0-1.296,1.163-2.327,2.782-2.327
		c0.899,0,1.847,0.36,2.519,1.031l-0.887,1.116c-0.516-0.396-1.007-0.624-1.631-0.624c-0.6,0-0.995,0.264-0.995,0.708
		c0,0.479,0.516,0.647,1.199,0.923l0.995,0.408c0.948,0.384,1.547,1.02,1.547,2.123c0,1.295-1.08,2.422-2.938,2.422
		c-1.02,0-2.099-0.384-2.902-1.127L51.155,7.765z"/>
	<path fill="#F47924" d="M59.783,2.14h1.775v6.332h3.083V9.96h-4.857V2.14z"/>
	<path fill="#F47924" d="M68.134,3.867c1.69,0,2.53,1.235,2.53,2.854c0,0.312-0.035,0.6-0.072,0.744h-3.562
		c0.156,0.899,0.756,1.295,1.547,1.295c0.444,0,0.852-0.132,1.284-0.396l0.587,1.067c-0.611,0.419-1.403,0.671-2.111,0.671
		c-1.703,0-3.01-1.151-3.01-3.118C65.327,5.054,66.707,3.867,68.134,3.867z M69.165,6.374c0-0.684-0.288-1.163-0.995-1.163
		c-0.552,0-1.032,0.371-1.151,1.163H69.165z"/>
	<path fill="#F47924" d="M74.889,6.134C74.854,5.606,74.59,5.27,73.954,5.27c-0.504,0-1.008,0.204-1.583,0.54l-0.624-1.164
		c0.755-0.455,1.606-0.779,2.542-0.779c1.523,0,2.363,0.863,2.363,2.687V9.96h-1.439l-0.132-0.611h-0.036
		c-0.504,0.443-1.066,0.755-1.738,0.755c-1.08,0-1.764-0.791-1.764-1.799C71.543,7.057,72.539,6.374,74.889,6.134z M73.906,8.736
		c0.407,0,0.672-0.191,0.982-0.503V7.189c-1.259,0.168-1.666,0.527-1.666,0.983C73.223,8.556,73.487,8.736,73.906,8.736z"/>
	<path fill="#F47924" d="M78.167,4.01h1.438l0.121,1.044h0.047c0.432-0.804,1.08-1.188,1.691-1.188c0.336,0,0.54,0.048,0.707,0.12
		L81.885,5.51c-0.216-0.061-0.396-0.097-0.647-0.097c-0.444,0-0.995,0.288-1.308,1.092V9.96h-1.763V4.01z"/>
	<path fill="#F47924" d="M82.944,4.01h1.438l0.12,0.756h0.048c0.504-0.479,1.104-0.899,1.907-0.899c1.295,0,1.847,0.911,1.847,2.398
		V9.96h-1.763V6.494c0-0.864-0.229-1.128-0.732-1.128c-0.443,0-0.719,0.204-1.104,0.576V9.96h-1.762V4.01z"/>
	<path fill="#F47924" d="M89.663,2.212c0-0.539,0.432-0.911,1.02-0.911c0.6,0,1.019,0.372,1.019,0.911
		c0,0.54-0.419,0.924-1.019,0.924C90.095,3.135,89.663,2.752,89.663,2.212z M89.807,4.01h1.764V9.96h-1.764V4.01z"/>
	<path fill="#F47924" d="M93.119,4.01h1.438l0.12,0.756h0.048c0.504-0.479,1.104-0.899,1.907-0.899c1.295,0,1.847,0.911,1.847,2.398
		V9.96h-1.763V6.494c0-0.864-0.229-1.128-0.732-1.128c-0.443,0-0.719,0.204-1.104,0.576V9.96h-1.762V4.01z"/>
	<path fill="#F47924" d="M100.463,9.78V9.732c-0.312-0.204-0.553-0.516-0.553-1.008c0-0.432,0.289-0.852,0.672-1.115V7.561
		c-0.42-0.288-0.803-0.852-0.803-1.548c0-1.427,1.175-2.146,2.458-2.146c0.336,0,0.659,0.048,0.924,0.144h2.171v1.284h-0.947
		c0.107,0.18,0.191,0.468,0.191,0.779c0,1.367-1.031,2.003-2.339,2.003c-0.216,0-0.456-0.036-0.72-0.12
		c-0.156,0.132-0.216,0.24-0.216,0.443c0,0.3,0.24,0.444,0.899,0.444h0.96c1.463,0,2.267,0.443,2.267,1.511
		c0,1.235-1.283,2.135-3.322,2.135c-1.391,0-2.494-0.455-2.494-1.511C99.612,10.487,99.91,10.092,100.463,9.78z M102.381,11.386
		c0.792,0,1.367-0.323,1.367-0.731c0-0.371-0.323-0.468-0.911-0.468h-0.611c-0.407,0-0.647-0.023-0.84-0.071
		c-0.216,0.191-0.323,0.371-0.323,0.587C101.063,11.147,101.59,11.386,102.381,11.386z M103.053,6.013
		c0-0.623-0.348-0.959-0.815-0.959s-0.815,0.324-0.815,0.959c0,0.66,0.348,0.996,0.815,0.996S103.053,6.674,103.053,6.013z"/>
	<path fill="#F47924" d="M107.038,7.765c0.552,0.479,1.271,0.815,1.919,0.815c0.731,0,1.092-0.288,1.092-0.756
		c0-0.492-0.444-0.647-1.128-0.936l-1.007-0.432c-0.816-0.324-1.584-0.995-1.584-2.135c0-1.296,1.164-2.327,2.783-2.327
		c0.898,0,1.847,0.36,2.518,1.031l-0.887,1.116c-0.516-0.396-1.008-0.624-1.631-0.624c-0.6,0-0.996,0.264-0.996,0.708
		c0,0.479,0.516,0.647,1.199,0.923l0.996,0.408c0.947,0.384,1.547,1.02,1.547,2.123c0,1.295-1.08,2.422-2.938,2.422
		c-1.02,0-2.099-0.384-2.902-1.127L107.038,7.765z"/>
	<path fill="#F47924" d="M114.801,10.427v1.739h-1.762V4.01h1.438l0.12,0.588h0.048c0.468-0.42,1.067-0.731,1.69-0.731
		c1.439,0,2.327,1.188,2.327,3.022c0,2.039-1.224,3.214-2.507,3.214c-0.516,0-0.995-0.228-1.415-0.623L114.801,10.427z
		 M115.749,8.665c0.611,0,1.103-0.528,1.103-1.751c0-1.067-0.323-1.607-1.031-1.607c-0.359,0-0.671,0.168-1.02,0.54v2.435
		C115.114,8.568,115.449,8.665,115.749,8.665z"/>
	<path fill="#F47924" d="M122.912,6.134c-0.035-0.527-0.299-0.863-0.935-0.863c-0.504,0-1.008,0.204-1.583,0.54l-0.624-1.164
		c0.755-0.455,1.606-0.779,2.542-0.779c1.523,0,2.363,0.863,2.363,2.687V9.96h-1.439l-0.132-0.611h-0.036
		c-0.504,0.443-1.066,0.755-1.738,0.755c-1.08,0-1.764-0.791-1.764-1.799C119.567,7.057,120.563,6.374,122.912,6.134z M121.93,8.736
		c0.407,0,0.672-0.191,0.982-0.503V7.189c-1.259,0.168-1.666,0.527-1.666,0.983C121.246,8.556,121.51,8.736,121.93,8.736z"/>
	<path fill="#F47924" d="M128.937,3.867c0.731,0,1.343,0.276,1.739,0.684l-0.804,1.092c-0.288-0.24-0.552-0.348-0.827-0.348
		c-0.852,0-1.392,0.659-1.392,1.69s0.563,1.691,1.331,1.691c0.432,0,0.779-0.204,1.068-0.432l0.707,1.115
		c-0.576,0.504-1.332,0.743-1.979,0.743c-1.656,0-2.939-1.139-2.939-3.118C125.842,5.007,127.293,3.867,128.937,3.867z"/>
	<path fill="#F47924" d="M133.917,3.867c1.69,0,2.53,1.235,2.53,2.854c0,0.312-0.035,0.6-0.072,0.744h-3.562
		c0.155,0.899,0.756,1.295,1.548,1.295c0.443,0,0.852-0.132,1.283-0.396l0.587,1.067c-0.611,0.419-1.403,0.671-2.11,0.671
		c-1.703,0-3.011-1.151-3.011-3.118C131.111,5.054,132.49,3.867,133.917,3.867z M134.948,6.374c0-0.684-0.288-1.163-0.995-1.163
		c-0.552,0-1.031,0.371-1.151,1.163H134.948z"/>
</g>
</svg>
