<svg xmlns="http://www.w3.org/2000/svg" width="1680" height="1576"><g><radialGradient id="a" cx="815.093" cy="797.59" r="628.797" gradientUnits="userSpaceOnUse"><stop offset="0" stop-opacity=".2"/><stop offset="1" stop-opacity=".03"/></radialGradient><path fill="url(#a)" d="M264.318 1005.699l.349.082-41.482 16.002c91.47 230.925 312.21 396.553 572.964 407.615l24.943-641.398-556.774 217.699z"/><radialGradient id="b" cx="814.557" cy="797.535" r="628.773" gradientTransform="matrix(.309 -.951 .951 .309 -181.875 1324.955)" gradientUnits="userSpaceOnUse"><stop offset="0" stop-opacity=".2"/><stop offset="1" stop-opacity=".03"/></radialGradient><path fill="url(#b)" d="M856.084 1384.797l.185-.307 2.4 44.397c247.888-15.634 473.622-174.389 564.721-418.962l-602.298-221.925 34.992 596.797z"/><radialGradient id="c" cx="815.315" cy="797.454" r="628.8" gradientTransform="matrix(-.809 -.588 .588 -.809 1022.428 1908.15)" gradientUnits="userSpaceOnUse"><stop offset="0" stop-opacity=".2"/><stop offset="1" stop-opacity=".03"/></radialGradient><path fill="url(#c)" d="M1399.492 939.141l-.234-.27 42.966 11.437c61.733-240.586-19.496-504.331-223.948-666.548l-397.184 504.24 578.4 151.141z"/><radialGradient id="d" cx="814.957" cy="797.811" r="628.799" gradientTransform="matrix(-.809 .588 -.588 -.809 1948.561 943.114)" gradientUnits="userSpaceOnUse"><stop offset="0" stop-opacity=".2"/><stop offset="1" stop-opacity=".03"/></radialGradient><path fill="url(#d)" d="M1143.57 284.614l-.329.139 24.154-37.328c-209.734-133.057-485.671-137.305-703.128 7.013l356.825 533.562 322.478-503.386z"/><radialGradient id="e" cx="815.042" cy="797.052" r="628.775" gradientTransform="matrix(.309 .951 -.951 .309 1316.347 -236.217)" gradientUnits="userSpaceOnUse"><stop offset="0" stop-opacity=".2"/><stop offset="1" stop-opacity=".03"/></radialGradient><path fill="url(#e)" d="M441.994 325.75l.031.356-28.037-34.507c-191.357 158.352-280.666 419.471-210.609 670.881l617.713-174.48-379.098-462.25z"/><g opacity=".45"><path fill="#2E2E2E" d="M223.184 1021.783l41.482-16.002-104.063-24.35-69.036 91.122 27.091-10.45c107.108 271.432 366.354 466.192 672.651 479.19l4.838-111.896c-260.752-11.061-481.493-176.689-572.963-407.614z"/><path fill="#474747" d="M858.669 1428.888l-2.4-44.397-55.315 91.446 65.33 93.814-1.567-28.995c291.245-17.988 556.585-204.361 663.599-491.65l-104.925-39.18c-91.1 244.573-316.834 403.328-564.722 418.962z"/><path fill="#1A1A1A" d="M1442.224 950.308l-42.966-11.437 69.877 80.866 109.412-33.142-28.061-7.471c72.891-282.548-22.365-592.494-262.524-783.047l-69.687 87.682c204.453 162.218 285.682 425.963 223.949 666.549z"/><path fill="#595959" d="M1167.396 247.425l-24.154 37.328 98.502-41.467 2.291-114.299-15.776 24.379c-246.197-156.636-570.407-161.82-825.848 7.701l61.856 93.37c217.458-144.317 493.394-140.069 703.129-7.012z"/><path d="M413.988 291.599l28.037 34.507-8.999-106.495-107.997-37.499 18.311 22.537c-225.048 185.744-330.165 492.484-247.876 787.808l107.915-29.977c-70.057-251.41 19.252-512.529 210.609-670.881z"/></g></g><g fill="#fff"><path d="M1137.131 1440.559l-19.465-38.285 6.164-3.134 25.848 19.034-12.998-25.566 5.9-3.001 19.466 38.286-6.372 3.239-25.333-18.54 12.693 24.967-5.903 3zM1158 1406.062c-2.555-4.434-4.003-8.463-4.344-12.087-.343-3.624.141-6.748 1.446-9.372 1.306-2.623 3.464-4.803 6.477-6.539 4.365-2.516 8.884-2.899 13.556-1.15 4.67 1.749 8.781 5.703 12.332 11.862 3.589 6.228 4.937 11.931 4.045 17.111-.771 4.57-3.348 8.117-7.73 10.643-4.416 2.546-8.785 3.023-13.105 1.433-4.931-1.825-9.156-5.792-12.677-11.901zm6.2-3.912c2.468 4.282 5.132 7.024 7.991 8.227 2.861 1.203 5.495 1.111 7.902-.275 2.423-1.396 3.819-3.615 4.188-6.658.369-3.041-.714-6.762-3.25-11.162-2.487-4.315-5.101-7.058-7.841-8.229-2.741-1.172-5.365-1.034-7.874.412-2.507 1.445-3.95 3.663-4.327 6.652-.375 2.99.695 6.668 3.211 11.033zM1204.083 1403.686l-23.37-36.035 12.561-8.146c3.211-2.082 5.717-3.247 7.512-3.492 1.797-.245 3.655.144 5.576 1.167 1.922 1.024 3.604 2.651 5.05 4.879 1.828 2.819 2.624 5.526 2.388 8.124-.235 2.598-1.456 4.925-3.66 6.983 1.874.089 3.582.406 5.124.954 1.543.548 3.948 1.764 7.218 3.646l8.148 4.703-7.117 4.615-9.402-5.041c-3.393-1.827-5.599-2.917-6.617-3.269-1.02-.352-1.928-.46-2.726-.327-.8.134-1.886.646-3.263 1.539l-1.229.798 9.756 15.043-5.949 3.859zm-7.538-24.654l4.425-2.869c2.703-1.754 4.347-2.988 4.931-3.705.583-.715.869-1.582.861-2.601-.01-1.02-.401-2.126-1.177-3.323-.744-1.146-1.571-1.919-2.481-2.318-.911-.399-1.844-.475-2.801-.226-.674.181-2.347 1.137-5.017 2.869l-4.671 3.029 5.93 9.144zM1234.859 1383.542l-25.298-34.709 8.593-6.262 22.448 19.927-12.14-27.441 8.634-6.292 25.297 34.708-5.351 3.9-19.931-27.346 14.257 31.48-5.529 4.029-25.561-23.24 19.931 27.346-5.35 3.9zM1268.45 1358.543l-26.633-33.694 5.562-4.396 26.632 33.694-5.561 4.396zM1280.155 1349.352l-27.802-32.737 5.27-4.476 29.553 12.531-18.565-21.861 5.046-4.286 27.803 32.737-5.449 4.627-28.938-12.17 18.129 21.349-5.047 4.286zM1309.177 1302.672l-4.989-5.281 11.139-10.521 11.748 12.437c.127 2.38-.391 5.019-1.551 7.914-1.16 2.896-2.776 5.323-4.85 7.281-2.527 2.388-5.343 3.872-8.447 4.454s-6.392.167-9.86-1.245c-3.47-1.411-6.786-3.792-9.952-7.143-3.245-3.436-5.45-6.914-6.614-10.437-1.165-3.521-1.404-6.747-.72-9.678.685-2.93 2.297-5.596 4.839-7.997 3.053-2.884 6.232-4.416 9.539-4.599 3.308-.182 6.646.984 10.015 3.498l-4.005 5.999c-1.899-1.242-3.761-1.806-5.59-1.692-1.826.113-3.449.842-4.87 2.183-2.2 2.079-3.174 4.617-2.92 7.616.254 2.998 2.036 6.251 5.349 9.758 3.555 3.762 6.995 5.926 10.322 6.49 2.86.496 5.369-.275 7.526-2.314 1.008-.952 1.832-2.178 2.47-3.678.639-1.5.997-3.063 1.072-4.689l-3.729-3.948-5.922 5.592zM271.141 1260.436l32.082-28.555 7.597 8.534c2.831 3.182 4.528 5.396 5.091 6.646.894 2.003.982 4.231.265 6.688-.717 2.454-2.352 4.818-4.905 7.092-2.32 2.063-4.653 3.355-7.001 3.877-2.348.521-4.423.407-6.227-.341-1.802-.748-4.133-2.729-6.99-5.938l-3.098-3.479-12.101 10.772-4.713-5.296zm31.368-18.429l-9.125 8.123 2.616 2.939c1.757 1.973 3.09 3.192 3.999 3.653.909.463 1.927.598 3.055.407 1.128-.191 2.218-.755 3.271-1.693 1.067-.949 1.759-1.984 2.073-3.104s.29-2.132-.073-3.041c-.363-.908-1.534-2.475-3.512-4.696l-2.304-2.588zM293.92 1285.735l30.715-30.021 18.266 18.689-5.196 5.078-13.31-13.618-6.81 6.655 12.369 12.654-5.176 5.058-12.369-12.654-8.338 8.149 13.761 14.08-5.196 5.078-18.716-19.148zM317.866 1309.984l29.22-31.477 10.972 10.184c2.805 2.604 4.547 4.748 5.225 6.429.678 1.683.755 3.579.233 5.692s-1.688 4.144-3.495 6.091c-2.286 2.462-4.717 3.896-7.292 4.304-2.577.407-5.132-.207-7.667-1.841.373 1.839.482 3.572.328 5.202-.153 1.629-.743 4.26-1.769 7.892l-2.565 9.05-6.217-5.77 2.587-10.351c.941-3.736 1.457-6.142 1.549-7.217.091-1.074-.025-1.981-.35-2.724-.324-.74-1.088-1.669-2.29-2.785l-1.074-.996-12.199 13.14-5.196-4.823zm22.058-13.34l3.865 3.587c2.362 2.192 3.961 3.484 4.798 3.874.836.392 1.748.457 2.733.199.985-.259 1.963-.909 2.933-1.954.93-1.002 1.477-1.993 1.641-2.973.163-.981.008-1.904-.466-2.771-.341-.609-1.678-1.997-4.011-4.163l-4.08-3.787-7.413 7.988zM344.953 1334.776l27.719-32.807 18.44 15.58-4.689 5.549-13.024-11.004-6.562 7.766 11.279 9.529-4.688 5.551-11.28-9.53-11.779 13.942-5.416-4.576zM380.643 1337.148c3.108-4.063 6.269-6.952 9.482-8.663 3.213-1.711 6.281-2.469 9.206-2.272 2.923.195 5.766 1.349 8.529 3.459 4.003 3.061 6.096 7.084 6.281 12.067.184 4.986-1.883 10.301-6.201 15.948-4.366 5.71-9.111 9.15-14.235 10.321-4.514 1.049-8.781.037-12.798-3.036-4.05-3.096-6.173-6.945-6.368-11.543-.213-5.252 1.822-10.678 6.104-16.281zm5.996 4.216c-3.001 3.927-4.506 7.44-4.515 10.544-.01 3.103 1.089 5.498 3.296 7.186 2.222 1.699 4.808 2.133 7.758 1.303 2.949-.83 5.966-3.263 9.051-7.297 3.025-3.957 4.55-7.425 4.575-10.404.025-2.98-1.111-5.35-3.412-7.107-2.299-1.759-4.901-2.236-7.806-1.433s-5.886 3.205-8.947 7.208zM400.567 1378.754l24.251-35.448 12.355 8.454c3.159 2.161 5.199 4.023 6.117 5.587.918 1.563 1.275 3.429 1.071 5.595-.205 2.168-1.057 4.348-2.557 6.539-1.897 2.773-4.089 4.55-6.577 5.333-2.488.783-5.106.554-7.854-.688.64 1.763 1.004 3.463 1.093 5.098.089 1.634-.106 4.322-.584 8.065l-1.201 9.33-7.001-4.79 1.03-10.619c.379-3.833.535-6.288.467-7.365-.068-1.076-.318-1.956-.749-2.642s-1.323-1.49-2.677-2.417l-1.208-.827-10.124 14.798-5.852-4.003zm19.847-16.453l4.352 2.978c2.66 1.819 4.433 2.86 5.317 3.124.886.262 1.796.193 2.733-.208.936-.4 1.807-1.188 2.612-2.365.771-1.128 1.166-2.19 1.184-3.184.018-.994-.273-1.885-.87-2.672-.427-.553-1.954-1.727-4.581-3.524l-4.595-3.143-6.152 8.994zM431.043 1399.416l22.271-36.724 9.092 5.514-9.731 28.396 20.638-21.781 9.135 5.539-22.271 36.725-5.662-3.434 17.546-28.934-23.549 25.294-5.849-3.547 11.587-32.548-17.546 28.934-5.661-3.434zM467.07 1420.773l20.812-37.57 6.202 3.436-20.811 37.569-6.203-3.435zM480.069 1428.027l19.469-38.282 6.164 3.135-.153 32.099 13.001-25.565 5.901 3.001-19.469 38.283-6.371-3.24.056-31.393-12.696 24.965-5.902-3.003zM534.335 1436.777l2.945-6.642 14.007 6.209-6.934 15.642c-2.147 1.035-4.78 1.578-7.9 1.626-3.119.048-5.982-.505-8.589-1.661-3.178-1.409-5.635-3.433-7.371-6.071-1.736-2.641-2.623-5.831-2.661-9.577-.038-3.744.876-7.724 2.745-11.938 1.916-4.321 4.273-7.698 7.072-10.132 2.798-2.435 5.682-3.901 8.649-4.402 2.966-.5 6.049-.042 9.245 1.375 3.838 1.701 6.481 4.043 7.926 7.022 1.445 2.98 1.659 6.51.642 10.589l-7.081-1.378c.412-2.23.213-4.168-.598-5.809-.81-1.641-2.108-2.858-3.894-3.648-2.768-1.228-5.485-1.145-8.153.247s-4.979 4.292-6.935 8.703c-2.098 4.731-2.765 8.739-2 12.027.646 2.829 2.327 4.846 5.041 6.05 1.268.562 2.717.848 4.347.856 1.63.009 3.21-.265 4.739-.822l2.202-4.966-7.444-3.3zM689.539 127.492l-7.68-42.257 23.75-4.322 1.299 7.148-16.775 3.053 1.818 10.002 14.527-2.643 1.299 7.148-14.526 2.644 3.263 17.958-6.975 1.269zM714.105 101.472c-.664-5.074-.461-9.351.609-12.831 1.072-3.48 2.711-6.182 4.922-8.109 2.21-1.925 5.039-3.115 8.485-3.568 4.996-.657 9.317.715 12.964 4.117s5.932 8.627 6.854 15.676c.934 7.127-.004 12.913-2.809 17.359-2.461 3.929-6.198 6.223-11.213 6.883-5.055.665-9.273-.563-12.656-3.685-3.855-3.57-6.24-8.851-7.156-15.842zm7.224-1.246c.642 4.9 2.054 8.453 4.235 10.657 2.184 2.206 4.651 3.127 7.406 2.765 2.772-.365 4.912-1.882 6.416-4.553 1.504-2.67 1.928-6.522 1.268-11.558-.646-4.938-2.011-8.472-4.095-10.602-2.085-2.129-4.562-3.005-7.432-2.628-2.87.378-5.051 1.876-6.543 4.495-1.49 2.62-1.91 6.428-1.255 11.424zM755.439 117.638l-3.291-42.822 14.926-1.159c3.816-.297 6.572-.123 8.267.518 1.694.643 3.142 1.872 4.339 3.689s1.897 4.05 2.102 6.698c.257 3.35-.339 6.109-1.789 8.279-1.449 2.169-3.633 3.632-6.553 4.387 1.604.974 2.95 2.068 4.043 3.286s2.625 3.435 4.596 6.651l4.907 8.022-8.458.658-5.846-8.92c-2.105-3.226-3.521-5.236-4.249-6.032-.728-.795-1.474-1.326-2.238-1.589-.764-.264-1.964-.333-3.6-.206l-1.461.113 1.374 17.877-7.069.55zm5.169-25.262l5.258-.408c3.213-.25 5.247-.549 6.102-.899s1.521-.976 2.001-1.875c.479-.898.664-2.059.555-3.48-.104-1.363-.462-2.438-1.07-3.223-.609-.785-1.393-1.297-2.352-1.537-.678-.162-2.604-.121-5.778.126l-5.55.431.834 10.865zM789.834 115.057l-.914-42.939 10.63-.236 7.025 29.177 5.728-29.461 10.681-.237.913 42.94-6.619.146-.72-33.83-6.299 33.986-6.84.152-7.687-33.675.721 33.83-6.619.147zM830.055 114.553l.787-42.942 7.089.124-.788 42.942-7.088-.124zM843.472 114.71l2.32-42.886 6.904.367 12.845 29.405 1.549-28.64 6.611.352-2.319 42.886-7.139-.379-12.646-28.72-1.513 27.967-6.612-.352zM895.979 102.752l.78-7.224 15.234 1.633-1.836 17.011c-1.729 1.641-4.072 2.961-7.028 3.961-2.957.998-5.852 1.347-8.688 1.043-3.457-.371-6.414-1.547-8.872-3.529-2.457-1.982-4.275-4.75-5.454-8.304-1.178-3.554-1.52-7.622-1.024-12.205.508-4.699 1.723-8.635 3.646-11.808 1.924-3.172 4.224-5.45 6.897-6.833 2.672-1.383 5.748-1.888 9.225-1.515 4.175.447 7.404 1.869 9.691 4.264 2.284 2.396 3.564 5.691 3.838 9.884l-7.164.853c-.287-2.25-1.066-4.033-2.34-5.348-1.272-1.315-2.88-2.077-4.822-2.285-3.01-.322-5.573.586-7.689 2.727-2.117 2.14-3.435 5.608-3.953 10.404-.555 5.146.032 9.167 1.764 12.063 1.479 2.496 3.693 3.902 6.646 4.219 1.378.147 2.846-.023 4.401-.513 1.556-.489 2.977-1.232 4.263-2.23l.583-5.4-8.098-.868zM1409.166 431.721l4.183 5.603c-4.363 3.419-5.46 7.007-3.291 10.762 1.073 1.86 2.405 3.044 3.991 3.548 1.588.505 3.102.342 4.539-.488.845-.487 1.456-1.089 1.833-1.801.377-.715.535-1.562.477-2.542-.059-.981-.486-3.192-1.28-6.636-.721-3.079-.967-5.496-.741-7.25.227-1.754.888-3.428 1.986-5.02 1.099-1.593 2.518-2.89 4.257-3.895 2.029-1.171 4.121-1.764 6.275-1.778 2.155-.015 4.115.552 5.882 1.696 1.767 1.146 3.337 2.912 4.714 5.297 2.071 3.585 2.715 6.945 1.932 10.082-.783 3.135-2.951 5.806-6.502 8.014l-3.89-5.974c1.839-1.423 2.897-2.812 3.176-4.169.276-1.354-.063-2.86-1.02-4.519-.957-1.657-2.04-2.735-3.249-3.231-1.21-.498-2.328-.449-3.357.145-1.012.584-1.629 1.481-1.85 2.694-.223 1.212.098 3.522.958 6.926.889 3.612 1.237 6.393 1.043 8.342-.194 1.948-.863 3.737-2.009 5.366-1.144 1.631-2.832 3.09-5.064 4.379-3.23 1.863-6.52 2.436-9.865 1.718-3.347-.719-6.24-3.192-8.683-7.421-4.317-7.477-2.465-14.092 5.555-19.848zM1417.471 475.177l31.687-16.409-4.814-9.285 6.451-3.342 12.88 24.839-6.452 3.341-4.801-9.259-31.687 16.409-3.264-6.294zM1445.562 483.249c4.651-2.131 8.799-3.197 12.44-3.2 3.642-.004 6.707.767 9.2 2.311 2.492 1.544 4.464 3.896 5.913 7.057 2.103 4.578 2.066 9.111-.108 13.6-2.175 4.487-6.493 8.209-12.956 11.171-6.535 2.992-12.342 3.804-17.418 2.435-4.48-1.191-7.775-4.087-9.885-8.684-2.127-4.633-2.197-9.026-.214-13.179 2.275-4.739 6.617-8.574 13.028-11.511zm3.321 6.535c-4.492 2.058-7.471 4.454-8.934 7.189-1.463 2.736-1.615 5.365-.457 7.891 1.168 2.542 3.248 4.138 6.244 4.789 2.995.65 6.801-.082 11.418-2.196 4.528-2.074 7.502-4.422 8.923-7.041 1.419-2.618 1.525-5.243.317-7.875-1.207-2.63-3.281-4.272-6.226-4.926-2.941-.652-6.703.071-11.285 2.169zM1442.314 527.518l39.948-15.771 5.511 13.92c1.408 3.56 2.057 6.243 1.942 8.051-.114 1.81-.861 3.555-2.245 5.235-1.383 1.68-3.311 3.006-5.78 3.982-3.125 1.233-5.938 1.478-8.438.731-2.5-.744-4.542-2.4-6.125-4.967-.457 1.818-1.105 3.429-1.947 4.831-.842 1.404-2.509 3.521-5.001 6.353l-6.219 7.054-3.122-7.887 6.799-8.217c2.461-2.964 3.965-4.909 4.511-5.839.546-.929.832-1.798.858-2.605.026-.809-.262-1.976-.866-3.502l-.539-1.362-16.677 6.586-2.61-6.593zm25.663-2.509l1.941 4.903c1.186 2.995 2.072 4.851 2.66 5.563.586.713 1.38 1.167 2.381 1.359 1.001.193 2.164.027 3.49-.496 1.271-.502 2.192-1.16 2.764-1.974.57-.813.829-1.713.774-2.698-.044-.696-.652-2.525-1.824-5.485l-2.049-5.176-10.137 4.004zM1454.925 559.62l40.762-13.534 3.36 10.088-25.809 15.316 29.84-3.214 3.376 10.136-40.762 13.533-2.092-6.281 32.114-10.662-34.334 4.002-2.161-6.491 29.911-17.273-32.113 10.662-2.092-6.282zM1467.264 597.896l41.265-11.907 1.973 6.81-41.266 11.908-1.972-6.811zM1471.068 610.764l41.664-10.43 1.685 6.706-24.312 20.944 27.822-6.965 1.613 6.422-41.664 10.429-1.742-6.933 23.717-20.554-27.17 6.801-1.613-6.42zM1497.972 657.424l7.132-1.384 2.928 15.04-16.795 3.26c-2.078-1.167-4.03-3.017-5.855-5.548-1.826-2.53-3.012-5.194-3.557-7.994-.664-3.413-.412-6.585.759-9.518 1.169-2.934 3.279-5.486 6.328-7.66 3.05-2.174 6.836-3.7 11.361-4.578 4.64-.901 8.759-.899 12.357.003 3.597.902 6.452 2.428 8.562 4.576 2.108 2.146 3.498 4.936 4.166 8.367.803 4.122.396 7.629-1.221 10.52-1.615 2.89-4.388 5.084-8.314 6.582l-2.925-6.594c2.065-.939 3.54-2.209 4.421-3.813.882-1.604 1.136-3.363.763-5.282-.578-2.971-2.202-5.152-4.871-6.544s-6.371-1.629-11.106-.709c-5.082.987-8.75 2.732-11.008 5.24-1.95 2.149-2.641 4.682-2.073 7.596.265 1.36.86 2.712 1.786 4.055.926 1.342 2.055 2.481 3.387 3.417l5.332-1.036-1.557-7.996zM151.384 715.601l-.626 7.684-9.945 2.282-1.145 14.051 9.458 3.695-.613 7.533-41.694-17.167.612-7.505 43.953-10.573zm-17.998 11.655l-16.28 3.548 15.498 6.054.782-9.602zM109.204 707.068l1.713-12.854c.432-3.248 1.123-5.65 2.068-7.207.947-1.557 2.374-2.916 4.282-4.078 1.908-1.162 4.291-1.955 7.145-2.381s6.325-.365 10.409.183c3.678.491 6.822 1.335 9.431 2.532 2.609 1.195 4.622 2.537 6.04 4.025 1.417 1.489 2.408 3.191 2.969 5.107.563 1.916.654 4.295.276 7.139l-1.763 13.229-42.57-5.695zm8.138-6.064l28.167 3.77.704-5.285c.302-2.266.308-3.935.018-5.008-.291-1.074-.822-1.992-1.597-2.756-.773-.764-2.061-1.482-3.86-2.158-1.8-.674-4.218-1.213-7.254-1.62-3.152-.422-5.666-.536-7.542-.345-1.876.193-3.397.68-4.564 1.459-1.167.779-2.003 1.807-2.507 3.078-.383.955-.763 2.845-1.139 5.672l-.426 3.193zM116.597 658.107l1.254-6.979 26.755 4.832c4.325.78 7.466 1.794 9.425 3.041 1.958 1.247 3.35 2.832 4.175 4.758.825 1.926 1.01 4.147.558 6.665-.599 3.326-2.209 5.725-4.835 7.194-2.626 1.473-6.248 1.801-10.864.986l.264-6.77c2.493.371 4.31.369 5.448-.002 1.558-.496 2.471-1.494 2.741-3 .264-1.466-.056-2.639-.959-3.519-.903-.88-3.123-1.64-6.66-2.278l-27.302-4.928zM140.342 648.754c-4.986-1.147-8.924-2.83-11.813-5.048-2.887-2.218-4.848-4.698-5.883-7.442-1.035-2.743-1.164-5.809-.387-9.198 1.125-4.911 3.918-8.482 8.376-10.714 4.458-2.229 10.152-2.548 17.081-.953 7.004 1.611 12.101 4.509 15.291 8.689 2.824 3.678 3.671 7.98 2.542 12.911-1.139 4.969-3.761 8.495-7.865 10.575-4.689 2.369-10.471 2.762-17.342 1.18zm1.35-7.205c4.817 1.109 8.637 1.025 11.465-.251 2.827-1.276 4.551-3.269 5.171-5.976.625-2.727-.051-5.261-2.029-7.604-1.978-2.34-5.44-4.082-10.39-5.221-4.854-1.117-8.641-1.07-11.363.141-2.722 1.209-4.406 3.225-5.052 6.047-.647 2.821-.002 5.389 1.932 7.7 1.934 2.313 5.356 4.035 10.266 5.164zM128.599 603.871l1.95-6.816 22.358 6.422c3.472.998 5.759 1.562 6.858 1.695 1.908.223 3.521-.094 4.841-.945 1.321-.854 2.248-2.211 2.782-4.074.452-1.58.468-2.97.05-4.17-.419-1.199-1.199-2.161-2.343-2.887-1.144-.727-3.771-1.68-7.882-2.86l-22.836-6.56 1.951-6.816 21.681 6.229c5.539 1.59 9.457 3.036 11.756 4.336 2.3 1.301 3.917 3.209 4.854 5.723.936 2.516.918 5.472-.055 8.87-1.011 3.53-2.433 6.104-4.267 7.722-1.834 1.615-4.028 2.541-6.583 2.771-2.555.232-6.92-.539-13.097-2.314l-22.018-6.326zM179.596 582.361l-40.615-13.966 4.855-14.161c1.242-3.621 2.494-6.083 3.755-7.385 1.262-1.3 2.964-2.141 5.106-2.519 2.143-.378 4.471-.136 6.983.729 3.177 1.092 5.473 2.733 6.89 4.925 1.417 2.191 1.893 4.777 1.429 7.756 1.528-1.085 3.068-1.888 4.619-2.408 1.552-.52 4.195-1.046 7.929-1.58l9.311-1.321-2.751 8.024-10.507 1.828c-3.795.654-6.203 1.156-7.221 1.509-1.019.352-1.801.826-2.347 1.423-.546.598-1.084 1.672-1.617 3.225l-.475 1.385 16.956 5.83-2.3 6.706zm-21.14-14.765l1.711-4.989c1.045-3.048 1.576-5.034 1.593-5.957.018-.924-.291-1.784-.927-2.58-.635-.797-1.627-1.428-2.975-1.892-1.292-.443-2.42-.543-3.383-.295-.962.247-1.743.764-2.343 1.549-.418.559-1.145 2.344-2.177 5.355l-1.805 5.265 10.306 3.544zM191.03 549.529l-39.843-16.039 2.578-6.416 31.979-2.664-26.607-10.71 2.469-6.145 39.841 16.04-2.665 6.633-31.267 2.698 25.981 10.459-2.466 6.144zM204.22 517.516l-39.246-17.447 2.878-6.48 39.245 17.449-2.877 6.478zM209.586 505.244l-38.599-18.837 3.031-6.215 32.094-.376-25.776-12.58 2.903-5.95 38.599 18.836-3.134 6.425-31.387.462 25.17 12.283-2.901 5.952zM219.064 452.223l-6.35-3.531 7.449-13.389 14.953 8.314c.837 2.231 1.139 4.902.906 8.014-.234 3.109-1.044 5.912-2.43 8.404-1.69 3.037-3.928 5.301-6.713 6.792-2.784 1.49-6.044 2.087-9.777 1.786-3.733-.299-7.614-1.568-11.643-3.81-4.13-2.298-7.282-4.949-9.454-7.955-2.171-3.007-3.372-6.011-3.603-9.011-.231-3 .503-6.027 2.203-9.082 2.041-3.67 4.612-6.09 7.71-7.261s6.633-1.065 10.603.315l-2.009 6.928c-2.185-.613-4.132-.589-5.84.07-1.708.66-3.037 1.844-3.985 3.549-1.473 2.646-1.636 5.359-.491 8.143 1.146 2.781 3.827 5.346 8.042 7.689 4.524 2.516 8.457 3.541 11.8 3.076 2.876-.389 5.036-1.881 6.48-4.476.673-1.212 1.09-2.628 1.246-4.251s.026-3.221-.392-4.794l-4.747-2.64-3.958 7.12z"/></g></svg>