<?xml version="1.0" encoding="utf-8" ?>
<!-- Generator: Adobe Illustrator 15.0.0, SVG Export Plug-In . SVG Version: 6.00 Build 0)  -->
<!DOCTYPE svg PUBLIC "-//W3C//DTD SVG 1.1//EN" "http://www.w3.org/Graphics/SVG/1.1/DTD/svg11.dtd">
<svg version="1.1" xmlns="http://www.w3.org/2000/svg" xmlns:xlink="http://www.w3.org/1999/xlink" x="0px" y="0px" width="1680px" height="1576px" viewBox="0 0 1680 1576" enable-background="new 0 0 1680 1576" xml:space="preserve">
	<g id="SHAPES">
		<g>
			<radialGradient id="SVGID_1_" cx="815.0928" cy="797.5898" r="628.7974" gradientUnits="userSpaceOnUse">
				<stop offset="0" style="stop-color:#000000;stop-opacity:0.2" />
				<stop offset="1" style="stop-color:#000000;stop-opacity:0.03" />
			</radialGradient>
			<path fill="url(#SVGID_1_)" d="M264.318,1005.699l0.349,0.082l-41.482,16.002c91.47,230.925,312.21,396.553,572.964,407.615
			L821.092,788L264.318,1005.699z" />
			<radialGradient id="SVGID_3_" cx="814.5566" cy="797.5352" r="628.7731" gradientTransform="matrix(0.309 -0.9511 0.9511 0.309 -181.875 1324.9545)" gradientUnits="userSpaceOnUse">
				<stop offset="0" style="stop-color:#000000;stop-opacity:0.2" />
				<stop offset="1" style="stop-color:#000000;stop-opacity:0.03" />
			</radialGradient>
			<path fill="url(#SVGID_3_)" d="M856.084,1384.797l0.185-0.307l2.4,44.397c247.888-15.634,473.622-174.389,564.721-418.962
			L821.092,788L856.084,1384.797z" />
			<radialGradient id="SVGID_5_" cx="815.3154" cy="797.4541" r="628.8003" gradientTransform="matrix(-0.809 -0.5878 0.5878 -0.809 1022.428 1908.15)" gradientUnits="userSpaceOnUse">
				<stop offset="0" style="stop-color:#000000;stop-opacity:0.2" />
				<stop offset="1" style="stop-color:#000000;stop-opacity:0.03" />
			</radialGradient>
			<path fill="url(#SVGID_5_)" d="M1399.492,939.141l-0.234-0.27l42.966,11.437c61.733-240.586-19.496-504.331-223.948-666.548
			L821.092,788L1399.492,939.141z" />
			<radialGradient id="SVGID_7_" cx="814.9565" cy="797.8105" r="628.7993" gradientTransform="matrix(-0.809 0.5878 -0.5878 -0.809 1948.5613 943.1144)" gradientUnits="userSpaceOnUse">
				<stop offset="0" style="stop-color:#000000;stop-opacity:0.2" />
				<stop offset="1" style="stop-color:#000000;stop-opacity:0.03" />
			</radialGradient>
			<path fill="url(#SVGID_7_)" d="M1143.57,284.614l-0.329,0.139l24.154-37.328c-209.734-133.057-485.671-137.305-703.128,7.013
			L821.092,788L1143.57,284.614z" />
			<radialGradient id="SVGID_9_" cx="815.0415" cy="797.0518" r="628.775" gradientTransform="matrix(0.309 0.9511 -0.9511 0.309 1316.3472 -236.2174)" gradientUnits="userSpaceOnUse">
				<stop offset="0" style="stop-color:#000000;stop-opacity:0.2" />
				<stop offset="1" style="stop-color:#000000;stop-opacity:0.03" />
			</radialGradient>
			<path fill="url(#SVGID_9_)" d="M441.994,325.75l0.031,0.356l-28.037-34.507C222.631,449.951,133.322,711.07,203.379,962.48
			L821.092,788L441.994,325.75z" />
		</g>
		<g opacity="0.45">
			<path fill="#2E2E2E" d="M223.184,1021.783l41.482-16.002l-104.063-24.35l-69.036,91.122l27.091-10.45
			c107.108,271.432,366.354,466.192,672.651,479.19l4.838-111.896C535.395,1418.336,314.654,1252.708,223.184,1021.783z" />
			<path fill="#474747" d="M858.669,1428.888l-2.4-44.397l-55.315,91.446l65.33,93.814l-1.567-28.995
			c291.245-17.988,556.585-204.361,663.599-491.65l-104.925-39.18C1332.291,1254.499,1106.557,1413.254,858.669,1428.888z" />
			<path fill="#1A1A1A" d="M1442.224,950.308l-42.966-11.437l69.877,80.866l109.412-33.142l-28.061-7.471
			c72.891-282.548-22.365-592.494-262.524-783.047l-69.687,87.682C1422.728,445.977,1503.957,709.722,1442.224,950.308z" />
			<path fill="#595959" d="M1167.396,247.425l-24.154,37.328l98.502-41.467l2.291-114.299l-15.776,24.379
			C982.062-3.27,657.852-8.454,402.411,161.067l61.856,93.37C681.725,110.12,957.661,114.368,1167.396,247.425z" />
			<path d="M413.988,291.599l28.037,34.507l-8.999-106.495l-107.997-37.499l18.311,22.537
			C118.292,390.393,13.175,697.133,95.464,992.457l107.915-29.977C133.322,711.07,222.631,449.951,413.988,291.599z" />
		</g>
	</g>
	<g id="CIRCLE_TEXT">
		<g>
			<path fill="#FFFFFF" d="M1137.131,1440.559l-19.465-38.285l6.164-3.134l25.848,19.034l-12.998-25.566l5.9-3.001l19.466,38.286
			l-6.372,3.239l-25.333-18.54l12.693,24.967L1137.131,1440.559z" />
			<path fill="#FFFFFF" d="M1158,1406.062c-2.555-4.434-4.003-8.463-4.344-12.087c-0.343-3.624,0.141-6.748,1.446-9.372
			c1.306-2.623,3.464-4.803,6.477-6.539c4.365-2.516,8.884-2.899,13.556-1.15c4.67,1.749,8.781,5.703,12.332,11.862
			c3.589,6.228,4.937,11.931,4.045,17.111c-0.771,4.57-3.348,8.117-7.73,10.643c-4.416,2.546-8.785,3.023-13.105,1.433
			C1165.746,1416.138,1161.521,1412.171,1158,1406.062z M1164.2,1402.15c2.468,4.282,5.132,7.024,7.991,8.227
			c2.861,1.203,5.495,1.111,7.902-0.275c2.423-1.396,3.819-3.615,4.188-6.658c0.369-3.041-0.714-6.762-3.25-11.162
			c-2.487-4.315-5.101-7.058-7.841-8.229c-2.741-1.172-5.365-1.034-7.874,0.412c-2.507,1.445-3.95,3.663-4.327,6.652
			C1160.614,1394.107,1161.684,1397.785,1164.2,1402.15z" />
			<path fill="#FFFFFF" d="M1204.083,1403.686l-23.37-36.035l12.561-8.146c3.211-2.082,5.717-3.247,7.512-3.492
			c1.797-0.245,3.655,0.144,5.576,1.167c1.922,1.024,3.604,2.651,5.05,4.879c1.828,2.819,2.624,5.526,2.388,8.124
			c-0.235,2.598-1.456,4.925-3.66,6.983c1.874,0.089,3.582,0.406,5.124,0.954c1.543,0.548,3.948,1.764,7.218,3.646l8.148,4.703
			l-7.117,4.615l-9.402-5.041c-3.393-1.827-5.599-2.917-6.617-3.269c-1.02-0.352-1.928-0.46-2.726-0.327
			c-0.8,0.134-1.886,0.646-3.263,1.539l-1.229,0.798l9.756,15.043L1204.083,1403.686z M1196.545,1379.032l4.425-2.869
			c2.703-1.754,4.347-2.988,4.931-3.705c0.583-0.715,0.869-1.582,0.861-2.601c-0.01-1.02-0.401-2.126-1.177-3.323
			c-0.744-1.146-1.571-1.919-2.481-2.318c-0.911-0.399-1.844-0.475-2.801-0.226c-0.674,0.181-2.347,1.137-5.017,2.869l-4.671,3.029
			L1196.545,1379.032z" />
			<path fill="#FFFFFF" d="M1234.859,1383.542l-25.298-34.709l8.593-6.262l22.448,19.927l-12.14-27.441l8.634-6.292l25.297,34.708
			l-5.351,3.9l-19.931-27.346l14.257,31.48l-5.529,4.029l-25.561-23.24l19.931,27.346L1234.859,1383.542z" />
			<path fill="#FFFFFF" d="M1268.45,1358.543l-26.633-33.694l5.562-4.396l26.632,33.694L1268.45,1358.543z" />
			<path fill="#FFFFFF" d="M1280.155,1349.352l-27.802-32.737l5.27-4.476l29.553,12.531l-18.565-21.861l5.046-4.286l27.803,32.737
			l-5.449,4.627l-28.938-12.17l18.129,21.349L1280.155,1349.352z" />
			<path fill="#FFFFFF" d="M1309.177,1302.672l-4.989-5.281l11.139-10.521l11.748,12.437c0.127,2.38-0.391,5.019-1.551,7.914
			c-1.16,2.896-2.776,5.323-4.85,7.281c-2.527,2.388-5.343,3.872-8.447,4.454s-6.392,0.167-9.86-1.245
			c-3.47-1.411-6.786-3.792-9.952-7.143c-3.245-3.436-5.45-6.914-6.614-10.437c-1.165-3.521-1.404-6.747-0.72-9.678
			c0.685-2.93,2.297-5.596,4.839-7.997c3.053-2.884,6.232-4.416,9.539-4.599c3.308-0.182,6.646,0.984,10.015,3.498l-4.005,5.999
			c-1.899-1.242-3.761-1.806-5.59-1.692c-1.826,0.113-3.449,0.842-4.87,2.183c-2.2,2.079-3.174,4.617-2.92,7.616
			c0.254,2.998,2.036,6.251,5.349,9.758c3.555,3.762,6.995,5.926,10.322,6.49c2.86,0.496,5.369-0.275,7.526-2.314
			c1.008-0.952,1.832-2.178,2.47-3.678c0.639-1.5,0.997-3.063,1.072-4.689l-3.729-3.948L1309.177,1302.672z" />
		</g>
		<g>
			<path fill="#FFFFFF" d="M271.141,1260.436l32.082-28.555l7.597,8.534c2.831,3.182,4.528,5.396,5.091,6.646
			c0.894,2.003,0.982,4.231,0.265,6.688c-0.717,2.454-2.352,4.818-4.905,7.092c-2.32,2.063-4.653,3.355-7.001,3.877
			c-2.348,0.521-4.423,0.407-6.227-0.341c-1.802-0.748-4.133-2.729-6.99-5.938l-3.098-3.479l-12.101,10.772L271.141,1260.436z
			 M302.509,1242.007l-9.125,8.123l2.616,2.939c1.757,1.973,3.09,3.192,3.999,3.653c0.909,0.463,1.927,0.598,3.055,0.407
			c1.128-0.191,2.218-0.755,3.271-1.693c1.067-0.949,1.759-1.984,2.073-3.104s0.29-2.132-0.073-3.041
			c-0.363-0.908-1.534-2.475-3.512-4.696L302.509,1242.007z" />
			<path fill="#FFFFFF" d="M293.92,1285.735l30.715-30.021l18.266,18.689l-5.196,5.078l-13.31-13.618l-6.81,6.655l12.369,12.654
			l-5.176,5.058l-12.369-12.654l-8.338,8.149l13.761,14.08l-5.196,5.078L293.92,1285.735z" />
			<path fill="#FFFFFF" d="M317.866,1309.984l29.22-31.477l10.972,10.184c2.805,2.604,4.547,4.748,5.225,6.429
			c0.678,1.683,0.755,3.579,0.233,5.692s-1.688,4.144-3.495,6.091c-2.286,2.462-4.717,3.896-7.292,4.304
			c-2.577,0.407-5.132-0.207-7.667-1.841c0.373,1.839,0.482,3.572,0.328,5.202c-0.153,1.629-0.743,4.26-1.769,7.892l-2.565,9.05
			l-6.217-5.77l2.587-10.351c0.941-3.736,1.457-6.142,1.549-7.217c0.091-1.074-0.025-1.981-0.35-2.724
			c-0.324-0.74-1.088-1.669-2.29-2.785l-1.074-0.996l-12.199,13.14L317.866,1309.984z M339.924,1296.644l3.865,3.587
			c2.362,2.192,3.961,3.484,4.798,3.874c0.836,0.392,1.748,0.457,2.733,0.199c0.985-0.259,1.963-0.909,2.933-1.954
			c0.93-1.002,1.477-1.993,1.641-2.973c0.163-0.981,0.008-1.904-0.466-2.771c-0.341-0.609-1.678-1.997-4.011-4.163l-4.08-3.787
			L339.924,1296.644z" />
			<path fill="#FFFFFF" d="M344.953,1334.776l27.719-32.807l18.44,15.58l-4.689,5.549l-13.024-11.004l-6.562,7.766l11.279,9.529
			l-4.688,5.551l-11.28-9.53l-11.779,13.942L344.953,1334.776z" />
			<path fill="#FFFFFF" d="M380.643,1337.148c3.108-4.063,6.269-6.952,9.482-8.663c3.213-1.711,6.281-2.469,9.206-2.272
			c2.923,0.195,5.766,1.349,8.529,3.459c4.003,3.061,6.096,7.084,6.281,12.067c0.184,4.986-1.883,10.301-6.201,15.948
			c-4.366,5.71-9.111,9.15-14.235,10.321c-4.514,1.049-8.781,0.037-12.798-3.036c-4.05-3.096-6.173-6.945-6.368-11.543
			C374.326,1348.177,376.361,1342.751,380.643,1337.148z M386.639,1341.364c-3.001,3.927-4.506,7.44-4.515,10.544
			c-0.01,3.103,1.089,5.498,3.296,7.186c2.222,1.699,4.808,2.133,7.758,1.303c2.949-0.83,5.966-3.263,9.051-7.297
			c3.025-3.957,4.55-7.425,4.575-10.404c0.025-2.98-1.111-5.35-3.412-7.107c-2.299-1.759-4.901-2.236-7.806-1.433
			S389.7,1337.361,386.639,1341.364z" />
			<path fill="#FFFFFF" d="M400.567,1378.754l24.251-35.448l12.355,8.454c3.159,2.161,5.199,4.023,6.117,5.587
			c0.918,1.563,1.275,3.429,1.071,5.595c-0.205,2.168-1.057,4.348-2.557,6.539c-1.897,2.773-4.089,4.55-6.577,5.333
			c-2.488,0.783-5.106,0.554-7.854-0.688c0.64,1.763,1.004,3.463,1.093,5.098c0.089,1.634-0.106,4.322-0.584,8.065l-1.201,9.33
			l-7.001-4.79l1.03-10.619c0.379-3.833,0.535-6.288,0.467-7.365c-0.068-1.076-0.318-1.956-0.749-2.642s-1.323-1.49-2.677-2.417
			l-1.208-0.827l-10.124,14.798L400.567,1378.754z M420.414,1362.301l4.352,2.978c2.66,1.819,4.433,2.86,5.317,3.124
			c0.886,0.262,1.796,0.193,2.733-0.208c0.936-0.4,1.807-1.188,2.612-2.365c0.771-1.128,1.166-2.19,1.184-3.184
			c0.018-0.994-0.273-1.885-0.87-2.672c-0.427-0.553-1.954-1.727-4.581-3.524l-4.595-3.143L420.414,1362.301z" />
			<path fill="#FFFFFF" d="M431.043,1399.416l22.271-36.724l9.092,5.514l-9.731,28.396l20.638-21.781l9.135,5.539l-22.271,36.725
			l-5.662-3.434l17.546-28.934l-23.549,25.294l-5.849-3.547l11.587-32.548l-17.546,28.934L431.043,1399.416z" />
			<path fill="#FFFFFF" d="M467.07,1420.773l20.812-37.57l6.202,3.436l-20.811,37.569L467.07,1420.773z" />
			<path fill="#FFFFFF" d="M480.069,1428.027l19.469-38.282l6.164,3.135l-0.153,32.099l13.001-25.565l5.901,3.001l-19.469,38.283
			l-6.371-3.24l0.056-31.393l-12.696,24.965L480.069,1428.027z" />
			<path fill="#FFFFFF" d="M534.335,1436.777l2.945-6.642l14.007,6.209l-6.934,15.642c-2.147,1.035-4.78,1.578-7.9,1.626
			c-3.119,0.048-5.982-0.505-8.589-1.661c-3.178-1.409-5.635-3.433-7.371-6.071c-1.736-2.641-2.623-5.831-2.661-9.577
			c-0.038-3.744,0.876-7.724,2.745-11.938c1.916-4.321,4.273-7.698,7.072-10.132c2.798-2.435,5.682-3.901,8.649-4.402
			c2.966-0.5,6.049-0.042,9.245,1.375c3.838,1.701,6.481,4.043,7.926,7.022c1.445,2.98,1.659,6.51,0.642,10.589l-7.081-1.378
			c0.412-2.23,0.213-4.168-0.598-5.809c-0.81-1.641-2.108-2.858-3.894-3.648c-2.768-1.228-5.485-1.145-8.153,0.247
			c-2.668,1.392-4.979,4.292-6.935,8.703c-2.098,4.731-2.765,8.739-2,12.027c0.646,2.829,2.327,4.846,5.041,6.05
			c1.268,0.562,2.717,0.848,4.347,0.856c1.63,0.009,3.21-0.265,4.739-0.822l2.202-4.966L534.335,1436.777z" />
		</g>
		<g>
			<path fill="#FFFFFF" d="M689.539,127.492l-7.68-42.257l23.75-4.322l1.299,7.148l-16.775,3.053l1.818,10.002l14.527-2.643
			l1.299,7.148l-14.526,2.644l3.263,17.958L689.539,127.492z" />
			<path fill="#FFFFFF" d="M714.105,101.472c-0.664-5.074-0.461-9.351,0.609-12.831c1.072-3.48,2.711-6.182,4.922-8.109
			c2.21-1.925,5.039-3.115,8.485-3.568c4.996-0.657,9.317,0.715,12.964,4.117s5.932,8.627,6.854,15.676
			c0.934,7.127-0.004,12.913-2.809,17.359c-2.461,3.929-6.198,6.223-11.213,6.883c-5.055,0.665-9.273-0.563-12.656-3.685
			C717.406,113.744,715.021,108.463,714.105,101.472z M721.329,100.226c0.642,4.9,2.054,8.453,4.235,10.657
			c2.184,2.206,4.651,3.127,7.406,2.765c2.772-0.365,4.912-1.882,6.416-4.553c1.504-2.67,1.928-6.522,1.268-11.558
			c-0.646-4.938-2.011-8.472-4.095-10.602c-2.085-2.129-4.562-3.005-7.432-2.628c-2.87,0.378-5.051,1.876-6.543,4.495
			C721.094,91.422,720.674,95.23,721.329,100.226z" />
			<path fill="#FFFFFF" d="M755.439,117.638l-3.291-42.822l14.926-1.159c3.816-0.297,6.572-0.123,8.267,0.518
			c1.694,0.643,3.142,1.872,4.339,3.689s1.897,4.05,2.102,6.698c0.257,3.35-0.339,6.109-1.789,8.279
			c-1.449,2.169-3.633,3.632-6.553,4.387c1.604,0.974,2.95,2.068,4.043,3.286s2.625,3.435,4.596,6.651l4.907,8.022l-8.458,0.658
			l-5.846-8.92c-2.105-3.226-3.521-5.236-4.249-6.032c-0.728-0.795-1.474-1.326-2.238-1.589c-0.764-0.264-1.964-0.333-3.6-0.206
			l-1.461,0.113l1.374,17.877L755.439,117.638z M760.608,92.376l5.258-0.408c3.213-0.25,5.247-0.549,6.102-0.899
			s1.521-0.976,2.001-1.875c0.479-0.898,0.664-2.059,0.555-3.48c-0.104-1.363-0.462-2.438-1.07-3.223
			c-0.609-0.785-1.393-1.297-2.352-1.537c-0.678-0.162-2.604-0.121-5.778,0.126l-5.55,0.431L760.608,92.376z" />
			<path fill="#FFFFFF" d="M789.834,115.057l-0.914-42.939l10.63-0.236l7.025,29.177l5.728-29.461l10.681-0.237l0.913,42.94
			l-6.619,0.146l-0.72-33.83l-6.299,33.986l-6.84,0.152l-7.687-33.675l0.721,33.83L789.834,115.057z" />
			<path fill="#FFFFFF" d="M830.055,114.553l0.787-42.942l7.089,0.124l-0.788,42.942L830.055,114.553z" />
			<path fill="#FFFFFF" d="M843.472,114.71l2.32-42.886l6.904,0.367l12.845,29.405l1.549-28.64l6.611,0.352l-2.319,42.886
			l-7.139-0.379l-12.646-28.72l-1.513,27.967L843.472,114.71z" />
			<path fill="#FFFFFF" d="M895.979,102.752l0.78-7.224l15.234,1.633l-1.836,17.011c-1.729,1.641-4.072,2.961-7.028,3.961
			c-2.957,0.998-5.852,1.347-8.688,1.043c-3.457-0.371-6.414-1.547-8.872-3.529c-2.457-1.982-4.275-4.75-5.454-8.304
			c-1.178-3.554-1.52-7.622-1.024-12.205c0.508-4.699,1.723-8.635,3.646-11.808c1.924-3.172,4.224-5.45,6.897-6.833
			c2.672-1.383,5.748-1.888,9.225-1.515c4.175,0.447,7.404,1.869,9.691,4.264c2.284,2.396,3.564,5.691,3.838,9.884l-7.164,0.853
			c-0.287-2.25-1.066-4.033-2.34-5.348c-1.272-1.315-2.88-2.077-4.822-2.285c-3.01-0.322-5.573,0.586-7.689,2.727
			c-2.117,2.14-3.435,5.608-3.953,10.404c-0.555,5.146,0.032,9.167,1.764,12.063c1.479,2.496,3.693,3.902,6.646,4.219
			c1.378,0.147,2.846-0.023,4.401-0.513c1.556-0.489,2.977-1.232,4.263-2.23l0.583-5.4L895.979,102.752z" />
		</g>
		<g>
			<path fill="#FFFFFF" d="M1409.166,431.721l4.183,5.603c-4.363,3.419-5.46,7.007-3.291,10.762c1.073,1.86,2.405,3.044,3.991,3.548
			c1.588,0.505,3.102,0.342,4.539-0.488c0.845-0.487,1.456-1.089,1.833-1.801c0.377-0.715,0.535-1.562,0.477-2.542
			c-0.059-0.981-0.486-3.192-1.28-6.636c-0.721-3.079-0.967-5.496-0.741-7.25c0.227-1.754,0.888-3.428,1.986-5.02
			c1.099-1.593,2.518-2.89,4.257-3.895c2.029-1.171,4.121-1.764,6.275-1.778c2.155-0.015,4.115,0.552,5.882,1.696
			c1.767,1.146,3.337,2.912,4.714,5.297c2.071,3.585,2.715,6.945,1.932,10.082c-0.783,3.135-2.951,5.806-6.502,8.014l-3.89-5.974
			c1.839-1.423,2.897-2.812,3.176-4.169c0.276-1.354-0.063-2.86-1.02-4.519c-0.957-1.657-2.04-2.735-3.249-3.231
			c-1.21-0.498-2.328-0.449-3.357,0.145c-1.012,0.584-1.629,1.481-1.85,2.694c-0.223,1.212,0.098,3.522,0.958,6.926
			c0.889,3.612,1.237,6.393,1.043,8.342c-0.194,1.948-0.863,3.737-2.009,5.366c-1.144,1.631-2.832,3.09-5.064,4.379
			c-3.23,1.863-6.52,2.436-9.865,1.718c-3.347-0.719-6.24-3.192-8.683-7.421C1399.294,444.092,1401.146,437.477,1409.166,431.721z" />
			<path fill="#FFFFFF" d="M1417.471,475.177l31.687-16.409l-4.814-9.285l6.451-3.342l12.88,24.839l-6.452,3.341l-4.801-9.259
			l-31.687,16.409L1417.471,475.177z" />
			<path fill="#FFFFFF" d="M1445.562,483.249c4.651-2.131,8.799-3.197,12.44-3.2c3.642-0.004,6.707,0.767,9.2,2.311
			c2.492,1.544,4.464,3.896,5.913,7.057c2.103,4.578,2.066,9.111-0.108,13.6c-2.175,4.487-6.493,8.209-12.956,11.171
			c-6.535,2.992-12.342,3.804-17.418,2.435c-4.48-1.191-7.775-4.087-9.885-8.684c-2.127-4.633-2.197-9.026-0.214-13.179
			C1434.809,490.021,1439.151,486.186,1445.562,483.249z M1448.883,489.784c-4.492,2.058-7.471,4.454-8.934,7.189
			c-1.463,2.736-1.615,5.365-0.457,7.891c1.168,2.542,3.248,4.138,6.244,4.789c2.995,0.65,6.801-0.082,11.418-2.196
			c4.528-2.074,7.502-4.422,8.923-7.041c1.419-2.618,1.525-5.243,0.317-7.875c-1.207-2.63-3.281-4.272-6.226-4.926
			C1457.227,486.963,1453.465,487.686,1448.883,489.784z" />
			<path fill="#FFFFFF" d="M1442.314,527.518l39.948-15.771l5.511,13.92c1.408,3.56,2.057,6.243,1.942,8.051
			c-0.114,1.81-0.861,3.555-2.245,5.235c-1.383,1.68-3.311,3.006-5.78,3.982c-3.125,1.233-5.938,1.478-8.438,0.731
			c-2.5-0.744-4.542-2.4-6.125-4.967c-0.457,1.818-1.105,3.429-1.947,4.831c-0.842,1.404-2.509,3.521-5.001,6.353l-6.219,7.054
			l-3.122-7.887l6.799-8.217c2.461-2.964,3.965-4.909,4.511-5.839c0.546-0.929,0.832-1.798,0.858-2.605
			c0.026-0.809-0.262-1.976-0.866-3.502l-0.539-1.362l-16.677,6.586L1442.314,527.518z M1467.977,525.009l1.941,4.903
			c1.186,2.995,2.072,4.851,2.66,5.563c0.586,0.713,1.38,1.167,2.381,1.359c1.001,0.193,2.164,0.027,3.49-0.496
			c1.271-0.502,2.192-1.16,2.764-1.974c0.57-0.813,0.829-1.713,0.774-2.698c-0.044-0.696-0.652-2.525-1.824-5.485l-2.049-5.176
			L1467.977,525.009z" />
			<path fill="#FFFFFF" d="M1454.925,559.62l40.762-13.534l3.36,10.088l-25.809,15.316l29.84-3.214l3.376,10.136l-40.762,13.533
			l-2.092-6.281l32.114-10.662l-34.334,4.002l-2.161-6.491l29.911-17.273l-32.113,10.662L1454.925,559.62z" />
			<path fill="#FFFFFF" d="M1467.264,597.896l41.265-11.907l1.973,6.81l-41.266,11.908L1467.264,597.896z" />
			<path fill="#FFFFFF" d="M1471.068,610.764l41.664-10.43l1.685,6.706l-24.312,20.944l27.822-6.965l1.613,6.422l-41.664,10.429
			l-1.742-6.933l23.717-20.554l-27.17,6.801L1471.068,610.764z" />
			<path fill="#FFFFFF" d="M1497.972,657.424l7.132-1.384l2.928,15.04l-16.795,3.26c-2.078-1.167-4.03-3.017-5.855-5.548
			c-1.826-2.53-3.012-5.194-3.557-7.994c-0.664-3.413-0.412-6.585,0.759-9.518c1.169-2.934,3.279-5.486,6.328-7.66
			c3.05-2.174,6.836-3.7,11.361-4.578c4.64-0.901,8.759-0.899,12.357,0.003c3.597,0.902,6.452,2.428,8.562,4.576
			c2.108,2.146,3.498,4.936,4.166,8.367c0.803,4.122,0.396,7.629-1.221,10.52c-1.615,2.89-4.388,5.084-8.314,6.582l-2.925-6.594
			c2.065-0.939,3.54-2.209,4.421-3.813c0.882-1.604,1.136-3.363,0.763-5.282c-0.578-2.971-2.202-5.152-4.871-6.544
			s-6.371-1.629-11.106-0.709c-5.082,0.987-8.75,2.732-11.008,5.24c-1.95,2.149-2.641,4.682-2.073,7.596
			c0.265,1.36,0.86,2.712,1.786,4.055c0.926,1.342,2.055,2.481,3.387,3.417l5.332-1.036L1497.972,657.424z" />
		</g>
		<g>
			<path fill="#FFFFFF" d="M151.384,715.601l-0.626,7.684l-9.945,2.282l-1.145,14.051l9.458,3.695l-0.613,7.533l-41.694-17.167
			l0.612-7.505L151.384,715.601z M133.386,727.256l-16.28,3.548l15.498,6.054L133.386,727.256z" />
			<path fill="#FFFFFF" d="M109.204,707.068l1.713-12.854c0.432-3.248,1.123-5.65,2.068-7.207c0.947-1.557,2.374-2.916,4.282-4.078
			c1.908-1.162,4.291-1.955,7.145-2.381s6.325-0.365,10.409,0.183c3.678,0.491,6.822,1.335,9.431,2.532
			c2.609,1.195,4.622,2.537,6.04,4.025c1.417,1.489,2.408,3.191,2.969,5.107c0.563,1.916,0.654,4.295,0.276,7.139l-1.763,13.229
			L109.204,707.068z M117.342,701.004l28.167,3.77l0.704-5.285c0.302-2.266,0.308-3.935,0.018-5.008
			c-0.291-1.074-0.822-1.992-1.597-2.756c-0.773-0.764-2.061-1.482-3.86-2.158c-1.8-0.674-4.218-1.213-7.254-1.62
			c-3.152-0.422-5.666-0.536-7.542-0.345c-1.876,0.193-3.397,0.68-4.564,1.459c-1.167,0.779-2.003,1.807-2.507,3.078
			c-0.383,0.955-0.763,2.845-1.139,5.672L117.342,701.004z" />
			<path fill="#FFFFFF" d="M116.597,658.107l1.254-6.979l26.755,4.832c4.325,0.78,7.466,1.794,9.425,3.041
			c1.958,1.247,3.35,2.832,4.175,4.758c0.825,1.926,1.01,4.147,0.558,6.665c-0.599,3.326-2.209,5.725-4.835,7.194
			c-2.626,1.473-6.248,1.801-10.864,0.986l0.264-6.77c2.493,0.371,4.31,0.369,5.448-0.002c1.558-0.496,2.471-1.494,2.741-3
			c0.264-1.466-0.056-2.639-0.959-3.519c-0.903-0.88-3.123-1.64-6.66-2.278L116.597,658.107z" />
			<path fill="#FFFFFF" d="M140.342,648.754c-4.986-1.147-8.924-2.83-11.813-5.048c-2.887-2.218-4.848-4.698-5.883-7.442
			c-1.035-2.743-1.164-5.809-0.387-9.198c1.125-4.911,3.918-8.482,8.376-10.714c4.458-2.229,10.152-2.548,17.081-0.953
			c7.004,1.611,12.101,4.509,15.291,8.689c2.824,3.678,3.671,7.98,2.542,12.911c-1.139,4.969-3.761,8.495-7.865,10.575
			C152.995,649.943,147.213,650.336,140.342,648.754z M141.692,641.549c4.817,1.109,8.637,1.025,11.465-0.251
			c2.827-1.276,4.551-3.269,5.171-5.976c0.625-2.727-0.051-5.261-2.029-7.604c-1.978-2.34-5.44-4.082-10.39-5.221
			c-4.854-1.117-8.641-1.07-11.363,0.141c-2.722,1.209-4.406,3.225-5.052,6.047c-0.647,2.821-0.002,5.389,1.932,7.7
			C133.36,638.698,136.782,640.42,141.692,641.549z" />
			<path fill="#FFFFFF" d="M128.599,603.871l1.95-6.816l22.358,6.422c3.472,0.998,5.759,1.562,6.858,1.695
			c1.908,0.223,3.521-0.094,4.841-0.945c1.321-0.854,2.248-2.211,2.782-4.074c0.452-1.58,0.468-2.97,0.05-4.17
			c-0.419-1.199-1.199-2.161-2.343-2.887c-1.144-0.727-3.771-1.68-7.882-2.86l-22.836-6.56l1.951-6.816l21.681,6.229
			c5.539,1.59,9.457,3.036,11.756,4.336c2.3,1.301,3.917,3.209,4.854,5.723c0.936,2.516,0.918,5.472-0.055,8.87
			c-1.011,3.53-2.433,6.104-4.267,7.722c-1.834,1.615-4.028,2.541-6.583,2.771c-2.555,0.232-6.92-0.539-13.097-2.314
			L128.599,603.871z" />
			<path fill="#FFFFFF" d="M179.596,582.361l-40.615-13.966l4.855-14.161c1.242-3.621,2.494-6.083,3.755-7.385
			c1.262-1.3,2.964-2.141,5.106-2.519c2.143-0.378,4.471-0.136,6.983,0.729c3.177,1.092,5.473,2.733,6.89,4.925
			c1.417,2.191,1.893,4.777,1.429,7.756c1.528-1.085,3.068-1.888,4.619-2.408c1.552-0.52,4.195-1.046,7.929-1.58l9.311-1.321
			l-2.751,8.024l-10.507,1.828c-3.795,0.654-6.203,1.156-7.221,1.509c-1.019,0.352-1.801,0.826-2.347,1.423
			c-0.546,0.598-1.084,1.672-1.617,3.225l-0.475,1.385l16.956,5.83L179.596,582.361z M158.456,567.596l1.711-4.989
			c1.045-3.048,1.576-5.034,1.593-5.957c0.018-0.924-0.291-1.784-0.927-2.58c-0.635-0.797-1.627-1.428-2.975-1.892
			c-1.292-0.443-2.42-0.543-3.383-0.295c-0.962,0.247-1.743,0.764-2.343,1.549c-0.418,0.559-1.145,2.344-2.177,5.355l-1.805,5.265
			L158.456,567.596z" />
			<path fill="#FFFFFF" d="M191.03,549.529l-39.843-16.039l2.578-6.416l31.979-2.664l-26.607-10.71l2.469-6.145l39.841,16.04
			l-2.665,6.633l-31.267,2.698l25.981,10.459L191.03,549.529z" />
			<path fill="#FFFFFF" d="M204.22,517.516l-39.246-17.447l2.878-6.48l39.245,17.449L204.22,517.516z" />
			<path fill="#FFFFFF" d="M209.586,505.244l-38.599-18.837l3.031-6.215l32.094-0.376l-25.776-12.58l2.903-5.95l38.599,18.836
			l-3.134,6.425l-31.387,0.462l25.17,12.283L209.586,505.244z" />
			<path fill="#FFFFFF" d="M219.064,452.223l-6.35-3.531l7.449-13.389l14.953,8.314c0.837,2.231,1.139,4.902,0.906,8.014
			c-0.234,3.109-1.044,5.912-2.43,8.404c-1.69,3.037-3.928,5.301-6.713,6.792c-2.784,1.49-6.044,2.087-9.777,1.786
			c-3.733-0.299-7.614-1.568-11.643-3.81c-4.13-2.298-7.282-4.949-9.454-7.955c-2.171-3.007-3.372-6.011-3.603-9.011
			c-0.231-3,0.503-6.027,2.203-9.082c2.041-3.67,4.612-6.09,7.71-7.261s6.633-1.065,10.603,0.315l-2.009,6.928
			c-2.185-0.613-4.132-0.589-5.84,0.07c-1.708,0.66-3.037,1.844-3.985,3.549c-1.473,2.646-1.636,5.359-0.491,8.143
			c1.146,2.781,3.827,5.346,8.042,7.689c4.524,2.516,8.457,3.541,11.8,3.076c2.876-0.389,5.036-1.881,6.48-4.476
			c0.673-1.212,1.09-2.628,1.246-4.251s0.026-3.221-0.392-4.794l-4.747-2.64L219.064,452.223z" />
		</g>
	</g>

</svg>
