<svg xmlns="http://www.w3.org/2000/svg" width="136.895" height="14.568"><g enable-background="new" fill="#F47924"><path d="M.156 2.14h1.811l.54 3.657.324 2.471h.048c.144-.827.3-1.654.456-2.471l.84-3.657h1.499l.852 3.657c.154.793.311 1.632.466 2.471h.048c.096-.839.204-1.667.312-2.471l.54-3.657h1.691l-1.391 7.82h-2.219l-.768-3.55c-.12-.6-.228-1.235-.312-1.812h-.048c-.095.577-.191 1.212-.311 1.812l-.744 3.55h-2.183l-1.451-7.82zM10.38 2.212c0-.539.432-.911 1.02-.911.6 0 1.019.372 1.019.911 0 .54-.419.924-1.019.924-.588-.001-1.02-.384-1.02-.924zm.144 1.798h1.763v5.95h-1.763v-5.95zM13.836 1.552h1.763v6.632c0 .372.168.492.312.492l.216-.024.216 1.308c-.192.084-.492.144-.888.144-1.211 0-1.619-.791-1.619-1.99v-6.562zM19.726 3.867c1.691 0 2.531 1.235 2.531 2.854 0 .312-.036.6-.072.744h-3.562c.156.899.756 1.295 1.547 1.295.443 0 .852-.132 1.283-.396l.587 1.067c-.611.419-1.403.671-2.111.671-1.703 0-3.01-1.151-3.01-3.118.001-1.93 1.38-3.117 2.807-3.117zm1.032 2.507c0-.684-.288-1.163-.995-1.163-.552 0-1.032.371-1.151 1.163h2.146zM23.939 10.895c.588 0 .888-.312 1.043-.779l.084-.312-2.29-5.794h1.775l.852 2.555c.168.54.312 1.104.468 1.691h.048c.132-.563.264-1.127.408-1.691l.72-2.555h1.691l-2.062 6.009c-.564 1.5-1.2 2.268-2.603 2.268-.36 0-.6-.049-.84-.12l.312-1.344c.107.024.262.072.394.072zM29.796 2.14h2.854c1.703 0 3.058.623 3.058 2.519 0 1.835-1.403 2.65-3.058 2.65h-1.08v2.65h-1.775v-7.819zm2.746 3.766c.971 0 1.439-.432 1.439-1.247s-.504-1.115-1.439-1.115h-.972v2.362h.972zM37.055 2.14h1.775v6.332h3.083v1.488h-4.857v-7.82zM42.767 2.14h1.763v4.377c0 1.535.479 2.063 1.355 2.063s1.392-.528 1.392-2.063v-4.377h1.703v4.197c0 2.627-1.067 3.766-3.094 3.766s-3.118-1.139-3.118-3.766v-4.197zM51.155 7.765c.552.479 1.271.815 1.919.815.731 0 1.091-.288 1.091-.756 0-.492-.444-.647-1.127-.936l-1.007-.432c-.815-.324-1.583-.995-1.583-2.135 0-1.296 1.163-2.327 2.782-2.327.899 0 1.847.36 2.519 1.031l-.887 1.116c-.516-.396-1.007-.624-1.631-.624-.6 0-.995.264-.995.708 0 .479.516.647 1.199.923l.995.408c.948.384 1.547 1.02 1.547 2.123 0 1.295-1.08 2.422-2.938 2.422-1.02 0-2.099-.384-2.902-1.127l1.018-1.209zM59.783 2.14h1.775v6.332h3.083v1.488h-4.857v-7.82zM68.134 3.867c1.69 0 2.53 1.235 2.53 2.854 0 .312-.035.6-.072.744h-3.562c.156.899.756 1.295 1.547 1.295.444 0 .852-.132 1.284-.396l.587 1.067c-.611.419-1.403.671-2.111.671-1.703 0-3.01-1.151-3.01-3.118 0-1.93 1.38-3.117 2.807-3.117zm1.031 2.507c0-.684-.288-1.163-.995-1.163-.552 0-1.032.371-1.151 1.163h2.146zM74.889 6.134c-.035-.528-.299-.864-.935-.864-.504 0-1.008.204-1.583.54l-.624-1.164c.755-.455 1.606-.779 2.542-.779 1.523 0 2.363.863 2.363 2.687v3.406h-1.439l-.132-.611h-.036c-.504.443-1.066.755-1.738.755-1.08 0-1.764-.791-1.764-1.799 0-1.248.996-1.931 3.346-2.171zm-.983 2.602c.407 0 .672-.191.982-.503v-1.044c-1.259.168-1.666.527-1.666.983.001.384.265.564.684.564zM78.167 4.01h1.438l.121 1.044h.047c.432-.804 1.08-1.188 1.691-1.188.336 0 .54.048.707.12l-.286 1.524c-.216-.061-.396-.097-.647-.097-.444 0-.995.288-1.308 1.092v3.455h-1.763v-5.95zM82.944 4.01h1.438l.12.756h.048c.504-.479 1.104-.899 1.907-.899 1.295 0 1.847.911 1.847 2.398v3.695h-1.763v-3.466c0-.864-.229-1.128-.732-1.128-.443 0-.719.204-1.104.576v4.018h-1.762v-5.95zM89.663 2.212c0-.539.432-.911 1.02-.911.6 0 1.019.372 1.019.911 0 .54-.419.924-1.019.924-.588-.001-1.02-.384-1.02-.924zm.144 1.798h1.764v5.95h-1.764v-5.95zM93.119 4.01h1.438l.12.756h.048c.504-.479 1.104-.899 1.907-.899 1.295 0 1.847.911 1.847 2.398v3.695h-1.763v-3.466c0-.864-.229-1.128-.732-1.128-.443 0-.719.204-1.104.576v4.018h-1.762v-5.95zM100.463 9.78v-.048c-.312-.204-.553-.516-.553-1.008 0-.432.289-.852.672-1.115v-.048c-.42-.288-.803-.852-.803-1.548 0-1.427 1.175-2.146 2.458-2.146.336 0 .659.048.924.144h2.171v1.284h-.947c.107.18.191.468.191.779 0 1.367-1.031 2.003-2.339 2.003-.216 0-.456-.036-.72-.12-.156.132-.216.24-.216.443 0 .3.24.444.899.444h.96c1.463 0 2.267.443 2.267 1.511 0 1.235-1.283 2.135-3.322 2.135-1.391 0-2.494-.455-2.494-1.511.001-.492.299-.887.852-1.199zm1.918 1.606c.792 0 1.367-.323 1.367-.731 0-.371-.323-.468-.911-.468h-.611c-.407 0-.647-.023-.84-.071-.216.191-.323.371-.323.587 0 .444.527.683 1.318.683zm.672-5.373c0-.623-.348-.959-.815-.959s-.815.324-.815.959c0 .66.348.996.815.996s.815-.335.815-.996zM107.038 7.765c.552.479 1.271.815 1.919.815.731 0 1.092-.288 1.092-.756 0-.492-.444-.647-1.128-.936l-1.007-.432c-.816-.324-1.584-.995-1.584-2.135 0-1.296 1.164-2.327 2.783-2.327.898 0 1.847.36 2.518 1.031l-.887 1.116c-.516-.396-1.008-.624-1.631-.624-.6 0-.996.264-.996.708 0 .479.516.647 1.199.923l.996.408c.947.384 1.547 1.02 1.547 2.123 0 1.295-1.08 2.422-2.938 2.422-1.02 0-2.099-.384-2.902-1.127l1.019-1.209zM114.801 10.427v1.739h-1.762v-8.156h1.438l.12.588h.048c.468-.42 1.067-.731 1.69-.731 1.439 0 2.327 1.188 2.327 3.022 0 2.039-1.224 3.214-2.507 3.214-.516 0-.995-.228-1.415-.623l.061.947zm.948-1.762c.611 0 1.103-.528 1.103-1.751 0-1.067-.323-1.607-1.031-1.607-.359 0-.671.168-1.02.54v2.435c.313.286.648.383.948.383zM122.912 6.134c-.035-.527-.299-.863-.935-.863-.504 0-1.008.204-1.583.54l-.624-1.164c.755-.455 1.606-.779 2.542-.779 1.523 0 2.363.863 2.363 2.687v3.405h-1.439l-.132-.611h-.036c-.504.443-1.066.755-1.738.755-1.08 0-1.764-.791-1.764-1.799.001-1.248.997-1.931 3.346-2.171zm-.982 2.602c.407 0 .672-.191.982-.503v-1.044c-1.259.168-1.666.527-1.666.983 0 .384.264.564.684.564zM128.937 3.867c.731 0 1.343.276 1.739.684l-.804 1.092c-.288-.24-.552-.348-.827-.348-.852 0-1.392.659-1.392 1.69s.563 1.691 1.331 1.691c.432 0 .779-.204 1.068-.432l.707 1.115c-.576.504-1.332.743-1.979.743-1.656 0-2.939-1.139-2.939-3.118.001-1.977 1.452-3.117 3.096-3.117zM133.917 3.867c1.69 0 2.53 1.235 2.53 2.854 0 .312-.035.6-.072.744h-3.562c.155.899.756 1.295 1.548 1.295.443 0 .852-.132 1.283-.396l.587 1.067c-.611.419-1.403.671-2.11.671-1.703 0-3.011-1.151-3.011-3.118.001-1.93 1.38-3.117 2.807-3.117zm1.031 2.507c0-.684-.288-1.163-.995-1.163-.552 0-1.031.371-1.151 1.163h2.146z"/></g></svg>