<?xml version="1.0" encoding="utf-8"?>
<!-- Generator: Adobe Illustrator 19.2.0, SVG Export Plug-In . SVG Version: 6.00 Build 0)  -->
<svg version="1.1" id="Layer_1" xmlns="http://www.w3.org/2000/svg" xmlns:xlink="http://www.w3.org/1999/xlink" x="0px" y="0px"
	 viewBox="0 0 362.2 176.2" style="enable-background:new 0 0 362.2 176.2;" xml:space="preserve">
<style type="text/css">
	.st0{fill:#999999;}
	.st1{fill:#0C2E82;}
	.st2{fill:#0C2E82;stroke:#0C2E82;stroke-width:5.2707;}
	.st3{fill:#FFFFFF;stroke:#FFFFFF;stroke-width:0.1998;}
</style>
<g>
	<path class="st0" d="M62,11.4l7.1,37.1c1.4-0.4,2.7-0.8,4.2-1L62,11.4z"/>
	<path class="st0" d="M62,11.4l7.1,37.1c1.4-0.4,2.7-0.8,4.2-1L62,11.4z"/>
	<path class="st0" d="M155.3,137.2L124.1,116c-0.7,1.3-1.4,2.5-2.2,3.7L155.3,137.2z"/>
	<path class="st0" d="M137.8,0.6L105,52.1c1.3,0.7,2.5,1.4,3.7,2.2L137.8,0.6z"/>
	<path class="st0" d="M137.8,0.6L105,52.1c1.3,0.7,2.5,1.4,3.7,2.2L137.8,0.6z"/>
	<path class="st0" d="M335.7,30.5l-208,49.6c0.4,1.4,0.8,2.7,1,4.2L335.7,30.5z"/>
	<path class="st0" d="M103.1,175.9L96,138.8c-1.4,0.4-2.7,0.8-4.1,1L103.1,175.9z"/>
	<path class="st0" d="M103.1,175.9L96,138.8c-1.4,0.4-2.7,0.8-4.1,1L103.1,175.9z"/>
	<path class="st0" d="M39,166.3l21.2-31.2c-1.3-0.7-2.5-1.4-3.7-2.2L39,166.3z"/>
	<path class="st0" d="M39,166.3l21.2-31.2c-1.3-0.7-2.5-1.4-3.7-2.2L39,166.3z"/>
	<path class="st0" d="M9.9,50l31.2,21.2c0.7-1.3,1.4-2.5,2.2-3.7L9.9,50z"/>
	<path class="st0" d="M9.9,50l31.2,21.2c0.7-1.3,1.4-2.5,2.2-3.7L9.9,50z"/>
	<path class="st0" d="M0.3,114.2l37.1-7.1c-0.4-1.4-0.8-2.7-1-4.1L0.3,114.2z"/>
	<path class="st0" d="M0.3,114.2l37.1-7.1c-0.4-1.4-0.8-2.7-1-4.1L0.3,114.2z"/>
	<path class="st0" d="M105,52.1c-4.7-2.5-9.8-4.3-15.4-5.1s-11.1-0.7-16.4,0.4l11,35.3L105,52.1z"/>
	<path class="st0" d="M37.4,107.1c3.2,10.5,9.9,19.7,19.1,25.8l17.2-32.7L37.4,107.1z"/>
	<path class="st0" d="M60.2,135.1c4.7,2.5,9.8,4.3,15.4,5.1c5.6,0.9,11.1,0.7,16.4-0.4l-11-35.3L60.2,135.1z"/>
	<path class="st0" d="M121.9,119.7l-32.7-17.2l6.9,36.3C106.6,135.6,115.8,128.8,121.9,119.7z"/>
	<path class="st0" d="M124.1,116c2.5-4.7,4.3-9.8,5.1-15.4s0.7-11.1-0.4-16.4l-35.3,11L124.1,116z"/>
	<path class="st0" d="M41.1,71.2c-2.5,4.7-4.3,9.8-5.1,15.4s-0.7,11.1,0.4,16.4l35.3-11L41.1,71.2z"/>
	<path class="st0" d="M127.7,80.1c-3.2-10.5-9.9-19.7-19.1-25.8L91.5,87L127.7,80.1z"/>
	<path class="st0" d="M69.1,48.4c-10.5,3.2-19.7,9.9-25.8,19.1L76,84.7L69.1,48.4z"/>
</g>
<rect x="68.7" y="106.5" class="st1" width="293.5" height="42.1"/>
<g>
	<path class="st2" d="M74,92.1l4-2.4c2.8,5.2,6,7.8,9.7,7.8c1.6,0,3-0.4,4.4-1.1s2.4-1.7,3.1-2.9c0.7-1.2,1.1-2.5,1.1-3.9
		c0-1.6-0.5-3.1-1.6-4.6c-1.5-2.1-4.1-4.6-8-7.5c-3.9-3-6.3-5.1-7.2-6.4c-1.6-2.2-2.5-4.6-2.5-7.2c0-2,0.5-3.9,1.5-5.6
		c1-1.7,2.3-3,4.1-4c1.8-1,3.7-1.5,5.8-1.5c2.2,0,4.3,0.6,6.2,1.7c1.9,1.1,3.9,3.1,6.1,6.1l-3.8,2.9c-1.8-2.3-3.3-3.9-4.5-4.6
		c-1.2-0.7-2.6-1.1-4.1-1.1c-1.9,0-3.4,0.6-4.7,1.7c-1.2,1.1-1.8,2.6-1.8,4.2c0,1,0.2,2,0.6,3s1.2,2,2.3,3.1
		c0.6,0.6,2.6,2.2,6.1,4.7c4.1,3,6.8,5.6,8.3,8c1.5,2.3,2.3,4.7,2.3,7c0,3.4-1.3,6.3-3.9,8.8s-5.7,3.7-9.4,3.7
		c-2.8,0-5.4-0.8-7.7-2.3C78.1,98.2,76,95.7,74,92.1z"/>
	<path class="st2" d="M132.4,54h9.2c3.7,0,6.6,0.4,8.6,1.3c2,0.9,3.6,2.2,4.7,4.1c1.2,1.8,1.7,3.9,1.7,6.1c0,2.1-0.5,4-1.5,5.7
		s-2.5,3.1-4.4,4.2c2.4,0.8,4.3,1.8,5.5,2.9c1.3,1.1,2.3,2.5,3,4c0.7,1.6,1.1,3.3,1.1,5.1c0,3.8-1.4,6.9-4.1,9.5
		c-2.7,2.6-6.4,3.9-11,3.9h-12.8V54z M137,58.6v15h2.7c3.3,0,5.7-0.3,7.2-0.9s2.8-1.6,3.6-2.9c0.9-1.3,1.3-2.8,1.3-4.3
		c0-2.1-0.8-3.8-2.3-5s-3.9-1.8-7.2-1.8L137,58.6L137,58.6z M137,78.2v18h5.8c3.4,0,5.9-0.3,7.5-1s2.9-1.7,3.8-3.1
		c1-1.4,1.5-3,1.5-4.6c0-2.1-0.7-3.9-2-5.5c-1.4-1.6-3.2-2.6-5.6-3.2c-1.6-0.4-4.4-0.6-8.3-0.6C139.7,78.2,137,78.2,137,78.2z"/>
	<path class="st2" d="M234.1,62.6l-3.7,2.8c-2-2.7-4.5-4.7-7.3-6.1c-2.9-1.4-6-2.1-9.4-2.1c-3.7,0-7.2,0.9-10.4,2.7
		s-5.7,4.2-7.4,7.2c-1.8,3-2.6,6.4-2.6,10.2c0,5.7,2,10.5,5.9,14.3s8.9,5.7,14.8,5.7c6.6,0,12.1-2.6,16.5-7.8l3.7,2.8
		c-2.3,3-5.2,5.3-8.7,7c-3.5,1.6-7.4,2.5-11.7,2.5c-8.2,0-14.6-2.7-19.3-8.2c-4-4.6-5.9-10.2-5.9-16.7c0-6.8,2.4-12.6,7.2-17.3
		s10.8-7,18-7c4.4,0,8.3,0.9,11.8,2.6C229,57.1,231.9,59.6,234.1,62.6z"/>
	<path class="st2" d="M259.8,58.6V54h25.6v4.6h-10.5v42.3h-4.6V58.6H259.8z"/>
	<path class="st2" d="M356.7,62.6l-3.7,2.8c-2-2.7-4.5-4.7-7.3-6.1c-2.9-1.4-6-2.1-9.4-2.1c-3.7,0-7.2,0.9-10.4,2.7
		c-3.2,1.8-5.7,4.2-7.4,7.2c-1.8,3-2.6,6.4-2.6,10.2c0,5.7,2,10.5,5.9,14.3s8.9,5.7,14.8,5.7c6.6,0,12.1-2.6,16.5-7.8l3.7,2.8
		c-2.3,3-5.2,5.3-8.7,7c-3.5,1.6-7.4,2.5-11.7,2.5c-8.2,0-14.6-2.7-19.3-8.2c-4-4.6-5.9-10.2-5.9-16.7c0-6.8,2.4-12.6,7.2-17.3
		c4.8-4.7,10.8-7,18-7c4.4,0,8.3,0.9,11.8,2.6C351.6,57.1,354.5,59.6,356.7,62.6z"/>
</g>
<g>
	<path class="st3" d="M75.1,113.3h1.1l2.3,8l3.2-8h0.2l3.2,8l2.3-8h1.1l-3.2,11.1h-0.2l-3.3-8.4l-3.4,8.4h-0.2L75.1,113.3z"/>
	<path class="st3" d="M96.7,113.3l5.2,11.1h-1.2l-1.7-3.6h-4.8l-1.7,3.6h-1.2L96.7,113.3L96.7,113.3z M96.6,115.6l-1.9,4h3.8
		L96.6,115.6z"/>
	<path class="st3" d="M104,122.3l0.9-0.6c0.7,1.2,1.4,1.8,2.3,1.8c0.4,0,0.7-0.1,1.1-0.3c0.3-0.2,0.6-0.4,0.7-0.7
		c0.2-0.3,0.3-0.6,0.3-0.9c0-0.4-0.1-0.7-0.4-1.1c-0.3-0.5-1-1.1-1.9-1.8c-0.9-0.7-1.5-1.2-1.7-1.5c-0.4-0.5-0.6-1.1-0.6-1.7
		c0-0.5,0.1-0.9,0.3-1.3c0.2-0.4,0.6-0.7,1-0.9c0.4-0.2,0.9-0.3,1.4-0.3s1,0.1,1.5,0.4s0.9,0.7,1.5,1.4l-0.9,0.7
		c-0.4-0.6-0.8-0.9-1.1-1.1c-0.3-0.2-0.6-0.3-1-0.3c-0.5,0-0.8,0.1-1.1,0.4c-0.3,0.3-0.4,0.6-0.4,1c0,0.2,0.1,0.5,0.2,0.7
		s0.3,0.5,0.6,0.7c0.1,0.1,0.6,0.5,1.4,1.1c1,0.7,1.6,1.3,2,1.9s0.5,1.1,0.5,1.7c0,0.8-0.3,1.5-0.9,2.1s-1.4,0.9-2.2,0.9
		c-0.7,0-1.3-0.2-1.8-0.5C105,123.7,104.5,123.1,104,122.3z"/>
	<path class="st3" d="M114.4,113.3h1.1v4.6h5.7v-4.6h1.1v11.1h-1.1V119h-5.7v5.4h-1.1V113.3z"/>
	<path class="st3" d="M126.4,113.3h1.1v11.1h-1.1V113.3z"/>
	<path class="st3" d="M131.6,124.4v-11.1h0.2l7.4,8.5v-8.5h1.1v11.1H140l-7.3-8.4v8.4H131.6z"/>
	<path class="st3" d="M155.4,115.1l-0.9,0.8c-0.6-0.6-1.3-1.1-2-1.4s-1.5-0.5-2.2-0.5c-0.9,0-1.7,0.2-2.5,0.6s-1.4,1-1.8,1.7
		c-0.4,0.7-0.6,1.5-0.6,2.3s0.2,1.6,0.7,2.4c0.4,0.8,1.1,1.3,1.9,1.8c0.8,0.4,1.7,0.6,2.6,0.6c1.1,0,2.1-0.3,2.9-1
		c0.8-0.6,1.3-1.5,1.4-2.5h-3.5V119h4.8c0,1.7-0.5,3.1-1.5,4.1s-2.4,1.5-4.1,1.5c-2.1,0-3.7-0.7-4.9-2.1c-0.9-1.1-1.4-2.3-1.4-3.7
		c0-1.1,0.3-2,0.8-2.9s1.3-1.6,2.2-2.1s2-0.8,3.1-0.8c0.9,0,1.8,0.2,2.7,0.5C153.8,113.8,154.6,114.4,155.4,115.1z"/>
	<path class="st3" d="M158.6,114.4v-1.1h6.1v1.1h-2.5v10H161v-10H158.6z"/>
	<path class="st3" d="M173.1,113c1.7,0,3.1,0.6,4.2,1.7c1.1,1.1,1.7,2.5,1.7,4.1s-0.6,3-1.7,4.1c-1.1,1.1-2.5,1.7-4.1,1.7
		c-1.7,0-3-0.6-4.2-1.7c-1.1-1.1-1.7-2.5-1.7-4.1c0-1.1,0.3-2.1,0.8-3s1.2-1.6,2.1-2.1C171.1,113.2,172.1,113,173.1,113z
		 M173.2,114.1c-0.8,0-1.6,0.2-2.3,0.6s-1.3,1-1.7,1.7s-0.6,1.5-0.6,2.4c0,1.3,0.5,2.4,1.4,3.3s2,1.4,3.3,1.4c0.9,0,1.7-0.2,2.4-0.6
		s1.3-1,1.7-1.7s0.6-1.5,0.6-2.4s-0.2-1.7-0.6-2.4c-0.4-0.7-1-1.3-1.7-1.7C174.8,114.3,174,114.1,173.2,114.1z"/>
	<path class="st3" d="M182.9,124.4v-11.1h0.2l7.4,8.5v-8.5h1.1v11.1h-0.3L184,116v8.4H182.9z"/>
	<path class="st3" d="M200.5,122.3l0.9-0.6c0.7,1.2,1.4,1.8,2.3,1.8c0.4,0,0.7-0.1,1.1-0.3c0.3-0.2,0.6-0.4,0.7-0.7
		c0.2-0.3,0.3-0.6,0.3-0.9c0-0.4-0.1-0.7-0.4-1.1c-0.3-0.5-1-1.1-1.9-1.8c-0.9-0.7-1.5-1.2-1.7-1.5c-0.4-0.5-0.6-1.1-0.6-1.7
		c0-0.5,0.1-0.9,0.3-1.3s0.6-0.7,1-0.9c0.4-0.2,0.9-0.3,1.4-0.3s1,0.1,1.5,0.4s0.9,0.7,1.5,1.4l-0.9,0.7c-0.4-0.6-0.8-0.9-1.1-1.1
		s-0.6-0.3-1-0.3c-0.5,0-0.8,0.1-1.1,0.4s-0.4,0.6-0.4,1c0,0.2,0.1,0.5,0.2,0.7c0.1,0.2,0.3,0.5,0.6,0.7c0.1,0.1,0.6,0.5,1.4,1.1
		c1,0.7,1.6,1.3,2,1.9s0.5,1.1,0.5,1.7c0,0.8-0.3,1.5-0.9,2.1c-0.6,0.6-1.4,0.9-2.2,0.9c-0.7,0-1.3-0.2-1.8-0.5
		C201.5,123.7,201,123.1,200.5,122.3z"/>
	<path class="st3" d="M209.8,114.4v-1.1h6.1v1.1h-2.5v10h-1.1v-10H209.8z"/>
	<path class="st3" d="M223.7,113.3l5.2,11.1h-1.2l-1.7-3.6h-4.8l-1.7,3.6h-1.2L223.7,113.3L223.7,113.3z M223.5,115.6l-1.9,4h3.8
		L223.5,115.6z"/>
	<path class="st3" d="M231,114.4v-1.1h6.1v1.1h-2.5v10h-1.1v-10H231z"/>
	<path class="st3" d="M240.3,113.3h6.4v1.1h-5.3v3.5h5.2v1.1h-5.2v4.3h5.2v1.1h-6.3L240.3,113.3L240.3,113.3z"/>
	<path class="st3" d="M256,113.3h2.2c0.9,0,1.6,0.1,2,0.3c0.5,0.2,0.8,0.5,1.1,1c0.3,0.4,0.4,0.9,0.4,1.4s-0.1,0.9-0.4,1.3
		c-0.2,0.4-0.6,0.7-1.1,1c0.6,0.2,1,0.4,1.3,0.7c0.3,0.3,0.6,0.6,0.7,1c0.2,0.4,0.3,0.8,0.3,1.2c0,0.9-0.3,1.6-1,2.3
		c-0.7,0.6-1.5,0.9-2.6,0.9H256V113.3z M257.1,114.4v3.5h0.6c0.8,0,1.3-0.1,1.7-0.2c0.4-0.1,0.7-0.4,0.9-0.7c0.2-0.3,0.3-0.7,0.3-1
		c0-0.5-0.2-0.9-0.5-1.2c-0.4-0.3-0.9-0.4-1.7-0.4C258.4,114.4,257.1,114.4,257.1,114.4z M257.1,119v4.3h1.4c0.8,0,1.4-0.1,1.8-0.2
		c0.4-0.2,0.7-0.4,0.9-0.7c0.2-0.3,0.3-0.7,0.3-1.1c0-0.5-0.2-0.9-0.5-1.3s-0.8-0.6-1.3-0.8c-0.4-0.1-1-0.1-2-0.1h-0.6V119z"/>
	<path class="st3" d="M271.7,113c1.7,0,3.1,0.6,4.2,1.7s1.7,2.5,1.7,4.1s-0.6,3-1.7,4.1s-2.5,1.7-4.1,1.7c-1.7,0-3-0.6-4.2-1.7
		c-1.1-1.1-1.7-2.5-1.7-4.1c0-1.1,0.3-2.1,0.8-3s1.2-1.6,2.1-2.1C269.7,113.2,270.7,113,271.7,113z M271.8,114.1
		c-0.8,0-1.6,0.2-2.3,0.6c-0.7,0.4-1.3,1-1.7,1.7c-0.4,0.7-0.6,1.5-0.6,2.4c0,1.3,0.5,2.4,1.4,3.3s2,1.4,3.3,1.4
		c0.9,0,1.7-0.2,2.4-0.6c0.7-0.4,1.3-1,1.7-1.7c0.4-0.7,0.6-1.5,0.6-2.4s-0.2-1.7-0.6-2.4c-0.4-0.7-1-1.3-1.7-1.7
		C273.4,114.3,272.6,114.1,271.8,114.1z"/>
	<path class="st3" d="M286,113.3l5.2,11.1H290l-1.7-3.6h-4.8l-1.7,3.6h-1.2l5.3-11.1H286z M285.8,115.6l-1.9,4h3.8L285.8,115.6z"/>
	<path class="st3" d="M294.5,113.3h2.2c1.2,0,2.1,0.1,2.5,0.2c0.7,0.2,1.2,0.5,1.6,1s0.6,1.1,0.6,1.8c0,0.6-0.1,1.1-0.4,1.6
		s-0.7,0.8-1.2,1s-1.3,0.4-2.2,0.4l4,5.1h-1.4l-4-5.1h-0.6v5.1h-1.1V113.3z M295.6,114.4v3.8h1.9c0.7,0,1.3-0.1,1.6-0.2
		c0.4-0.1,0.6-0.4,0.8-0.7c0.2-0.3,0.3-0.7,0.3-1c0-0.4-0.1-0.7-0.3-1c-0.2-0.3-0.5-0.5-0.8-0.7c-0.3-0.1-0.9-0.2-1.6-0.2
		L295.6,114.4L295.6,114.4z"/>
	<path class="st3" d="M305.4,124.4v-11.1h2.3c1.7,0,2.9,0.1,3.6,0.4c1.1,0.4,1.9,1,2.5,2c0.6,0.9,0.9,2,0.9,3.3
		c0,1.1-0.2,2.1-0.7,2.9s-1.1,1.5-1.9,1.9s-1.8,0.6-3.2,0.6C308.9,124.4,305.4,124.4,305.4,124.4z M306.5,123.3h1.3
		c1.5,0,2.6-0.1,3.2-0.3c0.8-0.3,1.5-0.8,2-1.5s0.7-1.6,0.7-2.6c0-1.1-0.3-2-0.8-2.7c-0.5-0.8-1.2-1.3-2.2-1.6
		c-0.7-0.2-1.8-0.3-3.4-0.3h-0.8L306.5,123.3L306.5,123.3z"/>
	<path class="st3" d="M324.3,113.3h5.6v1.1h-4.5v3.5h4.5v1.1h-4.5v5.4h-1.1V113.3z"/>
	<path class="st3" d="M338.7,113c1.7,0,3.1,0.6,4.2,1.7s1.7,2.5,1.7,4.1s-0.6,3-1.7,4.1s-2.5,1.7-4.1,1.7c-1.7,0-3-0.6-4.2-1.7
		c-1.1-1.1-1.7-2.5-1.7-4.1c0-1.1,0.3-2.1,0.8-3s1.2-1.6,2.1-2.1C336.7,113.2,337.6,113,338.7,113z M338.7,114.1
		c-0.8,0-1.6,0.2-2.3,0.6c-0.7,0.4-1.3,1-1.7,1.7c-0.4,0.7-0.6,1.5-0.6,2.4c0,1.3,0.5,2.4,1.4,3.3s2,1.4,3.3,1.4
		c0.9,0,1.7-0.2,2.4-0.6c0.7-0.4,1.3-1,1.7-1.7c0.4-0.7,0.6-1.5,0.6-2.4s-0.2-1.7-0.6-2.4c-0.4-0.7-1-1.3-1.7-1.7
		C340.4,114.3,339.6,114.1,338.7,114.1z"/>
	<path class="st3" d="M348.5,113.3h2.2c1.2,0,2.1,0.1,2.5,0.2c0.7,0.2,1.2,0.5,1.6,1s0.6,1.1,0.6,1.8c0,0.6-0.1,1.1-0.4,1.6
		s-0.7,0.8-1.2,1s-1.3,0.4-2.2,0.4l4,5.1h-1.4l-4-5.1h-0.6v5.1h-1.1V113.3z M349.6,114.4v3.8h1.9c0.7,0,1.3-0.1,1.6-0.2
		c0.4-0.1,0.6-0.4,0.8-0.7c0.2-0.3,0.3-0.7,0.3-1c0-0.4-0.1-0.7-0.3-1c-0.2-0.3-0.5-0.5-0.8-0.7c-0.3-0.1-0.9-0.2-1.6-0.2
		L349.6,114.4L349.6,114.4z"/>
	<path class="st3" d="M85.9,133.3L85,134c-0.5-0.6-1.1-1.1-1.7-1.4c-0.7-0.3-1.4-0.5-2.2-0.5c-0.9,0-1.7,0.2-2.5,0.6
		c-0.8,0.4-1.3,1-1.8,1.7c-0.4,0.7-0.6,1.5-0.6,2.4c0,1.4,0.5,2.5,1.4,3.4s2.1,1.4,3.5,1.4c1.6,0,2.9-0.6,3.9-1.8l0.9,0.7
		c-0.6,0.7-1.2,1.2-2.1,1.6c-0.8,0.4-1.8,0.6-2.8,0.6c-1.9,0-3.5-0.6-4.6-1.9c-0.9-1.1-1.4-2.4-1.4-4s0.6-3,1.7-4.1s2.6-1.7,4.3-1.7
		c1,0,2,0.2,2.8,0.6C84.7,132,85.3,132.6,85.9,133.3z"/>
	<path class="st3" d="M93.4,131c1.7,0,3.1,0.6,4.2,1.7c1.1,1.1,1.7,2.5,1.7,4.1s-0.6,3-1.7,4.1s-2.5,1.7-4.1,1.7
		c-1.7,0-3-0.6-4.2-1.7c-1.1-1.1-1.7-2.5-1.7-4.1c0-1.1,0.3-2.1,0.8-3s1.2-1.6,2.1-2.1C91.4,131.2,92.4,131,93.4,131z M93.5,132.1
		c-0.8,0-1.6,0.2-2.3,0.6c-0.7,0.4-1.3,1-1.7,1.7c-0.4,0.7-0.6,1.5-0.6,2.4c0,1.3,0.5,2.4,1.4,3.3c0.9,0.9,2,1.4,3.3,1.4
		c0.9,0,1.7-0.2,2.4-0.6c0.7-0.4,1.3-1,1.7-1.7c0.4-0.7,0.6-1.5,0.6-2.4s-0.2-1.7-0.6-2.4s-1-1.3-1.7-1.7
		C95.1,132.3,94.3,132.1,93.5,132.1z"/>
	<path class="st3" d="M101.1,142.4l1.6-11.1h0.2l4.5,9.1l4.5-9.1h0.2l1.6,11.1h-1.1l-1.1-7.9l-3.9,7.9h-0.3l-4-8l-1.1,8H101.1z"/>
	<path class="st3" d="M115.3,142.4l1.6-11.1h0.2l4.5,9.1l4.5-9.1h0.2l1.6,11.1h-1.1l-1.1-7.9l-3.9,7.9h-0.3l-4-8l-1.1,8H115.3z"/>
	<path class="st3" d="M130.1,131.3h1.1v6.7c0,0.8,0,1.3,0,1.5c0.1,0.4,0.2,0.8,0.4,1.1s0.5,0.5,0.9,0.7s0.8,0.3,1.3,0.3
		c0.4,0,0.7-0.1,1.1-0.2c0.3-0.2,0.6-0.4,0.8-0.6c0.2-0.3,0.4-0.6,0.5-1c0.1-0.3,0.1-0.9,0.1-1.7v-6.7h1.1v6.7c0,1-0.1,1.8-0.3,2.4
		c-0.2,0.6-0.6,1.1-1.2,1.6c-0.6,0.5-1.3,0.7-2.1,0.7c-0.9,0-1.7-0.2-2.3-0.6c-0.6-0.4-1.1-1-1.3-1.7c-0.1-0.4-0.2-1.2-0.2-2.3
		L130.1,131.3L130.1,131.3z"/>
	<path class="st3" d="M140.2,142.4v-11.1h0.2l7.4,8.5v-8.5h1.1v11.1h-0.3l-7.3-8.4v8.4H140.2z"/>
	<path class="st3" d="M151.5,131.3h1.1v11.1h-1.1V131.3z"/>
	<path class="st3" d="M154,132.4v-1.1h6.1v1.1h-2.5v10h-1.1v-10H154z"/>
	<path class="st3" d="M160.9,131.3h1.3l2.9,4.6l2.8-4.6h1.3l-3.5,5.8v5.3h-1.1v-5.3L160.9,131.3z"/>
	<path class="st3" d="M183.6,138.3l0.8,0.8c-0.5,0.4-0.9,0.8-1.4,1.1c0.3,0.3,0.7,0.7,1.2,1.1c0.4,0.4,0.7,0.7,1,1.1h-1.6l-1.5-1.5
		c-0.9,0.7-1.7,1.2-2.3,1.4s-1.2,0.3-1.8,0.3c-0.9,0-1.5-0.2-2.1-0.7c-0.5-0.5-0.8-1.1-0.8-1.8c0-0.6,0.2-1.1,0.5-1.7
		c0.3-0.6,1.1-1.3,2.1-2.1c-0.6-0.7-1-1.3-1.2-1.6c-0.2-0.4-0.3-0.7-0.3-1c0-0.6,0.2-1,0.6-1.4c0.5-0.4,1.1-0.6,1.8-0.6
		c0.5,0,0.9,0.1,1.3,0.3c0.4,0.2,0.7,0.4,0.9,0.8c0.2,0.3,0.3,0.6,0.3,1s-0.1,0.8-0.4,1.2c-0.3,0.4-0.8,1-1.6,1.6l1.7,1.8l1.1,1.1
		C182.8,138.9,183.3,138.6,183.6,138.3z M178.6,137.1c-0.9,0.7-1.6,1.3-1.8,1.7c-0.3,0.4-0.4,0.8-0.4,1.2s0.2,0.8,0.5,1.1
		c0.4,0.3,0.8,0.5,1.3,0.5c0.4,0,0.8-0.1,1.2-0.2c0.6-0.3,1.3-0.7,2-1.3l-1.8-1.8C179.3,137.9,179,137.6,178.6,137.1z M178.8,135.7
		c0.5-0.4,0.9-0.8,1.2-1.2c0.2-0.3,0.3-0.5,0.3-0.8s-0.1-0.5-0.4-0.7c-0.3-0.2-0.6-0.3-1-0.3s-0.7,0.1-1,0.3
		c-0.2,0.2-0.4,0.4-0.4,0.7c0,0.2,0.1,0.4,0.2,0.6C178,134.7,178.3,135.2,178.8,135.7z"/>
	<path class="st3" d="M190.1,132.4v-1.1h6.1v1.1h-2.5v10h-1.1v-10H190.1z"/>
	<path class="st3" d="M197.8,131.3h6.4v1.1h-5.3v3.5h5.2v1.1h-5.2v4.3h5.2v1.1h-6.3L197.8,131.3L197.8,131.3z"/>
	<path class="st3" d="M216.5,133.3l-0.9,0.7c-0.5-0.6-1.1-1.1-1.7-1.4c-0.7-0.3-1.4-0.5-2.2-0.5c-0.9,0-1.7,0.2-2.5,0.6
		c-0.8,0.4-1.3,1-1.8,1.7c-0.4,0.7-0.6,1.5-0.6,2.4c0,1.4,0.5,2.5,1.4,3.4s2.1,1.4,3.5,1.4c1.6,0,2.9-0.6,3.9-1.8l0.9,0.7
		c-0.6,0.7-1.2,1.2-2.1,1.6c-0.8,0.4-1.8,0.6-2.8,0.6c-1.9,0-3.5-0.6-4.6-1.9c-0.9-1.1-1.4-2.4-1.4-4s0.6-3,1.7-4.1
		c1.1-1.1,2.6-1.7,4.3-1.7c1,0,2,0.2,2.8,0.6C215.3,132,216,132.6,216.5,133.3z"/>
	<path class="st3" d="M218.7,131.3h1.1v4.6h5.7v-4.6h1.1v11.1h-1.1V137h-5.7v5.4h-1.1V131.3z"/>
	<path class="st3" d="M229.3,142.4v-11.1h0.2l7.4,8.5v-8.5h1.1v11.1h-0.3l-7.3-8.4v8.4H229.3z"/>
	<path class="st3" d="M240.6,131.3h1.1v11.1h-1.1V131.3z"/>
	<path class="st3" d="M254.6,133.3l-0.9,0.7c-0.5-0.6-1.1-1.1-1.7-1.4c-0.7-0.3-1.4-0.5-2.2-0.5c-0.9,0-1.7,0.2-2.5,0.6
		c-0.8,0.4-1.3,1-1.8,1.7c-0.4,0.7-0.6,1.5-0.6,2.4c0,1.4,0.5,2.5,1.4,3.4s2.1,1.4,3.5,1.4c1.6,0,2.9-0.6,3.9-1.8l0.9,0.7
		c-0.6,0.7-1.2,1.2-2.1,1.6c-0.8,0.4-1.8,0.6-2.8,0.6c-1.9,0-3.5-0.6-4.6-1.9c-0.9-1.1-1.4-2.4-1.4-4s0.6-3,1.7-4.1
		c1.1-1.1,2.6-1.7,4.3-1.7c1,0,2,0.2,2.8,0.6C253.4,132,254.1,132.6,254.6,133.3z"/>
	<path class="st3" d="M261.4,131.3l5.2,11.1h-1.2l-1.7-3.6h-4.8l-1.7,3.6H256l5.3-11.1H261.4z M261.3,133.6l-1.9,4h3.8L261.3,133.6z
		"/>
	<path class="st3" d="M268.3,131.3h1.1v10h4.3v1.1h-5.4V131.3z"/>
	<path class="st3" d="M290.2,133.3l-0.9,0.7c-0.5-0.6-1.1-1.1-1.7-1.4c-0.7-0.3-1.4-0.5-2.2-0.5c-0.9,0-1.7,0.2-2.5,0.6
		c-0.8,0.4-1.3,1-1.8,1.7c-0.4,0.7-0.6,1.5-0.6,2.4c0,1.4,0.5,2.5,1.4,3.4s2.1,1.4,3.5,1.4c1.6,0,2.9-0.6,3.9-1.8l0.9,0.7
		c-0.6,0.7-1.2,1.2-2.1,1.6c-0.8,0.4-1.8,0.6-2.8,0.6c-1.9,0-3.5-0.6-4.6-1.9c-0.9-1.1-1.4-2.4-1.4-4s0.6-3,1.7-4.1s2.6-1.7,4.3-1.7
		c1,0,2,0.2,2.8,0.6C288.9,132,289.6,132.6,290.2,133.3z"/>
	<path class="st3" d="M297.7,131c1.7,0,3.1,0.6,4.2,1.7c1.1,1.1,1.7,2.5,1.7,4.1s-0.6,3-1.7,4.1s-2.5,1.7-4.1,1.7
		c-1.7,0-3-0.6-4.2-1.7c-1.1-1.1-1.7-2.5-1.7-4.1c0-1.1,0.3-2.1,0.8-3s1.2-1.6,2.1-2.1C295.7,131.2,296.6,131,297.7,131z
		 M297.7,132.1c-0.8,0-1.6,0.2-2.3,0.6c-0.7,0.4-1.3,1-1.7,1.7c-0.4,0.7-0.6,1.5-0.6,2.4c0,1.3,0.5,2.4,1.4,3.3
		c0.9,0.9,2,1.4,3.3,1.4c0.9,0,1.7-0.2,2.4-0.6c0.7-0.4,1.3-1,1.7-1.7c0.4-0.7,0.6-1.5,0.6-2.4s-0.2-1.7-0.6-2.4s-1-1.3-1.7-1.7
		C299.4,132.3,298.6,132.1,297.7,132.1z"/>
	<path class="st3" d="M305.9,131.3h1.1v10h4.3v1.1h-5.4V131.3z"/>
	<path class="st3" d="M313,131.3h1.1v10h4.3v1.1H313V131.3z"/>
	<path class="st3" d="M320.2,131.3h6.4v1.1h-5.3v3.5h5.2v1.1h-5.2v4.3h5.2v1.1h-6.3L320.2,131.3L320.2,131.3z"/>
	<path class="st3" d="M339.2,133.1l-0.9,0.8c-0.6-0.6-1.3-1.1-2-1.4c-0.7-0.3-1.5-0.5-2.2-0.5c-0.9,0-1.7,0.2-2.5,0.6
		c-0.8,0.4-1.4,1-1.8,1.7s-0.7,1.5-0.7,2.3s0.2,1.6,0.7,2.4c0.4,0.8,1.1,1.3,1.9,1.8c0.8,0.4,1.7,0.6,2.6,0.6c1.1,0,2.1-0.3,2.9-1
		c0.8-0.6,1.3-1.5,1.4-2.5h-3.5V137h4.8c0,1.7-0.5,3.1-1.5,4.1s-2.4,1.5-4.1,1.5c-2.1,0-3.7-0.7-4.9-2.1c-0.9-1.1-1.4-2.3-1.4-3.7
		c0-1.1,0.3-2,0.8-2.9s1.3-1.6,2.2-2.1c0.9-0.5,2-0.8,3.1-0.8c0.9,0,1.8,0.2,2.7,0.5C337.6,131.8,338.4,132.4,339.2,133.1z"/>
	<path class="st3" d="M342,131.3h6.4v1.1h-5.3v3.5h5.2v1.1h-5.2v4.3h5.2v1.1H342V131.3z"/>
	<path class="st3" d="M349.1,140.3l0.9-0.6c0.7,1.2,1.4,1.8,2.3,1.8c0.4,0,0.7-0.1,1.1-0.3c0.3-0.2,0.6-0.4,0.7-0.7
		c0.2-0.3,0.3-0.6,0.3-0.9c0-0.4-0.1-0.7-0.4-1.1c-0.3-0.5-1-1.1-1.9-1.8s-1.5-1.2-1.7-1.5c-0.4-0.5-0.6-1.1-0.6-1.7
		c0-0.5,0.1-0.9,0.3-1.3c0.2-0.4,0.6-0.7,1-0.9s0.9-0.3,1.4-0.3s1,0.1,1.5,0.4c0.5,0.3,0.9,0.7,1.5,1.4l-0.9,0.7
		c-0.4-0.6-0.8-0.9-1.1-1.1c-0.3-0.2-0.6-0.3-1-0.3c-0.5,0-0.8,0.1-1.1,0.4c-0.3,0.3-0.4,0.6-0.4,1c0,0.2,0.1,0.5,0.2,0.7
		s0.3,0.5,0.6,0.7c0.1,0.1,0.6,0.5,1.4,1.1c1,0.7,1.6,1.3,2,1.9c0.4,0.6,0.5,1.1,0.5,1.7c0,0.8-0.3,1.5-0.9,2.1s-1.4,0.9-2.2,0.9
		c-0.7,0-1.3-0.2-1.8-0.5S349.6,141.1,349.1,140.3z"/>
</g>
</svg>
