<svg id="Layer_1" data-name="Layer 1" xmlns="http://www.w3.org/2000/svg" xmlns:xlink="http://www.w3.org/1999/xlink" viewBox="0 0 1363.95 1065.59"><defs><style>.cls-1{fill:none;}.cls-2{opacity:0.2;}.cls-3,.cls-6{fill:#52853c;}.cls-4{opacity:0.4;fill:url(#linear-gradient);}.cls-5{clip-path:url(#clip-path);}.cls-6{opacity:0.1;}</style><linearGradient id="linear-gradient" x1="681.97" y1="1065.59" x2="681.97" gradientUnits="userSpaceOnUse"><stop offset="0" stop-color="#fff"/><stop offset="1" stop-color="#51833c"/></linearGradient><clipPath id="clip-path"><rect class="cls-1" x="824.12" y="58.77" width="538.88" height="884"/></clipPath></defs><title>CAF_PlayerBGArtboard 1</title><g class="cls-2"><path class="cls-3" d="M88.72,794.15l-1.86.54c-5.39,1.18-5.72,7.73-9.78,8.55-3.62.83-10.65-11-11.19-14.17-1.79-11.48,16.36-17.7,23.1-19.71-3.09-1.47-3.33-2.54-3.64-4.62-.34-2.58.84-3.45.51-6s-2.08-3.9-2.34-5.91c-.79-4.7,4-10.12,8.45-11.15,5.5-1.24,11.6,2.32,12.75,9.53,1.4,8.92-4.37,7.58-9.85,8.65.8,4.75.36,8.08,6.74,6.68,8.48-2,3.55-21.31,13.94-23.7,5.07-1.1,21.61-4.86,23.12,4,1.81,11.5-12.32,19.53-19.14,23.77l8.54,6.66s.18,1,.36,2.11c.72,4.75-2.74,6.48-2.9,11.44-.61,5,3.27,8.91-2.12,10.22-4,.87-1.87-2.88-5.74-3.61-5.84-1.95-7.45,2.74-8.68-5.07-1-6.18.57-10.88,4.27-17.14l-4.85-1.09c-.05,11.27-3.68,12.16-13.5,14.92l.11.53c.28,2.12,1.37,2.95,2.28,2.8,2.66-.69,3-2.32,4.66-2.73,2.31-.55,3.31-.25,3.67,1.88.46,3.13-.8,4-.49,6,.4,2.55,2,3.35,2.28,5.4,1.12,7.34-10.39,11-15.44,12.1-4,.94-7.77-2-8.61-7.25C82.54,802.11,85.5,797.57,88.72,794.15ZM77.65,816.08c1.45-.28,3.16-.7,3.37,3a20.56,20.56,0,0,1-2.29,3.27l-.5.07c-1.75.5-2.39-.48-2.74-2C75.13,817.85,75.47,816.63,77.65,816.08Zm1.48-58.56c1.71-.41,2.32,3.34,2.65,4.77.41,2.59,0,3.26-1.82,3.64-2.24.54-3.24.13-3.62-2.42S76.84,758,79.13,757.52ZM96.7,818.29c2.27-.52,3,.94,3.29,3.1s.11,3.7-2.09,4.2-2.92-.87-3.33-3.08C94.26,820.51,94.52,818.83,96.7,818.29Zm6.46,10.39c4.89-1.13,13,2.47,13.89,8.74a11.53,11.53,0,0,1-8.62,13.28c-5.38,1.23-7.4-5.4-8.19-10.62C99.49,835.42,98.55,829.73,103.15,828.68Zm2.7-15.14c3.14-.67,3.34.88,3.72,3.4.48,2.69-.21,3.94-2.94,4.49-1.87.38-3.8-.17-4.15-2.25C102.06,816.58,104,813.91,105.85,813.55Zm7.29-7c1.34-.36,4-1,4.16,2.76-1.16,1.4-1.94,2.62-3.19,4l-.84.28a15.6,15.6,0,0,0-3.21-2.59C108.58,807.6,111.69,806.76,113.14,806.53Zm-4-71.94c3.09-.72,3.41.88,3.59,2.37.43,2.7-.58,5-2.82,5.56-1.78.34-3.46-.91-3.79-3.48C105.81,737.47,107.74,734.88,109.14,734.58Zm7.63,4.17c-1.3-8.28-1.62-9.86,5.23-11.38C122.88,733.11,121.82,737.66,116.76,738.76Zm125,211.8-21.2-118.71c-6.31-5.5,13-11.62,13.4-12.17.56-1.81,6.27-16.58,7.36-18.42,7.9-17.44,28.5-46.81,25.22-67.13-.17-1.12-.88-5.85-1.05-6.8l-4,9.55c2,1.15,2.52,1.59,3,4.18.58,3.55-5.84,10.47-8.91,11.16-2.48-14.57-18.12-16.39-16.33-28.69-3.71.36-5,15.67-17.63,18.53-2.69.62-8.62,2-9.38-2.75-1.14-7.33,5-7.62,5.45-13.11-.06-.46-1.29-8.25-1.43-9.34a32.2,32.2,0,0,1,1.72-6.94c-1.57,2.1-5.81-.78-6.09-2.91-.31-1.45-.27-4.18,1.49-4.62,3.23-.77,4.45,4,7.56,3.21l.47-.13c.79-.7,4.61-3.21,5.43-3.91-4.94,1-14.63-1-15.64-7.24-1.78-11.48,15.56-20.26,22.26-24.41,4.67-15.16,21.19-8.1,23.55-16.73-3-.94-2.24-2.24-2.46-3.77-.35-2.14-.51-5.8,2.69-6.53,1.3-.31,1.87.08,3.89.77-.18-1,.33-6.54.08-8.14l-.19-1-.05-.57c-.82.7-4.71,3.21-5.41,4.56l-.44,0-.46,0c-1.88-.6-7.78-2.48-9.37-3.2-.55,2.78-1,5.68-3.68,6.25a4,4,0,0,1-4.78-3.24c-.2-1.61,2.6-4.36,3.56-4.59l3.34.38c.44-.14,1.31-.9,1.18-1.33-3.11-7.46-15,5.49-17.4-9.12-1.93-12.44,1.67-16,11.67-18.22,1.76-.32,7-2.68,10.15-.71,3.76,3.46,12,19.89,12,25.35,4.05-6.27,8.46-8.39,15.63-10,3.65-.85,20.2,6.28,21.25,13,1.06,6.22-8.69,12.69-12.3,13.61l-1.33.27c-.95.26-3.53-1.38-4.89-1.08-.42.19-3,1.26-3.27,2.85-.89.24-1.56,2.11-1.56,2.11.77,4.06,4.53,7.54,5.19,11.69.75,4.67-1.29,6.73-4.44,7.47s-4.89,1.13-8.08-.85l-1.55,5.15c6.3-1.37,14.27-1.52,15.63,6.76,1.9,12-8.32,24-15.37,29.88,1.65,4,7,8.73,7.76,13.39.59,3.67.68,4.18-.59,8.31l.12,53.25c6.43-9.53,13.27-27.74,17.14-36.12-6.08.26-10.23.09-11.59-8.22-2-12.55,4-19.24,14.26-22.12l-.75-4.68s-6-2.43-9.44-3.32c-2.79.08-6.42,3.64-7.34-2.06-.71-4.74,11-7.33,9.78-26.54.33-6.55-3.79-12,3.93-13.75,5.81-1.39,6.48.17,13.62,3.33,6.73,3.91,5.12,9.1,6.4,16.86L319.81,687c.43-6,4.49-16.1,10.82-17.48,2.67-.61,9.95.88,12.15.38.28-4.3,4.13-12.22,8.19-13.15,5-1.1,7.06.05,7.78,4.67,1.25,7.89-5.11,11.91-12.42,13.17a43.28,43.28,0,0,1-1.67,13.23c.17,1.13.77,1.4,1.23,1.36,4.92-1.13,9.15-10.08,11.35-10.67,6.27-1.44,5,13.5,10.84,12.12.49-.06,1.66-1.45,5.29-2.26,3.11-.74,8.21,5.18,8.67,7.8.22,1-1.27,4-1.1,5,.68,1.06,2.05,1.23,2.65,4.32.39,2.66.95,6.26-2.63,7.12-5.45,1.19-3.14-4.69-4.9-7,0,0-6.18-.74-7.29-1.58s-3.12-5.3-4.16-5.56c0,0-3.57.85-4,1-6.39-2.46-3.31-6.33-11-4.55l-2.72.59-.3,3.79a26.34,26.34,0,0,1,5.92,2c.52.34,5.78,4,6.38,4.93,4.54,2.26,10.31-.07,11.57,8.21.38,2.66-.23,4.38-2.43,4.87-4.1.87-6-5.13-10.07-4.19-2.69.63-4.73,5.38-6.65,8,6.19,6.58,20.89-6.37,23.13,7.13,1.55,9.89-9.4,14.55-16.17,16-5.38,1.33-7.46.09-9.82-5.83l-.46.13c-3.14.78-2.36,5.35-6,6.24-5.47,1.19-9.54-12.9-11.36-12.6-2.77.65-4.61,3.24-2.17,7-12.67,17.34-30.62,43-40.23,64.62.14.56-.77,3.93-.66,4.51-.06,5.39.83,28.44.6,33.23.92,5.28,4.71,29.15,5.51,33.86,4.84,30.72,13.11,59.07,18.07,90.32-4.54,1-6.46.45-8.54-4-3.77,8.5-35.66,11.38-34.31,11l-2-1.14-1.9-12s-3.86-.7-5.12.14c-1.4.29-2.66,3.81-2.66,3.81l-.43.08c-1.45.33-3.47-.84-4.77-.41-1.81.27.07,3.62-3.54,4.52-1.79.29-3.58.67-5.54-2.57L245,980l-20.74,4.66c-3.69-22.86-3.94-45.45-7.49-67.24-3.87-24.6-9.52-48.09-13.32-72.05-.62-4.14-2.58-16.1-2.6-16.61-.23-1.1-8.11-19.61-4.54-20.48,3.13-.75,9.46,0,10.71,2l3.52,9.26c-.36-2-1.08-4.11-3-4.13l-75.37-18.08c-1-.24-1.08-1.4-1.25-1.9-.64-4.14,2.55-4.84,4.74-5.35,5.43-1.2,11.12,2.32,16.57,1.08,3.61-.75,3.44-13.74,8.36-14.79,2.22-.48,10.52,7.28,13,8.34,6.94,2.24,24,9.73,25.82,9.31a161,161,0,0,0-17-44.71c-2.54,1.69-6.53,2.57-7.19-1.57-.62-3.61,3.64-3,2.83-8.28-.38-2-.7-4.08-2.89-6.24-1,2.73-1.83,3-4.49,3.64-1,.16-3.21.68-3.54-1.44-.24-1.59.49-6,2.23-6.38,1.38-.31,3.8.14,3.6-.81-.06-.57-1.79-5.48-1.88-6a7,7,0,0,1-4.62,3.7c-2.13.51-3.66-.26-4-2.8s9.19-9.18,10.61-9.41c.89-.22,1.3-.31,2.48,1,.6.9,5.32,10.18,6,11.54-1.1-4.09-1.71-10.36-.84-14.39,0-2.58,4.08-3.55,4.6-6.38,2.6-7.08,3.5-15.84,11.17-17.6,6.77-1.59,10.8.24,12.06,8,1.06,6.84,1.06,9.45-1.62,16.53a13.38,13.38,0,0,1-6.06,3c-5,1.13-10.88-1.3-14.75-4.8.18,1.1.3,1.55,1,6.28,2.3,8.65,12.53,46.67,14.71,54.37.36,2.15,3.85,9.41,4.51,10.82,2.07,3.9,12.16,23.14,14.67,27l.23,1.54.2,1.55M125.25,715.8c1.8-.38,6.32-1.35,8.21-1.83.82-.19,7.16,4.3,8.16,4.62,5.13,2.66,9.55-1.59,10.89,6.75,1,6.75-3.69,14.84-9.64,16.13l-.38.19c-10.76-3.09-15.2-4.71-17.16-16.66C125,722.32,123.42,718.89,125.25,715.8ZM146,763c-.73-4.18-.59-15,4.34-16.24,1.88-.29,3.26-.13,3.73,2.54.85,5.79-3.83,8.42-4.56,12.93-.17,1.65,4.26,6,4.51,7.46,1.33,8.39-4.83,13.6-10.68,14.93-6.42,1.43-8.82-1.8-9.72-8.11C131.61,764.57,140,764.22,146,763Zm-3-59.21c1-.24,2.1,1.14,2.28,2.15.57,3.68-.13,7.55-3.78,8.39-1.37.3-2.17-1.64-2.41-3.24C138.48,707.47,139.85,704.47,142.93,703.77ZM138.28,680c1.77-.46,4.74.48,5.06,2.54.39,2.65-1.06,4.66-2.9,5-3.17.7-3.77-.2-4.32-3.38C135.81,682.18,135.53,680.52,138.28,680Zm23.62,22.16c-2.68.53-18.46-7.21-18.77-9.18-1.15-7.33,13.4-7.42,12.26-14.13-.16-1.11-1.81-2.31-2.11-3.85a4.45,4.45,0,0,1,3.55-4.64c4.56-1,2.8,3.12,3.48,6.8,5.79-1.29,9.12-4.19,14.51-5.49,4.91-1,7,2.69,7.55,7,1.07,6.12-2,10.73-1,16.36.27,2.12,1.78,2.26,2.28,5.44.32,2.08-2.36,2.7-3.78,3-1.74.35-3.6.9-3.92-1.18-15.8,3.49-2.33,5.85-11.39,7.88-1.69.42-2.74.16-3.17-2.47A8.81,8.81,0,0,1,161.9,702.18Zm-1.67,36.51c.57,3.13-4,4.09-5.41,4.41-.42-3.09-.33-5.25,2.83-5.95C159,736.83,160,737.06,160.23,738.69Zm-11.88-71.21c1.38-.32,4.28,2.78,4.4,3.83-.1,2.73-1.73,3.61-3.52,4-2.3.46-3.3.15-3.7-2.37S146.62,667.82,148.35,667.48ZM153,649.2c.56,3.06-.15,5.39-2.82,6-1.33.23-3.19.17-3.46-1.42C146.2,650.72,151.15,649.53,153,649.2Zm7.3-1.15c3.55-.84,6.49,2.36,10,1.57,5-1.13,3.15-24.51,13.77-25.32,3.65-.22,9.57,4.37,10.27,8.49.93,5.76-3.14,4-5.59,8.89-5.38,7.59-1.26,21.82-11.61,24.1-3.13.77-4.56-2.13-7.69-1.38-2.68.61,0,3.15-4.52,4.22-5.36,1.26-8.82-3.48-9.77-9.18C154.28,654.23,155.75,649.12,160.28,648ZM168,631.72c1.73-.36,3.27-.18,3.54,1.93a3.6,3.6,0,0,1-3,4.41c-1.3.33-3-1.39-3.22-3C164.88,632.95,166.21,632.16,168,631.72Zm28.81,16.68c-.21-1-.94-5.7-1.15-6.71.67-8.22,6.9-28,15.42-29.93,3.61-.79,10.62,2.46,11.5,7.68.57,3.56,2.17,13.53-1.67,18.66,4.87-4.27,16.53,4.42,17.38,9.59.13,1.05.62,3.62.69,4.19-4.36,8-9.6,18.87-19,21-5.47,1.23-10.15-2-11.94-7-5.87,4.07,1.82,14.17-8.12,16.37-5.86,1.42-10.47-4.05-14.88-8.42C182.47,658.22,194.73,658.59,196.77,648.4Zm1.06,74.23c1.84-.43,3.93.7,4.32,3.37.36,2.16-3,4.46-4.39,4.69-2.24.55-2.48-1.52-2.88-3.1C194.45,724.5,194.7,723.3,197.83,722.63ZM199,753.1c-.74-4.68-.79-10.52,5.56-12.09,10.46-2.29,4.32,15.85,11,19.1,3.4-2.26-1.45-6.06,4-7.3,1.8-.4,3.2-.83,3.91.76,1,6.79,7.81,40.33,9.06,48.07,0,0,.49,3.16.56,3.68.56,3.59.2,4.28-2.51,4.83l-2.24.44c-10.14-13.76-15.31-31.51-20.36-48.7C199.48,755.71,199.15,753.64,199,753.1Zm12.18-31.87a3.69,3.69,0,0,1-3,4.46c-3.58.9-4.12-8.23-4.18-8.73C208,716,210.42,716,211.2,721.23Zm7.72,48.43c.63-2.27-.28-8-1.29-8.35C216.48,760,218.11,770.37,218.92,769.65ZM197,611.2c2.24-.53,3.76.23,4.2,2.84.31,2.07-1,2.84-3.23,3.43-1.82.34-3.29.17-3.55-1.94C194,613,195.12,611.54,197,611.2Zm12.65,47.31a15,15,0,0,0,3.15-12.09,43,43,0,0,0-10,3.88C205.8,652.32,208.68,655.52,209.61,658.51Zm.73,16.57c1.85-.46,3.67-.84,4.2,2.29.59,3.58-1.2,4-3,4.41-2.29.5-3.65.83-4.24-2.84C206.81,675.79,208.2,675.63,210.33,675.07Zm25.57,66c4.92-1.13,12.26,3.66,13.21,9.35.93,6.14-6.22,17-11.64,18.26-6.34,1.43-7.81-5.19-8.68-10.39C227.75,751.47,228.64,742.64,235.91,741.06Zm18.77,135.36c1.39,8.83,10.35,50.09,12.2,58.76-.42-11.2-5-63.54-5.93-75.2-.37-2.13-3-18.83-3.93-24.54-.59-3.59-3.15-20.28-3.83-23.84-2.79,6-4.93,15.57-5.76,19.52.57,3.68,3.21,19.85,3.6,22.38C251.94,859.24,254.52,875.45,254.68,876.42ZM241.13,718.27c1.54-2,4.6-6.48,7.33-7.06,3.09-.8,5.47,2.59,8.22,1.85.88-.14,1.43-.25,1.93-2.49-3.82-3-6.8-4.48-7.36-8.16-.45-2.58.63-4.85,0-8.06-.05-1.06-5.78-1.36-7.31-2.12-.33-2.6-.56-9.12-3-10.65-3.3,8.89-5,9.82-11.73,17.29C235.72,701.74,241.07,709.08,241.13,718.27Zm4-19.3c.61,4.22-3,5-5.29,5.58-.59-3.66-1.24-7.81,1.9-8.56C244,695.51,244.53,695.87,245.14,699Zm-3.46-21.3c.82-.2.66-1.76-.26-1.59C241,676.2,241.17,677.75,241.68,677.67Zm4.51-36.1a3.72,3.72,0,0,1,4.74,3.25c.3,1.55-.72,7.15-3.12,6.63-3.26.21-3.57-1.83-4.08-4.95C243.41,644.35,243.08,642.24,246.19,641.57Zm53.14,306.3c.22-3.81-2.23-19.44-3.64-22.45C294.66,921.9,299.39,951.58,299.34,947.87Zm-35-292c.34-.68,3-4.46,3.36-5.15l-.2-1.62a3.23,3.23,0,0,0-4.23-2.72l-.44.07a41.37,41.37,0,0,0-3.72,6.17Zm17.42,97.38.94-.22a20.8,20.8,0,0,0,3.28,3c.23,1.63-1.08,5-2.93,5.49s-3.22.26-3.65-2.36S279.93,753.73,281.8,753.27ZM264.29,599.76c2.27-.54,8.94,6.57,9.65,10.2.33,2.07.57,4.12-1.71,4.77-2.2.5-11.49-7.69-11.7-9.2A4.91,4.91,0,0,1,264.29,599.76Zm35.38,151.6c-1.48,2.47-8.22,15.89-9.94,19,.82-.17,1.8-2.67,2.31-2.74,2-2.1,10-13.56,12-15.63l2.22-.48c2.25-.54,3.64-.85,5,2.1l9.19-15.59c-5.54-2.54-3.72-5.61-6.52-11.46-1.28-5.13-6.87.49-7.89-5.8-.44-2.59-.64-4.12,2.24-6.39,1.54.66,8.29-.84,10-2.31,1.91-2,8.1-10.48,7.82-12l-.24-2c-4.15.92-6.36,7.39-10.41,8.25-6.37,1.39-7.28-4.24-7.26-10.25-5.48,6.71-7.75,4.46-12.15,14.55,1.44.26,4.29.76,4.62,2.85s-.77,3.94-.55,5c.52,3.59,2.14,4.82,2.68,8,1.19,7.27-4.68,14.5-4.34,17.11l.32,1.55,1.72,2.3A18.93,18.93,0,0,1,299.67,751.37ZM287.1,649.07c1.85-.33,3.47.82,3.83,3.46.15,1-3.07,13.11-4.36,13.41-1.88.38-3.69.27-4.11-2.31C281.85,660,283.14,650,287.1,649.07Zm23.57-8c7.19-1.69,18.36,3.91,19.59,11.74,3.94-7.39,7.64-13.61,15.37-15.31,3.51-.91,7.75-.71,8.68,5,1.42,8.81-10.74,17.47-17,18.95-3.17.69-5,1.07-5.91-1.81-.52,6-4.29,5.21-8,6-6.72,1.57-13-2.35-20.41-1.73-4.54.54-9.52,4.28-10.81-3.54C290.57,649.89,303.4,642.77,310.67,641.08Zm1,97.35.55-.11a24.62,24.62,0,0,0,3.26,3,13.54,13.54,0,0,1-.76,4.52l-.87.14c-2.66.63-4.51,1.07-5.08-2.6C308.28,740.82,308.48,739.17,311.63,738.43Zm5.4-65.87c1.81-.5,3.18-.72,3.67,2.32s-1.72,3.67-4,4.21c-1.37.31-4.94,1.62-4.08-2.29C312.53,673.51,314.36,673.07,317,672.55Zm11.15,78.91c2.52.48,3.55,1.32,4,4.39.28,2.24-1,3-3.19,3.45s-3.21.19-3.59-1.84S326.31,751.27,328.17,751.46Zm-14.51-129.4c2.17-.54,2.8-.1,3.18,2.48s-.89,3.46-3.09,4c-1.36.36-3.18.7-3.57-2A4.16,4.16,0,0,1,313.67,622.06Zm10.82,9.33c2.26-.43,3.74-.26,4.06,1.89a3.77,3.77,0,0,1-3,4.45c-2.29.48-3.52-.91-3.85-3S322.23,632,324.49,631.39Zm21.63,94.36c-.47.15-2.23.5-2.68.65-2.72.66-4.6.94-6.45,3.64C344.65,742.92,341.47,732.36,346.12,725.75Zm-1.55-109.15c1.83-.34,2.82,0,3.09,2.08.56,3.14-.69,3.9-2.57,4.32-2.6.6-3.68.28-4.18-2.81C340.52,617.55,342.36,617.19,344.56,616.61ZM375.31,668c2.22-.6,2.54,1.6,2.78,3.17.63,4.13-7.48,8.66-10.71,9.4-2.29.51-2.4-.51-2.8-3.18S373,668.53,375.31,668Zm-5.94-7.29c2.26-.54,3.71-.35,4.13,2.25s0,3.26-2.29,3.72a3.51,3.51,0,0,1-4.56-2.67C366.23,661.39,368.08,661,369.36,660.71Zm29.56,26.8c1.63,4.35-6,6.14-6.52,6.26-.64-4.15-1.28-8.39,1.85-9.06C396.5,684.17,398,685,398.92,687.51Z"/><ellipse class="cls-3" cx="281.22" cy="615.06" rx="14.13" ry="15.9" transform="translate(-344.22 872.37) rotate(-87.79)"/><path class="cls-3" d="M338.5,642.9c-.31,7.79-7.66,13.84-16.44,13.5s-15.64-6.93-15.34-14.73,7.66-13.85,16.43-13.51S338.79,635.11,338.5,642.9Z"/><path class="cls-3" d="M347.93,673.31c-.3,7.79-7.66,13.84-16.44,13.51s-15.64-6.94-15.34-14.74,7.65-13.84,16.43-13.5S348.23,665.52,347.93,673.31Z"/><path class="cls-3" d="M328,627.91c-.3,7.81-7.66,13.85-16.42,13.5s-15.65-6.92-15.34-14.73,7.66-13.85,16.43-13.51S328.32,620.11,328,627.91Z"/><path class="cls-3" d="M153.36,687.47c-.3,7.8-7.66,13.84-16.43,13.51s-15.64-6.92-15.34-14.73,7.65-13.85,16.43-13.51S153.67,679.69,153.36,687.47Z"/><path class="cls-3" d="M133.88,734.45c-.31,7.81-7.66,13.86-16.43,13.51s-15.64-6.93-15.34-14.74,7.65-13.84,16.43-13.51S134.17,726.66,133.88,734.45Z"/><path class="cls-3" d="M138.37,709.44c-.43,11.44-7.51,20.47-15.79,20.15s-14.65-9.86-14.21-21.32,7.52-20.48,15.81-20.16S138.81,698,138.37,709.44Z"/><path class="cls-3" d="M158.47,658.06c-.23,6-7.14,10.56-15.42,10.23s-14.82-5.41-14.59-11.39,7.13-10.55,15.42-10.23S158.71,652.1,158.47,658.06Z"/><path class="cls-3" d="M269.45,599.58c-.23,6-7.13,10.56-15.42,10.23s-14.83-5.41-14.59-11.38,7.13-10.56,15.41-10.25S269.68,593.61,269.45,599.58Z"/><path class="cls-3" d="M400.71,679.77c-.22,6-7.12,10.55-15.42,10.23s-14.82-5.42-14.59-11.39,7.13-10.55,15.43-10.23S400.94,673.81,400.71,679.77Z"/><path class="cls-3" d="M216,611.22c-.28,7.19-5.44,12.83-11.53,12.59s-10.81-6.25-10.54-13.44,5.44-12.83,11.54-12.6S216.24,604,216,611.22Z"/><path class="cls-3" d="M175.92,721.49c-.33,8.53-7.11,15.2-15.15,14.88s-14.3-7.48-14-16,7.11-15.19,15.15-14.88S176.25,713,175.92,721.49Z"/><path class="cls-3" d="M183.79,769.52c-.32,8.53-7.11,15.2-15.16,14.89s-14.29-7.48-14-16,7.12-15.2,15.16-14.89S184.12,761,183.79,769.52Z"/><path class="cls-3" d="M205.79,749.16c-.33,8.52-7.12,15.2-15.17,14.88s-14.29-7.47-14-16,7.12-15.2,15.16-14.89S206.12,740.64,205.79,749.16Z"/><path class="cls-3" d="M189,633.61c-.33,8.52-7.12,15.19-15.16,14.88s-14.29-7.47-14-16,7.12-15.2,15.17-14.89S189.36,625.09,189,633.61Z"/><path class="cls-3" d="M137,814.57c-.33,8.53-7.11,15.21-15.16,14.89s-14.3-7.48-14-16S115,798.26,123,798.56,137.3,806,137,814.57Z"/><path class="cls-3" d="M115.66,713.86c-.33,8.53-7.11,15.19-15.15,14.89s-14.3-7.48-14-16,7.11-15.19,15.16-14.88S116,705.34,115.66,713.86Z"/><path class="cls-3" d="M308.13,666.24c-.31,7.8-7.66,13.84-16.43,13.51s-15.64-6.92-15.34-14.72,7.65-13.85,16.42-13.52S308.44,658.44,308.13,666.24Z"/><path class="cls-3" d="M339,678.48c-.31,7.8-7.66,13.84-16.44,13.5S307,685,307.26,677.26s7.65-13.84,16.43-13.51S339.34,670.69,339,678.48Z"/><path class="cls-3" d="M220.6,708.68c-.3,7.8-7.65,13.86-16.43,13.51s-15.64-6.93-15.34-14.74,7.65-13.83,16.43-13.5S220.91,700.89,220.6,708.68Z"/><path class="cls-3" d="M244,824.64c-.29,7.79-7.65,13.85-16.43,13.51S193,770.38,193.34,762.58s2.36-14.05,11.14-13.72S244.28,816.85,244,824.64Z"/><path class="cls-3" d="M267.23,783c-.29,7.8-7.65,13.85-16.42,13.51s-15.65-6.94-15.35-14.73,7.66-13.85,16.43-13.52S267.54,775.17,267.23,783Z"/><path class="cls-3" d="M268.39,753.09c-.3,7.8-7.66,13.85-16.43,13.5s-15.63-6.92-15.34-14.73S244.27,738,253,738.36,268.69,745.3,268.39,753.09Z"/><path class="cls-3" d="M308.55,754.64c-.3,7.8-7.66,13.85-16.44,13.52s-15.63-6.93-15.34-14.73,7.65-13.85,16.43-13.51S308.86,746.84,308.55,754.64Z"/><path class="cls-3" d="M225.71,679.26c-.22,6-7.13,10.56-15.42,10.24s-14.83-5.41-14.58-11.39,7.13-10.55,15.41-10.23S225.94,673.31,225.71,679.26Z"/><ellipse class="cls-3" cx="228.6" cy="742.14" rx="15.46" ry="14.57" transform="translate(-521.77 942.08) rotate(-87.8)"/><path class="cls-3" d="M251,790.73c-.34,8.53-7.13,15.2-15.17,14.89s-14.29-7.48-14-16,7.12-15.19,15.16-14.89S251.37,782.2,251,790.73Z"/><path class="cls-3" d="M328.33,719.16c-.33,8.52-7.11,15.2-15.15,14.89s-14.3-7.49-14-16,7.11-15.19,15.15-14.88S328.66,710.64,328.33,719.16Z"/><path class="cls-3" d="M289.5,717.66c-.33,8.53-7.12,15.2-15.15,14.89s-14.3-7.48-14-16,7.11-15.2,15.15-14.89S289.83,709.14,289.5,717.66Z"/><path class="cls-3" d="M198.21,670.54c-.33,8.53-7.12,15.2-15.15,14.89s-14.3-7.48-14-16,7.11-15.19,15.16-14.88S198.54,662,198.21,670.54Z"/><path class="cls-3" d="M216,759.62c-.33,8.53-7.11,15.19-15.15,14.89s-14.3-7.47-14-16S194,743.3,202,743.62,216.33,751.09,216,759.62Z"/><path class="cls-3" d="M243.27,617.48c-.33,8.54-7.11,15.2-15.15,14.88s-14.31-7.48-14-16,7.11-15.19,15.15-14.88S243.6,609,243.27,617.48Z"/><path class="cls-3" d="M257.89,697c-.33,8.53-7.12,15.2-15.16,14.89s-14.3-7.47-14-16,7.11-15.19,15.15-14.88S258.21,688.47,257.89,697Z"/><path class="cls-3" d="M216.79,731.08c-.34,8.53-7.11,15.19-15.15,14.88s-14.3-7.48-14-16,7.11-15.19,15.16-14.88S217.13,722.55,216.79,731.08Z"/><path class="cls-3" d="M147.41,665.94c-.33,8.53-7.12,15.2-15.15,14.9s-14.3-7.49-14-16,7.11-15.19,15.16-14.88S147.74,657.42,147.41,665.94Z"/><path class="cls-3" d="M317.37,751.45c-.32,8.53-7.12,15.19-15.16,14.88s-14.29-7.47-14-16,7.12-15.19,15.16-14.89S317.69,742.93,317.37,751.45Z"/><path class="cls-3" d="M92.1,755.74c-.33,8.53-7.12,15.2-15.16,14.88s-14.3-7.47-14-16,7.12-15.2,15.16-14.89S92.43,747.21,92.1,755.74Z"/><path class="cls-3" d="M256.26,654.81c-.33,8.53-7.11,15.2-15.15,14.88s-14.3-7.47-14-16,7.11-15.2,15.15-14.88S256.6,646.28,256.26,654.81Z"/><path class="cls-3" d="M182.91,735.08c-.33,8.52-7.11,15.19-15.16,14.87s-14.3-7.47-14-16,7.11-15.19,15.15-14.89S183.23,726.55,182.91,735.08Z"/><path class="cls-3" d="M108.5,822.23c-.29,7.5-8.28,13.26-17.83,12.89s-17.08-6.73-16.8-14.22S82.16,807.65,91.71,808,108.79,814.75,108.5,822.23Z"/><path class="cls-3" d="M169.29,801.67c-.44,11.45-7.51,20.49-15.8,20.17s-14.64-9.86-14.2-21.32,7.51-20.5,15.81-20.17S169.73,790.22,169.29,801.67Z"/><path class="cls-3" d="M145.23,806.93c-.33,8.54-7.11,15.2-15.16,14.89s-14.3-7.48-14-16,7.1-15.2,15.15-14.88S145.56,798.4,145.23,806.93Z"/><path class="cls-3" d="M261.68,743.58c-.25,6.71-5,12-10.61,11.74s-9.95-5.83-9.69-12.53,5-12,10.62-11.74S261.95,736.88,261.68,743.58Z"/><path class="cls-3" d="M384.54,720.9c-.25,6.7-5,12-10.61,11.75s-9.95-5.83-9.69-12.53,5-12,10.63-11.73S384.8,714.21,384.54,720.9Z"/><path class="cls-3" d="M370.88,662.71c-.26,6.7-5,12-10.63,11.74s-9.94-5.83-9.68-12.52,5-12,10.63-11.75S371.13,656,370.88,662.71Z"/><path class="cls-3" d="M255,808.86c-.33,8.53-7.12,15.2-15.15,14.88s-14.3-7.48-14-16,7.12-15.2,15.17-14.89S255.38,800.34,255,808.86Z"/><path class="cls-3" d="M107.5,742.27c-.32,8.53-7.11,15.2-15.15,14.89s-14.3-7.47-14-16S85.5,726,93.53,726.28,107.83,733.76,107.5,742.27Z"/><path class="cls-3" d="M164.61,758.62c-.33,8.54-7.11,15.2-15.15,14.89s-14.3-7.48-14-16,7.11-15.18,15.15-14.88S164.94,750.1,164.61,758.62Z"/><path class="cls-3" d="M148.66,714.13c-.22,5.43-4.53,9.67-9.65,9.48a9.85,9.85,0,0,1,.75-19.66C144.88,704.14,148.86,708.71,148.66,714.13Z"/><path class="cls-3" d="M236.16,752.54c-.33,8.52-7.12,15.2-15.16,14.89s-14.3-7.48-14-16,7.12-15.19,15.16-14.88S236.48,744,236.16,752.54Z"/><path class="cls-3" d="M350.45,630.83a13.69,13.69,0,1,1-13.14-14.49A13.83,13.83,0,0,1,350.45,630.83Z"/><path class="cls-3" d="M395.68,695.77c-.22,5.52-6.51,9.76-14.07,9.47s-13.5-5-13.3-10.52,6.52-9.76,14.07-9.46S395.89,690.25,395.68,695.77Z"/><path class="cls-3" d="M328.66,760.36c-.21,5.51-6.51,9.75-14.06,9.46s-13.52-5-13.3-10.51,6.51-9.75,14.07-9.47S328.87,754.85,328.66,760.36Z"/><path class="cls-3" d="M345.78,752.18c-.23,6-3.38,10.76-7,10.63s-6.44-5.13-6.22-11.14,3.39-10.75,7.05-10.62S346,746.18,345.78,752.18Z"/><path class="cls-3" d="M370.73,746.37c-.09,2.39-3.2,4.59-6.53,4.46s-3.79-3-3.69-5.38.7-3.44,4-3.31S370.82,744,370.73,746.37Z"/><path class="cls-3" d="M349,764.74c-.21,5.52-6.5,9.76-14.06,9.47s-13.52-5-13.3-10.52,6.51-9.76,14.07-9.46S349.25,759.23,349,764.74Z"/><path class="cls-3" d="M362.77,753.11c-.22,6,.79,7.73-2.86,7.59s-7.24,1.36-7-4.65,3.38-10.76,7-10.62S363,747.1,362.77,753.11Z"/></g><rect class="cls-4" width="1363.95" height="1065.59"/><g class="cls-5"><path class="cls-6" d="M1436.8,360.47c119.63,31.44,167.84,145,136.66,259.26-8.9,32.86-22.84,60-45.7,85.83-49.7,56.78-105.08,115.33-185.18,116.06-27.75-.1-47.28-14.89-75-7.6-19.19,4.47-35.06,3.25-53.74-1.78-136.3-37.09-222.07-223.68-186.41-354.79,14.64-53.84,39-88.71,88.5-113.68,17.12-8.09,43.1-17.07,62.59-18.35,40.84-1.64,54.75,2,84.38,10,6.09,1.64,45.25,18.73,45.25,18.73,9.64,3.91,22.76,7.55,25.07,6.84,1.91-.59,3.76-35.19,3.24-41.53-.62-9.71-3.62-32-3.62-32-44.64,23.13-96.1,31.56-142.62,19.07-38.78-10.78-65.51-33.24-83.35-66.55-7.83-14.73,40-35.44,18.54-25,48.34-23.71,85-34.46,129.74-22.31,12.86,3.53,48.31,22.86,59.53,32.25l2.92,1c-6.43-23.2-17.88-43.62-30.89-63,.77-10.45,25.5-10.25,30.42-2.56,7.17,11.2,22.29,44.19,27.24,56.52,6.48,16.13,11.92,34,14,52.08.82,7.25,3.48,24.22,3.88,43.49l.66,47.08C1374.06,355.57,1409,353.16,1436.8,360.47Z"/></g></svg>