<?xml version="1.0" encoding="utf-8"?>
<!-- Generator: Adobe Illustrator 15.0.2, SVG Export Plug-In . SVG Version: 6.00 Build 0)  -->
<!DOCTYPE svg PUBLIC "-//W3C//DTD SVG 1.1//EN" "http://www.w3.org/Graphics/SVG/1.1/DTD/svg11.dtd">
<svg version="1.1" id="Layer_1" xmlns="http://www.w3.org/2000/svg" xmlns:xlink="http://www.w3.org/1999/xlink" x="0px" y="0px"
	 width="300px" height="40px" viewBox="0 0 300 40" enable-background="new 0 0 300 40" xml:space="preserve">
<g id="Blue_300_and_black_bkgrd">
	<g>
		<path fill="#0079C1" d="M25.333,23.546c-2.653,2.517-12.304,6.997-19.108-0.271c-2.993-3.196-4.353-8.161-0.341-16.05
			c0.48-0.943,9.452-7.956,18.971-5.49c16.523,4.28,15.438,17.373,15.524,17.455c0.084,0.084-1.572-1.803-5.798-1.898
			C28.118,17.143,25.333,23.546,25.333,23.546z"/>
	</g>
	<g>
		<path d="M4.169,10.138c-4.624,20.74,17.958,18.401,21.086,13.1c1.229-2.088-2.577,9.074-11.076,9.753
			C13.062,33.08,3.298,33.333,1.53,21.363C0.526,14.568,4.169,10.138,4.169,10.138z"/>
	</g>
</g>
<g>
	<path fill="#BAD0EC" d="M21.515,37.141c-0.184,0-0.375,0-0.57-0.004C10.965,37.025,0.933,31.232,1,18.543
		c0.026-4.741,2.096-9.169,5.826-12.464c3.7-3.269,8.621-5.069,13.857-5.069c5.238,0,10.212,1.847,14.006,5.201
		c3.831,3.385,5.939,7.857,5.939,12.598c0,1.603,0,1.85-0.205,3.156l-0.705-0.111c0.197-1.252,0.197-1.457,0.197-3.043
		c0-9.262-8.809-17.084-19.233-17.084c-10.409,0-18.919,7.546-18.969,16.822C1.646,30.75,11.326,36.318,20.947,36.425
		c3.768,0.042,4.995-0.286,7.882-1.608l0.297,0.647C26.322,36.749,24.96,37.141,21.515,37.141z"/>
</g>
<g>
	<path fill="#BAD0EC" d="M7.51,20.586l-0.708-0.087c0.701-5.687,2.527-10.206,5.425-13.433c3.062-3.413,7.257-5.297,12.463-5.602
		l0.042,0.712C14.883,2.753,8.927,9.119,7.51,20.586z"/>
</g>
<g>
	<path fill="none" stroke="#BAD0EC" stroke-width="2.8412" d="M13.62,35.991"/>
</g>
<g>
	<path fill="#BAD0EC" d="M27.027,22.461l-0.599-0.189c1.92-6.061,1.389-12.355-1.42-16.839l0.532-0.333
		C28.445,9.735,29.001,16.227,27.027,22.461z"/>
</g>
<g>
	<path fill="none" stroke="#BAD0EC" stroke-width="2.8412" d="M4.917,25.701"/>
</g>
<g>
	<path fill="none" stroke="#FFFFFF" stroke-width="2.8412" d="M36.071,13.107"/>
</g>
<g>
	<path fill="none" stroke="#BAD0EC" stroke-width="2.8412" d="M16.667,35.84"/>
</g>
<g>
	<path fill="none" stroke="#0079C1" stroke-width="2.8412" d="M25.607,24.122"/>
</g>
<g>
	<path fill="none" stroke="#0079C1" stroke-width="2.8412" d="M5.438,15.139"/>
</g>
<g>
	
		<rect x="22.117" y="1.558" transform="matrix(0.9796 0.201 -0.201 0.9796 3.319 -4.2264)" fill="#BAD0EC" width="0.714" height="25.348"/>
</g>
<g>
	<path fill="#BAD0EC" d="M27.444,7.153c-7.683,0-13.948-4.091-14.026-4.144l0.395-0.595c0.095,0.063,9.628,6.282,19.439,3.142
		l0.217,0.679C31.421,6.891,29.389,7.153,27.444,7.153z"/>
</g>
<g>
	<g>
		<g>
			<path fill="#FFFFFF" d="M12.357,11.402c-0.021,0.163,0.417,2.083,0.854,2.734c0.654-0.362,1.425-0.956,1.864-1.548
				c0.984,0.232,1.123,0.385,2.639-0.083c-0.993,0.788-1.046,1.797-1.699,2.94c1.062-1.408,2.74-0.605,4.239-1.293
				c0.179-0.082,0.625-0.313,0.691-0.834c0.031-0.791,0-1.438-1.068-1.953c-0.258-0.123-0.408-0.103-0.703-0.111
				c0.094-0.048,0.404-1.654,1.303-1.833c-0.849-0.8-1.522-0.418-1.953-0.084c-0.514,0.399-0.414,0.879-0.986,1.201
				c0.444-0.639-1.068-1.947-1.917-2.041c-0.85-0.091-2.009-0.065-2.591,0.813c0,0,1.107,0.061,1.624,0.836
				c0.553,0.828,1.199,1.019,1.199,1.019S13.348,11.771,12.357,11.402z"/>
			<path fill="#BAD0EC" d="M16.017,15.667c-0.043,0-0.085-0.012-0.122-0.037c-0.098-0.063-0.129-0.192-0.07-0.294
				c0.219-0.384,0.371-0.753,0.516-1.111c0.184-0.453,0.361-0.89,0.657-1.293c-0.743,0.17-1.076,0.096-1.649-0.05
				c-0.058-0.015-0.119-0.028-0.183-0.046c-0.512,0.63-1.301,1.193-1.845,1.493c-0.101,0.056-0.227,0.024-0.291-0.071
				c-0.459-0.686-0.917-2.658-0.89-2.885c0.008-0.067,0.047-0.127,0.104-0.162c0.058-0.035,0.129-0.041,0.192-0.019
				c0.187,0.07,0.459,0.106,0.812,0.106c0.662,0,1.455-0.127,1.979-0.229c-0.23-0.168-0.501-0.425-0.754-0.801
				c-0.45-0.675-1.442-0.738-1.452-0.738c-0.079-0.004-0.15-0.051-0.186-0.123c-0.036-0.07-0.03-0.155,0.014-0.221
				c0.416-0.628,1.141-0.946,2.155-0.946c0.203,0,0.413,0.013,0.644,0.036c0.717,0.078,1.774,0.872,2.093,1.572
				c0.02,0.046,0.039,0.091,0.054,0.135c0.03-0.052,0.059-0.107,0.088-0.166c0.11-0.207,0.232-0.442,0.509-0.657
				c0.241-0.187,0.615-0.435,1.078-0.435c0.395,0,0.785,0.18,1.162,0.534c0.06,0.057,0.083,0.142,0.061,0.222
				s-0.088,0.14-0.17,0.156c-0.549,0.109-0.862,0.96-1.019,1.403c0.146,0.01,0.29,0.039,0.471,0.125
				c1.163,0.558,1.229,1.308,1.196,2.16c-0.042,0.327-0.215,0.75-0.821,1.028c-0.638,0.291-1.288,0.33-1.915,0.365
				c-0.894,0.051-1.666,0.096-2.242,0.859C16.147,15.636,16.083,15.667,16.017,15.667z M17.714,12.284
				c0.081,0,0.156,0.043,0.195,0.118c0.05,0.094,0.026,0.209-0.058,0.274c-0.603,0.479-0.836,1.054-1.105,1.714
				c-0.03,0.077-0.062,0.154-0.094,0.231c0.545-0.274,1.155-0.31,1.753-0.345c0.586-0.034,1.193-0.068,1.755-0.326
				c0.339-0.155,0.529-0.377,0.564-0.663c0.03-0.769-0.017-1.279-0.946-1.726c-0.175-0.083-0.278-0.083-0.483-0.086l-0.129-0.002
				c-0.101-0.002-0.188-0.073-0.21-0.173c-0.015-0.068,0.003-0.139,0.045-0.19c0.016-0.035,0.042-0.112,0.067-0.181
				c0.147-0.419,0.426-1.215,0.977-1.569c-0.198-0.13-0.391-0.195-0.582-0.195c-0.323,0-0.601,0.185-0.807,0.345
				c-0.201,0.155-0.292,0.328-0.387,0.513c-0.124,0.234-0.263,0.501-0.626,0.705c-0.09,0.051-0.203,0.032-0.272-0.043
				c-0.069-0.077-0.076-0.19-0.017-0.275c0.059-0.087,0.052-0.214-0.022-0.379c-0.251-0.554-1.178-1.254-1.738-1.313
				c-0.214-0.025-0.41-0.037-0.596-0.037c-0.678,0-1.197,0.159-1.547,0.472c0.408,0.093,1.019,0.321,1.383,0.87
				c0.496,0.742,1.074,0.928,1.079,0.929c0.094,0.031,0.159,0.119,0.156,0.219c-0.003,0.099-0.071,0.185-0.169,0.208
				c-0.06,0.015-1.511,0.361-2.657,0.361c-0.239,0-0.447-0.015-0.625-0.044c0.105,0.506,0.38,1.57,0.67,2.138
				c0.644-0.386,1.26-0.913,1.608-1.378c0.052-0.071,0.142-0.104,0.227-0.083c0.12,0.028,0.229,0.058,0.328,0.082
				c0.322,0.081,0.534,0.135,0.792,0.135c0.317,0,0.725-0.086,1.402-0.296C17.67,12.287,17.693,12.284,17.714,12.284z"/>
		</g>
	</g>
</g>
<g>
	<g>
		<path fill="#BAD0EC" d="M21.025,10.762C20.023,9.08,21.318,7.93,21.333,7.92l0.266,0.309l-0.133-0.154L21.6,8.229
			c-0.042,0.037-1.048,0.941-0.224,2.326L21.025,10.762z"/>
	</g>
	<g>
		<path fill="#BAD0EC" d="M21.411,8.303h-0.439l0.284-0.336c0.49-0.58,1.09-0.643,1.326-0.643c0.408,0,0.684,0.165,0.684,0.41
			c0,0.2-0.174,0.348-0.518,0.44C22.436,8.259,21.984,8.303,21.411,8.303z M22.582,7.732c-0.089,0-0.314,0.015-0.568,0.143
			c0.378-0.029,0.609-0.082,0.734-0.127C22.704,7.739,22.646,7.732,22.582,7.732z"/>
	</g>
	<g>
		<path fill="#BAD0EC" d="M20.958,9.603h-0.44l0.283-0.337c0.491-0.58,1.091-0.642,1.327-0.642c0.409,0,0.683,0.165,0.683,0.411
			c0,0.198-0.174,0.346-0.516,0.44C21.982,9.558,21.531,9.603,20.958,9.603z M22.126,9.033c-0.089,0-0.314,0.014-0.568,0.141
			c0.378-0.027,0.608-0.08,0.734-0.125C22.25,9.039,22.192,9.033,22.126,9.033z"/>
	</g>
</g>
<g>
	<path fill="#BAD0EC" d="M18.759,36.434c-1.958,0-4.025-0.324-6.057-0.992C5.375,33.033,1,27.003,1,19.318
		C1,7.259,10.921,1.435,20.753,1.01c1.441-0.062,2.842,0.166,3.9,0.372c8.188,1.585,16.374,8.604,15.896,17.606l-0.034,0.641
		l-0.526-0.369c-0.075-0.051-7.583-4.982-12.936,2.391c-4.479,6.168-11.524,6.923-16.521,4.935c-5.225-2.08-8.146-6.899-7.445-12.28
		l0.008-0.058c0.025-0.196,0.049-0.394,0.083-0.591c0.18-1.098,0.502-2.211,0.961-3.333c-1.524,2.45-2.425,5.44-2.425,8.995
		c0,7.363,4.19,13.139,11.21,15.445c5.909,1.942,12.314,0.768,14.897-2.738l0.574,0.425C26.5,35.021,22.862,36.434,18.759,36.434z
		 M6.434,7.456l0.01,0.006c-1.36,2.132-2.222,4.254-2.56,6.308c-0.031,0.189-0.056,0.381-0.08,0.567l-0.009,0.058
		c-0.798,6.125,3.094,9.971,7.002,11.525c4.74,1.889,11.427,1.169,15.68-4.689c4.89-6.734,11.466-3.905,13.379-2.873
		c0.076-8.327-7.628-14.782-15.337-16.275c-1.019-0.198-2.367-0.417-3.733-0.359C15.458,1.954,10.105,3.817,6.434,7.456z"/>
</g>
<g>
	<path fill="#BAD0EC" d="M13.545,33.377c-0.288,0-0.577-0.011-0.87-0.033c-5.093-0.357-9.592-3.889-10.696-8.393l0.693-0.169
		c1.032,4.215,5.261,7.515,10.054,7.85c5.409,0.382,9.977-3.043,12.519-9.397c0.026-0.057,0.471-1.034,0.781-1.447l0.571,0.429
		c-0.219,0.294-0.576,1.036-0.695,1.304C23.378,29.822,18.905,33.377,13.545,33.377z"/>
</g>
<g>
	<ellipse cx="31.72" cy="15.291" rx="3.61" ry="3.424"/>
	<path fill="#BAD0EC" d="M31.72,19.027c-2.163,0-3.923-1.676-3.923-3.736s1.76-3.738,3.923-3.738c2.164,0,3.924,1.678,3.924,3.738
		C35.644,17.354,33.883,19.027,31.72,19.027z M31.72,12.182c-1.817,0-3.295,1.395-3.295,3.109S29.902,18.4,31.72,18.4
		c1.817,0,3.296-1.395,3.296-3.109S33.537,12.182,31.72,12.182z"/>
</g>
<g>
	<ellipse fill="#FFFFFF" cx="11.039" cy="21.808" rx="4.105" ry="3.893"/>
	<path fill="#BAD0EC" d="M11.039,26.059c-2.46,0-4.462-1.906-4.462-4.25s2.002-4.25,4.462-4.25c2.459,0,4.46,1.908,4.46,4.25
		C15.5,24.152,13.498,26.059,11.039,26.059z M11.039,18.271c-2.066,0-3.748,1.586-3.748,3.535c0,1.95,1.682,3.538,3.748,3.538
		c2.065,0,3.747-1.588,3.747-3.538C14.786,19.857,13.104,18.271,11.039,18.271z"/>
</g>
<g>
	<g>
		<path d="M33.681,27.973c0-1.968,0-2.332-0.024-2.742c-0.029-0.437-0.128-0.649-0.554-0.737c-0.107-0.023-0.326-0.037-0.501-0.037
			c-0.146,0-0.222-0.022-0.222-0.113c0-0.094,0.093-0.122,0.285-0.122c0.683,0,1.495,0.043,1.858,0.043c0.414,0,2.982,0,3.228-0.017
			c0.248-0.026,0.454-0.05,0.555-0.079c0.063-0.011,0.145-0.045,0.208-0.045c0.062,0,0.076,0.045,0.076,0.111
			c0,0.088-0.063,0.25-0.104,0.845c-0.014,0.125-0.037,0.694-0.062,0.849c-0.016,0.066-0.042,0.143-0.129,0.143
			c-0.089,0-0.118-0.063-0.118-0.184c0-0.086-0.015-0.305-0.077-0.462c-0.089-0.237-0.223-0.388-0.868-0.467
			c-0.218-0.026-1.575-0.048-1.832-0.048c-0.063,0-0.089,0.038-0.089,0.127v3.265c0,0.093,0.015,0.148,0.089,0.148
			c0.286,0,1.771,0,2.065-0.029c0.313-0.026,0.504-0.063,0.621-0.19c0.092-0.107,0.145-0.168,0.209-0.168
			c0.05,0,0.088,0.022,0.088,0.103c0,0.077-0.064,0.286-0.102,0.94c-0.027,0.256-0.053,0.776-0.053,0.863
			c0,0.104,0,0.246-0.115,0.246c-0.091,0-0.116-0.054-0.116-0.113c-0.014-0.133-0.014-0.297-0.053-0.466
			c-0.068-0.259-0.248-0.454-0.722-0.501c-0.248-0.029-1.527-0.04-1.836-0.04c-0.062,0-0.077,0.05-0.077,0.128v1.02
			c0,0.443-0.014,1.63,0,2.004c0.027,0.885,0.232,1.088,1.547,1.088c0.34,0,0.879,0,1.217-0.156c0.334-0.156,0.488-0.43,0.579-0.953
			c0.025-0.145,0.054-0.193,0.143-0.193c0.104,0,0.104,0.102,0.104,0.229c0,0.297-0.104,1.174-0.167,1.432
			c-0.092,0.336-0.207,0.336-0.695,0.336c-1.949,0-2.818-0.08-3.579-0.08c-0.299,0-1.111,0.039-1.626,0.039
			c-0.168,0-0.259-0.039-0.259-0.127c0-0.066,0.052-0.103,0.205-0.103c0.197,0,0.35-0.03,0.463-0.053
			c0.262-0.052,0.326-0.332,0.381-0.704c0.06-0.55,0.06-1.566,0.06-2.758L33.681,27.973L33.681,27.973L33.681,27.973z"/>
	</g>
	<g>
		<path d="M41.802,24.004c0.144,0,0.26,0.166,0.479,0.398c0.158,0.168,2.117,2.272,4.003,4.145c0.877,0.88,2.62,2.744,2.84,2.947
			h0.067l-0.131-5.797c-0.012-0.79-0.13-1.037-0.44-1.165c-0.192-0.077-0.501-0.077-0.684-0.077c-0.153,0-0.207-0.037-0.207-0.113
			c0-0.107,0.144-0.122,0.335-0.122c0.67,0,1.293,0.042,1.564,0.042c0.139,0,0.632-0.042,1.265-0.042
			c0.167,0,0.295,0.015,0.295,0.122c0,0.076-0.076,0.113-0.232,0.113c-0.131,0-0.232,0-0.387,0.037
			c-0.364,0.104-0.468,0.375-0.476,1.095l-0.146,8.155c0,0.279-0.053,0.392-0.166,0.392c-0.145,0-0.297-0.133-0.442-0.276
			c-0.813-0.774-2.462-2.465-3.807-3.799c-1.408-1.393-2.844-3.008-3.077-3.26h-0.036l0.145,5.43
			c0.023,1.004,0.192,1.342,0.449,1.438c0.218,0.076,0.463,0.087,0.67,0.087c0.144,0,0.223,0.026,0.223,0.104
			c0,0.1-0.118,0.125-0.3,0.125c-0.837,0-1.355-0.039-1.599-0.039c-0.119,0-0.726,0.039-1.395,0.039
			c-0.169,0-0.284-0.015-0.284-0.125c0-0.077,0.077-0.104,0.207-0.104c0.169,0,0.401-0.011,0.583-0.065
			c0.333-0.101,0.384-0.482,0.398-1.602l0.114-7.645C41.634,24.186,41.677,24.004,41.802,24.004"/>
	</g>
	<g>
		<path d="M58.324,24.046c0.891,0,2.026,0.152,2.282,0.203c0.269,0.054,0.723,0.132,1.019,0.144
			c0.158,0.014,0.186,0.065,0.186,0.151c0,0.149-0.088,0.509-0.088,2.123c0,0.206-0.041,0.271-0.147,0.271
			c-0.089,0-0.119-0.063-0.129-0.172c-0.04-0.296-0.101-0.709-0.442-1.067c-0.385-0.415-1.417-1.005-2.877-1.005
			c-0.708,0-1.652,0.046-2.557,0.796c-0.723,0.606-1.184,1.579-1.184,3.161c0,2.781,1.768,4.863,4.495,4.863
			c0.335,0,0.782,0,1.094-0.144c0.189-0.097,0.242-0.263,0.242-0.481v-1.212c0-0.647,0-1.138-0.011-1.521
			c-0.012-0.444-0.128-0.647-0.554-0.737c-0.102-0.028-0.326-0.04-0.505-0.04c-0.116,0-0.189-0.023-0.189-0.102
			c0-0.109,0.089-0.131,0.27-0.131c0.671,0,1.483,0.033,1.874,0.033c0.397,0,1.08-0.033,1.513-0.033
			c0.167,0,0.249,0.021,0.249,0.131c0,0.08-0.073,0.102-0.163,0.102c-0.102,0-0.194,0.014-0.352,0.04
			c-0.345,0.062-0.473,0.285-0.487,0.737c-0.018,0.383-0.018,0.902-0.018,1.544v1.421c0,0.355-0.008,0.379-0.161,0.469
			c-0.843,0.436-2.109,0.581-3.117,0.581c-3.161,0-5.964-1.495-5.964-5.065c0-2.068,1.072-3.516,2.245-4.219
			C56.089,24.134,57.238,24.046,58.324,24.046"/>
	</g>
	<g>
		<path d="M65.449,27.973c0-1.968,0-2.332-0.022-2.742c-0.03-0.437-0.158-0.658-0.442-0.72c-0.142-0.038-0.308-0.056-0.465-0.056
			c-0.127,0-0.207-0.021-0.207-0.135c0-0.074,0.104-0.102,0.306-0.102c0.494,0,1.307,0.042,1.679,0.042
			c0.324,0,1.088-0.042,1.578-0.042c0.166,0,0.275,0.028,0.275,0.102c0,0.111-0.08,0.135-0.211,0.135s-0.232,0.018-0.384,0.037
			c-0.352,0.066-0.453,0.292-0.48,0.736c-0.027,0.41-0.027,0.775-0.027,2.742v2.27c0,1.257,0,2.275,0.055,2.834
			c0.033,0.346,0.129,0.576,0.515,0.628c0.18,0.024,0.466,0.053,0.66,0.053c0.142,0,0.203,0.035,0.203,0.103
			c0,0.088-0.099,0.127-0.24,0.127c-0.855,0-1.669-0.039-2.016-0.039c-0.299,0-1.112,0.039-1.626,0.039
			c-0.169,0-0.258-0.039-0.258-0.127c0-0.066,0.053-0.103,0.206-0.103c0.192,0,0.347-0.03,0.465-0.053
			c0.257-0.052,0.335-0.271,0.376-0.647c0.061-0.537,0.061-1.561,0.061-2.813L65.449,27.973L65.449,27.973z"/>
	</g>
	<g>
		<path d="M71.248,24.004c0.143,0,0.257,0.166,0.481,0.398c0.15,0.168,2.115,2.272,4.001,4.145c0.876,0.88,2.619,2.744,2.836,2.947
			h0.068l-0.129-5.797c-0.012-0.79-0.128-1.037-0.434-1.165c-0.197-0.077-0.504-0.077-0.689-0.077c-0.15,0-0.207-0.037-0.207-0.113
			c0-0.107,0.145-0.122,0.333-0.122c0.675,0,1.295,0.042,1.564,0.042c0.146,0,0.638-0.042,1.268-0.042
			c0.169,0,0.297,0.015,0.297,0.122c0,0.076-0.08,0.113-0.235,0.113c-0.129,0-0.23,0-0.387,0.037
			c-0.364,0.104-0.462,0.375-0.475,1.095l-0.146,8.155c0,0.279-0.051,0.392-0.169,0.392c-0.137,0-0.294-0.133-0.435-0.276
			c-0.819-0.774-2.469-2.465-3.812-3.799c-1.41-1.393-2.841-3.008-3.071-3.26h-0.039l0.142,5.43c0.026,1.004,0.192,1.342,0.45,1.438
			c0.218,0.076,0.465,0.087,0.675,0.087c0.139,0,0.215,0.026,0.215,0.104c0,0.1-0.118,0.125-0.296,0.125
			c-0.838,0-1.354-0.039-1.598-0.039c-0.119,0-0.721,0.039-1.395,0.039c-0.167,0-0.285-0.015-0.285-0.125
			c0-0.077,0.079-0.104,0.207-0.104c0.167,0,0.403-0.011,0.583-0.065c0.337-0.101,0.387-0.482,0.402-1.602l0.115-7.645
			C71.081,24.186,71.117,24.004,71.248,24.004"/>
	</g>
	<g>
		<path d="M83.515,27.973c0-1.968,0-2.332-0.02-2.742c-0.031-0.437-0.129-0.649-0.562-0.737c-0.1-0.023-0.319-0.037-0.496-0.037
			c-0.146,0-0.226-0.022-0.226-0.113c0-0.094,0.088-0.122,0.286-0.122c0.683,0,1.502,0.043,1.857,0.043c0.415,0,2.985,0,3.229-0.017
			c0.246-0.026,0.453-0.05,0.554-0.079c0.066-0.011,0.146-0.045,0.206-0.045c0.068,0,0.078,0.045,0.078,0.111
			c0,0.088-0.06,0.25-0.098,0.845c-0.018,0.125-0.04,0.694-0.069,0.849c-0.008,0.066-0.038,0.143-0.127,0.143
			s-0.117-0.063-0.117-0.184c0-0.086-0.011-0.305-0.073-0.462c-0.095-0.237-0.222-0.388-0.867-0.467
			c-0.219-0.026-1.571-0.048-1.836-0.048c-0.06,0-0.088,0.038-0.088,0.127v3.265c0,0.093,0.013,0.148,0.088,0.148
			c0.284,0,1.77,0,2.067-0.029c0.311-0.026,0.501-0.063,0.621-0.19c0.088-0.107,0.145-0.168,0.205-0.168
			c0.053,0,0.089,0.022,0.089,0.103c0,0.077-0.061,0.286-0.1,0.94c-0.028,0.256-0.052,0.776-0.052,0.863
			c0,0.104,0,0.246-0.118,0.246c-0.088,0-0.118-0.054-0.118-0.113c-0.01-0.133-0.01-0.297-0.05-0.466
			c-0.066-0.259-0.246-0.454-0.722-0.501c-0.247-0.029-1.526-0.04-1.835-0.04c-0.065,0-0.078,0.05-0.078,0.128v1.02
			c0,0.443-0.013,1.63,0,2.004c0.03,0.885,0.234,1.088,1.549,1.088c0.339,0,0.879,0,1.216-0.156c0.336-0.156,0.49-0.43,0.581-0.953
			c0.021-0.145,0.051-0.193,0.142-0.193c0.099,0,0.099,0.102,0.099,0.229c0,0.297-0.099,1.174-0.169,1.432
			c-0.088,0.336-0.198,0.336-0.693,0.336c-1.946,0-2.814-0.08-3.576-0.08c-0.294,0-1.112,0.039-1.627,0.039
			c-0.167,0-0.258-0.039-0.258-0.127c0-0.066,0.051-0.103,0.207-0.103c0.192,0,0.349-0.03,0.465-0.053
			c0.258-0.052,0.326-0.332,0.377-0.704c0.061-0.55,0.061-1.566,0.061-2.758v-2.27H83.515L83.515,27.973z"/>
	</g>
	<g>
		<path d="M91.676,27.973c0-1.968,0-2.332-0.027-2.742c-0.028-0.437-0.127-0.649-0.554-0.737c-0.105-0.023-0.326-0.037-0.502-0.037
			c-0.146,0-0.218-0.022-0.218-0.113c0-0.094,0.091-0.122,0.28-0.122c0.688,0,1.499,0.043,1.863,0.043c0.409,0,2.979,0,3.224-0.017
			c0.244-0.026,0.453-0.05,0.558-0.079c0.064-0.011,0.142-0.045,0.208-0.045c0.061,0,0.078,0.045,0.078,0.111
			c0,0.088-0.068,0.25-0.106,0.845c-0.012,0.125-0.038,0.694-0.065,0.849c-0.012,0.066-0.042,0.143-0.129,0.143
			c-0.091,0-0.119-0.063-0.119-0.184c0-0.086-0.007-0.305-0.07-0.462c-0.091-0.237-0.226-0.388-0.869-0.467
			c-0.216-0.026-1.571-0.048-1.834-0.048c-0.061,0-0.089,0.038-0.089,0.127v3.265c0,0.093,0.017,0.148,0.089,0.148
			c0.287,0,1.775,0,2.065-0.029c0.316-0.026,0.509-0.063,0.621-0.19c0.089-0.107,0.147-0.168,0.209-0.168
			c0.049,0,0.088,0.022,0.088,0.103c0,0.077-0.061,0.286-0.097,0.94c-0.031,0.256-0.051,0.776-0.051,0.863
			c0,0.104,0,0.246-0.118,0.246c-0.089,0-0.121-0.054-0.121-0.113c-0.008-0.133-0.008-0.297-0.047-0.466
			c-0.069-0.259-0.247-0.454-0.722-0.501c-0.249-0.029-1.524-0.04-1.837-0.04c-0.06,0-0.077,0.05-0.077,0.128v1.02
			c0,0.443-0.009,1.63,0,2.004c0.028,0.885,0.235,1.088,1.55,1.088c0.335,0,0.878,0,1.215-0.156c0.335-0.156,0.492-0.43,0.58-0.953
			c0.031-0.145,0.052-0.193,0.143-0.193c0.107,0,0.107,0.102,0.107,0.229c0,0.297-0.107,1.174-0.17,1.432
			c-0.089,0.336-0.208,0.336-0.698,0.336c-1.948,0-2.818-0.08-3.577-0.08c-0.298,0-1.109,0.039-1.628,0.039
			c-0.168,0-0.259-0.039-0.259-0.127c0-0.066,0.052-0.103,0.207-0.103c0.198,0,0.348-0.03,0.467-0.053
			c0.259-0.052,0.323-0.332,0.375-0.704c0.065-0.55,0.065-1.566,0.065-2.758v-2.27H91.676L91.676,27.973z"/>
	</g>
	<g>
		<path d="M99.839,27.973c0-1.968,0-2.332-0.028-2.742c-0.024-0.437-0.131-0.649-0.556-0.737c-0.099-0.023-0.323-0.037-0.503-0.037
			c-0.14,0-0.218-0.022-0.218-0.113c0-0.094,0.089-0.122,0.279-0.122c0.691,0,1.502,0.043,1.775,0.043
			c0.438,0,1.417-0.043,1.821-0.043c0.811,0,1.677,0.082,2.376,0.564c0.358,0.238,0.873,0.896,0.873,1.76
			c0,0.96-0.398,1.835-1.703,2.895c1.147,1.446,2.04,2.596,2.801,3.396c0.727,0.753,1.258,0.841,1.449,0.874
			c0.146,0.033,0.258,0.045,0.364,0.045c0.098,0,0.149,0.036,0.149,0.104c0,0.102-0.089,0.127-0.239,0.127h-1.233
			c-0.72,0-1.045-0.058-1.378-0.241c-0.555-0.302-1.045-0.907-1.771-1.9c-0.516-0.714-1.108-1.588-1.275-1.782
			c-0.061-0.076-0.142-0.093-0.229-0.093l-1.133-0.024c-0.061,0-0.1,0.024-0.1,0.102v0.182c0,1.203,0,2.223,0.067,2.771
			c0.033,0.371,0.113,0.652,0.503,0.704c0.188,0.024,0.476,0.053,0.63,0.053c0.103,0,0.158,0.035,0.158,0.104
			c0,0.084-0.098,0.125-0.265,0.125c-0.75,0-1.703-0.041-1.896-0.041c-0.248,0-1.058,0.041-1.579,0.041
			c-0.169,0-0.258-0.041-0.258-0.125c0-0.069,0.057-0.104,0.209-0.104c0.194,0,0.351-0.028,0.463-0.053
			c0.264-0.052,0.324-0.333,0.375-0.704c0.068-0.549,0.068-1.568,0.068-2.755v-2.271H99.839z M101.36,28.99
			c0,0.144,0.03,0.189,0.116,0.229c0.272,0.095,0.662,0.136,0.98,0.136c0.519,0,0.69-0.06,0.918-0.223
			c0.386-0.279,0.762-0.88,0.762-1.939c0-1.832-1.216-2.36-1.978-2.36c-0.317,0-0.555,0.013-0.683,0.054
			c-0.086,0.023-0.116,0.072-0.116,0.18L101.36,28.99L101.36,28.99z"/>
	</g>
	<g>
		<path d="M111.69,24.046c0.839,0,1.383,0.124,1.72,0.218c0.116,0.022,0.177,0.06,0.177,0.154c0,0.162-0.05,0.539-0.05,1.548
			c0,0.283-0.033,0.39-0.141,0.39c-0.09,0-0.128-0.078-0.128-0.233c0-0.116-0.067-0.519-0.336-0.853
			c-0.195-0.246-0.569-0.635-1.409-0.635c-0.952,0-1.54,0.553-1.54,1.33c0,0.598,0.306,1.051,1.374,1.86l0.361,0.27
			c1.55,1.199,2.117,2.062,2.117,3.296c0,0.748-0.281,1.64-1.215,2.242c-0.645,0.409-1.366,0.534-2.049,0.534
			c-0.748,0-1.33-0.095-1.887-0.337c-0.205-0.088-0.245-0.156-0.245-0.439c0-0.709,0.051-1.486,0.061-1.692
			c0.019-0.192,0.054-0.337,0.159-0.337c0.116,0,0.129,0.119,0.129,0.225c0,0.166,0.055,0.439,0.116,0.656
			c0.284,0.953,1.048,1.306,1.847,1.306c1.164,0,1.727-0.79,1.727-1.472c0-0.633-0.194-1.242-1.264-2.067l-0.592-0.467
			c-1.422-1.104-1.916-2.012-1.916-3.058C108.708,25.064,109.901,24.046,111.69,24.046"/>
	</g>
</g>
<g>
	<g>
		<path d="M121.606,25.492c-0.154-0.477-0.298-0.788-0.478-0.918c-0.141-0.092-0.399-0.11-0.515-0.11
			c-0.131,0-0.207-0.017-0.207-0.116c0-0.093,0.1-0.125,0.284-0.125c0.67,0,1.377,0.041,1.495,0.041
			c0.117,0,0.687-0.041,1.437-0.041c0.178,0,0.271,0.041,0.271,0.125c0,0.101-0.103,0.116-0.235,0.116c-0.105,0-0.232,0-0.32,0.047
			c-0.118,0.05-0.142,0.144-0.142,0.287c0,0.163,0.127,0.604,0.282,1.188c0.221,0.851,1.421,4.765,1.654,5.482h0.038l2.508-6.729
			c0.14-0.356,0.218-0.455,0.321-0.455c0.143,0,0.207,0.188,0.375,0.604l2.686,6.497h0.036c0.236-0.87,1.269-4.278,1.721-5.788
			c0.091-0.298,0.129-0.565,0.129-0.75c0-0.205-0.116-0.383-0.619-0.383c-0.129,0-0.222-0.042-0.222-0.115
			c0-0.094,0.106-0.125,0.3-0.125c0.68,0,1.224,0.039,1.343,0.039c0.088,0,0.643-0.039,1.066-0.039c0.145,0,0.238,0.029,0.238,0.1
			c0,0.099-0.07,0.142-0.184,0.142c-0.129,0-0.308,0.009-0.453,0.066c-0.309,0.11-0.453,0.622-0.719,1.362
			c-0.594,1.621-1.952,5.729-2.582,7.67c-0.147,0.457-0.209,0.607-0.375,0.607c-0.132,0-0.208-0.15-0.404-0.63l-2.688-6.474h-0.024
			c-0.248,0.664-1.962,5.229-2.519,6.422c-0.244,0.531-0.309,0.682-0.466,0.682c-0.127,0-0.192-0.143-0.296-0.479L121.606,25.492z"
			/>
	</g>
	<g>
		<path d="M136.903,27.975c0-1.961,0-2.33-0.025-2.738c-0.026-0.438-0.152-0.664-0.439-0.726c-0.145-0.038-0.311-0.047-0.465-0.047
			c-0.128,0-0.204-0.03-0.204-0.144c0-0.068,0.103-0.102,0.304-0.102c0.494,0,1.306,0.042,1.68,0.042
			c0.327,0,1.088-0.042,1.576-0.042c0.167,0,0.273,0.032,0.273,0.102c0,0.111-0.08,0.144-0.207,0.144s-0.232,0.009-0.387,0.035
			c-0.35,0.06-0.452,0.285-0.478,0.735c-0.027,0.41-0.027,0.777-0.027,2.74v2.271c0,1.253,0,2.272,0.053,2.828
			c0.039,0.351,0.125,0.575,0.518,0.632c0.177,0.021,0.465,0.049,0.656,0.049c0.143,0,0.207,0.038,0.207,0.107
			c0,0.084-0.103,0.121-0.246,0.121c-0.85,0-1.665-0.037-2.013-0.037c-0.297,0-1.111,0.037-1.625,0.037
			c-0.169,0-0.258-0.037-0.258-0.121c0-0.069,0.05-0.107,0.204-0.107c0.196,0,0.349-0.031,0.463-0.049
			c0.264-0.057,0.341-0.271,0.381-0.65c0.06-0.535,0.06-1.559,0.06-2.81L136.903,27.975L136.903,27.975L136.903,27.975z"/>
	</g>
	<g>
		<path d="M144.012,24.95l-1.925,0.047c-0.748,0.03-1.057,0.093-1.252,0.377c-0.128,0.196-0.193,0.351-0.22,0.453
			c-0.024,0.1-0.063,0.155-0.14,0.155c-0.089,0-0.118-0.067-0.118-0.207c0-0.207,0.247-1.387,0.272-1.483
			c0.04-0.166,0.078-0.249,0.151-0.249c0.109,0,0.234,0.133,0.558,0.162c0.376,0.031,0.864,0.057,1.291,0.057h5.115
			c0.828,0,1.132-0.129,1.237-0.129c0.087,0,0.104,0.079,0.104,0.268c0,0.276-0.04,1.168-0.04,1.504
			c-0.008,0.133-0.036,0.205-0.116,0.205c-0.098,0-0.127-0.061-0.14-0.256l-0.008-0.14c-0.032-0.342-0.378-0.698-1.53-0.728
			l-1.626-0.037v5.294c0,1.188,0,2.208,0.063,2.767c0.041,0.36,0.118,0.639,0.504,0.693c0.184,0.021,0.463,0.049,0.661,0.049
			c0.138,0,0.206,0.038,0.206,0.107c0,0.084-0.106,0.121-0.244,0.121c-0.851,0-1.67-0.037-2.031-0.037
			c-0.3,0-1.11,0.037-1.625,0.037c-0.169,0-0.257-0.037-0.257-0.121c0-0.069,0.05-0.107,0.207-0.107
			c0.188,0,0.347-0.029,0.457-0.049c0.264-0.055,0.34-0.333,0.375-0.712c0.068-0.541,0.068-1.562,0.068-2.748V24.95H144.012z"/>
	</g>
	<g>
		<path d="M158.559,28.33c0.045,0,0.084-0.021,0.084-0.084v-0.271c0-1.961,0-2.33-0.029-2.738c-0.025-0.438-0.127-0.646-0.553-0.736
			c-0.104-0.03-0.324-0.035-0.506-0.035c-0.143,0-0.215-0.031-0.215-0.119c0-0.092,0.088-0.125,0.268-0.125
			c0.699,0,1.51,0.043,1.857,0.043c0.312,0,1.125-0.043,1.631-0.043c0.178,0,0.268,0.032,0.268,0.125
			c0,0.088-0.072,0.119-0.23,0.119c-0.104,0-0.219,0.008-0.375,0.035c-0.354,0.061-0.451,0.285-0.479,0.736
			c-0.027,0.408-0.027,0.777-0.027,2.738v2.271c0,1.188,0,2.208,0.062,2.768c0.037,0.359,0.117,0.637,0.5,0.692
			c0.189,0.021,0.477,0.049,0.662,0.049c0.148,0,0.209,0.038,0.209,0.106c0,0.084-0.1,0.123-0.26,0.123
			c-0.838,0-1.646-0.039-2.012-0.039c-0.299,0-1.107,0.039-1.613,0.039c-0.188,0-0.273-0.039-0.273-0.123
			c0-0.068,0.053-0.106,0.207-0.106c0.195,0,0.346-0.03,0.465-0.049c0.26-0.056,0.322-0.333,0.375-0.713
			c0.068-0.54,0.068-1.562,0.068-2.747v-1.143c0-0.043-0.039-0.076-0.084-0.076h-4.932c-0.041,0-0.078,0.018-0.078,0.076v1.143
			c0,1.188,0,2.208,0.068,2.768c0.035,0.359,0.115,0.637,0.504,0.692c0.18,0.021,0.461,0.049,0.65,0.049
			c0.148,0,0.209,0.038,0.209,0.106c0,0.084-0.104,0.123-0.254,0.123c-0.846,0-1.65-0.039-2.02-0.039
			c-0.297,0-1.106,0.039-1.623,0.039c-0.168,0-0.26-0.039-0.26-0.123c0-0.068,0.053-0.106,0.202-0.106
			c0.196,0,0.353-0.03,0.472-0.049c0.256-0.056,0.32-0.333,0.375-0.713c0.062-0.54,0.062-1.562,0.062-2.747v-2.271
			c0-1.961,0-2.33-0.021-2.738c-0.027-0.438-0.133-0.646-0.56-0.736c-0.104-0.03-0.327-0.035-0.504-0.035
			c-0.146,0-0.22-0.031-0.22-0.119c0-0.092,0.09-0.125,0.269-0.125c0.698,0,1.513,0.043,1.863,0.043c0.312,0,1.12-0.043,1.622-0.043
			c0.188,0,0.275,0.032,0.275,0.125c0,0.088-0.084,0.119-0.238,0.119c-0.104,0-0.215,0.008-0.375,0.035
			c-0.344,0.061-0.453,0.285-0.477,0.736c-0.027,0.408-0.027,0.777-0.027,2.738v0.271c0,0.062,0.035,0.084,0.08,0.084H158.559z"/>
	</g>
	<g>
		<path d="M162.33,29.104c0-2.203,1.463-5.058,5.334-5.058c3.221,0,5.219,1.87,5.219,4.831c0,2.957-2.066,5.293-5.35,5.293
			C163.834,34.17,162.33,31.393,162.33,29.104z M171.078,29.355c0-2.89-1.672-4.69-3.791-4.69c-1.48,0-3.18,0.827-3.18,4.046
			c0,2.682,1.494,4.812,3.971,4.812C168.982,33.525,171.078,33.082,171.078,29.355z"/>
	</g>
	<g>
		<path d="M174.682,27.975c0-1.961,0-2.33-0.033-2.738c-0.018-0.438-0.113-0.646-0.551-0.736c-0.102-0.03-0.318-0.035-0.502-0.035
			c-0.139,0-0.219-0.031-0.219-0.119c0-0.092,0.092-0.125,0.285-0.125c0.686,0,1.494,0.043,1.883,0.043
			c0.311,0,1.123-0.043,1.584-0.043c0.199,0,0.287,0.032,0.287,0.125c0,0.088-0.07,0.119-0.203,0.119
			c-0.145,0-0.217,0.008-0.379,0.035c-0.344,0.061-0.445,0.285-0.477,0.736c-0.027,0.408-0.027,0.777-0.027,2.738v1.801
			c0,1.88,0.373,2.66,1.014,3.178c0.576,0.48,1.174,0.533,1.611,0.533c0.562,0,1.266-0.185,1.779-0.699
			c0.715-0.711,0.75-1.872,0.75-3.201v-1.611c0-1.961,0-2.33-0.031-2.74c-0.021-0.438-0.127-0.646-0.553-0.734
			c-0.1-0.029-0.32-0.037-0.463-0.037c-0.141,0-0.219-0.029-0.219-0.115c0-0.094,0.088-0.125,0.266-0.125
			c0.664,0,1.477,0.039,1.492,0.039c0.15,0,0.967-0.039,1.473-0.039c0.18,0,0.268,0.029,0.268,0.125c0,0.086-0.08,0.115-0.23,0.115
			c-0.146,0-0.223,0.008-0.375,0.037c-0.352,0.061-0.451,0.285-0.482,0.734c-0.021,0.41-0.021,0.779-0.021,2.74v1.379
			c0,1.434-0.145,2.961-1.23,3.889c-0.912,0.787-1.84,0.928-2.68,0.928c-0.691,0-1.928-0.04-2.873-0.887
			c-0.65-0.598-1.146-1.553-1.146-3.424v-1.883h0.004V27.975z"/>
	</g>
	<g>
		<path d="M188.418,24.95l-1.922,0.047c-0.754,0.03-1.062,0.093-1.258,0.377c-0.127,0.196-0.193,0.351-0.217,0.453
			c-0.025,0.1-0.066,0.155-0.143,0.155c-0.09,0-0.113-0.067-0.113-0.207c0-0.207,0.236-1.387,0.268-1.483
			c0.037-0.166,0.078-0.249,0.156-0.249c0.102,0,0.229,0.133,0.553,0.162c0.379,0.031,0.867,0.057,1.289,0.057h5.115
			c0.828,0,1.139-0.129,1.244-0.129c0.088,0,0.098,0.079,0.098,0.268c0,0.276-0.033,1.168-0.033,1.504
			c-0.016,0.133-0.035,0.205-0.115,0.205c-0.107,0-0.129-0.061-0.146-0.256l-0.008-0.14c-0.027-0.342-0.379-0.698-1.521-0.728
			l-1.633-0.037v5.294c0,1.188,0,2.208,0.064,2.767c0.041,0.36,0.117,0.639,0.508,0.693c0.182,0.021,0.459,0.049,0.652,0.049
			c0.143,0,0.209,0.038,0.209,0.107c0,0.084-0.105,0.121-0.246,0.121c-0.855,0-1.66-0.037-2.029-0.037
			c-0.295,0-1.104,0.037-1.623,0.037c-0.17,0-0.258-0.037-0.258-0.121c0-0.069,0.047-0.107,0.205-0.107
			c0.195,0,0.348-0.029,0.467-0.049c0.256-0.055,0.334-0.333,0.373-0.712c0.066-0.541,0.066-1.562,0.066-2.748V24.95H188.418z"/>
	</g>
</g>
<g>
	<g>
		<path d="M201.363,27.975c0-1.973,0-2.33-0.023-2.744c-0.029-0.434-0.129-0.649-0.555-0.737c-0.105-0.023-0.326-0.028-0.502-0.028
			c-0.148,0-0.223-0.031-0.223-0.122c0-0.089,0.098-0.122,0.285-0.122c0.684,0,1.498,0.043,1.754,0.043
			c0.637,0,1.135-0.043,1.574-0.043c2.344,0,2.752,1.258,2.752,1.942c0,1.06-0.607,1.687-1.318,2.258
			c1.061,0.359,2.352,1.274,2.352,2.789c0,1.39-1.07,2.819-3.453,2.819c-0.305,0-1.482-0.084-1.869-0.084
			c-0.295,0-1.105,0.037-1.623,0.037c-0.17,0-0.26-0.037-0.26-0.121c0-0.07,0.049-0.107,0.203-0.107
			c0.197,0,0.352-0.029,0.461-0.048c0.266-0.056,0.33-0.332,0.385-0.713c0.059-0.541,0.059-1.562,0.059-2.749v-2.27H201.363z
			 M202.916,28.182c0,0.108,0.037,0.142,0.092,0.148c0.111,0.025,0.311,0.04,0.605,0.04c0.43,0,0.709-0.048,0.924-0.243
			c0.342-0.277,0.533-0.74,0.533-1.373c0-0.863-0.504-1.997-1.615-1.997c-0.18,0-0.293,0-0.422,0.029
			c-0.09,0.021-0.119,0.078-0.119,0.211v3.185H202.916z M204.621,29.221c-0.271-0.193-0.57-0.279-1.072-0.307
			c-0.23-0.016-0.359-0.016-0.559-0.016c-0.047,0-0.076,0.024-0.076,0.093v3.055c0,0.856,0.039,1.076,0.455,1.242
			c0.344,0.146,0.641,0.162,0.941,0.162c0.574,0,1.561-0.315,1.561-1.66C205.873,30.993,205.6,29.91,204.621,29.221z"/>
	</g>
	<g>
		<path d="M209.576,29.104c0-2.203,1.457-5.058,5.338-5.058c3.215,0,5.217,1.87,5.217,4.831c0,2.954-2.068,5.293-5.35,5.293
			C211.072,34.17,209.576,31.389,209.576,29.104z M218.324,29.355c0-2.897-1.674-4.694-3.785-4.694c-1.49,0-3.182,0.827-3.182,4.047
			c0,2.683,1.484,4.817,3.965,4.817C216.227,33.525,218.324,33.082,218.324,29.355z"/>
	</g>
	<g>
		<path d="M221.918,27.975c0-1.973,0-2.33-0.023-2.744c-0.027-0.434-0.127-0.649-0.557-0.737c-0.104-0.023-0.324-0.028-0.5-0.028
			c-0.148,0-0.227-0.031-0.227-0.122c0-0.089,0.09-0.122,0.289-0.122c0.682,0,1.498,0.043,1.766,0.043
			c0.439,0,1.424-0.043,1.826-0.043c0.811,0,1.68,0.082,2.371,0.564c0.365,0.238,0.883,0.9,0.883,1.766
			c0,0.954-0.406,1.834-1.705,2.889c1.148,1.441,2.037,2.596,2.803,3.396c0.721,0.749,1.252,0.841,1.445,0.882
			c0.143,0.021,0.256,0.037,0.359,0.037c0.105,0,0.154,0.038,0.154,0.107c0,0.1-0.09,0.121-0.244,0.121h-1.225
			c-0.727,0-1.047-0.065-1.385-0.248c-0.555-0.283-1.047-0.899-1.771-1.894c-0.514-0.714-1.111-1.588-1.275-1.782
			c-0.062-0.072-0.143-0.09-0.234-0.09l-1.121-0.027c-0.062,0-0.104,0.027-0.104,0.102v0.186c0,1.205,0,2.223,0.062,2.764
			c0.041,0.381,0.119,0.656,0.502,0.713c0.197,0.02,0.48,0.048,0.635,0.048c0.105,0,0.15,0.038,0.15,0.106
			c0,0.086-0.088,0.123-0.256,0.123c-0.748,0-1.705-0.037-1.893-0.037c-0.25,0-1.064,0.037-1.58,0.037
			c-0.166,0-0.262-0.037-0.262-0.123c0-0.068,0.053-0.106,0.209-0.106c0.195,0,0.348-0.028,0.465-0.048
			c0.258-0.057,0.326-0.332,0.371-0.713c0.066-0.541,0.066-1.562,0.066-2.749L221.918,27.975L221.918,27.975z M223.443,28.993
			c0,0.141,0.021,0.188,0.113,0.228c0.271,0.096,0.658,0.135,0.982,0.135c0.514,0,0.684-0.053,0.918-0.222
			c0.387-0.288,0.76-0.88,0.76-1.934c0-1.839-1.211-2.367-1.979-2.367c-0.322,0-0.551,0.013-0.686,0.054
			c-0.092,0.023-0.111,0.076-0.111,0.18L223.443,28.993L223.443,28.993z"/>
	</g>
	<g>
		<path d="M232.588,27.975c0-1.973,0-2.33-0.027-2.744c-0.021-0.434-0.133-0.649-0.553-0.737c-0.102-0.023-0.328-0.028-0.504-0.028
			c-0.143,0-0.217-0.031-0.217-0.122c0-0.089,0.088-0.122,0.285-0.122c0.678,0,1.494,0.043,1.855,0.043
			c0.404,0,1.213-0.043,1.994-0.043c1.609,0,3.764,0,5.178,1.48c0.639,0.665,1.242,1.74,1.242,3.273c0,1.629-0.682,2.868-1.4,3.605
			c-0.594,0.611-1.936,1.523-4.332,1.523c-0.939,0-2.1-0.158-2.748-0.158c-0.295,0-1.111,0.039-1.623,0.039
			c-0.166,0-0.266-0.039-0.266-0.123c0-0.068,0.055-0.106,0.207-0.106c0.193,0,0.357-0.03,0.467-0.049
			c0.264-0.056,0.322-0.333,0.381-0.713c0.061-0.54,0.061-1.562,0.061-2.747V27.975L232.588,27.975z M234.207,29.389
			c0,1.373,0.014,2.364,0.021,2.617c0.012,0.318,0.037,0.83,0.146,0.973c0.16,0.25,0.672,0.52,1.691,0.52
			c1.312,0,2.189-0.264,2.971-0.924c0.82-0.709,1.078-1.891,1.078-3.219c0-1.639-0.68-2.697-1.234-3.224
			c-1.189-1.143-2.666-1.298-3.672-1.298c-0.26,0-0.734,0.042-0.834,0.092c-0.117,0.053-0.156,0.111-0.156,0.254
			c-0.014,0.445-0.014,1.563-0.014,2.586v1.623H234.207z"/>
	</g>
	<g>
		<path d="M243.635,27.975c0-1.973,0-2.33-0.029-2.744c-0.025-0.434-0.127-0.649-0.557-0.737c-0.104-0.023-0.324-0.028-0.504-0.028
			c-0.137,0-0.213-0.031-0.213-0.122c0-0.089,0.086-0.122,0.281-0.122c0.682,0,1.494,0.043,1.859,0.043c0.412,0,2.984,0,3.229-0.011
			c0.24-0.032,0.447-0.047,0.555-0.079c0.061-0.021,0.141-0.048,0.207-0.048c0.061,0,0.076,0.048,0.076,0.11
			c0,0.086-0.066,0.244-0.104,0.838c-0.014,0.136-0.039,0.699-0.064,0.85c-0.012,0.07-0.037,0.146-0.133,0.146
			c-0.088,0-0.113-0.066-0.113-0.178c0-0.088-0.016-0.311-0.076-0.468c-0.088-0.237-0.221-0.388-0.865-0.463
			c-0.223-0.03-1.574-0.052-1.836-0.052c-0.066,0-0.088,0.041-0.088,0.127v3.271c0,0.088,0.016,0.144,0.088,0.144
			c0.279,0,1.773,0,2.066-0.027c0.311-0.026,0.504-0.065,0.623-0.188c0.088-0.106,0.143-0.168,0.201-0.168
			c0.055,0,0.096,0.021,0.096,0.1c0,0.081-0.066,0.284-0.105,0.938c-0.027,0.258-0.051,0.777-0.051,0.867
			c0,0.109,0,0.246-0.121,0.246c-0.086,0-0.115-0.051-0.115-0.115c-0.012-0.131-0.012-0.297-0.051-0.463
			c-0.062-0.267-0.242-0.457-0.721-0.505c-0.248-0.028-1.521-0.038-1.838-0.038c-0.061,0-0.072,0.055-0.072,0.127v1.023
			c0,0.438-0.018,1.626,0,1.998c0.02,0.895,0.232,1.087,1.549,1.087c0.334,0,0.877,0,1.217-0.157
			c0.332-0.146,0.488-0.422,0.576-0.953c0.025-0.143,0.049-0.191,0.139-0.191c0.107,0,0.107,0.102,0.107,0.236
			c0,0.285-0.107,1.172-0.166,1.428c-0.09,0.339-0.209,0.339-0.703,0.339c-1.943,0-2.812-0.083-3.576-0.083
			c-0.295,0-1.107,0.037-1.625,0.037c-0.164,0-0.26-0.037-0.26-0.122c0-0.07,0.057-0.107,0.207-0.107
			c0.199,0,0.352-0.028,0.467-0.049c0.26-0.055,0.324-0.332,0.375-0.712c0.066-0.541,0.066-1.562,0.066-2.749v-2.274H243.635z"/>
	</g>
	<g>
		<path d="M250.645,27.975c0-1.973,0-2.33-0.023-2.744c-0.029-0.434-0.129-0.649-0.559-0.737c-0.104-0.023-0.322-0.028-0.504-0.028
			c-0.145,0-0.223-0.031-0.223-0.122c0-0.089,0.096-0.122,0.287-0.122c0.688,0,1.502,0.043,1.768,0.043
			c0.443,0,1.422-0.043,1.826-0.043c0.811,0,1.678,0.082,2.369,0.564c0.367,0.238,0.883,0.9,0.883,1.766
			c0,0.954-0.402,1.834-1.705,2.889c1.15,1.441,2.037,2.596,2.801,3.396c0.732,0.749,1.252,0.841,1.449,0.882
			c0.139,0.021,0.26,0.037,0.357,0.037c0.104,0,0.154,0.038,0.154,0.107c0,0.1-0.086,0.121-0.246,0.121h-1.225
			c-0.721,0-1.045-0.065-1.383-0.248c-0.553-0.283-1.045-0.899-1.77-1.894c-0.512-0.714-1.105-1.588-1.273-1.782
			c-0.068-0.072-0.146-0.09-0.232-0.09l-1.127-0.027c-0.061,0-0.1,0.027-0.1,0.102v0.186c0,1.205,0,2.223,0.059,2.764
			c0.041,0.381,0.119,0.656,0.504,0.713c0.199,0.02,0.484,0.048,0.635,0.048c0.104,0,0.156,0.038,0.156,0.106
			c0,0.086-0.09,0.123-0.26,0.123c-0.75,0-1.709-0.037-1.898-0.037c-0.242,0-1.055,0.037-1.576,0.037
			c-0.168,0-0.26-0.037-0.26-0.123c0-0.068,0.055-0.106,0.207-0.106c0.195,0,0.352-0.028,0.461-0.048
			c0.264-0.057,0.326-0.332,0.381-0.713c0.062-0.541,0.062-1.562,0.062-2.749v-2.267h0.004V27.975z M252.172,28.993
			c0,0.141,0.029,0.188,0.119,0.228c0.264,0.096,0.648,0.135,0.975,0.135c0.518,0,0.68-0.053,0.918-0.222
			c0.387-0.288,0.76-0.88,0.76-1.934c0-1.839-1.213-2.367-1.975-2.367c-0.324,0-0.555,0.013-0.682,0.054
			c-0.086,0.023-0.115,0.076-0.115,0.18V28.993L252.172,28.993z"/>
	</g>
	<g>
		<path d="M260.26,33.833c-0.209-0.095-0.248-0.156-0.248-0.44c0-0.705,0.051-1.485,0.064-1.691
			c0.014-0.188,0.055-0.336,0.154-0.336c0.115,0,0.129,0.121,0.129,0.224c0,0.166,0.057,0.44,0.115,0.656
			c0.285,0.96,1.049,1.306,1.852,1.306c1.164,0,1.727-0.781,1.727-1.472c0-0.634-0.188-1.237-1.266-2.062l-0.588-0.472
			c-1.424-1.108-1.912-2.009-1.912-3.06c0-1.418,1.186-2.44,2.977-2.44c0.842,0,1.389,0.134,1.721,0.22
			c0.117,0.029,0.188,0.059,0.188,0.146c0,0.171-0.055,0.553-0.055,1.558c0,0.283-0.039,0.387-0.145,0.387
			c-0.09,0-0.129-0.073-0.129-0.224c0-0.127-0.062-0.521-0.338-0.854c-0.197-0.25-0.564-0.637-1.408-0.637
			c-0.951,0-1.535,0.551-1.535,1.328c0,0.604,0.295,1.051,1.371,1.864l0.359,0.267c1.553,1.207,2.117,2.067,2.117,3.291
			c0,0.748-0.285,1.644-1.209,2.254c-0.65,0.404-1.377,0.526-2.057,0.526C261.396,34.17,260.812,34.075,260.26,33.833z"/>
	</g>
</g>
<g>
	<g>
		<path d="M273.287,27.973c0-1.968,0-2.324-0.023-2.736c-0.029-0.436-0.129-0.65-0.551-0.741c-0.109-0.021-0.328-0.028-0.508-0.028
			c-0.145,0-0.225-0.027-0.225-0.124c0-0.089,0.092-0.112,0.285-0.112c0.682,0,1.502,0.037,1.889,0.037
			c0.305,0,1.125-0.037,1.59-0.037c0.188,0,0.277,0.023,0.277,0.112c0,0.097-0.076,0.124-0.203,0.124
			c-0.145,0-0.225,0.01-0.371,0.028c-0.355,0.069-0.457,0.292-0.486,0.741c-0.021,0.412-0.021,0.77-0.021,2.736v1.807
			c0,1.876,0.377,2.666,1.008,3.18c0.576,0.477,1.174,0.521,1.613,0.521c0.568,0,1.264-0.174,1.783-0.688
			c0.711-0.717,0.744-1.878,0.744-3.202v-1.618c0-1.97,0-2.324-0.021-2.738c-0.027-0.434-0.127-0.647-0.553-0.74
			c-0.107-0.021-0.326-0.028-0.467-0.028c-0.143,0-0.225-0.028-0.225-0.125c0-0.087,0.1-0.112,0.273-0.112
			c0.652,0,1.477,0.039,1.486,0.039c0.152,0,0.967-0.039,1.467-0.039c0.186,0,0.27,0.025,0.27,0.112c0,0.097-0.07,0.125-0.229,0.125
			c-0.139,0-0.217,0.009-0.369,0.028c-0.352,0.07-0.459,0.292-0.479,0.74c-0.029,0.414-0.029,0.77-0.029,2.738v1.385
			c0,1.433-0.139,2.957-1.229,3.885c-0.914,0.791-1.844,0.928-2.686,0.928c-0.682,0-1.924-0.037-2.865-0.883
			c-0.658-0.596-1.15-1.557-1.15-3.428v-1.887H273.287L273.287,27.973z"/>
	</g>
	<g>
		<path d="M283.797,33.833c-0.209-0.088-0.242-0.149-0.242-0.438c0-0.703,0.045-1.487,0.062-1.688
			c0.008-0.196,0.047-0.338,0.156-0.338c0.117,0,0.129,0.111,0.129,0.218c0,0.177,0.047,0.44,0.117,0.662
			c0.281,0.958,1.047,1.308,1.848,1.308c1.156,0,1.732-0.789,1.732-1.479c0-0.63-0.201-1.234-1.27-2.059l-0.602-0.475
			c-1.42-1.105-1.902-2.018-1.902-3.059c0-1.416,1.186-2.438,2.979-2.438c0.842,0,1.383,0.125,1.717,0.219
			c0.113,0.025,0.184,0.063,0.184,0.148c0,0.167-0.057,0.549-0.057,1.555c0,0.281-0.031,0.383-0.139,0.383
			c-0.088,0-0.137-0.078-0.137-0.229c0-0.121-0.061-0.512-0.328-0.854c-0.197-0.244-0.57-0.631-1.41-0.631
			c-0.953,0-1.539,0.553-1.539,1.328c0,0.598,0.305,1.049,1.373,1.861l0.367,0.268c1.539,1.201,2.113,2.068,2.113,3.293
			c0,0.748-0.279,1.642-1.217,2.252c-0.641,0.412-1.363,0.523-2.049,0.523C284.934,34.17,284.352,34.084,283.797,33.833z"/>
	</g>
	<g>
		<path d="M293.832,30.619c-0.062,0-0.09,0.025-0.111,0.104l-0.703,1.85c-0.129,0.316-0.195,0.633-0.195,0.793
			c0,0.225,0.119,0.391,0.521,0.391h0.191c0.154,0,0.189,0.027,0.189,0.107c0,0.1-0.076,0.127-0.219,0.127
			c-0.408,0-0.965-0.035-1.369-0.035c-0.135,0-0.852,0.035-1.518,0.035c-0.172,0-0.25-0.027-0.25-0.127
			c0-0.083,0.053-0.107,0.154-0.107c0.113,0,0.303-0.012,0.396-0.021c0.592-0.08,0.844-0.516,1.1-1.161l3.238-8.105
			c0.158-0.384,0.238-0.524,0.367-0.524c0.117,0,0.195,0.119,0.324,0.418c0.307,0.712,2.373,5.974,3.199,7.937
			c0.494,1.168,0.859,1.351,1.137,1.415c0.197,0.033,0.387,0.045,0.543,0.045c0.102,0,0.17,0.016,0.17,0.107
			c0,0.1-0.123,0.127-0.602,0.127c-0.461,0-1.408,0-2.438-0.027c-0.234-0.008-0.389-0.008-0.389-0.1
			c0-0.083,0.061-0.107,0.186-0.119c0.088-0.021,0.178-0.139,0.117-0.289l-1.033-2.746c-0.029-0.062-0.068-0.089-0.131-0.089h-2.877
			V30.619z M296.465,29.975c0.062,0,0.078-0.033,0.062-0.082l-1.164-3.186c-0.01-0.048-0.021-0.119-0.068-0.119
			c-0.035,0-0.057,0.071-0.074,0.119l-1.188,3.174c-0.01,0.059,0,0.094,0.055,0.094H296.465L296.465,29.975z"/>
	</g>
</g>
<g>
	<path fill="#BAD0EC" d="M7.943,19.1c-0.046-0.031-0.137-0.09-0.265-0.168c-0.907-0.57-3.318-2.082-4.587-3.654l0.556-0.448
		c1.193,1.479,3.615,2.999,4.41,3.497c0.14,0.087,0.239,0.148,0.29,0.185L7.943,19.1z"/>
</g>
<g>
	<path fill="#BAD0EC" d="M23.798,23.714c-1.83,0-4.907-0.247-8.775-1.481l0.229-0.715c6.082,1.946,10.249,1.358,10.292,1.354
		l0.11,0.737C25.587,23.619,24.933,23.714,23.798,23.714z"/>
</g>
<g>
	<path fill="#BAD0EC" d="M30.964,12.193c-0.168-0.323-0.307-0.651-0.44-0.968c-0.603-1.423-1.285-3.036-5.244-5.616l0.343-0.526
		c4.12,2.684,4.842,4.391,5.479,5.897c0.135,0.32,0.264,0.622,0.42,0.925L30.964,12.193z"/>
</g>
<g>
	<path d="M37.07,14.412c-0.716,0.324-1.434,0.501-1.662,0.566"/>
	<path fill="#BAD0EC" d="M35.496,15.28l-0.173-0.604l0.115-0.031c0.293-0.08,0.902-0.246,1.502-0.519l0.26,0.569
		c-0.646,0.295-1.288,0.47-1.597,0.555L35.496,15.28z"/>
</g>
<g>
	<path fill="#BAD0EC" d="M12.425,11.841c-0.042,0-0.084-0.007-0.125-0.022c-0.503-0.188-3.185-1.542-6.193-4.269
		C5.962,7.418,5.952,7.191,6.083,7.045C6.214,6.9,6.439,6.889,6.586,7.021c2.924,2.653,5.487,3.95,5.965,4.129
		c0.185,0.069,0.278,0.273,0.209,0.459C12.708,11.752,12.57,11.841,12.425,11.841z"/>
</g>
<g>
	<path fill="#BAD0EC" d="M27.223,14.952c-2.045,0-5.594-0.409-6.649-0.734l0.212-0.684c1.317,0.409,6.476,0.897,7.494,0.632
		l0.181,0.689C28.204,14.924,27.766,14.952,27.223,14.952z"/>
</g>
<g>
	<path fill="#BAD0EC" d="M17.538,9.577L16.913,9.23c0.119-0.213,2.948-5.25,7.604-7.522l0.312,0.642
		C20.374,4.524,17.563,9.527,17.538,9.577z"/>
</g>
<g>
	<path fill="#BAD0EC" d="M14.703,19.439l-0.708-0.088c0.047-0.375,0.752-4.494,1.648-6.584l0.657,0.28
		C15.441,15.044,14.742,19.121,14.703,19.439z"/>
</g>
</svg>
