<?xml version="1.0" encoding="utf-8"?>
<!-- Generator: Adobe Illustrator 15.0.0, SVG Export Plug-In . SVG Version: 6.00 Build 0)  -->
<!DOCTYPE svg PUBLIC "-//W3C//DTD SVG 1.1//EN" "http://www.w3.org/Graphics/SVG/1.1/DTD/svg11.dtd">
<svg version="1.1" id="GW" xmlns="http://www.w3.org/2000/svg" xmlns:xlink="http://www.w3.org/1999/xlink" x="0px" y="0px"
	 width="216px" height="179.481px" viewBox="0 0 216 179.481" enable-background="new 0 0 216 179.481" xml:space="preserve">
<path fill="#005581" d="M36,143.464v-9.068h144v9.068H36z M86.739,97.179H70.342v-9.574h26.352v30.613
	c-6.637,4.172-14.689,6.635-24.359,6.635c-19.715,0-36.3-14.033-36.3-35.065c0-22.278,17.442-35.264,37.246-35.264
	c6.829,0,12.986,0.948,18.673,3.126v9.859h-0.091c-5.88-2.464-12.61-3.505-18.488-3.505c-17.056,0-26.252,11.09-26.252,25.685
	c0,15.068,10.712,25.779,25.784,25.779c5.398,0,9.756-0.756,13.834-2.746V97.179z M156.676,123.056l-16.777-36.779l-16.203,36.779
	h-2.742l-20.668-66.537h10.52l13.18,44.253l15.348-34.113h1.99l15.449,33.931l13.268-44.072h9.953l-20.564,66.537H156.676z
	 M36,45.049V35.98h144v9.069H36z"/>
</svg>
