<?xml version="1.0" encoding="utf-8"?>
<!-- Generator: Adobe Illustrator 15.0.0, SVG Export Plug-In . SVG Version: 6.00 Build 0)  -->
<!DOCTYPE svg PUBLIC "-//W3C//DTD SVG 1.1//EN" "http://www.w3.org/Graphics/SVG/1.1/DTD/svg11.dtd">
<svg version="1.1" id="Layer_1" xmlns="http://www.w3.org/2000/svg" xmlns:xlink="http://www.w3.org/1999/xlink" x="0px" y="0px"
	 width="114px" height="53.5px" viewBox="0 0 114 53.5" enable-background="new 0 0 114 53.5" xml:space="preserve">
<g id="Layer_1_1_">
	<polygon fill="#4F2D81" points="74,53.5 0,53.5 40,0 114,0 	"/>
	<path fill="#FFFFFF" d="M56.959,22.758c-0.278,0.232-1.021,0.927-1.021,1.344s0.418,0.974,1.113,1.902l8.854,11.921
		c3.615,4.917,5.656,3.619,5.656,4.778c0,0.324-0.045,0.604-0.603,0.604c-1.021-0.002-2.226-0.188-3.478-0.188
		c-0.881,0-1.81,0.187-3.107,0.185c-0.881,0-1.344-0.093-2.271-1.345l-9.225-12.663c-0.603-0.788-0.881-1.299-1.159-1.299
		c-0.371,0-1.159,0.788-2.18,1.947c-0.696,0.787-0.604,1.205-0.604,2.271l-0.001,6.075c-0.002,4.268,4.543,2.784,4.542,4.453
		c0,0.417-0.186,0.557-1.298,0.556c-1.252,0-2.504-0.187-5.147-0.187c-2.226-0.002-4.637,0.184-6.075,0.184
		c-0.881,0-1.438-0.047-1.438-0.372c0.001-2.317,3.709,0.697,3.712-6.306l0.007-20.172c0.001-5.611-4.869-3.247-4.868-5.287
		c0-0.511,0.371-0.696,0.928-0.696c0.881,0,2.411,0.187,5.564,0.188c2.597,0.001,5.519-0.184,6.446-0.184
		c0.417,0,0.974,0,0.974,0.557c-0.001,1.854-3.339-0.651-3.34,4.451l-0.004,10.619c0,0.464-0.047,1.113,0.232,1.067
		c0.278,0.046,0.556-0.186,1.159-0.788l6.124-5.98c1.299-1.297,5.798-5.053,5.799-7.139c0-1.438-2.829-0.836-2.829-1.902
		c0-0.835,0.464-0.881,1.067-0.881c0.464,0,3.664,0.188,5.055,0.188c1.159,0.001,2.365-0.185,4.359-0.184
		c0.371,0,1.205-0.046,1.205,0.789c0,1.252-1.484-0.139-5.983,3.94L56.959,22.758z"/>
</g>
</svg>
