<?xml version="1.0" encoding="utf-8"?>
<!-- Generator: Adobe Illustrator 15.0.0, SVG Export Plug-In . SVG Version: 6.00 Build 0)  -->
<!DOCTYPE svg PUBLIC "-//W3C//DTD SVG 1.1//EN" "http://www.w3.org/Graphics/SVG/1.1/DTD/svg11.dtd">
<svg version="1.1" id="Layer_1" xmlns="http://www.w3.org/2000/svg" xmlns:xlink="http://www.w3.org/1999/xlink" x="0px" y="0px"
	 width="371.371px" height="53.5px" viewBox="0 0 371.371 53.5" enable-background="new 0 0 371.371 53.5" xml:space="preserve">
<g id="Layer_1_1_">
	<polygon fill="#4F2D81" points="74,53.5 0,53.5 40,0 114,0 	"/>
	<path fill="#FFFFFF" d="M56.959,22.758c-0.278,0.232-1.021,0.927-1.021,1.344s0.418,0.974,1.113,1.902l8.854,11.921
		c3.615,4.917,5.656,3.619,5.656,4.778c0,0.324-0.046,0.604-0.603,0.604c-1.021-0.002-2.226-0.188-3.478-0.188
		c-0.881,0-1.809,0.187-3.107,0.185c-0.881,0-1.344-0.093-2.272-1.345l-9.224-12.663c-0.603-0.788-0.881-1.299-1.159-1.299
		c-0.371,0-1.159,0.788-2.18,1.947c-0.696,0.787-0.604,1.205-0.604,2.271l-0.001,6.075c-0.002,4.268,4.543,2.784,4.542,4.453
		c0,0.417-0.186,0.557-1.298,0.556c-1.252,0-2.504-0.187-5.147-0.187c-2.226-0.002-4.637,0.184-6.075,0.184
		c-0.881,0-1.438-0.047-1.438-0.372c0.001-2.317,3.709,0.697,3.712-6.306l0.007-20.172c0.001-5.611-4.869-3.247-4.868-5.287
		c0-0.511,0.371-0.696,0.928-0.696c0.881,0,2.411,0.187,5.564,0.188c2.597,0.001,5.519-0.184,6.446-0.184
		c0.417,0,0.974,0,0.974,0.557c-0.001,1.854-3.339-0.651-3.34,4.451l-0.004,10.619c0,0.464-0.047,1.113,0.232,1.067
		c0.278,0.046,0.556-0.186,1.159-0.788l6.124-5.98c1.299-1.297,5.798-5.053,5.799-7.139c0-1.438-2.829-0.836-2.829-1.902
		c0-0.835,0.464-0.881,1.067-0.881c0.464,0,3.664,0.188,5.055,0.188c1.159,0.001,2.365-0.185,4.359-0.184
		c0.371,0,1.206-0.046,1.205,0.789c0,1.252-1.484-0.139-5.983,3.94L56.959,22.758z"/>
</g>
<g id="Layer_3">
	<polygon points="150.535,15.512 152.074,15.512 152.074,18.57 154.912,15.512 156.771,15.512 153.922,18.48 156.901,22.508 
		155.052,22.508 152.883,19.53 152.074,20.369 152.074,22.508 150.535,22.508 	"/>
	<polygon points="158.833,15.512 164.111,15.512 164.111,16.881 160.363,16.881 160.363,18.301 163.662,18.301 163.662,19.67 
		160.363,19.67 160.363,21.139 164.162,21.139 164.162,22.508 158.833,22.508 	"/>
	<polygon points="166.535,15.512 168.074,15.512 168.074,21.109 171.561,21.109 171.561,22.508 166.535,22.508 	"/>
	<polygon points="173.724,15.512 175.264,15.512 175.264,21.109 178.751,21.109 178.751,22.508 173.724,22.508 	"/>
	<path d="M180.205,19.03V19.01c0-1.989,1.568-3.618,3.728-3.618c2.16,0,3.708,1.609,3.708,3.598v0.02
		c0,1.989-1.567,3.618-3.729,3.618C181.754,22.628,180.205,21.02,180.205,19.03 M186.031,19.03V19.01
		c0-1.199-0.879-2.199-2.119-2.199c-1.238,0-2.099,0.98-2.099,2.179v0.02c0,1.199,0.88,2.199,2.119,2.199
		C185.172,21.209,186.031,20.229,186.031,19.03"/>
	<path d="M189.705,19.03V19.01c0-1.989,1.549-3.618,3.668-3.618c1.259,0,2.02,0.34,2.748,0.959l-0.971,1.17
		c-0.539-0.45-1.019-0.71-1.828-0.71c-1.119,0-2.01,0.99-2.01,2.179v0.02c0,1.279,0.881,2.219,2.119,2.219
		c0.561,0,1.061-0.14,1.449-0.42v-1h-1.55V18.48h3.039v3.039c-0.72,0.609-1.709,1.109-2.988,1.109
		C191.203,22.628,189.705,21.099,189.705,19.03"/>
	<path d="M198.544,19.03V19.01c0-1.989,1.549-3.618,3.668-3.618c1.259,0,2.021,0.34,2.749,0.959l-0.97,1.17
		c-0.54-0.45-1.021-0.71-1.829-0.71c-1.119,0-2.01,0.99-2.01,2.179v0.02c0,1.279,0.88,2.219,2.119,2.219
		c0.561,0,1.06-0.14,1.449-0.42v-1h-1.55V18.48h3.039v3.039c-0.72,0.609-1.71,1.109-2.989,1.109
		C200.043,22.628,198.544,21.099,198.544,19.03"/>
	<path d="M211.214,21.489l0.91-1.089c0.629,0.519,1.289,0.849,2.089,0.849c0.629,0,1.008-0.25,1.008-0.659v-0.02
		c0-0.39-0.238-0.59-1.406-0.89c-1.41-0.36-2.32-0.75-2.32-2.139v-0.02c0-1.269,1.02-2.109,2.449-2.109c1.02,0,1.89,0.32,2.599,0.89
		l-0.8,1.159c-0.619-0.43-1.229-0.689-1.819-0.689c-0.589,0-0.899,0.27-0.899,0.61v0.019c0,0.46,0.302,0.61,1.511,0.92
		c1.42,0.37,2.219,0.879,2.219,2.099v0.02c0,1.389-1.062,2.169-2.569,2.169C213.124,22.609,212.053,22.239,211.214,21.489"/>
	<path d="M218.783,19.03V19.01c0-1.989,1.5-3.618,3.648-3.618c1.319,0,2.108,0.439,2.76,1.079l-0.979,1.13
		c-0.54-0.49-1.091-0.79-1.789-0.79c-1.181,0-2.03,0.98-2.03,2.179v0.02c0,1.199,0.83,2.199,2.03,2.199
		c0.798,0,1.289-0.32,1.839-0.82l0.979,0.99c-0.72,0.769-1.521,1.249-2.867,1.249C220.312,22.628,218.783,21.039,218.783,19.03"/>
	<polygon points="227.475,15.512 229.014,15.512 229.014,18.281 231.852,18.281 231.852,15.512 233.391,15.512 233.391,22.508 
		231.852,22.508 231.852,19.699 229.014,19.699 229.014,22.508 227.475,22.508 	"/>
	<path d="M235.764,19.03V19.01c0-1.989,1.569-3.618,3.729-3.618c2.158,0,3.708,1.609,3.708,3.598v0.02
		c0,1.989-1.569,3.618-3.728,3.618C237.312,22.628,235.764,21.02,235.764,19.03 M241.591,19.03V19.01
		c0-1.199-0.881-2.199-2.118-2.199c-1.24,0-2.101,0.98-2.101,2.179v0.02c0,1.199,0.881,2.199,2.119,2.199
		C240.732,21.209,241.591,20.229,241.591,19.03"/>
	<path d="M245.264,19.03V19.01c0-1.989,1.569-3.618,3.729-3.618c2.158,0,3.708,1.609,3.708,3.598v0.02
		c0,1.989-1.569,3.618-3.728,3.618C246.812,22.628,245.264,21.02,245.264,19.03 M251.091,19.03V19.01
		c0-1.199-0.881-2.199-2.118-2.199c-1.24,0-2.101,0.98-2.101,2.179v0.02c0,1.199,0.881,2.199,2.119,2.199
		C250.232,21.209,251.091,20.229,251.091,19.03"/>
	<polygon points="255.074,15.512 256.613,15.512 256.613,21.109 260.102,21.109 260.102,22.508 255.074,22.508 	"/>
	<path d="M265.954,19.03V19.01c0-1.989,1.569-3.618,3.729-3.618c2.157,0,3.707,1.609,3.707,3.598v0.02
		c0,1.989-1.568,3.618-3.729,3.618C267.503,22.628,265.954,21.02,265.954,19.03 M271.781,19.03V19.01
		c0-1.199-0.881-2.199-2.119-2.199c-1.239,0-2.1,0.98-2.1,2.179v0.02c0,1.199,0.881,2.199,2.119,2.199
		C270.921,21.209,271.781,20.229,271.781,19.03"/>
	<polygon points="275.764,15.512 281.091,15.512 281.091,16.911 277.303,16.911 277.303,18.4 280.641,18.4 280.641,19.8 
		277.303,19.8 277.303,22.508 275.764,22.508 	"/>
	<polygon points="287.324,15.512 288.982,15.512 290.822,18.47 292.661,15.512 294.32,15.512 294.32,22.508 292.791,22.508 
		292.791,17.941 290.822,20.929 290.782,20.929 288.833,17.97 288.833,22.508 287.324,22.508 	"/>
	<path d="M299.402,15.462h1.418l3,7.046h-1.609l-0.641-1.569h-2.959l-0.639,1.569h-1.568L299.402,15.462z M301.021,19.58
		l-0.931-2.269l-0.93,2.269H301.021z"/>
	<polygon points="305.904,15.512 307.323,15.512 310.601,19.82 310.601,15.512 312.12,15.512 312.12,22.508 310.811,22.508 
		307.422,18.06 307.422,22.508 305.904,22.508 	"/>
	<path d="M317.202,15.462h1.419l2.999,7.046h-1.609l-0.64-1.569h-2.959l-0.641,1.569h-1.567L317.202,15.462z M318.821,19.58
		l-0.931-2.269l-0.93,2.269H318.821z"/>
	<path d="M322.943,19.03V19.01c0-1.989,1.55-3.618,3.668-3.618c1.26,0,2.019,0.34,2.749,0.959l-0.971,1.17
		c-0.539-0.45-1.02-0.71-1.829-0.71c-1.118,0-2.009,0.99-2.009,2.179v0.02c0,1.279,0.88,2.219,2.119,2.219
		c0.56,0,1.06-0.14,1.449-0.42v-1h-1.549V18.48h3.038v3.039c-0.721,0.609-1.709,1.109-2.988,1.109
		C324.443,22.628,322.943,21.099,322.943,19.03"/>
	<polygon points="332.093,15.512 337.37,15.512 337.37,16.881 333.623,16.881 333.623,18.301 336.92,18.301 336.92,19.67 
		333.623,19.67 333.623,21.139 337.42,21.139 337.42,22.508 332.093,22.508 	"/>
	<polygon points="339.793,15.512 341.453,15.512 343.292,18.47 345.13,15.512 346.79,15.512 346.79,22.508 345.26,22.508 
		345.26,17.941 343.292,20.929 343.251,20.929 341.302,17.97 341.302,22.508 339.793,22.508 	"/>
	<polygon points="349.473,15.512 354.75,15.512 354.75,16.881 351.002,16.881 351.002,18.301 354.3,18.301 354.3,19.67 
		351.002,19.67 351.002,21.139 354.8,21.139 354.8,22.508 349.473,22.508 	"/>
	<polygon points="357.173,15.512 358.592,15.512 361.871,19.82 361.871,15.512 363.389,15.512 363.389,22.508 362.081,22.508 
		358.692,18.06 358.692,22.508 357.173,22.508 	"/>
	<polygon points="367.703,16.931 365.574,16.931 365.574,15.512 371.371,15.512 371.371,16.931 369.242,16.931 369.242,22.508 
		367.703,22.508 	"/>
	<path d="M162.443,29.962h1.419l2.998,7.045h-1.608l-0.64-1.567h-2.959l-0.639,1.567h-1.57L162.443,29.962z M164.062,34.08
		l-0.93-2.27l-0.93,2.27H164.062z"/>
	<polygon points="169.673,31.432 167.544,31.432 167.544,30.011 173.341,30.011 173.341,31.432 171.212,31.432 171.212,37.007 
		169.673,37.007 	"/>
	<polygon points="179.524,30.011 180.943,30.011 184.222,34.32 184.222,30.011 185.741,30.011 185.741,37.007 184.432,37.007 
		181.044,32.561 181.044,37.007 179.524,37.007 	"/>
	<path d="M188.113,33.531V33.51c0-1.988,1.57-3.617,3.729-3.617c2.16,0,3.709,1.609,3.709,3.599v0.02
		c0,1.99-1.568,3.619-3.729,3.619C189.664,37.128,188.113,35.52,188.113,33.531 M193.941,33.531V33.51
		c0-1.197-0.879-2.197-2.119-2.197c-1.238,0-2.1,0.979-2.1,2.179v0.02c0,1.199,0.881,2.199,2.118,2.199
		C193.082,35.708,193.941,34.73,193.941,33.531"/>
	<path d="M197.923,30.011h3.199c0.89,0,1.578,0.25,2.039,0.712c0.389,0.389,0.598,0.938,0.598,1.6v0.02
		c0,1.129-0.608,1.838-1.497,2.168l1.709,2.498h-1.8l-1.5-2.238h-1.209v2.238h-1.539V30.011L197.923,30.011z M201.021,33.41
		c0.75,0,1.18-0.4,1.18-0.988v-0.02c0-0.66-0.46-1-1.209-1h-1.529v2.008H201.021z"/>
	<polygon points="207.783,31.432 205.654,31.432 205.654,30.011 211.451,30.011 211.451,31.432 209.322,31.432 209.322,37.007 
		207.783,37.007 	"/>
	<polygon points="213.633,30.011 215.173,30.011 215.173,32.781 218.01,32.781 218.01,30.011 219.55,30.011 219.55,37.007 
		218.01,37.007 218.01,34.199 215.173,34.199 215.173,37.007 213.633,37.007 	"/>
	<polygon points="221.693,30.011 223.342,30.011 224.792,34.75 226.361,29.992 227.68,29.992 229.25,34.75 230.699,30.011 
		232.307,30.011 229.919,37.059 228.581,37.059 227,32.482 225.421,37.059 224.083,37.059 	"/>
	<polygon points="234.455,30.011 239.73,30.011 239.73,31.38 235.982,31.38 235.982,32.8 239.281,32.8 239.281,34.169 
		235.982,34.169 235.982,35.639 239.781,35.639 239.781,37.007 234.455,37.007 	"/>
	<path d="M241.673,35.988l0.91-1.088c0.629,0.52,1.288,0.85,2.088,0.85c0.631,0,1.011-0.25,1.011-0.66v-0.02
		c0-0.391-0.24-0.59-1.41-0.891c-1.41-0.359-2.318-0.75-2.318-2.14V32.02c0-1.27,1.02-2.108,2.449-2.108
		c1.02,0,1.889,0.319,2.598,0.891l-0.799,1.158c-0.62-0.43-1.229-0.688-1.818-0.688c-0.589,0-0.898,0.271-0.898,0.61V31.9
		c0,0.461,0.299,0.61,1.508,0.92c1.42,0.371,2.22,0.879,2.22,2.1v0.02c0,1.39-1.06,2.17-2.567,2.17
		C243.582,37.109,242.514,36.738,241.673,35.988"/>
	<polygon points="251.033,31.432 248.904,31.432 248.904,30.011 254.701,30.011 254.701,31.432 252.572,31.432 252.572,37.007 
		251.033,37.007 	"/>
	<polygon points="256.884,30.011 262.161,30.011 262.161,31.38 258.413,31.38 258.413,32.8 261.711,32.8 261.711,34.169 
		258.413,34.169 258.413,35.639 262.211,35.639 262.211,37.007 256.884,37.007 	"/>
	<path d="M264.584,30.011h3.198c0.89,0,1.579,0.25,2.038,0.712c0.391,0.389,0.601,0.938,0.601,1.6v0.02
		c0,1.129-0.61,1.838-1.5,2.168l1.709,2.498h-1.799l-1.499-2.238h-1.209v2.238h-1.539V30.011z M267.682,33.41
		c0.75,0,1.18-0.4,1.18-0.988v-0.02c0-0.66-0.459-1-1.209-1h-1.528v2.008H267.682z"/>
	<polygon points="272.814,30.011 274.232,30.011 277.511,34.32 277.511,30.011 279.029,30.011 279.029,37.007 277.721,37.007 
		274.333,32.561 274.333,37.007 272.814,37.007 	"/>
	<path d="M285.604,34.009v-3.998h1.539v3.959c0,1.14,0.57,1.729,1.51,1.729c0.94,0,1.51-0.568,1.51-1.68v-4.009h1.539v3.949
		c0,2.117-1.189,3.156-3.068,3.156S285.604,36.068,285.604,34.009"/>
	<polygon points="294.273,30.011 295.693,30.011 298.971,34.32 298.971,30.011 300.49,30.011 300.49,37.007 299.182,37.007 
		295.792,32.561 295.792,37.007 294.273,37.007 	"/>
	<rect x="303.244" y="30.011" width="1.539" height="6.996"/>
	<polygon points="306.934,30.011 308.632,30.011 310.461,34.939 312.291,30.011 313.95,30.011 311.122,37.059 309.762,37.059 	"/>
	<polygon points="316.034,30.011 321.31,30.011 321.31,31.38 317.562,31.38 317.562,32.8 320.861,32.8 320.861,34.169 
		317.562,34.169 317.562,35.639 321.361,35.639 321.361,37.007 316.034,37.007 	"/>
	<path d="M323.734,30.011h3.197c0.891,0,1.579,0.25,2.038,0.712c0.392,0.389,0.602,0.938,0.602,1.6v0.02
		c0,1.129-0.61,1.838-1.5,2.168l1.709,2.498h-1.799l-1.499-2.238h-1.209v2.238h-1.539V30.011z M326.832,33.41
		c0.75,0,1.18-0.4,1.18-0.988v-0.02c0-0.66-0.46-1-1.209-1h-1.528v2.008H326.832z"/>
	<path d="M331.483,35.988l0.909-1.088c0.631,0.52,1.289,0.85,2.09,0.85c0.63,0,1.009-0.25,1.009-0.66v-0.02
		c0-0.391-0.239-0.59-1.409-0.891c-1.409-0.359-2.318-0.75-2.318-2.14V32.02c0-1.27,1.021-2.108,2.449-2.108
		c1.02,0,1.889,0.319,2.598,0.891l-0.799,1.158c-0.62-0.43-1.229-0.688-1.818-0.688c-0.591,0-0.899,0.271-0.899,0.61V31.9
		c0,0.461,0.3,0.61,1.509,0.92c1.42,0.371,2.22,0.879,2.22,2.1v0.02c0,1.39-1.061,2.17-2.568,2.17
		C333.392,37.109,332.323,36.738,331.483,35.988"/>
	<rect x="339.433" y="30.011" width="1.539" height="6.996"/>
	<polygon points="345.353,31.432 343.224,31.432 343.224,30.011 349.021,30.011 349.021,31.432 346.892,31.432 346.892,37.007 
		345.353,37.007 	"/>
	<polygon points="353.172,34.25 350.484,30.011 352.283,30.011 353.952,32.82 355.651,30.011 357.4,30.011 354.711,34.22 
		354.711,37.007 353.172,37.007 	"/>
</g>
</svg>
