<?xml version="1.0" encoding="utf-8"?>
<!-- Generator: Adobe Illustrator 15.0.0, SVG Export Plug-In . SVG Version: 6.00 Build 0)  -->
<!DOCTYPE svg PUBLIC "-//W3C//DTD SVG 1.1//EN" "http://www.w3.org/Graphics/SVG/1.1/DTD/svg11.dtd">
<svg version="1.1" xmlns="http://www.w3.org/2000/svg" xmlns:xlink="http://www.w3.org/1999/xlink" x="0px" y="0px"
	 width="573.374px" height="53.5px" viewBox="0 0 573.374 53.5" enable-background="new 0 0 573.374 53.5" xml:space="preserve">
<g id="Layer_1">
	<polygon fill="#4F2D81" points="74,53.5 0,53.5 40,0 114,0 	"/>
	<path fill="#FFFFFF" d="M56.959,22.758c-0.278,0.232-1.021,0.927-1.021,1.344c0,0.417,0.418,0.974,1.113,1.902l8.854,11.921
		c3.615,4.917,5.656,3.619,5.656,4.778c0,0.324-0.046,0.603-0.603,0.603c-1.021-0.001-2.226-0.187-3.478-0.188
		c-0.881,0-1.809,0.186-3.107,0.185c-0.881,0-1.344-0.093-2.272-1.345l-9.224-12.663c-0.603-0.788-0.881-1.299-1.159-1.299
		c-0.371,0-1.159,0.788-2.18,1.947c-0.696,0.788-0.604,1.205-0.604,2.271l-0.001,6.075c-0.002,4.267,4.543,2.784,4.542,4.453
		c0,0.417-0.186,0.557-1.298,0.556c-1.252,0-2.504-0.186-5.147-0.187c-2.226-0.001-4.637,0.184-6.075,0.184
		c-0.881,0-1.438-0.047-1.438-0.372c0.001-2.318,3.709,0.697,3.712-6.306l0.007-20.172c0.001-5.611-4.869-3.247-4.868-5.287
		c0-0.511,0.371-0.696,0.928-0.696c0.881,0,2.411,0.187,5.564,0.188c2.597,0.001,5.519-0.184,6.446-0.184
		c0.417,0,0.974,0,0.974,0.557c-0.001,1.854-3.339-0.651-3.34,4.451l-0.004,10.619c0,0.464-0.047,1.113,0.232,1.067
		c0.278,0.046,0.556-0.186,1.159-0.788l6.124-5.98c1.299-1.297,5.798-5.053,5.799-7.139c0-1.438-2.829-0.836-2.829-1.902
		c0-0.835,0.464-0.881,1.067-0.881c0.464,0,3.664,0.187,5.055,0.187c1.159,0.001,2.365-0.185,4.359-0.184
		c0.371,0,1.206-0.046,1.205,0.789c0,1.252-1.484-0.139-5.983,3.94L56.959,22.758z"/>
</g>
<g id="Layer_2">
	<polygon points="149,23.387 150.54,23.387 150.54,26.446 153.378,23.387 155.237,23.387 152.388,26.356 155.367,30.383 
		153.518,30.383 151.349,27.405 150.54,28.245 150.54,30.383 149,30.383 	"/>
	<polygon points="157.3,23.387 162.577,23.387 162.577,24.756 158.829,24.756 158.829,26.176 162.128,26.176 162.128,27.545 
		158.829,27.545 158.829,29.014 162.627,29.014 162.627,30.383 157.3,30.383 	"/>
	<polygon points="165,23.387 166.54,23.387 166.54,28.984 170.027,28.984 170.027,30.383 165,30.383 	"/>
	<polygon points="172.19,23.387 173.73,23.387 173.73,28.984 177.217,28.984 177.217,30.383 172.19,30.383 	"/>
	<path d="M178.67,26.906v-0.021c0-1.988,1.569-3.618,3.728-3.618c2.159,0,3.708,1.609,3.708,3.599v0.02
		c0,1.989-1.569,3.618-3.728,3.618C180.22,30.503,178.67,28.894,178.67,26.906 M184.497,26.906v-0.021
		c0-1.199-0.879-2.198-2.119-2.198c-1.239,0-2.099,0.979-2.099,2.179v0.02c0,1.199,0.88,2.199,2.119,2.199
		C183.638,29.084,184.497,28.105,184.497,26.906"/>
	<path d="M188.17,26.906v-0.021c0-1.988,1.549-3.618,3.668-3.618c1.259,0,2.019,0.34,2.749,0.96l-0.97,1.169
		c-0.54-0.449-1.019-0.709-1.829-0.709c-1.119,0-2.009,0.99-2.009,2.179v0.02c0,1.279,0.88,2.219,2.119,2.219
		c0.56,0,1.059-0.14,1.449-0.42v-0.999h-1.549v-1.329h3.038v3.038c-0.719,0.609-1.709,1.109-2.988,1.109
		C189.669,30.503,188.17,28.974,188.17,26.906"/>
	<path d="M197.01,26.906v-0.021c0-1.988,1.549-3.618,3.668-3.618c1.259,0,2.019,0.34,2.749,0.96l-0.97,1.169
		c-0.54-0.449-1.02-0.709-1.829-0.709c-1.119,0-2.009,0.99-2.009,2.179v0.02c0,1.279,0.88,2.219,2.119,2.219
		c0.56,0,1.059-0.14,1.449-0.42v-0.999h-1.549v-1.329h3.039v3.038c-0.72,0.609-1.71,1.109-2.989,1.109
		C198.509,30.503,197.01,28.974,197.01,26.906"/>
	<path d="M209.68,29.364l0.91-1.089c0.629,0.52,1.289,0.85,2.089,0.85c0.629,0,1.009-0.25,1.009-0.66v-0.02
		c0-0.39-0.24-0.59-1.409-0.89c-1.41-0.36-2.319-0.75-2.319-2.139v-0.021c0-1.269,1.019-2.108,2.449-2.108
		c1.019,0,1.888,0.319,2.598,0.89l-0.8,1.159c-0.619-0.43-1.229-0.689-1.819-0.689c-0.589,0-0.899,0.27-0.899,0.609v0.02
		c0,0.46,0.3,0.61,1.509,0.92c1.419,0.37,2.219,0.88,2.219,2.099v0.021c0,1.389-1.059,2.169-2.569,2.169
		C211.589,30.484,210.519,30.114,209.68,29.364"/>
	<path d="M217.25,26.906v-0.021c0-1.988,1.499-3.618,3.648-3.618c1.319,0,2.109,0.44,2.758,1.08l-0.979,1.129
		c-0.54-0.489-1.09-0.789-1.789-0.789c-1.18,0-2.029,0.979-2.029,2.179v0.02c0,1.199,0.829,2.199,2.029,2.199
		c0.799,0,1.289-0.32,1.839-0.819l0.98,0.989c-0.72,0.77-1.52,1.249-2.869,1.249C218.779,30.503,217.25,28.915,217.25,26.906"/>
	<polygon points="225.939,23.387 227.479,23.387 227.479,26.156 230.317,26.156 230.317,23.387 231.856,23.387 231.856,30.383 
		230.317,30.383 230.317,27.574 227.479,27.574 227.479,30.383 225.939,30.383 	"/>
	<path d="M234.229,26.906v-0.021c0-1.988,1.569-3.618,3.728-3.618c2.159,0,3.708,1.609,3.708,3.599v0.02
		c0,1.989-1.568,3.618-3.729,3.618C235.78,30.503,234.229,28.894,234.229,26.906 M240.056,26.906v-0.021
		c0-1.199-0.879-2.198-2.119-2.198c-1.238,0-2.098,0.979-2.098,2.179v0.02c0,1.199,0.88,2.199,2.119,2.199
		C239.198,29.084,240.056,28.105,240.056,26.906"/>
	<path d="M243.729,26.906v-0.021c0-1.988,1.569-3.618,3.728-3.618c2.16,0,3.709,1.609,3.709,3.599v0.02
		c0,1.989-1.569,3.618-3.729,3.618C245.279,30.503,243.729,28.894,243.729,26.906 M249.556,26.906v-0.021
		c0-1.199-0.879-2.198-2.119-2.198c-1.238,0-2.099,0.979-2.099,2.179v0.02c0,1.199,0.88,2.199,2.118,2.199
		C248.697,29.084,249.556,28.105,249.556,26.906"/>
	<polygon points="253.539,23.387 255.08,23.387 255.08,28.984 258.566,28.984 258.566,30.383 253.539,30.383 	"/>
	<path d="M264.419,26.906v-0.021c0-1.988,1.568-3.618,3.728-3.618s3.708,1.609,3.708,3.599v0.02c0,1.989-1.568,3.618-3.729,3.618
		C265.969,30.503,264.419,28.894,264.419,26.906 M270.246,26.906v-0.021c0-1.199-0.879-2.198-2.119-2.198
		c-1.238,0-2.098,0.979-2.098,2.179v0.02c0,1.199,0.879,2.199,2.118,2.199C269.387,29.084,270.246,28.105,270.246,26.906"/>
	<polygon points="274.229,23.387 279.556,23.387 279.556,24.787 275.769,24.787 275.769,26.276 279.106,26.276 279.106,27.675 
		275.769,27.675 275.769,30.383 274.229,30.383 	"/>
	<polygon points="285.789,23.387 287.448,23.387 289.287,26.346 291.125,23.387 292.786,23.387 292.786,30.383 291.255,30.383 
		291.255,25.816 289.287,28.804 289.247,28.804 287.297,25.846 287.297,30.383 285.789,30.383 	"/>
	<path d="M297.868,23.337h1.419l2.998,7.046h-1.609l-0.639-1.569h-2.959l-0.639,1.569h-1.57L297.868,23.337z M299.487,27.456
		l-0.931-2.27l-0.928,2.27H299.487z"/>
	<polygon points="304.369,23.387 305.788,23.387 309.067,27.695 309.067,23.387 310.585,23.387 310.585,30.383 309.277,30.383 
		305.888,25.936 305.888,30.383 304.369,30.383 	"/>
	<path d="M315.667,23.337h1.42l2.998,7.046h-1.61l-0.64-1.569h-2.957l-0.641,1.569h-1.568L315.667,23.337z M317.287,27.456
		l-0.93-2.27l-0.929,2.27H317.287z"/>
	<path d="M321.408,26.906v-0.021c0-1.988,1.551-3.618,3.668-3.618c1.261,0,2.02,0.34,2.75,0.96l-0.971,1.169
		c-0.54-0.449-1.019-0.709-1.828-0.709c-1.119,0-2.01,0.99-2.01,2.179v0.02c0,1.279,0.88,2.219,2.12,2.219
		c0.56,0,1.06-0.14,1.449-0.42v-0.999h-1.55v-1.329h3.039v3.038c-0.721,0.609-1.709,1.109-2.988,1.109
		C322.908,30.503,321.408,28.974,321.408,26.906"/>
	<polygon points="330.558,23.387 335.834,23.387 335.834,24.756 332.087,24.756 332.087,26.176 335.386,26.176 335.386,27.545 
		332.087,27.545 332.087,29.014 335.886,29.014 335.886,30.383 330.558,30.383 	"/>
	<polygon points="338.259,23.387 339.917,23.387 341.757,26.346 343.595,23.387 345.255,23.387 345.255,30.383 343.726,30.383 
		343.726,25.816 341.757,28.804 341.716,28.804 339.767,25.846 339.767,30.383 338.259,30.383 	"/>
	<polygon points="347.939,23.387 353.214,23.387 353.214,24.756 349.467,24.756 349.467,26.176 352.765,26.176 352.765,27.545 
		349.467,27.545 349.467,29.014 353.265,29.014 353.265,30.383 347.939,30.383 	"/>
	<polygon points="355.638,23.387 357.058,23.387 360.335,27.695 360.335,23.387 361.855,23.387 361.855,30.383 360.546,30.383 
		357.158,25.936 357.158,30.383 355.638,30.383 	"/>
	<polygon points="366.167,24.806 364.039,24.806 364.039,23.387 369.835,23.387 369.835,24.806 367.707,24.806 367.707,30.383 
		366.167,30.383 	"/>
	<path d="M378.417,23.337h1.419l2.999,7.046h-1.609l-0.64-1.569h-2.959l-0.64,1.569h-1.568L378.417,23.337z M380.036,27.456
		l-0.93-2.27l-0.93,2.27H380.036z"/>
	<polygon points="385.647,24.806 383.518,24.806 383.518,23.387 389.315,23.387 389.315,24.806 387.186,24.806 387.186,30.383 
		385.647,30.383 	"/>
	<polygon points="395.498,23.387 396.917,23.387 400.195,27.695 400.195,23.387 401.713,23.387 401.713,30.383 400.405,30.383 
		397.016,25.936 397.016,30.383 395.498,30.383 	"/>
	<path d="M404.087,26.906v-0.021c0-1.988,1.569-3.618,3.729-3.618c2.158,0,3.708,1.609,3.708,3.599v0.02
		c0,1.989-1.569,3.618-3.729,3.618C405.637,30.503,404.087,28.894,404.087,26.906 M409.915,26.906v-0.021
		c0-1.199-0.88-2.198-2.119-2.198s-2.099,0.979-2.099,2.179v0.02c0,1.199,0.88,2.199,2.119,2.199S409.915,28.105,409.915,26.906"/>
	<path d="M413.898,23.387h3.198c0.89,0,1.579,0.25,2.039,0.71c0.39,0.39,0.6,0.939,0.6,1.599v0.021c0,1.129-0.61,1.839-1.5,2.169
		l1.709,2.498h-1.799l-1.499-2.238h-1.209v2.238h-1.539V23.387z M416.996,26.786c0.75,0,1.18-0.4,1.18-0.989v-0.021
		c0-0.659-0.46-0.999-1.209-0.999h-1.529v2.009H416.996z"/>
	<polygon points="423.756,24.806 421.627,24.806 421.627,23.387 427.424,23.387 427.424,24.806 425.295,24.806 425.295,30.383 
		423.756,30.383 	"/>
	<polygon points="429.608,23.387 431.147,23.387 431.147,26.156 433.985,26.156 433.985,23.387 435.524,23.387 435.524,30.383 
		433.985,30.383 433.985,27.574 431.147,27.574 431.147,30.383 429.608,30.383 	"/>
	<polygon points="437.667,23.387 439.317,23.387 440.766,28.125 442.334,23.368 443.654,23.368 445.223,28.125 446.672,23.387 
		448.282,23.387 445.893,30.433 444.554,30.433 442.974,25.856 441.395,30.433 440.056,30.433 	"/>
	<polygon points="450.427,23.387 455.704,23.387 455.704,24.756 451.957,24.756 451.957,26.176 455.254,26.176 455.254,27.545 
		451.957,27.545 451.957,29.014 455.754,29.014 455.754,30.383 450.427,30.383 	"/>
	<path d="M457.647,29.364l0.91-1.089c0.63,0.52,1.289,0.85,2.089,0.85c0.63,0,1.009-0.25,1.009-0.66v-0.02
		c0-0.39-0.239-0.59-1.409-0.89c-1.409-0.36-2.318-0.75-2.318-2.139v-0.021c0-1.269,1.02-2.108,2.449-2.108
		c1.019,0,1.889,0.319,2.598,0.89l-0.799,1.159c-0.62-0.43-1.229-0.689-1.819-0.689s-0.899,0.27-0.899,0.609v0.02
		c0,0.46,0.3,0.61,1.509,0.92c1.42,0.37,2.219,0.88,2.219,2.099v0.021c0,1.389-1.06,2.169-2.568,2.169
		C459.556,30.484,458.487,30.114,457.647,29.364"/>
	<polygon points="467.006,24.806 464.877,24.806 464.877,23.387 470.674,23.387 470.674,24.806 468.545,24.806 468.545,30.383 
		467.006,30.383 	"/>
	<polygon points="472.857,23.387 478.133,23.387 478.133,24.756 474.386,24.756 474.386,26.176 477.684,26.176 477.684,27.545 
		474.386,27.545 474.386,29.014 478.184,29.014 478.184,30.383 472.857,30.383 	"/>
	<path d="M480.557,23.387h3.198c0.89,0,1.579,0.25,2.038,0.71c0.391,0.39,0.601,0.939,0.601,1.599v0.021
		c0,1.129-0.61,1.839-1.5,2.169l1.709,2.498h-1.799l-1.499-2.238h-1.209v2.238h-1.539V23.387z M483.655,26.786
		c0.75,0,1.18-0.4,1.18-0.989v-0.021c0-0.659-0.46-0.999-1.209-0.999h-1.529v2.009H483.655z"/>
	<polygon points="488.788,23.387 490.207,23.387 493.485,27.695 493.485,23.387 495.003,23.387 495.003,30.383 493.695,30.383 
		490.306,25.936 490.306,30.383 488.788,30.383 	"/>
	<path d="M501.577,27.385v-3.998h1.539v3.958c0,1.14,0.57,1.729,1.51,1.729s1.509-0.569,1.509-1.679v-4.008h1.539v3.948
		c0,2.118-1.189,3.158-3.068,3.158S501.577,29.444,501.577,27.385"/>
	<polygon points="510.247,23.387 511.666,23.387 514.944,27.695 514.944,23.387 516.462,23.387 516.462,30.383 515.154,30.383 
		511.765,25.936 511.765,30.383 510.247,30.383 	"/>
	<rect x="519.216" y="23.387" width="1.539" height="6.996"/>
	<polygon points="522.908,23.387 524.606,23.387 526.435,28.315 528.263,23.387 529.923,23.387 527.094,30.433 525.736,30.433 	"/>
	<polygon points="532.007,23.387 537.284,23.387 537.284,24.756 533.537,24.756 533.537,26.176 536.834,26.176 536.834,27.545 
		533.537,27.545 533.537,29.014 537.334,29.014 537.334,30.383 532.007,30.383 	"/>
	<path d="M539.707,23.387h3.198c0.89,0,1.579,0.25,2.039,0.71c0.39,0.39,0.6,0.939,0.6,1.599v0.021c0,1.129-0.61,1.839-1.5,2.169
		l1.709,2.498h-1.799l-1.499-2.238h-1.209v2.238h-1.539V23.387z M542.804,26.786c0.75,0,1.18-0.4,1.18-0.989v-0.021
		c0-0.659-0.46-0.999-1.209-0.999h-1.529v2.009H542.804z"/>
	<path d="M547.457,29.364l0.91-1.089c0.63,0.52,1.289,0.85,2.089,0.85c0.63,0,1.009-0.25,1.009-0.66v-0.02
		c0-0.39-0.238-0.59-1.409-0.89c-1.409-0.36-2.318-0.75-2.318-2.139v-0.021c0-1.269,1.02-2.108,2.449-2.108
		c1.019,0,1.889,0.319,2.598,0.89l-0.799,1.159c-0.62-0.43-1.229-0.689-1.819-0.689s-0.898,0.27-0.898,0.609v0.02
		c0,0.46,0.299,0.61,1.508,0.92c1.42,0.37,2.219,0.88,2.219,2.099v0.021c0,1.389-1.059,2.169-2.568,2.169
		C549.366,30.484,548.296,30.114,547.457,29.364"/>
	<rect x="555.406" y="23.387" width="1.539" height="6.996"/>
	<polygon points="561.326,24.806 559.197,24.806 559.197,23.387 564.994,23.387 564.994,24.806 562.865,24.806 562.865,30.383 
		561.326,30.383 	"/>
	<polygon points="569.146,27.625 566.458,23.387 568.256,23.387 569.925,26.196 571.625,23.387 573.374,23.387 570.685,27.595 
		570.685,30.383 569.146,30.383 	"/>
</g>
</svg>
