<?xml version="1.0" encoding="utf-8"?>
<!-- Generator: Adobe Illustrator 19.2.1, SVG Export Plug-In . SVG Version: 6.00 Build 0)  -->
<svg version="1.1" id="Layer_1" xmlns="http://www.w3.org/2000/svg" xmlns:xlink="http://www.w3.org/1999/xlink" x="0px" y="0px"
	 viewBox="0 0 190.7 135" style="enable-background:new 0 0 190.7 135;" xml:space="preserve">
<style type="text/css">
	.st0{fill:#FFFFFF;stroke:#666666;stroke-miterlimit:10;}
	.st1{fill:none;stroke:#666666;stroke-width:2;stroke-miterlimit:10;}
	.st2{fill:#808080;stroke:#666666;stroke-miterlimit:10;}
	.st3{fill:#E6E6E6;stroke:#666666;stroke-miterlimit:10;}
</style>
<rect x="43.9" y="573.6" class="st0" width="103" height="63.9"/>
<rect x="8.2" y="394.1" class="st0" width="103" height="63.9"/>
<rect x="79.8" y="214.5" class="st0" width="103" height="63.9"/>
<rect x="9.7" y="10.5" class="st0" width="103" height="63.9"/>
<rect x="1" y="1" class="st1" width="188.7" height="133"/>
<polygon class="st2" points="50.6,42.5 50.6,29.6 61.4,36 72.3,42.5 61.4,49 50.6,55.4 "/>
<rect x="118.3" y="10.5" class="st3" width="63.9" height="29.9"/>
<rect x="9.7" y="81.2" class="st3" width="103" height="45.9"/>
<rect x="118.3" y="47.1" class="st3" width="63.9" height="80.1"/>
<rect x="1" y="180.4" class="st1" width="188.7" height="133"/>
<polygon class="st2" points="121.6,246.5 121.6,233.5 131.9,240 142.5,246.5 132.1,252.9 121.6,259.4 "/>
<rect x="8.3" y="188.1" class="st3" width="63.9" height="117.7"/>
<rect x="79.8" y="287" class="st3" width="102.5" height="18.8"/>
<rect x="1" y="359.7" class="st1" width="188.7" height="133"/>
<polygon class="st2" points="50.6,426.1 50.6,413.1 60.6,419.6 71.1,426.1 60.9,432.5 50.6,439 "/>
<rect x="118.3" y="367.4" class="st3" width="63.9" height="117.7"/>
<rect x="8.7" y="367.5" class="st3" width="102.5" height="18.8"/>
<rect x="1" y="539.1" class="st1" width="188.7" height="133"/>
<polygon class="st2" points="84.6,605.6 84.6,592.7 95.1,599.2 105.9,605.6 95.2,612.1 84.6,618.5 "/>
<rect x="7.1" y="548.1" class="st3" width="176.6" height="18.8"/>
<rect x="7.1" y="643.3" class="st3" width="176.6" height="18.8"/>
</svg>
