<?xml version="1.0" encoding="utf-8"?>
<!-- Generator: Adobe Illustrator 19.2.1, SVG Export Plug-In . SVG Version: 6.00 Build 0)  -->
<svg version="1.1" id="Layer_1" xmlns="http://www.w3.org/2000/svg" xmlns:xlink="http://www.w3.org/1999/xlink" x="0px" y="0px"
	 viewBox="0 0 190.7 135" style="enable-background:new 0 0 190.7 135;" xml:space="preserve">
<style type="text/css">
	.st0{fill:#FFFFFF;stroke:#666666;stroke-miterlimit:10;}
	.st1{fill:none;stroke:#666666;stroke-width:2;stroke-miterlimit:10;}
	.st2{fill:#808080;stroke:#666666;stroke-miterlimit:10;}
	.st3{fill:#E6E6E6;stroke:#666666;stroke-miterlimit:10;}
</style>
<rect x="43.9" y="214.9" class="st0" width="103" height="63.9"/>
<rect x="8.2" y="35.4" class="st0" width="103" height="63.9"/>
<rect x="79.8" y="-144.2" class="st0" width="103" height="63.9"/>
<rect x="9.7" y="-348.2" class="st0" width="103" height="63.9"/>
<rect x="1" y="-357.7" class="st1" width="188.7" height="133"/>
<polygon class="st2" points="50.6,-316.2 50.6,-329.2 61.4,-322.7 72.3,-316.2 61.4,-309.8 50.6,-303.3 "/>
<rect x="118.3" y="-348.2" class="st3" width="63.9" height="29.9"/>
<rect x="9.7" y="-277.5" class="st3" width="103" height="45.9"/>
<rect x="118.3" y="-311.7" class="st3" width="63.9" height="80.1"/>
<rect x="1" y="-178.4" class="st1" width="188.7" height="133"/>
<polygon class="st2" points="121.6,-112.3 121.6,-125.2 131.9,-118.7 142.5,-112.3 132.1,-105.8 121.6,-99.4 "/>
<rect x="8.3" y="-170.6" class="st3" width="63.9" height="117.7"/>
<rect x="79.8" y="-71.7" class="st3" width="102.5" height="18.8"/>
<rect x="1" y="1" class="st1" width="188.7" height="133"/>
<polygon class="st2" points="50.6,67.3 50.6,54.4 60.6,60.9 71.1,67.3 60.9,73.8 50.6,80.2 "/>
<rect x="118.3" y="8.7" class="st3" width="63.9" height="117.7"/>
<rect x="8.7" y="8.8" class="st3" width="102.5" height="18.8"/>
<rect x="1" y="180.4" class="st1" width="188.7" height="133"/>
<polygon class="st2" points="84.6,246.9 84.6,234 95.1,240.4 105.9,246.9 95.2,253.3 84.6,259.8 "/>
<rect x="7.1" y="189.4" class="st3" width="176.6" height="18.8"/>
<rect x="7.1" y="284.5" class="st3" width="176.6" height="18.8"/>
</svg>
