<?xml version="1.0" encoding="utf-8"?>
<!-- Generator: Adobe Illustrator 19.2.1, SVG Export Plug-In . SVG Version: 6.00 Build 0)  -->
<svg version="1.1" id="Layer_1" xmlns="http://www.w3.org/2000/svg" xmlns:xlink="http://www.w3.org/1999/xlink" x="0px" y="0px"
	 viewBox="0 0 190.7 135" style="enable-background:new 0 0 190.7 135;" xml:space="preserve">
<style type="text/css">
	.st0{fill:#FFFFFF;stroke:#666666;stroke-miterlimit:10;}
	.st1{fill:none;stroke:#666666;stroke-width:2;stroke-miterlimit:10;}
	.st2{fill:#808080;stroke:#666666;stroke-miterlimit:10;}
	.st3{fill:#E6E6E6;stroke:#666666;stroke-miterlimit:10;}
</style>
<rect x="43.9" y="35.5" class="st0" width="103" height="63.9"/>
<rect x="8.2" y="-144" class="st0" width="103" height="63.9"/>
<rect x="79.8" y="-323.6" class="st0" width="103" height="63.9"/>
<rect x="9.7" y="-527.6" class="st0" width="103" height="63.9"/>
<rect x="1" y="-537.1" class="st1" width="188.7" height="133"/>
<polygon class="st2" points="50.6,-495.6 50.6,-508.5 61.4,-502.1 72.3,-495.6 61.4,-489.1 50.6,-482.7 "/>
<rect x="118.3" y="-527.6" class="st3" width="63.9" height="29.9"/>
<rect x="9.7" y="-456.9" class="st3" width="103" height="45.9"/>
<rect x="118.3" y="-491" class="st3" width="63.9" height="80.1"/>
<rect x="1" y="-357.7" class="st1" width="188.7" height="133"/>
<polygon class="st2" points="121.6,-291.7 121.6,-304.6 131.9,-298.1 142.5,-291.7 132.1,-285.2 121.6,-278.7 "/>
<rect x="8.3" y="-350" class="st3" width="63.9" height="117.7"/>
<rect x="79.8" y="-251.1" class="st3" width="102.5" height="18.8"/>
<rect x="1" y="-178.4" class="st1" width="188.7" height="133"/>
<polygon class="st2" points="50.6,-112 50.6,-125 60.6,-118.5 71.1,-112 60.9,-105.6 50.6,-99.1 "/>
<rect x="118.3" y="-170.7" class="st3" width="63.9" height="117.7"/>
<rect x="8.7" y="-170.6" class="st3" width="102.5" height="18.8"/>
<rect x="1" y="1" class="st1" width="188.7" height="133"/>
<polygon class="st2" points="84.6,67.5 84.6,54.6 95.1,61.1 105.9,67.5 95.2,74 84.6,80.4 "/>
<rect x="7.1" y="10" class="st3" width="176.6" height="18.8"/>
<rect x="7.1" y="105.1" class="st3" width="176.6" height="18.8"/>
</svg>
