<?xml version="1.0" encoding="utf-8"?>
<!-- Generator: Adobe Illustrator 19.2.1, SVG Export Plug-In . SVG Version: 6.00 Build 0)  -->
<svg version="1.1" id="Layer_1" xmlns="http://www.w3.org/2000/svg" xmlns:xlink="http://www.w3.org/1999/xlink" x="0px" y="0px"
	 viewBox="0 0 190.7 135" style="enable-background:new 0 0 190.7 135;" xml:space="preserve">
<style type="text/css">
	.st0{fill:#FFFFFF;stroke:#666666;stroke-miterlimit:10;}
	.st1{fill:none;stroke:#666666;stroke-width:2;stroke-miterlimit:10;}
	.st2{fill:#808080;stroke:#666666;stroke-miterlimit:10;}
	.st3{fill:#E6E6E6;stroke:#666666;stroke-miterlimit:10;}
</style>
<rect x="43.9" y="394.3" class="st0" width="103" height="63.9"/>
<rect x="8.2" y="214.7" class="st0" width="103" height="63.9"/>
<rect x="79.8" y="35.1" class="st0" width="103" height="63.9"/>
<rect x="9.7" y="-168.8" class="st0" width="103" height="63.9"/>
<rect x="1" y="-178.4" class="st1" width="188.7" height="133"/>
<polygon class="st2" points="50.6,-136.9 50.6,-149.8 61.4,-143.3 72.3,-136.9 61.4,-130.4 50.6,-124 "/>
<rect x="118.3" y="-168.8" class="st3" width="63.9" height="29.9"/>
<rect x="9.7" y="-98.1" class="st3" width="103" height="45.9"/>
<rect x="118.3" y="-132.3" class="st3" width="63.9" height="80.1"/>
<rect x="1" y="1" class="st1" width="188.7" height="133"/>
<polygon class="st2" points="121.6,67.1 121.6,54.2 131.9,60.6 142.5,67.1 132.1,73.5 121.6,80 "/>
<rect x="8.3" y="8.7" class="st3" width="63.9" height="117.7"/>
<rect x="79.8" y="107.7" class="st3" width="102.5" height="18.8"/>
<rect x="1" y="180.4" class="st1" width="188.7" height="133"/>
<polygon class="st2" points="50.6,246.7 50.6,233.8 60.6,240.2 71.1,246.7 60.9,253.1 50.6,259.6 "/>
<rect x="118.3" y="188" class="st3" width="63.9" height="117.7"/>
<rect x="8.7" y="188.1" class="st3" width="102.5" height="18.8"/>
<rect x="1" y="359.7" class="st1" width="188.7" height="133"/>
<polygon class="st2" points="84.6,426.2 84.6,413.3 95.1,419.8 105.9,426.2 95.2,432.7 84.6,439.2 "/>
<rect x="7.1" y="368.8" class="st3" width="176.6" height="18.8"/>
<rect x="7.1" y="463.9" class="st3" width="176.6" height="18.8"/>
</svg>
