<?xml version="1.0" encoding="utf-8"?>
<!-- Generator: Adobe Illustrator 15.0.0, SVG Export Plug-In . SVG Version: 6.00 Build 0)  -->
<!DOCTYPE svg PUBLIC "-//W3C//DTD SVG 1.1//EN" "http://www.w3.org/Graphics/SVG/1.1/DTD/svg11.dtd">
<svg version="1.1" id="Layer_1" xmlns="http://www.w3.org/2000/svg" xmlns:xlink="http://www.w3.org/1999/xlink" x="0px" y="0px"
	 width="230.277px" height="43.295px" viewBox="0 0 230.277 43.295" enable-background="new 0 0 230.277 43.295"
	 xml:space="preserve">
<g>
	<g>
		<path fill="#005596" d="M0,30.877c2.973,0,3.836-0.528,4.124-4.699L5.275,8.534c0.287-4.267-0.241-4.891-3.021-4.891V2.35h8.87
			l10.356,22.198L31.26,2.35h8.87v1.294c-2.684,0-3.26,0.575-3.068,2.781l1.726,21.815c0.192,2.447,1.103,2.637,3.932,2.637v1.294
			H29.104v-1.294c3.932,0,4.602-0.96,4.219-6.041L32.028,7.145h-0.096L20.856,32.171h-1.629L7.958,7.768H7.863L6.712,25.507
			c-0.334,5.132,0.768,5.132,3.933,5.37v1.294H0V30.877z"/>
		<path fill="#005596" d="M43.966,13.856l7.24-2.014h1.054v15.198c0,3.164,0.672,3.933,3.5,3.933v1.197H43.966v-1.197
			c2.685,0.097,3.74-0.814,3.74-3.404V16.83c0-1.008-0.096-1.439-3.74-1.919V13.856z M49.72,1.103c1.725,0,2.924,1.007,2.924,2.493
			c0,1.535-1.247,2.59-3.068,2.59c-1.726,0-2.925-1.007-2.925-2.542C46.651,2.109,47.85,1.103,49.72,1.103z"/>
		<path fill="#005596" d="M72.635,29.631c-2.922,1.966-5.176,3.067-7.957,3.067c-4.219,0-7.575-4.075-7.575-9.3
			c0-6.28,4.938-11.029,11.411-11.029c1.344,0,2.827,0.193,4.121,0.528V5.849c0-1.677-0.62-2.684-3.164-2.637V2.014L75.993,0h1.199
			v27.378c0,1.103,0.383,1.533,1.341,1.533c0.097,0,1.056-0.095,1.87-0.383v1.103l-6.566,3.116h-1.202V29.631z M72.635,17.835
			c-1.819-2.493-3.402-3.547-5.418-3.547c-3.258,0-5.32,2.876-5.32,7.383c0,4.987,2.253,8.439,5.611,8.439
			c1.438,0,2.636-0.431,5.127-1.87V17.835z"/>
		<path fill="#005596" d="M97.617,29.631c-2.925,1.966-5.181,3.067-7.96,3.067c-4.219,0-7.575-4.075-7.575-9.3
			c0-6.28,4.937-11.029,11.411-11.029c1.343,0,2.83,0.193,4.124,0.528V5.849c0-1.677-0.625-2.684-3.165-2.637V2.014L100.971,0h1.201
			v27.378c0,1.103,0.384,1.533,1.343,1.533c0.095,0,1.055-0.095,1.87-0.383v1.103l-6.57,3.116h-1.197V29.631z M97.617,17.835
			c-1.822-2.493-3.404-3.547-5.418-3.547c-3.262,0-5.321,2.876-5.321,7.383c0,4.987,2.251,8.439,5.607,8.439
			c1.439,0,2.639-0.431,5.132-1.87V17.835z"/>
		<path fill="#005596" d="M106.869,2.014L113.726,0h1.389v27.426c0,2.733,0.72,3.548,3.646,3.548v1.197h-11.892v-1.197
			c3.02,0,3.692-0.96,3.692-3.885V6.233c0-2.206-0.193-2.734-3.692-3.021V2.014z"/>
		<path fill="#005596" d="M138.226,27.426c-2.396,3.596-5.561,5.272-9.733,5.272c-6.712,0-8.917-5.176-8.917-9.639
			c0-6.229,4.173-10.69,9.925-10.69c2.588,0,4.65,0.863,5.946,2.156c2.205,2.208,1.343,4.461,3.02,5.181v1.343h-14.335
			c0,5.321,2.923,8.868,7.144,8.868c2.062,0,4.026-1.101,6.038-3.354L138.226,27.426z M132.951,19.706
			c-0.383-3.979-1.822-6.041-4.268-6.041c-2.541,0-4.073,2.014-4.553,6.041H132.951z"/>
		<path fill="#005596" d="M142.545,5.609c0-1.629-0.719-2.397-3.164-2.397V2.014L145.71,0h1.391v15.63
			c3.785-2.541,5.513-3.261,7.575-3.261c4.41,0,7.862,4.124,7.862,9.351c0,5.464-3.787,10.979-12.704,10.979
			c-1.104,0-2.207-0.097-3.455-0.191c-1.197-0.095-2.442-0.288-3.834-0.525V5.609z M147.101,24.358c0,3.785,0.718,6.807,4.793,6.807
			c3.597,0,5.85-3.021,5.85-7.577c0-4.458-2.06-8.246-5.704-8.246c-1.391,0-2.685,0.48-4.938,1.917V24.358z"/>
		<path fill="#005596" d="M181.77,32.698h-1.103v-3.644c-4.315,2.83-6.232,3.644-8.391,3.644c-3.499,0-5.128-2.493-5.128-6.184
			V17.98c0-2.447-0.097-2.544-2.976-3.116v-1.056l6.329-1.439h1.199v12.85c0,2.59,0.911,4.556,3.691,4.556
			c1.344,0,2.781-0.672,5.274-2.396v-9.831c0-2.014-0.288-2.444-4.124-2.876v-1.15l7.48-1.151h1.199v15.248
			c0,1.966,0.191,2.3,1.199,2.3c0.479,0,1.008-0.095,2.014-0.286v1.197L181.77,32.698z"/>
		<path fill="#005596" d="M189.393,15.437v-0.957l6.567-2.11h1.199v4.795h0.095c1.87-3.547,2.975-4.795,4.269-4.795
			c0.718,0,1.629,0.624,4.507,1.201l-1.582,3.931c-2.158-0.432-3.549-1.343-4.17-1.343c-1.104,0-2.112,1.006-3.118,3.068v7.957
			c0,3.455,0.864,3.838,4.795,3.79v1.197h-12.562v-1.197c2.205,0,3.213-0.769,3.213-3.596V16.636L189.393,15.437z"/>
		<path fill="#005596" d="M210.956,17.452c-1.487-3.067-1.822-3.31-4.171-3.357v-1.198h11.218v1.198
			c-2.157,0-2.778,0.431-2.778,1.342c0,0.528,0.189,1.008,0.67,2.016l4.507,9.397l3.358-7.479c0.766-1.681,1.056-2.735,1.056-3.452
			c0-1.394-0.911-1.824-3.023-1.824v-1.198h8.485v1.198c-1.914,0.097-2.732,0.913-4.026,3.789l-8.772,19.61
			c-1.775,3.98-3.31,5.801-5.323,5.801c-1.438,0-2.542-1.054-2.542-2.445c0-3.067,3.741-1.821,5.611-3.692
			c0.479-0.479,1.197-1.197,2.778-4.986L210.956,17.452z"/>
	</g>
</g>
</svg>
