<?xml version="1.0" encoding="utf-8"?>
<!-- Generator: Adobe Illustrator 16.0.0, SVG Export Plug-In . SVG Version: 6.00 Build 0)  -->
<!DOCTYPE svg PUBLIC "-//W3C//DTD SVG 1.1//EN" "http://www.w3.org/Graphics/SVG/1.1/DTD/svg11.dtd">
<svg xmlns:xlink="http://www.w3.org/1999/xlink" version="1.1" id="Layer_1" xmlns="http://www.w3.org/2000/svg" x="0px" y="0px"
	 width="320px" height="132px" viewBox="0 0 320 132" enable-background="new 0 0 320 132" xml:space="preserve">
<g>
	<path fill-rule="evenodd" clip-rule="evenodd" fill="#5A5A5A" d="M69.168,83.261c1.029,1.227,2.34,2.192,3.822,2.812
		c0.013-0.69,0.1-1.384,0.262-2.068C71.428,83.639,71.197,83.263,69.168,83.261L69.168,83.261z M67.224,83.258
		c0.286,0.001,3.08,3.278,5.824,4.087c0.078,0.7,0.23,1.39,0.456,2.057c-0.316-0.104-0.629-0.224-0.937-0.359
		C70.05,87.926,68.125,85.825,67.224,83.258L67.224,83.258z M43.947,31.599c2.28-1.061,4.768-1.552,7.253-1.451
		c0.87,0.421,1.726,0.887,2.562,1.398c5.786,3.539,14.96,17.849,13.358,25.146c-1.936-9.173-7.656-17.259-15.968-22.031
		C48.848,33.338,46.428,32.319,43.947,31.599L43.947,31.599z M69.69,51.312c0.618-0.953,1.337-1.831,2.141-2.62
		c-0.797,0.083-1.523-0.428-1.256-1.449c0.152-0.584,0.692-0.979,1.29-0.943c-0.312,0.123-0.534,0.406-0.581,0.74
		c-0.191,1.342,1.394,0.853,1.324-0.397c-0.033-0.61-0.504-1.103-1.106-1.158C67.737,45.735,69.264,49.025,69.69,51.312
		L69.69,51.312z M71.498,95.304c-0.812-0.915-1.257-2.121-1.208-3.372c-2.085-1.515-3.884-3.416-5.289-5.618
		c1.392,2.237,2.068,4.822,1.976,7.416C68.282,94.744,69.875,95.288,71.498,95.304L71.498,95.304z M62.332,98.5
		c2.26-2.971,3.039-6.94,1.834-10.688c1.42,2.305,1.981,5.036,1.587,7.714c-0.202,1.801-0.772,3.52-1.656,5.061
		C63.307,100.084,62.693,99.355,62.332,98.5L62.332,98.5z M35.837,99.586c9.28-1.021,18.149-5.028,25.143-11.681
		c-2.849,7.868-10.711,12.766-19.029,11.854c-2.487,1.75-5.3,2.943-8.247,3.521C34.079,101.892,34.812,100.616,35.837,99.586
		L35.837,99.586z M33.57,103.854c-0.047,0.235-0.083,0.473-0.108,0.713c1.552-0.178,3.05-0.484,4.293-1.202
		c0.571,0.52,1.113,1.188,1.588,1.875c1.08-0.208,2.15-0.46,3.21-0.755c1.007-1.024,1.816-2.233,2.382-3.567
		c-0.817,0.014-1.645-0.023-2.475-0.114C39.766,102.537,36.712,103.571,33.57,103.854L33.57,103.854z M60.454,96.431
		c0.034,1.247-0.112,2.48-0.427,3.665c2.538-3.113,3.85-7.085,3.625-11.151C63.097,91.692,61.99,94.226,60.454,96.431L60.454,96.431
		z M55.771,97.457c-0.887,0.608-1.823,1.146-2.799,1.602c-1.242,2.145-2.904,3.991-4.867,5.443c1.767-0.538,3.434-1.29,4.974-2.225
		C54.111,100.752,55.012,99.14,55.771,97.457L55.771,97.457z M54.345,101.448c4.558-3.215,7.812-8.114,8.899-13.792
		c-1.18,3.402-3.218,6.308-5.811,8.525C56.576,98.037,55.54,99.8,54.345,101.448L54.345,101.448z M44.512,103.884
		c2.566-0.857,5.364-1.73,6.835-4.151c-1.513,0.552-3.103,0.92-4.736,1.087C46.049,101.938,45.341,102.967,44.512,103.884
		L44.512,103.884z M41.938,105.065c-0.571,0.502-1.195,0.949-1.864,1.332c-0.175-0.303-0.368-0.616-0.576-0.928
		C40.314,105.357,41.128,105.222,41.938,105.065L41.938,105.065z M14.575,86.013c0.979,0.119,1.98,0.124,2.987,0.006
		c0.891,2.298,2.497,4.125,4.475,5.311c-0.406,0.084-0.814,0.153-1.226,0.209C18.562,89.885,16.475,88.035,14.575,86.013
		L14.575,86.013z M22.319,92.599c0.472-0.122,0.938-0.272,1.397-0.452c2.067,0.793,4.393,0.951,6.672,0.323
		c0.118,0.932,0.409,1.812,0.841,2.604c-0.989,0.372-2.004,0.664-3.033,0.879C26.143,94.976,24.18,93.853,22.319,92.599
		L22.319,92.599z M75.462,58.157c3.969-0.967,9.046,0.611,10.486,4.188c0.832,2.066,0.47,4.427-0.942,6.141
		c-1.411,1.715-3.644,2.505-5.806,2.057c2.044,0.354,4.113-0.476,5.359-2.15c1.246-1.676,1.459-3.914,0.553-5.798
		c-0.907-1.885-2.781-3.098-4.855-3.144c2.009,0.764,3.245,2.81,2.999,4.963c-0.245,2.153-1.909,3.861-4.037,4.144
		c-2.127,0.283-4.173-0.932-4.962-2.947c0.58,1.497,1.976,2.512,3.565,2.592c1.589,0.081,3.078-0.787,3.804-2.218
		c0.726-1.431,0.554-3.158-0.44-4.414c-0.999-1.618-2.712-2.648-4.598-2.764c-1.885-0.116-3.709,0.696-4.896,2.18
		c1.177-0.469,2.51-0.289,3.524,0.475c1.014,0.765,1.563,2.004,1.453,3.277c-0.308-1.478-1.425-2.65-2.876-3.015
		c-6.146-1.547-7.343,10.08-6.724,13.275c0.123,0.439,0.272,0.874,0.446,1.302c1.369,3.354,4.175,5.912,7.641,6.967
		c0.775,0.079,1.562,0.079,2.351-0.002c3.155-0.327,6.035-1.947,7.954-4.474c-1.821,2.869-4.796,4.808-8.157,5.313
		c-1.047,0.157-2.099,0.171-3.129,0.048c-0.217,0.728-0.35,1.469-0.399,2.212c0.274,0.089,0.555,0.167,0.84,0.231
		c2.874,0.661,5.894,0.026,8.258-1.737c-2.281,2.266-5.517,3.29-8.686,2.75c-0.143-0.024-0.284-0.052-0.425-0.081
		c0.033,0.688,0.137,1.373,0.309,2.042c2.483,0.65,5.146,0.317,7.415-0.97c-2.085,1.479-4.626,2.132-7.14,1.864
		c0.336,0.936,0.812,1.828,1.424,2.644c-0.781-0.801-1.406-1.716-1.864-2.699c-0.272-0.041-0.545-0.092-0.815-0.155
		c-2.905-0.673-5.385-2.559-6.812-5.178c1.921,4.224,5.254,7.646,9.425,9.678c-1.704-0.588-3.311-1.392-4.788-2.383
		c0.002,1.057,0.333,2.078,0.934,2.928c0.776-0.028,1.555-0.178,2.308-0.455c-0.687,0.326-1.405,0.554-2.137,0.684
		c0.251,0.315,0.541,0.604,0.868,0.856c-0.424-0.218-0.805-0.493-1.137-0.813c-0.835,0.12-1.682,0.114-2.513-0.017
		c0.456,1.189,1.423,2.127,2.651,2.537c-1.564-0.239-2.884-1.271-3.497-2.716c-0.514-0.136-1.017-0.322-1.502-0.557
		c-0.061,0.504-0.149,1.007-0.27,1.506c-0.12,0.501-0.269,0.992-0.444,1.471c0.528,1.096,1.537,1.9,2.749,2.159
		c-1.221,0.113-2.383-0.484-3.008-1.51c-0.364,0.85-0.815,1.656-1.346,2.406c1.054,0.505,2.265,0.589,3.384,0.229
		c-1.195,0.464-2.469,0.466-3.61,0.082c-0.999,1.33-2.253,2.473-3.705,3.352c1.297-0.982,2.385-2.186,3.225-3.54
		c-0.836-0.375-1.579-0.967-2.137-1.745c-0.582,0.649-1.241,1.239-1.973,1.754c-0.642,1.869-1.712,3.587-3.153,5.005
		c1.204-1.322,2.056-2.898,2.512-4.585c-0.222,0.135-0.448,0.264-0.681,0.386c0.269-0.247,0.527-0.502,0.776-0.765
		c0.25-1.072,0.342-2.185,0.264-3.302c-0.729,0.886-1.531,1.705-2.398,2.452c-0.772,1.342-0.997,2.956-0.577,4.491
		c-1.141,0.827-2.431,1.424-3.8,1.758c1.148-0.536,2.202-1.257,3.119-2.131c-0.204-1.101-0.125-2.23,0.222-3.284
		c-0.834,0.627-1.719,1.191-2.646,1.684c-1.277,1.586-2.709,3.051-4.28,4.37c1.222-1.214,2.34-2.52,3.348-3.905
		c-1.435,0.669-2.962,1.174-4.557,1.491c-1.643,1.181-3.489,2.087-5.472,2.663c2.331-0.942,4.428-2.341,6.179-4.093
		c-1.599,0.581-3.228,1.068-4.878,1.461c-1.113,1.047-2.401,1.911-3.819,2.546c-0.272-0.601-0.617-1.163-1.023-1.676
		c-1.401,0.172-2.812,0.277-4.228,0.315c1.366-0.102,2.724-0.272,4.068-0.51c-0.39-0.461-0.831-0.879-1.317-1.244
		c-1.289,0.475-2.631,0.775-3.988,0.896c-0.015,0.271-0.017,0.545-0.004,0.818c-0.109-0.262-0.2-0.527-0.271-0.796
		c-1.14,0.081-2.289,0.037-3.428-0.135c1.08-0.109,2.216-0.169,3.332-0.281c-0.045-0.237-0.076-0.475-0.093-0.714
		c-1.473,0.088-2.961,0.01-4.437-0.24c1.487,0.071,2.968-0.012,4.421-0.243c0.011-1.317,0.447-2.614,1.271-3.681
		c-0.532,0.039-1.064,0.067-1.598,0.087c-2.312,0.772-4.468,1.958-6.364,3.504c-1.875-1.881-4.136-3.333-6.626-4.256
		c2.511,0.429,4.834,1.606,6.664,3.38c1.102-1.107,2.398-1.992,3.82-2.613c-3.964-0.09-7.948-0.723-11.842-1.93
		c5.761,1.429,11.644,1.635,17.312,0.719c-1.519-0.461-2.818-1.387-3.745-2.605c-1.475,0.516-3.001,0.854-4.546,1.012l-0.001,0.001
		h-0.001c-4.115,0.421-8.362-0.439-12.109-2.646c3.362,1.604,7.005,2.226,10.557,1.926c-1.902-0.943-3.703-2.074-5.375-3.373
		c-3.046,0.276-6.146-0.594-8.644-2.548c2.282,0.925,4.713,1.36,7.14,1.302c-0.982-0.866-1.913-1.794-2.785-2.779
		c-1.131-1.017-2.197-2.095-3.194-3.226c-3.156-0.832-5.935-2.872-7.657-5.786c1.645,2.197,3.946,3.71,6.485,4.394
		c-4.294-5.352-7.132-11.77-8.175-18.627c1.736,7.087,5.123,13.556,9.778,18.943c1.512,0.192,3.072,0.099,4.604-0.309
		c2.617,5.123,8.361,7.837,13.981,6.605c0.219,1.198,0.653,2.32,1.266,3.324c1.778-0.887,3.447-2.04,4.941-3.453
		c7.66,1.113,15.359-1.748,20.434-7.594c2.578-2.52,3.811-6.111,3.322-9.683c-0.142-1.038-0.424-2.038-0.83-2.979
		c-1.602-3.396-4.623-5.877-8.189-6.798c-2.866-0.713-5.876,0.379-7.638,2.772c-1.767,2.399-1.931,5.638-0.414,8.207
		c1.516,2.569,4.414,3.965,7.345,3.538c-3.2,0.653-6.47-0.736-8.242-3.505s-1.687-6.351,0.217-9.029
		c0.474-0.666,1.035-1.242,1.661-1.72c-2.482,0.841-4.625,2.448-6.143,4.559c-0.306,1.929-0.05,3.925,0.762,5.735
		c1.127,2.515,3.228,4.452,5.811,5.356c-4.316-0.951-7.424-4.61-7.832-8.905c-2.565,5.702,1.573,11.542,7.562,11.933
		c4.608,0.301,8.715-2.921,9.564-7.505c-0.289,3.73-2.652,6.97-6.096,8.353c-3.442,1.384-7.363,0.669-10.11-1.842
		s-3.841-6.38-2.821-9.978c1.555-5.185,5.976-8.969,11.296-9.668c3.009-0.395,5.989,0.238,8.521,1.696
		c-20.171-15.004-22.118,11.36-39.062,6.412C10.642,68.217,6.8,61.973,7.704,55.21c-0.101,2.26,0.358,4.44,1.267,6.385
		c-0.022-0.451,0.073-0.913,0.3-1.336c0.628-1.178,2.289-1.822,3.498-1.274s2.006,1.805,1.104,3.357
		c0.992-2.357-1.678-4.183-3.417-2.8c-2.784,2.212,1.84,6.874,3.884,8.033c0.855,0.485,1.8,0.88,2.825,1.199
		c3.318,1.031,6.79,0.703,9.759-0.735c-3.566,0.312-7.142-1.045-9.628-3.784c4.515,3.542,11.039,4.659,14.726-0.533
		c-2.67,0.879-5.563,0.989-8.345,0.266c-8.481-2.206-14.798-12.843-6.391-18.638c3.322-2.29,7.532-1.783,10.821,0.562
		c7.244,5.164,5.438,14.393-5.497,14.548c-3.322,0.047-5.022-4.479-2.823-8.55c0.579-1.072,1.438-2.134,2.971-2.911
		c1.766-0.565,3.687,0.178,4.613,1.783c0.926,1.605,0.609,3.64-0.763,4.887c0.928-1.021,1.17-2.49,0.618-3.754
		c-0.552-1.264-1.794-2.086-3.173-2.1c-4.211-0.042-6.074,8.411-1.479,9.162c4.695,0.768,14.186-5.156,4.193-12.559
		c-2.808-1.968-6.545-1.908-9.288,0.15c-7.39,5.543-0.976,14.631,6.337,16.651c10.556,2.916,13.042-6.602,24.082-5.163
		c-2.732-1.232-12.47-6.727-14.033-8.514c2.095,1.511,4.447,2.611,6.935,3.25c-1.892-2.16-3.356-4.729-4.249-7.584
		c2.806,5.936,7.869,10.439,13.993,12.521c-0.239-0.352-0.47-0.71-0.691-1.076c-1.081-2.516-0.318-5.453,1.847-7.109
		c2.164-1.657,5.17-1.604,7.276,0.127c-1.63-0.988-3.646-0.958-5.303-0.016c-7.187,4.086,1.837,10.736,5.314,12.217l4.349,2.323
		c-0.036-2.04,0.227-3.913,0.56-5.691c2.239-11.979-10.604-5.839-4.727-0.635c-1.302-0.843-2.047-2.333-1.945-3.891
		c0.1-1.558,1.03-2.938,2.429-3.603c0.98-0.466,2.082-0.529,3.085-0.211c-0.491-0.967-1.028-1.911-1.61-2.828
		c-8.994-3.586-16.854,8.732-23.086-4.659c7.437,11.145,12.766,0.75,21.639,2.556c-0.09-0.121-0.18-0.241-0.271-0.36
		c-2.805-2.237-6.039-3.75-9.433-4.494c-1.329,0.087-2.608,0.734-3.474,1.869c-0.442,0.627-0.445,1.468-0.009,2.098
		c0.438,0.631,1.22,0.916,1.955,0.711c0.626-0.104,1.075-0.665,1.045-1.305c-0.03-0.64-0.53-1.155-1.163-1.198
		c0.658-0.07,1.3,0.23,1.674,0.782c0.372,0.551,0.415,1.264,0.112,1.857c-0.742,1.01-2.049,1.414-3.224,0.997
		c-1.175-0.416-1.943-1.557-1.897-2.814c0.097-1.356,0.841-2.58,1.994-3.282c0.084-0.051,0.169-0.099,0.255-0.143
		c-3.508-0.334-7.105,0.138-10.515,1.468c6.033-3.229,13.171-3.328,19.229-0.402c-1.452-1.39-3.037-2.661-4.748-3.79l-0.113-0.074
		c-2.479-0.88-5.043-1.444-7.632-1.693c-2.642,2.57-4.664,3.725-8.561,1.965c3.109,0.879,5.253,0.277,7.234-2.065
		c-4.415-0.239-8.876,0.439-13.095,2.044c5.601-3.164,12.145-3.983,18.258-2.398c-6.71-4.091-18.947-3.859-20.294,2.415
		c-0.641,2.983,1.878,9.352,5.628,6.245c1.633-1.353,1.578-4.876-0.415-4.876c-0.669,0-1.243,0.484-1.362,1.149
		c-0.023,0.6,0.224,1.178,0.672,1.572c0.448,0.394,1.049,0.563,1.634,0.458c-0.711,0.515-1.663,0.53-2.391,0.041
		c-0.728-0.489-1.079-1.383-0.883-2.244c0.179-0.807,0.757-1.464,1.528-1.74c0.772-0.275,1.631-0.129,2.271,0.386
		c2.732,2.35,0.596,6.962-2.835,6.868c-2.396-0.067-4.285-1.532-4.691-3.883c-0.294,0.557-0.739,1.033-1.308,1.362
		c-1.241,0.719-2.795,0.575-3.887-0.36c-0.684-0.599-0.886-1.587-0.492-2.411c0.395-0.823,1.287-1.278,2.177-1.109
		c0.417,0.075,0.758,0.38,0.879,0.791c0.122,0.411,0.005,0.855-0.304,1.148c-0.31,0.294-0.756,0.388-1.154,0.241
		c0.363,0.07,0.718-0.156,0.81-0.518c0.093-0.361-0.109-0.733-0.462-0.848c-0.552,0.048-1.019,0.435-1.172,0.974
		s0.038,1.117,0.482,1.454c1.354,0.464,2.851,0.087,3.83-0.963c0.192-0.207,0.357-0.431,0.495-0.669
		c-0.552-3.402,0.364-4.794,1.387-6.306c-12.728,2.668-15.768,9.349-18.88,18.958c3.101-16.968,12.501-18.822,21.284-21.323
		c-4.678,0.415-9.296,1.82-13.537,4.227c8.129-5.568,18.152-7.115,27.36-4.533c1.597-1.249,3.491-2.028,5.476-2.27
		c-7.755-3.053-16.515-2.718-24.107,1.097c18.285-9.533,34.511-2.708,42.595,14.274c-0.2-1.636-0.555-3.238-1.054-4.787
		c-0.073-0.188-0.136-0.376-0.189-0.566c-1.729-4.969-8.119-14.577-19.174-14.577c11.568,0,17.073,7.802,19.059,11.812
		c0.323-1.668,1.346-3.176,2.906-4.062c-1.418,1.62-2.159,3.692-2.136,5.794c0.937,2.365,1.48,4.896,1.585,7.491
		c0.037-0.046,0.074-0.09,0.114-0.134c0.891-0.987,2.313-1.273,3.51-0.706c0.926,0.377,1.428,1.394,1.167,2.368
		c-0.008,0.032-0.018,0.063-0.027,0.094c1.812-1.356,3.78-2.225,4.155-4.31c0.301-1.674-0.193-3.519-2.049-3.901
		c-0.251-0.052-0.505-0.068-0.755-0.049c-0.504,0.038-0.994,0.214-1.412,0.52c-0.692,0.44-0.958,1.327-0.624,2.081
		c0.334,0.754,1.166,1.145,1.952,0.917c0.494-0.195,0.803-0.696,0.759-1.23c-0.045-0.535-0.432-0.976-0.952-1.085
		c0.724,0.047,1.339,0.555,1.528,1.262c0.189,0.707-0.087,1.458-0.689,1.868c-0.601,0.41-1.395,0.388-1.973-0.055
		c-1.248-0.696-1.758-2.242-1.173-3.555c0.585-1.312,2.224-1.929,3.562-1.448c1.65,0.709,2.835,2.392,2.886,4.207
		c0.124,4.359-5.902,5.154-8.643,10.52c0.015,0.118,0.028,0.237,0.043,0.356c0.904-1.873,2.375-3.421,4.203-4.46
		c2.467-1.401,5.395-1.662,8.071-0.735c-2.777-0.737-5.736-0.151-8.031,1.592c-2.06,1.564-3.382,3.905-3.684,6.463
		c3.812-1.528,5.446-3.906,5.739-6.57c0.006,3.297-1.391,6.438-3.834,8.624c4.008-2.011,13.021-4.641,10.946-10.714
		C85.661,53.904,80.409,55.964,75.462,58.157L75.462,58.157L75.462,58.157z M33.834,95.196c1.041,1.318,2.418,2.361,4.014,3.001
		c8.455-1.832,16.319-6.188,22.437-12.727c-5.523,5.914-13.798,8.403-21.667,6.518C37.159,93.308,35.545,94.379,33.834,95.196z"/>
	<path fill-rule="evenodd" clip-rule="evenodd" fill="#DC6026" d="M170.624,67.624v4.327h11.984c1.052,0,2.085-0.248,2.085-1.48
		v-1.366c0-1.233-1.033-1.48-2.085-1.48H170.624L170.624,67.624z M180.004,75.133h-9.38v8.244h-3.943V64.441h15.928
		c0.909,0,1.868,0.077,2.742,0.338c0.678,0.201,1.339,0.503,1.881,0.963c0.481,0.409,0.848,0.906,1.075,1.496
		c0.234,0.604,0.33,1.247,0.33,1.893v1.313c0,1.171-0.327,2.244-1.105,3.129c-0.822,0.935-2.123,1.316-3.335,1.47l4.379,8.335
		h-4.239L180.004,75.133z"/>
	<path fill-rule="evenodd" clip-rule="evenodd" fill="#DC6026" d="M194.41,67.624v4.327h11.983c1.052,0,2.085-0.248,2.085-1.48
		v-1.366c0-1.233-1.033-1.48-2.085-1.48H194.41L194.41,67.624z M203.789,75.133h-9.379v8.244h-3.943V64.441h15.927
		c0.909,0,1.868,0.077,2.743,0.338c0.677,0.201,1.339,0.503,1.88,0.963c0.482,0.409,0.848,0.906,1.075,1.496
		c0.234,0.604,0.331,1.247,0.331,1.893v1.313c0,1.171-0.328,2.244-1.106,3.129c-0.822,0.935-2.123,1.316-3.335,1.47l4.379,8.335
		h-4.238L203.789,75.133z"/>
	<polygon fill-rule="evenodd" clip-rule="evenodd" fill="#DC6026" points="151.362,68.68 141.798,83.377 137.368,83.377
		149.957,64.441 152.746,64.441 165.255,83.377 160.772,83.377 	"/>
	<polygon fill-rule="evenodd" clip-rule="evenodd" fill="#DC6026" points="227.44,68.68 217.875,83.377 213.445,83.377
		226.034,64.441 228.823,64.441 241.332,83.377 236.85,83.377 	"/>
	<path fill-rule="evenodd" clip-rule="evenodd" fill="#DC6026" d="M242.307,83.377v-3.182h16.296c1.051,0,2.084-0.248,2.084-1.481
		v-2.337c0-1.233-1.033-1.48-2.084-1.48h-10.871c-0.909,0-1.868-0.077-2.743-0.338c-0.676-0.201-1.338-0.503-1.88-0.963
		c-0.481-0.409-0.848-0.906-1.075-1.496c-0.234-0.604-0.33-1.246-0.33-1.893V69.13c0-0.646,0.096-1.288,0.33-1.893
		c0.228-0.59,0.594-1.087,1.075-1.496c0.542-0.46,1.204-0.762,1.88-0.963c0.875-0.261,1.834-0.338,2.743-0.338h15.875v3.183h-15.875
		c-1.052,0-2.085,0.247-2.085,1.48v1.129c0,1.234,1.033,1.481,2.085,1.481h10.871c0.908,0,1.867,0.077,2.742,0.338
		c0.677,0.201,1.339,0.504,1.88,0.963c0.482,0.409,0.848,0.906,1.076,1.496c0.234,0.604,0.33,1.246,0.33,1.893v2.284
		c0,0.646-0.096,1.289-0.33,1.894c-0.229,0.589-0.594,1.087-1.076,1.495c-0.541,0.46-1.203,0.762-1.88,0.964
		c-0.875,0.261-1.834,0.337-2.742,0.337H242.307z"/>
	<polygon fill-rule="evenodd" clip-rule="evenodd" fill="#DC6026" points="277.152,75.741 264.933,64.441 270.062,64.441
		279.11,72.814 288.16,64.441 293.233,64.441 281.096,75.741 281.096,83.377 277.152,83.377 	"/>
	<path fill-rule="evenodd" clip-rule="evenodd" fill="#DC6026" d="M294.141,83.377v-3.182h16.295c1.052,0,2.085-0.248,2.085-1.481
		v-2.337c0-1.233-1.033-1.48-2.085-1.48h-10.87c-0.91,0-1.869-0.077-2.743-0.338c-0.677-0.201-1.339-0.503-1.88-0.963
		c-0.482-0.409-0.848-0.906-1.076-1.496c-0.233-0.604-0.33-1.246-0.33-1.893V69.13c0-0.646,0.097-1.288,0.33-1.893
		c0.229-0.59,0.594-1.087,1.076-1.496c0.541-0.46,1.203-0.762,1.88-0.963c0.874-0.261,1.833-0.338,2.743-0.338h15.874v3.183h-15.874
		c-1.052,0-2.085,0.247-2.085,1.48v1.129c0,1.234,1.033,1.481,2.085,1.481h10.87c0.909,0,1.868,0.077,2.743,0.338
		c0.677,0.201,1.338,0.504,1.88,0.963c0.482,0.409,0.848,0.906,1.075,1.496c0.234,0.604,0.331,1.246,0.331,1.893v2.284
		c0,0.646-0.097,1.289-0.331,1.894c-0.228,0.589-0.593,1.087-1.075,1.495c-0.542,0.46-1.203,0.762-1.88,0.964
		c-0.875,0.261-1.834,0.337-2.743,0.337H294.141z"/>
	<polygon fill-rule="evenodd" clip-rule="evenodd" fill="#DC6026" points="133.352,83.377 107.712,64.102 107.712,83.377
		103.752,83.377 103.752,58.615 107.678,58.615 131.61,77.011 131.61,58.615 135.57,58.615 135.57,83.377 	"/>
	<path fill-rule="evenodd" clip-rule="evenodd" fill="#5A5A5A" d="M120.556,99.352v-2.958h-5.325v2.958h-1.229v-6.508h1.229v2.588
		h5.325v-2.588h1.229v6.508H120.556L120.556,99.352z M124.455,99.352v-6.508h6.691v0.961h-5.462v1.627h5.186v0.962h-5.186v1.996
		h5.462v0.962H124.455L124.455,99.352z M150.918,99.352l-6.942-5.065v5.065h-1.072v-6.508h1.063l6.479,4.834v-4.834h1.072v6.508
		H150.918L150.918,99.352z M161.723,99.352l-3.356-5.241l-3.41,5.241h-1.368l4.325-6.508h0.897l4.298,6.508H161.723L161.723,99.352z
		 M171.519,94.407c0-0.401-0.271-0.602-0.813-0.602h-4.298v1.683h4.298c0.543,0,0.813-0.2,0.813-0.601V94.407L171.519,94.407z
		 M171.362,99.352l-1.525-2.903h-3.43v2.903h-1.229v-6.508h5.527c0.37,0,0.685,0.038,0.943,0.115s0.47,0.186,0.633,0.324
		s0.282,0.303,0.356,0.494c0.074,0.19,0.11,0.403,0.11,0.638v0.462c0,0.419-0.123,0.769-0.369,1.05
		c-0.247,0.28-0.659,0.448-1.239,0.503l1.535,2.922H171.362L171.362,99.352z M181.547,94.407c0-0.401-0.271-0.602-0.813-0.602
		h-4.298v1.683h4.298c0.542,0,0.813-0.2,0.813-0.601V94.407L181.547,94.407z M181.39,99.352l-1.525-2.903h-3.429v2.903h-1.229
		v-6.508h5.527c0.37,0,0.685,0.038,0.942,0.115c0.259,0.077,0.471,0.186,0.634,0.324s0.282,0.303,0.355,0.494
		c0.074,0.19,0.111,0.403,0.111,0.638v0.462c0,0.419-0.123,0.769-0.37,1.05c-0.246,0.28-0.659,0.448-1.238,0.503l1.534,2.922H181.39
		L181.39,99.352z M192.768,99.352l-3.356-5.241l-3.41,5.241h-1.368l4.326-6.508h0.896l4.298,6.508H192.768L192.768,99.352z
		 M197.646,99.352v-5.547h-3.411v-0.961h7.958v0.961h-3.317v5.547H197.646L197.646,99.352z M204.531,99.352v-6.508h1.229v6.508
		H204.531L204.531,99.352z M212.202,99.352l-4.326-6.508h1.396l3.402,5.241l3.364-5.241h1.358l-4.298,6.508H212.202L212.202,99.352z
		 M219.466,99.352v-6.508h6.692v0.961h-5.463v1.627h5.186v0.962h-5.186v1.996h5.463v0.962H219.466L219.466,99.352z M244.062,94.407
		c0-0.401-0.271-0.602-0.812-0.602h-4.104v2.182h4.104c0.542,0,0.812-0.2,0.812-0.601V94.407L244.062,94.407z M239.145,96.949v2.403
		h-1.229v-6.508h5.334c0.369,0,0.684,0.038,0.942,0.115s0.47,0.186,0.633,0.324c0.164,0.139,0.282,0.303,0.356,0.494
		c0.073,0.19,0.11,0.403,0.11,0.638v0.961c0,0.234-0.037,0.447-0.11,0.639c-0.074,0.19-0.192,0.355-0.356,0.494
		c-0.163,0.139-0.374,0.246-0.633,0.323s-0.573,0.116-0.942,0.116H239.145L239.145,96.949z M247.619,99.352v-6.508h1.238v5.546
		h5.278v0.962H247.619L247.619,99.352z M263.998,99.352l-3.356-5.241l-3.41,5.241h-1.368l4.326-6.508h0.896l4.298,6.508H263.998
		L263.998,99.352z M268.877,99.352v-5.547h-3.411v-0.961h7.958v0.961h-3.317v5.547H268.877L268.877,99.352z M276.945,96.67v2.682
		h-1.229v-6.508h6.692v0.961h-5.463v1.904h5.093v0.961H276.945L276.945,96.67z M291.649,94.407c0-0.401-0.271-0.602-0.812-0.602
		h-4.299c-0.542,0-0.813,0.2-0.813,0.602v3.383c0,0.4,0.271,0.601,0.813,0.601h4.299c0.542,0,0.812-0.2,0.812-0.601V94.407
		L291.649,94.407z M286.538,99.352c-0.369,0-0.684-0.039-0.942-0.116s-0.47-0.185-0.634-0.323c-0.163-0.139-0.281-0.304-0.355-0.495
		c-0.074-0.19-0.111-0.403-0.111-0.638v-3.364c0-0.234,0.037-0.447,0.111-0.638c0.074-0.191,0.192-0.355,0.355-0.494
		c0.164-0.139,0.375-0.247,0.634-0.324s0.573-0.115,0.942-0.115h4.299c0.369,0,0.684,0.038,0.942,0.115s0.47,0.186,0.634,0.324
		c0.163,0.139,0.281,0.303,0.355,0.494c0.074,0.19,0.111,0.403,0.111,0.638v3.364c0,0.234-0.037,0.447-0.111,0.638
		c-0.074,0.191-0.192,0.356-0.355,0.495c-0.164,0.139-0.375,0.246-0.634,0.323s-0.573,0.116-0.942,0.116H286.538L286.538,99.352z
		 M301.844,94.407c0-0.401-0.271-0.602-0.812-0.602h-4.299v1.683h4.299c0.542,0,0.812-0.2,0.812-0.601V94.407L301.844,94.407z
		 M301.688,99.352l-1.525-2.903h-3.43v2.903h-1.229v-6.508h5.528c0.369,0,0.684,0.038,0.942,0.115s0.47,0.186,0.633,0.324
		s0.282,0.303,0.356,0.494c0.074,0.19,0.11,0.403,0.11,0.638v0.462c0,0.419-0.123,0.769-0.369,1.05
		c-0.247,0.28-0.659,0.448-1.238,0.503L303,99.352H301.688L301.688,99.352z M314.303,99.352v-4.558l-3.309,4.558h-1.008
		l-3.318-4.548v4.548h-1.137v-6.508h1.146l3.864,5.314l3.846-5.314h1.054v6.508H314.303L314.303,99.352z M107.163,99.352v-5.547
		h-3.411v-0.961h7.959v0.961h-3.319v5.547H107.163z"/>
</g>
</svg>
