<?xml version="1.0" encoding="utf-8"?>
<!-- Generator: Adobe Illustrator 15.0.0, SVG Export Plug-In . SVG Version: 6.00 Build 0)  -->
<!DOCTYPE svg PUBLIC "-//W3C//DTD SVG 1.1//EN" "http://www.w3.org/Graphics/SVG/1.1/DTD/svg11.dtd">
<svg version="1.1" id="Layer_1" xmlns="http://www.w3.org/2000/svg" xmlns:xlink="http://www.w3.org/1999/xlink" x="0px" y="0px"
	 width="592.899px" height="686.519px" viewBox="9 0 592.899 686.519" enable-background="new 9 0 592.899 686.519"
	 xml:space="preserve">
<path fill="#00355F" d="M593.815,0.092l-0.062,325.341c-0.105,67.152-12.043,108.833-43.837,168.033
	c-27.364,51.503-88.884,97.891-143.554,131.153c-27.296,16.686-52.888,29.999-71.711,39.361l-29.2,13.755l-29.207-13.755
	c-18.824-9.362-44.415-22.677-71.719-39.361c-54.661-33.264-116.181-79.65-143.538-131.153
	c-31.801-59.199-43.729-100.882-43.84-168.033L17.072,0.092H9l0.16,325.341C9,393.543,21.582,437.571,53.804,497.309
	c57.169,106.871,251.65,189.21,251.65,189.21s194.469-82.339,251.641-189.21c32.23-59.737,44.806-103.766,44.653-171.875
	l0.151-325.341H593.815"/>
<path fill="#00355F" d="M130.28,277.645l-93.573,94.89c0,0,0.347,7.97,2.041,16.959c3.075,16.235,5.846,24.692,5.846,24.692
	l136.261-136.542H130.28"/>
<path fill="#00355F" d="M229.966,277.645L57.892,449.696c0,0,1.929,5.116,7.307,15.058c5.706,10.521,10.231,17.538,10.231,17.538
	l202.926-204.647H229.966"/>
<polyline fill="#00355F" points="35.296,277.645 35.296,322.859 81.595,277.645 35.296,277.645 "/>
<path fill="#00355F" d="M297.408,308.929L95.456,511.232c0,0,4.293,5.054,12.571,14.021c8.278,8.974,12.86,13.015,12.86,13.015
	l176.52-177.425L297.408,308.929"/>
<path fill="#00355F" d="M297.408,409.902L146.581,560.305c0,0,2.246,1.896,12.743,9.676c10.494,7.778,15.003,11.494,15.003,11.494
	l123.081-124.061V409.902"/>
<path fill="#00355F" d="M297.408,506.96l-94.479,94.441c0,0,4.312,3.272,14.417,9.211c13.443,7.885,17.02,10.358,17.02,10.358
	l63.042-63.489V506.96"/>
<polyline fill="#00355F" points="297.522,653.619 297.522,607.385 266.519,638.1 297.522,653.619 "/>
<path fill="#00355F" d="M312.654,261.134h263.807V0H312.654V261.134z M322.312,128.275l24.062-24.068l26.024,26.976l-50.088,50.049
	L322.312,128.275L322.312,128.275z M323.25,248.628v-50.985L452.304,69.55l55.833,54.874L382.905,248.628H323.25z M564.951,248.628
	H400.274l145.326-143.454l19.351,18.23V248.628L564.951,248.628z"/>
<path fill="#00355F" d="M34.442,260.175h263.75V0.229H34.442V260.175z M86.672,246.085H70.604v-41.286H50.39V191.06
	c10.504,0.182,19.681-3.426,20.476-15.483h15.806V246.085z M128.819,250.363c-16.659-0.822-29.679-6.934-29.603-24.1
	c-0.076-13.632,10.664-15.977,12.944-18.436c-5.423-1.378-9.221-6.79-9.221-14.806c-0.758-14.31,13.789-20.521,25.88-20.27
	c21.915-0.251,26.463,9.035,27.746,20.27c-0.544,7.202-3.593,13.428-11.075,14.806c8.248,1.72,13.675,9.355,14.74,18.436
	C161.501,243.429,145.292,249.542,128.819,250.363z M219.386,191.15c-20.191,16.031-24.812,39.117-24.016,57.325h-20.354
	c-0.4-0.449,1.122-24.305,11.037-44.408c7.756-12.263,9.317-13.008,9.317-12.917h-31.445v-18.398h55.461L219.386,191.15
	L219.386,191.15z M284.574,191.599c-20.263,15.947-24.899,39.118-24.115,57.318h-20.286c-0.434-0.495,1.058-24.358,11.015-44.461
	c7.756-12.232,9.271-13.016,9.271-12.856h-31.392v-18.49h55.506L284.574,191.599L284.574,191.599z"/>
<path fill="#00355F" d="M128.716,204.068c6.942,0,12.552-4.324,12.552-9.697c0-5.39-5.61-9.675-12.552-9.675
	c-6.949,0-12.625,4.285-12.625,9.675C116.092,199.744,121.767,204.068,128.716,204.068"/>
<path fill="#00355F" d="M129.588,215.919c-7.513,0-13.648,4.537-13.648,10.177c0,5.572,6.135,10.177,13.648,10.177
	c7.49,0,13.553-4.605,13.553-10.177C143.141,220.456,137.078,215.919,129.588,215.919"/>
<path fill="#00355F" d="M312.654,277.645v375.974c0,0,52.689-20.612,122.604-71.323c66.574-48.289,86.183-76.604,102.897-105.836
	c21.68-37.884,36.354-72.646,36.354-132.454c0-26.855,0.273-66.361,0.273-66.361H312.654 M344.746,294.992h19.259v71.423h-19.259
	V294.992z M458.172,367.396h-21.466v-32.411h-31.939v32.411h-20.796v-72.937h21.777v26.253h30.35v-26.253h22.074V367.396
	L458.172,367.396z M509.665,369.734c-10.815,0.813-39.292-3.038-38.857-27.738h25.864c0.7,2.314,0.7,4.635,1.911,5.557
	c1.819,5.229,7.978,6.073,12.871,5.534c5.108,0.539,11.243-1.021,11.146-7.292c0.099-3.015-3.783-4.567-18.544-9.326
	c-14.515-2.93-30.661-5.229-31.467-22.15c0.806-16.228,18.572-24.647,37.076-24.061c18.444-0.586,35.374,5.58,36.904,24.061h-25.79
	c0.373-2.329-1.135-3.881-3.73-5.541c-2.763-1.424-5.099-2.215-7.384-1.888c-3.926-0.327-10.815,0.464-11.082,5.587
	c1.819,4.887,13.367,5.656,25.798,9.211c12.963,3.341,26.032,8.761,25.918,22.173C550.413,364.336,528.933,370.547,509.665,369.734z
	"/>
</svg>
