<?xml version="1.0" encoding="utf-8"?>
<!-- Generator: Adobe Illustrator 21.0.0, SVG Export Plug-In . SVG Version: 6.00 Build 0)  -->
<svg version="1.1" id="Layer_1" xmlns="http://www.w3.org/2000/svg" xmlns:xlink="http://www.w3.org/1999/xlink" x="0px" y="0px"
	 viewBox="0 0 792 612" style="enable-background:new 0 0 792 612;" xml:space="preserve">
<style type="text/css">
	.st0{fill:#662E6B;}
</style>
<g>
	<path class="st0" d="M369.8,355.6c0,0.8-0.6,1.4-1.3,1.5c-0.8,0.2-1.1-0.2-1.3-1c-0.2-0.8,0.1-1.2,0.4-1.4c-0.2-0.3-0.3-0.6-0.3-1
		c0,0,0,0,0,0c-0.5,0.8-1.4,1.4-2,1.8l1.1,0.8c0,0,0,0.1,0.1,0.3c0.1,0.6-0.3,0.8-0.3,1.5c0,0.1,0,0.1,0,0.1
		c0.2-0.1,0.5-0.1,0.7-0.1c0.1,0,0.1,0,0.2,0c0.1-0.1,0.3-0.1,0.4-0.2c0.3-0.1,0.5,0,0.8,0c0.3-0.8,0.9-1.3,1.6-1.3
		c0.1,0,0.2,0.1,0.2,0.1c0-0.1,0.1-0.2,0.1-0.3c-0.2-0.2-0.3-0.5-0.4-0.8C369.9,355.6,369.8,355.6,369.8,355.6z"/>
	<path class="st0" d="M374,354.2c-0.7-0.2-1.3-0.8-1.4-1.6c-0.1-0.1-0.2-0.1-0.2-0.3c-0.3,0.2-0.6,0.3-0.9,0.3
		c-0.4,0-0.8-0.2-1.1-0.4c0.3,0.3,0.5,0.6,0.6,1c0.2-0.1,0.5-0.2,0.7-0.2c1,0,1.8,0.9,1.8,2c0,0.9-0.6,1.6-1.4,1.9
		c0.1,0,0.1,0.1,0.2,0.1c0.9,0.3,3.1,1.1,3.3,1.1c-0.2-1-0.6-1.9-1-2.9C374.4,355,374.1,354.6,374,354.2z"/>
	<path class="st0" d="M376.6,344.8c-0.3,0-0.5,0-0.7-0.1c0.2,0.1,0.4,0.4,0.5,0.8c0.2,0,0.3,0,0.5,0.1c0-0.1-0.1-0.1-0.1-0.2
		c0-0.2,0.1-0.4,0.1-0.6C376.8,344.8,376.7,344.8,376.6,344.8z"/>
	<path class="st0" d="M374.6,348.5c-0.2-0.2-0.4-0.4-0.5-0.7c-0.2-0.1-0.3-0.1-0.5-0.3c0,0.1,0,0.2,0.2,0.8c0.1,0.2,0.2,0.5,0.3,0.9
		C374.2,348.9,374.4,348.7,374.6,348.5z"/>
	<path class="st0" d="M374.8,343.9c-0.1,0-0.3-0.1-0.4-0.1c-0.3,0.4-0.8,0.6-1.3,0.6c0,0-0.1,0-0.1,0c-0.1,0.4-0.1,0.8,0,1.3
		c0,0.3,0.2,0.3,0.3,0.7c0,0.3-0.3,0.4-0.5,0.4c-0.2,0.1-0.5,0.1-0.5-0.1c-1.1,0.3-1.1,0.5-1,0.6c0.3,0.2,0.6,0.5,0.8,0.8
		c0.1,0,0.1,0,0.2,0.1c0.1,0.1,0.7,1.3,0.8,1.4c-0.2-0.5-0.3-1.3-0.2-1.8c0-0.3,0.5-0.5,0.6-0.8c0.3-0.9,0.4-2,1.3-2.3
		c0.4-0.1,0.7-0.1,1,0C375.4,344.5,375,344.3,374.8,343.9z"/>
	<path class="st0" d="M378,354.6l0.1,0.1C378,354.6,378,354.6,378,354.6C378,354.6,378,354.6,378,354.6z"/>
	<path class="st0" d="M364.2,358.2c-0.2-0.8,0-1.4,0.5-2.2l-0.6-0.1c0,1.4-0.4,1.6-1.6,1.9l0,0.1c0,0.3,0.2,0.4,0.3,0.3
		c0.3-0.1,0.4-0.3,0.6-0.4c0.3-0.1,0.4,0,0.5,0.2c0.1,0.4-0.1,0.5,0,0.8c0.1,0.3,0.3,0.4,0.3,0.7c0.1,0.5-0.2,0.8-0.7,1.1
		c0.2,0.1,0.3,0.2,0.4,0.3c0,0,0.1-0.1,0.1-0.1c0.1,0,0.2,0,0.3,0c0,0,0,0,0-0.1c0-0.8,0.5-1.5,1.2-1.8c0-0.1,0.1-0.1,0.1-0.2
		c0,0-0.1-0.1-0.1-0.1C364.6,358.6,364.4,359.2,364.2,358.2z"/>
	<path class="st0" d="M363.2,355c0.8-0.2,0.6-1.8,1.1-2.6c-0.2-0.1-0.3-0.2-0.5-0.3c0,0.3-0.1,0.6-0.3,0.9c0,0,0,0,0,0.1
		c0.2,1.1-0.5,1-1.2,1.1C362.4,354.8,362.4,355.2,363.2,355z"/>
	<path class="st0" d="M367.7,346.9c0.1,0,0.1,0.1,0.2,0.1c0.1,0,0.1-0.1,0.2-0.1c0.1,0,0.3,0.1,0.3,0.3c0,0,0,0.1,0,0.1
		c0.3,0.2,0.4,0.5,0.5,0.9c0.3-0.6,0.9-1.1,1.6-1.1c0-0.1,0-0.3,0.1-0.4c-0.2,0.1-1.1-0.3-1.7-0.6c-0.4,0.3-0.9,0.5-1.4,0.6
		c0,0.1,0.1,0.3,0.1,0.5C367.6,347,367.6,346.9,367.7,346.9z"/>
	<path class="st0" d="M368.5,342.3c0,0,0,0.1,0,0.1c0-0.1,0.1-0.1,0.2-0.1C368.6,342.3,368.5,342.3,368.5,342.3z"/>
	<path class="st0" d="M369.3,344.3c0.2-0.2,0.4-0.3,0.3-0.6c0-0.1-0.2-0.3-0.3-0.5c0-0.3,0.1-0.5,0.4-0.6c0.6-0.1,0.4,0.4,0.5,0.8
		c0.5-0.1,0.8-0.3,1.2-0.5c0-0.2-0.1-0.3-0.1-0.5c0-0.2,0.1-0.4,0.1-0.6c0,0-0.1,0-0.1,0c-0.3,0.1,0,0.4-0.6,0.6
		c-0.5,0.1-0.9-0.2-1.1-0.7c-0.2,0.3-0.5,0.5-0.9,0.6c0.2,0,0.5,0.3,0.5,0.4c0,0.3-0.2,0.5-0.4,0.5c-0.3,0.1-0.4,0-0.5-0.3
		c0,0,0,0,0-0.1c0,0.1-0.1,0.1-0.1,0.2C368.7,343.4,369.1,343.8,369.3,344.3z"/>
	<path class="st0" d="M363.2,350.1c-0.1,0-0.2,0.1-0.4,0.1c0.1,0.1,0.2,0.1,0.3,0.2C363.2,350.3,363.2,350.2,363.2,350.1z"/>
	<path class="st0" d="M368.8,348.4c0,0.2-0.1,0.3-0.2,0.4c0,0,0.1,0,0.1,0C368.7,348.7,368.7,348.6,368.8,348.4z"/>
	<path class="st0" d="M383.7,336.2c-0.3-0.3-0.4-0.7-0.4-1.1c0-0.1,0.1-0.3,0.1-0.4c-0.2-0.1-0.3-0.3-0.5-0.4
		c-0.3,0.2-0.7,0.3-1.1,0.3c-0.1,0-0.1,0-0.2,0c0.5,0.8,1.1,2,1.2,2.6C383.1,336.6,383.3,336.4,383.7,336.2z"/>
	<path class="st0" d="M367.8,352.3c0,0.1,0,0.2,0,0.4c0.3-0.5,0.9-0.9,1.5-0.9c0.4,0,0.8,0.2,1.1,0.4c-0.1-0.1-0.3-0.3-0.3-0.4
		c-0.1,0-0.1,0-0.2,0.1c0-0.1,0-0.2,0-0.4c-0.1-0.2-0.2-0.5-0.2-0.8l0,0c-0.1-0.1-0.2-0.1-0.3-0.2c-0.2,0.6-0.6,1.1-1.1,1.2l0,0
		c-0.5-0.1-0.9-0.3-1.2-0.4c0,0.2-0.1,0.3-0.2,0.4C367.3,351.7,367.7,351.9,367.8,352.3z"/>
	<path class="st0" d="M387,354.7c0.1,0,0.2-0.2,0.2-0.3c0,0-0.1,0-0.1,0C387.1,354.5,387,354.7,387,354.7z"/>
	<path class="st0" d="M380.5,343c-0.1,0,0,0.2,0,0.2C380.6,343.1,380.6,342.9,380.5,343z"/>
	<path class="st0" d="M379.9,349.6c0.4,0.2,0.8,0.7,0.9,1.2c0-0.1,0.1-0.2,0.2-0.3c-0.4-0.4-0.7-0.8-0.7-1.5
		C380.2,349,380.1,349.3,379.9,349.6z"/>
	<path class="st0" d="M377,348.6c0.3,0.3,0.4,0.7,0.5,1.2c0.1-0.1,0.1-0.2,0.1-0.4c0-0.1-0.2-0.8-0.2-1.1
		C377.3,348.5,377.2,348.6,377,348.6z"/>
	<path class="st0" d="M382,339.2c0-0.2,0.1-0.5,0.3-0.5c0.2,0,0.2,0,0.5,0.1c0-0.1,0-0.8,0-1l0-0.1l0-0.1c-0.1,0.1-0.6,0.4-0.7,0.6
		l-0.1,0l-0.1,0c-0.2-0.1-1-0.3-1.2-0.4c0,0.2-0.1,0.4-0.1,0.5C381.2,338.4,381.7,338.7,382,339.2z"/>
	<path class="st0" d="M383.7,339.7l0-0.2c0-0.2-0.3-0.4-0.5-0.3l-0.1,0c-0.1,0.2-0.4,0.6-0.4,0.8l0.7,0.4
		C383.3,340.2,383.7,339.7,383.7,339.7z"/>
	<path class="st0" d="M379.4,338.6c0.2-0.1,0.3-0.2,0.5-0.3c0-0.1-0.1-0.1-0.1-0.2c0-0.2,0.3-0.6,0.4-0.6l0.4,0
		c0.1,0,0.2-0.1,0.1-0.2c-0.2-0.5-0.8-0.2-1.3-0.2c-0.2,0.1-0.5,0.2-0.8,0.2c-0.2,0-0.4-0.1-0.6-0.1c0,0.3-0.1,0.7-0.3,0.9
		C378.1,337.9,378.8,338.2,379.4,338.6z"/>
	<path class="st0" d="M382.2,339.9c0,0.1,0,0.2,0,0.2c0-0.1,0.1-0.1,0.1-0.2C382.3,340,382.3,340,382.2,339.9z"/>
	<path class="st0" d="M391.3,345.7l0-0.3c-0.4,0.1-0.6,0.5-0.9,0.8c0.2,0.1,0.3,0.2,0.5,0.3C391.1,346.1,391.3,345.8,391.3,345.7z"
		/>
	<path class="st0" d="M389,343.6c0,0.2,0.1,0.5,0.1,0.7l0.5-0.1C389.4,344.1,389.2,343.9,389,343.6z"/>
	<path class="st0" d="M389.2,346.2c-0.1-0.2-0.2-0.6-0.2-1c-0.7,0.9-1,0.6-1.5,1.9c0.2,0,0.5,0.1,0.6,0.3
		C388.3,346.9,388.7,346.4,389.2,346.2z"/>
	<path class="st0" d="M388.4,349.4c0,0.3-0.1,0.6-0.2,0.9c0.1,0,0.2-0.1,0.3-0.1c0.4,0,0.7,0.2,1,0.4c0,0,0,0,0,0l0.1,0
		c0.1,0.1,0.4,0.4,0.4,0.4c0,0,0,0.1,0,0.3c0,0.1,0.1,0.1,0.1,0.2l0.5-0.9c-0.4-0.2-0.5-0.3-0.6-0.6c-0.1,0-0.2,0.1-0.4,0.1
		C389.3,350,388.8,349.8,388.4,349.4z"/>
	<path class="st0" d="M381.5,347.4c0.4-0.1,0.7,0.3,1,0.2c0.1,0,0.2,0,0.2-0.3c-0.2-0.2-0.4-0.3-0.6-0.5c-0.3,0.4-0.8,0.7-1.4,0.7
		c-0.1,0-0.2-0.1-0.4-0.1c0.1,0.3,0.2,0.6,0.2,0.9C380.8,348.1,381.2,347.5,381.5,347.4z"/>
	<path class="st0" d="M376,342.1c0.1,0,0.3,0,0.4-0.1c-0.1-0.1-0.2-0.2-0.2-0.3C376.1,341.9,376.1,342,376,342.1z"/>
	<path class="st0" d="M388.5,342.4c0.1,0.1,0.3,0.2,0.3,0.4c0-0.7,0.4-1.2,1-1.5c-0.3,0-0.7-0.1-1-0.1c0,0.1,0.1,0.2,0.1,0.3
		C388.9,341.8,388.7,342.2,388.5,342.4z"/>
	<polygon class="st0" points="351.2,407.4 348.3,398.6 344.1,407.7 345.6,408.4 348.1,403 351,411.8 355.2,403 355.2,402.8 
		353.7,402.1 	"/>
	<path class="st0" d="M374.3,199l3.5-0.7l1.3,2l1.8-0.3l-6.3-9l-2.7,10.8l1.8-0.3L374.3,199z M375.4,194.6l1.5,2.2l-2.2,0.4
		L375.4,194.6z"/>
	<polygon class="st0" points="388.7,191.5 389.1,199.2 390.8,199 390.3,191.4 392.4,191.3 392.3,189.7 386.5,190 386.6,191.6 	"/>
	
		<rect x="397" y="193.5" transform="matrix(4.582837e-02 -0.9989 0.9989 4.582837e-02 189.0701 586.7035)" class="st0" width="9.3" height="1.7"/>
	<polygon class="st0" points="419.5,192.1 419.6,191.9 417.8,191.6 414.5,197 413.1,190.9 413.1,190.8 411.3,190.5 413.7,201.2 	"/>
	<polygon class="st0" points="343.7,212.9 339.1,205.1 339,204.9 337.6,205.8 342.2,213.8 	"/>
	
		<rect x="361.7" y="194.9" transform="matrix(0.9519 -0.3065 0.3065 0.9519 -43.7294 120.7245)" class="st0" width="1.7" height="9.3"/>
	<polygon class="st0" points="349.3,201.4 352.4,208.4 354,207.8 350.8,200.8 352.7,199.9 352.1,198.5 346.8,200.8 347.4,202.3 	"/>
	<path class="st0" d="M504.9,328.8c0.1,0,0.2,0,0.3,0c0.6,0,1.2-0.4,1.3-1.1c1.5-7.4,2.3-15,2.3-22.6c0-11.4-1.7-22.6-5-33.4
		c-0.2-0.7-1-1.1-1.7-0.9c-0.7,0.2-1.1,1-0.9,1.6c3.3,10.5,4.9,21.5,4.9,32.6c0,7.4-0.8,14.9-2.2,22.1
		C503.8,328,504.2,328.7,504.9,328.8z"/>
	<polygon class="st0" points="495.6,266.5 497.1,265.9 495.7,262.6 498.1,261.6 499.5,264.8 501,264.2 499.6,261 501.3,260.3 
		502.7,263.6 504.1,262.9 502.1,258.1 493.6,261.7 	"/>
	<polygon class="st0" points="487.1,249.5 490.7,247.3 492.5,250.4 488.9,252.5 489.7,254 497.7,249.2 496.8,247.8 493.8,249.6 
		492,246.5 495,244.7 494.2,243.3 486.2,248 	"/>
	<polygon class="st0" points="430.9,202.9 427.5,201.8 428.3,199.3 431.6,200.3 432,198.8 428.7,197.7 429.3,196 432.7,197 
		433.2,195.5 428.1,194 425.4,202.8 430.4,204.4 	"/>
	<polygon class="st0" points="328.5,223.5 329.8,222.4 326.1,217.7 335.4,219.1 329.3,211.1 328,212.1 331.6,216.9 322.3,215.4 	"/>
	<polygon class="st0" points="486.6,235.3 487.9,237 489.1,236 485.5,231.4 484.3,232.4 485.5,234 479.5,238.8 480.6,240.1 	"/>
	<path class="st0" d="M451.3,214.3c0.8,0.5,1.6,0.7,2.5,0.7c0.4,0,0.8,0,1.2-0.1c1.3-0.3,2.3-1,3-2.2c0.7-1.1,0.9-2.4,0.5-3.6
		c-0.3-1.3-1-2.3-2.2-3c-1.1-0.7-2.4-0.9-3.7-0.6c-1.3,0.3-2.3,1-3,2.1h0c-0.8,1.3-0.9,2.6-0.5,3.9
		C449.6,212.7,450.3,213.7,451.3,214.3z M451.1,208.5L451.1,208.5c0.5-0.8,1.1-1.3,2-1.5c0.8-0.2,1.6-0.1,2.4,0.4
		c0.8,0.5,1.2,1.1,1.4,1.9c0.2,0.8,0.1,1.7-0.4,2.4c-0.5,0.8-1.1,1.3-2,1.5c-0.9,0.2-1.6,0.1-2.4-0.4c-0.7-0.4-1.2-1.1-1.4-1.9
		C450.5,210.2,450.7,209.3,451.1,208.5z"/>
	<polygon class="st0" points="466.1,219.3 468.4,221.2 469.5,220 467.1,218.1 468.3,216.6 470.7,218.6 471.7,217.4 468,214.3 
		462.1,221.5 463.4,222.6 	"/>
	<path class="st0" d="M291.8,340.6c0.8-0.3,1.6-0.3,2.4,0.1c0.8,0.3,1.3,0.9,1.6,1.7c0.3,0.7,0.2,1.6-0.1,2.5l-0.1,0.3l1.8-0.6
		l0.1,0l0-0.1c0.2-0.9,0.1-1.7-0.2-2.5c-0.5-1.4-1.4-2.4-2.8-2.9c-1.1-0.4-2.2-0.4-3.3,0c-1.2,0.4-2.1,1.2-2.7,2.4
		c-0.5,1.2-0.6,2.4-0.2,3.6c0.3,0.8,0.8,1.5,1.5,2.1l0.1,0.1l1.9-0.7l-0.3-0.2c-0.2-0.1-0.5-0.3-0.6-0.4c-0.2-0.1-0.3-0.3-0.5-0.4
		c-0.2-0.2-0.4-0.6-0.6-1c-0.3-0.8-0.2-1.6,0.1-2.3C290.4,341.5,291,340.9,291.8,340.6z"/>
	<polygon class="st0" points="367.8,413.3 363.5,405 360.8,414.5 360.7,414.6 362.3,415.1 364,409.4 368.3,417.6 371,408.1 
		369.4,407.6 	"/>
	<path class="st0" d="M377.6,346.2c0.1,0.2,0.2,0.4,0.3,0.6c0,0,0.1,0,0.1,0l0.1,0c0.1-0.1,0.6-0.4,0.7-0.5
		C378.4,346.3,378,346.3,377.6,346.2z"/>
	<polygon class="st0" points="389.4,419.9 389.4,420 391.1,420.1 391.3,415.9 394.2,416 394.3,414.5 391.3,414.3 391.4,412.6 
		394.5,412.7 394.5,411.1 389.8,410.9 	"/>
	<path class="st0" d="M432.6,258.1c2.1,0,3.9-0.7,5.3-2.2c1.4-1.5,2.2-3.2,2.2-5.4c0-2.2-0.7-3.9-2.1-5.4c-1.4-1.5-3.1-2.2-5.2-2.2
		c-2.1,0-3.8,0.7-5.3,2.2l0,0c-1.4,1.4-2.1,3.2-2.1,5.3c0,2.2,0.7,4,2.2,5.4C429,257.4,430.7,258.1,432.6,258.1z"/>
	<path class="st0" d="M405.7,352.5c-1.6,1.5-3,4.2-3.4,6c-0.1,0.2-0.3,0.9-1.2,4.5c-0.2,0.8-0.9,5.7-0.4,6.5l0-0.1
		c0.1-0.4,0.3-2,3-11.8c0.5-1.6,1.8-2.9,2.3-4.7C406.1,352.7,406.1,352.6,405.7,352.5z"/>
	<path class="st0" d="M330.3,399.3l2-1.2l2.9,2l-0.4,2.3l1.5,1l1.8-10.7l-9.3,5.7L330.3,399.3z M336,395.7l-0.5,2.6l-1.8-1.2
		L336,395.7z"/>
	<path class="st0" d="M447.3,279c-0.8-0.8-1.8-1.4-2.9-1.9c-1.1-0.5-2.4-0.7-3.9-0.7h-1.9v18.2h1.9c1.5,0,2.8-0.2,3.9-0.7
		c1.1-0.5,2.1-1.1,2.9-1.9c0.8-0.8,1.4-1.8,1.8-2.9c0.4-1.1,0.6-2.3,0.6-3.6c0-1.3-0.2-2.5-0.6-3.6
		C448.7,280.7,448.1,279.8,447.3,279z"/>
	<path class="st0" d="M376.4,340.9c0.3-0.4,0.5-1,0.3-1.5c-0.4,0.1-0.8,0.3-1.3,0.5C375.9,340.1,376.2,340.5,376.4,340.9z"/>
	<path class="st0" d="M297.1,267.2l0.7-1.7l-1.6-1.8l1.4-3.3l2.4,0l0.7-1.7l-11,0.2l7.2,8.1L297.1,267.2z M295.1,262.5l-1.8-2l2.7,0
		L295.1,262.5z"/>
	
		<rect x="317.4" y="222" transform="matrix(0.7085 -0.7058 0.7058 0.7085 -67.1402 290.6753)" class="st0" width="1.7" height="9.3"/>
	<polygon class="st0" points="304.3,252.2 305.2,250.8 300.1,247.6 309.3,245.7 300.8,240.3 299.9,241.7 305,244.9 295.7,246.8 	"/>
	<polygon class="st0" points="304.6,358 303.9,356.6 300.8,358.2 299.2,355.1 302.2,353.5 301.4,352 293.5,356.3 293.4,356.3 
		294.2,357.8 297.8,355.9 299.4,358.9 295.8,360.9 296.6,362.3 304.5,358.1 	"/>
	<polygon class="st0" points="311,381.9 310.9,382 312,383.2 315.1,380.4 317.1,382.6 318.2,381.5 316.2,379.3 317.5,378.1 
		319.6,380.3 320.8,379.3 317.6,375.8 	"/>
	<polygon class="st0" points="308.9,367.5 311,370.4 312.3,369.5 309.2,365.3 301.8,370.6 304.9,374.8 306.2,373.9 304.1,371 
		306.2,369.5 308.2,372.3 309.5,371.3 307.5,368.6 	"/>
	<path class="st0" d="M288.7,331.3c0.7-0.2,1.2-0.9,1-1.6c-1.8-8-2.7-16.2-2.7-24.5c0-11.1,1.7-22.1,4.9-32.6
		c0.2-0.7-0.2-1.4-0.9-1.7c-0.7-0.2-1.4,0.2-1.7,0.9c-3.3,10.8-5,22-5,33.4c0,8.5,0.9,16.9,2.8,25.1c0.1,0.6,0.7,1,1.3,1
		C288.5,331.3,288.6,331.3,288.7,331.3z"/>
	<path class="st0" d="M425.2,372.3c0-0.3-0.2-0.3-0.4-0.3c-0.4-0.1-0.7,0.1-0.8,0.5c-0.1,0.2,0,0.4,0.2,0.3
		C424.6,372.7,425,372.7,425.2,372.3z"/>
	<path class="st0" d="M424.7,378c0.5-0.1,0.9-0.2,1.3-0.3C425.4,377.2,425,377.1,424.7,378z"/>
	<path class="st0" d="M420.9,377.7c0.5,0.9,1.6,0.9,2.2,1.7C423.5,378.4,423.5,378.4,420.9,377.7z"/>
	<path class="st0" d="M422.8,384.1c-1.4,1-0.1,1.5,0.7,2.2c-0.4-1.1,0.7-2.1-0.6-3.1C422.8,383.6,422.9,384,422.8,384.1z"/>
	<path class="st0" d="M419.9,373c0.4,0.8,0.4,0.8,1.3,0.8C420.8,373.4,420.4,373.1,419.9,373z"/>
	<path class="st0" d="M429.8,376.9c0.6,0.1,0.8-0.1,0.8-0.8C430.2,376.4,429.9,376.6,429.8,376.9z"/>
	<path class="st0" d="M379.6,341.9c-0.2-0.1-0.3-0.2-0.4-0.3c-0.3,0.4-0.7,0.7-1.1,0.9c0.2,0.1,0.3,0.3,0.4,0.4
		c0.4-0.3,0.8-0.5,1.1-0.7C379.5,342.1,379.5,342,379.6,341.9z"/>
	<path class="st0" d="M428.4,370.8c-0.1-0.1-0.4-0.3-0.6-0.3c-0.2,0-0.5,0.1-0.4,0.5c0.1,0.2-0.3,0.3,0,0.6c0.2-0.1,0.4-0.2,0.6-0.3
		C428.1,371.2,428.4,371.1,428.4,370.8z"/>
	<path class="st0" d="M429.6,375.2c-0.5,0.1-1.1,0.1-1.4,0.7c0.1,0.4,0.1,1,0.7,0.9c0.7,0,0.8-0.8,1-1.3
		C429.8,375.5,430,375.1,429.6,375.2z"/>
	<path class="st0" d="M411.5,371.3c-0.1,0.1,0.2,0.4,0.5,0.4c0.6,0,0.6-0.6,0.8-1.1C412.1,370.7,411.7,370.8,411.5,371.3z"/>
	<path class="st0" d="M425.1,381.9C425.1,381.9,425.1,381.9,425.1,381.9C425.1,381.9,425.1,381.9,425.1,381.9
		C425.1,381.9,425.1,381.9,425.1,381.9L425.1,381.9z"/>
	<path class="st0" d="M423.9,381.8c-0.1-0.1-0.2-0.3-0.2-0.4c-0.1-0.3-0.2-0.6-0.6-0.5c0,0-0.1,0-0.1,0l0.4,1.2
		c0.7,0.3,1.3,0.7,2,0.7c0.2-0.4-0.4-0.6-0.3-1c-0.2-0.3-0.5-0.5-0.7-0.8C424,381.1,424.2,381.5,423.9,381.8z"/>
	<path class="st0" d="M420.6,369.2c-0.7,0.3-1.6-1-2.3,0.2C419.1,369.7,419.9,369.9,420.6,369.2z"/>
	<path class="st0" d="M416.3,373.1c0.7,0,0.9-0.5,1.5-0.6C416.8,371.9,416.6,372.5,416.3,373.1z"/>
	<path class="st0" d="M419.8,379c-0.2-0.2-0.3,0.1-0.4,0.3c-0.4,0.7,0.3,0.8,0.7,1.3C420.2,379.9,420.3,379.4,419.8,379z"/>
	<path class="st0" d="M420.9,372.6c0.3,0.2,0.4,0.6,0.8,0.4c0.2-0.1,0.1-0.2,0.1-0.3c-0.2-0.4-0.4-0.7-0.9-0.6
		c-0.2,0-0.3,0.1-0.5,0.1C420.5,372.5,420.7,372.4,420.9,372.6z"/>
	<path class="st0" d="M410.4,411.5c-1-0.8-2.2-1.2-3.5-1.1c-1.3,0.1-2.4,0.7-3.2,1.7c-0.8,1-1.2,2.2-1.1,3.4
		c0.1,1.4,0.8,2.6,1.9,3.4c0.9,0.6,1.8,0.9,2.8,0.9c0.2,0,0.3,0,0.5,0c1.3-0.1,2.4-0.7,3.3-1.7c0.8-1,1.2-2.2,1.1-3.5
		C412,413.4,411.4,412.3,410.4,411.5z M409.7,417.2c-0.5,0.7-1.2,1-2.1,1.1c-0.8,0.1-1.5-0.2-2.2-0.7c-0.7-0.5-1.1-1.3-1.1-2.2
		c-0.1-0.9,0.1-1.6,0.7-2.3c0.5-0.7,1.2-1,2.1-1.1c0.9-0.1,1.6,0.1,2.3,0.7c0.7,0.5,1,1.3,1.1,2.1
		C410.5,415.7,410.3,416.5,409.7,417.2z"/>
	<polygon class="st0" points="477.2,376.3 476.1,375.2 472.2,379.4 473.3,380.5 474.7,379 480.2,384.1 481.4,382.9 475.8,377.8 	"/>
	<path class="st0" d="M466.6,396.2l0.1,0.2l1.4-1.1l-0.6-2.3l2.7-2.3l2.1,1l1.4-1.2l-9.8-4.8L466.6,396.2z M467,391.4l-0.7-2.6
		l2.4,1.2L467,391.4z"/>
	<path class="st0" d="M454.9,395c-0.6-0.1-1.2-0.1-1.8,0.1c-0.5,0.1-1.2,0.4-2,0.9l-1.7,1.1l4.7,7.6l0.1,0.1l1.7-1
		c0.8-0.5,1.3-0.9,1.7-1.3c0.4-0.4,0.7-1,0.8-1.6c0.4-1.3,0.2-2.5-0.5-3.7C457.1,396,456.1,395.3,454.9,395z M456.8,400.4
		c-0.1,0.4-0.3,0.7-0.5,1c-0.3,0.3-0.6,0.6-1.1,0.9l-0.4,0.2l-3.1-5.1l0.4-0.2c0.9-0.6,1.8-0.8,2.5-0.6c0.8,0.2,1.5,0.6,2,1.4
		C456.9,398.8,457,399.6,456.8,400.4z"/>
	<polygon class="st0" points="481.9,367.9 480.9,369.2 488.1,374.6 488.2,374.7 489.2,373.4 482,368 	"/>
	<path class="st0" d="M495.2,355.2c-1.1-0.6-2.3-0.8-3.6-0.4c-1.3,0.4-2.2,1.1-2.9,2.2c-0.6,1.1-0.8,2.4-0.5,3.6
		c0.3,1.3,1.1,2.2,2.2,2.9c0.8,0.4,1.6,0.7,2.3,0.7c0.5,0,1-0.1,1.5-0.3c1.2-0.4,2-1.1,2.6-2.2c0.6-1.2,0.8-2.4,0.5-3.6
		C497.1,356.8,496.4,355.8,495.2,355.2z M495.6,360.9c-0.4,0.7-1,1.2-1.8,1.4c-0.8,0.2-1.6,0.2-2.4-0.3c-0.8-0.4-1.3-1.1-1.5-1.9
		c-0.2-0.8-0.1-1.6,0.3-2.4c0.4-0.8,1-1.2,1.9-1.5c0.8-0.2,1.6-0.1,2.4,0.3c0.8,0.4,1.3,1.1,1.5,1.9
		C496.1,359.3,496,360.1,495.6,360.9z"/>
	<path class="st0" d="M396.5,181.9c-67.9,0-123.2,55.3-123.2,123.2s55.3,123.2,123.2,123.2c67.9,0,123.2-55.3,123.2-123.2
		S464.5,181.9,396.5,181.9z M396.5,425.1c-66.1,0-119.9-53.8-119.9-119.9s53.8-119.9,119.9-119.9c66.1,0,119.9,53.8,119.9,119.9
		S462.7,425.1,396.5,425.1z"/>
	<polygon class="st0" points="497.4,337.9 496.8,339.5 502.3,341.5 493.8,345.2 503.2,348.6 503.7,347.1 498.2,345 506.7,341.3 	"/>
	<path class="st0" d="M419.2,386.7C419.2,386.7,419.2,386.7,419.2,386.7C419.2,386.7,419.2,386.7,419.2,386.7
		C419.2,386.7,419.2,386.7,419.2,386.7C419.2,386.7,419.2,386.7,419.2,386.7z"/>
	<path class="st0" d="M432.1,369.1c1.2-0.3,2.7,0.4,3.7-0.9C434.4,368.2,433.3,368.7,432.1,369.1z"/>
	<path class="st0" d="M436.9,376.5c1.3,0.2,2.5,0,3.7-0.4C439.3,375.6,438.2,376.4,436.9,376.5z"/>
	<polygon class="st0" points="441.9,401.2 441.8,401.1 440.3,401.7 442.6,407.1 434.1,403.4 437.9,412.5 438,412.6 439.5,412 
		437.2,406.5 445.7,410.2 	"/>
	<path class="st0" d="M433.1,374c0.4,0,0.6,0.1,0.8,0.1c0-0.1,0-0.2-0.1-0.3C433.7,373.6,433.5,373.9,433.1,374z"/>
	<path class="st0" d="M497.9,305.2c0-56-45.4-101.4-101.4-101.4c-56,0-101.4,45.4-101.4,101.4s45.4,101.4,101.4,101.4
		C452.5,406.5,497.9,361.1,497.9,305.2z M447.7,238.6h5v19h6.5v4.8h-11.5V238.6z M458.5,313.5v1.7h-4.7v4h4.8v1.7H452v-12h6.6v1.7
		h-4.8v2.9H458.5z M457.4,291.6c-0.8,2-2,3.7-3.4,5.2c-1.5,1.5-3.2,2.7-5.1,3.6c-1.9,0.9-4,1.3-6.3,1.3h-12.5v-32.5h12.5
		c2.2,0,4.3,0.4,6.2,1.3c1.9,0.9,3.6,2.1,5.1,3.6c1.5,1.5,2.6,3.2,3.4,5.2c0.8,2,1.3,4,1.3,6.2C458.6,287.6,458.2,289.7,457.4,291.6
		z M436.8,310.6v-1.7h7.3v1.7h-2.7v10.3h-1.8v-10.3H436.8z M423.9,241.8c2.4-2.4,5.4-3.6,8.8-3.6c3.4,0,6.3,1.2,8.7,3.6
		c2.4,2.4,3.7,5.4,3.7,8.7c0,3.4-1.2,6.3-3.7,8.7c-2.4,2.4-5.4,3.6-8.9,3.6c-3.1,0-5.8-1.1-8.3-3.2c-2.7-2.3-4.1-5.5-4.1-9.3
		C420.2,247.1,421.5,244.2,423.9,241.8z M415.4,356.7c-0.1,0.5-0.8,1-1,1.6c-0.2,0.5-0.4,1.3-0.7,2.1c-0.2,0-0.4,0.1-0.7,0.2
		c-1.5,0.6-2.4,1.9-2.4,3.5c-0.9,0.7-1.4,1.6-1.6,2.3c-0.2-0.1-0.4-0.1-0.6-0.1c-0.4,0-0.8,0-1.2,0.2c-1.4,0.6-2.9,1.7-2.6,4.2
		c-1,0.6-1.5,1.5-2,2.2c-0.1,0.2-0.3,0.5-0.5,0.7c-0.6,0.2-1.4,0.4-2.4,0.6c-0.1,0-0.1,0-0.2,0c-1-2.1-2.6-3.5-4.5-3.7
		c-0.2,0-0.3,0-0.5,0c-0.6,0-1.2,0-1.7,0.1c-0.1,0-0.6-1.4-0.6-1.6c-0.6-1.8-0.8-3.8-0.8-5.7c0-2,0-4.1,0.3-6.1
		c0.2-1.3,0.5-2.7,1-3.9c0.1-0.3,0.3-0.7,0.4-1c1.4-3,4.5-5.7,8-5.7c0.6,0,1.3,0.1,2,0.3c1.2,0.3,2,0.7,3,1.5
		c0.7,0.6,1.2,1.6,2.2,1.9c0,0,0,0,0.1,0c0.2,0,0.6-0.1,1.8-0.8c0,0,0.1-0.4,0.2-0.6c0.7-2.3,0.9-5.2-0.7-7.3
		c-0.7-1.1-3.2-0.6-2.7-2.3c0.3-1.1,1.9-2.2,3.1-2.2c0.2,0,0.3,0,0.5,0.1c1.4,0.4,2.4,3.7,2.5,4.9l-0.2,7.2c0.1,1.2,1.3,1,2.9,3.4
		l0.7,0.2c0.8,0,1.8-0.8,3.1-0.8c0.3,0,0.6,0,1,0.1c2.6,0.8,4.7,3.7,4.4,6.3c-0.2,1.4-0.7,3.2-1.5,5.1c-0.4-0.2-0.7-0.3-1-0.4
		c-0.1,0-0.2,0-0.2-0.1c-0.2-0.1-0.5-0.2-0.8-0.2c-0.3,0-0.6,0-0.9,0.1c-0.4-0.4-0.9-0.7-1.5-0.8c-0.5-0.5-1.2-0.8-1.9-0.9
		c-0.4,0-0.8,0-1.2,0.1c-0.3-0.4-0.6-0.6-1-0.8C415.4,359,415.7,357.4,415.4,356.7z M387.1,364c0.1,0.7,0.7,3.7,0.8,4.3
		c0.2,1,0.4,1.9,0.6,2.9c-0.8,0.2-1.8,0.3-2.9,0.6c-0.2,0-0.4,0.1-0.6,0.2c-0.1,0-0.3,0-0.4,0c-0.1,0-0.2,0-0.3,0
		c-0.3-2.3-0.6-4.9-0.7-5.8c-0.1-0.3-0.5-2.4-0.6-3.1c-0.1-0.4-0.4-1.9-0.5-2.6c-0.1,0.2-0.2,0.5-0.4,0.6c-0.2,0.6-0.3,1.2-0.3,1.5
		c0.1,0.5,0.5,2.5,0.5,2.8c0.1,0.7,0.5,2.8,0.6,2.9c0.1,0.6,0.5,2.2,0.9,3.8c-0.3,0.1-0.7,0.1-1.1,0.2c-0.1,0-0.3,0.1-0.4,0.1
		c-0.1,0-0.3,0-0.4,0l-1.6,0.3l-0.6,0.1c-0.1,0-0.3,0.1-0.4,0.1c-0.1,0-0.3,0-0.4,0l-0.5,0.1c-0.6-2.9-1.3-5.7-1.9-8.6
		c-0.1-0.5-0.4-2-0.4-2.1c0-0.1-0.6-1.3-0.7-2l-3.5-0.7c-0.2,1.2-0.9,2.1-1.8,2.1c-0.6,0-1-0.4-1.4-0.9c-0.2,0.4-0.5,0.7-0.9,0.8
		c-0.3,0.7-0.9,1.1-1.7,1.1c-0.7,0-1.4-0.5-1.6-1.1c0,0-0.1,0-0.1,0.1c0,0.1,0,0.1,0.1,0.2c0,0.3-0.1,0.6-0.3,0.8
		c0.6,0,1.3,0.4,1.5,1.1c0.2,0.9-0.4,1.6-1,1.7c-0.7,0.2-1-0.7-1.1-1.3c-0.1-0.3-0.1-0.6-0.1-0.9c-0.3,0.2-0.7,0.3-1.1,0.3
		c-1.2,0-2.2-0.8-2.2-1.7c0-0.7,0.5-1.2,1.2-1.5c0-0.1-0.1-0.1-0.1-0.2c-0.1-0.7,0.2-1.3,0.6-1.7l-0.2,0.1c-0.7,0.2-0.7,1-1.2,1.1
		c-0.5,0.1-1.4-1.4-1.5-1.7c-0.3-1.4,2-2.3,2.8-2.6c-0.2-0.1-0.3-0.2-0.4-0.2c-0.3,0.3-0.7,0.5-1.2,0.5c-1,0-1.8-0.9-1.8-2
		c0-1.1,0.8-2,1.9-1.9c0,0,0,0,0.1,0c0.1-1,0.9-1.8,1.8-1.8c-0.6-0.3-0.9-1-0.9-1.7c0-1.1,0.8-2,1.9-1.9c0.4,0,0.7,0.2,1,0.4
		c0.2-0.9,0.8-1.5,1.5-1.6c0-0.1-0.1-0.2-0.1-0.3c0-0.4,0.2-0.7,0.4-1c-0.5-0.3-0.9-0.9-0.9-1.7c0-1,0.8-1.9,1.7-1.9
		c0.4-0.3,0.8-0.5,1.4-0.5c0.4,0,0.8,0.1,1.1,0.3c0,0,0,0,0,0c0.1,0.1,0.3,0.2,0.4,0.3c0.1-0.2,0.3-0.4,0.5-0.5
		c0.4-0.1,0.8,0.3,1.3,0.2c0.1,0,0.1-0.1,0.2-0.2c-0.9-0.1-1.6-0.9-1.6-1.9c0-1.1,0.8-2,1.9-1.9c0.6,0,1.1,0.4,1.5,0.9
		c0.4,0.1,0.9,0.6,1,1c0.1,0.7-0.4,0.5-0.7,1.1c-0.3,0.5-0.3,1.1-0.4,1.7c0.3,0,0.6,0.1,0.8,0.3c0.3-0.3,0.6-0.6,0.7-1.1
		c0-0.1-0.1-0.7-0.2-0.8c0-0.6,0.3-1.6,0.6-2.4c-0.3-0.1-0.6-0.4-0.7-0.7c-0.1,0-0.1-0.1-0.2-0.2c0,0,0-0.1,0-0.1
		c-0.1-0.2-0.1-0.4-0.1-0.6c0-0.9,0.6-1.6,1.4-1.6c0.7,0,1.3,0.7,1.4,1.5c0.3-0.7,0.9-1.1,1.7-1.1c0.5,0,0.9,0.2,1.2,0.5
		c0,0,0,0,0.1,0c0.1,0,0.2-0.1,0.4-0.1c-0.2-0.2-0.4-0.5-0.4-0.8c0-0.8,0.9-1.4,1.9-1.4c1.1,0,1.9,0.6,1.9,1.4
		c0,0.1-0.1,0.2-0.1,0.3c0.1,0.1,0.2,0.2,0.3,0.3c0.4-0.3,0.9-0.5,1.4-0.5c1.1,0,2,0.8,2,1.8c0,0.5-0.3,1-0.7,1.3
		c0.4,0.2,0.6,0.5,0.7,0.7c-0.1-0.2-0.1-0.4-0.1-0.6c0-1,0.9-1.8,2-1.8c0.8,0,1.4,0.4,1.8,1c0.3-0.4,0.8-0.7,1.4-0.7
		c0.2,0,0.4,0.1,0.6,0.1c0.1,0,0.2-0.1,0.3-0.1c0.2-0.1,0.4,0,0.4,0.3c0,0.2,0,0.3,0,0.4c0.3,0.3,0.4,0.7,0.4,1.2
		c0,0.3-0.1,0.6-0.2,0.8c0.3,0,0.7,0.1,0.8,0.7c0.2,1-1,2-1.8,2.3c0.3,0.1,0.5,0.3,0.6,0.5c0.2-0.5,0.5-0.9,0.8-1c0,0,0.1,0,0.1,0
		c0.2-0.5,0.6-0.9,1.2-0.9c0.6,0,1.1,0.6,1.2,1.3c0.2,0,0.3,0,0.4,0.3c0.1,0.3,0,0.4-0.3,0.5c-0.1,0-0.1,0-0.1,0
		c-0.2,0.6-0.6,1-1.2,1c-0.3,0-0.6-0.1-0.8-0.4c-0.2,0.2-0.5,0.3-0.8,0.4c0,0.3-0.1,0.5-0.2,0.7c0,0.3,0,0.7-0.1,1
		c0,0.1,0.1,0.2,0.2,0.2c0.6-0.2,1.1-1.3,1.4-1.4c0.8-0.2,0.7,1.7,1.4,1.5c0,0,0.2-0.1,0.4-0.2c0.1-0.1,0.3-0.2,0.5-0.3
		c-0.3-0.2-0.6-0.6-0.6-0.9c-0.2,0.1-0.3,0.2-0.4,0.2c-0.3,0.1-0.3-0.1-0.4-0.4c-0.1-0.3,1-1.2,1.3-1.2c0.2-0.1,0.3,0.1,0.3,0.3
		c0.3-0.1,0.7-0.3,1-0.3c1.1,0,1.9,0.6,1.9,1.4c0,0.3-0.2,0.5-0.4,0.8c0.1,0.1,0.1,0.1,0.2,0.2c0,0.1,0,0.2,0,0.3
		c-1.5,0.1-2.9,0.6-4.1,1.4c-0.1-0.1-0.1-0.1-0.1-0.1c0,0-0.4,0.1-0.5,0.1c-0.8-0.3-0.4-0.8-1.4-0.5c-0.1,0-0.3,0.1-0.3,0.1l0,0.5
		c0.1,0,0.6,0.1,0.8,0.2c0,0,0.4,0.3,0.6,0.4c-0.9,0.7-1.7,1.4-2.4,2.3c-1.2,1.4-2,3-2.8,4.7c-0.8,1.7-1.8,3.3-2.6,4.9
		c-0.1,0.2-0.6,0.9-0.5,1.2c0,0.1-0.1,0.5-0.1,0.6C386.9,360.4,387.1,363.4,387.1,364z M370.3,316.8c-0.1-0.2-0.2-0.4-0.3-0.5
		c-0.1-0.2-0.3-0.3-0.5-0.5c-0.2-0.1-0.5-0.3-0.8-0.4l-1.2-0.5c-1.6-0.7-2.5-1.7-2.5-3c0-0.9,0.3-1.6,1-2.3c0.7-0.6,1.5-0.9,2.6-0.9
		c1.4,0,2.5,0.7,3.2,2l-1.5,0.9c-0.3-0.5-0.5-0.8-0.8-0.9c-0.3-0.2-0.6-0.2-1-0.2c-0.5,0-0.9,0.1-1.2,0.4c-0.3,0.3-0.5,0.6-0.5,1.1
		c0,0.6,0.4,1.1,1.3,1.4l1.2,0.5c1,0.4,1.7,0.9,2.1,1.4c0.4,0.6,0.7,1.3,0.7,2.1c0,1.1-0.4,2-1.1,2.7c-0.7,0.7-1.7,1.1-2.7,1.1
		c-1,0-1.9-0.3-2.6-0.9c-0.7-0.6-1.1-1.5-1.2-2.6l1.8-0.4c0.1,0.7,0.2,1.2,0.4,1.5c0.4,0.5,0.9,0.8,1.6,0.8c0.6,0,1-0.2,1.4-0.6
		c0.4-0.4,0.6-0.9,0.6-1.4C370.4,317.2,370.4,317,370.3,316.8z M379.7,310.6v-1.7h7.3v1.7h-2.7v10.3h-1.8v-10.3H379.7z M395,320.9
		v-12h1.8v12H395z M404.7,310.6v-1.7h7.3v1.7h-2.7v10.3h-1.8v-10.3H404.7z M424.4,321.1c-1.3,0-2.4-0.5-3.2-1.4
		c-0.8-0.8-1.2-1.9-1.2-3.1v-7.7h1.8v7.2c0,1,0.2,1.8,0.5,2.3c0.5,0.7,1.2,1,2.1,1c0.9,0,1.6-0.3,2.1-1c0.3-0.5,0.5-1.2,0.5-2.3
		v-7.2h1.8v7.7c0,1.3-0.4,2.3-1.2,3.1C426.8,320.6,425.7,321.1,424.4,321.1z M397.6,241.8c2.4-2.4,5.4-3.6,8.8-3.6
		c3.4,0,6.3,1.2,8.7,3.6c2.4,2.4,3.7,5.4,3.7,8.7c0,3.4-1.2,6.3-3.7,8.7c-2.4,2.4-5.4,3.6-8.9,3.6c-3.1,0-5.8-1.1-8.3-3.2
		c-2.7-2.4-4.1-5.5-4.1-9.3C393.9,247.1,395.2,244.2,397.6,241.8z M393.2,278.7c0.9-2.1,2.1-3.9,3.7-5.5c1.6-1.6,3.5-2.8,5.7-3.6
		c2.2-0.9,4.6-1.3,7.3-1.3c2.6,0,5,0.4,7.2,1.3c2.2,0.9,4.1,2.1,5.7,3.6c1.6,1.6,2.8,3.4,3.7,5.5c0.9,2.1,1.3,4.3,1.3,6.8
		c0,2.4-0.4,4.7-1.3,6.8c-0.9,2.1-2.1,3.9-3.7,5.5c-1.6,1.6-3.5,2.8-5.7,3.6c-2.2,0.9-4.6,1.3-7.2,1.3c-2.6,0-5.1-0.4-7.3-1.3
		c-2.2-0.9-4.1-2.1-5.7-3.6c-1.6-1.6-2.8-3.4-3.7-5.5s-1.3-4.3-1.3-6.8C391.8,283.1,392.3,280.8,393.2,278.7z M373.5,238.6h5v8.7
		h7.9v-8.7h5v23.9h-5v-10.4h-7.9v10.4h-5V238.6z M379.5,269.6c2.2,0.9,4.1,2.1,5.7,3.6c1.6,1.6,2.8,3.4,3.7,5.5
		c0.9,2.1,1.3,4.3,1.3,6.8c0,2.4-0.4,4.7-1.3,6.8c-0.9,2.1-2.1,3.9-3.7,5.5c-1.6,1.6-3.5,2.8-5.7,3.6c-2.2,0.9-4.6,1.3-7.2,1.3
		c-2.6,0-5.1-0.4-7.3-1.3c-2.2-0.9-4.1-2.1-5.7-3.6s-2.8-3.4-3.7-5.5c-0.9-2.1-1.3-4.3-1.3-6.8c0-2.4,0.4-4.7,1.3-6.8
		c0.9-2.1,2.1-3.9,3.7-5.5c1.6-1.6,3.5-2.8,5.7-3.6c2.2-0.9,4.6-1.3,7.3-1.3C374.9,268.3,377.3,268.8,379.5,269.6z M334.4,301.7
		v-32.5h18.6v7.2h-10.2v5.4h9.3v7.2h-9.3v12.8H334.4z M336.2,308.9v12h-1.8v-12H336.2z M345.4,308.1l8.7,9.1v-8.3h1.8v12.7l-8.7-9.1
		v8.4h-1.8V308.1z M354.1,242.5c2.5-2.9,5.7-4.4,9.6-4.4c2.1,0,4.2,0.6,6.2,1.7l0.4,0.2v6.2l-1.4-1.1c-1.8-1.5-3.6-2.2-5.5-2.2
		c-2.1,0-3.7,0.7-5.2,2.2c-1.4,1.5-2.1,3.2-2.1,5.4c0,2.1,0.7,3.9,2.1,5.3c1.4,1.4,3.1,2.2,5.2,2.2c1,0,1.9-0.2,2.7-0.5
		c0.4-0.2,0.9-0.4,1.3-0.7c0.5-0.3,1-0.7,1.5-1.1l1.4-1.2v6.3l-0.4,0.2c-2,1.2-4.2,1.7-6.4,1.7c-3.4,0-6.3-1.2-8.7-3.6
		c-2.4-2.4-3.6-5.3-3.6-8.7C351.1,247.6,352.1,244.9,354.1,242.5z M344.7,254.3c-0.1-0.3-0.2-0.5-0.4-0.7c-0.2-0.2-0.5-0.5-0.8-0.7
		c-0.4-0.2-0.8-0.5-1.3-0.7l-2.1-0.9c-3.4-1.4-5.1-3.6-5.1-6.4c0-1.9,0.7-3.5,2.2-4.8c1.4-1.3,3.2-1.9,5.3-1.9
		c2.9,0,5.1,1.4,6.7,4.2l0.4,0.7l-4.2,2.5l-0.4-0.7c-0.6-1-1-1.3-1.1-1.4c-0.4-0.2-0.8-0.3-1.4-0.3c-0.7,0-1.3,0.2-1.8,0.6
		c-0.4,0.4-0.6,0.8-0.6,1.3c0,0.7,0.6,1.3,1.9,1.8l2.2,0.9c1.9,0.8,3.4,1.8,4.3,2.9c0.9,1.2,1.4,2.7,1.4,4.4c0,2.3-0.8,4.2-2.3,5.7
		c-1.5,1.5-3.4,2.2-5.7,2.2c-2.1,0-3.9-0.6-5.3-1.9c-1.4-1.3-2.2-3.1-2.6-5.3l-0.1-0.8l5.1-1.1l0.1,0.9c0.2,1.5,0.5,2.1,0.6,2.3
		c0.5,0.8,1.3,1.1,2.4,1.1c0.8,0,1.5-0.3,2-0.8c0.5-0.5,0.8-1.2,0.8-2.1C344.8,254.8,344.8,254.5,344.7,254.3z M332,362.3
		c1.8-3.9-7.3-9.1-6.7-14.2c0.6-5.1,7.8-7.4,11.4-5.9c3.7,1.6,3.9,0.9,5.3-0.9c1.4-1.8,4.8-2.3,7.4,0.3c2.6,2.6,3.4,8.9,5.1,7.4
		c1.3-1.1,2.8-3.7,4.7-3c-0.4,0.7-0.6,1.4-0.6,2.2c0,0.3,0,0.6,0.1,0.8c-0.1,0.2-0.2,0.3-0.4,0.5c-1.5,0.7-2.5,2.3-2.5,4
		c0,0.9,0.3,1.9,0.8,2.6c-0.4,0.9-0.4,1.7-0.2,2.3c0.1,0.6,0.6,1.6,1.3,2.3c-0.1,0.4-0.2,0.7-0.2,1.1c0,1.1,0.4,2.1,1.2,2.8
		c0.7,0.7,1.7,1.2,2.7,1.4c0.3,0.6,0.7,1.2,1.3,1.5c0.7,0.5,1.6,0.6,2.5,0.4c0.4-0.1,0.8-0.3,1.2-0.6c0.6,1.3,1.4,2.4,2.3,3.2
		c1.5,1.4,2.9,2.6,4.2,3.5c-1.3,0.3-2.5,0.5-3.7,0.8c-0.2,0-0.4,0.1-0.5,0.2c-0.2,0-0.4,0-0.6,0.1c-0.7,0.2-1.4,0.3-2,0.5
		c-2-0.6-3.4-0.9-5.6-1.3c-3.2-0.5-19.2-1.9-22.2-3.2C335,370,330.1,366.3,332,362.3z M443.4,375c-0.6,0.2-0.9,1.2-1.8,0.7
		c-0.3-0.2-0.8-0.1-1.4-0.2c0.8,0.6,1.4,1,2,1.5c0.2,0.1,0.4,0.3,0.4,0.6c-0.1,0.4-0.4,0.1-0.5,0.1c-0.7,0.3-1.6-0.4-2.4,0.2
		c0.3,0.3,0.7,0.1,0.8,0.6c-1,0-2,0-3.1,0c0.3,1,1.4,1,1.8,1.7c-1.6,0.4-2.6-1.2-4.1-1.3c0.1,0.9,1,1.6,0.7,2.5
		c-0.4-0.1-0.8-0.4-1-0.7c-0.7-1.2-1.8-1.9-3-2.4c-0.2-0.1-0.6-0.3-0.7-0.1c-0.1,0.2-0.1,0.6,0.2,0.9c0.9,0.8,1.6,1.7,2.8,2.2
		c0.5,0.2,1,0.6,1.3,1.4c-1.9-0.6-3.8-0.8-4.5-3.1c-0.2-0.7-0.8-1.1-1.3-1.6c-0.3-0.3-0.8,0.1-1.2,0.1c-1.1,0.1-1.4,0.6-1,1.7
		c0.1,0.2,0.2,0.4,0.3,0.7c0.1,0.2,0.2,0.4,0,0.5c-0.1,0.1-0.3,0-0.5-0.1c-0.8-0.3-1-1.1-1.4-1.7c-0.2-0.3-0.2-0.8-0.7-0.7
		c-0.5,0.1-1,0.2-1.2,0.6c-0.2,0.3,0.5,0.5,0.7,0.8c0.4,0.6,1.4,0.9,0.8,1.8c0.5,0.2,0.8,0.7,0.7,1.2c-0.1,0.5-0.6,0.5-1.1,0.3
		c-0.2-0.1-0.3,0.1-0.3,0.2l0.3,0.7l-0.1,1l-0.1,0c0,0,0,0,0,0c-0.1,0.3-0.1,0.7,0.4,0.9c0.3,0.2,0.8,0.3,0.8,0.8
		c-1.2-0.2-2.3,0.1-3.4,0.1c-0.3,0-0.4,0.2-0.4,0.6c0.1,0.3,0.2,0.5,0.5,0.5c0.8,0.2,1.4,0.6,2.1,1.1c-0.9,0.5-1.6,0.1-2.3-0.2
		c-0.2-0.1-0.4-0.2-0.6,0c-0.2,0.3,0.1,0.4,0.2,0.6c0.4,0.7,0.9,1.3,1.5,1.8c0.5,0.4,0.9,0.8,0.7,1.5c-0.7,0-1-0.7-1.8-1.2
		c0.5,0.7,0.8,1.1,0.9,1.6c0.1,0.3,0,0.7-0.3,0.6c-0.4-0.1-1.2-0.5-1.2-0.6c-0.3-0.9-1-1.5-1.2-2.4c-0.3-1.3-0.3-2.7-1.3-3.9
		c-0.1-0.1-0.2-0.3-0.1-0.4c-0.2,0.2-0.4-0.3-0.8-0.1c0.3,1.1,0.6,2.3,0.9,3.4c0.2,0.6,0.6,1.3-0.1,1.9c0-0.2,0-0.4-0.2-0.5
		c-0.2,0.3,0,0.4,0.2,0.5c0,0.7,0.2,1.6-0.6,2.1c-0.2-0.3-0.1-1.1-0.4-1c-1,0.5-0.6-0.4-0.6-0.6c-0.1-0.5,0-1.1-0.1-1.6
		c-0.4,0.2-0.2,0.7-0.8,0.9c0.4-1.2,0.1-2.4,0.7-3.3c0.6-0.9,0-2.7-1.1-2.9c-1.2-0.3-2.3-0.8-3.4-1.3c-1.4-0.6-2.8-1.1-4-2.3
		c0.4,1.6,1.9,1.7,2.9,2.4c-0.8,0-0.7,0.5-0.7,1c-0.2,1.1-0.3,1.1-1.1,0.4c-1.2-1.1-1.9-2.5-2.5-3.9c-0.7-1.6-2-2.4-3.6-2.4
		c-1.8,0-3.6,0.2-5.4,0c0,2-0.7,3.7-2.2,4.1c-4.1,1.2-10.5,0.4-15.7,0.4c-7.2-0.1-15.9-0.8-22.4-1.4c-10-1-4.5-1.2,8-4.3
		c0.7-0.2,1.5-0.4,2.4-0.6l0.8,2.7l0.3-3c1.6-0.3,3.3-0.7,5.4-1.1l0.6,3.3l0.3-3.4c1.1-0.2,2.2-0.5,3.5-0.7l1.2,4.5l-0.3-4.7
		c0.7-0.1,1.5-0.3,2.3-0.5l0.8,3.9l0.1-4c0.8-0.2,1.2-0.2,1.9-0.3l0.9,3.1l0.1-3.3c1.3-0.3,2.4-0.5,3.3-0.6l0.6,5.2l0.4-5.4
		c1.9-0.3,3-0.4,4.4-0.4c1.7,0,3,2,3.4,4.3c1.5-0.4,3.6-1,4.9-1.3c1.6-0.4,1.9-2.8,3.4-3.4c0.7-0.3,1.1-0.7,0.9-1.7
		c-0.3-1.3-0.1-1.7,0.9-2.1c0.2,0.7-0.1,1.4-0.2,2.1c0.5,0,0.8-0.1,0.9-0.5c0.1-0.2,0.1-0.3,0.4-0.2c1.2,0.6,2,0.3,2.6-0.8
		c0.1-0.2,0.2-0.2,0.4-0.1c0.1,0.1-0.1,0.5,0.3,0.3c0.2-0.1,0.4-0.3,0.3-0.6c-0.2-0.6-0.2-1.3-0.4-2c-0.7,0.4-1,0.9-1.1,1.6
		c0,0.2-0.1,0.4-0.3,0.4c-0.1,0-0.3-0.2-0.2-0.3c0.5-0.9,0.4-2.3,1.5-2.8c0.7-0.3,0.8-0.8,0.7-1.4c-0.2-0.9,0.1-1.4,0.8-1.7
		c0.7,0.8,1.2,1.7,2.5,1c0.3-0.2,1.2-0.1,0.8,0.9c0,0,0,0.1,0,0.1c-0.1,0.4-0.2,0.8-0.5,0.9c-1,0.3-0.4,0.9-0.5,1.5
		c0.6-0.4,0.3-0.8,0.4-1.1c0.4-0.2,0.4,0.8,0.9,0.3c0.3-0.3,0.4-0.5,0.5-0.8c0.1-0.1,0.2-0.3,0.2-0.5c0.1-0.2,0.1-0.4,0.4-0.4
		c0.2,0.5,0.6,1.1,1.3,0.9c-0.3,0.5-0.8,0.6-1.1,1c-0.1,0.1-0.5,0.1-0.1,0.4c0.1,0.1,0.1,0.5,0.5,0.3c0.5-0.2,0.9-0.4,1.2-0.9
		c0.2-0.3,0.6-0.9,0.7-0.9c0.6,0.3,1.5,0.3,1.7,1.3c0.1,0.7,0.1,1.5-0.4,1.9c-0.2,0.2-0.3,0.4-0.4,0.6c-0.2-0.1-0.4-0.1-0.7-0.2
		c-0.2,0-0.5-0.1-0.4,0.2c0.1,0.2-0.3,0.6,0.2,0.7c0.4,0.1,0.7,0.1,0.4,0.6c0,0.1,0.2,0.4,0.5,0.4c0.3,0,0.4-0.1,0.4-0.4
		c0,0,0,0,0-0.1c0-0.1,0-0.1,0.1-0.1c0.3-0.5,0.5-1.1,1-1.4c0.1-0.1,0.2-0.3,0.4-0.2c0.2,0.1,0.1,0.3,0.2,0.4
		c0.1,0.8-0.5,1.3-0.9,1.9c0.9-0.6,1.4-1.3,1.4-2.4c0-2.2,1.7-3.2,3.2-4.4c0.1-0.1,0.2-0.1,0.5,0.1c-0.8,1.3-2,2.6-1.4,4.5
		c0.7-0.3,1.1-1,1.1-1.8c0-0.9,0.4-1.3,1.1-1.8c0.2,0.7,0,1.4,0,2c0,0.2,0,0.3,0.1,0.5c0.2,0.2,0.4,0,0.5-0.1
		c0.2-0.2,0.4-0.4,0.6-0.7c0.5-0.8,1.3-1.3,2.3-1.9c-0.2,1-1,1.5-1.2,2.4c1-0.2,1.8-0.9,2.8-0.9c0.2,0.4-0.6,0.4-0.2,0.8
		c0.3,0.3,0.6,0.3,0.9,0.1c0.2-0.1,0.3-0.2,0.4-0.4c0.2-0.4,0.8-0.6,1-0.4c0.4,0.3,0,0.7-0.3,1c-0.4,0.4-0.6,0.9-0.8,1.4
		c0.6,0,1-0.3,1.5-0.4c0.5-0.2,0.9,0.5,1.5,0.4c-0.4,0.6-1.1,0.3-1.6,0.7c0.3,0,0.4,0.1,0.5,0.1c0.2,0,0.5-0.2,0.7,0.2
		c0.1,0.4-0.3,0.4-0.5,0.5c-0.3,0.2-0.7,0.2-1.1,0.1c-0.5-0.1-0.7,0.3-0.8,0.6c-0.1,0.3,0,0.7,0.1,1.1c1-0.1,0.3,0.5,0.3,0.7
		c-0.1,0.6-0.6,0.8-1,1.2c-0.4,0.3-0.9,0.9-0.6,1.4c0.3,0.6,0.7-0.1,1,0c1,0.3,1.5-0.4,1.7-1.2c0.2-0.9,0.9-1.6,1.1-2.4
		c0.1-0.2,0.2-0.5,0.6-0.4c0,0.2,0,0.3-0.1,0.4c-0.1,0.4-0.5,0.9-0.1,1.1c0.6,0.3,0.5-0.5,0.8-0.8c0,0,0.1,0,0.1,0
		c0.8,1.6-1.4,1.7-1.4,3c0.9-0.3,1.8-0.4,2.4-0.8c0.7-0.4,1.4-0.3,2.1-0.4c0.9-0.1-0.1,0.9,0.6,0.8C443.4,374.9,443.4,375,443.4,375
		z M461.1,362.3c1.8,4.1-3.1,7.8-6.1,9c-1.3,0.6-5.3,1.1-9.5,1.7c-0.1-0.1-0.1-0.3-0.2-0.4c-0.5-0.7-1.2-1.1-2-1.1l0,0
		c-0.2,0-0.4,0-0.6,0c-0.1,0-0.3,0-0.4,0c0,0-0.1,0-0.1,0c0-0.1-0.1-0.2-0.1-0.3c0,0,0,0,0-0.1c-0.2-0.4-0.5-0.8-0.9-1
		c-0.1-0.1-0.2-0.2-0.3-0.3c0.2-0.6,0.1-1.3-0.2-1.9c-0.3-0.6-0.8-1-1.4-1.2c-0.1-0.7-0.4-1.4-1-1.9c0,0-0.1-0.1-0.1-0.1
		c0.2-0.2,0.4-0.3,0.4-0.3s5,1.7,8,2.1c3.1,0.4,3.6,0.1,5.3-0.1c1.6-0.3,4.3-1.4,0.8-0.8c-3.4,0.6-4.5,0.4-7.3-0.3
		c-2.8-0.7-5.4-1.6-5.4-1.6s1.6-1.3,4-3.1c2.4-1.9,3.5-2.6,3.9-2.6c0.4,0,4.6,0.3,6.9-0.2c2.3-0.6,2.3-1,3.8-1.7
		c0.2-0.1,1.1-0.9,0.6-0.7c-1.6,0.6-3.1,1.8-7.5,1.8c-2.2,0-3.2-0.2-3.2-0.2s9.8-7.9,11.1-10.4c0.4-0.7-2.9,2.2-3,2.3
		c-5.3,4.9-8.8,7.3-10.4,8.6c-1.6,1.3-4.9,4-4.9,4s1.2-1.5,1.7-4.1c0.5-2.6,0.9-5.1,0.5-6.5c-0.4-1.2-1.2-2.7-0.6,0.1
		c0.6,2.8-0.8,6-1.8,8.8c-0.9,2.8-1.6,3.1-1.6,3.1s-0.9,0.7-2.2,1.6c-0.1,0-0.2-0.1-0.4-0.1c-0.4,0-0.8,0-1.2,0.1
		c-0.1,0-0.2-0.1-0.3-0.1c-0.2-0.5-0.5-0.9-0.9-1.1c-0.4-0.3-0.8-0.4-1.2-0.4c-0.5-0.1-1.1,0.1-1.6,0.3l-0.1,0.1
		c-0.2,0.1-0.4,0.2-0.6,0.3c-0.1,0-0.1-0.1-0.2-0.1c-0.1-0.2-0.2-0.3-0.3-0.5c-0.5-0.6-1.1-0.8-1.6-0.9c1.3-5.6,1.7-11.6,3.3-14.1
		c2.6-4.1,4.8-0.1,6.5,1.4c1.7,1.5,2.5-4.8,5.1-7.4c2.6-2.6,6-2.2,7.4-0.3c1.4,1.8,1.7,2.5,5.3,0.9c3.6-1.6,10.9,0.7,11.4,5.9
		C468.4,353.2,459.3,358.4,461.1,362.3z"/>
	<path class="st0" d="M426.2,406.9l-1.6,0.4l1.4,5.3c0.2,0.7,0.2,1.2,0.1,1.6c-0.2,0.5-0.6,0.9-1.2,1c-0.6,0.2-1.1,0.1-1.5-0.3
		c-0.3-0.3-0.5-0.7-0.7-1.4l-1.4-5.3l-1.6,0.4l1.4,5.6c0.2,0.9,0.7,1.6,1.5,2.1c0.6,0.3,1.2,0.5,1.8,0.5c0.3,0,0.6,0,0.9-0.1
		c1-0.2,1.7-0.8,2.2-1.6c0.4-0.8,0.5-1.6,0.3-2.6L426.2,406.9z"/>
	<path class="st0" d="M431.9,375.6c0.2,0.4,0.4,0.7,0.9,0.8C432.8,375.8,432.6,375.5,431.9,375.6z"/>
	<path class="st0" d="M433.9,371.5c0-0.7-0.1-1.2-0.7-1.1c-0.6,0.1-1.4,0-1.7,0.7c-0.2,0.4,0.9,1.3,1.7,1.4
		C433.8,372.4,433.8,371.8,433.9,371.5z"/>
	<path class="st0" d="M387.1,339.7c0.3-0.6,1-1,1.5-1.2c0,0,0-0.1,0-0.1c0-0.1,0-0.1,0-0.2c-0.5-0.1-0.9-0.4-1.2-0.9
		c0.1,0.8-1.1,1.6-1.5,1.7l-0.2,0c-0.1,0-0.5-0.2-0.6-0.1c-0.1,0-0.4,0.2-0.4,0.4c-0.1,0-0.2,0.3-0.2,0.3c0.1,0.4,0.3,0.7,0.5,1
		c0.1-0.3,0.4-0.5,0.6-0.6c0.1-0.3,0.2-0.6,0.4-0.6c0.2,0,0.4,0.1,0.5,0.3c0.1,0,0.2,0,0.3,0C386.9,339.7,387,339.7,387.1,339.7z"/>
	<path class="st0" d="M387.1,347.7c0,0-0.2-0.1-0.5-0.2c0,0.2,0.1,0.4,0.1,0.5c0,0.2-0.1,0.3-0.1,0.5c0.2-0.1,0.4-0.2,0.6-0.3
		L387.1,347.7z"/>
	<path class="st0" d="M403.4,291.9c0.8,0.8,1.8,1.4,2.9,1.9c1.1,0.4,2.3,0.7,3.5,0.7c1.2,0,2.4-0.2,3.5-0.7c1.1-0.4,2.1-1.1,2.9-1.9
		c0.8-0.8,1.5-1.8,2-2.8c0.5-1.1,0.7-2.3,0.7-3.6c0-1.3-0.2-2.5-0.7-3.6c-0.5-1.1-1.2-2-2-2.8c-0.8-0.8-1.8-1.4-2.9-1.9
		c-1.1-0.4-2.3-0.7-3.5-0.7c-1.2,0-2.4,0.2-3.5,0.7c-1.1,0.4-2.1,1.1-2.9,1.9c-0.8,0.8-1.5,1.8-2,2.8c-0.5,1.1-0.7,2.3-0.7,3.6
		c0,1.3,0.2,2.5,0.7,3.6C401.9,290.2,402.6,291.1,403.4,291.9z"/>
	<path class="st0" d="M406.3,258.1c2.1,0,3.8-0.7,5.3-2.2c1.4-1.5,2.2-3.2,2.2-5.4c0-2.2-0.7-3.9-2.1-5.4c-1.4-1.5-3.1-2.2-5.2-2.2
		c-2.1,0-3.8,0.7-5.3,2.2c-1.4,1.4-2.1,3.2-2.1,5.3c0,2.2,0.7,4,2.2,5.4C402.7,257.4,404.4,258.1,406.3,258.1z"/>
	<path class="st0" d="M385.3,352.6c0-0.4,0.2-0.7,0.4-1c-0.1-0.1-0.1-0.3-0.2-0.5c-0.1-0.5-0.1-0.9,0-1.3c-0.2,0.1-0.4,0.1-0.7,0.1
		c0,0-0.1,0-0.1,0c0,0,0,0,0,0l0.2,6.7c0.4-0.7,0.9-1.7,1.2-2.6C385.7,353.8,385.3,353.2,385.3,352.6z"/>
	<path class="st0" d="M379,345.9C379,345.9,379,345.9,379,345.9L379,345.9L379,345.9z"/>
	<path class="st0" d="M385.6,343.4c0.2,0.9-0.2,1.9-0.8,2.7c0,0,0.1,0,0.1,0c0.2,0,0.4,0.1,0.5,0.1c0.4-0.5,0.8-1.2,0.6-2.5
		c0-0.2,0-0.4-0.1-0.6c-0.5-0.2-0.9-0.6-1.1-1.1c-0.1,0-0.1,0.1-0.2,0.1c-0.4,0.1-0.6,0.2-1-0.1l-0.2,0.7
		C384.4,342.5,385.4,342.4,385.6,343.4z"/>
	<path class="st0" d="M381.1,354.1c-0.2,0.3-0.5,0.6-0.8,0.6c-0.5,0.1-0.8-0.2-0.9-0.6c-0.2,0.1-0.4,0.3-0.6,0.3
		c0.1,0.4,0.2,0.9,0.3,1.4c0.3-0.3,0.7-0.4,1.1-0.4c0,0,0.1,0,0.1,0c0.3-0.5,1-0.9,1.7-0.9c0.3,0,0.5,0.1,0.7,0.1
		c0.1-0.2,0.2-0.4,0.2-0.6c-0.3,0.2-0.6,0.3-1,0.3C381.8,354.4,381.4,354.3,381.1,354.1z"/>
	<path class="st0" d="M363.1,285.5c0,1.3,0.2,2.5,0.7,3.6c0.5,1.1,1.2,2,2,2.8c0.8,0.8,1.8,1.4,2.9,1.9c1.1,0.4,2.3,0.7,3.5,0.7
		c1.2,0,2.4-0.2,3.5-0.7c1.1-0.4,2.1-1.1,2.9-1.9c0.8-0.8,1.5-1.8,2-2.8c0.5-1.1,0.7-2.3,0.7-3.6c0-1.3-0.2-2.5-0.7-3.6
		c-0.5-1.1-1.2-2-2-2.8c-0.8-0.8-1.8-1.4-2.9-1.9c-1.1-0.4-2.3-0.7-3.5-0.7c-1.2,0-2.4,0.2-3.5,0.7c-1.1,0.4-2.1,1.1-2.9,1.9
		c-0.8,0.8-1.5,1.8-2,2.8C363.3,283,363.1,284.2,363.1,285.5z"/>
	<path class="st0" d="M383.8,349.5C383.7,349.5,383.7,349.5,383.8,349.5l-0.5,1c0.3,0.1,0.3,0.2,0.4,0.5c0,0.1,0,0.2,0,0.2
		c0.1,0.1,0.2,0.2,0.3,0.3c0.1-0.5,0.1-1,0-1.5C383.9,350.1,383.8,349.8,383.8,349.5z"/>
	<path class="st0" d="M435.5,369C435.5,369,435.5,369,435.5,369C435.5,369,435.5,369,435.5,369L435.5,369z"/>
	<path class="st0" d="M420.1,385.6C420.1,385.6,420.1,385.6,420.1,385.6c-0.5,0.1-0.9,0-0.8-0.7c0-0.1,0-0.2-0.1-0.3c0,0,0,0,0,0
		c0-0.1-0.1-0.1-0.2-0.1c-0.1,0-0.2,0-0.3,0c-0.1,0-0.1,0-0.2,0.1c-0.3,0.2,0,0.4,0.1,0.6c0.2,0.3,0.5,0.5-0.1,0.6
		c-0.1,0,0.1,0.2,0.2,0.3c0.2,0.2,0.6,0.2,0.5,0.6c0.6,0.1,0.9,0.8,1.5,0.8C421.2,386.7,420.4,386.3,420.1,385.6z"/>
	<path class="st0" d="M365.3,371.3c-2.6-2-11.5-8.7-11.5-8.7s-0.6-0.3-1.6-3.1c-0.9-2.8-2.4-6-1.8-8.8c0.6-2.8-0.2-1.3-0.6-0.1
		c-0.4,1.4,0,3.9,0.5,6.5c0.5,2.6,1.7,4.1,1.7,4.1s-3.2-2.7-4.9-4c-1.6-1.3-5.2-3.6-10.4-8.6c-0.1-0.1-3.3-3-3-2.3
		c1.3,2.5,11.1,10.4,11.1,10.4s-1,0.2-3.2,0.2c-4.5-0.1-6-1.3-7.5-1.8c-0.5-0.2,0.4,0.6,0.6,0.7c1.4,0.8,1.5,1.2,3.8,1.7
		c2.3,0.6,6.5,0.3,6.9,0.2c0.4,0,1.5,0.8,3.9,2.6c2.4,1.8,4,3.1,4,3.1s-2.6,1-5.4,1.6c-2.8,0.7-3.9,0.9-7.3,0.3
		c-3.4-0.6-0.8,0.5,0.8,0.8c1.6,0.3,2.2,0.5,5.3,0.1c3.1-0.4,8-2.1,8-2.1s2.9,2.3,4.4,3.2c1.7,1,6.3,5.1,8.3,5.7
		C367.7,373.3,366.5,372.2,365.3,371.3z"/>
	<path class="st0" d="M420.1,385.6C420.1,385.6,420.1,385.6,420.1,385.6c0,0,0-0.1,0-0.1C420.1,385.5,420.1,385.6,420.1,385.6z"/>
</g>
</svg>
