<?xml version="1.0" encoding="utf-8"?>
<!-- Generator: Adobe Illustrator 16.0.0, SVG Export Plug-In . SVG Version: 6.00 Build 0)  -->
<!DOCTYPE svg PUBLIC "-//W3C//DTD SVG 1.1//EN" "http://www.w3.org/Graphics/SVG/1.1/DTD/svg11.dtd">
<svg version="1.1" id="Layer_1" xmlns="http://www.w3.org/2000/svg" xmlns:xlink="http://www.w3.org/1999/xlink" x="0px" y="0px"
	 width="159.289px" height="159.289px" viewBox="176.679 175.774 159.289 159.289"
	 enable-background="new 176.679 175.774 159.289 159.289" xml:space="preserve">
<g>
	<path fill="#662E6B" d="M239.062,288.064c0,0.518-0.388,0.905-0.84,0.97c-0.517,0.13-0.711-0.129-0.84-0.646
		c-0.129-0.517,0.064-0.775,0.259-0.905c-0.129-0.193-0.194-0.388-0.194-0.646l0,0c-0.323,0.518-0.905,0.905-1.293,1.164
		l0.711,0.518c0,0,0,0.064,0.064,0.193c0.065,0.389-0.194,0.518-0.194,0.97c0,0.065,0,0.065,0,0.065
		c0.129-0.065,0.323-0.065,0.453-0.065c0.064,0,0.064,0,0.129,0c0.064-0.064,0.194-0.064,0.258-0.129c0.194-0.065,0.323,0,0.517,0
		c0.194-0.518,0.582-0.841,1.035-0.841c0.064,0,0.129,0.064,0.129,0.064c0-0.064,0.064-0.129,0.064-0.193
		C239.192,288.453,239.127,288.259,239.062,288.064C239.127,288.064,239.062,288.064,239.062,288.064z"/>
	<path fill="#662E6B" d="M241.778,287.16c-0.453-0.13-0.84-0.518-0.905-1.035c-0.064-0.064-0.129-0.064-0.129-0.193
		c-0.194,0.129-0.388,0.193-0.582,0.193c-0.259,0-0.517-0.129-0.711-0.258c0.194,0.193,0.323,0.387,0.388,0.646
		c0.129-0.065,0.323-0.13,0.453-0.13c0.646,0,1.164,0.582,1.164,1.293c0,0.582-0.388,1.034-0.905,1.229
		c0.065,0,0.065,0.064,0.129,0.064c0.582,0.194,2.004,0.711,2.133,0.711c-0.129-0.646-0.388-1.228-0.646-1.874
		C242.036,287.677,241.842,287.418,241.778,287.16z"/>
	<path fill="#662E6B" d="M243.458,281.083c-0.194,0-0.323,0-0.453-0.065c0.129,0.065,0.259,0.26,0.323,0.518
		c0.129,0,0.194,0,0.323,0.064c0-0.064-0.064-0.064-0.064-0.129c0-0.129,0.064-0.259,0.064-0.388
		C243.588,281.083,243.523,281.083,243.458,281.083z"/>
	<path fill="#662E6B" d="M242.166,283.475c-0.129-0.129-0.258-0.258-0.323-0.452c-0.129-0.065-0.194-0.065-0.323-0.194
		c0,0.064,0,0.129,0.129,0.518c0.065,0.129,0.129,0.323,0.194,0.582C241.907,283.733,242.036,283.604,242.166,283.475z"/>
	<path fill="#662E6B" d="M242.295,280.501c-0.064,0-0.194-0.064-0.259-0.064c-0.194,0.259-0.517,0.388-0.84,0.388h-0.064
		c-0.064,0.259-0.064,0.518,0,0.84c0,0.194,0.129,0.194,0.194,0.453c0,0.193-0.194,0.259-0.323,0.259
		c-0.129,0.064-0.323,0.064-0.323-0.065c-0.711,0.194-0.711,0.324-0.646,0.389c0.194,0.129,0.388,0.323,0.517,0.518
		c0.065,0,0.065,0,0.129,0.064c0.065,0.064,0.453,0.84,0.517,0.904c-0.129-0.322-0.194-0.84-0.129-1.163
		c0-0.194,0.323-0.323,0.388-0.518c0.194-0.581,0.258-1.293,0.84-1.487c0.259-0.064,0.453-0.064,0.646,0
		C242.683,280.889,242.424,280.76,242.295,280.501z"/>
	<path fill="#662E6B" d="M244.364,287.418l0.064,0.064C244.364,287.418,244.364,287.418,244.364,287.418L244.364,287.418z"/>
	<path fill="#662E6B" d="M235.442,289.746c-0.129-0.518,0-0.906,0.323-1.423l-0.388-0.064c0,0.905-0.259,1.034-1.035,1.228v0.065
		c0,0.194,0.129,0.259,0.194,0.194c0.194-0.065,0.258-0.194,0.388-0.26c0.194-0.064,0.258,0,0.323,0.13
		c0.064,0.259-0.065,0.323,0,0.517c0.064,0.194,0.194,0.26,0.194,0.453c0.064,0.323-0.129,0.518-0.453,0.711
		c0.129,0.064,0.194,0.129,0.259,0.193l0.064-0.064c0.065,0,0.129,0,0.194,0c0,0,0,0,0-0.064c0-0.518,0.323-0.969,0.776-1.163
		c0-0.065,0.065-0.065,0.065-0.13l-0.065-0.064C235.701,290.004,235.572,290.393,235.442,289.746z"/>
	<path fill="#662E6B" d="M234.796,287.677c0.517-0.13,0.388-1.163,0.711-1.681c-0.129-0.064-0.194-0.129-0.323-0.193
		c0,0.193-0.065,0.387-0.194,0.581c0,0,0,0,0,0.064c0.129,0.712-0.323,0.646-0.775,0.712
		C234.279,287.547,234.279,287.807,234.796,287.677z"/>
	<path fill="#662E6B" d="M237.705,282.44c0.064,0,0.064,0.064,0.129,0.064c0.064,0,0.064-0.064,0.129-0.064
		c0.064,0,0.194,0.064,0.194,0.194v0.064c0.194,0.129,0.258,0.323,0.323,0.582c0.194-0.389,0.582-0.711,1.034-0.711
		c0-0.065,0-0.194,0.064-0.26c-0.129,0.065-0.711-0.193-1.099-0.387c-0.259,0.193-0.582,0.322-0.905,0.387
		c0,0.065,0.065,0.194,0.065,0.324C237.641,282.505,237.641,282.44,237.705,282.44z"/>
	<path fill="#662E6B" d="M238.222,279.467v0.064c0-0.064,0.065-0.064,0.129-0.064C238.287,279.467,238.222,279.467,238.222,279.467z
		"/>
	<path fill="#662E6B" d="M238.739,280.76c0.129-0.129,0.259-0.194,0.194-0.389c0-0.064-0.129-0.193-0.194-0.322
		c0-0.194,0.065-0.324,0.259-0.389c0.388-0.064,0.258,0.259,0.323,0.518c0.323-0.064,0.517-0.193,0.776-0.323
		c0-0.13-0.065-0.194-0.065-0.323s0.065-0.259,0.065-0.388h-0.065c-0.194,0.064,0,0.259-0.388,0.388
		c-0.323,0.064-0.582-0.129-0.711-0.453c-0.129,0.194-0.323,0.324-0.582,0.389c0.129,0,0.323,0.193,0.323,0.258
		c0,0.194-0.129,0.324-0.259,0.324c-0.194,0.064-0.258,0-0.323-0.194c0,0,0,0,0-0.064c0,0.064-0.064,0.064-0.064,0.129
		C238.352,280.178,238.61,280.437,238.739,280.76z"/>
	<path fill="#662E6B" d="M234.796,284.51c-0.064,0-0.129,0.064-0.258,0.064c0.064,0.064,0.129,0.064,0.194,0.129
		C234.796,284.639,234.796,284.574,234.796,284.51z"/>
	<path fill="#662E6B" d="M238.416,283.41c0,0.129-0.064,0.193-0.129,0.259h0.065C238.352,283.604,238.352,283.539,238.416,283.41z"
		/>
	<path fill="#662E6B" d="M248.048,275.523c-0.194-0.194-0.258-0.453-0.258-0.711c0-0.064,0.064-0.194,0.064-0.259
		c-0.129-0.065-0.194-0.194-0.323-0.259c-0.194,0.129-0.453,0.193-0.711,0.193c-0.065,0-0.065,0-0.129,0
		c0.323,0.518,0.711,1.293,0.776,1.682C247.661,275.781,247.79,275.652,248.048,275.523z"/>
	<path fill="#662E6B" d="M237.77,285.932c0,0.064,0,0.129,0,0.258c0.194-0.322,0.582-0.582,0.97-0.582
		c0.259,0,0.517,0.13,0.711,0.26c-0.065-0.065-0.194-0.194-0.194-0.26c-0.064,0-0.064,0-0.129,0.065c0-0.065,0-0.13,0-0.259
		c-0.065-0.129-0.129-0.323-0.129-0.518l0,0c-0.065-0.064-0.129-0.064-0.194-0.129c-0.129,0.389-0.388,0.711-0.711,0.775l0,0
		c-0.323-0.064-0.582-0.193-0.775-0.258c0,0.129-0.065,0.193-0.129,0.258C237.446,285.543,237.705,285.673,237.77,285.932z"/>
	<path fill="#662E6B" d="M250.182,287.482c0.065,0,0.129-0.129,0.129-0.193h-0.064C250.247,287.354,250.182,287.482,250.182,287.482
		z"/>
	<path fill="#662E6B" d="M245.98,279.919c-0.065,0,0,0.13,0,0.13C246.044,279.984,246.044,279.854,245.98,279.919z"/>
	<path fill="#662E6B" d="M245.592,284.186c0.259,0.13,0.517,0.453,0.582,0.775c0-0.064,0.064-0.129,0.129-0.193
		c-0.259-0.258-0.453-0.518-0.453-0.97C245.786,283.798,245.721,283.992,245.592,284.186z"/>
	<path fill="#662E6B" d="M243.717,283.539c0.194,0.194,0.258,0.453,0.323,0.776c0.064-0.065,0.064-0.13,0.064-0.259
		c0-0.064-0.129-0.518-0.129-0.711C243.911,283.475,243.847,283.539,243.717,283.539z"/>
	<path fill="#662E6B" d="M246.95,277.463c0-0.129,0.064-0.323,0.194-0.323s0.129,0,0.323,0.064c0-0.064,0-0.517,0-0.646v-0.064
		v-0.065c-0.065,0.065-0.388,0.26-0.453,0.389h-0.064h-0.065c-0.129-0.064-0.646-0.194-0.776-0.259c0,0.13-0.064,0.259-0.064,0.323
		C246.432,276.945,246.755,277.14,246.95,277.463z"/>
	<path fill="#662E6B" d="M248.048,277.786v-0.13c0-0.129-0.194-0.258-0.323-0.193h-0.064c-0.064,0.129-0.259,0.388-0.259,0.518
		l0.453,0.258C247.79,278.109,248.048,277.786,248.048,277.786z"/>
	<path fill="#662E6B" d="M245.269,277.074c0.129-0.064,0.194-0.129,0.323-0.193c0-0.064-0.064-0.064-0.064-0.129
		c0-0.13,0.194-0.389,0.258-0.389h0.259c0.064,0,0.129-0.064,0.064-0.129c-0.129-0.323-0.517-0.129-0.84-0.129
		c-0.129,0.064-0.323,0.129-0.517,0.129c-0.129,0-0.258-0.064-0.388-0.064c0,0.193-0.065,0.452-0.194,0.582
		C244.428,276.622,244.881,276.816,245.269,277.074z"/>
	<path fill="#662E6B" d="M247.079,277.915c0,0.065,0,0.13,0,0.13c0-0.064,0.065-0.064,0.065-0.13
		C247.144,277.98,247.144,277.98,247.079,277.915z"/>
	<path fill="#662E6B" d="M252.961,281.664v-0.193c-0.258,0.064-0.388,0.323-0.582,0.518c0.129,0.064,0.194,0.129,0.323,0.193
		C252.833,281.924,252.961,281.729,252.961,281.664z"/>
	<path fill="#662E6B" d="M251.475,280.307c0,0.13,0.065,0.324,0.065,0.453l0.323-0.064
		C251.733,280.631,251.604,280.501,251.475,280.307z"/>
	<path fill="#662E6B" d="M251.604,281.988c-0.064-0.13-0.129-0.389-0.129-0.646c-0.452,0.582-0.646,0.388-0.97,1.229
		c0.129,0,0.323,0.064,0.388,0.193C251.022,282.44,251.281,282.117,251.604,281.988z"/>
	<path fill="#662E6B" d="M251.087,284.057c0,0.193-0.064,0.388-0.129,0.582c0.065,0,0.129-0.064,0.194-0.064
		c0.259,0,0.453,0.129,0.646,0.258l0,0h0.065c0.064,0.064,0.258,0.259,0.258,0.259s0,0.065,0,0.194c0,0.064,0.065,0.064,0.065,0.129
		l0.323-0.582c-0.259-0.129-0.323-0.193-0.388-0.388c-0.064,0-0.129,0.065-0.258,0.065
		C251.668,284.444,251.345,284.314,251.087,284.057z"/>
	<path fill="#662E6B" d="M246.626,282.764c0.258-0.064,0.452,0.193,0.646,0.129c0.064,0,0.129,0,0.129-0.193
		c-0.129-0.129-0.258-0.194-0.388-0.323c-0.194,0.259-0.517,0.452-0.905,0.452c-0.064,0-0.129-0.064-0.258-0.064
		c0.064,0.193,0.129,0.388,0.129,0.582C246.174,283.217,246.432,282.828,246.626,282.764z"/>
	<path fill="#662E6B" d="M243.071,279.338c0.064,0,0.194,0,0.258-0.064c-0.064-0.065-0.129-0.13-0.129-0.195
		C243.135,279.208,243.135,279.273,243.071,279.338z"/>
	<path fill="#662E6B" d="M251.151,279.531c0.065,0.064,0.194,0.129,0.194,0.259c0-0.452,0.259-0.776,0.646-0.97
		c-0.194,0-0.452-0.064-0.646-0.064c0,0.064,0.065,0.129,0.065,0.193C251.41,279.144,251.281,279.402,251.151,279.531z"/>
	<polygon fill="#662E6B" points="227.039,321.552 225.164,315.863 222.448,321.746 223.418,322.197 225.034,318.707 
		226.909,324.396 229.624,318.707 229.624,318.578 228.655,318.125 	"/>
	<path fill="#662E6B" d="M241.972,186.828l2.263-0.452l0.84,1.293l1.164-0.194l-4.073-5.818l-1.745,6.981l1.164-0.194
		L241.972,186.828z M242.683,183.984l0.97,1.422l-1.422,0.258L242.683,183.984z"/>
	<polygon fill="#662E6B" points="251.281,181.98 251.54,186.958 252.638,186.828 252.315,181.915 253.673,181.851 253.608,180.816 
		249.858,181.01 249.923,182.044 	"/>
	
		<rect x="256.623" y="183.307" transform="matrix(-0.0458 0.999 -0.999 -0.0458 455.1852 -67.0781)" fill="#662E6B" width="6.012" height="1.099"/>
	<polygon fill="#662E6B" points="271.191,182.368 271.256,182.238 270.093,182.044 267.959,185.535 267.055,181.592 
		267.055,181.527 265.891,181.333 267.442,188.25 	"/>
	<polygon fill="#662E6B" points="222.19,195.814 219.216,190.771 219.151,190.643 218.247,191.224 221.22,196.396 	"/>
	
		<rect x="233.822" y="184.181" transform="matrix(-0.9519 0.3065 -0.3065 -0.9519 514.8344 293.5342)" fill="#662E6B" width="1.099" height="6.013"/>
	<polygon fill="#662E6B" points="225.81,188.38 227.814,192.905 228.849,192.517 226.78,187.992 228.008,187.41 227.62,186.505 
		224.194,187.992 224.582,188.961 	"/>
	<path fill="#662E6B" d="M326.4,270.739c0.064,0,0.129,0,0.193,0c0.388,0,0.776-0.259,0.841-0.711
		c0.97-4.784,1.486-9.697,1.486-14.61c0-7.37-1.099-14.61-3.232-21.592c-0.129-0.453-0.646-0.711-1.099-0.582
		c-0.452,0.129-0.711,0.646-0.582,1.034c2.134,6.788,3.168,13.899,3.168,21.075c0,4.783-0.518,9.633-1.422,14.287
		C325.688,270.223,325.947,270.675,326.4,270.739z"/>
	<polygon fill="#662E6B" points="320.388,230.465 321.357,230.077 320.452,227.943 322.004,227.297 322.909,229.366 
		323.879,228.978 322.974,226.909 324.072,226.457 324.978,228.59 325.883,228.137 324.59,225.034 319.095,227.362 	"/>
	<polygon fill="#662E6B" points="314.893,219.475 317.221,218.053 318.384,220.057 316.057,221.414 316.574,222.384 
		321.745,219.281 321.164,218.376 319.225,219.54 318.061,217.535 320,216.372 319.482,215.467 314.312,218.505 	"/>
	<polygon fill="#662E6B" points="278.562,189.35 276.363,188.638 276.881,187.022 279.014,187.669 279.273,186.699 277.14,185.988 
		277.527,184.889 279.725,185.535 280.049,184.565 276.752,183.596 275.006,189.285 278.238,190.319 	"/>
	<polygon fill="#662E6B" points="212.364,202.667 213.204,201.956 210.812,198.917 216.824,199.822 212.881,194.65 212.041,195.297 
		214.368,198.4 208.355,197.43 	"/>
	<polygon fill="#662E6B" points="314.569,210.295 315.41,211.394 316.186,210.748 313.858,207.774 313.083,208.42 313.858,209.455 
		309.979,212.558 310.691,213.398 	"/>
	<path fill="#662E6B" d="M291.75,196.719c0.517,0.323,1.033,0.453,1.615,0.453c0.259,0,0.518,0,0.776-0.065
		c0.841-0.194,1.487-0.646,1.939-1.422c0.452-0.711,0.581-1.552,0.323-2.328c-0.194-0.84-0.646-1.487-1.422-1.939
		c-0.712-0.452-1.553-0.582-2.393-0.388s-1.486,0.646-1.939,1.357l0,0c-0.518,0.841-0.582,1.681-0.323,2.521
		C290.65,195.685,291.104,196.331,291.75,196.719z M291.62,192.97L291.62,192.97c0.323-0.517,0.712-0.84,1.293-0.97
		c0.517-0.129,1.034-0.064,1.552,0.259s0.775,0.711,0.904,1.228c0.13,0.517,0.065,1.099-0.258,1.552
		c-0.323,0.517-0.711,0.84-1.293,0.969c-0.582,0.129-1.035,0.065-1.552-0.258c-0.452-0.259-0.776-0.711-0.905-1.229
		C291.232,194.069,291.361,193.487,291.62,192.97z"/>
	<polygon fill="#662E6B" points="301.317,199.952 302.805,201.18 303.516,200.404 301.964,199.176 302.739,198.206 304.291,199.499 
		304.938,198.723 302.545,196.719 298.731,201.374 299.572,202.085 	"/>
	<path fill="#662E6B" d="M188.638,278.367c0.518-0.193,1.035-0.193,1.552,0.064c0.517,0.195,0.84,0.582,1.034,1.1
		c0.194,0.453,0.129,1.034-0.064,1.616l-0.065,0.194l1.164-0.389h0.064v-0.064c0.129-0.582,0.064-1.099-0.129-1.615
		c-0.323-0.906-0.905-1.553-1.81-1.875c-0.711-0.259-1.422-0.259-2.133,0c-0.776,0.258-1.357,0.775-1.746,1.551
		c-0.323,0.775-0.388,1.552-0.129,2.328c0.194,0.517,0.517,0.969,0.969,1.357l0.065,0.064l1.228-0.453l-0.194-0.129
		c-0.129-0.064-0.323-0.193-0.388-0.259c-0.129-0.064-0.194-0.194-0.323-0.259c-0.129-0.129-0.259-0.388-0.388-0.646
		c-0.194-0.517-0.129-1.034,0.065-1.486C187.733,278.949,188.121,278.562,188.638,278.367z"/>
	<polygon fill="#662E6B" points="237.77,325.365 234.99,320 233.245,326.142 233.18,326.206 234.214,326.529 235.313,322.844 
		238.093,328.146 239.838,322.004 238.804,321.681 	"/>
	<path fill="#662E6B" d="M244.105,281.988c0.065,0.129,0.129,0.258,0.194,0.388h0.065h0.064c0.065-0.065,0.388-0.259,0.453-0.323
		C244.622,282.053,244.364,282.053,244.105,281.988z"/>
	<polygon fill="#662E6B" points="251.733,329.633 251.733,329.697 252.833,329.762 252.961,327.047 254.836,327.111 
		254.901,326.142 252.961,326.012 253.026,324.913 255.03,324.978 255.03,323.943 251.992,323.814 	"/>
	<path fill="#662E6B" d="M279.66,225.034c1.357,0,2.521-0.452,3.427-1.422s1.423-2.069,1.423-3.491c0-1.422-0.453-2.521-1.358-3.491
		s-2.004-1.422-3.361-1.422c-1.358,0-2.456,0.453-3.427,1.422l0,0c-0.904,0.905-1.357,2.069-1.357,3.426
		c0,1.422,0.453,2.586,1.422,3.491C277.334,224.582,278.432,225.034,279.66,225.034z"/>
	<path fill="#662E6B" d="M262.271,286.061c-1.034,0.97-1.938,2.715-2.198,3.879c-0.064,0.129-0.193,0.582-0.775,2.909
		c-0.129,0.517-0.582,3.685-0.258,4.202v-0.064c0.064-0.259,0.193-1.293,1.938-7.629c0.323-1.034,1.164-1.875,1.487-3.038
		C262.529,286.189,262.529,286.125,262.271,286.061z"/>
	<path fill="#662E6B" d="M213.527,316.314l1.293-0.775l1.875,1.293l-0.258,1.487l0.97,0.646l1.164-6.917l-6.012,3.685
		L213.527,316.314z M217.212,313.988l-0.323,1.681l-1.164-0.776L217.212,313.988z"/>
	<path fill="#662E6B" d="M289.164,238.545c-0.518-0.517-1.164-0.905-1.875-1.228s-1.552-0.453-2.521-0.453h-1.229v11.766h1.229
		c0.97,0,1.811-0.129,2.521-0.453s1.357-0.711,1.875-1.228c0.517-0.518,0.904-1.164,1.163-1.875
		c0.259-0.711,0.388-1.487,0.388-2.327s-0.129-1.616-0.388-2.327C290.068,239.645,289.681,239.062,289.164,238.545z"/>
	<path fill="#662E6B" d="M243.329,278.562c0.194-0.259,0.323-0.646,0.194-0.97c-0.259,0.064-0.518,0.193-0.841,0.323
		C243.006,278.045,243.2,278.303,243.329,278.562z"/>
	<path fill="#662E6B" d="M192.064,230.917l0.453-1.099l-1.034-1.164l0.905-2.133h1.552l0.453-1.099l-7.111,0.129l4.655,5.236
		L192.064,230.917z M190.771,227.879l-1.164-1.293h1.746L190.771,227.879z"/>
	
		<rect x="205.226" y="201.688" transform="matrix(-0.7084 0.7058 -0.7058 -0.7084 496.0225 204.4763)" fill="#662E6B" width="1.099" height="6.012"/>
	<polygon fill="#662E6B" points="196.719,221.22 197.301,220.315 194.004,218.247 199.952,217.018 194.457,213.527 193.875,214.432 
		197.172,216.501 191.16,217.729 	"/>
	<polygon fill="#662E6B" points="196.913,289.616 196.46,288.711 194.457,289.746 193.422,287.741 195.362,286.707 194.844,285.737 
		189.737,288.518 189.673,288.518 190.19,289.486 192.517,288.259 193.552,290.198 191.224,291.49 191.741,292.396 196.849,289.681 
			"/>
	<polygon fill="#662E6B" points="201.05,305.066 200.986,305.131 201.697,305.907 203.701,304.098 204.994,305.52 205.705,304.809 
		204.412,303.386 205.252,302.61 206.61,304.032 207.386,303.386 205.317,301.123 	"/>
	<polygon fill="#662E6B" points="199.693,295.758 201.05,297.633 201.891,297.051 199.887,294.336 195.103,297.762 197.107,300.477 
		197.947,299.895 196.59,298.02 197.947,297.051 199.24,298.86 200.081,298.215 198.788,296.469 	"/>
	<path fill="#662E6B" d="M186.634,272.355c0.453-0.129,0.776-0.582,0.646-1.034c-1.164-5.172-1.746-10.473-1.746-15.838
		c0-7.176,1.099-14.287,3.168-21.075c0.129-0.453-0.129-0.905-0.582-1.099c-0.453-0.129-0.905,0.129-1.099,0.582
		c-2.134,6.982-3.232,14.223-3.232,21.592c0,5.495,0.582,10.925,1.81,16.226c0.064,0.389,0.453,0.646,0.84,0.646
		C186.505,272.355,186.57,272.355,186.634,272.355z"/>
	<path fill="#662E6B" d="M274.877,298.86c0-0.194-0.129-0.194-0.259-0.194c-0.259-0.064-0.452,0.065-0.517,0.324
		c-0.065,0.129,0,0.258,0.129,0.193C274.488,299.119,274.748,299.119,274.877,298.86z"/>
	<path fill="#662E6B" d="M274.554,302.545c0.323-0.064,0.581-0.129,0.841-0.193C275.006,302.028,274.748,301.964,274.554,302.545z"
		/>
	<path fill="#662E6B" d="M272.098,302.352c0.322,0.582,1.033,0.582,1.422,1.1C273.777,302.805,273.777,302.805,272.098,302.352z"/>
	<path fill="#662E6B" d="M273.325,306.488c-0.905,0.646-0.064,0.971,0.452,1.423c-0.258-0.711,0.453-1.357-0.388-2.004
		C273.325,306.166,273.39,306.424,273.325,306.488z"/>
	<path fill="#662E6B" d="M271.451,299.312c0.258,0.518,0.258,0.518,0.84,0.518C272.032,299.572,271.773,299.378,271.451,299.312z"/>
	<path fill="#662E6B" d="M277.851,301.834c0.388,0.064,0.517-0.064,0.517-0.517C278.109,301.512,277.915,301.641,277.851,301.834z"
		/>
	<path fill="#662E6B" d="M245.398,279.208c-0.129-0.064-0.194-0.13-0.258-0.194c-0.194,0.26-0.453,0.453-0.711,0.582
		c0.129,0.064,0.194,0.194,0.259,0.259c0.258-0.194,0.517-0.323,0.711-0.452C245.333,279.338,245.333,279.273,245.398,279.208z"/>
	<path fill="#662E6B" d="M276.945,297.891c-0.064-0.064-0.258-0.193-0.388-0.193s-0.323,0.064-0.259,0.322
		c0.064,0.13-0.193,0.195,0,0.389c0.129-0.064,0.259-0.129,0.389-0.193C276.752,298.149,276.945,298.085,276.945,297.891z"/>
	<path fill="#662E6B" d="M277.721,300.735c-0.322,0.064-0.711,0.064-0.904,0.452c0.064,0.259,0.064,0.646,0.452,0.582
		c0.452,0,0.517-0.518,0.646-0.84C277.851,300.93,277.98,300.671,277.721,300.735z"/>
	<path fill="#662E6B" d="M266.02,298.215c-0.064,0.064,0.13,0.258,0.324,0.258c0.388,0,0.388-0.388,0.517-0.711
		C266.408,297.826,266.149,297.891,266.02,298.215z"/>
	<path fill="#662E6B" d="M274.812,305.066L274.812,305.066L274.812,305.066L274.812,305.066L274.812,305.066z"/>
	<path fill="#662E6B" d="M274.036,305.002c-0.064-0.064-0.129-0.193-0.129-0.258c-0.065-0.195-0.13-0.389-0.388-0.324h-0.064
		l0.258,0.775c0.453,0.194,0.841,0.453,1.293,0.453c0.129-0.258-0.258-0.388-0.193-0.646c-0.13-0.193-0.324-0.323-0.453-0.518
		C274.102,304.549,274.23,304.809,274.036,305.002z"/>
	<path fill="#662E6B" d="M271.902,296.856c-0.451,0.194-1.033-0.646-1.486,0.13C270.934,297.18,271.451,297.309,271.902,296.856z"/>
	<path fill="#662E6B" d="M269.123,299.378c0.453,0,0.582-0.323,0.97-0.388C269.446,298.602,269.317,298.99,269.123,299.378z"/>
	<path fill="#662E6B" d="M271.386,303.191c-0.13-0.129-0.194,0.065-0.259,0.194c-0.258,0.452,0.194,0.517,0.453,0.841
		C271.645,303.773,271.709,303.451,271.386,303.191z"/>
	<path fill="#662E6B" d="M272.098,299.055c0.193,0.129,0.258,0.388,0.517,0.258c0.13-0.064,0.064-0.129,0.064-0.193
		c-0.13-0.258-0.259-0.453-0.581-0.388c-0.13,0-0.195,0.064-0.324,0.064C271.838,298.99,271.968,298.926,272.098,299.055z"/>
	<path fill="#662E6B" d="M265.309,324.202c-0.646-0.517-1.422-0.776-2.262-0.712c-0.841,0.065-1.552,0.453-2.069,1.1
		c-0.517,0.646-0.775,1.422-0.711,2.198c0.064,0.905,0.517,1.681,1.229,2.198c0.581,0.387,1.163,0.582,1.81,0.582
		c0.13,0,0.194,0,0.324,0c0.84-0.065,1.551-0.453,2.133-1.1c0.518-0.646,0.775-1.422,0.711-2.263
		C266.344,325.43,265.955,324.719,265.309,324.202z M264.856,327.887c-0.323,0.453-0.775,0.646-1.357,0.711
		c-0.517,0.064-0.97-0.129-1.423-0.452c-0.452-0.323-0.711-0.841-0.711-1.423c-0.064-0.581,0.064-1.033,0.453-1.486
		c0.323-0.453,0.775-0.646,1.357-0.711s1.034,0.064,1.486,0.452c0.453,0.323,0.646,0.841,0.711,1.358
		C265.373,326.917,265.244,327.435,264.856,327.887z"/>
	<polygon fill="#662E6B" points="308.493,301.446 307.782,300.735 305.261,303.451 305.972,304.162 306.877,303.191 
		310.433,306.488 311.208,305.713 307.588,302.416 	"/>
	<path fill="#662E6B" d="M301.641,314.311l0.064,0.13l0.905-0.711l-0.388-1.487l1.745-1.486l1.357,0.646l0.905-0.775l-6.336-3.104
		L301.641,314.311z M301.898,311.208l-0.452-1.681l1.552,0.775L301.898,311.208z"/>
	<path fill="#662E6B" d="M294.076,313.535c-0.387-0.064-0.775-0.064-1.163,0.064c-0.323,0.064-0.776,0.259-1.293,0.582l-1.099,0.711
		l3.038,4.914l0.064,0.064l1.099-0.646c0.518-0.324,0.841-0.582,1.1-0.841s0.453-0.646,0.518-1.034
		c0.258-0.84,0.129-1.616-0.324-2.393C295.499,314.182,294.853,313.729,294.076,313.535z M295.305,317.026
		c-0.064,0.259-0.193,0.452-0.322,0.646c-0.194,0.194-0.389,0.388-0.712,0.581l-0.259,0.13l-2.004-3.297l0.259-0.13
		c0.582-0.387,1.163-0.517,1.616-0.387c0.518,0.129,0.97,0.387,1.293,0.904C295.369,315.992,295.435,316.51,295.305,317.026z"/>
	<polygon fill="#662E6B" points="311.531,296.016 310.885,296.856 315.539,300.348 315.604,300.412 316.251,299.572 
		311.596,296.081 	"/>
	<path fill="#662E6B" d="M320.129,287.807c-0.711-0.389-1.486-0.518-2.327-0.26c-0.84,0.26-1.422,0.712-1.874,1.423
		c-0.389,0.711-0.518,1.552-0.323,2.327c0.193,0.84,0.711,1.422,1.422,1.875c0.517,0.258,1.034,0.452,1.486,0.452
		c0.323,0,0.646-0.064,0.97-0.194c0.776-0.258,1.293-0.711,1.682-1.422c0.388-0.775,0.517-1.551,0.323-2.327
		C321.357,288.84,320.905,288.193,320.129,287.807z M320.388,291.49c-0.259,0.453-0.646,0.776-1.163,0.906
		c-0.518,0.129-1.035,0.129-1.552-0.194c-0.518-0.259-0.841-0.712-0.97-1.229s-0.064-1.034,0.193-1.552
		c0.259-0.517,0.646-0.775,1.229-0.969c0.518-0.13,1.034-0.065,1.552,0.193s0.841,0.711,0.97,1.229
		C320.711,290.457,320.646,290.974,320.388,291.49z"/>
	<path fill="#662E6B" d="M256.323,175.774c-43.895,0-79.645,35.75-79.645,79.644s35.75,79.645,79.645,79.645
		c43.896,0,79.645-35.75,79.645-79.645S300.283,175.774,256.323,175.774z M256.323,332.994c-42.731,0-77.511-34.779-77.511-77.511
		c0-42.731,34.78-77.511,77.511-77.511s77.511,34.78,77.511,77.511C333.834,298.215,299.119,332.994,256.323,332.994z"/>
	<polygon fill="#662E6B" points="321.552,276.622 321.164,277.656 324.719,278.949 319.225,281.342 325.301,283.539 325.624,282.57 
		322.068,281.212 327.563,278.82 	"/>
	<path fill="#662E6B" d="M270.998,308.17L270.998,308.17L270.998,308.17L270.998,308.17L270.998,308.17z"/>
	<path fill="#662E6B" d="M279.338,296.792c0.775-0.194,1.745,0.259,2.392-0.582C280.824,296.21,280.113,296.533,279.338,296.792z"/>
	<path fill="#662E6B" d="M282.44,301.576c0.841,0.129,1.616,0,2.392-0.259C283.992,300.994,283.281,301.512,282.44,301.576z"/>
	<polygon fill="#662E6B" points="285.673,317.543 285.607,317.479 284.639,317.867 286.125,321.357 280.631,318.966 
		283.087,324.849 283.151,324.913 284.121,324.525 282.635,320.97 288.129,323.361 	"/>
	<path fill="#662E6B" d="M279.984,299.959c0.258,0,0.387,0.065,0.517,0.065c0-0.065,0-0.13-0.064-0.194
		C280.371,299.701,280.242,299.895,279.984,299.959z"/>
	<path fill="#662E6B" d="M321.875,255.483c0-36.202-29.35-65.552-65.552-65.552s-65.552,29.35-65.552,65.552
		c0,36.203,29.35,65.551,65.552,65.551C292.525,320.97,321.875,291.62,321.875,255.483z M289.422,212.428h3.232v12.283h4.202v3.103
		h-7.435V212.428z M296.404,260.849v1.099h-3.039v2.586h3.104v1.1h-4.267v-7.758h4.267v1.099h-3.104v1.875H296.404z
		 M295.693,246.691c-0.518,1.293-1.293,2.392-2.198,3.362c-0.97,0.97-2.069,1.745-3.298,2.327c-1.228,0.582-2.585,0.84-4.072,0.84
		h-8.08v-21.01h8.08c1.422,0,2.78,0.259,4.008,0.84c1.229,0.582,2.328,1.358,3.297,2.328c0.971,0.97,1.682,2.068,2.199,3.361
		c0.517,1.293,0.84,2.586,0.84,4.008C296.469,244.105,296.21,245.463,295.693,246.691z M282.376,258.974v-1.099h4.719v1.099h-1.745
		v6.659h-1.164v-6.659H282.376z M274.036,214.497c1.552-1.552,3.491-2.327,5.688-2.327c2.199,0,4.073,0.775,5.625,2.327
		c1.551,1.551,2.392,3.491,2.392,5.624c0,2.198-0.775,4.073-2.392,5.625c-1.552,1.551-3.491,2.327-5.754,2.327
		c-2.004,0-3.749-0.711-5.365-2.069c-1.746-1.487-2.65-3.556-2.65-6.012C271.645,217.923,272.484,216.048,274.036,214.497z
		 M268.541,288.775c-0.064,0.324-0.517,0.646-0.646,1.035c-0.129,0.322-0.258,0.84-0.452,1.357c-0.13,0-0.259,0.064-0.452,0.129
		c-0.971,0.389-1.552,1.229-1.552,2.263c-0.582,0.452-0.905,1.034-1.034,1.487c-0.129-0.064-0.259-0.064-0.389-0.064
		c-0.258,0-0.517,0-0.775,0.129c-0.904,0.388-1.875,1.099-1.681,2.715c-0.646,0.389-0.97,0.97-1.293,1.422
		c-0.064,0.13-0.194,0.324-0.323,0.453c-0.388,0.129-0.904,0.258-1.551,0.388c-0.065,0-0.065,0-0.13,0
		c-0.646-1.357-1.681-2.263-2.909-2.392c-0.129,0-0.194,0-0.323,0c-0.388,0-0.776,0-1.099,0.064c-0.064,0-0.388-0.905-0.388-1.034
		c-0.388-1.164-0.517-2.457-0.517-3.685c0-1.293,0-2.65,0.194-3.943c0.129-0.841,0.323-1.746,0.646-2.521
		c0.064-0.194,0.194-0.453,0.258-0.646c0.905-1.939,2.909-3.686,5.172-3.686c0.388,0,0.84,0.064,1.293,0.194
		c0.775,0.194,1.293,0.452,1.939,0.97c0.453,0.388,0.775,1.034,1.422,1.229c0,0,0,0,0.064,0c0.13,0,0.389-0.064,1.164-0.518
		c0,0,0.064-0.258,0.129-0.388c0.453-1.487,0.582-3.362-0.452-4.72c-0.452-0.711-2.069-0.387-1.745-1.486
		c0.193-0.711,1.229-1.422,2.004-1.422c0.129,0,0.193,0,0.323,0.064c0.905,0.258,1.552,2.392,1.616,3.168l-0.129,4.654
		c0.064,0.775,0.84,0.646,1.874,2.197l0.452,0.13c0.518,0,1.164-0.517,2.004-0.517c0.194,0,0.389,0,0.646,0.064
		c1.682,0.517,3.039,2.392,2.846,4.072c-0.13,0.905-0.453,2.068-0.971,3.297c-0.258-0.129-0.452-0.193-0.646-0.258
		c-0.064,0-0.129,0-0.129-0.065c-0.129-0.064-0.323-0.13-0.518-0.13c-0.193,0-0.388,0-0.582,0.065
		c-0.258-0.259-0.581-0.452-0.969-0.517c-0.324-0.324-0.775-0.518-1.229-0.582c-0.259,0-0.518,0-0.775,0.064
		c-0.194-0.259-0.389-0.389-0.646-0.518C268.541,290.263,268.735,289.229,268.541,288.775z M250.247,293.495
		c0.064,0.452,0.453,2.392,0.517,2.78c0.129,0.646,0.259,1.228,0.388,1.874c-0.517,0.13-1.164,0.194-1.875,0.388
		c-0.129,0-0.259,0.064-0.388,0.129c-0.064,0-0.194,0-0.258,0c-0.065,0-0.129,0-0.194,0c-0.194-1.486-0.388-3.167-0.453-3.749
		c-0.065-0.194-0.323-1.552-0.388-2.004c-0.065-0.259-0.259-1.228-0.323-1.681c-0.065,0.129-0.129,0.323-0.259,0.388
		c-0.129,0.388-0.194,0.776-0.194,0.97c0.064,0.323,0.323,1.616,0.323,1.811c0.064,0.452,0.323,1.81,0.388,1.875
		c0.065,0.387,0.323,1.422,0.582,2.456c-0.194,0.064-0.453,0.064-0.711,0.129c-0.064,0-0.194,0.065-0.258,0.065
		c-0.065,0-0.194,0-0.259,0l-1.034,0.193l-0.388,0.064c-0.064,0-0.194,0.064-0.258,0.064s-0.194,0-0.259,0l-0.323,0.064
		c-0.388-1.874-0.84-3.684-1.228-5.559c-0.065-0.324-0.259-1.293-0.259-1.357c0-0.065-0.388-0.841-0.453-1.293l-2.262-0.453
		c-0.129,0.775-0.582,1.357-1.164,1.357c-0.388,0-0.646-0.258-0.905-0.582c-0.129,0.26-0.323,0.453-0.582,0.518
		c-0.194,0.453-0.582,0.711-1.099,0.711c-0.453,0-0.905-0.323-1.035-0.711c0,0-0.064,0-0.064,0.064s0,0.064,0.064,0.129
		c0,0.194-0.064,0.389-0.194,0.518c0.388,0,0.84,0.259,0.97,0.711c0.129,0.582-0.259,1.035-0.646,1.1
		c-0.453,0.129-0.646-0.453-0.711-0.841c-0.065-0.194-0.065-0.388-0.065-0.581c-0.194,0.129-0.452,0.193-0.711,0.193
		c-0.776,0-1.422-0.518-1.422-1.1c0-0.451,0.323-0.775,0.776-0.969c0-0.064-0.064-0.064-0.064-0.129
		c-0.065-0.453,0.129-0.841,0.388-1.1l-0.129,0.064c-0.453,0.129-0.453,0.646-0.776,0.711s-0.905-0.904-0.969-1.099
		c-0.194-0.905,1.292-1.487,1.81-1.681c-0.129-0.064-0.194-0.129-0.259-0.129c-0.194,0.193-0.453,0.322-0.776,0.322
		c-0.646,0-1.164-0.582-1.164-1.293s0.517-1.293,1.229-1.229c0,0,0,0,0.064,0c0.064-0.646,0.582-1.163,1.164-1.163
		c-0.388-0.194-0.582-0.646-0.582-1.099c0-0.711,0.517-1.293,1.228-1.229c0.259,0,0.453,0.129,0.646,0.259
		c0.129-0.582,0.517-0.97,0.97-1.034c0-0.064-0.064-0.13-0.064-0.194c0-0.259,0.129-0.452,0.258-0.646
		c-0.323-0.194-0.582-0.582-0.582-1.099c0-0.646,0.517-1.229,1.099-1.229c0.259-0.193,0.518-0.323,0.905-0.323
		c0.258,0,0.517,0.064,0.711,0.194l0,0c0.065,0.064,0.194,0.129,0.259,0.193c0.064-0.129,0.194-0.258,0.323-0.323
		c0.258-0.064,0.517,0.194,0.84,0.13c0.064,0,0.064-0.064,0.129-0.13c-0.582-0.064-1.035-0.581-1.035-1.228
		c0-0.712,0.518-1.293,1.229-1.229c0.388,0,0.711,0.258,0.97,0.582c0.258,0.064,0.582,0.387,0.646,0.646
		c0.064,0.451-0.259,0.322-0.453,0.711c-0.194,0.322-0.194,0.711-0.259,1.099c0.194,0,0.388,0.064,0.518,0.194
		c0.194-0.194,0.388-0.389,0.452-0.711c0-0.065-0.064-0.453-0.129-0.518c0-0.389,0.194-1.035,0.388-1.552
		c-0.194-0.064-0.388-0.259-0.453-0.452c-0.064,0-0.064-0.064-0.129-0.13v-0.064c-0.064-0.13-0.064-0.259-0.064-0.388
		c0-0.582,0.388-1.035,0.905-1.035c0.452,0,0.84,0.453,0.905,0.971c0.194-0.453,0.582-0.711,1.099-0.711
		c0.323,0,0.582,0.129,0.776,0.322c0,0,0,0,0.064,0s0.129-0.064,0.259-0.064c-0.129-0.129-0.259-0.323-0.259-0.518
		c0-0.517,0.582-0.904,1.228-0.904c0.711,0,1.229,0.388,1.229,0.904c0,0.065-0.064,0.13-0.064,0.194
		c0.064,0.065,0.129,0.13,0.194,0.194c0.258-0.194,0.582-0.323,0.905-0.323c0.711,0,1.293,0.517,1.293,1.163
		c0,0.324-0.194,0.646-0.453,0.841c0.259,0.13,0.388,0.323,0.453,0.452c-0.064-0.129-0.064-0.258-0.064-0.388
		c0-0.646,0.582-1.163,1.293-1.163c0.517,0,0.905,0.258,1.164,0.646c0.194-0.259,0.517-0.453,0.905-0.453
		c0.129,0,0.259,0.064,0.388,0.064c0.064,0,0.129-0.064,0.194-0.064c0.129-0.064,0.259,0,0.259,0.193c0,0.13,0,0.195,0,0.26
		c0.194,0.193,0.258,0.452,0.258,0.775c0,0.193-0.064,0.388-0.129,0.518c0.194,0,0.453,0.064,0.517,0.452
		c0.129,0.646-0.646,1.293-1.164,1.487c0.194,0.064,0.323,0.193,0.388,0.322c0.129-0.322,0.323-0.582,0.517-0.646h0.064
		c0.129-0.322,0.388-0.582,0.776-0.582s0.711,0.389,0.776,0.841c0.129,0,0.193,0,0.258,0.194c0.065,0.193,0,0.258-0.193,0.323
		c-0.064,0-0.064,0-0.064,0c-0.129,0.388-0.388,0.646-0.776,0.646c-0.194,0-0.388-0.065-0.517-0.259
		c-0.129,0.129-0.323,0.193-0.517,0.259c0,0.194-0.065,0.323-0.129,0.452c0,0.194,0,0.453-0.064,0.646
		c0,0.064,0.064,0.129,0.129,0.129c0.388-0.129,0.711-0.84,0.905-0.904c0.517-0.129,0.453,1.099,0.905,0.97
		c0,0,0.129-0.065,0.258-0.13c0.064-0.064,0.194-0.129,0.324-0.193c-0.194-0.129-0.389-0.389-0.389-0.582
		c-0.129,0.064-0.193,0.129-0.258,0.129c-0.194,0.064-0.194-0.064-0.259-0.258c-0.064-0.194,0.646-0.776,0.841-0.776
		c0.129-0.064,0.193,0.065,0.193,0.194c0.193-0.064,0.452-0.194,0.646-0.194c0.711,0,1.229,0.388,1.229,0.905
		c0,0.193-0.13,0.323-0.259,0.518c0.064,0.064,0.064,0.064,0.129,0.129c0,0.064,0,0.129,0,0.193c-0.97,0.065-1.874,0.389-2.65,0.906
		c-0.064-0.065-0.064-0.065-0.064-0.065s-0.259,0.065-0.323,0.065c-0.517-0.195-0.259-0.518-0.905-0.324
		c-0.064,0-0.194,0.064-0.194,0.064v0.324c0.065,0,0.388,0.064,0.517,0.129c0,0,0.259,0.193,0.388,0.258
		c-0.582,0.453-1.099,0.906-1.552,1.487c-0.776,0.905-1.293,1.939-1.81,3.038c-0.517,1.1-1.164,2.134-1.681,3.168
		c-0.065,0.129-0.388,0.582-0.323,0.775c0,0.065-0.065,0.324-0.065,0.389C250.117,291.168,250.247,293.107,250.247,293.495z
		 M239.386,262.982c-0.064-0.13-0.129-0.26-0.194-0.324c-0.064-0.129-0.194-0.193-0.323-0.322c-0.129-0.065-0.323-0.194-0.517-0.26
		l-0.776-0.322c-1.034-0.453-1.616-1.1-1.616-1.939c0-0.582,0.194-1.035,0.646-1.487c0.453-0.388,0.97-0.581,1.681-0.581
		c0.905,0,1.616,0.452,2.068,1.293l-0.97,0.581c-0.194-0.323-0.323-0.517-0.517-0.581c-0.194-0.13-0.388-0.13-0.646-0.13
		c-0.323,0-0.582,0.064-0.776,0.259c-0.194,0.193-0.323,0.388-0.323,0.711c0,0.388,0.259,0.711,0.841,0.904l0.775,0.324
		c0.646,0.258,1.099,0.582,1.358,0.904c0.258,0.389,0.452,0.841,0.452,1.357c0,0.712-0.258,1.293-0.711,1.746
		s-1.099,0.711-1.746,0.711s-1.228-0.193-1.681-0.582c-0.453-0.388-0.711-0.969-0.776-1.681l1.164-0.259
		c0.065,0.453,0.129,0.776,0.259,0.971c0.259,0.322,0.582,0.517,1.034,0.517c0.388,0,0.646-0.13,0.905-0.388
		c0.258-0.259,0.388-0.582,0.388-0.905C239.451,263.24,239.451,263.111,239.386,262.982z M245.462,258.974v-1.099h4.719v1.099
		h-1.745v6.659h-1.164v-6.659H245.462z M255.354,265.633v-7.758h1.164v7.758H255.354z M261.624,258.974v-1.099h4.72v1.099h-1.746
		v6.659h-1.163v-6.659H261.624z M274.359,265.762c-0.84,0-1.551-0.323-2.068-0.905c-0.518-0.517-0.775-1.228-0.775-2.004v-4.978
		h1.163v4.654c0,0.646,0.13,1.164,0.323,1.486c0.323,0.453,0.775,0.646,1.357,0.646s1.035-0.193,1.357-0.646
		c0.194-0.322,0.324-0.775,0.324-1.486v-4.654h1.163v4.978c0,0.841-0.259,1.487-0.776,2.004
		C275.911,265.438,275.2,265.762,274.359,265.762z M257.034,214.497c1.552-1.552,3.491-2.327,5.688-2.327
		c2.199,0,4.073,0.775,5.625,2.327c1.551,1.551,2.392,3.491,2.392,5.624c0,2.198-0.775,4.073-2.392,5.625
		c-1.552,1.551-3.491,2.327-5.754,2.327c-2.004,0-3.75-0.711-5.365-2.069c-1.746-1.551-2.651-3.556-2.651-6.012
		C254.643,217.923,255.483,216.048,257.034,214.497z M254.19,238.352c0.582-1.357,1.357-2.521,2.392-3.556
		c1.034-1.034,2.262-1.81,3.685-2.327c1.423-0.582,2.974-0.84,4.72-0.84c1.68,0,3.232,0.258,4.654,0.84
		c1.422,0.582,2.65,1.357,3.685,2.327c1.034,1.034,1.81,2.198,2.392,3.556s0.841,2.78,0.841,4.396c0,1.551-0.259,3.039-0.841,4.396
		s-1.357,2.521-2.392,3.556c-1.034,1.034-2.263,1.81-3.685,2.327c-1.422,0.582-2.975,0.84-4.654,0.84
		c-1.682,0-3.297-0.259-4.72-0.84c-1.423-0.582-2.65-1.357-3.685-2.327c-1.035-1.035-1.81-2.198-2.392-3.556
		c-0.582-1.358-0.84-2.78-0.84-4.396C253.285,241.196,253.608,239.709,254.19,238.352z M241.455,212.428h3.232v5.625h5.107v-5.625
		h3.232v15.451h-3.232v-6.723h-5.107v6.723h-3.232V212.428z M245.333,232.469c1.422,0.582,2.65,1.357,3.685,2.327
		c1.035,1.034,1.81,2.198,2.392,3.556c0.582,1.357,0.84,2.78,0.84,4.396c0,1.551-0.259,3.039-0.84,4.396
		c-0.582,1.357-1.357,2.521-2.392,3.556c-1.034,1.034-2.263,1.81-3.685,2.327c-1.422,0.582-2.974,0.84-4.655,0.84
		s-3.297-0.259-4.719-0.84c-1.422-0.582-2.65-1.357-3.685-2.327c-1.035-0.97-1.81-2.198-2.392-3.556
		c-0.582-1.358-0.84-2.78-0.84-4.396c0-1.552,0.258-3.039,0.84-4.396s1.357-2.521,2.392-3.556c1.034-1.034,2.263-1.81,3.685-2.327
		c1.422-0.582,2.974-0.84,4.719-0.84C242.359,231.628,243.911,231.952,245.333,232.469z M216.178,253.22v-21.01h12.024v4.655h-6.594
		v3.491h6.012v4.655h-6.012v8.274h-5.43V253.22z M217.341,257.875v7.758h-1.164v-7.758H217.341z M223.289,257.357l5.624,5.883
		v-5.365h1.164v8.21l-5.624-5.883v5.431h-1.164V257.357z M228.913,214.95c1.616-1.875,3.685-2.845,6.206-2.845
		c1.357,0,2.715,0.388,4.008,1.099l0.258,0.129v4.008l-0.905-0.711c-1.164-0.97-2.328-1.422-3.556-1.422
		c-1.357,0-2.392,0.453-3.362,1.422c-0.905,0.97-1.357,2.069-1.357,3.491c0,1.358,0.453,2.521,1.357,3.426
		c0.905,0.905,2.004,1.422,3.362,1.422c0.646,0,1.228-0.129,1.746-0.323c0.258-0.129,0.582-0.259,0.84-0.453
		c0.323-0.194,0.646-0.453,0.97-0.711l0.905-0.776v4.073l-0.258,0.129c-1.293,0.776-2.715,1.099-4.138,1.099
		c-2.198,0-4.073-0.776-5.624-2.328c-1.552-1.551-2.327-3.426-2.327-5.624C226.974,218.247,227.62,216.501,228.913,214.95z
		 M222.836,222.578c-0.065-0.194-0.129-0.323-0.259-0.453c-0.129-0.129-0.323-0.323-0.517-0.452
		c-0.258-0.129-0.517-0.323-0.84-0.453l-1.357-0.582c-2.198-0.905-3.297-2.327-3.297-4.137c0-1.228,0.453-2.263,1.422-3.103
		c0.905-0.84,2.069-1.228,3.426-1.228c1.875,0,3.297,0.905,4.332,2.715l0.258,0.453l-2.715,1.616l-0.259-0.453
		c-0.388-0.646-0.646-0.84-0.711-0.905c-0.259-0.129-0.517-0.194-0.905-0.194c-0.453,0-0.84,0.129-1.164,0.388
		c-0.258,0.258-0.388,0.517-0.388,0.84c0,0.453,0.388,0.84,1.228,1.164l1.422,0.582c1.228,0.517,2.198,1.164,2.78,1.875
		c0.582,0.776,0.905,1.746,0.905,2.844c0,1.487-0.518,2.715-1.487,3.685s-2.198,1.422-3.685,1.422c-1.357,0-2.521-0.388-3.426-1.229
		c-0.905-0.84-1.422-2.004-1.681-3.426l-0.065-0.517l3.297-0.711l0.065,0.582c0.129,0.97,0.323,1.358,0.388,1.487
		c0.323,0.518,0.84,0.711,1.552,0.711c0.517,0,0.97-0.194,1.293-0.517s0.517-0.776,0.517-1.358
		C222.901,222.901,222.901,222.707,222.836,222.578z M214.626,292.396c1.164-2.521-4.719-5.883-4.332-9.18
		c0.388-3.298,5.042-4.785,7.37-3.814c2.392,1.034,2.521,0.582,3.426-0.582c0.905-1.164,3.103-1.486,4.784,0.193
		c1.681,1.682,2.198,5.754,3.297,4.784c0.84-0.711,1.81-2.392,3.038-1.939c-0.258,0.452-0.388,0.905-0.388,1.423
		c0,0.193,0,0.388,0.064,0.517c-0.064,0.13-0.129,0.194-0.258,0.323c-0.97,0.453-1.616,1.486-1.616,2.586
		c0,0.582,0.194,1.229,0.517,1.681c-0.259,0.582-0.259,1.099-0.129,1.487c0.065,0.388,0.388,1.034,0.84,1.486
		c-0.064,0.259-0.129,0.453-0.129,0.711c0,0.711,0.259,1.357,0.776,1.811c0.453,0.453,1.099,0.775,1.746,0.905
		c0.194,0.388,0.453,0.775,0.84,0.97c0.453,0.322,1.034,0.388,1.616,0.258c0.259-0.064,0.517-0.193,0.776-0.387
		c0.388,0.84,0.905,1.551,1.487,2.068c0.97,0.904,1.875,1.681,2.715,2.262c-0.84,0.194-1.616,0.324-2.392,0.518
		c-0.129,0-0.259,0.064-0.323,0.129c-0.129,0-0.259,0-0.388,0.065c-0.452,0.129-0.905,0.194-1.292,0.323
		c-1.293-0.389-2.198-0.582-3.621-0.841c-2.068-0.323-12.412-1.228-14.352-2.068C216.565,297.373,213.398,294.982,214.626,292.396z
		 M286.643,300.605c-0.389,0.13-0.582,0.776-1.164,0.453c-0.193-0.129-0.518-0.064-0.904-0.129c0.517,0.388,0.904,0.646,1.293,0.969
		c0.129,0.065,0.258,0.194,0.258,0.389c-0.064,0.258-0.258,0.064-0.322,0.064c-0.453,0.193-1.035-0.259-1.553,0.129
		c0.194,0.194,0.453,0.064,0.518,0.389c-0.646,0-1.293,0-2.004,0c0.193,0.646,0.904,0.646,1.164,1.099
		c-1.035,0.259-1.682-0.776-2.65-0.841c0.064,0.582,0.646,1.035,0.452,1.617c-0.259-0.065-0.518-0.26-0.646-0.453
		c-0.452-0.775-1.164-1.229-1.939-1.552c-0.13-0.064-0.388-0.194-0.452-0.064s-0.064,0.388,0.129,0.582
		c0.582,0.517,1.034,1.099,1.811,1.422c0.322,0.13,0.646,0.388,0.84,0.905c-1.229-0.389-2.457-0.518-2.909-2.004
		c-0.13-0.453-0.517-0.711-0.841-1.035c-0.193-0.193-0.517,0.065-0.775,0.065c-0.711,0.064-0.904,0.388-0.646,1.099
		c0.064,0.129,0.129,0.259,0.193,0.453c0.065,0.129,0.13,0.258,0,0.322c-0.064,0.065-0.193,0-0.322-0.064
		c-0.518-0.193-0.646-0.711-0.905-1.099c-0.13-0.194-0.13-0.517-0.452-0.452c-0.324,0.064-0.646,0.129-0.776,0.388
		c-0.129,0.194,0.323,0.323,0.452,0.517c0.26,0.389,0.906,0.582,0.518,1.164c0.323,0.129,0.518,0.453,0.453,0.775
		c-0.064,0.323-0.389,0.323-0.711,0.194c-0.13-0.065-0.194,0.064-0.194,0.129l0.194,0.452l-0.065,0.646h-0.064l0,0
		c-0.064,0.194-0.064,0.453,0.259,0.582c0.193,0.13,0.518,0.194,0.518,0.518c-0.776-0.129-1.487,0.064-2.199,0.064
		c-0.193,0-0.258,0.129-0.258,0.389c0.064,0.193,0.129,0.322,0.323,0.322c0.517,0.13,0.905,0.389,1.357,0.711
		c-0.582,0.324-1.034,0.065-1.487-0.129c-0.129-0.064-0.258-0.129-0.388,0c-0.129,0.194,0.065,0.259,0.13,0.389
		c0.258,0.452,0.582,0.84,0.969,1.163c0.324,0.259,0.582,0.517,0.453,0.97c-0.453,0-0.646-0.453-1.164-0.775
		c0.324,0.452,0.518,0.711,0.582,1.033c0.064,0.194,0,0.453-0.193,0.389c-0.259-0.064-0.776-0.323-0.776-0.389
		c-0.194-0.581-0.646-0.969-0.775-1.551c-0.194-0.84-0.194-1.746-0.841-2.521c-0.064-0.064-0.129-0.193-0.064-0.258
		c-0.129,0.129-0.258-0.194-0.518-0.065c0.194,0.712,0.389,1.487,0.582,2.198c0.129,0.388,0.389,0.84-0.064,1.229
		c0-0.129,0-0.259-0.129-0.324c-0.129,0.195,0,0.26,0.129,0.324c0,0.452,0.129,1.034-0.388,1.357
		c-0.13-0.194-0.065-0.711-0.259-0.646c-0.646,0.323-0.388-0.259-0.388-0.389c-0.065-0.322,0-0.711-0.065-1.033
		c-0.258,0.129-0.129,0.452-0.517,0.582c0.259-0.776,0.065-1.553,0.452-2.134c0.389-0.582,0-1.745-0.711-1.875
		c-0.775-0.194-1.486-0.517-2.197-0.841c-0.905-0.388-1.811-0.711-2.586-1.486c0.258,1.034,1.229,1.1,1.875,1.551
		c-0.518,0-0.453,0.324-0.453,0.646c-0.129,0.712-0.193,0.712-0.711,0.26c-0.775-0.712-1.229-1.617-1.616-2.521
		c-0.452-1.035-1.293-1.552-2.327-1.552c-1.164,0-2.328,0.13-3.491,0c0,1.293-0.452,2.392-1.422,2.65
		c-2.651,0.776-6.788,0.259-10.15,0.259c-4.654-0.064-10.279-0.518-14.48-0.905c-6.465-0.646-2.909-0.776,5.171-2.78
		c0.453-0.129,0.97-0.258,1.552-0.387l0.517,1.745l0.194-1.939c1.034-0.194,2.133-0.452,3.491-0.712l0.388,2.134l0.194-2.198
		c0.711-0.129,1.422-0.322,2.263-0.452l0.776,2.909l-0.194-3.039c0.453-0.064,0.97-0.193,1.487-0.322l0.517,2.521l0.064-2.586
		c0.517-0.13,0.776-0.13,1.229-0.194l0.582,2.004l0.065-2.134c0.84-0.193,1.551-0.322,2.133-0.387l0.388,3.361l0.259-3.491
		c1.228-0.194,1.939-0.259,2.844-0.259c1.099,0,1.939,1.293,2.198,2.779c0.97-0.258,2.327-0.646,3.168-0.84
		c1.034-0.259,1.228-1.811,2.198-2.197c0.452-0.194,0.711-0.453,0.582-1.1c-0.194-0.84-0.065-1.1,0.581-1.357
		c0.13,0.452-0.064,0.904-0.129,1.357c0.323,0,0.517-0.064,0.581-0.323c0.065-0.13,0.065-0.194,0.26-0.13
		c0.775,0.389,1.293,0.194,1.68-0.517c0.065-0.13,0.13-0.13,0.26-0.064c0.064,0.064-0.065,0.323,0.193,0.194
		c0.129-0.065,0.258-0.194,0.193-0.389c-0.129-0.388-0.129-0.84-0.258-1.293c-0.453,0.259-0.646,0.582-0.711,1.035
		c0,0.129-0.064,0.258-0.194,0.258c-0.064,0-0.194-0.129-0.13-0.193c0.324-0.582,0.26-1.487,0.971-1.811
		c0.452-0.193,0.517-0.518,0.452-0.904c-0.13-0.582,0.064-0.906,0.517-1.1c0.453,0.518,0.776,1.1,1.617,0.646
		c0.193-0.129,0.775-0.064,0.517,0.582v0.064c-0.064,0.258-0.13,0.518-0.323,0.582c-0.646,0.193-0.259,0.582-0.323,0.969
		c0.388-0.258,0.194-0.517,0.259-0.711c0.258-0.129,0.258,0.518,0.582,0.194c0.193-0.194,0.258-0.323,0.322-0.517
		c0.065-0.065,0.13-0.194,0.13-0.324c0.064-0.129,0.064-0.258,0.259-0.258c0.129,0.322,0.388,0.711,0.84,0.582
		c-0.193,0.322-0.517,0.387-0.711,0.646c-0.064,0.064-0.323,0.064-0.064,0.258c0.064,0.064,0.064,0.323,0.323,0.194
		c0.323-0.13,0.581-0.259,0.776-0.582c0.129-0.194,0.387-0.582,0.451-0.582c0.389,0.194,0.971,0.194,1.1,0.841
		c0.064,0.452,0.064,0.97-0.258,1.229c-0.13,0.129-0.195,0.258-0.26,0.388c-0.129-0.065-0.258-0.065-0.452-0.13
		c-0.13,0-0.323-0.064-0.259,0.13c0.064,0.129-0.193,0.388,0.13,0.452c0.259,0.064,0.452,0.064,0.259,0.389
		c0,0.064,0.129,0.258,0.322,0.258c0.194,0,0.26-0.064,0.26-0.258c0,0,0,0,0-0.065c0-0.064,0-0.064,0.064-0.064
		c0.193-0.323,0.322-0.711,0.646-0.905c0.064-0.064,0.129-0.193,0.258-0.129s0.064,0.193,0.129,0.258
		c0.065,0.518-0.322,0.841-0.581,1.229c0.581-0.388,0.905-0.84,0.905-1.551c0-1.423,1.099-2.069,2.068-2.845
		c0.064-0.065,0.129-0.065,0.323,0.064c-0.517,0.841-1.293,1.681-0.905,2.909c0.453-0.193,0.711-0.646,0.711-1.164
		c0-0.582,0.259-0.84,0.711-1.163c0.13,0.452,0,0.905,0,1.293c0,0.129,0,0.194,0.065,0.323c0.129,0.129,0.259,0,0.323-0.064
		c0.129-0.13,0.258-0.259,0.388-0.453c0.323-0.518,0.841-0.84,1.487-1.229c-0.13,0.646-0.646,0.971-0.776,1.552
		c0.646-0.129,1.163-0.581,1.81-0.581c0.13,0.258-0.387,0.258-0.129,0.517c0.194,0.194,0.389,0.194,0.582,0.064
		c0.129-0.064,0.193-0.129,0.259-0.259c0.129-0.258,0.517-0.388,0.646-0.258c0.259,0.193,0,0.452-0.194,0.646
		c-0.258,0.258-0.388,0.582-0.518,0.904c0.389,0,0.646-0.193,0.971-0.258c0.322-0.13,0.582,0.322,0.969,0.258
		c-0.258,0.389-0.711,0.194-1.033,0.453c0.193,0,0.258,0.064,0.322,0.064c0.13,0,0.324-0.129,0.453,0.129
		c0.064,0.259-0.194,0.259-0.323,0.324c-0.194,0.129-0.452,0.129-0.712,0.064c-0.322-0.064-0.452,0.193-0.517,0.388
		s0,0.452,0.065,0.711c0.646-0.064,0.193,0.323,0.193,0.452c-0.064,0.389-0.389,0.518-0.646,0.775
		c-0.259,0.195-0.582,0.582-0.389,0.906c0.195,0.387,0.453-0.064,0.646,0c0.646,0.193,0.971-0.26,1.1-0.776
		c0.129-0.581,0.582-1.034,0.711-1.552c0.064-0.129,0.129-0.322,0.389-0.258c0,0.129,0,0.193-0.065,0.258
		c-0.064,0.259-0.323,0.582-0.064,0.711c0.388,0.194,0.323-0.322,0.517-0.517h0.065c0.517,1.034-0.905,1.099-0.905,1.939
		c0.582-0.194,1.164-0.259,1.552-0.517c0.452-0.26,0.905-0.194,1.357-0.26c0.581-0.064-0.065,0.582,0.388,0.518
		C286.643,300.541,286.643,300.605,286.643,300.605z M298.085,292.396c1.163,2.65-2.004,5.042-3.943,5.818
		c-0.841,0.387-3.427,0.711-6.142,1.098c-0.064-0.064-0.064-0.193-0.129-0.258c-0.324-0.453-0.776-0.711-1.293-0.711l0,0
		c-0.13,0-0.259,0-0.389,0c-0.064,0-0.193,0-0.258,0h-0.064c0-0.064-0.065-0.129-0.065-0.194c0,0,0,0,0-0.064
		c-0.129-0.259-0.323-0.517-0.581-0.646c-0.064-0.065-0.13-0.13-0.194-0.194c0.13-0.388,0.064-0.84-0.13-1.229
		c-0.193-0.387-0.517-0.646-0.904-0.775c-0.064-0.452-0.259-0.904-0.646-1.229l-0.064-0.064c0.129-0.129,0.258-0.193,0.258-0.193
		s3.232,1.099,5.172,1.357c2.004,0.258,2.328,0.064,3.426-0.064c1.035-0.194,2.78-0.905,0.518-0.518
		c-2.197,0.388-2.908,0.259-4.719-0.193c-1.811-0.453-3.491-1.035-3.491-1.035s1.034-0.84,2.586-2.004
		c1.552-1.229,2.263-1.681,2.521-1.681c0.26,0,2.975,0.194,4.461-0.13c1.487-0.387,1.487-0.646,2.457-1.099
		c0.129-0.064,0.711-0.581,0.388-0.452c-1.034,0.388-2.004,1.164-4.849,1.164c-1.422,0-2.068-0.13-2.068-0.13
		s6.336-5.106,7.176-6.724c0.258-0.452-1.875,1.423-1.939,1.487c-3.426,3.167-5.689,4.72-6.723,5.56
		c-1.035,0.84-3.168,2.586-3.168,2.586s0.775-0.97,1.099-2.65c0.323-1.682,0.582-3.297,0.323-4.202
		c-0.259-0.776-0.775-1.745-0.388,0.064s-0.518,3.879-1.163,5.688c-0.582,1.811-1.035,2.004-1.035,2.004s-0.582,0.453-1.422,1.035
		c-0.064,0-0.129-0.064-0.259-0.064c-0.259,0-0.517,0-0.776,0.064c-0.064,0-0.129-0.064-0.193-0.064
		c-0.129-0.324-0.323-0.582-0.582-0.711c-0.258-0.194-0.518-0.26-0.775-0.26c-0.323-0.064-0.711,0.065-1.035,0.194l-0.064,0.065
		c-0.129,0.064-0.258,0.129-0.388,0.193c-0.064,0-0.064-0.064-0.129-0.064c-0.065-0.129-0.13-0.194-0.194-0.323
		c-0.322-0.388-0.711-0.518-1.034-0.582c0.841-3.62,1.099-7.499,2.134-9.115c1.681-2.65,3.103-0.064,4.201,0.905
		c1.1,0.97,1.617-3.104,3.297-4.784c1.682-1.681,3.879-1.422,4.784-0.194c0.905,1.164,1.099,1.617,3.427,0.582
		c2.327-1.034,7.047,0.453,7.369,3.814C302.805,286.514,296.922,289.875,298.085,292.396z"/>
	<path fill="#662E6B" d="M275.523,321.229l-1.035,0.258l0.906,3.427c0.129,0.452,0.129,0.776,0.064,1.034
		c-0.13,0.323-0.389,0.582-0.776,0.646c-0.388,0.129-0.711,0.064-0.97-0.193c-0.193-0.194-0.323-0.453-0.452-0.905l-0.905-3.427
		l-1.034,0.259l0.905,3.62c0.129,0.582,0.452,1.035,0.969,1.357c0.389,0.194,0.776,0.324,1.164,0.324c0.194,0,0.389,0,0.582-0.065
		c0.646-0.129,1.1-0.517,1.422-1.034c0.259-0.518,0.324-1.034,0.194-1.681L275.523,321.229z"/>
	<path fill="#662E6B" d="M279.208,300.994c0.13,0.258,0.259,0.452,0.582,0.518C279.79,301.123,279.66,300.93,279.208,300.994z"/>
	<path fill="#662E6B" d="M280.501,298.344c0-0.453-0.064-0.775-0.452-0.711c-0.389,0.064-0.905,0-1.1,0.452
		c-0.129,0.259,0.582,0.841,1.1,0.905C280.437,298.926,280.437,298.537,280.501,298.344z"/>
	<path fill="#662E6B" d="M250.247,277.786c0.194-0.388,0.646-0.646,0.97-0.776v-0.064c0-0.064,0-0.064,0-0.129
		c-0.323-0.064-0.582-0.259-0.776-0.582c0.064,0.518-0.711,1.034-0.97,1.1h-0.129c-0.064,0-0.323-0.13-0.388-0.065
		c-0.065,0-0.259,0.13-0.259,0.259c-0.064,0-0.129,0.193-0.129,0.193c0.065,0.26,0.194,0.453,0.323,0.646
		c0.065-0.193,0.259-0.322,0.388-0.387c0.064-0.195,0.129-0.389,0.258-0.389c0.129,0,0.259,0.064,0.323,0.193
		c0.065,0,0.129,0,0.194,0C250.117,277.786,250.182,277.786,250.247,277.786z"/>
	<path fill="#662E6B" d="M250.247,282.957c0,0-0.129-0.064-0.323-0.129c0,0.129,0.064,0.259,0.064,0.323
		c0,0.13-0.064,0.194-0.064,0.323c0.129-0.064,0.258-0.129,0.388-0.193L250.247,282.957z"/>
	<path fill="#662E6B" d="M260.783,246.885c0.518,0.517,1.164,0.905,1.875,1.229c0.711,0.258,1.487,0.452,2.264,0.452
		c0.775,0,1.551-0.129,2.262-0.452c0.711-0.259,1.357-0.711,1.875-1.229s0.97-1.164,1.293-1.81c0.323-0.711,0.453-1.487,0.453-2.327
		s-0.13-1.616-0.453-2.327c-0.323-0.711-0.775-1.293-1.293-1.81c-0.518-0.518-1.164-0.905-1.875-1.229
		c-0.711-0.259-1.486-0.453-2.262-0.453c-0.776,0-1.553,0.129-2.264,0.453c-0.711,0.259-1.357,0.711-1.875,1.229
		c-0.517,0.517-0.969,1.164-1.293,1.81c-0.322,0.711-0.451,1.487-0.451,2.327s0.129,1.616,0.451,2.327
		C259.814,245.786,260.267,246.368,260.783,246.885z"/>
	<path fill="#662E6B" d="M262.658,225.034c1.357,0,2.457-0.452,3.427-1.422c0.905-0.97,1.422-2.069,1.422-3.491
		c0-1.422-0.452-2.521-1.357-3.491s-2.004-1.422-3.361-1.422c-1.358,0-2.457,0.453-3.427,1.422
		c-0.904,0.905-1.357,2.069-1.357,3.426c0,1.422,0.453,2.586,1.422,3.491C260.332,224.582,261.43,225.034,262.658,225.034z"/>
	<path fill="#662E6B" d="M249.083,286.125c0-0.258,0.129-0.452,0.258-0.646c-0.064-0.064-0.064-0.193-0.129-0.322
		c-0.064-0.324-0.064-0.582,0-0.841c-0.129,0.064-0.258,0.064-0.452,0.064h-0.065l0,0l0.129,4.331
		c0.259-0.452,0.582-1.099,0.776-1.681C249.341,286.9,249.083,286.514,249.083,286.125z"/>
	<path fill="#662E6B" d="M245.01,281.794L245.01,281.794L245.01,281.794L245.01,281.794z"/>
	<path fill="#662E6B" d="M249.277,280.178c0.129,0.582-0.129,1.229-0.517,1.746h0.064c0.129,0,0.259,0.064,0.323,0.064
		c0.259-0.324,0.517-0.776,0.388-1.617c0-0.129,0-0.258-0.064-0.387c-0.323-0.13-0.582-0.389-0.711-0.711
		c-0.065,0-0.065,0.064-0.129,0.064c-0.259,0.064-0.388,0.129-0.646-0.064l-0.129,0.451
		C248.501,279.596,249.147,279.531,249.277,280.178z"/>
	<path fill="#662E6B" d="M246.368,287.095c-0.129,0.194-0.323,0.388-0.517,0.388c-0.323,0.064-0.517-0.129-0.582-0.388
		c-0.129,0.065-0.258,0.194-0.388,0.194c0.064,0.258,0.129,0.582,0.194,0.904c0.194-0.193,0.453-0.258,0.711-0.258h0.065
		c0.194-0.323,0.646-0.582,1.099-0.582c0.194,0,0.323,0.064,0.452,0.064c0.065-0.129,0.129-0.258,0.129-0.388
		c-0.194,0.13-0.388,0.194-0.646,0.194C246.82,287.289,246.562,287.225,246.368,287.095z"/>
	<path fill="#662E6B" d="M234.731,242.748c0,0.84,0.129,1.616,0.453,2.327c0.323,0.711,0.775,1.293,1.292,1.81
		c0.518,0.517,1.164,0.905,1.875,1.229c0.711,0.258,1.487,0.452,2.263,0.452s1.551-0.129,2.263-0.452
		c0.711-0.259,1.357-0.711,1.875-1.229s0.97-1.164,1.293-1.81c0.323-0.711,0.453-1.487,0.453-2.327s-0.129-1.616-0.453-2.327
		c-0.323-0.711-0.776-1.293-1.293-1.81c-0.517-0.518-1.164-0.905-1.875-1.229c-0.711-0.259-1.487-0.453-2.263-0.453
		s-1.552,0.129-2.263,0.453c-0.711,0.259-1.357,0.711-1.875,1.229c-0.517,0.517-0.97,1.164-1.292,1.81
		C234.86,241.131,234.731,241.907,234.731,242.748z"/>
	<path fill="#662E6B" d="M248.113,284.121C248.048,284.121,248.048,284.121,248.113,284.121l-0.323,0.646
		c0.194,0.064,0.194,0.129,0.258,0.323c0,0.065,0,0.13,0,0.13c0.065,0.064,0.129,0.129,0.194,0.193c0.065-0.323,0.065-0.646,0-0.97
		C248.178,284.51,248.113,284.314,248.113,284.121z"/>
	<path fill="#662E6B" d="M281.535,296.728L281.535,296.728L281.535,296.728L281.535,296.728z"/>
	<path fill="#662E6B" d="M271.58,307.459L271.58,307.459c-0.324,0.064-0.582,0-0.518-0.453c0-0.064,0-0.129-0.064-0.193l0,0
		c0-0.064-0.064-0.064-0.129-0.064s-0.13,0-0.194,0s-0.064,0-0.13,0.064c-0.193,0.129,0,0.258,0.065,0.388
		c0.129,0.194,0.323,0.323-0.065,0.388c-0.064,0,0.065,0.129,0.13,0.193c0.13,0.13,0.388,0.13,0.323,0.389
		c0.388,0.064,0.582,0.518,0.97,0.518C272.291,308.17,271.773,307.911,271.58,307.459z"/>
	<path fill="#662E6B" d="M236.153,298.215c-1.681-1.293-7.434-5.625-7.434-5.625s-0.388-0.193-1.034-2.004
		c-0.582-1.811-1.552-3.879-1.164-5.689c0.388-1.81-0.129-0.84-0.388-0.064c-0.259,0.905,0,2.521,0.323,4.202
		s1.099,2.651,1.099,2.651s-2.069-1.746-3.168-2.586c-1.034-0.841-3.361-2.328-6.723-5.561c-0.064-0.064-2.133-1.939-1.939-1.486
		c0.84,1.616,7.176,6.723,7.176,6.723s-0.646,0.13-2.068,0.13c-2.909-0.065-3.879-0.841-4.849-1.164
		c-0.323-0.129,0.258,0.388,0.388,0.452c0.905,0.518,0.97,0.776,2.457,1.1c1.487,0.388,4.202,0.193,4.461,0.129
		c0.258,0,0.97,0.518,2.521,1.682c1.552,1.163,2.586,2.004,2.586,2.004s-1.681,0.646-3.491,1.034
		c-1.811,0.452-2.521,0.581-4.719,0.194c-2.198-0.389-0.517,0.322,0.517,0.517s1.422,0.323,3.426,0.064s5.171-1.357,5.171-1.357
		s1.875,1.487,2.845,2.069c1.099,0.646,4.073,3.297,5.366,3.684C237.705,299.507,236.929,298.796,236.153,298.215z"/>
	<path fill="#662E6B" d="M271.58,307.459L271.58,307.459v-0.064V307.459z"/>
</g>
</svg>
