<?xml version="1.0" encoding="utf-8"?>
<!-- Generator: Adobe Illustrator 15.0.2, SVG Export Plug-In . SVG Version: 6.00 Build 0)  -->
<!DOCTYPE svg PUBLIC "-//W3C//DTD SVG 1.1//EN" "http://www.w3.org/Graphics/SVG/1.1/DTD/svg11.dtd">
<svg version="1.1" id="Layer_1" xmlns="http://www.w3.org/2000/svg" xmlns:xlink="http://www.w3.org/1999/xlink" x="0px" y="0px"
	 width="164.525px" height="29.996px" viewBox="0 0 164.525 29.996" enable-background="new 0 0 164.525 29.996"
	 xml:space="preserve">
<g>
	<path fill="#5E5E5E" d="M5.894,22.489l-2.343,3.278h12.026l8.618,4.266l-2.616-4.266h15.227l-2.344-3.278l0,0l0,0l4.84,1.448V3.564
		l-4.84,1.579l0,0l0,0l2.344-2.94H3.551l2.343,2.94l0,0l0,0L1,3.564v20.373 M17.842,21.337H7.43H7.205V6.294H7.43h10.932h0.225
		c-3.441,0.811-6.012,3.906-6.012,7.591c0,3.497,2.314,6.465,5.492,7.451H17.842z M13.293,13.886c0-3.781,3.076-6.858,6.858-6.858
		s6.858,3.077,6.858,6.858c0,3.782-3.077,6.858-6.858,6.858S13.293,17.668,13.293,13.886 M22.483,21.337H22.46
		c3.177-0.986,5.491-3.954,5.491-7.451c0-3.686-2.57-6.78-6.012-7.591h0.023h11.157h0.03v15.042"/>
	<path fill="#5E5E5E" d="M11.9,13.886c0-2.826,1.375-5.366,3.565-6.915H8.107v13.69h7.167C13.185,19.096,11.9,16.62,11.9,13.886"/>
	<path fill="#5E5E5E" d="M28.65,13.886c0,2.734-1.285,5.21-3.374,6.775h7.167V6.971h-7.359C27.275,8.52,28.65,11.06,28.65,13.886"/>
</g>
<g>
	<path fill="#5E5E5E" d="M40.886,3.563h9.84v2.895h-3.328v17.364h-3.184V6.458h-3.328V3.563z"/>
	<path fill="#5E5E5E" d="M55.064,12.102h4.37v2.894h-4.37v5.933h5.499v2.894h-8.683V3.563h8.683v2.895h-5.499V12.102z"/>
	<path fill="#5E5E5E" d="M61.979,3.563h3.184v17.365h5.238v2.894h-8.422V3.563z"/>
	<path fill="#5E5E5E" d="M71.555,3.563h3.184v17.365h5.238v2.894h-8.422V3.563z"/>
	<path fill="#5E5E5E" d="M81.129,3.563h3.185v20.259h-3.185V3.563z"/>
	<path fill="#5E5E5E" d="M88.81,9.149v14.673h-2.865V3.563h3.994l3.27,12.126V3.563h2.836v20.259h-3.27L88.81,9.149z"/>
	<path fill="#5E5E5E" d="M102.583,12.535h4.457v6.425c0,3.242-1.621,5.094-4.746,5.094c-3.127,0-4.746-1.852-4.746-5.094V8.426
		c0-3.241,1.619-5.094,4.746-5.094c3.125,0,4.746,1.853,4.746,5.094v1.968h-3.01v-2.17c0-1.447-0.637-1.997-1.65-1.997
		c-1.012,0-1.648,0.55-1.648,1.997v10.94c0,1.446,0.637,1.968,1.648,1.968c1.014,0,1.65-0.521,1.65-1.968V15.43h-1.447V12.535z"/>
	<path fill="#C44343" d="M114.495,3.332c3.098,0,4.689,1.853,4.689,5.094v0.637h-3.01V8.223c0-1.447-0.58-1.997-1.592-1.997
		c-1.014,0-1.592,0.55-1.592,1.997c0,4.167,6.223,4.949,6.223,10.737c0,3.242-1.621,5.094-4.748,5.094
		c-3.125,0-4.746-1.852-4.746-5.094v-1.244h3.01v1.447c0,1.446,0.637,1.968,1.65,1.968s1.65-0.521,1.65-1.968
		c0-4.167-6.223-4.949-6.223-10.737C109.808,5.185,111.4,3.332,114.495,3.332z"/>
	<path fill="#C44343" d="M120.05,3.563h9.84v2.895h-3.328v17.364h-3.184V6.458h-3.328V3.563z"/>
	<path fill="#C44343" d="M130.847,8.426c0-3.241,1.709-5.094,4.834-5.094s4.834,1.853,4.834,5.094V18.96
		c0,3.242-1.709,5.094-4.834,5.094s-4.834-1.852-4.834-5.094V8.426z M134.031,19.163c0,1.446,0.637,1.997,1.65,1.997
		s1.65-0.551,1.65-1.997V8.223c0-1.447-0.637-1.997-1.65-1.997s-1.65,0.55-1.65,1.997V19.163z"/>
	<path fill="#C44343" d="M148.685,23.822c-0.174-0.521-0.289-0.839-0.289-2.489V18.15c0-1.882-0.637-2.576-2.084-2.576h-1.1v8.248
		h-3.184V3.563h4.803c3.301,0,4.719,1.534,4.719,4.66v1.592c0,2.083-0.666,3.444-2.084,4.109c1.592,0.666,2.113,2.2,2.113,4.313
		v3.125c0,0.984,0.027,1.708,0.346,2.46H148.685z M145.212,6.458v6.222h1.244c1.186,0,1.91-0.521,1.91-2.142V8.542
		c0-1.447-0.492-2.083-1.621-2.083H145.212z"/>
	<path fill="#C44343" d="M156.109,17.108l-4.023-13.545h3.328l2.432,9.232l2.432-9.232h3.037l-4.021,13.545v6.714h-3.184V17.108z"/>
</g>
<polygon fill="#C44343" points="17.349,9.763 24.611,13.955 17.349,18.146 "/>
</svg>
