<?xml version="1.0" encoding="utf-8"?>
<!-- Generator: Adobe Illustrator 15.0.0, SVG Export Plug-In . SVG Version: 6.00 Build 0)  -->
<!DOCTYPE svg PUBLIC "-//W3C//DTD SVG 1.1//EN" "http://www.w3.org/Graphics/SVG/1.1/DTD/svg11.dtd">
<svg version="1.1" id="Layer_2_copy" xmlns="http://www.w3.org/2000/svg" xmlns:xlink="http://www.w3.org/1999/xlink" x="0px"
	 y="0px" width="72.062px" height="92.887px" viewBox="0 0 72.062 92.887" enable-background="new 0 0 72.062 92.887"
	 xml:space="preserve">
<g>
	<path fill="#FFFFFF" d="M22.699,50.174l-3.723,0.006c-0.438,0-0.812-0.02-0.92-0.52c-0.141-0.645,0.47-0.773,0.47-0.773
		c-0.053,0.037-0.204,0.322-0.085,0.619c0.108,0.267,0.328,0.228,0.696,0.228l4.161-0.004
		C23.298,50.133,22.699,50.174,22.699,50.174"/>
	<path fill="#FFFFFF" d="M21.693,66.341h-1.81c-0.308-0.001-0.586-0.058-0.699-0.399c-0.137-0.41,0.318-0.506,0.318-0.506
		c-0.035,0.028-0.094,0.16-0.01,0.367c0.077,0.189,0.246,0.178,0.506,0.18l2.118,0.012C22.117,66.342,21.693,66.341,21.693,66.341"
		/>
	<path fill="#FFFFFF" d="M23.244,50.559l-5.022,0.009c-0.475,0-0.904-0.409-0.906-1.027c0-0.591,0.435-1.02,0.904-1.02l5.022-0.007
		c0.467,0,0.906,0.451,0.908,1.018C24.149,50.103,23.71,50.559,23.244,50.559 M22.022,51.813l-2.572,0.002
		c-0.441,0.002-0.835-0.206-1.086-0.532l4.738-0.006C22.854,51.603,22.461,51.811,22.022,51.813 M20.224,52.602
		c0.548,0.022,1.26,0.017,1.999-0.08l-0.528,11.767l-1.261,0.002L20.224,52.602z M19.205,52.52c0,0,0.183,0.025,0.488,0.05
		l0.435,11.721l-0.339,0.001L19.205,52.52z M22.991,65.889c0,0.475-0.397,0.883-0.882,0.884L19.4,66.776
		c-0.49,0.001-0.887-0.393-0.887-0.881c0-0.479,0.394-0.883,0.885-0.885l2.709-0.002C22.594,65.006,22.991,65.404,22.991,65.889
		 M21.335,72.297c0,0.323-0.235,0.582-0.574,0.582c-0.316,0.002-0.576-0.261-0.576-0.58l-0.237-4.802h0.3l0.171,4.644
		c0,0.351,0.163,0.422,0.163,0.422l-0.091-5.065l1.06-0.002L21.335,72.297z M16.882,46.104c0-0.633,0.257-1.158,0.529-1.714
		c0.333-0.677,0.701-1.426,0.526-2.375c0.349,0.133,0.791,0.368,1.175,0.751c-0.244,0.295-0.511,0.582-0.659,0.759
		c-1.023,1.219-1.419,2.67-0.32,4.287h-0.158C17.965,47.809,16.884,47.425,16.882,46.104 M20.501,40.742
		c0.916,0.739,2.046,2.133,2.049,3.734c0,1.447-1.24,3.107-1.537,3.32c-0.24-0.324-0.538-0.931-0.54-1.62
		c-0.003-1.192,0.581-1.891,0.581-1.891s-0.862,0.556-0.988,1.66c-0.061,0.54,0.057,1.106,0.422,1.851h-0.522
		c-0.141-0.226-1.151-1.484-0.311-2.907c0.141-0.233,0.774-1.148,0.852-1.333c0.099-0.226,0.089-0.437,0.089-0.437
		c-0.105,0.171-0.286,0.374-0.286,0.374c-0.182,0.2-0.8,0.84-0.995,1.076c-1.207,1.464-0.032,3.092,0.024,3.229h-0.489
		c-0.538-0.614-0.717-1.212-0.663-2.113C18.309,43.662,20.745,43.409,20.501,40.742 M23.872,42.456
		c-0.249,1.523,0.206,2.768,0.281,2.955c0.43,1.54-0.735,2.251-0.993,2.389l-0.035-0.008l-1.168,0.002
		c0.729-0.955,1.313-2.204,1.313-3.318c-0.002-0.338-0.036-0.658-0.1-0.967l-0.098-0.326C23.368,42.84,23.645,42.603,23.872,42.456
		 M24.077,48.066c0.618-0.556,1.182-1.519,0.793-2.881l-0.017-0.04c-0.005-0.014-0.618-1.529-0.087-3.215l0.178-0.558l-0.58,0.073
		c-0.084,0.009-0.765,0.117-1.594,0.948c-0.69-1.394-2.007-2.434-3.375-3.118c0.502,1.601,0.569,2.188,0.157,2.871
		c-0.936-0.872-2.074-1.04-2.126-1.046l-0.658-0.09l0.266,0.61c0.423,0.975,0.09,1.652-0.296,2.439
		c-0.284,0.58-0.607,1.237-0.607,2.047c0.001,1.063,0.541,1.742,1.052,2.113c-0.358,0.324-0.588,0.802-0.586,1.324
		c0,0.67,0.342,1.252,0.862,1.543c0.169,0.522,0.535,0.953,1.013,1.207l0.598,12.031c-0.731,0.153-1.277,0.807-1.275,1.571
		c0,0.827,0.628,1.509,1.43,1.593l0.242,4.822c0,0.714,0.58,1.292,1.295,1.291c0.746,0,1.288-0.58,1.296-1.278l0.216-4.838
		c0.813-0.085,1.439-0.788,1.437-1.597c0-0.78-0.558-1.432-1.296-1.571l0.535-12.004c0.506-0.251,0.894-0.701,1.066-1.249
		c0.519-0.305,0.854-0.91,0.854-1.535C24.868,48.943,24.555,48.381,24.077,48.066"/>
	<path fill="#FFFFFF" d="M52.737,50.174l-3.723,0.006c-0.438,0-0.812-0.02-0.92-0.52c-0.141-0.645,0.47-0.773,0.47-0.773
		c-0.054,0.037-0.203,0.322-0.085,0.619c0.107,0.267,0.328,0.228,0.695,0.228l4.162-0.004
		C53.337,50.133,52.737,50.174,52.737,50.174"/>
	<path fill="#FFFFFF" d="M51.732,66.341h-1.81c-0.309-0.001-0.587-0.058-0.699-0.399c-0.138-0.41,0.317-0.506,0.317-0.506
		c-0.034,0.028-0.094,0.16-0.01,0.367c0.077,0.189,0.246,0.178,0.506,0.18l2.118,0.012C52.156,66.342,51.732,66.341,51.732,66.341"
		/>
	<path fill="#FFFFFF" d="M53.282,50.559l-5.021,0.009c-0.477,0-0.905-0.409-0.906-1.027c0-0.591,0.435-1.02,0.904-1.02l5.021-0.007
		c0.467,0,0.906,0.451,0.909,1.018C54.189,50.103,53.748,50.559,53.282,50.559 M52.062,51.813l-2.573,0.002
		c-0.44,0.002-0.833-0.206-1.085-0.532l4.738-0.006C52.894,51.603,52.5,51.811,52.062,51.813 M50.261,52.602
		c0.549,0.022,1.263,0.017,2-0.08l-0.527,11.767l-1.262,0.002L50.261,52.602z M49.243,52.52c0,0,0.184,0.025,0.488,0.05
		l0.435,11.721l-0.339,0.001L49.243,52.52z M53.03,65.889c0,0.475-0.396,0.883-0.882,0.884l-2.709,0.003
		c-0.49,0.001-0.888-0.393-0.888-0.881c0-0.479,0.396-0.883,0.885-0.885l2.71-0.002C52.634,65.006,53.03,65.404,53.03,65.889
		 M51.374,72.297c0,0.323-0.236,0.582-0.574,0.582c-0.315,0.002-0.576-0.261-0.576-0.58l-0.236-4.802h0.3l0.171,4.644
		c0,0.351,0.163,0.422,0.163,0.422l-0.091-5.065l1.061-0.002L51.374,72.297z M46.921,46.104c0-0.633,0.258-1.158,0.529-1.714
		c0.333-0.677,0.701-1.426,0.525-2.375c0.351,0.133,0.791,0.368,1.174,0.751c-0.243,0.294-0.51,0.582-0.658,0.759
		c-1.021,1.219-1.417,2.67-0.318,4.287h-0.158C48.005,47.809,46.923,47.425,46.921,46.104 M50.54,40.742
		c0.917,0.739,2.047,2.133,2.049,3.734c0,1.447-1.238,3.107-1.537,3.32c-0.24-0.324-0.537-0.931-0.539-1.62
		c-0.002-1.192,0.582-1.891,0.582-1.891s-0.862,0.556-0.989,1.66c-0.06,0.54,0.057,1.106,0.423,1.851h-0.523
		c-0.141-0.226-1.15-1.484-0.311-2.907c0.141-0.233,0.773-1.148,0.852-1.333c0.1-0.226,0.09-0.437,0.09-0.437
		c-0.105,0.171-0.287,0.374-0.287,0.374c-0.18,0.2-0.799,0.84-0.994,1.076c-1.207,1.464-0.032,3.092,0.023,3.229H48.89
		c-0.539-0.614-0.717-1.212-0.664-2.113C48.347,43.662,50.784,43.409,50.54,40.742 M53.91,42.456
		c-0.249,1.523,0.206,2.768,0.281,2.955c0.429,1.54-0.735,2.251-0.993,2.389l-0.035-0.008l-1.168,0.002
		c0.729-0.955,1.312-2.204,1.312-3.318c-0.002-0.338-0.035-0.658-0.1-0.967l-0.098-0.326C53.406,42.84,53.683,42.603,53.91,42.456
		 M54.115,48.066c0.618-0.556,1.183-1.519,0.793-2.881l-0.017-0.04c-0.006-0.014-0.618-1.529-0.086-3.215l0.177-0.558l-0.581,0.073
		c-0.083,0.009-0.764,0.117-1.594,0.949c-0.688-1.395-2.006-2.434-3.375-3.119c0.502,1.6,0.57,2.187,0.156,2.87
		c-0.936-0.871-2.072-1.039-2.125-1.045l-0.658-0.09l0.267,0.61c0.422,0.975,0.09,1.652-0.296,2.439
		c-0.285,0.58-0.607,1.237-0.607,2.047c0.002,1.064,0.541,1.742,1.053,2.115c-0.358,0.324-0.588,0.8-0.586,1.322
		c0,0.67,0.342,1.252,0.861,1.543c0.169,0.522,0.535,0.953,1.014,1.207l0.597,12.031c-0.729,0.153-1.276,0.807-1.274,1.571
		c0,0.827,0.629,1.509,1.43,1.593l0.242,4.822c0,0.714,0.58,1.292,1.295,1.291c0.746,0,1.289-0.58,1.297-1.278l0.217-4.838
		c0.812-0.085,1.438-0.788,1.435-1.597c0-0.78-0.557-1.432-1.294-1.571l0.534-12.004c0.505-0.251,0.894-0.701,1.065-1.249
		c0.52-0.305,0.854-0.91,0.854-1.535C54.906,48.943,54.593,48.381,54.115,48.066"/>
	<path fill="#FFFFFF" d="M39.324,52.911l-6.634,0.008c-0.865,0.002-1.567-0.701-1.568-1.562c-0.002-0.865,0.7-1.566,1.563-1.568
		l6.635-0.008c0.117,0,0.229,0.014,0.338,0.039l0.009,0.014c0,0,0.008-0.004,0.019-0.01c0.687,0.165,1.202,0.783,1.203,1.52
		C40.889,52.206,40.188,52.911,39.324,52.911 M37.992,54.604l-4.042,0.005c-0.644,0-1.201-0.39-1.442-0.947
		c0.061,0.004,0.121,0.008,0.182,0.008l6.637-0.008c0.076,0,0.15-0.002,0.225-0.01C39.3,54.202,38.688,54.602,37.992,54.604
		 M37.501,72.001l-1.928,0.003L35.369,55.36l2.626-0.004c0.092,0,0.182-0.006,0.273-0.017L37.501,72.001z M39.284,74.046
		c0,0.716-0.58,1.3-1.297,1.3l-3.856,0.006c-0.715,0-1.297-0.582-1.298-1.297c0-0.716,0.58-1.297,1.294-1.297l3.857-0.007
		C38.7,72.751,39.282,73.332,39.284,74.046 M36.999,82.883c0.002,0.545-0.441,0.99-0.986,0.99c-0.546,0-0.989-0.443-0.993-1.006
		L34.71,76.1h0.609l0.256,6.612c0,0.486,0.226,0.585,0.226,0.585L35.687,76.1l1.628-0.004L36.999,82.883z M34.483,55.36
		l0.697,16.645l-0.658,0.001l-0.764-16.653c0.063,0.006,0.127,0.01,0.192,0.01L34.483,55.36z M30.527,46.625
		c-0.003-0.911,0.363-1.652,0.749-2.44c0.501-1.021,1.017-2.072,0.662-3.452c0.545,0.175,1.347,0.54,2.012,1.239
		c-0.165,0.203-0.346,0.398-0.539,0.608c-0.145,0.159-0.296,0.322-0.455,0.501c-0.226,0.228-2.663,2.799-0.597,5.983
		c-0.087,0.012-0.172,0.027-0.257,0.051C31.869,49.02,30.529,48.397,30.527,46.625 M35.402,40.927
		c0.23-0.641,0.191-1.378,0.097-1.956c1.145,0.884,3.13,2.76,3.146,5.145c0.018,2.421-1.555,4.293-2.155,4.915l-0.103,0.002
		c-0.328-0.451-0.735-1.283-0.735-2.228c-0.004-1.654,0.804-2.623,0.804-2.623s-1.193,0.774-1.368,2.301
		c-0.085,0.745,0.076,1.528,0.575,2.55h-0.726c-0.226-0.347-1.571-2.067-0.419-4.011c0.193-0.326,1.067-1.591,1.18-1.849
		c0.137-0.313,0.12-0.608,0.12-0.608c-0.142,0.237-0.396,0.521-0.396,0.521c-0.252,0.278-1.108,1.165-1.379,1.493
		c-1.637,1.986-0.108,4.195,0.027,4.456l-0.812,0.002c-2.277-2.971,0.123-5.322,0.23-5.425l0.025-0.026
		c0.156-0.177,0.306-0.338,0.45-0.493C34.546,42.459,35.048,41.914,35.402,40.927 M40.56,41.284
		c-0.465,2.238,0.23,4.101,0.326,4.339c0.576,2.044-0.797,3.095-1.331,3.418c-0.077-0.008-0.156-0.012-0.234-0.012l-1.819,0.002
		c0.787-0.953,1.912-2.707,1.896-4.921c-0.003-0.572-0.103-1.112-0.267-1.624C39.682,41.839,40.19,41.479,40.56,41.284
		 M40.44,49.317c0.764-0.643,1.739-1.904,1.162-3.922l-0.014-0.04c-0.012-0.022-0.881-2.182-0.127-4.557l0.178-0.558l-0.581,0.073
		c-0.048,0.006-1.05,0.143-2.24,1.398c-1.146-2.387-3.599-3.866-3.735-3.945l-0.9-0.531l0.358,0.983
		c0.144,0.398,0.454,1.617,0.154,2.455c-0.091,0.254-0.196,0.472-0.308,0.671c-1.282-1.273-2.908-1.501-2.981-1.511l-0.658-0.086
		l0.266,0.608c0.613,1.408,0.139,2.379-0.411,3.501c-0.407,0.828-0.828,1.686-0.826,2.77c0.001,1.492,0.794,2.424,1.497,2.896
		c-0.548,0.426-0.905,1.088-0.903,1.834c0.001,0.91,0.53,1.695,1.294,2.074c0.131,0.771,0.641,1.412,1.333,1.725l0.774,16.885
		c-0.962,0.17-1.692,1.012-1.691,2.016c0.002,1.071,0.828,1.95,1.877,2.041l0.312,6.791c0,0.959,0.783,1.739,1.742,1.737
		c0.96,0,1.74-0.782,1.738-1.726l0.314-6.803c1.094-0.045,1.971-0.944,1.971-2.051c-0.003-1.039-0.779-1.894-1.783-2.025
		l0.777-16.892c0.725-0.327,1.26-0.977,1.374-1.735c0.735-0.389,1.237-1.162,1.235-2.053C41.64,50.471,41.153,49.711,40.44,49.317"
		/>
	<path fill="#FFFFFF" d="M32.326,51.377c-0.191-0.475,0.05-0.936,0.135-0.999c0,0-0.937,0.161-0.709,1.204
		c0.173,0.802,0.727,0.887,1.435,0.885l6.007-0.008c0,0,0.703,0.066,0.97-0.6l-6.718,0.01
		C32.854,51.872,32.499,51.811,32.326,51.377"/>
	<path fill="#FFFFFF" d="M33.817,74.094c-0.15-0.379,0.04-0.738,0.107-0.789c0,0-0.739,0.127-0.561,0.951
		c0.139,0.633,0.575,0.697,1.135,0.696l3.274-0.004c0,0,0.553,0.051,0.762-0.471L34.7,74.483
		C34.234,74.483,33.954,74.434,33.817,74.094"/>
	<path fill="#FFFFFF" d="M63.981,56.923C59.604,67.599,51.226,82.209,36.12,91.417C20.986,82.25,12.567,67.659,8.166,56.995
		c-4.055-9.819-5.537-18.161-5.912-20.612c1.808-1.016,3.611-1.509,5.65-1.511H7.92c1.428,0,3.446,0.262,4.602,0.598l0.701,0.205
		c0.587,0.172,1.196,0.351,1.815,0.525V36.2c2.235,0.639,4.775,1.293,6.682,1.293h0.014c2.138-0.003,5.473-0.283,9.221-1.603
		c1.066-0.377,2.339-0.785,3.703-0.963l1.234-0.09c0.024-0.001,0.048-0.001,0.073-0.001l1.907,0.171
		c1.156,0.198,2.25,0.549,3.167,0.869c3.731,1.306,7.063,1.582,9.207,1.582h0.021c1.291-0.002,2.973-0.294,5.293-0.92v0.001
		c0.965-0.259,1.94-0.548,2.867-0.822l1.04-0.307c1.149-0.334,3.25-0.607,4.685-0.609h0.011c2.036,0,3.897,0.492,5.683,1.459
		C69.485,38.663,68.032,47.046,63.981,56.923 M22.46,27.114c-0.468,1.159-0.803,2.392-0.966,3.686
		c-1.709-0.068-3.981-0.652-6.012-1.231l-2.51-0.73c-1.27-0.369-3.396-0.647-4.952-0.647H8.001
		c-2.238,0.003-4.567,0.534-6.538,1.475c-0.089-1.236-0.161-2.629-0.194-4.148L22.46,27.114z M1.321,20.497l22.017,4.821
		c-0.193,0.335-0.371,0.681-0.539,1.034L1.25,23.473C1.253,22.521,1.281,21.519,1.321,20.497 M2.079,12.453L24.95,23.047
		c-0.434,0.503-0.844,1.028-1.208,1.589L1.434,18.385C1.563,16.481,1.772,14.493,2.079,12.453 M2.683,9.025
		c0.884,0.192,2.631,0.53,4.889,0.768l18.574,12.016c-0.249,0.228-0.494,0.458-0.726,0.702L2.46,10.22
		C2.535,9.82,2.599,9.425,2.683,9.025 M12.567,10.058c2.386-0.002,4.638-0.203,6.734-0.596l9.372,10.499
		c-0.71,0.411-1.378,0.88-2.006,1.401L11.193,10.036C11.644,10.048,12.097,10.06,12.567,10.058 M24.527,8.042l6.215,10.92
		c-0.421,0.161-0.833,0.343-1.235,0.541L21.603,8.938C22.627,8.664,23.601,8.364,24.527,8.042 M32.75,4.075l1.891,13.975
		c-1.048,0.099-2.059,0.317-3.031,0.623L26.398,7.339C29.003,6.285,31.134,5.109,32.75,4.075 M36.01,1.686
		c0.463,0.39,0.935,0.759,1.406,1.113L36.574,18.01c-0.177-0.007-0.351-0.025-0.529-0.025h-0.02c-0.184,0-0.364,0.019-0.547,0.026
		L34.635,2.775C35.242,2.324,35.71,1.944,36.01,1.686 M39.259,4.075c2.223,1.436,4.422,2.498,6.305,3.258l-5.205,11.318
		c-0.963-0.299-1.961-0.51-2.99-0.604L39.259,4.075z M47.437,8.034c1.328,0.457,2.369,0.738,2.939,0.874l-7.912,10.574
		c-0.402-0.198-0.816-0.376-1.238-0.539L47.437,8.034z M52.726,9.386c2.32,0.406,4.727,0.618,7.187,0.615
		c0.297,0,0.575-0.011,0.862-0.018L45.293,21.318c-0.624-0.511-1.288-0.971-1.989-1.376L52.726,9.386z M64.362,9.77
		c2.34-0.238,4.095-0.602,4.979-0.818c0.085,0.401,0.15,0.798,0.228,1.199L46.558,22.469c-0.236-0.243-0.48-0.479-0.732-0.705
		L64.362,9.77z M69.955,12.391c0.321,2.085,0.537,4.116,0.67,6.059l-22.289,6.247c-0.39-0.598-0.826-1.159-1.295-1.691
		L69.955,12.391z M70.81,23.503l-21.539,2.878c-0.166-0.346-0.343-0.685-0.533-1.017l22.002-4.817
		C70.778,21.564,70.808,22.556,70.81,23.503 M55.493,30.506l-0.163-0.607c-1.336,0.358-3.245,0.826-4.745,0.869
		c-0.166-1.273-0.504-2.49-0.975-3.638l21.185-1.594c-0.03,1.457-0.095,2.796-0.178,3.99c-1.931-0.9-4.196-1.407-6.359-1.407h-0.012
		c-1.367,0.002-3.621,0.25-5.028,0.66l-0.968,0.285c-0.942,0.279-1.933,0.573-2.919,0.835L55.493,30.506z M36.093,28.154
		l-0.004,0.095l-0.002-0.095c-0.497,0.003-0.995,0.038-1.48,0.101v0.001c-1.472,0.186-2.833,0.622-3.973,1.022
		c-3.07,1.083-5.85,1.433-7.872,1.513c0.918-6.615,6.508-11.541,13.265-11.55h0.018c6.672,0,12.333,4.989,13.272,11.51
		c-2.01-0.083-4.744-0.43-7.766-1.488c-0.902-0.316-2.105-0.706-3.385-0.926l-0.008,0.046l0.006-0.046
		C37.44,28.215,36.762,28.154,36.093,28.154 M21.825,32.071h0.01c1.495-0.004,3.58-0.152,5.969-0.684
		c1.035-0.23,2.12-0.524,3.249-0.923c1.075-0.379,2.356-0.79,3.709-0.961l1.318-0.091l1.886,0.168
		c1.186,0.204,2.317,0.572,3.171,0.871c1.386,0.484,2.714,0.826,3.946,1.065c2.093,0.406,3.911,0.517,5.258,0.517h0.021
		c1.293,0,2.926-0.284,5.293-0.92c0.996-0.265,2-0.562,2.951-0.844l0.963-0.284c1.145-0.334,3.244-0.607,4.679-0.609h0.01
		c2.153,0,4.399,0.56,6.252,1.518c-0.044,0.502-0.088,0.968-0.134,1.396c-1.922-0.961-4.055-1.469-6.214-1.469h-0.017
		c-1.379,0.003-3.637,0.251-5.031,0.66l-1.036,0.305c-0.92,0.273-1.886,0.559-2.847,0.816c-1.414,0.378-3.461,0.848-5.002,0.875
		c-2.039,0-5.209-0.263-8.779-1.511c-0.444-0.155-0.959-0.327-1.516-0.488c-0.588-0.17-1.222-0.327-1.873-0.438
		c-0.721-0.123-1.396-0.183-2.074-0.183c-0.498,0.002-0.981,0.035-1.479,0.102v-0.001c-0.776,0.098-1.519,0.267-2.219,0.463
		c-0.625,0.175-1.217,0.37-1.756,0.561c-3.584,1.262-6.766,1.531-8.804,1.534h-0.012c-1.737,0-4.178-0.63-6.338-1.245l-2.509-0.729
		c-1.271-0.37-3.392-0.647-4.946-0.647H7.897c-2.158,0.002-4.281,0.507-6.192,1.464c-0.045-0.412-0.089-0.857-0.131-1.334
		c1.889-0.999,4.203-1.573,6.429-1.576h0.016c1.431,0,3.448,0.261,4.605,0.598l2.512,0.731l0.173-0.604l-0.172,0.604
		C17.495,31.45,19.937,32.071,21.825,32.071 M55.397,35.932l-0.164-0.606c-2.211,0.595-3.791,0.873-4.969,0.875h-0.02
		c-2.046,0-5.225-0.263-8.792-1.512c-0.972-0.338-2.132-0.712-3.386-0.924c-1.277-0.216-2.376-0.241-3.56-0.087
		c-1.484,0.193-2.84,0.627-3.971,1.027c-3.581,1.261-6.765,1.528-8.805,1.531H21.72c-1.751,0-4.185-0.628-6.336-1.245l-0.173,0.605
		l0.17-0.605c-0.614-0.174-1.22-0.351-1.805-0.524l-0.703-0.205c-1.274-0.37-3.399-0.648-4.952-0.648H7.902
		c-2.107,0.002-3.986,0.463-5.851,1.435c-0.048-0.317-0.115-0.767-0.187-1.336c1.843-1.01,3.917-1.559,6.035-1.561h0.025
		c1.429,0,3.443,0.261,4.597,0.596l2.511,0.731l0.174-0.604l-0.172,0.604c2.357,0.672,4.797,1.294,6.684,1.294h0.014
		c2.136-0.004,5.469-0.285,9.219-1.606c1.076-0.38,2.36-0.789,3.711-0.961l1.228-0.091c0.025,0,0.049-0.001,0.075-0.001l1.899,0.168
		c1.166,0.2,2.259,0.552,3.172,0.87c3.734,1.306,7.056,1.582,9.193,1.582h0.032c1.289,0,2.923-0.283,5.296-0.917
		c0.971-0.26,1.946-0.549,2.877-0.825l1.032-0.304c1.136-0.334,3.234-0.607,4.681-0.61h0.016c2.12,0,4.206,0.546,6.058,1.559
		c-0.067,0.542-0.13,0.975-0.178,1.288c-1.849-0.927-3.783-1.381-5.881-1.381h-0.013c-1.366,0.002-3.623,0.25-5.033,0.66
		l-1.047,0.308c-0.916,0.272-1.879,0.557-2.834,0.813L55.397,35.932z M71.987,20.274l-0.123-2.172
		c-0.143-2.007-0.383-4.112-0.723-6.261l-0.242-1.461c-0.141-0.773-0.293-1.553-0.463-2.336l-0.145-0.655l-0.645,0.187
		c-0.02,0.006-1.06,0.302-2.811,0.595l-4.244,0.482c-0.843,0.054-1.738,0.089-2.683,0.092c-2.47,0.002-4.888-0.221-7.22-0.645
		L51.2,7.806c-0.026-0.006-0.055-0.01-0.08-0.014c-0.03-0.008-1.227-0.262-3.046-0.881l-1.979-0.735
		c-1.977-0.791-4.322-1.932-6.65-3.49l-1.945-1.414c-0.362-0.288-0.725-0.583-1.079-0.895L35.988,0l-0.414,0.394
		c-0.013,0.013-0.363,0.34-1.025,0.86l-1.987,1.43c-1.622,1.076-3.88,2.368-6.691,3.506l-1.979,0.74
		c-0.956,0.326-1.959,0.634-3.018,0.904c-0.028,0.008-0.056,0.011-0.082,0.018l-1.718,0.374c-2.022,0.377-4.199,0.573-6.507,0.576
		c-1.128,0-2.206-0.043-3.216-0.116L5.099,8.193c-1.682-0.27-2.719-0.531-2.74-0.536L1.727,7.498L1.588,8.132
		C1.452,8.761,1.337,9.383,1.22,10.007l-0.324,1.898c-0.33,2.105-0.56,4.165-0.699,6.133l-0.123,2.185
		C0.029,21.288,0.005,22.316,0,23.307l0.016,2.117C0.135,31.372,0.843,35.476,0.9,35.806c0.066,0.506,1.325,10.086,6.087,21.636
		c4.477,10.842,13.04,25.688,28.465,35.042l0.67,0.403l0.664-0.403c15.4-9.394,23.926-24.263,28.371-35.118
		c4.734-11.562,5.971-21.146,6.031-21.652c0.058-0.327,0.746-4.384,0.859-10.273l0.014-2.104
		C72.056,22.35,72.033,21.332,71.987,20.274"/>
</g>
</svg>
