<?xml version="1.0" encoding="utf-8"?>
<!-- Generator: Adobe Illustrator 15.0.2, SVG Export Plug-In . SVG Version: 6.00 Build 0)  -->
<!DOCTYPE svg PUBLIC "-//W3C//DTD SVG 1.1//EN" "http://www.w3.org/Graphics/SVG/1.1/DTD/svg11.dtd">
<svg version="1.1" xmlns="http://www.w3.org/2000/svg" xmlns:xlink="http://www.w3.org/1999/xlink" x="0px" y="0px" width="216px"
	 height="36px" viewBox="0 0 216 36" enable-background="new 0 0 216 36" xml:space="preserve">
<g id="Blue_300_and_black_bkgrd">
	<g>
		<path fill="#0079C1" d="M24.331,22.546c-2.653,2.516-12.304,6.997-19.108-0.271c-2.993-3.196-4.353-8.161-0.341-16.05
			c0.48-0.943,9.452-7.956,18.971-5.49c16.524,4.28,15.439,17.372,15.525,17.455c0.084,0.084-1.572-1.803-5.798-1.899
			C27.116,16.142,24.331,22.546,24.331,22.546z"/>
	</g>
	<g>
		<path d="M3.169,9.138c-4.624,20.74,17.958,18.401,21.086,13.1c1.229-2.087-2.577,9.075-11.076,9.753
			c-1.118,0.089-10.881,0.342-12.649-11.628C-0.474,13.568,3.169,9.138,3.169,9.138z"/>
	</g>
</g>
<g id="blue_line_art">
	<g>
		<path fill="#BAD0EC" d="M20.513,36.14c-0.184,0-0.375,0-0.57-0.003C9.965,36.025-0.069,30.233,0,17.543
			c0.026-4.741,2.096-9.169,5.826-12.464c3.7-3.269,8.621-5.069,13.857-5.069c5.238,0,10.212,1.847,14.006,5.201
			c3.831,3.385,5.939,7.857,5.939,12.598c0,1.602,0,1.849-0.205,3.156l-0.705-0.112c0.197-1.252,0.197-1.456,0.197-3.044
			c0-9.261-8.809-17.084-19.233-17.084c-10.409,0-18.919,7.546-18.969,16.822c-0.068,12.202,9.612,17.77,19.234,17.877
			c3.768,0.042,4.995-0.287,7.882-1.609l0.297,0.648C25.322,35.749,23.96,36.14,20.513,36.14z"/>
	</g>
	<g>
		<path fill="#BAD0EC" d="M6.51,19.586l-0.708-0.087c0.701-5.687,2.527-10.206,5.425-13.433c3.062-3.413,7.257-5.297,12.463-5.602
			l0.042,0.712C13.883,1.753,7.927,8.119,6.51,19.586z"/>
	</g>
	<g>
		<path fill="none" stroke="#BAD0EC" stroke-width="2.8412" d="M12.618,34.991"/>
	</g>
	<g>
		<path fill="#BAD0EC" d="M24.027,21.461l-0.599-0.19c1.92-6.06,1.389-12.356-1.42-16.84l0.532-0.333
			C25.445,8.735,26.001,15.227,24.027,21.461z"/>
	</g>
	<g>
		<path fill="none" stroke="#BAD0EC" stroke-width="2.8412" d="M1.916,24.701"/>
	</g>
	<g>
		<path fill="none" stroke="#FFFFFF" stroke-width="2.8412" d="M33.071,12.107"/>
	</g>
	<g>
		<path fill="none" stroke="#BAD0EC" stroke-width="2.8412" d="M15.665,34.84"/>
	</g>
	<g>
		<path fill="none" stroke="#0079C1" stroke-width="2.8412" d="M22.607,23.122"/>
	</g>
	<g>
		<path fill="none" stroke="#0079C1" stroke-width="2.8412" d="M2.438,14.139"/>
	</g>
	<g>
		
			<rect x="21.116" y="0.557" transform="matrix(0.9796 0.201 -0.201 0.9796 3.0972 -4.0457)" fill="#BAD0EC" width="0.714" height="25.348"/>
	</g>
	<g>
		<path fill="#BAD0EC" d="M26.444,6.153c-7.683,0-13.948-4.091-14.026-4.144l0.395-0.595c0.095,0.063,9.628,6.282,19.439,3.142
			l0.217,0.679C30.421,5.891,28.387,6.153,26.444,6.153z"/>
	</g>
	<g>
		<g>
			<g>
				<path fill="#FFFFFF" d="M11.357,10.402c-0.021,0.163,0.417,2.082,0.854,2.734c0.654-0.363,1.425-0.957,1.864-1.548
					c0.984,0.233,1.123,0.385,2.639-0.083c-0.993,0.788-1.046,1.797-1.699,2.941c1.062-1.409,2.74-0.606,4.239-1.293
					c0.179-0.082,0.625-0.314,0.691-0.834c0.031-0.792,0-1.439-1.068-1.954c-0.258-0.123-0.408-0.103-0.703-0.111
					c0.094-0.048,0.404-1.654,1.303-1.833c-0.849-0.8-1.522-0.418-1.953-0.084c-0.514,0.399-0.414,0.879-0.986,1.201
					c0.444-0.639-1.068-1.947-1.917-2.041c-0.85-0.091-2.009-0.065-2.591,0.813c0,0,1.107,0.061,1.624,0.836
					c0.553,0.828,1.199,1.019,1.199,1.019S12.346,10.771,11.357,10.402z"/>
				<path fill="#BAD0EC" d="M15.015,14.667c-0.043,0-0.085-0.012-0.122-0.037c-0.098-0.064-0.129-0.193-0.07-0.294
					c0.219-0.384,0.371-0.753,0.516-1.111c0.184-0.454,0.361-0.89,0.657-1.293c-0.743,0.17-1.076,0.096-1.649-0.05
					c-0.058-0.015-0.119-0.029-0.183-0.046c-0.512,0.63-1.301,1.193-1.845,1.493c-0.101,0.056-0.227,0.025-0.291-0.071
					c-0.459-0.686-0.917-2.659-0.89-2.885c0.008-0.067,0.047-0.127,0.104-0.162c0.058-0.035,0.129-0.041,0.192-0.019
					c0.187,0.07,0.459,0.106,0.812,0.106c0.662,0,1.455-0.127,1.979-0.229c-0.23-0.168-0.501-0.425-0.754-0.801
					c-0.45-0.675-1.442-0.738-1.452-0.738c-0.079-0.004-0.15-0.051-0.186-0.123c-0.036-0.07-0.03-0.155,0.014-0.221
					c0.416-0.628,1.141-0.946,2.155-0.946c0.203,0,0.413,0.013,0.644,0.036c0.717,0.078,1.774,0.872,2.093,1.572
					c0.02,0.046,0.039,0.091,0.054,0.135c0.03-0.052,0.059-0.107,0.088-0.166c0.11-0.207,0.232-0.442,0.509-0.657
					c0.241-0.187,0.615-0.435,1.078-0.435c0.395,0,0.785,0.18,1.162,0.534c0.06,0.057,0.083,0.142,0.061,0.222
					c-0.022,0.08-0.088,0.14-0.17,0.156c-0.549,0.109-0.862,0.96-1.019,1.403c0.146,0.01,0.29,0.039,0.471,0.125
					c1.163,0.558,1.229,1.308,1.196,2.16c-0.042,0.327-0.215,0.75-0.821,1.028c-0.638,0.292-1.288,0.33-1.915,0.366
					c-0.894,0.051-1.666,0.096-2.242,0.859C15.147,14.636,15.082,14.667,15.015,14.667z M16.714,11.284
					c0.081,0,0.156,0.043,0.195,0.118c0.05,0.094,0.026,0.209-0.058,0.275c-0.603,0.479-0.836,1.053-1.105,1.714
					c-0.03,0.077-0.062,0.154-0.094,0.231c0.545-0.275,1.155-0.31,1.753-0.344c0.586-0.035,1.193-0.069,1.755-0.327
					c0.339-0.155,0.529-0.377,0.564-0.663c0.03-0.769-0.017-1.279-0.946-1.725c-0.175-0.083-0.278-0.084-0.483-0.087l-0.129-0.002
					c-0.101-0.002-0.188-0.073-0.21-0.173c-0.015-0.068,0.003-0.139,0.045-0.19c0.016-0.035,0.042-0.112,0.067-0.181
					c0.147-0.419,0.426-1.215,0.977-1.569c-0.198-0.13-0.391-0.195-0.582-0.195c-0.323,0-0.601,0.185-0.807,0.345
					c-0.201,0.155-0.292,0.328-0.387,0.513c-0.124,0.234-0.263,0.501-0.626,0.705c-0.09,0.051-0.203,0.032-0.272-0.043
					c-0.069-0.077-0.076-0.19-0.017-0.275c0.059-0.087,0.052-0.214-0.022-0.379c-0.251-0.554-1.178-1.254-1.738-1.313
					c-0.214-0.025-0.41-0.037-0.596-0.037c-0.678,0-1.197,0.159-1.547,0.472c0.408,0.093,1.019,0.321,1.383,0.87
					c0.496,0.742,1.074,0.928,1.079,0.929c0.094,0.031,0.159,0.119,0.156,0.219c-0.003,0.099-0.071,0.185-0.169,0.208
					c-0.06,0.015-1.511,0.361-2.657,0.361c-0.239,0-0.447-0.014-0.625-0.044c0.105,0.506,0.38,1.571,0.67,2.138
					c0.644-0.386,1.26-0.913,1.608-1.378c0.052-0.071,0.142-0.103,0.227-0.083c0.12,0.029,0.229,0.057,0.328,0.082
					c0.322,0.081,0.534,0.135,0.792,0.135c0.317,0,0.725-0.086,1.402-0.296C16.67,11.287,16.693,11.284,16.714,11.284z"/>
			</g>
		</g>
	</g>
	<g>
		<g>
			<path fill="#BAD0EC" d="M20.025,9.762c-1.002-1.682,0.293-2.832,0.307-2.842l0.266,0.309l-0.133-0.154l0.134,0.154
				c-0.042,0.037-1.048,0.941-0.224,2.326L20.025,9.762z"/>
		</g>
		<g>
			<path fill="#BAD0EC" d="M20.409,7.303h-0.439l0.284-0.336c0.49-0.58,1.09-0.643,1.326-0.643c0.408,0,0.684,0.165,0.684,0.41
				c0,0.2-0.174,0.348-0.518,0.44C21.434,7.259,20.984,7.303,20.409,7.303z M21.58,6.732c-0.089,0-0.314,0.015-0.568,0.143
				c0.378-0.029,0.609-0.082,0.734-0.127C21.702,6.739,21.645,6.732,21.58,6.732z"/>
		</g>
		<g>
			<path fill="#BAD0EC" d="M19.957,8.603h-0.44L19.8,8.266c0.491-0.58,1.091-0.642,1.327-0.642c0.409,0,0.683,0.165,0.683,0.411
				c0,0.198-0.174,0.346-0.516,0.44C20.982,8.558,20.531,8.603,19.957,8.603z M21.126,8.033c-0.089,0-0.314,0.014-0.568,0.141
				c0.378-0.027,0.608-0.08,0.734-0.125C21.248,8.039,21.192,8.033,21.126,8.033z"/>
		</g>
	</g>
	<g>
		<path fill="#BAD0EC" d="M17.759,35.433c-1.958,0-4.025-0.323-6.057-0.991C4.375,32.033,0,26.003,0,18.318
			C0,6.259,9.921,0.435,19.753,0.01c1.441-0.062,2.842,0.166,3.9,0.372c8.188,1.585,16.374,8.604,15.896,17.606l-0.034,0.641
			l-0.526-0.369c-0.075-0.051-7.583-4.983-12.936,2.39c-4.479,6.169-11.524,6.922-16.521,4.934c-5.225-2.08-8.146-6.9-7.445-12.281
			l0.008-0.057c0.025-0.196,0.049-0.393,0.083-0.591c0.18-1.098,0.502-2.211,0.961-3.333c-1.524,2.45-2.425,5.441-2.425,8.996
			c0,7.362,4.19,13.138,11.21,15.444c5.909,1.943,12.314,0.767,14.897-2.738l0.574,0.424C25.5,34.022,21.862,35.433,17.759,35.433z
			 M5.432,6.456l0.01,0.006c-1.36,2.132-2.222,4.254-2.56,6.307c-0.031,0.19-0.056,0.381-0.08,0.568l-0.009,0.057
			C1.995,19.52,5.887,23.365,9.795,24.92c4.74,1.889,11.427,1.169,15.68-4.689c4.89-6.736,11.466-3.907,13.379-2.873
			C38.93,9.03,31.226,2.575,23.517,1.082c-1.019-0.198-2.367-0.417-3.733-0.359C14.458,0.954,9.105,2.817,5.432,6.456z"/>
	</g>
	<g>
		<path fill="#BAD0EC" d="M12.545,32.377c-0.288,0-0.577-0.011-0.87-0.033c-5.093-0.358-9.592-3.889-10.696-8.393l0.693-0.169
			c1.032,4.215,5.261,7.515,10.054,7.85c5.409,0.382,9.977-3.043,12.519-9.397c0.026-0.057,0.471-1.036,0.781-1.449l0.571,0.429
			c-0.219,0.294-0.576,1.036-0.695,1.302C22.378,28.822,17.905,32.377,12.545,32.377z"/>
	</g>
	<g>
		<ellipse cx="28.719" cy="14.291" rx="3.61" ry="3.424"/>
		<path fill="#BAD0EC" d="M28.719,18.028c-2.163,0-3.923-1.676-3.923-3.737c0-2.061,1.76-3.738,3.923-3.738
			c2.164,0,3.924,1.677,3.924,3.738C32.643,16.353,30.883,18.028,28.719,18.028z M28.719,11.181c-1.817,0-3.295,1.395-3.295,3.11
			c0,1.715,1.478,3.11,3.295,3.11s3.296-1.395,3.296-3.11C32.015,12.576,30.536,11.181,28.719,11.181z"/>
	</g>
	<g>
		<ellipse fill="#FFFFFF" cx="10.037" cy="20.808" rx="4.105" ry="3.893"/>
		<path fill="#BAD0EC" d="M10.037,25.059c-2.46,0-4.462-1.906-4.462-4.251c0-2.343,2.002-4.25,4.462-4.25
			c2.459,0,4.46,1.908,4.46,4.25C14.498,23.152,12.496,25.059,10.037,25.059z M10.037,17.271c-2.066,0-3.748,1.587-3.748,3.536
			c0,1.95,1.682,3.538,3.748,3.538c2.065,0,3.747-1.588,3.747-3.538C13.784,18.858,12.103,17.271,10.037,17.271z"/>
	</g>
	<g>
		<g>
			<path d="M27.416,24.957c0-1.389,0-1.646-0.017-1.936c-0.021-0.307-0.091-0.458-0.391-0.52c-0.076-0.016-0.23-0.027-0.354-0.027
				c-0.103,0-0.157-0.015-0.157-0.08c0-0.066,0.066-0.085,0.201-0.085c0.482,0,1.056,0.029,1.312,0.029c0.292,0,2.105,0,2.278-0.011
				c0.175-0.019,0.321-0.035,0.392-0.055c0.045-0.009,0.102-0.033,0.147-0.033c0.044,0,0.054,0.033,0.054,0.079
				c0,0.062-0.045,0.177-0.074,0.596c-0.01,0.089-0.026,0.491-0.044,0.6c-0.011,0.047-0.029,0.099-0.091,0.099
				c-0.063,0-0.083-0.045-0.083-0.128c0-0.061-0.011-0.216-0.055-0.327c-0.063-0.167-0.157-0.273-0.612-0.329
				c-0.154-0.018-1.112-0.034-1.293-0.034c-0.045,0-0.063,0.027-0.063,0.09v2.305c0,0.064,0.01,0.104,0.063,0.104
				c0.202,0,1.25,0,1.458-0.021c0.221-0.019,0.356-0.045,0.438-0.135c0.065-0.075,0.102-0.118,0.148-0.118
				c0.035,0,0.062,0.016,0.062,0.072c0,0.054-0.045,0.202-0.072,0.664c-0.019,0.182-0.037,0.549-0.037,0.61
				c0,0.074,0,0.174-0.081,0.174c-0.064,0-0.082-0.038-0.082-0.08c-0.01-0.094-0.01-0.21-0.037-0.329
				c-0.048-0.183-0.175-0.321-0.51-0.354c-0.175-0.021-1.078-0.028-1.296-0.028c-0.044,0-0.054,0.035-0.054,0.09v0.72
				c0,0.312-0.01,1.15,0,1.413c0.019,0.625,0.164,0.769,1.092,0.769c0.24,0,0.621,0,0.859-0.11c0.236-0.111,0.345-0.304,0.409-0.673
				c0.018-0.103,0.038-0.138,0.101-0.138c0.073,0,0.073,0.072,0.073,0.163c0,0.208-0.073,0.828-0.118,1.01
				c-0.065,0.237-0.146,0.237-0.491,0.237c-1.376,0-1.989-0.057-2.526-0.057c-0.211,0-0.785,0.028-1.148,0.028
				c-0.119,0-0.183-0.028-0.183-0.089c0-0.048,0.037-0.073,0.145-0.073c0.139,0,0.247-0.021,0.327-0.037
				c0.185-0.036,0.23-0.235,0.269-0.497c0.042-0.388,0.042-1.107,0.042-1.946V24.957z"/>
		</g>
		<g>
			<path d="M33.15,22.156c0.101,0,0.183,0.117,0.338,0.281c0.111,0.12,1.494,1.605,2.826,2.926c0.619,0.622,1.849,1.937,2.005,2.081
				h0.047l-0.092-4.093c-0.009-0.557-0.092-0.732-0.311-0.822c-0.136-0.055-0.354-0.055-0.483-0.055
				c-0.108,0-0.146-0.026-0.146-0.08c0-0.075,0.101-0.085,0.237-0.085c0.473,0,0.913,0.029,1.104,0.029
				c0.098,0,0.446-0.029,0.893-0.029c0.118,0,0.208,0.01,0.208,0.085c0,0.054-0.054,0.08-0.164,0.08c-0.093,0-0.164,0-0.273,0.027
				c-0.257,0.073-0.33,0.265-0.336,0.772l-0.103,5.757c0,0.198-0.037,0.277-0.117,0.277c-0.102,0-0.21-0.094-0.312-0.196
				c-0.574-0.547-1.738-1.74-2.687-2.681c-0.994-0.983-2.007-2.123-2.172-2.301h-0.025l0.102,3.832
				c0.016,0.709,0.135,0.947,0.317,1.016c0.154,0.053,0.327,0.061,0.473,0.061c0.101,0,0.157,0.019,0.157,0.073
				c0,0.071-0.083,0.089-0.211,0.089c-0.591,0-0.957-0.028-1.129-0.028c-0.084,0-0.513,0.028-0.985,0.028
				c-0.119,0-0.2-0.01-0.2-0.089c0-0.055,0.054-0.073,0.146-0.073c0.119,0,0.283-0.008,0.411-0.047
				c0.235-0.07,0.271-0.341,0.281-1.129l0.081-5.396C33.031,22.284,33.061,22.156,33.15,22.156"/>
		</g>
		<g>
			<path d="M44.812,22.185c0.629,0,1.43,0.108,1.611,0.144c0.19,0.038,0.51,0.093,0.719,0.101c0.112,0.009,0.131,0.046,0.131,0.107
				c0,0.106-0.062,0.359-0.062,1.499c0,0.146-0.029,0.19-0.104,0.19c-0.063,0-0.084-0.045-0.091-0.12
				c-0.028-0.209-0.071-0.5-0.312-0.754c-0.272-0.293-1-0.709-2.031-0.709c-0.5,0-1.166,0.032-1.805,0.561
				c-0.51,0.429-0.836,1.114-0.836,2.232c0,1.962,1.248,3.433,3.173,3.433c0.237,0,0.552,0,0.772-0.102
				c0.134-0.067,0.171-0.184,0.171-0.339v-0.856c0-0.457,0-0.803-0.008-1.073c-0.008-0.313-0.09-0.457-0.391-0.521
				c-0.072-0.02-0.23-0.028-0.357-0.028c-0.082,0-0.133-0.016-0.133-0.071c0-0.077,0.063-0.093,0.19-0.093
				c0.474,0,1.047,0.025,1.323,0.025c0.28,0,0.762-0.025,1.068-0.025c0.118,0,0.175,0.016,0.175,0.093
				c0,0.056-0.051,0.071-0.115,0.071c-0.072,0-0.137,0.009-0.248,0.028c-0.244,0.044-0.334,0.202-0.344,0.521
				c-0.012,0.271-0.012,0.638-0.012,1.09v1.003c0,0.251-0.006,0.267-0.114,0.331c-0.595,0.308-1.489,0.41-2.2,0.41
				c-2.231,0-4.21-1.056-4.21-3.576c0-1.46,0.757-2.481,1.585-2.978C43.235,22.248,44.046,22.185,44.812,22.185"/>
		</g>
		<g>
			<path d="M49.842,24.957c0-1.389,0-1.646-0.016-1.936c-0.021-0.307-0.111-0.464-0.312-0.508c-0.1-0.027-0.217-0.039-0.328-0.039
				c-0.09,0-0.146-0.015-0.146-0.094c0-0.053,0.073-0.071,0.216-0.071c0.349,0,0.922,0.029,1.185,0.029
				c0.229,0,0.768-0.029,1.114-0.029c0.117,0,0.194,0.019,0.194,0.071c0,0.079-0.056,0.094-0.149,0.094
				c-0.092,0-0.164,0.012-0.271,0.027c-0.248,0.047-0.319,0.206-0.339,0.52c-0.019,0.29-0.019,0.547-0.019,1.936v1.602
				c0,0.886,0,1.606,0.039,2c0.023,0.244,0.091,0.407,0.363,0.443c0.127,0.017,0.329,0.037,0.466,0.037
				c0.1,0,0.143,0.025,0.143,0.073c0,0.061-0.07,0.089-0.169,0.089c-0.604,0-1.178-0.028-1.423-0.028
				c-0.211,0-0.785,0.028-1.148,0.028c-0.119,0-0.182-0.028-0.182-0.089c0-0.048,0.037-0.073,0.145-0.073
				c0.136,0,0.245-0.021,0.328-0.037c0.182-0.036,0.237-0.191,0.266-0.457c0.043-0.38,0.043-1.101,0.043-1.986V24.957z"/>
		</g>
		<g>
			<path d="M53.935,22.156c0.101,0,0.181,0.117,0.34,0.281c0.106,0.12,1.493,1.605,2.824,2.926c0.619,0.622,1.849,1.937,2.002,2.081
				h0.048l-0.091-4.093c-0.008-0.557-0.09-0.732-0.306-0.822c-0.139-0.055-0.356-0.055-0.487-0.055c-0.106,0-0.146-0.026-0.146-0.08
				c0-0.075,0.102-0.085,0.235-0.085c0.476,0,0.914,0.029,1.104,0.029c0.103,0,0.45-0.029,0.895-0.029c0.119,0,0.21,0.01,0.21,0.085
				c0,0.054-0.056,0.08-0.166,0.08c-0.091,0-0.162,0-0.273,0.027c-0.257,0.073-0.326,0.265-0.335,0.772l-0.103,5.757
				c0,0.198-0.036,0.277-0.119,0.277c-0.097,0-0.208-0.094-0.307-0.196c-0.579-0.547-1.743-1.74-2.691-2.681
				c-0.996-0.983-2.006-2.123-2.168-2.301h-0.028l0.1,3.832c0.018,0.709,0.136,0.947,0.318,1.016
				c0.154,0.053,0.328,0.061,0.476,0.061c0.098,0,0.152,0.019,0.152,0.073c0,0.071-0.083,0.089-0.209,0.089
				c-0.592,0-0.956-0.028-1.128-0.028c-0.084,0-0.509,0.028-0.985,0.028c-0.118,0-0.201-0.01-0.201-0.089
				c0-0.055,0.055-0.073,0.146-0.073c0.118,0,0.284-0.008,0.411-0.047c0.238-0.07,0.273-0.341,0.284-1.129l0.081-5.396
				C53.817,22.284,53.843,22.156,53.935,22.156"/>
		</g>
		<g>
			<path d="M62.594,24.957c0-1.389,0-1.646-0.014-1.936c-0.022-0.307-0.091-0.458-0.397-0.52c-0.07-0.016-0.225-0.027-0.35-0.027
				c-0.103,0-0.159-0.015-0.159-0.08c0-0.066,0.062-0.085,0.202-0.085c0.482,0,1.06,0.029,1.311,0.029c0.293,0,2.107,0,2.28-0.011
				c0.173-0.019,0.319-0.035,0.391-0.055c0.047-0.009,0.103-0.033,0.145-0.033c0.048,0,0.055,0.033,0.055,0.079
				c0,0.062-0.042,0.177-0.069,0.596c-0.013,0.089-0.028,0.491-0.049,0.6c-0.006,0.047-0.027,0.099-0.09,0.099
				s-0.083-0.045-0.083-0.128c0-0.061-0.007-0.216-0.051-0.327c-0.067-0.167-0.157-0.273-0.612-0.329
				c-0.155-0.018-1.109-0.034-1.296-0.034c-0.042,0-0.062,0.027-0.062,0.09v2.305c0,0.064,0.009,0.104,0.062,0.104
				c0.201,0,1.249,0,1.459-0.021c0.22-0.019,0.354-0.045,0.438-0.135c0.062-0.075,0.102-0.118,0.145-0.118
				c0.037,0,0.063,0.016,0.063,0.072c0,0.054-0.043,0.202-0.07,0.664c-0.02,0.182-0.037,0.549-0.037,0.61
				c0,0.074,0,0.174-0.083,0.174c-0.062,0-0.083-0.038-0.083-0.08c-0.007-0.094-0.007-0.21-0.035-0.329
				c-0.047-0.183-0.174-0.321-0.51-0.354c-0.174-0.021-1.077-0.028-1.295-0.028c-0.046,0-0.055,0.035-0.055,0.09v0.72
				c0,0.312-0.009,1.15,0,1.413c0.021,0.625,0.165,0.769,1.094,0.769c0.239,0,0.62,0,0.858-0.11c0.237-0.111,0.346-0.304,0.41-0.673
				c0.014-0.103,0.036-0.138,0.1-0.138c0.07,0,0.07,0.072,0.07,0.163c0,0.208-0.07,0.828-0.12,1.01
				c-0.062,0.237-0.14,0.237-0.489,0.237c-1.374,0-1.987-0.057-2.524-0.057c-0.208,0-0.785,0.028-1.149,0.028
				c-0.118,0-0.182-0.028-0.182-0.089c0-0.048,0.036-0.073,0.146-0.073c0.135,0,0.246-0.021,0.328-0.037
				c0.182-0.036,0.23-0.235,0.266-0.497c0.043-0.388,0.043-1.107,0.043-1.946V24.957z"/>
		</g>
		<g>
			<path d="M68.356,24.957c0-1.389,0-1.646-0.019-1.936c-0.02-0.307-0.09-0.458-0.391-0.52c-0.075-0.016-0.23-0.027-0.355-0.027
				c-0.103,0-0.154-0.015-0.154-0.08c0-0.066,0.064-0.085,0.198-0.085c0.485,0,1.058,0.029,1.315,0.029c0.289,0,2.103,0,2.276-0.011
				c0.172-0.019,0.32-0.035,0.394-0.055c0.045-0.009,0.1-0.033,0.147-0.033c0.043,0,0.055,0.033,0.055,0.079
				c0,0.062-0.048,0.177-0.075,0.596c-0.008,0.089-0.027,0.491-0.046,0.6c-0.008,0.047-0.029,0.099-0.091,0.099
				c-0.064,0-0.084-0.045-0.084-0.128c0-0.061-0.005-0.216-0.05-0.327c-0.064-0.167-0.159-0.273-0.613-0.329
				c-0.153-0.018-1.109-0.034-1.295-0.034c-0.043,0-0.063,0.027-0.063,0.09v2.305c0,0.064,0.012,0.104,0.063,0.104
				c0.202,0,1.253,0,1.458-0.021c0.223-0.019,0.359-0.045,0.438-0.135c0.063-0.075,0.104-0.118,0.148-0.118
				c0.034,0,0.062,0.016,0.062,0.072c0,0.054-0.043,0.202-0.069,0.664c-0.022,0.182-0.036,0.549-0.036,0.61
				c0,0.074,0,0.174-0.083,0.174c-0.063,0-0.085-0.038-0.085-0.08c-0.006-0.094-0.006-0.21-0.034-0.329
				c-0.048-0.183-0.174-0.321-0.509-0.354c-0.176-0.021-1.076-0.028-1.297-0.028c-0.042,0-0.054,0.035-0.054,0.09v0.72
				c0,0.312-0.007,1.15,0,1.413c0.02,0.625,0.166,0.769,1.094,0.769c0.237,0,0.62,0,0.858-0.11c0.237-0.111,0.347-0.304,0.409-0.673
				c0.022-0.103,0.037-0.138,0.101-0.138c0.076,0,0.076,0.072,0.076,0.163c0,0.208-0.076,0.828-0.12,1.01
				c-0.063,0.237-0.147,0.237-0.493,0.237c-1.375,0-1.989-0.057-2.525-0.057c-0.21,0-0.783,0.028-1.149,0.028
				c-0.119,0-0.183-0.028-0.183-0.089c0-0.048,0.037-0.073,0.146-0.073c0.14,0,0.246-0.021,0.33-0.037
				c0.183-0.036,0.228-0.235,0.265-0.497c0.046-0.388,0.046-1.107,0.046-1.946V24.957z"/>
		</g>
		<g>
			<path d="M74.118,24.957c0-1.389,0-1.646-0.02-1.936c-0.017-0.307-0.092-0.458-0.392-0.52c-0.07-0.016-0.228-0.027-0.355-0.027
				c-0.099,0-0.154-0.015-0.154-0.08c0-0.066,0.063-0.085,0.197-0.085c0.488,0,1.06,0.029,1.253,0.029c0.309,0,1-0.029,1.285-0.029
				c0.573,0,1.184,0.057,1.678,0.398c0.253,0.169,0.616,0.632,0.616,1.242c0,0.678-0.281,1.295-1.202,2.043
				c0.81,1.022,1.44,1.832,1.977,2.397c0.513,0.531,0.888,0.594,1.023,0.617c0.103,0.023,0.182,0.031,0.257,0.031
				c0.069,0,0.105,0.025,0.105,0.073c0,0.071-0.063,0.089-0.168,0.089h-0.871c-0.508,0-0.738-0.04-0.973-0.17
				c-0.392-0.212-0.738-0.641-1.25-1.341c-0.364-0.505-0.782-1.122-0.9-1.259c-0.043-0.054-0.1-0.065-0.161-0.065l-0.8-0.018
				c-0.043,0-0.07,0.018-0.07,0.072v0.128c0,0.849,0,1.568,0.047,1.956c0.023,0.262,0.08,0.461,0.355,0.497
				c0.133,0.017,0.336,0.037,0.445,0.037c0.073,0,0.112,0.025,0.112,0.073c0,0.061-0.069,0.089-0.187,0.089
				c-0.529,0-1.202-0.028-1.338-0.028c-0.175,0-0.747,0.028-1.115,0.028c-0.119,0-0.182-0.028-0.182-0.089
				c0-0.048,0.04-0.073,0.148-0.073c0.137,0,0.248-0.021,0.327-0.037c0.186-0.036,0.229-0.235,0.265-0.497
				c0.048-0.388,0.048-1.107,0.048-1.946V24.957z M75.192,25.676c0,0.102,0.021,0.134,0.082,0.163
				c0.192,0.066,0.467,0.094,0.692,0.094c0.366,0,0.487-0.04,0.648-0.155c0.272-0.199,0.538-0.622,0.538-1.37
				c0-1.294-0.859-1.667-1.396-1.667c-0.224,0-0.392,0.009-0.482,0.038c-0.061,0.017-0.082,0.051-0.082,0.127V25.676z"/>
		</g>
		<g>
			<path d="M82.484,22.185c0.592,0,0.976,0.089,1.214,0.154c0.082,0.017,0.125,0.042,0.125,0.109c0,0.115-0.035,0.381-0.035,1.093
				c0,0.2-0.023,0.275-0.099,0.275c-0.064,0-0.091-0.055-0.091-0.166c0-0.082-0.047-0.365-0.237-0.601
				c-0.138-0.173-0.402-0.447-0.995-0.447c-0.672,0-1.087,0.389-1.087,0.938c0,0.422,0.216,0.741,0.97,1.313l0.255,0.191
				c1.094,0.847,1.494,1.456,1.494,2.326c0,0.528-0.198,1.157-0.858,1.583c-0.455,0.289-0.964,0.377-1.446,0.377
				c-0.528,0-0.939-0.066-1.332-0.237c-0.145-0.063-0.173-0.11-0.173-0.312c0-0.5,0.036-1.048,0.043-1.194
				c0.013-0.136,0.038-0.237,0.112-0.237c0.082,0,0.091,0.083,0.091,0.158c0,0.117,0.039,0.311,0.082,0.463
				c0.201,0.674,0.74,0.922,1.304,0.922c0.821,0,1.219-0.558,1.219-1.039c0-0.447-0.137-0.877-0.892-1.459l-0.418-0.33
				c-1.004-0.781-1.352-1.421-1.352-2.158C80.378,22.905,81.221,22.185,82.484,22.185"/>
		</g>
	</g>
	<g>
		<g>
			<path d="M89.484,23.207c-0.109-0.336-0.21-0.557-0.337-0.649c-0.099-0.064-0.282-0.077-0.364-0.077
				c-0.092,0-0.146-0.012-0.146-0.083c0-0.065,0.071-0.088,0.201-0.088c0.473,0,0.972,0.029,1.055,0.029
				c0.083,0,0.485-0.029,1.014-0.029c0.126,0,0.191,0.029,0.191,0.088c0,0.071-0.072,0.083-0.166,0.083
				c-0.074,0-0.164,0-0.226,0.033c-0.083,0.035-0.1,0.1-0.1,0.203c0,0.115,0.09,0.426,0.199,0.837
				c0.156,0.601,1.003,3.364,1.168,3.872H92l1.77-4.751c0.099-0.252,0.154-0.322,0.227-0.322c0.101,0,0.146,0.134,0.265,0.426
				l1.896,4.587h0.025c0.167-0.614,0.896-3.02,1.215-4.086c0.064-0.21,0.091-0.399,0.091-0.53c0-0.144-0.082-0.269-0.437-0.269
				c-0.091,0-0.157-0.03-0.157-0.083c0-0.065,0.075-0.088,0.212-0.088c0.48,0,0.864,0.029,0.948,0.029
				c0.062,0,0.454-0.029,0.753-0.029c0.102,0,0.168,0.022,0.168,0.071c0,0.069-0.049,0.1-0.13,0.1c-0.091,0-0.217,0.006-0.319,0.047
				c-0.218,0.078-0.32,0.439-0.508,0.961c-0.419,1.145-1.378,4.045-1.822,5.415c-0.104,0.322-0.148,0.429-0.265,0.429
				c-0.093,0-0.147-0.106-0.285-0.445l-1.897-4.569h-0.017c-0.175,0.468-1.385,3.691-1.778,4.532
				c-0.172,0.376-0.218,0.482-0.329,0.482c-0.09,0-0.136-0.1-0.209-0.338L89.484,23.207z"/>
		</g>
		<g>
			<path d="M100.282,24.959c0-1.385,0-1.645-0.018-1.934c-0.018-0.309-0.107-0.468-0.31-0.512c-0.102-0.027-0.219-0.033-0.328-0.033
				c-0.091,0-0.144-0.021-0.144-0.1c0-0.049,0.072-0.071,0.215-0.071c0.348,0,0.921,0.029,1.186,0.029
				c0.231,0,0.768-0.029,1.112-0.029c0.118,0,0.193,0.022,0.193,0.071c0,0.079-0.056,0.1-0.146,0.1s-0.164,0.006-0.273,0.026
				c-0.247,0.042-0.319,0.201-0.337,0.519c-0.019,0.289-0.019,0.549-0.019,1.934v1.603c0,0.885,0,1.605,0.037,1.997
				c0.028,0.248,0.089,0.407,0.366,0.446c0.125,0.014,0.328,0.034,0.463,0.034c0.101,0,0.146,0.027,0.146,0.076
				c0,0.06-0.073,0.086-0.174,0.086c-0.6,0-1.175-0.026-1.421-0.026c-0.21,0-0.784,0.026-1.147,0.026
				c-0.119,0-0.182-0.026-0.182-0.086c0-0.049,0.035-0.076,0.144-0.076c0.138,0,0.246-0.021,0.327-0.034
				c0.186-0.039,0.241-0.192,0.269-0.46c0.042-0.378,0.042-1.099,0.042-1.983V24.959z"/>
		</g>
		<g>
			<path d="M105.3,22.824l-1.359,0.034c-0.528,0.021-0.746,0.065-0.884,0.265c-0.09,0.139-0.136,0.248-0.155,0.32
				c-0.017,0.071-0.045,0.11-0.099,0.11c-0.063,0-0.083-0.048-0.083-0.147c0-0.145,0.174-0.978,0.192-1.047
				c0.028-0.117,0.055-0.175,0.107-0.175c0.077,0,0.165,0.093,0.394,0.114c0.265,0.022,0.61,0.04,0.911,0.04h3.611
				c0.584,0,0.8-0.091,0.874-0.091c0.061,0,0.073,0.056,0.073,0.189c0,0.195-0.028,0.824-0.028,1.061
				c-0.006,0.094-0.026,0.146-0.082,0.146c-0.07,0-0.091-0.043-0.099-0.182l-0.006-0.098c-0.022-0.241-0.267-0.493-1.08-0.514
				l-1.148-0.026v3.737c0,0.839,0,1.559,0.045,1.954c0.028,0.254,0.083,0.45,0.356,0.489c0.129,0.014,0.327,0.034,0.466,0.034
				c0.098,0,0.145,0.027,0.145,0.076c0,0.06-0.075,0.086-0.172,0.086c-0.601,0-1.179-0.026-1.434-0.026
				c-0.211,0-0.783,0.026-1.147,0.026c-0.119,0-0.181-0.026-0.181-0.086c0-0.049,0.035-0.076,0.146-0.076
				c0.133,0,0.245-0.021,0.323-0.034c0.186-0.039,0.24-0.235,0.264-0.503c0.048-0.382,0.048-1.102,0.048-1.94V22.824z"/>
		</g>
		<g>
			<path d="M115.569,25.21c0.03,0,0.059-0.015,0.059-0.06v-0.191c0-1.385,0-1.645-0.021-1.934c-0.019-0.309-0.09-0.455-0.39-0.519
				c-0.075-0.021-0.229-0.026-0.357-0.026c-0.101,0-0.152-0.021-0.152-0.083c0-0.065,0.062-0.088,0.189-0.088
				c0.494,0,1.065,0.029,1.311,0.029c0.222,0,0.794-0.029,1.151-0.029c0.125,0,0.189,0.022,0.189,0.088
				c0,0.062-0.052,0.083-0.163,0.083c-0.073,0-0.154,0.006-0.265,0.026c-0.249,0.042-0.318,0.201-0.337,0.519
				c-0.019,0.289-0.019,0.549-0.019,1.934v1.603c0,0.839,0,1.559,0.045,1.954c0.025,0.254,0.081,0.45,0.352,0.489
				c0.134,0.014,0.335,0.034,0.468,0.034c0.104,0,0.146,0.027,0.146,0.076c0,0.06-0.07,0.086-0.182,0.086
				c-0.592,0-1.164-0.026-1.42-0.026c-0.211,0-0.782,0.026-1.139,0.026c-0.131,0-0.193-0.026-0.193-0.086
				c0-0.049,0.036-0.076,0.146-0.076c0.138,0,0.243-0.021,0.327-0.034c0.184-0.039,0.229-0.235,0.265-0.503
				c0.049-0.382,0.049-1.102,0.049-1.94v-0.806c0-0.03-0.028-0.054-0.059-0.054h-3.481c-0.03,0-0.056,0.013-0.056,0.054v0.806
				c0,0.839,0,1.559,0.048,1.954c0.026,0.254,0.082,0.45,0.355,0.489c0.127,0.014,0.326,0.034,0.461,0.034
				c0.104,0,0.147,0.027,0.147,0.076c0,0.06-0.073,0.086-0.179,0.086c-0.596,0-1.166-0.026-1.426-0.026
				c-0.209,0-0.782,0.026-1.146,0.026c-0.118,0-0.183-0.026-0.183-0.086c0-0.049,0.037-0.076,0.143-0.076
				c0.139,0,0.249-0.021,0.333-0.034c0.181-0.039,0.225-0.235,0.264-0.503c0.044-0.382,0.044-1.102,0.044-1.94v-1.603
				c0-1.385,0-1.645-0.016-1.934c-0.02-0.309-0.093-0.455-0.395-0.519c-0.073-0.021-0.23-0.026-0.355-0.026
				c-0.102,0-0.154-0.021-0.154-0.083c0-0.065,0.062-0.088,0.188-0.088c0.494,0,1.067,0.029,1.315,0.029
				c0.221,0,0.791-0.029,1.146-0.029c0.132,0,0.194,0.022,0.194,0.088c0,0.062-0.058,0.083-0.167,0.083
				c-0.073,0-0.152,0.006-0.265,0.026c-0.244,0.042-0.319,0.201-0.336,0.519c-0.02,0.289-0.02,0.549-0.02,1.934v0.191
				c0,0.045,0.025,0.06,0.056,0.06H115.569z"/>
		</g>
		<g>
			<path d="M118.231,25.756c0-1.556,1.032-3.571,3.765-3.571c2.273,0,3.684,1.321,3.684,3.411c0,2.088-1.459,3.736-3.775,3.736
				C119.292,29.332,118.231,27.372,118.231,25.756z M124.406,25.933c0-2.039-1.179-3.31-2.675-3.31
				c-1.046,0-2.244,0.584-2.244,2.855c0,1.894,1.054,3.399,2.801,3.399C122.927,28.878,124.406,28.565,124.406,25.933z"/>
		</g>
		<g>
			<path d="M126.95,24.959c0-1.385,0-1.645-0.023-1.934c-0.013-0.309-0.082-0.455-0.389-0.519c-0.072-0.021-0.226-0.026-0.354-0.026
				c-0.098,0-0.154-0.021-0.154-0.083c0-0.065,0.064-0.088,0.201-0.088c0.483,0,1.054,0.029,1.327,0.029
				c0.221,0,0.793-0.029,1.12-0.029c0.14,0,0.202,0.022,0.202,0.088c0,0.062-0.05,0.083-0.144,0.083c-0.1,0-0.153,0.006-0.267,0.026
				c-0.243,0.042-0.315,0.201-0.335,0.519c-0.021,0.289-0.021,0.549-0.021,1.934v1.272c0,1.326,0.264,1.877,0.716,2.242
				c0.407,0.339,0.829,0.376,1.138,0.376c0.397,0,0.893-0.129,1.255-0.493c0.504-0.502,0.53-1.322,0.53-2.26v-1.138
				c0-1.385,0-1.645-0.021-1.934c-0.016-0.309-0.09-0.455-0.39-0.519c-0.071-0.021-0.227-0.026-0.327-0.026
				s-0.155-0.021-0.155-0.083c0-0.065,0.062-0.088,0.188-0.088c0.469,0,1.042,0.029,1.052,0.029c0.107,0,0.683-0.029,1.039-0.029
				c0.127,0,0.19,0.022,0.19,0.088c0,0.062-0.056,0.083-0.163,0.083c-0.104,0-0.157,0.006-0.264,0.026
				c-0.249,0.042-0.32,0.201-0.343,0.519c-0.013,0.289-0.013,0.549-0.013,1.934v0.974c0,1.011-0.102,2.09-0.87,2.744
				c-0.644,0.556-1.299,0.655-1.891,0.655c-0.488,0-1.36-0.028-2.028-0.626c-0.46-0.422-0.809-1.096-0.809-2.417V24.959z"/>
		</g>
		<g>
			<path d="M136.647,22.824l-1.357,0.034c-0.532,0.021-0.749,0.065-0.887,0.265c-0.091,0.139-0.137,0.248-0.154,0.32
				c-0.018,0.071-0.047,0.11-0.101,0.11c-0.063,0-0.079-0.048-0.079-0.147c0-0.145,0.168-0.978,0.188-1.047
				c0.027-0.117,0.056-0.175,0.111-0.175c0.071,0,0.162,0.093,0.39,0.114c0.268,0.022,0.612,0.04,0.91,0.04h3.611
				c0.584,0,0.803-0.091,0.878-0.091c0.062,0,0.069,0.056,0.069,0.189c0,0.195-0.024,0.824-0.024,1.061
				c-0.01,0.094-0.024,0.146-0.081,0.146c-0.076,0-0.091-0.043-0.104-0.182l-0.005-0.098c-0.021-0.241-0.268-0.493-1.075-0.514
				l-1.152-0.026v3.737c0,0.839,0,1.559,0.045,1.954c0.029,0.254,0.084,0.45,0.359,0.489c0.127,0.014,0.324,0.034,0.462,0.034
				c0.099,0,0.146,0.027,0.146,0.076c0,0.06-0.074,0.086-0.174,0.086c-0.603,0-1.172-0.026-1.432-0.026
				c-0.208,0-0.779,0.026-1.146,0.026c-0.12,0-0.182-0.026-0.182-0.086c0-0.049,0.033-0.076,0.145-0.076
				c0.138,0,0.245-0.021,0.329-0.034c0.181-0.039,0.236-0.235,0.265-0.503c0.046-0.382,0.046-1.102,0.046-1.94V22.824z"/>
		</g>
	</g>
	<g>
		<g>
			<path d="M145.785,24.959c0-1.393,0-1.645-0.018-1.938c-0.019-0.305-0.09-0.458-0.391-0.52c-0.074-0.016-0.23-0.021-0.354-0.021
				c-0.104,0-0.156-0.021-0.156-0.086c0-0.062,0.067-0.085,0.201-0.085c0.483,0,1.057,0.029,1.238,0.029
				c0.449,0,0.8-0.029,1.111-0.029c1.654,0,1.943,0.887,1.943,1.37c0,0.748-0.429,1.19-0.931,1.595
				c0.749,0.253,1.66,0.899,1.66,1.968c0,0.98-0.756,1.99-2.437,1.99c-0.215,0-1.047-0.058-1.32-0.058
				c-0.209,0-0.782,0.026-1.146,0.026c-0.12,0-0.184-0.026-0.184-0.086c0-0.049,0.035-0.076,0.143-0.076
				c0.14,0,0.249-0.021,0.327-0.034c0.186-0.039,0.232-0.235,0.27-0.503c0.042-0.382,0.042-1.102,0.042-1.94V24.959z
				 M146.881,25.106c0,0.076,0.026,0.098,0.065,0.104c0.078,0.018,0.218,0.028,0.427,0.028c0.304,0,0.501-0.034,0.653-0.172
				c0.24-0.196,0.377-0.522,0.377-0.968c0-0.61-0.356-1.411-1.141-1.411c-0.127,0-0.207,0-0.299,0.021
				c-0.063,0.015-0.083,0.055-0.083,0.15V25.106z M148.085,25.839c-0.193-0.137-0.404-0.198-0.758-0.217
				c-0.163-0.011-0.253-0.011-0.393-0.011c-0.034,0-0.054,0.018-0.054,0.066v2.156c0,0.605,0.026,0.76,0.321,0.877
				c0.243,0.102,0.451,0.114,0.664,0.114c0.407,0,1.102-0.223,1.102-1.172C148.968,27.09,148.776,26.325,148.085,25.839z"/>
		</g>
		<g>
			<path d="M151.582,25.756c0-1.556,1.03-3.571,3.767-3.571c2.27,0,3.683,1.321,3.683,3.411c0,2.085-1.459,3.736-3.775,3.736
				C152.638,29.332,151.582,27.369,151.582,25.756z M157.758,25.933c0-2.044-1.181-3.313-2.672-3.313
				c-1.052,0-2.245,0.584-2.245,2.857c0,1.893,1.047,3.401,2.798,3.401C156.278,28.878,157.758,28.565,157.758,25.933z"/>
		</g>
		<g>
			<path d="M160.295,24.959c0-1.393,0-1.645-0.017-1.938c-0.02-0.305-0.091-0.458-0.393-0.52c-0.073-0.016-0.229-0.021-0.354-0.021
				c-0.103,0-0.158-0.021-0.158-0.086c0-0.062,0.063-0.085,0.203-0.085c0.48,0,1.058,0.029,1.246,0.029
				c0.312,0,1.005-0.029,1.289-0.029c0.573,0,1.186,0.057,1.675,0.398c0.258,0.169,0.622,0.636,0.622,1.246
				c0,0.674-0.286,1.295-1.203,2.039c0.81,1.018,1.438,1.832,1.979,2.397c0.507,0.528,0.882,0.594,1.02,0.622
				c0.1,0.014,0.18,0.026,0.254,0.026s0.108,0.027,0.108,0.076c0,0.071-0.063,0.086-0.171,0.086h-0.865
				c-0.512,0-0.739-0.046-0.977-0.175c-0.391-0.201-0.738-0.636-1.25-1.336c-0.363-0.505-0.785-1.122-0.901-1.259
				c-0.045-0.051-0.1-0.063-0.165-0.063l-0.791-0.02c-0.045,0-0.073,0.02-0.073,0.072v0.131c0,0.849,0,1.568,0.044,1.95
				c0.029,0.268,0.084,0.464,0.355,0.503c0.138,0.014,0.34,0.034,0.447,0.034c0.075,0,0.106,0.027,0.106,0.076
				c0,0.06-0.061,0.086-0.18,0.086c-0.529,0-1.204-0.026-1.337-0.026c-0.175,0-0.752,0.026-1.115,0.026
				c-0.117,0-0.184-0.026-0.184-0.086c0-0.049,0.037-0.076,0.147-0.076c0.139,0,0.247-0.021,0.328-0.034
				c0.183-0.039,0.231-0.235,0.263-0.503c0.047-0.382,0.047-1.102,0.047-1.94V24.959z M161.372,25.678
				c0,0.1,0.014,0.132,0.079,0.161c0.192,0.066,0.466,0.094,0.694,0.094c0.363,0,0.483-0.036,0.648-0.155
				c0.273-0.204,0.536-0.622,0.536-1.366c0-1.298-0.854-1.671-1.395-1.671c-0.228,0-0.389,0.009-0.484,0.038
				c-0.065,0.017-0.079,0.054-0.079,0.127V25.678z"/>
		</g>
		<g>
			<path d="M167.826,24.959c0-1.393,0-1.645-0.02-1.938c-0.014-0.305-0.092-0.458-0.389-0.52c-0.072-0.016-0.232-0.021-0.356-0.021
				c-0.1,0-0.153-0.021-0.153-0.086c0-0.062,0.062-0.085,0.202-0.085c0.478,0,1.054,0.029,1.31,0.029
				c0.285,0,0.856-0.029,1.407-0.029c1.137,0,2.657,0,3.655,1.045c0.451,0.469,0.878,1.229,0.878,2.311
				c0,1.15-0.482,2.025-0.99,2.545c-0.419,0.433-1.366,1.075-3.057,1.075c-0.664,0-1.482-0.11-1.94-0.11
				c-0.209,0-0.785,0.026-1.146,0.026c-0.117,0-0.188-0.026-0.188-0.086c0-0.049,0.039-0.076,0.146-0.076
				c0.138,0,0.252-0.021,0.331-0.034c0.185-0.039,0.227-0.235,0.268-0.503c0.042-0.382,0.042-1.102,0.042-1.94V24.959z
				 M168.969,25.957c0,0.97,0.009,1.669,0.015,1.848c0.009,0.224,0.027,0.586,0.104,0.686c0.114,0.177,0.474,0.367,1.195,0.367
				c0.926,0,1.545-0.186,2.096-0.653c0.58-0.5,0.761-1.334,0.761-2.271c0-1.157-0.479-1.905-0.871-2.276
				c-0.839-0.806-1.883-0.916-2.592-0.916c-0.183,0-0.519,0.03-0.589,0.065c-0.082,0.037-0.11,0.079-0.11,0.18
				c-0.009,0.314-0.009,1.103-0.009,1.823V25.957z"/>
		</g>
		<g>
			<path d="M175.624,24.959c0-1.393,0-1.645-0.021-1.938c-0.018-0.305-0.09-0.458-0.392-0.52c-0.073-0.016-0.229-0.021-0.355-0.021
				c-0.098,0-0.152-0.021-0.152-0.086c0-0.062,0.062-0.085,0.2-0.085c0.481,0,1.055,0.029,1.312,0.029c0.291,0,2.107,0,2.279-0.007
				c0.17-0.022,0.316-0.033,0.391-0.055c0.044-0.016,0.1-0.035,0.147-0.035c0.042,0,0.054,0.035,0.054,0.079
				c0,0.06-0.047,0.172-0.074,0.591c-0.008,0.096-0.027,0.494-0.045,0.6c-0.008,0.05-0.026,0.102-0.093,0.102
				c-0.063,0-0.081-0.047-0.081-0.125c0-0.062-0.01-0.219-0.054-0.33c-0.062-0.167-0.155-0.273-0.611-0.326
				c-0.157-0.021-1.111-0.037-1.295-0.037c-0.048,0-0.062,0.029-0.062,0.09v2.309c0,0.062,0.01,0.101,0.062,0.101
				c0.197,0,1.251,0,1.458-0.02c0.219-0.019,0.357-0.047,0.441-0.133c0.061-0.075,0.099-0.119,0.142-0.119
				c0.038,0,0.066,0.016,0.066,0.071c0,0.057-0.047,0.2-0.073,0.662c-0.021,0.182-0.036,0.549-0.036,0.612
				c0,0.077,0,0.174-0.085,0.174c-0.062,0-0.082-0.036-0.082-0.082c-0.009-0.092-0.009-0.21-0.036-0.327
				c-0.044-0.188-0.171-0.323-0.508-0.355c-0.176-0.021-1.074-0.028-1.298-0.028c-0.042,0-0.052,0.039-0.052,0.09v0.723
				c0,0.309-0.011,1.147,0,1.41c0.015,0.631,0.164,0.767,1.094,0.767c0.237,0,0.62,0,0.859-0.111
				c0.235-0.104,0.344-0.298,0.407-0.673c0.017-0.1,0.035-0.135,0.097-0.135c0.077,0,0.077,0.072,0.077,0.167
				c0,0.202-0.077,0.826-0.117,1.008c-0.064,0.238-0.148,0.238-0.496,0.238c-1.374,0-1.987-0.058-2.525-0.058
				c-0.209,0-0.782,0.026-1.147,0.026c-0.116,0-0.183-0.026-0.183-0.086c0-0.049,0.039-0.076,0.145-0.076
				c0.141,0,0.249-0.021,0.33-0.034c0.182-0.039,0.229-0.235,0.264-0.503c0.048-0.382,0.048-1.102,0.048-1.94V24.959z"/>
		</g>
		<g>
			<path d="M180.572,24.959c0-1.393,0-1.645-0.018-1.938c-0.02-0.305-0.09-0.458-0.392-0.52c-0.073-0.016-0.229-0.021-0.356-0.021
				c-0.102,0-0.157-0.021-0.157-0.086c0-0.062,0.067-0.085,0.202-0.085c0.487,0,1.061,0.029,1.249,0.029
				c0.312,0,1.003-0.029,1.288-0.029c0.573,0,1.185,0.057,1.673,0.398c0.259,0.169,0.623,0.636,0.623,1.246
				c0,0.674-0.283,1.295-1.204,2.039c0.813,1.018,1.439,1.832,1.977,2.397c0.518,0.528,0.885,0.594,1.024,0.622
				c0.097,0.014,0.183,0.026,0.252,0.026c0.074,0,0.11,0.027,0.11,0.076c0,0.071-0.061,0.086-0.174,0.086h-0.864
				c-0.51,0-0.739-0.046-0.977-0.175c-0.39-0.201-0.738-0.636-1.248-1.336c-0.361-0.505-0.782-1.122-0.901-1.259
				c-0.047-0.051-0.103-0.063-0.163-0.063l-0.796-0.02c-0.042,0-0.069,0.02-0.069,0.072v0.131c0,0.849,0,1.568,0.04,1.95
				c0.029,0.268,0.084,0.464,0.356,0.503c0.14,0.014,0.341,0.034,0.448,0.034c0.074,0,0.11,0.027,0.11,0.076
				c0,0.06-0.063,0.086-0.183,0.086c-0.53,0-1.206-0.026-1.341-0.026c-0.171,0-0.744,0.026-1.112,0.026
				c-0.119,0-0.183-0.026-0.183-0.086c0-0.049,0.037-0.076,0.146-0.076c0.139,0,0.247-0.021,0.325-0.034
				c0.186-0.039,0.232-0.235,0.268-0.503c0.045-0.382,0.045-1.102,0.045-1.94V24.959z M181.651,25.678
				c0,0.1,0.021,0.132,0.083,0.161c0.187,0.066,0.46,0.094,0.689,0.094c0.364,0,0.48-0.036,0.647-0.155
				c0.274-0.204,0.538-0.622,0.538-1.366c0-1.298-0.857-1.671-1.395-1.671c-0.229,0-0.391,0.009-0.48,0.038
				c-0.062,0.017-0.083,0.054-0.083,0.127V25.678z"/>
		</g>
		<g>
			<path d="M187.359,29.095c-0.146-0.068-0.173-0.11-0.173-0.312c0-0.498,0.035-1.048,0.045-1.194
				c0.009-0.133,0.038-0.237,0.109-0.237c0.081,0,0.091,0.086,0.091,0.158c0,0.117,0.04,0.311,0.081,0.463
				c0.202,0.678,0.741,0.922,1.306,0.922c0.822,0,1.219-0.552,1.219-1.039c0-0.447-0.133-0.874-0.892-1.456l-0.417-0.331
				c-1.004-0.783-1.348-1.419-1.348-2.16c0-1.002,0.836-1.723,2.101-1.723c0.593,0,0.98,0.093,1.214,0.154
				c0.083,0.021,0.131,0.042,0.131,0.104c0,0.121-0.038,0.39-0.038,1.099c0,0.2-0.027,0.273-0.101,0.273
				c-0.063,0-0.091-0.053-0.091-0.158c0-0.09-0.044-0.368-0.238-0.604c-0.14-0.175-0.399-0.449-0.995-0.449
				c-0.672,0-1.083,0.389-1.083,0.938c0,0.426,0.208,0.741,0.967,1.316l0.254,0.188c1.096,0.851,1.494,1.46,1.494,2.323
				c0,0.529-0.2,1.16-0.853,1.591c-0.459,0.286-0.971,0.372-1.451,0.372C188.162,29.332,187.751,29.266,187.359,29.095z"/>
		</g>
	</g>
	<g>
		<g>
			<path d="M196.556,24.957c0-1.389,0-1.64-0.016-1.932c-0.021-0.306-0.091-0.458-0.39-0.523c-0.076-0.014-0.231-0.02-0.357-0.02
				c-0.102,0-0.159-0.02-0.159-0.088c0-0.062,0.065-0.08,0.202-0.08c0.481,0,1.06,0.028,1.333,0.028
				c0.214,0,0.794-0.028,1.121-0.028c0.134,0,0.196,0.018,0.196,0.08c0,0.068-0.052,0.088-0.142,0.088
				c-0.104,0-0.159,0.006-0.263,0.02c-0.251,0.05-0.322,0.206-0.342,0.523c-0.016,0.292-0.016,0.543-0.016,1.932v1.276
				c0,1.324,0.265,1.882,0.71,2.243c0.408,0.336,0.828,0.37,1.139,0.37c0.403,0,0.892-0.123,1.259-0.487
				c0.503-0.505,0.527-1.325,0.527-2.26v-1.143c0-1.389,0-1.64-0.016-1.932c-0.02-0.306-0.09-0.458-0.39-0.523
				c-0.077-0.014-0.232-0.02-0.33-0.02c-0.101,0-0.159-0.02-0.159-0.088c0-0.062,0.07-0.08,0.194-0.08
				c0.461,0,1.041,0.028,1.049,0.028c0.109,0,0.683-0.028,1.035-0.028c0.131,0,0.19,0.018,0.19,0.08
				c0,0.068-0.049,0.088-0.161,0.088c-0.098,0-0.153,0.006-0.261,0.02c-0.248,0.05-0.323,0.206-0.338,0.523
				c-0.021,0.292-0.021,0.543-0.021,1.932v0.978c0,1.011-0.098,2.088-0.867,2.742c-0.644,0.558-1.3,0.655-1.894,0.655
				c-0.483,0-1.359-0.026-2.024-0.623c-0.465-0.421-0.812-1.099-0.812-2.42V24.957z"/>
		</g>
		<g>
			<path d="M203.975,29.095c-0.147-0.063-0.17-0.107-0.17-0.31c0-0.497,0.031-1.051,0.043-1.191
				c0.006-0.139,0.033-0.238,0.111-0.238c0.082,0,0.091,0.078,0.091,0.153c0,0.124,0.032,0.312,0.083,0.467
				c0.197,0.676,0.738,0.922,1.303,0.922c0.817,0,1.223-0.556,1.223-1.043c0-0.444-0.141-0.871-0.896-1.453l-0.423-0.334
				c-1.003-0.78-1.344-1.423-1.344-2.158c0-1,0.836-1.721,2.103-1.721c0.595,0,0.976,0.089,1.212,0.154
				c0.08,0.019,0.128,0.045,0.128,0.105c0,0.119-0.038,0.388-0.038,1.097c0,0.199-0.023,0.271-0.099,0.271
				c-0.062,0-0.096-0.055-0.096-0.162c0-0.086-0.042-0.361-0.232-0.603c-0.139-0.172-0.402-0.446-0.996-0.446
				c-0.671,0-1.085,0.391-1.085,0.939c0,0.422,0.215,0.74,0.969,1.314l0.259,0.188c1.086,0.849,1.492,1.461,1.492,2.324
				c0,0.528-0.198,1.159-0.858,1.59c-0.453,0.291-0.964,0.37-1.447,0.37C204.777,29.332,204.367,29.271,203.975,29.095z"/>
		</g>
		<g>
			<path d="M211.058,26.826c-0.043,0-0.062,0.019-0.078,0.072l-0.495,1.306c-0.093,0.224-0.14,0.447-0.14,0.56
				c0,0.158,0.084,0.275,0.369,0.275h0.135c0.11,0,0.136,0.019,0.136,0.076c0,0.071-0.055,0.09-0.156,0.09
				c-0.288,0-0.681-0.025-0.965-0.025c-0.097,0-0.603,0.025-1.073,0.025c-0.12,0-0.176-0.019-0.176-0.09
				c0-0.058,0.038-0.076,0.109-0.076c0.081,0,0.213-0.008,0.281-0.015c0.417-0.057,0.595-0.364,0.776-0.82l2.285-5.722
				c0.112-0.271,0.168-0.371,0.26-0.371c0.083,0,0.138,0.085,0.228,0.296c0.217,0.502,1.676,4.216,2.26,5.602
				c0.348,0.824,0.607,0.953,0.802,0.999c0.139,0.023,0.273,0.031,0.383,0.031c0.072,0,0.12,0.011,0.12,0.076
				c0,0.071-0.087,0.09-0.423,0.09c-0.326,0-0.996,0-1.721-0.019c-0.167-0.007-0.275-0.007-0.275-0.071
				c0-0.058,0.042-0.076,0.131-0.084c0.061-0.015,0.125-0.098,0.082-0.204l-0.729-1.938c-0.021-0.045-0.048-0.063-0.092-0.063
				H211.058z M212.918,26.371c0.044,0,0.054-0.024,0.044-0.058l-0.821-2.249c-0.007-0.034-0.016-0.083-0.049-0.083
				c-0.025,0-0.04,0.049-0.053,0.083l-0.839,2.24c-0.007,0.042,0,0.066,0.039,0.066H212.918z"/>
		</g>
	</g>
	<g>
		<path fill="#BAD0EC" d="M6.943,18.1c-0.046-0.032-0.137-0.09-0.265-0.169c-0.907-0.569-3.318-2.082-4.587-3.654l0.556-0.448
			c1.193,1.48,3.615,2.999,4.41,3.497c0.14,0.087,0.239,0.149,0.29,0.185L6.943,18.1z"/>
	</g>
	<g>
		<path fill="#BAD0EC" d="M22.798,22.714c-1.83,0-4.907-0.247-8.775-1.482l0.229-0.714c6.082,1.946,10.249,1.358,10.292,1.354
			l0.11,0.738C24.587,22.619,23.931,22.714,22.798,22.714z"/>
	</g>
	<g>
		<path fill="#BAD0EC" d="M27.964,11.194c-0.168-0.324-0.307-0.652-0.44-0.969c-0.603-1.423-1.285-3.036-5.244-5.616l0.343-0.526
			c4.12,2.684,4.842,4.391,5.479,5.897c0.135,0.32,0.264,0.622,0.42,0.925L27.964,11.194z"/>
	</g>
	<g>
		<path d="M34.07,13.412c-0.716,0.325-1.434,0.501-1.662,0.566"/>
		<path fill="#BAD0EC" d="M32.495,14.28l-0.173-0.604l0.115-0.032c0.293-0.08,0.902-0.245,1.502-0.518l0.26,0.57
			c-0.646,0.294-1.288,0.469-1.597,0.554L32.495,14.28z"/>
	</g>
	<g>
		<path fill="#BAD0EC" d="M11.425,10.841c-0.042,0-0.084-0.007-0.125-0.023C10.797,10.63,8.115,9.277,5.107,6.55
			C4.962,6.418,4.951,6.191,5.083,6.045C5.214,5.9,5.439,5.889,5.586,6.021c2.924,2.653,5.487,3.95,5.965,4.129
			c0.185,0.069,0.278,0.273,0.209,0.459C11.706,10.752,11.57,10.841,11.425,10.841z"/>
	</g>
	<g>
		<path fill="#BAD0EC" d="M26.221,13.952c-2.045,0-5.594-0.409-6.649-0.734l0.212-0.684c1.317,0.409,6.476,0.897,7.494,0.632
			l0.181,0.69C27.202,13.924,26.764,13.952,26.221,13.952z"/>
	</g>
	<g>
		<path fill="#BAD0EC" d="M16.536,8.577L15.911,8.23c0.119-0.213,2.948-5.25,7.604-7.522l0.312,0.642
			C19.372,3.524,16.563,8.527,16.536,8.577z"/>
	</g>
	<g>
		<path fill="#BAD0EC" d="M13.701,18.44l-0.708-0.088c0.047-0.376,0.752-4.494,1.648-6.585l0.657,0.281
			C14.441,14.044,13.74,18.121,13.701,18.44z"/>
	</g>
</g>
</svg>
