<?xml version="1.0" encoding="utf-8"?>
<!-- Generator: Adobe Illustrator 15.0.2, SVG Export Plug-In . SVG Version: 6.00 Build 0)  -->
<!DOCTYPE svg PUBLIC "-//W3C//DTD SVG 1.1//EN" "http://www.w3.org/Graphics/SVG/1.1/DTD/svg11.dtd">
<svg version="1.1" id="Layer_1" xmlns="http://www.w3.org/2000/svg" xmlns:xlink="http://www.w3.org/1999/xlink" x="0px" y="0px"
	 width="300px" height="40px" viewBox="0 0 300 40" enable-background="new 0 0 300 40" xml:space="preserve">
<g>
	<path fill="#005581" d="M24.678,18.147h-1.494v-7.389h-2.862V9.395h7.219v1.363h-2.863V18.147z M36.494,18.147h-1.498v-3.765
		h-4.206v3.765h-1.482V9.395h1.482v3.648h4.206V9.395h1.498V18.147z M45.269,18.147h-5.815V9.395h5.815v1.363h-4.321v2.285h4.071
		v1.315h-4.071v2.423h4.321V18.147z M56.937,14.757h-2.066v-1.312h3.494v4.099c-0.869,0.503-1.928,0.816-3.174,0.816
		c-2.625,0-4.767-1.84-4.767-4.579c0-2.9,2.267-4.601,4.968-4.601c0.884,0,1.631,0.101,2.352,0.338v1.439
		c-0.756-0.288-1.604-0.401-2.352-0.401c-2.203,0-3.373,1.375-3.373,3.214c0,1.912,1.33,3.262,3.247,3.262
		c0.661,0,1.183-0.086,1.671-0.286V14.757z M66.744,18.147h-5.815V9.395h5.815v1.363h-4.322v2.285h4.075v1.315h-4.075v2.423h4.322
		V18.147z M68.787,13.771c0-2.627,1.954-4.591,4.481-4.591c2.538,0,4.405,1.963,4.405,4.591c0,2.625-1.955,4.589-4.48,4.589
		C70.652,18.36,68.787,16.396,68.787,13.771z M76.082,13.771c0-1.851-1.172-3.264-2.862-3.264c-1.67,0-2.841,1.413-2.841,3.264
		c0,1.849,1.171,3.262,2.862,3.262C74.909,17.034,76.082,15.621,76.082,13.771z M81.67,18.147h-1.494V9.395h2.752
		c2.291,0,3.487,1.213,3.487,2.849c0,1.152-0.599,2.1-1.743,2.564l2.202,3.339h-1.741l-1.893-3.012H81.67V18.147z M83.014,13.81
		c1.232,0,1.83-0.577,1.83-1.528c0-0.95-0.597-1.537-1.83-1.537H81.67v3.064H83.014z M94.829,14.757h-2.066v-1.312h3.499v4.099
		c-0.871,0.503-1.933,0.816-3.174,0.816c-2.629,0-4.77-1.84-4.77-4.579c0-2.9,2.266-4.601,4.967-4.601
		c0.883,0,1.63,0.101,2.352,0.338v1.439c-0.758-0.288-1.606-0.401-2.352-0.401c-2.204,0-3.372,1.375-3.372,3.214
		c0,1.912,1.331,3.262,3.246,3.262c0.661,0,1.186-0.086,1.67-0.286V14.757z M104.64,18.147h-5.815V9.395h5.815v1.363h-4.323v2.285
		h4.073v1.315h-4.073v2.423h4.323V18.147z M116.381,18.208l-2.215-4.812l-2.131,4.812h-0.385l-2.704-8.813h1.533l1.618,5.562
		l2.003-4.423h0.25l2.031,4.412l1.631-5.551h1.429l-2.675,8.813H116.381z M123.764,9.334l3.956,8.813h-1.581l-0.758-1.737h-3.674
		l-0.757,1.737h-1.534l3.96-8.813H123.764z M122.256,15.159h2.575l-1.292-2.94L122.256,15.159z M128.913,16.483
		c0.785,0.364,1.631,0.551,2.453,0.551c1.061,0,1.434-0.613,1.434-1.252c0-0.773-0.561-0.985-1.832-1.512
		c-1.083-0.436-2.226-0.987-2.226-2.476c0-1.512,1.143-2.613,2.997-2.613c0.688,0,1.333,0.124,1.945,0.338v1.451h-0.025
		c-0.55-0.249-1.321-0.462-1.979-0.462c-0.972,0-1.422,0.474-1.422,1.11c0,0.688,0.499,0.892,1.77,1.39
		c1.095,0.437,2.29,0.988,2.29,2.599c0,1.415-0.995,2.753-3.014,2.753c-0.908,0-1.717-0.152-2.415-0.428v-1.45H128.913z
		 M143.855,18.147h-1.493v-3.765h-4.211v3.765h-1.48V9.395h1.48v3.648h4.211V9.395h1.493V18.147z M148.312,18.147h-1.494V9.395
		h1.494V18.147z M158.456,18.208h-0.509l-5.253-5.75v5.688h-1.421V9.334h0.512l5.251,5.775V9.395h1.42V18.208z M167.469,14.757
		h-2.066v-1.312h3.498v4.099c-0.873,0.503-1.928,0.816-3.174,0.816c-2.625,0-4.77-1.84-4.77-4.579c0-2.9,2.267-4.601,4.968-4.601
		c0.887,0,1.633,0.101,2.354,0.338v1.439c-0.762-0.288-1.608-0.401-2.354-0.401c-2.203,0-3.374,1.375-3.374,3.214
		c0,1.912,1.333,3.262,3.251,3.262c0.658,0,1.183-0.086,1.667-0.286V14.757z M174.503,18.147h-1.497v-7.389h-2.858V9.395h7.218
		v1.363h-2.862V18.147z M178.301,13.771c0-2.627,1.952-4.591,4.478-4.591c2.543,0,4.411,1.963,4.411,4.591
		c0,2.625-1.957,4.589-4.483,4.589C180.167,18.36,178.301,16.396,178.301,13.771z M185.594,13.771c0-1.851-1.171-3.264-2.863-3.264
		c-1.669,0-2.837,1.413-2.837,3.264c0,1.849,1.168,3.262,2.864,3.262C184.423,17.034,185.594,15.621,185.594,13.771z
		 M196.872,18.208h-0.508l-5.258-5.75v5.688h-1.418V9.334h0.511l5.254,5.775V9.395h1.419V18.208z M209.859,14.731
		c0,2.277-1.518,3.629-3.6,3.629c-2.102,0-3.56-1.315-3.56-3.629V9.395h1.493v5.266c0,1.536,0.774,2.36,2.093,2.36
		c1.294,0,2.077-0.838,2.077-2.36V9.395h1.496V14.731z M219.881,18.208h-0.513l-5.251-5.75v5.688h-1.42V9.334h0.51l5.255,5.775
		V9.395h1.419V18.208z M224.338,18.147h-1.493V9.395h1.493V18.147z M229.875,18.208l-3.881-8.813h1.614l2.479,5.777l2.477-5.777
		h1.57l-3.871,8.813H229.875z M241.603,18.147h-5.812V9.395h5.812v1.363h-4.317v2.285h4.068v1.315h-4.068v2.423h4.317V18.147z
		 M245.722,18.147h-1.492V9.395h2.752c2.291,0,3.485,1.213,3.485,2.849c0,1.152-0.598,2.1-1.744,2.564l2.203,3.339h-1.742
		l-1.894-3.012h-1.568V18.147z M247.067,13.81c1.232,0,1.83-0.577,1.83-1.528c0-0.95-0.598-1.537-1.83-1.537h-1.346v3.064H247.067z
		 M252.373,16.483c0.781,0.364,1.628,0.551,2.453,0.551c1.055,0,1.428-0.613,1.428-1.252c0-0.773-0.559-0.985-1.829-1.512
		c-1.083-0.436-2.229-0.987-2.229-2.476c0-1.512,1.146-2.613,2.999-2.613c0.686,0,1.334,0.124,1.943,0.338v1.451h-0.025
		c-0.546-0.249-1.317-0.462-1.979-0.462c-0.971,0-1.419,0.474-1.419,1.11c0,0.688,0.496,0.892,1.768,1.39
		c1.097,0.437,2.291,0.988,2.291,2.599c0,1.415-0.994,2.753-3.013,2.753c-0.908,0-1.718-0.152-2.414-0.428v-1.45H252.373z
		 M261.619,18.147h-1.492V9.395h1.492V18.147z M267.746,18.147h-1.497v-7.389h-2.861V9.395h7.223v1.363h-2.864V18.147z
		 M274.543,18.147v-3.589l-3.163-5.163h1.718l2.202,3.799l2.192-3.799h1.68l-3.147,5.175v3.577H274.543z M112.443,37.291
		l-1.676-4.127l-1.667,4.127h-0.233l-1.972-6.496h0.7l1.466,4.911l1.605-3.973h0.229l1.602,3.937l1.454-4.875h0.683l-1.961,6.496
		H112.443z M120.055,37.244l-0.758-1.787h-2.91l-0.758,1.787h-0.727l2.839-6.495h0.23l2.847,6.495H120.055z M116.636,34.867h2.412
		l-1.207-2.835L116.636,34.867z M121.786,36.294h0.009c0.532,0.27,1.104,0.407,1.703,0.407c0.813,0,1.289-0.424,1.289-1.114
		c0-0.774-0.495-0.979-1.482-1.399c-0.792-0.343-1.612-0.713-1.612-1.76c0-1.043,0.754-1.745,1.992-1.745
		c0.469,0,0.912,0.075,1.363,0.232v0.682h-0.01c-0.441-0.157-0.902-0.258-1.353-0.258c-0.785,0-1.256,0.367-1.256,1.014
		c0,0.644,0.525,0.893,1.266,1.207c0.856,0.369,1.831,0.747,1.831,1.953c0,1.079-0.792,1.844-2.027,1.844
		c-0.618,0-1.235-0.13-1.712-0.343V36.294z M131.697,37.244v-2.957h-3.444v2.957h-0.71v-6.449h0.71v2.857h3.444v-2.857h0.712v6.449
		H131.697z M134.884,37.244v-6.449h0.712v6.449H134.884z M142.772,37.265l-4.036-4.943v4.923h-0.664v-6.469h0.289l4.034,4.941
		v-4.922h0.663v6.47H142.772z M150.298,34.665h-1.705v-0.666h2.405v2.602c-0.645,0.488-1.4,0.756-2.356,0.756
		c-1.789,0-3.449-1.32-3.449-3.335c0-2.11,1.759-3.339,3.467-3.339c0.688,0,1.419,0.132,2.024,0.426v0.699h-0.01
		c-0.604-0.312-1.371-0.469-2.009-0.469c-1.713,0-2.708,1.17-2.708,2.683c0,1.519,1.191,2.689,2.691,2.689
		c0.635,0,1.134-0.127,1.648-0.434V34.665z M154.295,37.244v-5.812h-2.155v-0.637h5.013v0.637h-2.157v5.812H154.295z
		 M157.907,34.021c0-1.938,1.514-3.339,3.253-3.339c1.745,0,3.18,1.401,3.18,3.339c0,1.933-1.5,3.325-3.244,3.325
		C159.356,37.347,157.907,35.954,157.907,34.021z M163.575,34.021c0-1.523-1.014-2.701-2.441-2.701c-1.438,0-2.46,1.178-2.46,2.701
		c0,1.519,1.022,2.696,2.46,2.696C162.562,36.718,163.575,35.54,163.575,34.021z M171.175,37.265l-4.035-4.943v4.923h-0.664v-6.469
		h0.285l4.037,4.941v-4.922h0.663v6.47H171.175z M173.827,38.406h-0.423l0.218-2.058h0.804v0.252L173.827,38.406z M179.298,30.795
		h1.694c2.405,0,3.677,1.493,3.677,3.227c0,1.72-1.28,3.223-3.677,3.223h-1.694V30.795z M180.992,31.42h-0.995v5.197h0.995
		c1.961,0,2.912-1.086,2.912-2.596C183.904,32.519,182.947,31.42,180.992,31.42z M191.678,36.349v0.675
		c-0.507,0.211-1.06,0.333-1.749,0.333c-2.019,0-3.467-1.402-3.467-3.335c0-1.9,1.486-3.339,3.467-3.339
		c0.689,0,1.242,0.121,1.749,0.334v0.671h-0.007c-0.535-0.237-1.135-0.349-1.751-0.349c-1.704,0-2.691,1.159-2.691,2.683
		c0,1.519,1.052,2.68,2.7,2.68c0.607,0,1.207-0.109,1.742-0.353H191.678z"/>
	<path fill="#C8B18B" d="M19.758,3.865V2.5h259.485v1.365H19.758z M19.758,25.12v-1.361h259.485v1.361H19.758z"/>
</g>
</svg>
