<?xml version="1.0" encoding="utf-8"?>
<!-- Generator: Adobe Illustrator 15.0.2, SVG Export Plug-In . SVG Version: 6.00 Build 0)  -->
<!DOCTYPE svg PUBLIC "-//W3C//DTD SVG 1.1//EN" "http://www.w3.org/Graphics/SVG/1.1/DTD/svg11.dtd">
<svg version="1.1" id="Layer_1" xmlns="http://www.w3.org/2000/svg" xmlns:xlink="http://www.w3.org/1999/xlink" x="0px" y="0px"
	 width="200px" height="40px" viewBox="50 0 200 40" enable-background="new 50 0 200 40" xml:space="preserve">
<g>
	<g>
		<g>
			<path fill="#231F20" d="M98.923,4.057h2.294c3.309,0,5.038,1.504,5.038,4.287c0,3.084-1.654,4.55-5.076,4.55h-2.257V4.057z
				 M91.667,1.875v1.655h0.64c1.917,0,2.443,0.789,2.443,2.856v14.026c0,2.067-0.526,2.857-2.443,2.857h-0.64v1.654
				c1.729-0.074,3.421-0.074,5.151-0.074c1.73,0,3.459,0,5.189,0.074v-1.654h-0.602c-1.955,0-2.482-0.753-2.482-2.857v-5.49h3.084
				c5.602,0,8.311-1.956,8.311-6.505c0-4.512-2.933-6.543-8.988-6.543H91.667z"/>
			<path fill="#231F20" d="M115.686,6.545c1.324,0,2.617-0.03,3.911-0.061V7.81h-0.511c-1.654,0-1.956,0.571-1.956,2.286v8.151
				c0,3.431,1.053,4.996,4.271,4.996c3.159,0,4.241-1.565,4.241-4.935v-8.121c0-1.776-0.331-2.376-2.075-2.376h-0.481V6.485
				c1.293,0.031,2.527,0.061,3.76,0.061c1.203,0,2.406-0.03,3.58-0.061V7.81h-0.542c-1.292,0-1.654,0.691-1.654,2.286v8.031
				c0,4.993-2.045,7.22-7.129,7.22c-4.783,0-7.279-2.316-7.279-6.799v-8.453c0-1.564-0.332-2.286-1.655-2.286h-0.481V6.485
				C113.038,6.516,114.362,6.545,115.686,6.545z"/>
			<path fill="#231F20" d="M137.916,8.261h1.925c2.828,0,4.091,1.023,4.091,3.459c0,2.346-1.475,3.248-4.512,3.248h-1.504V8.261z
				 M132.11,6.485V7.81h0.482c1.534,0,1.984,0.631,1.984,2.286v11.221c0,1.683-0.421,2.286-1.984,2.286h-0.482v1.322
				c1.384-0.06,2.738-0.06,4.121-0.06c1.384,0,2.768,0,4.152,0.06v-1.322h-0.511c-1.535,0-1.956-0.604-1.956-2.286v-4.754h1.685
				c2.497,0,3.068,0.723,3.76,2.708c0.331,0.994,0.512,3.01,1.504,5.655h4.963v-1.322c-0.09,0-0.21,0-0.301,0
				c-1.534,0-2.046-0.903-2.556-2.979c-0.723-2.888-0.903-4.542-3.219-4.934c2.166-0.571,3.37-2.166,3.37-4.301
				c0-3.49-2.347-4.904-7.28-4.904H132.11z"/>
			<path fill="#231F20" d="M156.687,8.23h2.104c5.085,0,7.49,2.226,7.49,7.22c0,5.263-2.347,7.701-7.338,7.701h-2.257V8.23z
				 M150.88,6.485V7.81h0.482c1.534,0,1.984,0.631,1.984,2.286v11.221c0,1.654-0.45,2.286-1.984,2.286h-0.482v1.322h8.814
				c6.829,0,10.168-3.067,10.168-9.445c0-6.106-3.489-8.995-10.649-8.995H150.88z"/>
			<path fill="#231F20" d="M174.592,6.545c1.323,0,2.617-0.03,3.91-0.061V7.81h-0.511c-1.653,0-1.954,0.571-1.954,2.286v8.151
				c0,3.431,1.052,4.996,4.271,4.996c3.158,0,4.241-1.565,4.241-4.935v-8.121c0-1.776-0.333-2.376-2.076-2.376h-0.481V6.485
				c1.294,0.031,2.526,0.061,3.762,0.061c1.201,0,2.403-0.03,3.577-0.061V7.81h-0.54c-1.294,0-1.655,0.691-1.655,2.286v8.031
				c0,4.993-2.046,7.22-7.128,7.22c-4.785,0-7.281-2.316-7.281-6.799v-8.453c0-1.564-0.33-2.286-1.653-2.286h-0.483V6.485
				C171.944,6.516,173.268,6.545,174.592,6.545z"/>
			<path fill="#231F20" d="M205.756,6.576v4.813h-1.533c0-0.181,0-0.331,0-0.482c0-2.347-0.664-2.526-3.07-2.526h-4.36v6.227h1.414
				c2.286,0,2.796-0.151,2.796-2.467h1.385v6.557h-1.353c-0.032-2.255-0.571-2.466-2.768-2.466h-1.475v6.859h4.242
				c2.826,0,3.309-0.36,3.338-3.67h1.505v5.504h-15.012v-1.322h0.633c1.594,0,1.954-0.632,1.954-2.286V10.095
				c0-1.655-0.39-2.286-1.954-2.286h-0.512V6.576H205.756z"/>
		</g>
		<g>
			<g>
				<path fill="#C4960C" d="M93.812,31.596c0.443,0,0.884-0.01,1.307-0.02v0.52h-0.118c-0.539,0-0.638,0.196-0.638,0.768v2.643
					c0,0.943,0.304,1.385,1.228,1.385c0.894,0,1.267-0.451,1.267-1.404v-2.623c0-0.54-0.128-0.768-0.628-0.768h-0.118v-0.52
					c0.422,0.01,0.825,0.02,1.228,0.02c0.413,0,0.806-0.01,1.199-0.02v0.52h-0.147c-0.354,0-0.492,0.246-0.492,0.768v2.533
					c0,1.611-0.677,2.34-2.406,2.34c-1.622,0-2.418-0.698-2.418-2.092v-2.781c0-0.512-0.088-0.768-0.481-0.768h-0.118v-0.52
					C92.928,31.586,93.38,31.596,93.812,31.596z"/>
				<path fill="#C4960C" d="M107.844,31.576l2.309,4.932l-0.03-3.645c0-0.54-0.117-0.768-0.628-0.768h-0.117v-0.52
					c0.422,0.01,0.834,0.02,1.258,0.02c0.432,0,0.855-0.01,1.287-0.02v0.52h-0.118c-0.502,0-0.629,0.228-0.629,0.768v4.734h-1.67
					l-2.31-4.912l0.02,3.616c0,0.54,0.118,0.775,0.629,0.775h0.118v0.521c-0.422-0.019-0.845-0.019-1.268-0.019
					c-0.422,0-0.845,0-1.276,0.019v-0.521h0.117c0.501,0,0.639-0.235,0.639-0.775v-3.438c0-0.54-0.137-0.768-0.639-0.768h-0.117
					v-0.52H107.844z"/>
				<path fill="#C4960C" d="M120.322,31.596c0.462,0,0.935-0.01,1.406-0.02v0.52H121.6c-0.501,0-0.628,0.228-0.628,0.768v3.438
					c0,0.54,0.127,0.775,0.628,0.775h0.128v0.521c-0.471-0.019-0.944-0.019-1.406-0.019c-0.471,0-0.943,0-1.414,0.019v-0.521h0.117
					c0.502,0,0.629-0.235,0.629-0.775v-3.438c0-0.54-0.127-0.768-0.629-0.768h-0.117v-0.52
					C119.379,31.586,119.851,31.596,120.322,31.596z"/>
				<path fill="#C4960C" d="M129.578,31.596c0.422,0,0.914-0.01,1.455-0.02v0.52c-0.501,0.02-0.708,0.049-0.708,0.323
					c0,0.07,0.021,0.159,0.059,0.267l1.327,3.843l1.268-3.823c0.029-0.099,0.04-0.188,0.04-0.255c0-0.258-0.227-0.354-0.708-0.354
					v-0.52c0.472,0.01,0.904,0.02,1.317,0.02c0.403,0,0.786-0.01,1.139-0.02v0.52c-0.353,0.068-0.5,0.256-0.629,0.63l-1.769,4.971
					h-1.423l-1.829-4.933c-0.156-0.432-0.294-0.637-0.629-0.668v-0.52C128.792,31.586,129.156,31.596,129.578,31.596z"/>
				<path fill="#C4960C" d="M146.41,31.596v1.661h-0.561V32.99c0-0.571-0.324-0.688-1.05-0.688h-1.209v1.876h0.344
					c0.649,0,0.815-0.118,0.826-0.786h0.53v2.182h-0.53c-0.03-0.648-0.177-0.767-0.787-0.767h-0.383v2.083h1.101
					c0.982,0,1.199-0.128,1.218-1.179h0.551v1.886h-4.933v-0.521h0.119c0.531,0,0.629-0.255,0.629-0.775v-3.438
					c0-0.54-0.128-0.768-0.629-0.768h-0.119v-0.5H146.41z"/>
				<path fill="#C4960C" d="M155.629,32.303h0.501c0.825,0,1.197,0.275,1.197,1.021c0,0.717-0.394,0.974-1.248,0.974h-0.45V32.303z
					 M153.563,31.576v0.52h0.119c0.5,0,0.627,0.228,0.627,0.768v3.438c0,0.54-0.127,0.775-0.627,0.775h-0.119v0.521
					c0.473-0.019,0.945-0.019,1.416-0.019c0.462,0,0.935,0,1.406,0.019v-0.521h-0.129c-0.5,0-0.628-0.235-0.628-0.775v-1.366h0.471
					c0.54,0,0.845,0.158,0.981,0.551c0.188,0.521,0.218,1.276,0.58,2.111h1.809v-0.521c-0.02,0-0.03,0-0.05,0
					c-0.274,0-0.48-0.078-0.629-0.255c-0.176-0.207-0.245-0.647-0.402-1.258c-0.167-0.618-0.305-0.903-0.864-0.983
					c0.687-0.165,1.062-0.647,1.062-1.385c0-1.188-0.807-1.62-2.525-1.62H153.563z"/>
				<path fill="#C4960C" d="M170.72,33.374h-0.757c0.01-0.069,0.01-0.139,0.01-0.196c0-0.747-0.372-1.082-1.188-1.082
					c-0.708,0-1.15,0.363-1.15,0.885c0,0.424,0.236,0.658,0.756,0.864l1.248,0.501c0.854,0.346,1.277,0.864,1.277,1.593
					c0,1.139-0.854,1.798-2.445,1.798c-0.697,0-1.425-0.088-2.164-0.257v-1.698h0.719c0,0.05-0.009,0.099-0.009,0.139
					c0,0.775,0.472,1.168,1.385,1.168c0.737,0,1.139-0.325,1.139-0.913c0-0.425-0.205-0.641-0.687-0.847l-1.149-0.491
					c-0.953-0.414-1.426-0.854-1.426-1.641c0-1.081,0.845-1.76,2.39-1.76c0.627,0,1.316,0.1,2.052,0.277V33.374z"/>
				<path fill="#C4960C" d="M179.426,31.596c0.462,0,0.934-0.01,1.406-0.02v0.52h-0.128c-0.501,0-0.631,0.228-0.631,0.768v3.438
					c0,0.54,0.13,0.775,0.631,0.775h0.128v0.521c-0.473-0.019-0.944-0.019-1.406-0.019c-0.471,0-0.942,0-1.415,0.019v-0.521h0.119
					c0.5,0,0.629-0.235,0.629-0.775v-3.438c0-0.54-0.129-0.768-0.629-0.768h-0.119v-0.52
					C178.483,31.586,178.955,31.596,179.426,31.596z"/>
				<path fill="#C4960C" d="M189.596,31.596h1.661c0.205,0,0.835-0.02,1.886-0.02v1.816h-0.649c0-0.059,0-0.107,0-0.157
					c0-0.776-0.216-0.933-0.942-0.933h-0.433v3.999c0,0.54,0.127,0.775,0.629,0.775h0.206v0.521
					c-0.501-0.019-1.003-0.019-1.493-0.019c-0.5,0-1.001,0-1.503,0.019v-0.521h0.206c0.502,0,0.628-0.235,0.628-0.775v-3.999h-0.53
					c-0.658,0-0.884,0.177-0.884,0.835c0,0.079,0,0.156,0.011,0.255h-0.619v-1.816C188.789,31.576,189.4,31.596,189.596,31.596z"/>
				<path fill="#C4960C" d="M201.062,31.596c0.423,0,0.864-0.01,1.307-0.02v0.52c-0.021,0-0.028,0-0.05,0
					c-0.313,0-0.452,0.089-0.452,0.284c0,0.1,0.049,0.217,0.119,0.354l0.766,1.556l0.767-1.505c0.068-0.137,0.108-0.276,0.108-0.374
					c0-0.226-0.148-0.314-0.481-0.314v-0.52c0.423,0.01,0.826,0.02,1.228,0.02c0.395,0,0.787-0.01,1.17-0.02v0.52
					c-0.01,0-0.029,0-0.04,0c-0.314,0-0.501,0.228-0.765,0.658l-1.466,2.396v1.22c0,0.521,0.1,0.707,0.669,0.707h0.137v0.521
					c-0.461-0.019-0.933-0.019-1.415-0.019c-0.471,0-0.951,0-1.434,0.019v-0.521h0.138c0.56,0,0.668-0.187,0.668-0.707v-1.237
					l-1.375-2.389c-0.236-0.402-0.434-0.629-0.835-0.648v-0.52C200.227,31.586,200.641,31.596,201.062,31.596z"/>
			</g>
			<rect x="91.817" y="27.394" fill="#C4960C" width="114.09" height="1.082"/>
		</g>
	</g>
</g>
<g>
	<path fill="#C4950C" d="M209.507,36.169c0,0.762-0.611,1.364-1.39,1.364s-1.398-0.603-1.398-1.364s0.62-1.357,1.406-1.357
		C208.896,34.812,209.507,35.407,209.507,36.169z M207.066,36.169c0,0.604,0.455,1.083,1.059,1.083
		c0.587,0.009,1.033-0.479,1.033-1.076c0-0.604-0.446-1.092-1.05-1.092C207.521,35.084,207.066,35.572,207.066,36.169z
		 M207.901,36.871h-0.313v-1.355c0.124-0.019,0.297-0.042,0.521-0.042c0.257,0,0.372,0.042,0.464,0.107
		c0.083,0.059,0.14,0.156,0.14,0.29c0,0.164-0.124,0.272-0.281,0.321v0.018c0.133,0.042,0.199,0.149,0.241,0.33
		c0.04,0.207,0.074,0.282,0.1,0.331h-0.331c-0.042-0.049-0.067-0.165-0.108-0.331c-0.024-0.14-0.107-0.206-0.281-0.206h-0.149
		V36.871z M207.909,36.109h0.149c0.174,0,0.314-0.058,0.314-0.198c0-0.123-0.091-0.206-0.29-0.206c-0.082,0-0.14,0.007-0.174,0.017
		V36.109z"/>
</g>
</svg>
