<?xml version="1.0" encoding="utf-8"?>
<!-- Generator: Adobe Illustrator 15.0.0, SVG Export Plug-In . SVG Version: 6.00 Build 0)  -->
<!DOCTYPE svg PUBLIC "-//W3C//DTD SVG 1.1//EN" "http://www.w3.org/Graphics/SVG/1.1/DTD/svg11.dtd">
<svg version="1.1" id="Layer_1" xmlns="http://www.w3.org/2000/svg" xmlns:xlink="http://www.w3.org/1999/xlink" x="0px" y="0px"
	 width="60px" height="60px" viewBox="0.873 -6.371 60 60" enable-background="new 0.873 -6.371 60 60" xml:space="preserve">
<g>
	<path fill="#FFFFFF" d="M28.262-1.579c-2.477,0.672-4.787,1.639-6.928,2.903c-2.142,1.265-4.012,2.71-5.612,4.335
		c-1.601,1.625-2.864,3.394-3.793,5.302c-0.929,1.91-1.393,3.87-1.393,5.883c0,1.188,0.232,2.219,0.697,3.096
		c0.464,0.877,1.057,1.315,1.781,1.315c0.67,0,1.238-0.128,1.703-0.387c0.464-0.257,0.94-0.555,1.432-0.891
		c0.49-0.334,1.045-0.631,1.665-0.889c0.619-0.257,1.444-0.387,2.477-0.387c1.084,0,2.102,0.231,3.058,0.696
		c0.954,0.464,1.806,1.11,2.555,1.935c0.747,0.826,1.328,1.807,1.741,2.941c0.412,1.137,0.619,2.35,0.619,3.639
		c0,1.393-0.285,2.685-0.851,3.871c-0.568,1.188-1.354,2.232-2.361,3.135c-1.006,0.905-2.181,1.6-3.522,2.09
		c-1.342,0.49-2.787,0.736-4.335,0.736c-2.012,0-3.884-0.439-5.612-1.316c-1.73-0.877-3.239-2.09-4.528-3.639
		c-1.291-1.549-2.31-3.354-3.058-5.419c-0.749-2.062-1.122-4.257-1.122-6.579c0-3.663,0.683-7.044,2.051-10.14
		C6.29,7.556,8.136,4.86,10.458,2.563c2.323-2.296,5.018-4.127,8.089-5.496c3.069-1.367,6.308-2.18,9.714-2.439V-1.579z
		 M57.676-1.579c-2.477,0.672-4.787,1.639-6.928,2.903c-2.143,1.265-4.012,2.71-5.611,4.335c-1.602,1.625-2.865,3.394-3.793,5.302
		c-0.93,1.91-1.395,3.87-1.395,5.883c0,1.188,0.234,2.219,0.697,3.096c0.465,0.877,1.057,1.315,1.779,1.315
		c0.672,0,1.24-0.128,1.703-0.387c0.465-0.257,0.941-0.555,1.434-0.891c0.488-0.334,1.043-0.631,1.664-0.889
		c0.619-0.257,1.443-0.387,2.477-0.387c1.084,0,2.102,0.231,3.059,0.696c0.953,0.464,1.805,1.11,2.553,1.935
		c0.748,0.826,1.33,1.807,1.742,2.941c0.412,1.137,0.619,2.35,0.619,3.639c0,1.395-0.283,2.685-0.85,3.871
		c-0.568,1.188-1.355,2.232-2.361,3.135c-1.008,0.905-2.182,1.6-3.523,2.09c-1.342,0.492-2.785,0.736-4.334,0.736
		c-2.012,0-3.885-0.438-5.611-1.316c-1.73-0.877-3.24-2.09-4.53-3.637c-1.29-1.55-2.31-3.355-3.057-5.42
		c-0.749-2.063-1.123-4.258-1.123-6.58c0-3.663,0.684-7.044,2.051-10.14c1.367-3.097,3.213-5.792,5.536-8.089
		c2.322-2.296,5.018-4.127,8.088-5.496c3.07-1.367,6.311-2.18,9.715-2.439V-1.579z"/>
</g>
</svg>
