<?xml version="1.0" standalone="no"?>
<!DOCTYPE svg PUBLIC "-//W3C//DTD SVG 1.1//EN" "http://www.w3.org/Graphics/SVG/1.1/DTD/svg11.dtd" >
<svg xmlns="http://www.w3.org/2000/svg">
<metadata>Generated by IcoMoon</metadata>
<defs>
<font id="icomoon" horiz-adv-x="1024">
<font-face units-per-em="1024" ascent="960" descent="-64" />
<missing-glyph horiz-adv-x="1024" />
<glyph unicode="&#x20;" horiz-adv-x="512" d="" />
<glyph unicode="&#xe001;" glyph-name="uniE001" d="M192 832l640-384-640-384z" />
<glyph unicode="&#xe002;" glyph-name="uniE002" d="M128 832h320v-768h-320zM576 832h320v-768h-320z" />
<glyph unicode="&#xe003;" glyph-name="uniE003" d="M401.344 881.344c25.664 25.664 46.656 16.96 46.656-19.328v-828c0-36.256-20.992-44.96-46.656-19.328l-241.344 241.344h-160v384h160l241.344 241.312zM668.64 347.328c-9.152-9.152-26.848-6.464-39.296 5.984s-14.688 30.56-4.96 40.32c9.76 9.728 55.488 55.456 101.696 101.664s90.592 90.592 98.656 98.656c8.064 8.064 24.832 4.48 37.28-7.968s16.48-28.768 8.96-36.288-52.352-52.352-99.648-99.68-93.504-93.504-102.688-102.688zM862.016 353.312c-12.448-12.448-30.016-15.232-39.136-6.112-9.056 9.056-54.56 54.592-101.152 101.184s-91.488 91.52-99.84 99.872c-8.352 8.32-4.96 25.344 7.456 37.76s29.6 15.648 38.112 7.104 53.76-53.728 100.48-100.48c46.72-46.72 92.096-92.096 100.8-100.8 8.768-8.736 5.696-26.080-6.72-38.528z" />
<glyph unicode="&#xe004;" glyph-name="uniE004" d="M549.020 218.98c-12.286 0-24.568 4.686-33.942 14.058-18.746 18.746-18.746 49.136 0 67.882 81.1 81.1 81.1 213.058 0 294.156-18.746 18.746-18.746 49.138 0 67.882s49.136 18.744 67.882 0c118.53-118.53 118.53-311.392 0-429.922-9.372-9.37-21.656-14.056-33.94-14.056zM401.332 881.332c25.668 25.668 46.668 16.968 46.668-19.332v-828c0-36.3-21-44.998-46.668-19.33l-241.332 241.33h-160v384h160l241.332 241.332z" />
<glyph unicode="&#xe005;" glyph-name="uniE005" d="M719.53 128.47c-12.286 0-24.568 4.686-33.942 14.058-18.744 18.744-18.744 49.136 0 67.882 131.006 131.006 131.006 344.17 0 475.176-18.744 18.746-18.744 49.138 0 67.882 18.744 18.742 49.138 18.744 67.882 0 81.594-81.592 126.53-190.076 126.53-305.468s-44.936-223.876-126.53-305.47c-9.372-9.374-21.656-14.060-33.94-14.060zM549.020 218.98c-12.286 0-24.568 4.686-33.942 14.058-18.746 18.746-18.746 49.136 0 67.882 81.1 81.1 81.1 213.058 0 294.156-18.746 18.746-18.746 49.138 0 67.882s49.136 18.744 67.882 0c118.53-118.53 118.53-311.392 0-429.922-9.372-9.37-21.656-14.056-33.94-14.056zM401.332 881.332c25.668 25.668 46.668 16.968 46.668-19.332v-828c0-36.3-21-44.998-46.668-19.33l-241.332 241.33h-160v384h160l241.332 241.332z" />
<glyph unicode="&#xe006;" glyph-name="uniE006" horiz-adv-x="1088" d="M890.040 37.96c-12.286 0-24.568 4.686-33.942 14.058-18.744 18.746-18.744 49.136 0 67.882 87.638 87.642 135.904 204.16 135.904 328.1 0 123.938-48.266 240.458-135.904 328.098-18.744 18.746-18.744 49.138 0 67.882s49.138 18.744 67.882 0c105.77-105.772 164.022-246.4 164.022-395.98s-58.252-290.208-164.022-395.98c-9.372-9.374-21.656-14.060-33.94-14.060zM719.53 128.47c-12.286 0-24.568 4.686-33.942 14.058-18.744 18.744-18.744 49.136 0 67.882 131.006 131.006 131.006 344.17 0 475.176-18.744 18.746-18.744 49.138 0 67.882 18.744 18.742 49.138 18.744 67.882 0 81.594-81.592 126.53-190.076 126.53-305.468s-44.936-223.876-126.53-305.47c-9.372-9.374-21.656-14.060-33.94-14.060zM549.020 218.98c-12.286 0-24.568 4.686-33.942 14.058-18.746 18.746-18.746 49.136 0 67.882 81.1 81.1 81.1 213.058 0 294.156-18.746 18.746-18.746 49.138 0 67.882s49.136 18.744 67.882 0c118.53-118.53 118.53-311.392 0-429.922-9.372-9.37-21.656-14.056-33.94-14.056zM401.332 881.332c25.668 25.668 46.668 16.968 46.668-19.332v-828c0-36.3-21-44.998-46.668-19.33l-241.332 241.33h-160v384h160l241.332 241.332z" />
<glyph unicode="&#xe007;" glyph-name="uniE007" d="M512 960l-320-512 320-512 320 512z" />
<glyph unicode="&#xe008;" glyph-name="uniE008" horiz-adv-x="1374" d="M453.408 276.576c-73.12 0-86.496 72.32-86.496 149.248 0 105.888 30.464 159.968 81.024 159.968 45.088 0 73.728-32.736 77.984-89.856h136.448c-11.584 140.896-86.496 223.904-220.544 223.904-122.464 0-218.72-110.432-218.72-287.872 0-178.176 87.744-289.408 232.736-289.408 115.776 0 196.8 85.312 209.6 226.944h-138.304c-5.472-52.576-27.424-92.928-73.728-92.928zM931.072 276.576c-73.12 0-86.496 72.32-86.496 149.248 0 105.888 30.432 159.968 80.992 159.968 45.088 0 73.76-32.736 78.016-89.856h136.48c-11.584 140.896-86.496 223.904-220.544 223.904-122.464 0-218.72-110.432-218.72-287.872 0-178.176 87.744-289.408 232.736-289.408 115.744 0 196.8 85.312 209.568 226.944h-138.304c-5.472-52.576-27.424-92.928-73.728-92.928zM159.68-66.56h1054.304c88 0 160 72 160 160v710.4c0 86.624-69.888 157.408-156 159.584h-1062.304c-85.056-2.144-154.016-71.296-155.68-156.512v-716.544c1.696-86.56 72.736-156.928 159.68-156.928zM180.48 766.752c8.512 11.936 23.040 18.816 35.84 27.328 40.96 30.752 247.456 41.824 476.16 41.824s425.824-11.104 467.648-41.824c11.968-8.512 26.464-15.36 34.112-27.328 42.688-55.456 49.536-133.984 51.232-314.016-1.696-180.064-8.544-258.592-51.232-314.016-7.648-12.8-22.176-18.752-34.112-27.328-41.824-31.584-238.944-41.824-467.648-43.488-228.704 1.696-435.2 11.904-476.16 43.488-12.8 8.512-27.328 14.496-35.84 27.328-41.824 55.456-47.776 133.984-50.336 314.016 2.56 180.032 8.512 258.592 50.336 314.016z" />
<glyph unicode="&#xe009;" glyph-name="uniE009" d="M574.582 703.268l371.718-223.032-371.718-223.030v446.062zM140.282 703.268l371.718-223.032-371.718-223.030v446.062z" />
<glyph unicode="&#xe600;" glyph-name="uniE600" d="M545.366 181.52h190.942c270.798 0 274.038 4.148 274.038 352.886 0 373.47 29.048 352.888-498.192 352.888-388.164 0-417.86-2.698-456.67-41.524v0c-37.376-37.358-41.524-68.506-41.524-311.364 0-327.97 13.908-352.888 197.206-352.888h114.158v-192.172z" />
<glyph unicode="&#xe601;" glyph-name="uniE601" d="M426.854 603.254l-325.904-327.51-37.7-139.742c-20.786-77.022-36.436-146.516-34.85-154.83 4.814-25.378 37.632-21.726 182.134 20.24l138.154 40.124 323.516 323.516c212.77 212.788 323.534 328.976 323.534 339.422 0 21.366-205.636 226.288-227.072 226.288-10.428 0-127.676-112.35-341.81-327.51v0zM878.626 658.826l-45.67-45.654-154.812 154.828 91.324 91.308 154.794-154.828-45.636-45.654zM564.992 345.206l-224.274-224.308-154.83 154.83 448.596 448.58 154.812-154.828-224.308-224.274zM281.174 87.98c0-2.798-21.436-10.428-46.848-16.692l-46.848-11.52-63.522 65.11 11.914 35.722c6.622 19.85 13.5 40.858 15.478 47.258 2.424 7.818 23.824-8.738 66.698-51.61 34.936-34.934 63.13-65.418 63.13-68.268v0zM534.836 552.432c-21.436-20.14-41.3-44.852-43.708-54.392-8.242-32.734 24.252-74.598 58.402-75.196 24.592-0.41 104.806 77.756 104.806 102.178 0 23.024-40.772 64.308-63.522 64.308-9.096 0.018-34.544-16.76-55.98-36.898v0z" />
<glyph unicode="&#xe602;" glyph-name="uniE602" d="M118.596 915.012c-15.974-17.152-16.282-25.804-16.282-468.052v-450.56l17.46-16.264c17.034-15.89 26.196-16.282 371.574-16.282 345.362 0 354.526 0.394 371.558 16.282l17.458 16.264v760.61l-250.062 174.66-247.724 0.41c-244.532 0.392-247.91 0.17-263.988-17.068v0zM515.192 784.794c0-106.614 9.524-113.544 156.4-113.988l113.544-0.342v-611.346h-603.426v786.022h333.484v-60.348zM269.056 722.074v-43.674h166.724v87.346h-166.724v-43.674zM269.056 547.414v-43.674h444.604v87.33h-444.604v-43.656zM269.056 372.72v-43.658h444.604v87.33h-444.604v-43.674zM269.056 190.124v-43.658h444.604v87.33h-444.604v-43.674z" />
<glyph unicode="&#xe603;" glyph-name="uniE603" d="M213.333 597.333c0 35.328 28.672 64 64 64s64-28.672 64-64c0-35.371-28.672-64-64-64s-64 28.629-64 64zM597.333 576l-107.477-170.667-105.856 83.627-170.667-254.293h597.333l-213.333 341.333zM938.667 746.667v-597.333h-853.333v597.333h853.333zM1024 832h-1024v-768h1024v768z" />
<glyph unicode="&#xe604;" glyph-name="uniE604" d="M615.73 904.158c-42.786-15.378-111.598-65.774-165.462-121.19l-40.192-41.318 48.368-6.572c26.3-3.568 67.43-13.004 90.162-20.668 41.318-13.926 42.154-13.774 73.712 13.978 59.17 52.020 143.53 46.966 186.59-11.162 53.932-72.824 39.73-122.078-65.434-227.244-107.998-107.998-134.16-126.77-176.554-126.77-37.564 0-78.986 17.356-98.544 41.302-6.964 8.534-27.308 15.036-47.020 15.036-47.89 0-76.066-27.476-76.066-74.206 0-31.266 5.632-41.456 38.502-69.632 54.886-47.020 117.384-65.946 200.038-60.57 93.474 6.11 131.466 28.792 254.48 151.824 126.788 126.772 148.514 165.87 149.264 268.56 0.666 88.27-30.48 159.164-94.804 215.758-69 60.722-190.618 83.934-277.044 52.874zM328.294 640.342c-37.018-17.272-81.716-54.154-157.764-130.202-125.85-125.85-146.67-163.722-147.678-268.578-1.092-114.586 51.268-199.952 157.064-256.102 31.556-16.76 55.414-20.942 119.278-20.942 100.472 0 142.182 19.028 235.708 107.726l66.662 63.182-54.922 7.048c-30.054 3.856-71.118 13.654-90.642 21.59-34.748 14.182-36.352 13.942-61.046-9.164-33.808-31.642-60.604-44.818-91.084-44.818-40.38 0-87.962 25.702-107.724 58.214-22.29 36.626-24.628 107.23-4.54 136.174 26.094 37.582 187.306 192.562 208.998 200.908 40.396 15.582 82.638 8.908 124.876-19.678 81.39-55.074 147.61-26.266 140.424 61.066-2.254 27.324-69.972 85.23-119.758 102.366-67.6 23.262-156.912 19.66-217.856-8.788z" />
<glyph unicode="&#xe605;" glyph-name="uniE605" d="M400.486 920.302c-226.902-52.156-389.922-271.036-374.562-502.886 5.086-76.988 33.98-168.926 71.356-227.056 56.934-88.542 161.878-172.1 257.946-205.432 44.68-15.496 69.086-18.466 152.456-18.466s107.726 2.934 152.438 18.33c139.742 48.094 267.436 177.408 310.408 314.334 25.684 81.802 25.088 216.048-1.314 296.96-45.602 139.742-164.302 260.574-303.548 309.010-72.174 25.138-192.138 32.016-265.182 15.206v0zM629.948 736.802c56.098-32.956 84.156-80.384 84.156-142.302 0-61.048-14.284-85.794-92.092-159.522-49.22-46.626-58.744-59.836-58.744-81.46v-25.804h-121.48l5.564 40.5c8.568 62.276 18.226 77.244 98.44 152.422 36.726 34.406 45.568 60.366 33.23 97.674-10.736 32.462-27.664 42.89-69.77 42.89-42.378 0-70.962-23.826-81.904-68.284l-8.602-34.936h-124.638l4.454 29.372c9.132 60.348 39.118 109.174 88.44 144.010 38.964 27.494 61.936 32.596 136.568 30.346 57.942-1.758 72.96-5.292 106.376-24.9v0zM563.25 208.624v-63.504h-127.026v127.044h127.044v-63.538h-0.018z" />
<glyph unicode="&#xe606;" glyph-name="uniE606" d="M119.364 698.674c-38.912-7.184-59.768-19.422-77.636-45.55-18.126-26.522-18.398-30.174-16.042-205.636 3.31-247.944-11.914-235.81 296.142-235.81s292.812-12.134 296.142 235.81c2.356 174.66 1.98 179.216-15.548 204.834-31.062 45.38-39.22 46.898-260.726 48.538-111.188 0.818-211.438-0.172-222.326-2.186v0zM810.102 610.252l-146.876-93.696-4.778-119.092 152.456-96.444c119.108-75.366 155.376-94.924 165.938-89.326 12.1 6.418 14.114 30.958 19.542 238.2 6.298 240.556 4.898 254.054-26.674 254.054-7.030-0.018-78.626-42.052-159.606-93.696v0z" />
<glyph unicode="&#xe607;" glyph-name="uniE607" d="M621.254 82.746l320 320c24.994 24.992 24.994 65.516 0 90.51l-320 320c-24.994 24.992-65.516 24.992-90.51 0-24.994-24.994-24.994-65.516 0-90.51l210.746-210.746h-493.49c-35.346 0-64-28.654-64-64s28.654-64 64-64h493.49l-210.746-210.746c-12.496-12.496-18.744-28.876-18.744-45.254s6.248-32.758 18.744-45.254c24.994-24.994 65.516-24.994 90.51 0z" />
<glyph unicode="&#xe608;" glyph-name="uniE608" d="M402.746 813.254l-320-320c-24.994-24.992-24.994-65.516 0-90.508l320-320c24.994-24.992 65.516-24.992 90.51 0s24.996 65.516 0 90.508l-210.748 210.746h513.492c35.346 0 64 28.652 64 64s-28.654 64-64 64h-513.492l210.746 210.746c12.496 12.496 18.746 28.876 18.746 45.254s-6.248 32.758-18.744 45.254c-24.996 24.994-65.516 24.994-90.51 0z" />
<glyph unicode="&#xe609;" glyph-name="uniE609" d="M73.016 115.466l213.626 181.692c22.084 19.876 45.702 29 64.78 28.12-50.428 59.070-80.89 135.702-80.89 219.46 0 186.786 151.418 338.202 338.202 338.202s338.202-151.418 338.202-338.202c0-186.786-151.418-338.202-338.202-338.202-83.756 0-160.39 30.462-219.46 80.89 0.882-19.078-8.244-42.696-28.118-64.78l-181.692-213.626c-31.11-34.566-81.928-37.48-112.928-6.478s-28.088 81.82 6.476 112.928zM608.734 319.266c124.524 0 225.468 100.948 225.468 225.468s-100.948 225.47-225.47 225.47-225.468-100.948-225.468-225.47 100.944-225.468 225.468-225.468z" />
<glyph unicode="&#xe60a;" glyph-name="uniE60A" d="M31.744 88.64l242.56 206.272c25.056 22.56 51.872 32.928 73.568 31.936-57.248 67.104-91.84 154.080-91.84 249.184 0 212.064 171.936 384 384 384s384-171.936 384-384-171.936-384-384-384c-95.104 0-182.080 34.592-249.184 91.84 0.992-21.696-9.376-48.512-31.936-73.568l-206.272-242.56c-35.328-39.264-93.056-42.56-128.256-7.36s-31.872 92.896 7.36 128.256zM640 320c141.376 0 256 114.624 256 256s-114.624 256-256 256-256-114.624-256-256 114.624-256 256-256zM718.656 453.504c9.12-9.12 26.816-6.432 39.296 6.016s14.688 30.56 4.96 40.32c-9.76 9.76-55.488 55.456-101.696 101.664s-90.624 90.592-98.688 98.656-24.8 4.48-37.248-7.968c-12.48-12.448-16.512-28.768-8.96-36.288 7.52-7.52 52.352-52.352 99.648-99.68s93.504-93.536 102.688-102.72zM525.28 459.52c12.448-12.448 30.016-15.264 39.136-6.112 9.056 9.056 54.56 54.624 101.12 101.216 46.624 46.592 91.488 91.52 99.872 99.872 8.352 8.32 4.928 25.344-7.456 37.76s-29.6 15.648-38.080 7.104c-8.544-8.544-53.792-53.728-100.512-100.48-46.72-46.72-92.096-92.064-100.8-100.8-8.768-8.736-5.728-26.112 6.72-38.56z" />
<glyph unicode="&#xe60b;" glyph-name="uniE60B" d="M384 896h640v-128h-640v128zM384 512h640v-128h-640v128zM384 128h640v-128h-640v128zM0 894.166h250.564v-127.738h-250.564v127.738zM0 511.87h250.564v-127.738h-250.564v127.738zM0 127.738h250.564v-127.738h-250.564v127.738z" />
<glyph unicode="&#xe60c;" glyph-name="uniE60C" d="M799.486 226.848l-124.47 124.474-76.754-76.758 124.47-124.47-124.47-124.47h325.696v325.698l-124.47-124.474zM425.74 849.534h-325.698v-325.698l124.472 124.472 123.302-123.194 76.758 76.754-123.306 123.196 124.47 124.472zM425.74 274.562l-76.754 76.758-124.472-124.474-124.472 124.474v-325.698h325.698l-124.47 124.47 124.47 124.47zM923.956 849.534h-325.696l124.47-124.472-123.306-123.194 76.758-76.754 123.302 123.194 124.47-124.472v325.698zM-13321.92 14042.464l128.832-128.832 79.456 79.456-128.832 128.832 128.832 128.832h-337.12v-337.12l128.832 128.832zM-13958.368 14421.248h337.12v337.12l-128.832-128.832-127.52 127.648-79.456-79.456 127.52-127.648-128.832-128.832zM-13958.368 13993.088l79.456-79.456 128.832 128.832 128.832-128.832v337.12h-337.12l128.832-128.832-128.832-128.832zM-13450.752 14421.248h337.12l-128.832 128.832 127.744 127.648-79.456 79.456-127.744-127.648-128.832 128.832v-337.12z" />
<glyph unicode="&#xe60d;" glyph-name="uniE60D" d="M726.086 154.464l128.842-128.842 79.45 79.45-128.838 128.842 128.838 128.842h-337.132v-337.134l128.842 128.842zM89.62 533.246h337.134v337.134l-128.842-128.842-127.522 127.634-79.45-79.452 127.52-127.634-128.842-128.842zM89.62 105.072l79.452-79.45 128.842 128.842 128.842-128.842v337.132h-337.134l128.842-128.842-128.842-128.842zM597.246 533.246h337.132l-128.838 128.842 127.744 127.634-79.452 79.45-127.744-127.632-128.842 128.84v-337.134z" />
<glyph unicode="&#xe60e;" glyph-name="uniE60E" d="M896 192h-512q-53 0-90.5 37.5t-37.5 90.5v512q0 53 37.5 90.5t90.5 37.5h512q53 0 90.5-37.5t37.5-90.5v-512q0-53-37.5-90.5t-90.5-37.5zM896 768q0 27-18.5 45.5t-45.5 18.5h-384q-27 0-45.5-18.5t-18.5-45 18.5-45.5 45.5-19h232l-279-279q-18-18-18-43.5t18-43.5 43.5-18 43.5 18l280 280v-234q0-27 19-45.5t45.5-18.5 45 18.5 18.5 45.5v384zM832-0.5q0-26.5-18.5-45t-45.5-18.5h-640q-53 0-90.5 37.5t-37.5 90.5v640q0 27 18.5 45.5t45 18.5 45.5-18.5 19-45.5v-576q0-27 18.5-45.5t45.5-18.5h576q26 0 45-19t19-45.5z" />
<glyph unicode="&#xe60f;" glyph-name="uniE60F" d="M1024-9.984c0-26.336-21.6-48-48-48h-928c-26.4 0-48 21.664-48 48v64c0 26.432 21.6 48 48 48h928c26.4 0 48-21.568 48-48v-64zM832 960h-640c-105.6 0-192-86.4-192-192v-384c0-105.6 86.4-192 192-192h640c105.6 0 192 86.4 192 192v384c0 105.6-86.4 192-192 192zM384 320v512l320-256-320-256z" />
<glyph unicode="&#xe610;" glyph-name="uniE610" d="M832 864h-640c-105.6 0-192-86.4-192-192v-384c0-105.6 86.4-192 192-192h640c105.6 0 192 86.4 192 192v384c0 105.6-86.4 192-192 192zM384 224v512l320-256-320-256z" />
<glyph unicode="&#xe611;" glyph-name="uniE611" d="M448 701.984c0-26.4-21.6-48-48-48h-352c-26.4 0-48 21.6-48 48v64c0 26.4 21.6 48 48 48h352c26.4 0 48-21.6 48-48v-64zM448 416c0-26.4-21.6-48-48-48h-352c-26.4 0-48 21.6-48 48v64c0 26.4 21.6 48 48 48h352c26.4 0 48-21.6 48-48v-64zM448 129.984c0-26.368-21.6-48-48-48h-352c-26.4 0-48 21.632-48 48v64c0 26.432 21.6 48 48 48h352c26.4 0 48-21.568 48-48v-64zM1024 701.984c0-26.4-21.568-48-48-48h-352c-26.368 0-48 21.6-48 48v64c0 26.4 21.632 48 48 48h352c26.432 0 48-21.6 48-48v-64zM1024 416c0-26.4-21.568-48-48-48h-352c-26.368 0-48 21.6-48 48v64c0 26.4 21.632 48 48 48h352c26.432 0 48-21.6 48-48v-64zM1024 129.984c0-26.368-21.568-48-48-48h-352c-26.368 0-48 21.632-48 48v64c0 26.432 21.632 48 48 48h352c26.432 0 48-21.568 48-48v-64z" />
<glyph unicode="&#xe612;" glyph-name="uniE612" d="M234.228 249.284l-166.144 166.144c-18.746 18.746-18.746 49.13 0 67.876l166.144 163.414c18.746 18.746 49.132 18.746 67.876 0s18.746-49.132 0-67.878l-84.202-81.472h191.362c26.522 0 48.002-21.478 48.002-48s-21.482-48.002-48.002-48.002h-191.362l84.202-84.202c9.36-9.364 14.064-21.65 14.064-33.938s-4.68-24.578-14.064-33.938c-18.746-18.746-49.132-18.746-67.876 0zM789.808 249.284l166.144 166.144c18.746 18.746 18.746 49.13 0 67.876l-166.144 163.414c-18.746 18.746-49.13 18.746-67.876 0s-18.746-49.132 0-67.878l84.202-81.472h-191.364c-26.522 0-48.004-21.478-48.004-48s21.482-48.002 48.004-48.002h191.364l-84.202-84.202c-9.36-9.364-14.064-21.65-14.064-33.938s4.678-24.578 14.064-33.938c18.746-18.746 49.13-18.746 67.876 0z" />
<glyph unicode="&#xe613;" glyph-name="uniE613" d="M277.064 249.284l166.142 166.144c18.746 18.746 18.746 49.13 0 67.876l-166.144 163.414c-18.746 18.746-49.132 18.746-67.876 0s-18.746-49.132 0-67.878l84.202-81.472h-191.362c-26.522 0-48.004-21.478-48.004-48s21.482-48.002 48.004-48.002h191.362l-84.202-84.202c-9.36-9.364-14.064-21.65-14.064-33.938s4.68-24.578 14.064-33.938c18.746-18.746 49.13-18.746 67.876 0zM-784.404 1370.128l166.14 166.144c18.746 18.746 18.746 49.13 0 67.876l-166.14 163.414c-18.746 18.742-49.134 18.742-67.878 0-18.746-18.746-18.746-49.134 0-67.878l84.202-81.472h-191.36c-26.522 0-48.004-21.482-48.004-48.002 0-26.522 21.482-48 48.004-48h191.36l-84.202-84.204c-9.36-9.36-14.064-21.648-14.064-33.936s4.682-24.58 14.064-33.94c18.746-18.746 49.134-18.746 67.878 0zM749.966 647.184l-168.624-163.624c-19.024-18.464-19.482-48.846-1.020-67.87l163.668-165.894c18.462-19.024 48.846-19.482 67.87-1.020s19.482 48.846 1.020 67.87l-82.966 82.73 191.342-2.88c26.518-0.398 48.32 20.758 48.72 47.278s-20.758 48.32-47.278 48.72l-191.342 2.878 85.46 82.926c9.5 9.218 14.39 21.438 14.572 33.726 0.186 12.288-4.31 24.644-13.552 34.144-18.462 19.024-48.846 19.482-67.87 1.020z" />
<glyph unicode="&#xe903;" glyph-name="uniE903" horiz-adv-x="1046" d="M947.2 960h-870.4c-42.667 0-76.8-34.133-76.8-76.8v-870.4c0-42.667 34.133-76.8 76.8-76.8h870.4c42.667 0 76.8 34.133 76.8 76.8v870.4c0 42.667-34.133 76.8-76.8 76.8zM362.667 729.6c34.133-42.667 38.4-55.467 93.867-55.467h366.933l-29.867-140.8h-119.467l-110.933 85.333-42.667-55.467 38.4-29.867h-55.467l-106.667 85.333-64-85.333h-102.4l-29.867 196.267h162.133zM793.6 166.4h-563.2l-59.733 311.467h682.667l-59.733-311.467z" />
<glyph unicode="&#xe904;" glyph-name="uniE904" d="M1018.88 872.96c0 48.128-38.912 87.040-87.040 87.040h-849.92c-48.128 0-87.040-38.912-87.040-87.040v-849.92c0-48.128 38.912-87.040 87.040-87.040h849.92c48.128 0 87.040 38.912 87.040 87.040v849.92zM254.976 150.016l-137.216-16.384 53.248 126.976 54.272 125.952 165.888-221.184-136.192-15.36zM417.792 185.856l-165.888 220.16 351.232 264.192 165.888-221.184-351.232-263.168zM794.624 469.504l-165.888 220.16 44.032 32.768 166.912-220.16-45.056-32.768zM861.184 518.656l-165.888 221.184 44.032 32.768 165.888-221.184-44.032-32.768z" />
<glyph unicode="&#xe905;" glyph-name="uniE905" d="M1024 874.667c0 46.933-38.4 85.333-85.333 85.333h-853.333c-46.933 0-85.333-38.4-85.333-85.333v-853.333c0-46.933 38.4-85.333 85.333-85.333h853.333c46.933 0 85.333 38.4 85.333 85.333 0 0 0 853.333 0 853.333zM759.467 836.267l21.333 8.533 42.667-102.4-102.4-38.4c-4.267-4.267 38.4 132.267 38.4 132.267zM640 793.6l51.2 21.333-42.667-136.533-51.2-21.333c4.267 0 42.667 136.533 42.667 136.533zM520.533 742.4l55.467 21.333-42.667-136.533-55.467-21.333c0 0 42.667 136.533 42.667 136.533zM405.333 699.733l51.2 21.333-42.667-136.533-51.2-21.333c0 0 42.667 136.533 42.667 136.533zM294.4 657.067l51.2 21.333-42.667-136.533-51.2-21.333 42.667 136.533zM861.867 98.133h-699.733v392.533l-34.133 102.4 106.667 42.667-38.4-136.533-12.8-8.533h674.133v-392.533z" />
<glyph unicode="&#xe906;" glyph-name="uniE906" d="M512-64c-281.6 0-512 230.4-512 512s230.4 512 512 512 512-230.4 512-512-230.4-512-512-512zM512 891.733c-243.2 0-443.733-200.533-443.733-443.733s200.533-443.733 443.733-443.733c243.2 0 443.733 200.533 443.733 443.733s-200.533 443.733-443.733 443.733zM520.533 422.4c29.867 0 72.533 8.533 106.667 29.867 25.6 38.4 42.667 68.267 55.467 102.4-21.333 0-46.933 0-68.267 8.533 29.867 4.267 64 12.8 89.6 29.867 34.133 46.933 55.467 119.467 64 166.4-72.533 0-140.8-21.333-187.733-51.2-17.067-17.067-29.867-59.733-34.133-85.333-8.533 17.067-12.8 42.667-4.267 64-38.4-21.333-68.267-42.667-106.667-72.533-17.067-38.4-21.333-85.333-21.333-110.933-8.533 12.8-25.6 42.667-21.333 72.533-64-64-110.933-149.333-68.267-238.933 46.933 51.2 102.4 98.133 136.533 119.467-76.8-93.867-149.333-209.067-204.8-315.733l64 21.333c29.867 51.2 51.2 93.867 76.8 128 85.333-8.533 157.867 55.467 204.8 123.733-21.333-8.533-59.733-4.267-81.067 8.533v0z" />
<glyph unicode="&#xe907;" glyph-name="uniE907" d="M512-64c-281.6 0-512 230.4-512 512s230.4 512 512 512 512-230.4 512-512-230.4-512-512-512zM512 891.733c-243.2 0-443.733-200.533-443.733-443.733s200.533-443.733 443.733-443.733c243.2 0 443.733 200.533 443.733 443.733s-200.533 443.733-443.733 443.733zM584.533 618.667l128-170.667-273.067-204.8-128 170.667c0 0 273.067 204.8 273.067 204.8zM635.733 657.067l128-170.667-34.133-25.6-128 170.667c0 0 34.133 25.6 34.133 25.6zM686.933 695.467l128-170.667-34.133-25.6-128 170.667c0 0 34.133 25.6 34.133 25.6zM354.133 294.4l64-85.333-213.333-25.6 85.333 196.267 64-85.333z" />
<glyph unicode="&#xe908;" glyph-name="uniE908" d="M512-64c-281.6 0-512 230.4-512 512s230.4 512 512 512 512-230.4 512-512-230.4-512-512-512zM512 891.733c-243.2 0-443.733-200.533-443.733-443.733s200.533-443.733 443.733-443.733c243.2 0 443.733 200.533 443.733 443.733s-200.533 443.733-443.733 443.733zM456.533 448l-98.133 89.6c-46.933-59.733-72.533-128-34.133-204.8 42.667 46.933 93.867 93.867 132.267 115.2v0zM443.733 622.933l187.733-166.4c25.6 38.4 38.4 68.267 55.467 102.4-21.333 0-46.933 0-68.267 8.533 29.867 4.267 64 12.8 89.6 29.867 34.133 46.933 55.467 119.467 64 166.4-72.533 0-140.8-21.333-187.733-51.2-17.067-17.067-29.867-59.733-34.133-85.333-8.533 17.067-12.8 42.667-4.267 64-38.4-25.6-68.267-42.667-102.4-68.267v0zM456.533 448c-76.8-89.6-149.333-204.8-200.533-307.2l64 21.333c29.867 51.2 51.2 93.867 76.8 128 59.733-8.533 115.2 25.6 162.133 72.533l-102.4 85.333zM145.067 759.467l51.2 55.467 704-644.267-51.2-55.467c0 4.267-704 644.267-704 644.267z" />
<glyph unicode="&#xe909;" glyph-name="uniE909" d="M823.467 524.8v0 0 0zM486.4 89.6c-25.6-17.067-59.733-29.867-89.6-29.867 0 0 0-4.267 0-8.533 17.067 0 29.867 4.267 42.667 12.8 4.267-4.267 12.8-12.8 17.067-21.333 12.8 0 21.333 4.267 34.133 8.533 8.533 8.533 17.067 21.333 25.6 38.4-12.8 0-21.333 0-29.867 0zM674.133 221.867c-72.533-68.267-162.133-106.667-256-119.467-8.533-8.533-17.067-25.6-21.333-38.4 29.867 4.267 59.733 17.067 85.333 34.133 85.333-8.533 162.133 42.667 192 123.733zM460.8 29.867c8.533 4.267 12.8 8.533 21.333 12.8-8.533 0-17.067-4.267-25.6-4.267 0 0 4.267-4.267 4.267-8.533zM669.867 247.467c-55.467-59.733-140.8-85.333-221.867-68.267-17.067-12.8-29.867-25.6-51.2-34.133 8.533-12.8 25.6-25.6 42.667-29.867 85.333 17.067 166.4 64 230.4 132.267zM294.4 174.933c-4.267 0-8.533-4.267-12.8-4.267 17.067-12.8 38.4-25.6 59.733-34.133 8.533 0 21.333 4.267 29.867 8.533-4.267 8.533-8.533 17.067-8.533 25.6-21.333-4.267-46.933 0-68.267 4.267zM793.6 209.067c4.267 0 4.267-4.267 8.533-4.267 0 8.533-4.267 12.8-4.267 21.333-25.6 8.533-55.467 42.667-59.733 42.667 8.533-25.6 29.867-46.933 55.467-59.733zM230.4 238.933c-8.533 0-21.333 0-29.867 0 21.333-21.333 42.667-38.4 64-55.467 4.267 0 8.533 0 12.8 0-21.333 12.8-34.133 34.133-46.933 55.467zM797.867 238.933c0 8.533 0 12.8 4.267 21.333-17.067 4.267-21.333 8.533-42.667 8.533 8.533-12.8 25.6-21.333 38.4-29.867zM640 136.533c-8.533-21.333-21.333-38.4-29.867-55.467 46.933 34.133 81.067 81.067 89.6 140.8-12.8-34.133-34.133-64-59.733-85.333zM772.267 635.733c0 4.267 8.533 8.533 12.8 8.533-4.267 0-4.267-4.267-4.267-8.533 0-12.8 12.8-8.533 12.8 4.267 0 4.267-4.267 12.8-12.8 12.8-38.4 0-21.333-34.133-17.067-59.733 4.267 8.533 12.8 17.067 21.333 25.6-8.533 0-12.8 8.533-12.8 17.067zM738.133 162.133c12.8-8.533 29.867-17.067 46.933-17.067-8.533 8.533-12.8 21.333-12.8 34.133-21.333 17.067-38.4 34.133-55.467 55.467 12.8-21.333 21.333-46.933 21.333-72.533zM601.6 797.867c-8.533 4.267-17.067 8.533-25.6 12.8-25.6 0-51.2-4.267-72.533-12.8 25.6-8.533 51.2-17.067 72.533-29.867 85.333-51.2 145.067-132.267 162.133-226.133 17.067 72.533-76.8 217.6-136.533 256zM938.667 955.733h-853.333c-46.933 0-85.333-38.4-85.333-85.333v-849.067c0-46.933 38.4-85.333 85.333-85.333h853.333c46.933 0 85.333 38.4 85.333 85.333v849.067c0 46.933-38.4 85.333-85.333 85.333zM921.6 477.867c-8.533 21.333-29.867 29.867-51.2 29.867 21.333-8.533 34.133-29.867 29.867-51.2 0-21.333-21.333-38.4-42.667-42.667s-38.4 8.533-46.933 25.6c8.533-12.8 21.333-21.333 34.133-21.333 17.067 0 29.867 8.533 38.4 21.333s4.267 29.867-4.267 46.933c-8.533 17.067-25.6 25.6-46.933 29.867-21.333 0-38.4-8.533-51.2-21.333 12.8 4.267 25.6 4.267 34.133-4.267s17.067-21.333 12.8-34.133c-4.267 17.067-12.8 25.6-29.867 29.867-64 17.067-76.8-102.4-68.267-136.533 0-4.267 4.267-8.533 4.267-12.8 12.8-34.133 42.667-59.733 76.8-72.533 8.533 0 17.067 0 25.6 0 29.867 4.267 59.733 21.333 81.067 46.933-17.067-29.867-51.2-51.2-81.067-55.467-8.533 0-21.333 0-29.867 0 0-8.533-4.267-17.067-4.267-21.333 4.267 0 4.267 0 8.533 0 29.867-8.533 59.733 0 85.333 17.067-25.6-25.6-55.467-34.133-89.6-25.6 0 0-4.267 0-4.267 0 0-8.533 0-12.8 4.267-21.333 25.6-4.267 51.2-4.267 76.8 8.533-21.333-17.067-46.933-21.333-72.533-21.333 4.267-8.533 8.533-17.067 12.8-25.6-8.533 8.533-12.8 17.067-21.333 25.6-4.267 0-4.267 0-8.533 0-29.867 8.533-55.467 25.6-68.267 51.2 21.333-42.667 51.2-76.8 98.133-98.133-17.067 4.267-34.133 12.8-51.2 25.6 0-12.8 4.267-21.333 8.533-29.867 8.533 0 17.067 0 25.6 4.267-8.533-4.267-12.8-4.267-21.333-8.533 4.267-4.267 4.267-4.267 8.533-8.533-4.267 0-8.533 4.267-12.8 8.533-8.533 0-17.067 0-25.6 0 4.267-12.8 12.8-21.333 25.6-25.6-17.067 0-29.867 12.8-34.133 25.6-4.267 0-8.533 4.267-17.067 4.267 0-4.267 0-8.533-4.267-17.067 0-4.267-4.267-8.533-4.267-17.067 4.267-12.8 17.067-21.333 25.6-21.333-12.8 0-25.6 4.267-29.867 17.067-4.267-8.533-8.533-17.067-12.8-25.6 12.8-4.267 25.6-4.267 34.133 0-12.8-4.267-25.6-4.267-38.4 0-8.533-12.8-21.333-25.6-38.4-34.133 12.8 8.533 25.6 21.333 34.133 34.133-8.533 4.267-17.067 8.533-21.333 17.067-4.267-4.267-12.8-12.8-21.333-17.067-4.267-21.333-17.067-38.4-29.867-51.2 12.8 12.8 21.333 29.867 25.6 46.933 0 0-4.267-4.267-8.533-4.267 4.267 0 4.267 4.267 8.533 8.533 0 12.8 4.267 21.333 4.267 34.133-8.533-8.533-17.067-17.067-25.6-25.6-8.533-12.8-8.533-29.867-4.267-46.933-12.8-8.533-25.6-12.8-38.4-17.067 12.8 4.267 21.333 12.8 29.867 21.333 0 12.8 0 21.333 0 34.133-8.533-4.267-17.067-12.8-25.6-17.067-12.8-17.067-25.6-29.867-42.667-46.933 12.8 12.8 25.6 25.6 34.133 38.4-12.8-8.533-29.867-12.8-46.933-17.067-17.067-12.8-34.133-21.333-55.467-25.6 25.6 8.533 46.933 25.6 64 42.667-17.067-4.267-34.133-12.8-51.2-17.067-12.8-8.533-25.6-21.333-38.4-25.6-4.267 4.267-4.267 12.8-8.533 17.067-12.8 0-29.867-4.267-42.667-4.267 12.8 0 25.6 4.267 42.667 4.267-4.267 4.267-8.533 8.533-12.8 12.8-12.8-4.267-25.6-8.533-42.667-8.533 0-4.267 0-4.267 0-8.533 0 4.267 0 4.267-4.267 8.533-12.8 0-25.6 0-34.133 0 12.8 0 21.333 0 34.133 4.267 0 0 0 4.267 0 8.533-17.067 0-29.867 0-46.933 0 17.067 0 29.867 0 46.933 0 0 12.8 4.267 25.6 12.8 38.4-4.267 0-12.8 0-17.067 0-25.6-8.533-46.933-21.333-64-34.133-21.333 21.333-42.667 34.133-68.267 42.667 25.6-4.267 51.2-17.067 68.267-34.133 12.8 12.8 25.6 21.333 38.4 25.6-42.667 0-81.067 8.533-119.467 21.333 59.733-12.8 119.467-17.067 179.2-8.533-17.067 4.267-29.867 12.8-38.4 25.6-17.067-4.267-29.867-8.533-46.933-8.533v0 0c-42.667-4.267-85.333 4.267-123.733 25.6 34.133-17.067 72.533-21.333 106.667-21.333-21.333 8.533-38.4 21.333-55.467 34.133-29.867-4.267-64 4.267-89.6 25.6 25.6-8.533 46.933-12.8 72.533-12.8-4.267 29.867-12.8 38.4-25.6 46.933s-21.333 21.333-34.133 34.133c-29.867 8.533-59.733 29.867-76.8 59.733 17.067-21.333 38.4-38.4 68.267-46.933-42.667 55.467-72.533 119.467-85.333 192 17.067-72.533 51.2-136.533 102.4-192 17.067 0 29.867 0 46.933 4.267 25.6-51.2 85.333-81.067 140.8-68.267 0-12.8 8.533-25.6 12.8-34.133 17.067 8.533 34.133 21.333 51.2 34.133 76.8-12.8 157.867 17.067 209.067 76.8 25.6 25.6 38.4 64 34.133 98.133 0 8.533-4.267 21.333-8.533 29.867-17.067 34.133-46.933 59.733-85.333 68.267-25.6 4.267-59.733-4.267-76.8-29.867s-21.333-55.467-4.267-85.333 46.933-42.667 76.8-34.133c-34.133-8.533-68.267 8.533-85.333 34.133-17.067 29.867-17.067 64 0 93.867 4.267 8.533 8.533 12.8 17.067 17.067-25.6-8.533-46.933-25.6-64-46.933-4.267-21.333 0-38.4 8.533-59.733 12.8-25.6 34.133-46.933 59.733-55.467-42.667 8.533-76.8 46.933-81.067 89.6-25.6-59.733 17.067-119.467 76.8-123.733 46.933-4.267 89.6 29.867 98.133 76.8-4.267-38.4-25.6-72.533-64-85.333-34.133-12.8-76.8-8.533-102.4 17.067s-38.4 64-29.867 102.4c17.067 51.2 59.733 89.6 115.2 98.133 29.867 4.267 59.733 0 85.333-17.067-196.267 162.133-217.6-106.667-388.267-55.467-68.267 21.333-106.667 81.067-98.133 153.6 0-25.6 4.267-46.933 12.8-64 0 4.267 0 8.533 4.267 12.8 4.267 12.8 25.6 17.067 34.133 12.8 12.8-4.267 21.333-17.067 12.8-34.133 8.533 25.6-17.067 42.667-34.133 29.867-29.867-21.333 17.067-72.533 38.4-81.067 8.533-4.267 17.067-8.533 29.867-12.8 29.867-12.8 68.267-8.533 98.133 4.267-38.4-4.267-72.533 8.533-98.133 38.4 46.933-34.133 110.933-46.933 149.333 4.267-25.6-8.533-55.467-8.533-85.333-4.267-85.333 21.333-153.6 132.267-64 192 34.133 25.6 76.8 21.333 110.933-4.267 72.533-51.2 55.467-149.333-55.467-149.333-34.133 0-51.2 46.933-29.867 85.333 4.267 12.8 12.8 21.333 29.867 29.867 17.067 4.267 38.4 0 46.933-17.067s4.267-38.4-8.533-51.2c8.533 8.533 12.8 25.6 4.267 38.4-4.267 12.8-17.067 21.333-29.867 21.333-42.667 0-64-85.333-17.067-93.867s145.067 51.2 42.667 128c-25.6 21.333-64 21.333-93.867 0-76.8-55.467-8.533-149.333 64-170.667 106.667-29.867 132.267 68.267 247.467 51.2-25.6 12.8-128 68.267-145.067 85.333 21.333-12.8 46.933-25.6 72.533-29.867-21.333 21.333-34.133 46.933-42.667 76.8 29.867-59.733 81.067-106.667 145.067-128 0 4.267-4.267 8.533-8.533 12.8-12.8 25.6-4.267 55.467 17.067 72.533s51.2 17.067 76.8 0c-17.067 8.533-38.4 8.533-55.467 0-72.533-42.667 17.067-110.933 55.467-123.733l42.667-25.6c0 21.333 0 38.4 4.267 59.733 21.333 123.733-106.667 59.733-46.933 4.267-12.8 8.533-21.333 25.6-21.333 38.4 0 17.067 8.533 29.867 25.6 38.4 8.533 4.267 21.333 4.267 29.867 0-4.267 8.533-8.533 21.333-17.067 29.867-93.867 38.4-170.667-89.6-234.667 46.933 76.8-115.2 128-8.533 221.867-25.6 0 0 0 0-4.267 4.267-25.6 25.6-59.733 38.4-93.867 46.933-12.8 0-25.6-8.533-34.133-21.333-4.267-4.267-4.267-17.067 0-21.333s12.8-8.533 21.333-8.533c4.267 0 12.8 8.533 8.533 12.8 0 4.267-4.267 12.8-12.8 12.8 8.533 0 12.8 0 17.067-8.533 4.267-4.267 4.267-12.8 0-21.333-8.533-8.533-21.333-12.8-34.133-8.533-12.8 8.533-17.067 21.333-17.067 34.133s8.533 25.6 21.333 34.133c0 0 0 0 4.267 0-34.133 4.267-72.533 0-106.667-17.067 59.733 34.133 132.267 34.133 196.267 4.267-12.8 12.8-29.867 25.6-46.933 38.4v0c-25.6 8.533-51.2 12.8-76.8 17.067-25.6-25.6-46.933-38.4-85.333-21.333 29.867-8.533 51.2-4.267 72.533 21.333-46.933 0-89.6-4.267-132.267-21.333 55.467 34.133 123.733 42.667 187.733 25.6-68.267 42.667-192 38.4-204.8-25.6-17.067-25.6 8.533-89.6 42.667-59.733 17.067 12.8 17.067 51.2 0 51.2-8.533 0-12.8-4.267-12.8-12.8 0-4.267 0-12.8 8.533-17.067 0-4.267 4.267-4.267 12.8-4.267-8.533-4.267-17.067-4.267-25.6 0s-12.8 17.067-8.533 21.333 8.533 17.067 17.067 17.067c8.533 4.267 17.067 0 25.6-4.267 25.6-25.6 4.267-72.533-29.867-68.267-25.6 0-42.667 17.067-46.933 38.4-8.533-4.267-12.8-8.533-17.067-12.8-12.8-4.267-29.867-4.267-42.667 4.267-4.267 8.533-8.533 17.067-4.267 25.6s12.8 12.8 21.333 12.8c4.267 0 8.533-4.267 8.533-8.533s0-8.533-4.267-12.8c-4.267-4.267-8.533-4.267-12.8 0 4.267 0 8.533 0 8.533 4.267s0 8.533-4.267 8.533c-4.267 0-8.533-4.267-12.8-8.533 0-4.267 0-12.8 4.267-12.8 12.8-4.267 29.867 0 38.4 8.533 0 0 4.267 4.267 4.267 8.533 0 29.867 8.533 46.933 21.333 59.733-132.267-25.6-162.133-93.867-192-192 29.867 170.667 128 192 217.6 217.6-51.2-4.267-98.133-17.067-140.8-42.667 81.067 55.467 183.467 72.533 281.6 46.933 12.8 12.8 34.133 17.067 55.467 21.333-76.8 29.867-170.667 25.6-247.467-12.8 187.733 98.133 354.133 25.6 435.2-145.067 0 17.067-4.267 34.133-12.8 51.2 0 0 0 4.267 0 4.267-17.067 51.2-81.067 149.333-196.267 149.333 119.467 0 174.933-81.067 196.267-119.467 4.267 17.067 12.8 34.133 29.867 42.667-12.8-17.067-21.333-38.4-21.333-59.733 8.533-25.6 17.067-51.2 17.067-76.8v0c8.533 8.533 21.333 12.8 34.133 8.533 8.533-4.267 12.8-12.8 12.8-25.6v0c17.067 12.8 38.4 21.333 42.667 42.667 4.267 17.067 0 34.133-21.333 38.4-4.267 0-4.267 0-8.533 0s-8.533 0-12.8-4.267-8.533-12.8-4.267-21.333c4.267-8.533 12.8-12.8 21.333-8.533 4.267 0 8.533 8.533 8.533 12.8s-8.533 8.533-12.8 12.8c8.533 0 12.8-4.267 17.067-12.8 0-8.533 0-17.067-8.533-21.333-4.267-4.267-12.8-4.267-21.333 0-12.8 8.533-17.067 21.333-12.8 34.133s21.333 21.333 38.4 12.8c17.067-8.533 29.867-25.6 29.867-42.667 0-42.667-59.733-51.2-89.6-106.667 0 0 0 0 0-4.267 8.533 21.333 25.6 34.133 42.667 46.933 25.6 12.8 55.467 17.067 81.067 8.533-29.867 8.533-59.733 0-81.067-17.067s-34.133-38.4-38.4-64c38.4 17.067 55.467 38.4 59.733 68.267 0-34.133-12.8-64-38.4-89.6 42.667 21.333 132.267 46.933 110.933 110.933 21.333-64-29.867-85.333-81.067-106.667 42.667 8.533 93.867-4.267 106.667-42.667 8.533-21.333 4.267-46.933-8.533-64s-38.4-25.6-59.733-21.333c21.333-4.267 42.667 4.267 55.467 21.333s12.8 42.667 4.267 59.733v0zM704 209.067c-4.267-25.6-17.067-55.467-34.133-76.8 0-12.8 0-25.6-4.267-38.4 25.6 34.133 38.4 76.8 38.4 115.2zM691.2 110.933c4.267-8.533 8.533-17.067 17.067-21.333 8.533 17.067 12.8 34.133 17.067 51.2 4.267 25.6 0 55.467-17.067 76.8 12.8-34.133 4.267-72.533-17.067-106.667zM593.067 106.667c-12.8-21.333-29.867-42.667-51.2-55.467 17.067 4.267 34.133 12.8 51.2 21.333 8.533 17.067 21.333 29.867 25.6 51.2-4.267-8.533-12.8-12.8-25.6-17.067zM576 98.133c-17.067-4.267-29.867-8.533-46.933-12.8-4.267-12.8-12.8-21.333-21.333-29.867 25.6 12.8 55.467 21.333 68.267 42.667z" />
<glyph unicode="&#xe90a;" glyph-name="uniE90A" d="M947.2 960h-857.6c-51.2 0-89.6-38.4-89.6-89.6v-857.6c0-46.933 38.4-89.6 89.6-89.6h857.6c46.933 0 89.6 38.4 89.6 89.6v857.6c0 51.2-42.667 89.6-89.6 89.6zM102.4 755.2c0 34.133 25.6 59.733 59.733 59.733h678.4c29.867 0 55.467-25.6 55.467-59.733v0c0-34.133-25.6-59.733-59.733-59.733h-678.4c-29.867 0-55.467 25.6-55.467 59.733 0 0 0 0 0 0zM102.4 524.8c0 34.133 25.6 59.733 59.733 59.733h678.4c34.133 0 59.733-25.6 59.733-59.733v0c0-34.133-25.6-59.733-59.733-59.733h-682.667c-29.867 0-55.467 25.6-55.467 59.733 0 0 0 0 0 0zM307.2 234.667c0-34.133-25.6-59.733-59.733-59.733h-89.6c-34.133 0-59.733 25.6-59.733 59.733v0c0 34.133 25.6 59.733 59.733 59.733h89.6c34.133-4.267 59.733-29.867 59.733-59.733v0zM738.133 119.467c0-25.6-21.333-51.2-51.2-51.2h-294.4c-25.6 0-51.2 21.333-51.2 51.2v200.533c0 25.6 21.333 51.2 51.2 51.2h294.4c25.6 0 51.2-21.333 51.2-51.2v-200.533zM934.4 72.533l-149.333 102.4v89.6l149.333 102.4c0 0 0-294.4 0-294.4z" />
<glyph unicode="&#xe90b;" glyph-name="uniE90B" d="M512 59.733v0c34.133 0 64 29.867 64 64v648.533c0 34.133-29.867 64-64 64v0c-34.133 0-64-29.867-64-64v-648.533c0-34.133 29.867-64 64-64zM900.267 448v0c0 34.133-29.867 64-64 64h-648.533c-34.133 0-64-29.867-64-64v0c0-34.133 29.867-64 64-64h648.533c34.133 0 64 29.867 64 64z" />
<glyph unicode="&#xe90c;" glyph-name="uniE90c" d="M652.8 516.267c123.733 0 68.267-140.8 68.267-140.8s140.8 55.467 140.8-68.267v-209.067h-349.867v422.4h140.8zM682.667 588.8h-238.933v-563.2h490.667v311.467c0 85.333-140.8 251.733-251.733 251.733zM371.2 166.4h-209.067v563.2h140.8l72.533-68.267h136.533l68.267 68.267h140.8v-76.8c21.333-4.267 46.933-12.8 68.267-25.6v170.667h-106.667c-42.667 0-76.8 38.4-106.667 68.267h-273.067c-29.867-29.867-64-68.267-106.667-68.267h-106.667v-704h281.6v72.533zM443.733 797.867c21.333 0 34.133-17.067 34.133-34.133s-17.067-34.133-34.133-34.133-38.4 17.067-38.4 34.133 17.067 34.133 38.4 34.133zM580.267 166.4h209.067v34.133h-209.067v-34.133zM580.267 238.933h209.067v34.133h-209.067v-34.133zM580.267 307.2h209.067v34.133h-209.067v-34.133z" />
<glyph unicode="&#xe90d;" glyph-name="uniE90d" d="M443.733 729.6c21.333 0 34.133 17.067 34.133 34.133s-17.067 34.133-34.133 34.133-38.4-12.8-38.4-34.133 17.067-34.133 38.4-34.133zM721.067 379.733c0 0 51.2 140.8-68.267 140.8h-140.8v-422.4h349.867v209.067c0 128-140.8 72.533-140.8 72.533zM793.6 166.4h-209.067v34.133h209.067v-34.133zM793.6 238.933h-209.067v34.133h209.067v-34.133zM793.6 307.2h-209.067v34.133h209.067v-34.133zM947.2 960h-870.4c-42.667 0-76.8-34.133-76.8-76.8v-870.4c0-42.667 34.133-76.8 76.8-76.8h870.4c42.667 0 76.8 34.133 76.8 76.8v870.4c0 42.667-34.133 76.8-76.8 76.8zM371.2 166.4v-68.267h-281.6v699.733h106.667c42.667 0 76.8 38.4 106.667 68.267h281.6c29.867-34.133 64-68.267 106.667-68.267h106.667v-170.667c-25.6 12.8-46.933 21.333-68.267 25.6v76.8h-140.8l-76.8-72.533h-136.533l-72.533 72.533h-140.8v-563.2h209.067zM934.4 25.6h-490.667v563.2h238.933c110.933 0 251.733-166.4 251.733-251.733v-311.467z" />
<glyph unicode="&#xe90e;" glyph-name="uniE90e" d="M947.2 960h-870.4c-42.667 0-76.8-34.133-76.8-76.8v-870.4c0-42.667 34.133-76.8 76.8-76.8h870.4c42.667 0 76.8 34.133 76.8 76.8v870.4c0 42.667-34.133 76.8-76.8 76.8zM836.267 384h-260.267v-260.267c0-34.133-29.867-64-64-64s-64 29.867-64 64v260.267h-260.267c-34.133 0-64 29.867-64 64s29.867 64 64 64h260.267v260.267c0 34.133 29.867 64 64 64s64-29.867 64-64v-260.267h260.267c34.133 0 64-29.867 64-64s-29.867-64-64-64z" />
<glyph unicode="&#xe90f;" glyph-name="uniE90f" d="M1024 874.667c0 46.933-38.4 85.333-85.333 85.333h-853.333c-46.933 0-85.333-38.4-85.333-85.333v-853.333c0-46.933 38.4-85.333 85.333-85.333h853.333c46.933 0 85.333 38.4 85.333 85.333 0 0 0 853.333 0 853.333zM260.267 149.333l-136.533-17.067 51.2 128 55.467 128 166.4-221.867c0 0-136.533-17.067-136.533-17.067zM422.4 187.733l-166.4 217.6 349.867 264.533 166.4-221.867c0 0-349.867-260.267-349.867-260.267zM797.867 469.333l-166.4 221.867 42.667 34.133 166.4-221.867-42.667-34.133zM866.133 520.533l-166.4 221.867 42.667 34.133 166.4-221.867-42.667-34.133z" />
<glyph unicode="&#xe910;" glyph-name="uniE910" d="M230.4 533.333l-29.867 196.267h162.133c34.133-42.667 38.4-55.467 93.867-55.467h366.933l-29.867-140.8h-119.467l-110.933 85.333-42.667-55.467 38.4-29.867h-55.467l-102.4 85.333-64-85.333h-106.667zM170.667 477.867l55.467-311.467h567.467l55.467 311.467h-678.4z" />
<glyph unicode="&#xe911;" glyph-name="uniE911" d="M597.333 234.667l-81.067-81.067c-81.067-81.067-217.6-81.067-298.667 0s-81.067 217.6 0 298.667l81.067 81.067 64-64-81.067-81.067c-46.933-46.933-46.933-123.733 0-174.933 46.933-46.933 123.733-46.933 174.933 0l81.067 81.067 59.733-59.733zM507.733 742.4l-81.067-81.067 64-64 81.067 81.067c46.933 46.933 123.733 46.933 174.933 0 46.933-46.933 46.933-123.733 0-174.933l-81.067-81.067 59.733-59.733 81.067 81.067c81.067 81.067 81.067 217.6 0 298.667-81.067 85.333-213.333 85.333-298.667 0zM332.8 768l42.667 4.267 12.8-93.867-42.667-4.267-12.8 93.867zM187.733 584.533l4.267 42.667 93.867-12.8-4.267-42.667-93.867 12.8zM328.533 661.333l-29.867-29.867-64 64 29.867 29.867 64-64zM691.2 128l-42.667-4.267-12.8 93.867 42.667 4.267 12.8-93.867zM836.267 311.467l-4.267-42.667-93.867 12.8 4.267 42.667 93.867-12.8zM695.467 234.667l29.867 29.867 64-64-29.867-29.867-64 64z" />
<glyph unicode="&#xe912;" glyph-name="uniE912" d="M947.2 960h-870.4c-42.667 0-76.8-34.133-76.8-76.8v-870.4c0-42.667 34.133-76.8 76.8-76.8h870.4c42.667 0 76.8 34.133 76.8 76.8v870.4c0 42.667-34.133 76.8-76.8 76.8zM375.467 772.267l12.8-93.867-42.667-4.267-12.8 93.867 42.667 4.267zM264.533 725.333l64-64-29.867-29.867-64 64 29.867 29.867zM192 627.2l93.867-12.8-4.267-42.667-93.867 12.8 4.267 42.667zM516.267 153.6c-81.067-81.067-217.6-81.067-298.667 0s-81.067 217.6 0 298.667l81.067 81.067 64-64-81.067-81.067c-46.933-46.933-46.933-123.733 0-174.933 46.933-46.933 123.733-46.933 174.933 0l81.067 81.067 59.733-59.733-81.067-81.067zM648.533 123.733l-12.8 93.867 42.667 4.267 12.8-93.867-42.667-4.267zM759.467 170.667l-64 64 29.867 29.867 64-64-29.867-29.867zM832 268.8l-93.867 12.8 4.267 42.667 93.867-12.8-4.267-42.667zM806.4 443.733l-81.067-81.067-64 64 81.067 81.067c46.933 46.933 46.933 123.733 0 174.933-46.933 46.933-123.733 46.933-174.933 0l-81.067-81.067-59.733 59.733 81.067 81.067c81.067 81.067 217.6 81.067 298.667 0 85.333-81.067 85.333-213.333 0-298.667z" />
<glyph unicode="&#xe913;" glyph-name="uniE913" d="M797.867 802.133l-119.467-119.467c-76.8 46.933-174.933 34.133-238.933-29.867l-132.267-132.267c-64-64-72.533-162.133-29.867-238.933l-119.467-119.467c-17.067-17.067-17.067-46.933 0-68.267 17.067-17.067 46.933-17.067 68.267 0l119.467 119.467c76.8-46.933 174.933-34.133 238.933 29.867l132.267 132.267c64 64 72.533 162.133 29.867 238.933l119.467 119.467c17.067 17.067 17.067 46.933 0 68.267-21.333 17.067-51.2 17.067-68.267 0zM648.533 439.467l-132.267-132.267c-25.6-25.6-68.267-34.133-102.4-25.6l51.2 51.2c17.067 17.067 17.067 46.933 0 68.267-17.067 17.067-46.933 17.067-68.267 0l-51.2-51.2c-8.533 34.133 0 72.533 25.6 102.4l132.267 132.267c25.6 25.6 68.267 34.133 102.4 25.6l-51.2-51.2c-17.067-17.067-17.067-46.933 0-68.267 17.067-17.067 46.933-17.067 68.267 0l51.2 51.2c8.533-34.133 0-72.533-25.6-102.4z" />
<glyph unicode="&#xe914;" glyph-name="uniE914" d="M631.467 494.933c-17.067-17.067-46.933-17.067-68.267 0-17.067 17.067-17.067 46.933 0 68.267l51.2 51.2c-34.133 8.533-72.533 0-102.4-25.6l-128-132.267c-25.6-25.6-34.133-68.267-25.6-102.4l51.2 51.2c17.067 17.067 46.933 17.067 68.267 0 17.067-17.067 17.067-46.933 0-68.267l-51.2-51.2c34.133-8.533 72.533 0 102.4 25.6l132.267 132.267c25.6 25.6 34.133 68.267 25.6 102.4l-55.467-51.2zM947.2 960h-870.4c-42.667 0-76.8-34.133-76.8-76.8v-870.4c0-42.667 34.133-76.8 76.8-76.8h870.4c42.667 0 76.8 34.133 76.8 76.8v870.4c0 42.667-34.133 76.8-76.8 76.8zM874.667 733.867l-119.467-119.467c46.933-76.8 34.133-174.933-29.867-238.933l-132.267-132.267c-64-64-162.133-72.533-238.933-29.867l-119.467-119.467c-17.067-17.067-46.933-17.067-68.267 0-17.067 17.067-17.067 46.933 0 68.267l119.467 119.467c-46.933 76.8-34.133 174.933 29.867 238.933l132.267 132.267c64 64 162.133 72.533 238.933 29.867l119.467 119.467c17.067 17.067 46.933 17.067 68.267 0 17.067-21.333 17.067-51.2 0-68.267z" />
<glyph unicode="&#xe915;" glyph-name="uniE915" d="M827.307 960h-630.613c-108.631 0-196.693-88.063-196.693-196.693v-630.613c0-108.631 88.063-196.693 196.693-196.693h630.613c108.631 0 196.693 88.063 196.693 196.693v630.613c0 108.631-88.063 196.693-196.693 196.693zM853.333 234.667c0-70.692-57.308-128-128-128h-426.667c-70.692 0-128 57.308-128 128v228.693c0 70.692 57.308 128 128 128h161.28v79.787h-50.347c-5.719 0.218-10.273 4.907-10.273 10.659 0 1.881 0.487 3.647 1.341 5.182l102.372 177.012c1.893 3.149 5.291 5.224 9.173 5.224s7.281-2.074 9.146-5.175l102.427-177.541c0.826-1.48 1.313-3.247 1.313-5.127 0-5.753-4.554-10.442-10.253-10.659l-49.513-0.001v-79.787h160c70.692 0 128-57.308 128-128zM725.333 506.88h-160v-90.027c0-16.966-13.754-30.72-30.72-30.72h-45.227c-16.966 0-30.72 13.754-30.72 30.72v88.747h-160c-23.564 0-42.667-19.103-42.667-42.667v-228.267c0-23.564 19.103-42.667 42.667-42.667h426.667c23.564 0 42.667 19.103 42.667 42.667v228.693c-0.241 23.38-19.25 42.24-42.665 42.24-0.001 0-0.002 0-0.002 0z" />
<glyph unicode="&#xe916;" glyph-name="uniE916" d="M810.667 960h-597.333c-117.821 0-213.333-95.513-213.333-213.333v-597.333c0-117.821 95.513-213.333 213.333-213.333h597.333c117.821 0 213.333 95.513 213.333 213.333v597.333c0 117.821-95.513 213.333-213.333 213.333zM341.333 149.333h-128v469.333h128zM277.333 672.853c-0.124-0.001-0.27-0.001-0.416-0.001-41.473 0-75.093 33.62-75.093 75.093s33.62 75.093 75.093 75.093c41.473 0 75.093-33.62 75.093-75.093 0-0.45-0.004-0.898-0.012-1.346-0.716-40.706-33.821-73.513-74.643-73.746zM853.333 149.333h-128v238.933c0 143.787-170.667 132.693-170.667 0v-238.933h-128v469.333h128v-75.52c59.733 110.507 298.667 118.613 298.667-105.813z" />
<glyph unicode="&#xe917;" glyph-name="uniE917" d="M810.667 960h-597.333c-117.821 0-213.333-95.513-213.333-213.333v-597.333c0-117.821 95.513-213.333 213.333-213.333h597.333c117.821 0 213.333 95.513 213.333 213.333v597.333c0 117.821-95.513 213.333-213.333 213.333zM682.667 661.333h-81.92c-26.027 0-46.080-10.667-46.080-37.973v-47.36h128l-10.24-128h-117.76v-341.333h-128v341.333h-85.333v128h85.333v81.92c0 86.187 45.227 131.413 147.627 131.413h108.373z" />
<glyph unicode="&#xe918;" glyph-name="uniE918" d="M810.667 960h-597.333c-117.821 0-213.333-95.513-213.333-213.333v-597.333c0-117.821 95.513-213.333 213.333-213.333h597.333c117.821 0 213.333 95.513 213.333 213.333v597.333c0 117.821-95.513 213.333-213.333 213.333zM804.693 565.76c0.28-5.587 0.44-12.132 0.44-18.715 0-219.854-178.226-398.080-398.080-398.080-79.878 0-154.261 23.527-216.598 64.028 11.581-2.207 23.195-2.929 34.979-2.929 65.895 0 126.512 22.599 174.523 60.47-61.67 0.72-113.096 40.719-131.301 95.833 7.533-0.543 16.521-1.422 25.714-1.422 13.217 0 26.010 1.816 38.143 5.211-65.487 13.31-113.216 69.723-113.216 137.284 0 0.553 0.003 1.104 0.010 1.656 18.265-10.771 40.041-17.46 63.296-18.421-37.178 25.583-61.443 68.088-61.443 116.259 0 26.015 7.077 50.377 19.41 71.266 69.2-84.562 171.523-139.208 286.723-144.831-1.831 10.333-3.411 22.238-3.411 34.511 0 77.29 62.656 139.947 139.947 139.947 41.311 0 78.442-17.9 104.059-46.367 33.745 6.636 63.62 18.478 90.548 34.712-12.032-33.774-33.764-60.763-62.082-78.009 29.306 3.306 56.542 11.116 81.785 22.552-20.947-29.176-44.168-53.212-70.925-72.685z" />
<glyph unicode="&#xe919;" glyph-name="uniE919" d="M810.667 960h-597.333c-119.467 0-213.333-93.867-213.333-213.333v-597.333c0-119.467 93.867-213.333 213.333-213.333h597.333c119.467 0 213.333 93.867 213.333 213.333v597.333c0 119.467-93.867 213.333-213.333 213.333zM371.2 247.467c-110.933 0-200.533 89.6-200.533 200.533s89.6 200.533 200.533 200.533c55.467 0 98.133-21.333 132.267-51.2l-55.467-51.2c-12.8 12.8-42.667 29.867-81.067 29.867-68.267 0-123.733-55.467-123.733-123.733s55.467-123.733 123.733-123.733c76.8 0 106.667 55.467 110.933 85.333h-106.667v68.267h187.733c0-8.533 4.267-21.333 4.267-34.133-4.267-119.467-76.8-200.533-192-200.533zM853.333 418.133h-85.333v-85.333h-55.467v85.333h-85.333v55.467h85.333v85.333h55.467v-85.333h85.333v-55.467z" />
<glyph unicode="&#xe91a;" glyph-name="uniE91A" d="M512 418.133l-512 413.867h1024c0 0-512-413.867-512-413.867zM512 307.2l-512 413.867v-657.067h1024v657.067l-512-413.867z" />
<glyph unicode="&#xe91b;" glyph-name="uniE91B" d="M810.667 960h-597.333c-117.803 0-213.333-95.531-213.333-213.333v-597.333c0-117.803 95.531-213.333 213.333-213.333h597.333c117.845 0 213.333 95.531 213.333 213.333v597.333c0 117.803-95.488 213.333-213.333 213.333zM512 106.667c-35.2 0-69.12 5.333-101.077 15.232 13.909 22.656 34.688 59.819 42.411 89.515l21.291 81.109c11.136-21.248 43.648-39.168 78.208-39.168 102.997 0 177.152 94.677 177.152 212.309 0 112.768-92.032 197.12-210.475 197.12-147.285 0-225.536-98.859-225.536-206.549 0-50.091 26.667-112.384 69.291-132.267 6.443-2.987 9.899-1.664 11.435 4.565l9.472 38.699c0.811 3.456 0.427 6.4-2.389 9.813-14.123 17.067-25.387 48.555-25.387 77.867 0 75.307 57.003 148.139 154.112 148.139 83.84 0 142.549-57.131 142.549-138.88 0-92.331-46.635-156.288-107.307-156.288-33.536 0-58.624 27.691-50.56 61.696 9.643 40.576 28.288 84.352 28.288 113.664 0 26.197-14.080 48.085-43.179 48.085-34.261 0-61.781-35.456-61.781-82.901 0-30.251 10.197-50.688 10.197-50.688s-33.835-143.061-40.021-169.685c-6.869-29.483-4.181-70.912-1.195-97.877-126.891 49.707-216.832 173.227-216.832 317.824 0 188.501 152.832 341.333 341.333 341.333s341.333-152.832 341.333-341.333-152.832-341.333-341.333-341.333z" />
<glyph unicode="&#xe91c;" glyph-name="uniE91C" d="M512 874.667c235.264 0 426.667-191.403 426.667-426.667s-191.403-426.667-426.667-426.667-426.667 191.403-426.667 426.667 191.403 426.667 426.667 426.667zM512 960c-282.752 0-512-229.248-512-512s229.248-512 512-512 512 229.248 512 512-229.248 512-512 512zM699.435 640l-240.768-246.784-112.811 106.923-79.189-79.275 192-186.197 320 326.101-79.232 79.232z" />
<glyph unicode="&#xe91d;" glyph-name="uniE91D" d="M621.141 284.715c4.139-4.096 4.139-10.795 0-14.891-22.656-22.571-58.24-33.536-108.757-33.536l-0.384 0.085-0.384-0.085c-50.56 0-86.101 10.965-108.757 33.536-4.139 4.096-4.139 10.795 0 14.891 4.096 4.096 10.837 4.096 14.976 0 18.475-18.389 49.152-27.349 93.824-27.349l0.384-0.085 0.384 0.085c44.629 0 75.307 8.96 93.824 27.349 4.053 4.139 10.752 4.139 14.891 0zM615.765 447.445c-24.789 0-44.971-20.096-44.971-44.8s20.181-44.757 44.971-44.757c24.789 0 44.971 20.096 44.971 44.757 0 24.704-20.181 44.8-44.971 44.8zM453.376 402.645c0 24.704-20.181 44.8-44.971 44.8s-45.013-20.096-45.013-44.8c0-24.704 20.181-44.757 45.013-44.757 24.789-0.043 44.971 20.053 44.971 44.757zM1024 746.667v-597.333c0-117.803-95.488-213.333-213.333-213.333h-597.333c-117.803 0-213.333 95.531-213.333 213.333v597.333c0 117.803 95.531 213.333 213.333 213.333h597.333c117.845 0 213.333-95.531 213.333-213.333zM853.333 454.272c0 41.472-33.92 75.264-75.605 75.264-20.352 0-38.741-8.149-52.352-21.205-51.499 33.877-121.173 55.424-198.272 58.197l42.197 132.821 114.219-26.795-0.171-1.664c0-33.92 27.733-61.525 61.824-61.525 34.048 0 61.781 27.605 61.781 61.525s-27.733 61.525-61.781 61.525c-26.155 0-48.469-16.341-57.472-39.211l-123.136 28.843c-5.376 1.323-10.837-1.792-12.501-7.083l-47.061-148.096c-80.725-0.981-153.856-22.699-207.659-57.6-13.483 12.459-31.403 20.224-51.2 20.224-41.6 0.043-75.477-33.707-75.477-75.221 0-27.605 15.147-51.499 37.461-64.597-1.451-8.021-2.432-16.128-2.432-24.405 0-111.232 136.789-201.728 304.896-201.728 168.149 0 304.896 90.496 304.896 201.728 0 7.808-0.811 15.445-2.133 23.040 23.68 12.757 39.979 37.376 39.979 65.963z" />
<glyph unicode="&#xe91e;" glyph-name="uniE91E" d="M512 960c-281.6 0-512-230.4-512-512s230.4-512 512-512 512 230.4 512 512-226.133 512-512 512zM763.733 315.733c29.867-29.867 29.867-81.067 0-110.933l-12.8-12.8c-29.867-29.867-81.067-29.867-110.933 0l-128 128-128-128c-29.867-29.867-81.067-29.867-110.933 0l-12.8 12.8c-29.867 29.867-29.867 81.067 0 110.933l128 128-128 128c-29.867 29.867-29.867 81.067 0 110.933l12.8 12.8c29.867 29.867 81.067 29.867 110.933 0l128-128 128 128c29.867 29.867 81.067 29.867 110.933 0l12.8-12.8c29.867-29.867 29.867-81.067 0-110.933l-128-128 128-128z" />
<glyph unicode="&#xe91f;" glyph-name="uniE91F" d="M512-59.733c-281.6 0-507.733 226.133-507.733 507.733s226.133 507.733 507.733 507.733 507.733-226.133 507.733-507.733-226.133-507.733-507.733-507.733zM512 870.4c-234.667 0-422.4-187.733-422.4-422.4s187.733-422.4 422.4-422.4 422.4 187.733 422.4 422.4-187.733 422.4-422.4 422.4zM384 699.733c-29.867 29.867-81.067 29.867-110.933 0l-12.8-12.8c-29.867-29.867-29.867-81.067 0-110.933l128-128 123.733 119.467-128 132.267zM635.733 448l-123.733-123.733 128-128c29.867-29.867 81.067-29.867 110.933 0l12.8 12.8c29.867 29.867 29.867 81.067 0 110.933l-128 128zM763.733 576c29.867 29.867 29.867 81.067 0 110.933l-12.8 12.8c-29.867 29.867-81.067 29.867-110.933 0l-128-128-119.467-123.733-128-128c-29.867-29.867-29.867-81.067 0-110.933l12.8-12.8c29.867-29.867 81.067-29.867 110.933 0l251.733 251.733 123.733 128z" />
</font>
</defs>
</svg>
